<?xml version="1.0" encoding="UTF-8" standalone="no"?>
<!DOCTYPE svg PUBLIC "-//W3C//DTD SVG 1.1//EN"
 "http://www.w3.org/Graphics/SVG/1.1/DTD/svg11.dtd">
<!-- Generated by graphviz version 2.43.0 (0)
 -->
<!-- Title: objectAccessOD_t Pages: 1 -->
<svg width="261pt" height="162pt"
 viewBox="0.00 0.00 261.00 162.00" xmlns="http://www.w3.org/2000/svg" xmlns:xlink="http://www.w3.org/1999/xlink">
<g id="graph0" class="graph" transform="scale(1 1) rotate(0) translate(4 158)">
<title>objectAccessOD_t</title>
<polygon fill="white" stroke="transparent" points="-4,4 -4,-158 257,-158 257,4 -4,4"/>
<!-- Node1 -->
<g id="node1" class="node">
<title>Node1</title>
<g id="a_node1"><a xlink:title="Object declaration for objectAccessOD.">
<polygon fill="#bfbfbf" stroke="black" points="40,-0.5 40,-19.5 144,-19.5 144,-0.5 40,-0.5"/>
<text text-anchor="middle" x="92" y="-7.5" font-family="Helvetica,sans-Serif" font-size="10.00">objectAccessOD_t</text>
</a>
</g>
</g>
<!-- Node2 -->
<g id="node2" class="node">
<title>Node2</title>
<g id="a_node2"><a target="_parent" xlink:href="CANopenNode/structOD__IO__t.html" xlink:title=" ">
<polygon fill="white" stroke="black" points="12,-67.5 12,-86.5 68,-86.5 68,-67.5 12,-67.5"/>
<text text-anchor="middle" x="40" y="-74.5" font-family="Helvetica,sans-Serif" font-size="10.00">OD_IO_t</text>
</a>
</g>
</g>
<!-- Node2&#45;&gt;Node1 -->
<g id="edge1" class="edge">
<title>Node2&#45;&gt;Node1</title>
<path fill="none" stroke="#9a32cd" stroke-dasharray="5,2" d="M40.93,-57.24C42,-50.69 44.07,-43.58 48,-38 53.58,-30.09 62.28,-24.05 70.48,-19.71"/>
<polygon fill="#9a32cd" stroke="#9a32cd" points="37.42,-57.09 39.92,-67.39 44.39,-57.78 37.42,-57.09"/>
<text text-anchor="middle" x="77" y="-41" font-family="Helvetica,sans-Serif" font-size="10.00"> io_average</text>
</g>
<!-- Node3 -->
<g id="node3" class="node">
<title>Node3</title>
<g id="a_node3"><a target="_parent" xlink:href="CANopenNode/structOD__stream__t.html" xlink:title=" ">
<polygon fill="white" stroke="black" points="0,-134.5 0,-153.5 80,-153.5 80,-134.5 0,-134.5"/>
<text text-anchor="middle" x="40" y="-141.5" font-family="Helvetica,sans-Serif" font-size="10.00">OD_stream_t</text>
</a>
</g>
</g>
<!-- Node3&#45;&gt;Node2 -->
<g id="edge2" class="edge">
<title>Node3&#45;&gt;Node2</title>
<path fill="none" stroke="#9a32cd" stroke-dasharray="5,2" d="M40,-124.04C40,-111.67 40,-96.12 40,-86.63"/>
<polygon fill="#9a32cd" stroke="#9a32cd" points="36.5,-124.23 40,-134.23 43.5,-124.23 36.5,-124.23"/>
<text text-anchor="middle" x="59" y="-108" font-family="Helvetica,sans-Serif" font-size="10.00"> stream</text>
</g>
<!-- Node4 -->
<g id="node4" class="node">
<title>Node4</title>
<g id="a_node4"><a target="_parent" xlink:href="CANopenNode/structOD__extension__t.html" xlink:title=" ">
<polygon fill="white" stroke="black" points="86,-67.5 86,-86.5 180,-86.5 180,-67.5 86,-67.5"/>
<text text-anchor="middle" x="133" y="-74.5" font-family="Helvetica,sans-Serif" font-size="10.00">OD_extension_t</text>
</a>
</g>
</g>
<!-- Node4&#45;&gt;Node1 -->
<g id="edge3" class="edge">
<title>Node4&#45;&gt;Node1</title>
<path fill="none" stroke="#9a32cd" stroke-dasharray="5,2" d="M121.98,-58.53C114.05,-45.95 103.67,-29.51 97.44,-19.63"/>
<polygon fill="#9a32cd" stroke="#9a32cd" points="119.18,-60.64 127.47,-67.23 125.1,-56.91 119.18,-60.64"/>
<text text-anchor="middle" x="183.5" y="-41" font-family="Helvetica,sans-Serif" font-size="10.00"> OD_demoRecord_extension</text>
</g>
</g>
</svg>
