<?xml version="1.0" encoding="UTF-8" standalone="no"?>
<!DOCTYPE svg PUBLIC "-//W3C//DTD SVG 1.1//EN"
 "http://www.w3.org/Graphics/SVG/1.1/DTD/svg11.dtd">
<!-- Generated by graphviz version 2.43.0 (0)
 -->
<!-- Title: objectAccessOD_t Pages: 1 -->
<svg width="262pt" height="159pt"
 viewBox="0.00 0.00 262.00 159.00" xmlns="http://www.w3.org/2000/svg" xmlns:xlink="http://www.w3.org/1999/xlink">

<svg id="main" version="1.1" xmlns="http://www.w3.org/2000/svg" xmlns:xlink="http://www.w3.org/1999/xlink" xml:space="preserve" onload="init(evt)">
<style type="text/css"><![CDATA[
.node, .edge {opacity: 0.7;}
.node.selected, .edge.selected {opacity: 1;}
.edge:hover path { stroke: red; }
.edge:hover polygon { stroke: red; fill: red; }
]]></style>
<script type="application/ecmascript" xlink:href="svg.min.js"/>
<svg id="graph" class="graph">
<g id="graph0" class="graph" transform="scale(1 1) rotate(0) translate(4 155)">
<title>objectAccessOD_t</title>
<!-- Node1 -->
<g id="Node000001" class="node">
<title>Node1</title>
<g id="a_Node000001"><a xlink:title="Object declaration for objectAccessOD.">
<polygon fill="#999999" stroke="#666666" points="180,-19 76,-19 76,0 180,0 180,-19"/>
<text text-anchor="middle" x="128" y="-7" font-family="Helvetica,sans-Serif" font-size="10.00">objectAccessOD_t</text>
</a>
</g>
</g>
<!-- Node2 -->
<g id="Node000002" class="node">
<title>Node2</title>
<g id="a_Node000002"><a target="_parent" xlink:href="CANopenNode/structOD__extension__t.html" xlink:title=" ">
<polygon fill="white" stroke="#bfbfbf" points="94,-85 0,-85 0,-66 94,-66 94,-85"/>
<text text-anchor="middle" x="47" y="-73" font-family="Helvetica,sans-Serif" font-size="10.00">OD_extension_t</text>
</a>
</g>
</g>
<!-- Node2&#45;&gt;Node1 -->
<g id="edge1_Node000001_Node000002" class="edge">
<title>Node2&#45;&gt;Node1</title>
<g id="a_edge1_Node000001_Node000002"><a xlink:title=" ">
<path fill="none" stroke="#9a32cd" stroke-dasharray="5,2" d="M43.34,-55.76C43.09,-49.26 44.07,-42.29 48,-37 54.8,-27.84 64.89,-21.8 75.62,-17.83"/>
<polygon fill="#9a32cd" stroke="#9a32cd" points="39.89,-56.38 44.63,-65.85 46.84,-55.49 39.89,-56.38"/>
</a>
</g>
<text text-anchor="middle" x="117.5" y="-40" font-family="Helvetica,sans-Serif" font-size="10.00" fill="grey"> OD_demoRecord_extension</text>
</g>
<!-- Node3 -->
<g id="Node000003" class="node">
<title>Node3</title>
<g id="a_Node000003"><a target="_parent" xlink:href="CANopenNode/structOD__IO__t.html" xlink:title=" ">
<polygon fill="white" stroke="#bfbfbf" points="237,-85 181,-85 181,-66 237,-66 237,-85"/>
<text text-anchor="middle" x="209" y="-73" font-family="Helvetica,sans-Serif" font-size="10.00">OD_IO_t</text>
</a>
</g>
</g>
<!-- Node3&#45;&gt;Node1 -->
<g id="edge2_Node000001_Node000003" class="edge">
<title>Node3&#45;&gt;Node1</title>
<g id="a_edge2_Node000001_Node000003"><a xlink:title=" ">
<path fill="none" stroke="#9a32cd" stroke-dasharray="5,2" d="M201.34,-56.5C197.77,-49.71 192.96,-42.35 187,-37 178.22,-29.13 166.72,-23.25 156.21,-19.07"/>
<polygon fill="#9a32cd" stroke="#9a32cd" points="198.26,-58.17 205.7,-65.72 204.59,-55.19 198.26,-58.17"/>
</a>
</g>
<text text-anchor="middle" x="225" y="-40" font-family="Helvetica,sans-Serif" font-size="10.00" fill="grey"> io_average</text>
</g>
<!-- Node4 -->
<g id="Node000004" class="node">
<title>Node4</title>
<g id="a_Node000004"><a target="_parent" xlink:href="CANopenNode/structOD__stream__t.html" xlink:title=" ">
<polygon fill="white" stroke="#bfbfbf" points="249,-151 169,-151 169,-132 249,-132 249,-151"/>
<text text-anchor="middle" x="209" y="-139" font-family="Helvetica,sans-Serif" font-size="10.00">OD_stream_t</text>
</a>
</g>
</g>
<!-- Node4&#45;&gt;Node3 -->
<g id="edge3_Node000003_Node000004" class="edge">
<title>Node4&#45;&gt;Node3</title>
<g id="a_edge3_Node000003_Node000004"><a xlink:title=" ">
<path fill="none" stroke="#9a32cd" stroke-dasharray="5,2" d="M209,-121.58C209,-109.63 209,-94.72 209,-85.41"/>
<polygon fill="#9a32cd" stroke="#9a32cd" points="205.5,-121.87 209,-131.87 212.5,-121.87 205.5,-121.87"/>
</a>
</g>
<text text-anchor="middle" x="228" y="-106" font-family="Helvetica,sans-Serif" font-size="10.00" fill="grey"> stream</text>
</g>
</g>
</svg>
</svg>

<style type='text/css'>
<![CDATA[
[data-mouse-over-selected='false'] { opacity: 0.7; }
[data-mouse-over-selected='true']  { opacity: 1.0; }
]]>
</style>
<script type="application/ecmascript"><![CDATA[
document.addEventListener('DOMContentLoaded', (event) => {
  highlightEdges();
  highlightAdjacentNodes();
});
]]></script>
</svg>
