<?xml version="1.0" encoding="UTF-8" standalone="no"?>
<!DOCTYPE svg PUBLIC "-//W3C//DTD SVG 1.1//EN"
 "http://www.w3.org/Graphics/SVG/1.1/DTD/svg11.dtd">
<!-- Generated by graphviz version 2.43.0 (0)
 -->
<!-- Title: CO_error.h Pages: 1 -->
<svg width="476pt" height="84pt"
 viewBox="0.00 0.00 475.50 84.00" xmlns="http://www.w3.org/2000/svg" xmlns:xlink="http://www.w3.org/1999/xlink">
<g id="graph0" class="graph" transform="scale(1 1) rotate(0) translate(4 80)">
<title>CO_error.h</title>
<polygon fill="white" stroke="transparent" points="-4,4 -4,-80 471.5,-80 471.5,4 -4,4"/>
<!-- Node1 -->
<g id="node1" class="node">
<title>Node1</title>
<g id="a_node1"><a xlink:title="CANopenNode Linux socketCAN Error handling.">
<polygon fill="#bfbfbf" stroke="black" points="172.5,-56.5 172.5,-75.5 240.5,-75.5 240.5,-56.5 172.5,-56.5"/>
<text text-anchor="middle" x="206.5" y="-63.5" font-family="Helvetica,sans-Serif" font-size="10.00">CO_error.h</text>
</a>
</g>
</g>
<!-- Node2 -->
<g id="node2" class="node">
<title>Node2</title>
<g id="a_node2"><a xlink:title=" ">
<polygon fill="white" stroke="#bfbfbf" points="0,-0.5 0,-19.5 53,-19.5 53,-0.5 0,-0.5"/>
<text text-anchor="middle" x="26.5" y="-7.5" font-family="Helvetica,sans-Serif" font-size="10.00">stdint.h</text>
</a>
</g>
</g>
<!-- Node1&#45;&gt;Node2 -->
<g id="edge1" class="edge">
<title>Node1&#45;&gt;Node2</title>
<path fill="none" stroke="midnightblue" d="M177.98,-56.44C146.89,-47.12 97.07,-32.17 63.12,-21.99"/>
<polygon fill="midnightblue" stroke="midnightblue" points="63.71,-18.51 53.13,-18.99 61.7,-25.21 63.71,-18.51"/>
</g>
<!-- Node3 -->
<g id="node3" class="node">
<title>Node3</title>
<g id="a_node3"><a xlink:title=" ">
<polygon fill="white" stroke="#bfbfbf" points="71,-0.5 71,-19.5 122,-19.5 122,-0.5 71,-0.5"/>
<text text-anchor="middle" x="96.5" y="-7.5" font-family="Helvetica,sans-Serif" font-size="10.00">errno.h</text>
</a>
</g>
</g>
<!-- Node1&#45;&gt;Node3 -->
<g id="edge2" class="edge">
<title>Node1&#45;&gt;Node3</title>
<path fill="none" stroke="midnightblue" d="M188.83,-56.32C171.11,-47.62 143.6,-34.12 123.21,-24.11"/>
<polygon fill="midnightblue" stroke="midnightblue" points="124.65,-20.92 114.13,-19.65 121.56,-27.2 124.65,-20.92"/>
</g>
<!-- Node4 -->
<g id="node4" class="node">
<title>Node4</title>
<g id="a_node4"><a xlink:title=" ">
<polygon fill="white" stroke="#bfbfbf" points="140,-0.5 140,-19.5 193,-19.5 193,-0.5 140,-0.5"/>
<text text-anchor="middle" x="166.5" y="-7.5" font-family="Helvetica,sans-Serif" font-size="10.00">string.h</text>
</a>
</g>
</g>
<!-- Node1&#45;&gt;Node4 -->
<g id="edge3" class="edge">
<title>Node1&#45;&gt;Node4</title>
<path fill="none" stroke="midnightblue" d="M199.89,-56.08C194.24,-48.46 185.96,-37.26 179.05,-27.94"/>
<polygon fill="midnightblue" stroke="midnightblue" points="181.75,-25.7 172.98,-19.75 176.12,-29.87 181.75,-25.7"/>
</g>
<!-- Node5 -->
<g id="node5" class="node">
<title>Node5</title>
<g id="a_node5"><a xlink:title=" ">
<polygon fill="white" stroke="#bfbfbf" points="211.5,-0.5 211.5,-19.5 281.5,-19.5 281.5,-0.5 211.5,-0.5"/>
<text text-anchor="middle" x="246.5" y="-7.5" font-family="Helvetica,sans-Serif" font-size="10.00">linux/can.h</text>
</a>
</g>
</g>
<!-- Node1&#45;&gt;Node5 -->
<g id="edge4" class="edge">
<title>Node1&#45;&gt;Node5</title>
<path fill="none" stroke="midnightblue" d="M213.11,-56.08C218.76,-48.46 227.04,-37.26 233.95,-27.94"/>
<polygon fill="midnightblue" stroke="midnightblue" points="236.88,-29.87 240.02,-19.75 231.25,-25.7 236.88,-29.87"/>
</g>
<!-- Node6 -->
<g id="node6" class="node">
<title>Node6</title>
<g id="a_node6"><a xlink:title=" ">
<polygon fill="white" stroke="#bfbfbf" points="299.5,-0.5 299.5,-19.5 349.5,-19.5 349.5,-0.5 299.5,-0.5"/>
<text text-anchor="middle" x="324.5" y="-7.5" font-family="Helvetica,sans-Serif" font-size="10.00">net/if.h</text>
</a>
</g>
</g>
<!-- Node1&#45;&gt;Node6 -->
<g id="edge5" class="edge">
<title>Node1&#45;&gt;Node6</title>
<path fill="none" stroke="midnightblue" d="M225.2,-56.44C244.44,-47.64 274.65,-33.81 296.7,-23.72"/>
<polygon fill="midnightblue" stroke="midnightblue" points="298.25,-26.86 305.89,-19.52 295.34,-20.5 298.25,-26.86"/>
</g>
<!-- Node7 -->
<g id="node7" class="node">
<title>Node7</title>
<g id="a_node7"><a xlink:href="CO__error__msgs_8h_source.html" target="_top" xlink:title=" ">
<polygon fill="white" stroke="black" points="367.5,-0.5 367.5,-19.5 467.5,-19.5 467.5,-0.5 367.5,-0.5"/>
<text text-anchor="middle" x="417.5" y="-7.5" font-family="Helvetica,sans-Serif" font-size="10.00">CO_error_msgs.h</text>
</a>
</g>
</g>
<!-- Node1&#45;&gt;Node7 -->
<g id="edge6" class="edge">
<title>Node1&#45;&gt;Node7</title>
<path fill="none" stroke="midnightblue" d="M239.93,-56.44C276.36,-47.12 334.73,-32.18 374.53,-22"/>
<polygon fill="midnightblue" stroke="midnightblue" points="375.4,-25.39 384.22,-19.52 373.67,-18.61 375.4,-25.39"/>
</g>
</g>
</svg>
