<?xml version="1.0" encoding="UTF-8" standalone="no"?>
<!DOCTYPE svg PUBLIC "-//W3C//DTD SVG 1.1//EN"
 "http://www.w3.org/Graphics/SVG/1.1/DTD/svg11.dtd">
<!-- Generated by graphviz version 2.43.0 (0)
 -->
<!-- Title: CO_driver_target.h Pages: 1 -->
<svg width="658pt" height="140pt"
 viewBox="0.00 0.00 657.50 140.00" xmlns="http://www.w3.org/2000/svg" xmlns:xlink="http://www.w3.org/1999/xlink">
<g id="graph0" class="graph" transform="scale(1 1) rotate(0) translate(4 136)">
<title>CO_driver_target.h</title>
<polygon fill="white" stroke="transparent" points="-4,4 -4,-136 653.5,-136 653.5,4 -4,4"/>
<!-- Node1 -->
<g id="node1" class="node">
<title>Node1</title>
<g id="a_node1"><a xlink:title="Linux socketCAN specific definitions for CANopenNode.">
<polygon fill="#bfbfbf" stroke="black" points="217,-112.5 217,-131.5 325,-131.5 325,-112.5 217,-112.5"/>
<text text-anchor="middle" x="271" y="-119.5" font-family="Helvetica,sans-Serif" font-size="10.00">CO_driver_target.h</text>
</a>
</g>
</g>
<!-- Node2 -->
<g id="node2" class="node">
<title>Node2</title>
<g id="a_node2"><a xlink:title=" ">
<polygon fill="white" stroke="#bfbfbf" points="0,-56.5 0,-75.5 56,-75.5 56,-56.5 0,-56.5"/>
<text text-anchor="middle" x="28" y="-63.5" font-family="Helvetica,sans-Serif" font-size="10.00">stddef.h</text>
</a>
</g>
</g>
<!-- Node1&#45;&gt;Node2 -->
<g id="edge1" class="edge">
<title>Node1&#45;&gt;Node2</title>
<path fill="none" stroke="midnightblue" d="M230.67,-112.48C191.21,-104.09 129.13,-90.7 66.35,-76.27"/>
<polygon fill="midnightblue" stroke="midnightblue" points="66.8,-72.78 56.27,-73.95 65.22,-79.61 66.8,-72.78"/>
</g>
<!-- Node3 -->
<g id="node3" class="node">
<title>Node3</title>
<g id="a_node3"><a xlink:title=" ">
<polygon fill="white" stroke="#bfbfbf" points="74,-56.5 74,-75.5 136,-75.5 136,-56.5 74,-56.5"/>
<text text-anchor="middle" x="105" y="-63.5" font-family="Helvetica,sans-Serif" font-size="10.00">stdbool.h</text>
</a>
</g>
</g>
<!-- Node1&#45;&gt;Node3 -->
<g id="edge2" class="edge">
<title>Node1&#45;&gt;Node3</title>
<path fill="none" stroke="midnightblue" d="M244.7,-112.44C216.65,-103.32 172.06,-88.81 140.82,-78.65"/>
<polygon fill="midnightblue" stroke="midnightblue" points="141.77,-75.28 131.18,-75.52 139.61,-81.94 141.77,-75.28"/>
</g>
<!-- Node4 -->
<g id="node4" class="node">
<title>Node4</title>
<g id="a_node4"><a xlink:title=" ">
<polygon fill="white" stroke="#bfbfbf" points="95.5,-0.5 95.5,-19.5 148.5,-19.5 148.5,-0.5 95.5,-0.5"/>
<text text-anchor="middle" x="122" y="-7.5" font-family="Helvetica,sans-Serif" font-size="10.00">stdint.h</text>
</a>
</g>
</g>
<!-- Node1&#45;&gt;Node4 -->
<g id="edge3" class="edge">
<title>Node1&#45;&gt;Node4</title>
<path fill="none" stroke="midnightblue" d="M259.31,-112.37C233.85,-93.57 173.16,-48.77 141.69,-25.53"/>
<polygon fill="midnightblue" stroke="midnightblue" points="143.76,-22.72 133.64,-19.59 139.6,-28.35 143.76,-22.72"/>
</g>
<!-- Node5 -->
<g id="node5" class="node">
<title>Node5</title>
<g id="a_node5"><a xlink:title=" ">
<polygon fill="white" stroke="#bfbfbf" points="354,-56.5 354,-75.5 404,-75.5 404,-56.5 354,-56.5"/>
<text text-anchor="middle" x="379" y="-63.5" font-family="Helvetica,sans-Serif" font-size="10.00">stdio.h</text>
</a>
</g>
</g>
<!-- Node1&#45;&gt;Node5 -->
<g id="edge4" class="edge">
<title>Node1&#45;&gt;Node5</title>
<path fill="none" stroke="midnightblue" d="M288.35,-112.32C305.67,-103.66 332.52,-90.24 352.5,-80.25"/>
<polygon fill="midnightblue" stroke="midnightblue" points="354.31,-83.26 361.69,-75.65 351.18,-77 354.31,-83.26"/>
</g>
<!-- Node6 -->
<g id="node6" class="node">
<title>Node6</title>
<g id="a_node6"><a xlink:title=" ">
<polygon fill="white" stroke="#bfbfbf" points="422.5,-56.5 422.5,-75.5 481.5,-75.5 481.5,-56.5 422.5,-56.5"/>
<text text-anchor="middle" x="452" y="-63.5" font-family="Helvetica,sans-Serif" font-size="10.00">endian.h</text>
</a>
</g>
</g>
<!-- Node1&#45;&gt;Node6 -->
<g id="edge5" class="edge">
<title>Node1&#45;&gt;Node6</title>
<path fill="none" stroke="midnightblue" d="M299.68,-112.44C330.53,-103.24 379.73,-88.56 413.83,-78.39"/>
<polygon fill="midnightblue" stroke="midnightblue" points="414.87,-81.73 423.45,-75.52 412.87,-75.02 414.87,-81.73"/>
</g>
<!-- Node7 -->
<g id="node7" class="node">
<title>Node7</title>
<g id="a_node7"><a xlink:title=" ">
<polygon fill="white" stroke="#bfbfbf" points="499.5,-56.5 499.5,-75.5 562.5,-75.5 562.5,-56.5 499.5,-56.5"/>
<text text-anchor="middle" x="531" y="-63.5" font-family="Helvetica,sans-Serif" font-size="10.00">pthread.h</text>
</a>
</g>
</g>
<!-- Node1&#45;&gt;Node7 -->
<g id="edge6" class="edge">
<title>Node1&#45;&gt;Node7</title>
<path fill="none" stroke="midnightblue" d="M314.05,-112.45C356.36,-104 423.02,-90.52 489.35,-76.33"/>
<polygon fill="midnightblue" stroke="midnightblue" points="490.09,-79.75 499.14,-74.23 488.62,-72.9 490.09,-79.75"/>
</g>
<!-- Node8 -->
<g id="node8" class="node">
<title>Node8</title>
<g id="a_node8"><a xlink:title=" ">
<polygon fill="white" stroke="#bfbfbf" points="167,-0.5 167,-19.5 237,-19.5 237,-0.5 167,-0.5"/>
<text text-anchor="middle" x="202" y="-7.5" font-family="Helvetica,sans-Serif" font-size="10.00">linux/can.h</text>
</a>
</g>
</g>
<!-- Node1&#45;&gt;Node8 -->
<g id="edge7" class="edge">
<title>Node1&#45;&gt;Node8</title>
<path fill="none" stroke="midnightblue" d="M265.59,-112.37C254.25,-94.3 227.83,-52.18 212.86,-28.31"/>
<polygon fill="midnightblue" stroke="midnightblue" points="215.67,-26.2 207.39,-19.59 209.74,-29.92 215.67,-26.2"/>
</g>
<!-- Node9 -->
<g id="node9" class="node">
<title>Node9</title>
<g id="a_node9"><a xlink:title=" ">
<polygon fill="white" stroke="#bfbfbf" points="255,-0.5 255,-19.5 305,-19.5 305,-0.5 255,-0.5"/>
<text text-anchor="middle" x="280" y="-7.5" font-family="Helvetica,sans-Serif" font-size="10.00">net/if.h</text>
</a>
</g>
</g>
<!-- Node1&#45;&gt;Node9 -->
<g id="edge8" class="edge">
<title>Node1&#45;&gt;Node9</title>
<path fill="none" stroke="midnightblue" d="M267.1,-112.13C262.11,-99.58 254.58,-75.94 259,-56 261.12,-46.43 265.51,-36.48 269.72,-28.37"/>
<polygon fill="midnightblue" stroke="midnightblue" points="272.82,-30 274.62,-19.56 266.7,-26.6 272.82,-30"/>
</g>
<!-- Node10 -->
<g id="node10" class="node">
<title>Node10</title>
<g id="a_node10"><a xlink:title=" ">
<polygon fill="white" stroke="#bfbfbf" points="580.5,-56.5 580.5,-75.5 649.5,-75.5 649.5,-56.5 580.5,-56.5"/>
<text text-anchor="middle" x="615" y="-63.5" font-family="Helvetica,sans-Serif" font-size="10.00">sys/epoll.h</text>
</a>
</g>
</g>
<!-- Node1&#45;&gt;Node10 -->
<g id="edge9" class="edge">
<title>Node1&#45;&gt;Node10</title>
<path fill="none" stroke="midnightblue" d="M325.26,-113.85C383.52,-105.96 479.04,-92.4 570.34,-76.22"/>
<polygon fill="midnightblue" stroke="midnightblue" points="571.07,-79.65 580.3,-74.44 569.84,-72.76 571.07,-79.65"/>
</g>
<!-- Node11 -->
<g id="node11" class="node">
<title>Node11</title>
<g id="a_node11"><a xlink:href="CO__error_8h.html" target="_top" xlink:title="CANopenNode Linux socketCAN Error handling.">
<polygon fill="white" stroke="black" points="268,-56.5 268,-75.5 336,-75.5 336,-56.5 268,-56.5"/>
<text text-anchor="middle" x="302" y="-63.5" font-family="Helvetica,sans-Serif" font-size="10.00">CO_error.h</text>
</a>
</g>
</g>
<!-- Node1&#45;&gt;Node11 -->
<g id="edge10" class="edge">
<title>Node1&#45;&gt;Node11</title>
<path fill="none" stroke="midnightblue" d="M276.12,-112.08C280.41,-104.61 286.66,-93.72 291.94,-84.52"/>
<polygon fill="midnightblue" stroke="midnightblue" points="295.03,-86.17 296.98,-75.75 288.96,-82.68 295.03,-86.17"/>
</g>
<!-- Node11&#45;&gt;Node4 -->
<g id="edge11" class="edge">
<title>Node11&#45;&gt;Node4</title>
<path fill="none" stroke="midnightblue" d="M273.48,-56.44C242.39,-47.12 192.57,-32.17 158.62,-21.99"/>
<polygon fill="midnightblue" stroke="midnightblue" points="159.21,-18.51 148.63,-18.99 157.2,-25.21 159.21,-18.51"/>
</g>
<!-- Node11&#45;&gt;Node8 -->
<g id="edge14" class="edge">
<title>Node11&#45;&gt;Node8</title>
<path fill="none" stroke="midnightblue" d="M285.93,-56.32C270.04,-47.74 245.49,-34.49 227.04,-24.52"/>
<polygon fill="midnightblue" stroke="midnightblue" points="228.49,-21.33 218.03,-19.65 225.16,-27.49 228.49,-21.33"/>
</g>
<!-- Node11&#45;&gt;Node9 -->
<g id="edge15" class="edge">
<title>Node11&#45;&gt;Node9</title>
<path fill="none" stroke="midnightblue" d="M298.37,-56.08C295.39,-48.77 291.07,-38.18 287.38,-29.1"/>
<polygon fill="midnightblue" stroke="midnightblue" points="290.58,-27.69 283.57,-19.75 284.1,-30.33 290.58,-27.69"/>
</g>
<!-- Node12 -->
<g id="node12" class="node">
<title>Node12</title>
<g id="a_node12"><a xlink:title=" ">
<polygon fill="white" stroke="#bfbfbf" points="323.5,-0.5 323.5,-19.5 374.5,-19.5 374.5,-0.5 323.5,-0.5"/>
<text text-anchor="middle" x="349" y="-7.5" font-family="Helvetica,sans-Serif" font-size="10.00">errno.h</text>
</a>
</g>
</g>
<!-- Node11&#45;&gt;Node12 -->
<g id="edge12" class="edge">
<title>Node11&#45;&gt;Node12</title>
<path fill="none" stroke="midnightblue" d="M309.76,-56.08C316.54,-48.3 326.54,-36.8 334.76,-27.37"/>
<polygon fill="midnightblue" stroke="midnightblue" points="337.46,-29.59 341.38,-19.75 332.18,-25 337.46,-29.59"/>
</g>
<!-- Node13 -->
<g id="node13" class="node">
<title>Node13</title>
<g id="a_node13"><a xlink:title=" ">
<polygon fill="white" stroke="#bfbfbf" points="392.5,-0.5 392.5,-19.5 445.5,-19.5 445.5,-0.5 392.5,-0.5"/>
<text text-anchor="middle" x="419" y="-7.5" font-family="Helvetica,sans-Serif" font-size="10.00">string.h</text>
</a>
</g>
</g>
<!-- Node11&#45;&gt;Node13 -->
<g id="edge13" class="edge">
<title>Node11&#45;&gt;Node13</title>
<path fill="none" stroke="midnightblue" d="M320.54,-56.44C339.62,-47.64 369.57,-33.81 391.44,-23.72"/>
<polygon fill="midnightblue" stroke="midnightblue" points="392.93,-26.88 400.55,-19.52 390,-20.53 392.93,-26.88"/>
</g>
<!-- Node14 -->
<g id="node14" class="node">
<title>Node14</title>
<g id="a_node14"><a xlink:href="CO__error__msgs_8h_source.html" target="_top" xlink:title=" ">
<polygon fill="white" stroke="black" points="464,-0.5 464,-19.5 564,-19.5 564,-0.5 464,-0.5"/>
<text text-anchor="middle" x="514" y="-7.5" font-family="Helvetica,sans-Serif" font-size="10.00">CO_error_msgs.h</text>
</a>
</g>
</g>
<!-- Node11&#45;&gt;Node14 -->
<g id="edge16" class="edge">
<title>Node11&#45;&gt;Node14</title>
<path fill="none" stroke="midnightblue" d="M335.59,-56.44C372.19,-47.12 430.84,-32.18 470.83,-22"/>
<polygon fill="midnightblue" stroke="midnightblue" points="471.74,-25.38 480.57,-19.52 470.01,-18.59 471.74,-25.38"/>
</g>
</g>
</svg>
