<?xml version="1.0" encoding="UTF-8" standalone="no"?>
<!DOCTYPE svg PUBLIC "-//W3C//DTD SVG 1.1//EN"
 "http://www.w3.org/Graphics/SVG/1.1/DTD/svg11.dtd">
<!-- Generated by graphviz version 2.43.0 (0)
 -->
<!-- Title: socketCAN Pages: 1 -->
<svg width="246pt" height="187pt"
 viewBox="0.00 0.00 246.00 187.00" xmlns="http://www.w3.org/2000/svg" xmlns:xlink="http://www.w3.org/1999/xlink">
<g id="graph0" class="graph" transform="scale(1 1) rotate(0) translate(4 183)">
<title>socketCAN</title>
<polygon fill="white" stroke="transparent" points="-4,4 -4,-183 242,-183 242,4 -4,4"/>
<!-- Node6 -->
<g id="node1" class="node">
<title>Node6</title>
<g id="a_node1"><a xlink:href="group__CO__storageLinux.html" target="_top" xlink:title="Data initialize, store and restore functions with Linux.">
<polygon fill="white" stroke="black" points="238,-179 105,-179 105,-160 238,-160 238,-179"/>
<text text-anchor="middle" x="171.5" y="-167" font-family="Helvetica,sans-Serif" font-size="10.00">Data storage with Linux</text>
</a>
</g>
</g>
<!-- Node3 -->
<g id="node2" class="node">
<title>Node3</title>
<g id="a_node2"><a xlink:href="group__CO__socketCAN__driver__target.html" target="_top" xlink:title="Linux socketCAN specific Driver definitions for CANopenNode.">
<polygon fill="white" stroke="black" points="225.5,-142 117.5,-142 117.5,-123 225.5,-123 225.5,-142"/>
<text text-anchor="middle" x="171.5" y="-130" font-family="Helvetica,sans-Serif" font-size="10.00">CO_driver_target.h</text>
</a>
</g>
</g>
<!-- Node4 -->
<g id="node3" class="node">
<title>Node4</title>
<g id="a_node3"><a xlink:href="group__CO__epoll__interface.html" target="_top" xlink:title="Linux epoll interface to CANopenNode.">
<polygon fill="white" stroke="black" points="215,-105 128,-105 128,-86 215,-86 215,-105"/>
<text text-anchor="middle" x="171.5" y="-93" font-family="Helvetica,sans-Serif" font-size="10.00">Epoll interface</text>
</a>
</g>
</g>
<!-- Node2 -->
<g id="node4" class="node">
<title>Node2</title>
<g id="a_node4"><a xlink:href="group__CO__applicationLinux.html" target="_top" xlink:title="Application interface, similar to Arduino, extended to CANopen and additional, realtime thread.">
<polygon fill="white" stroke="black" points="230.5,-67.5 112.5,-67.5 112.5,-37.5 230.5,-37.5 230.5,-67.5"/>
<text text-anchor="start" x="120.5" y="-55.5" font-family="Helvetica,sans-Serif" font-size="10.00">Application interface</text>
<text text-anchor="middle" x="171.5" y="-44.5" font-family="Helvetica,sans-Serif" font-size="10.00"> to CANopenNode</text>
</a>
</g>
</g>
<!-- Node1 -->
<g id="node5" class="node">
<title>Node1</title>
<g id="a_node5"><a xlink:title="Linux specific interface to CANopenNode.">
<polygon fill="#bfbfbf" stroke="black" points="69,-105 0,-105 0,-86 69,-86 69,-105"/>
<text text-anchor="middle" x="34.5" y="-93" font-family="Helvetica,sans-Serif" font-size="10.00">socketCAN</text>
</a>
</g>
</g>
<!-- Node1&#45;&gt;Node6 -->
<g id="edge5" class="edge">
<title>Node1&#45;&gt;Node6</title>
<path fill="none" stroke="black" d="M52.34,-112.41C65.61,-124.86 85.13,-141.32 105,-151.5 111.51,-154.83 118.71,-157.61 125.88,-159.9"/>
<polygon fill="black" stroke="black" points="54.56,-109.7 44.94,-105.27 49.7,-114.74 54.56,-109.7"/>
</g>
<!-- Node1&#45;&gt;Node3 -->
<g id="edge2" class="edge">
<title>Node1&#45;&gt;Node3</title>
<path fill="none" stroke="black" d="M79.1,-107.45C97.46,-112.48 118.52,-118.25 135.8,-122.99"/>
<polygon fill="black" stroke="black" points="79.79,-104.01 69.22,-104.74 77.94,-110.76 79.79,-104.01"/>
</g>
<!-- Node1&#45;&gt;Node4 -->
<g id="edge3" class="edge">
<title>Node1&#45;&gt;Node4</title>
<path fill="none" stroke="black" d="M79.54,-95.5C94.94,-95.5 112.2,-95.5 127.52,-95.5"/>
<polygon fill="black" stroke="black" points="79.22,-92 69.22,-95.5 79.22,-99 79.22,-92"/>
</g>
<!-- Node1&#45;&gt;Node2 -->
<g id="edge1" class="edge">
<title>Node1&#45;&gt;Node2</title>
<path fill="none" stroke="black" d="M75.04,-82.91C90.18,-78.08 107.61,-72.53 123.39,-67.51"/>
<polygon fill="black" stroke="black" points="73.93,-79.59 65.46,-85.96 76.05,-86.26 73.93,-79.59"/>
</g>
<!-- Node5 -->
<g id="node6" class="node">
<title>Node5</title>
<g id="a_node6"><a xlink:href="group__CO__socketCAN__ERROR.html" target="_top" xlink:title="CANopen Errors and System message log.">
<polygon fill="white" stroke="black" points="221.5,-19 121.5,-19 121.5,0 221.5,0 221.5,-19"/>
<text text-anchor="middle" x="171.5" y="-7" font-family="Helvetica,sans-Serif" font-size="10.00">CAN errors &amp; Log</text>
</a>
</g>
</g>
<!-- Node1&#45;&gt;Node5 -->
<g id="edge4" class="edge">
<title>Node1&#45;&gt;Node5</title>
<path fill="none" stroke="black" d="M49.64,-77.67C62.55,-62.53 82.93,-41.27 105,-28.5 111.66,-24.64 119.16,-21.52 126.65,-19.01"/>
<polygon fill="black" stroke="black" points="46.62,-75.83 42.95,-85.77 52.01,-80.29 46.62,-75.83"/>
</g>
</g>
</svg>
