<?xml version="1.0" encoding="UTF-8" standalone="no"?>
<!DOCTYPE svg PUBLIC "-//W3C//DTD SVG 1.1//EN"
 "http://www.w3.org/Graphics/SVG/1.1/DTD/svg11.dtd">
<!-- Generated by graphviz version 2.43.0 (0)
 -->
<!-- Title: socketCAN Pages: 1 -->
<svg width="274pt" height="197pt"
 viewBox="0.00 0.00 274.00 197.00" xmlns="http://www.w3.org/2000/svg" xmlns:xlink="http://www.w3.org/1999/xlink">

<svg id="main" version="1.1" xmlns="http://www.w3.org/2000/svg" xmlns:xlink="http://www.w3.org/1999/xlink" xml:space="preserve" onload="init(evt)">
<style type="text/css"><![CDATA[
.node, .edge {opacity: 0.7;}
.node.selected, .edge.selected {opacity: 1;}
.edge:hover path { stroke: red; }
.edge:hover polygon { stroke: red; fill: red; }
]]></style>
<script type="application/ecmascript" xlink:href="svg.min.js"/>
<svg id="graph" class="graph">
<g id="graph0" class="graph" transform="scale(1 1) rotate(0) translate(4 193)">
<title>socketCAN</title>
<!-- Node2 -->
<g id="Node000002" class="node">
<title>Node2</title>
<g id="a_Node000002"><a xlink:href="group__CO__applicationLinux.html" target="_top" xlink:title="extended to CANopen and additional, realtime thread.">
<polygon fill="white" stroke="#666666" points="266,-189 105,-189 105,-148 266,-148 266,-189"/>
<text text-anchor="start" x="113" y="-177" font-family="Helvetica,sans-Serif" font-size="10.00">Application interface</text>
<text text-anchor="start" x="113" y="-166" font-family="Helvetica,sans-Serif" font-size="10.00"> to CANopenNode Application</text>
<text text-anchor="middle" x="185.5" y="-155" font-family="Helvetica,sans-Serif" font-size="10.00"> interface, similar to Arduino,</text>
</a>
</g>
</g>
<!-- Node4 -->
<g id="Node000004" class="node">
<title>Node4</title>
<g id="a_Node000004"><a xlink:href="group__CO__epoll__interface.html" target="_top" xlink:title="Linux epoll interface to CANopenNode.">
<polygon fill="white" stroke="#666666" points="229,-130 142,-130 142,-111 229,-111 229,-130"/>
<text text-anchor="middle" x="185.5" y="-118" font-family="Helvetica,sans-Serif" font-size="10.00">Epoll interface</text>
</a>
</g>
</g>
<!-- Node1 -->
<g id="Node000001" class="node">
<title>Node1</title>
<g id="a_Node000001"><a xlink:title="Linux specific interface to CANopenNode.">
<polygon fill="#999999" stroke="#666666" points="69,-93 0,-93 0,-74 69,-74 69,-93"/>
<text text-anchor="middle" x="34.5" y="-81" font-family="Helvetica,sans-Serif" font-size="10.00">socketCAN</text>
</a>
</g>
</g>
<!-- Node1&#45;&gt;Node2 -->
<g id="edge1" class="edge">
<title>Node1&#45;&gt;Node2</title>
<path fill="none" stroke="black" d="M53.05,-100.38C66.43,-112.54 85.78,-128.65 105,-139.5 110.37,-142.53 116.12,-145.35 121.98,-147.95"/>
<polygon fill="black" stroke="black" points="55.25,-97.64 45.54,-93.4 50.48,-102.77 55.25,-97.64"/>
</g>
<!-- Node1&#45;&gt;Node4 -->
<g id="edge3" class="edge">
<title>Node1&#45;&gt;Node4</title>
<path fill="none" stroke="black" d="M78.9,-95.68C87.53,-98.02 96.54,-100.39 105,-102.5 116.94,-105.48 129.95,-108.52 141.92,-111.22"/>
<polygon fill="black" stroke="black" points="79.57,-92.24 69,-92.98 77.73,-98.99 79.57,-92.24"/>
</g>
<!-- Node5 -->
<g id="Node000005" class="node">
<title>Node5</title>
<g id="a_Node000005"><a xlink:href="group__CO__socketCAN__ERROR.html" target="_top" xlink:title="CANopen Errors and System message log">
<polygon fill="white" stroke="#666666" points="235.5,-93 135.5,-93 135.5,-74 235.5,-74 235.5,-93"/>
<text text-anchor="middle" x="185.5" y="-81" font-family="Helvetica,sans-Serif" font-size="10.00">CAN errors &amp; Log</text>
</a>
</g>
</g>
<!-- Node1&#45;&gt;Node5 -->
<g id="edge4" class="edge">
<title>Node1&#45;&gt;Node5</title>
<path fill="none" stroke="black" d="M79.79,-83.5C97.25,-83.5 117.37,-83.5 135.28,-83.5"/>
<polygon fill="black" stroke="black" points="79.31,-80 69.31,-83.5 79.31,-87 79.31,-80"/>
</g>
<!-- Node3 -->
<g id="Node000003" class="node">
<title>Node3</title>
<g id="a_Node000003"><a xlink:href="group__CO__socketCAN__driver__target.html" target="_top" xlink:title="Linux socketCAN specific Driver definitions for CANopenNode.">
<polygon fill="white" stroke="#666666" points="239.5,-56 131.5,-56 131.5,-37 239.5,-37 239.5,-56"/>
<text text-anchor="middle" x="185.5" y="-44" font-family="Helvetica,sans-Serif" font-size="10.00">CO_driver_target.h</text>
</a>
</g>
</g>
<!-- Node1&#45;&gt;Node3 -->
<g id="edge2" class="edge">
<title>Node1&#45;&gt;Node3</title>
<path fill="none" stroke="black" d="M78.95,-72.11C87.57,-69.89 96.57,-67.6 105,-65.5 117.67,-62.35 131.5,-59 144.02,-56.02"/>
<polygon fill="black" stroke="black" points="77.85,-68.78 69.05,-74.67 79.61,-75.56 77.85,-68.78"/>
</g>
<!-- Node6 -->
<g id="Node000006" class="node">
<title>Node6</title>
<g id="a_Node000006"><a xlink:href="group__CO__storageLinux.html" target="_top" xlink:title="Data initialize, store and restore functions with Linux.">
<polygon fill="white" stroke="#666666" points="252,-19 119,-19 119,0 252,0 252,-19"/>
<text text-anchor="middle" x="185.5" y="-7" font-family="Helvetica,sans-Serif" font-size="10.00">Data storage with Linux</text>
</a>
</g>
</g>
<!-- Node1&#45;&gt;Node6 -->
<g id="edge5" class="edge">
<title>Node1&#45;&gt;Node6</title>
<path fill="none" stroke="black" d="M52.3,-66.71C65.54,-54.39 85.05,-38.18 105,-28.5 112.91,-24.66 121.66,-21.56 130.37,-19.08"/>
<polygon fill="black" stroke="black" points="49.71,-64.34 44.91,-73.79 54.55,-69.4 49.71,-64.34"/>
</g>
</g>
</svg>
</svg>

<style type='text/css'>
<![CDATA[
[data-mouse-over-selected='false'] { opacity: 0.7; }
[data-mouse-over-selected='true']  { opacity: 1.0; }
]]>
</style>
<script type="application/ecmascript"><![CDATA[
document.addEventListener('DOMContentLoaded', (event) => {
  highlightEdges();
  highlightAdjacentNodes();
});
]]></script>
</svg>
