<?xml version="1.0" encoding="UTF-8" standalone="no"?>
<!DOCTYPE svg PUBLIC "-//W3C//DTD SVG 1.1//EN"
 "http://www.w3.org/Graphics/SVG/1.1/DTD/svg11.dtd">
<!-- Generated by graphviz version 2.43.0 (0)
 -->
<!-- Title: CANopen.h Pages: 1 -->
<svg width="1399pt" height="420pt"
 viewBox="0.00 0.00 1399.00 420.00" xmlns="http://www.w3.org/2000/svg" xmlns:xlink="http://www.w3.org/1999/xlink">
<g id="graph0" class="graph" transform="scale(1 1) rotate(0) translate(4 416)">
<title>CANopen.h</title>
<polygon fill="white" stroke="transparent" points="-4,4 -4,-416 1395,-416 1395,4 -4,4"/>
<!-- Node1 -->
<g id="node1" class="node">
<title>Node1</title>
<g id="a_node1"><a xlink:title="Main CANopenNode file.">
<polygon fill="#bfbfbf" stroke="black" points="621.5,-392.5 621.5,-411.5 692.5,-411.5 692.5,-392.5 621.5,-392.5"/>
<text text-anchor="middle" x="657" y="-399.5" font-family="Helvetica,sans-Serif" font-size="10.00">CANopen.h</text>
</a>
</g>
</g>
<!-- Node2 -->
<g id="node2" class="node">
<title>Node2</title>
<g id="a_node2"><a xlink:href="CO__driver_8h.html" target="_top" xlink:title="Interface between CAN hardware and CANopenNode.">
<polygon fill="white" stroke="black" points="695.5,-56.5 695.5,-75.5 790.5,-75.5 790.5,-56.5 695.5,-56.5"/>
<text text-anchor="middle" x="743" y="-63.5" font-family="Helvetica,sans-Serif" font-size="10.00">301/CO_driver.h</text>
</a>
</g>
</g>
<!-- Node1&#45;&gt;Node2 -->
<g id="edge1" class="edge">
<title>Node1&#45;&gt;Node2</title>
<path fill="none" stroke="midnightblue" d="M621.21,-399.76C517.85,-395.9 220.33,-382.72 127,-356 66.04,-338.55 0,-354.41 0,-291 0,-291 0,-291 0,-177 0,-106.38 76.54,-129.35 145,-112 246.21,-86.34 555.9,-73.27 685.27,-68.81"/>
<polygon fill="midnightblue" stroke="midnightblue" points="685.5,-72.3 695.37,-68.46 685.26,-65.31 685.5,-72.3"/>
</g>
<!-- Node6 -->
<g id="node6" class="node">
<title>Node6</title>
<g id="a_node6"><a xlink:href="CO__ODinterface_8h.html" target="_top" xlink:title="CANopen Object Dictionary interface.">
<polygon fill="white" stroke="black" points="346.5,-112.5 346.5,-131.5 471.5,-131.5 471.5,-112.5 346.5,-112.5"/>
<text text-anchor="middle" x="409" y="-119.5" font-family="Helvetica,sans-Serif" font-size="10.00">301/CO_ODinterface.h</text>
</a>
</g>
</g>
<!-- Node1&#45;&gt;Node6 -->
<g id="edge5" class="edge">
<title>Node1&#45;&gt;Node6</title>
<path fill="none" stroke="midnightblue" d="M621.26,-401.49C550.21,-400.4 398,-386.87 398,-291 398,-291 398,-291 398,-233 398,-200.79 402.73,-163.53 405.98,-141.69"/>
<polygon fill="midnightblue" stroke="midnightblue" points="409.49,-141.95 407.56,-131.53 402.57,-140.87 409.49,-141.95"/>
</g>
<!-- Node7 -->
<g id="node7" class="node">
<title>Node7</title>
<g id="a_node7"><a xlink:href="CO__NMT__Heartbeat_8h.html" target="_top" xlink:title="CANopen Network management and Heartbeat producer protocol.">
<polygon fill="white" stroke="black" points="502.5,-224.5 502.5,-243.5 645.5,-243.5 645.5,-224.5 502.5,-224.5"/>
<text text-anchor="middle" x="574" y="-231.5" font-family="Helvetica,sans-Serif" font-size="10.00">301/CO_NMT_Heartbeat.h</text>
</a>
</g>
</g>
<!-- Node1&#45;&gt;Node7 -->
<g id="edge7" class="edge">
<title>Node1&#45;&gt;Node7</title>
<path fill="none" stroke="midnightblue" d="M647.95,-392.26C631.62,-375.89 597.5,-338.73 582,-300 576.12,-285.3 574.27,-267.37 573.8,-254.06"/>
<polygon fill="midnightblue" stroke="midnightblue" points="577.3,-253.72 573.69,-243.76 570.3,-253.8 577.3,-253.72"/>
</g>
<!-- Node8 -->
<g id="node8" class="node">
<title>Node8</title>
<g id="a_node8"><a xlink:href="CO__Emergency_8h.html" target="_top" xlink:title="CANopen Emergency protocol.">
<polygon fill="white" stroke="black" points="212.5,-168.5 212.5,-187.5 331.5,-187.5 331.5,-168.5 212.5,-168.5"/>
<text text-anchor="middle" x="272" y="-175.5" font-family="Helvetica,sans-Serif" font-size="10.00">301/CO_Emergency.h</text>
</a>
</g>
</g>
<!-- Node1&#45;&gt;Node8 -->
<g id="edge18" class="edge">
<title>Node1&#45;&gt;Node8</title>
<path fill="none" stroke="midnightblue" d="M621.43,-398.92C556.47,-394.51 421.81,-382.4 384,-356 352.18,-333.78 361.52,-312.94 341,-280 322.2,-249.81 298.46,-215.9 284.3,-196.05"/>
<polygon fill="midnightblue" stroke="midnightblue" points="287.02,-193.84 278.35,-187.75 281.33,-197.92 287.02,-193.84"/>
</g>
<!-- Node9 -->
<g id="node9" class="node">
<title>Node9</title>
<g id="a_node9"><a xlink:href="CO__HBconsumer_8h.html" target="_top" xlink:title="CANopen Heartbeat consumer protocol.">
<polygon fill="white" stroke="black" points="204,-280.5 204,-299.5 332,-299.5 332,-280.5 204,-280.5"/>
<text text-anchor="middle" x="268" y="-287.5" font-family="Helvetica,sans-Serif" font-size="10.00">301/CO_HBconsumer.h</text>
</a>
</g>
</g>
<!-- Node1&#45;&gt;Node9 -->
<g id="edge13" class="edge">
<title>Node1&#45;&gt;Node9</title>
<path fill="none" stroke="midnightblue" d="M621.26,-398.29C550.4,-392.5 394.71,-377.71 346,-356 320.73,-344.74 297.13,-322.86 282.65,-307.61"/>
<polygon fill="midnightblue" stroke="midnightblue" points="284.93,-304.92 275.59,-299.93 279.78,-309.66 284.93,-304.92"/>
</g>
<!-- Node10 -->
<g id="node10" class="node">
<title>Node10</title>
<g id="a_node10"><a xlink:href="CO__SDOserver_8h.html" target="_top" xlink:title="CANopen Service Data Object &#45; server protocol.">
<polygon fill="white" stroke="black" points="740,-224.5 740,-243.5 858,-243.5 858,-224.5 740,-224.5"/>
<text text-anchor="middle" x="799" y="-231.5" font-family="Helvetica,sans-Serif" font-size="10.00">301/CO_SDOserver.h</text>
</a>
</g>
</g>
<!-- Node1&#45;&gt;Node10 -->
<g id="edge19" class="edge">
<title>Node1&#45;&gt;Node10</title>
<path fill="none" stroke="midnightblue" d="M662.95,-392.42C677.2,-372.09 714.81,-319.72 751,-280 760.52,-269.55 772.05,-258.69 781.43,-250.26"/>
<polygon fill="midnightblue" stroke="midnightblue" points="783.84,-252.79 789.01,-243.54 779.2,-247.55 783.84,-252.79"/>
</g>
<!-- Node11 -->
<g id="node11" class="node">
<title>Node11</title>
<g id="a_node11"><a xlink:href="CO__SDOclient_8h.html" target="_top" xlink:title="CANopen Service Data Object &#45; client protocol.">
<polygon fill="white" stroke="black" points="984,-280.5 984,-299.5 1098,-299.5 1098,-280.5 984,-280.5"/>
<text text-anchor="middle" x="1041" y="-287.5" font-family="Helvetica,sans-Serif" font-size="10.00">301/CO_SDOclient.h</text>
</a>
</g>
</g>
<!-- Node1&#45;&gt;Node11 -->
<g id="edge22" class="edge">
<title>Node1&#45;&gt;Node11</title>
<path fill="none" stroke="midnightblue" d="M686.81,-392.46C755.37,-372.82 924.23,-324.45 1001.39,-302.35"/>
<polygon fill="midnightblue" stroke="midnightblue" points="1002.56,-305.65 1011.21,-299.53 1000.63,-298.92 1002.56,-305.65"/>
</g>
<!-- Node13 -->
<g id="node13" class="node">
<title>Node13</title>
<g id="a_node13"><a xlink:href="CO__SYNC_8h.html" target="_top" xlink:title="CANopen Synchronisation protocol.">
<polygon fill="white" stroke="black" points="66,-224.5 66,-243.5 158,-243.5 158,-224.5 66,-224.5"/>
<text text-anchor="middle" x="112" y="-231.5" font-family="Helvetica,sans-Serif" font-size="10.00">301/CO_SYNC.h</text>
</a>
</g>
</g>
<!-- Node1&#45;&gt;Node13 -->
<g id="edge28" class="edge">
<title>Node1&#45;&gt;Node13</title>
<path fill="none" stroke="midnightblue" d="M621.44,-399.86C549.76,-396.95 383.12,-387.15 247,-356 174.37,-339.38 131.99,-360.85 89,-300 78.69,-285.4 88.23,-265.73 97.97,-251.86"/>
<polygon fill="midnightblue" stroke="midnightblue" points="100.91,-253.77 104.19,-243.69 95.35,-249.52 100.91,-253.77"/>
</g>
<!-- Node14 -->
<g id="node14" class="node">
<title>Node14</title>
<g id="a_node14"><a xlink:href="CO__PDO_8h.html" target="_top" xlink:title="CANopen Process Data Object protocol.">
<polygon fill="white" stroke="black" points="98.5,-280.5 98.5,-299.5 185.5,-299.5 185.5,-280.5 98.5,-280.5"/>
<text text-anchor="middle" x="142" y="-287.5" font-family="Helvetica,sans-Serif" font-size="10.00">301/CO_PDO.h</text>
</a>
</g>
</g>
<!-- Node1&#45;&gt;Node14 -->
<g id="edge32" class="edge">
<title>Node1&#45;&gt;Node14</title>
<path fill="none" stroke="midnightblue" d="M621.47,-399.13C558.34,-395.19 422.83,-384 312,-356 260.36,-342.95 203.02,-318.91 169.88,-304"/>
<polygon fill="midnightblue" stroke="midnightblue" points="170.95,-300.65 160.4,-299.69 168.05,-307.02 170.95,-300.65"/>
</g>
<!-- Node15 -->
<g id="node15" class="node">
<title>Node15</title>
<g id="a_node15"><a xlink:href="CO__TIME_8h.html" target="_top" xlink:title="CANopen Time&#45;stamp protocol.">
<polygon fill="white" stroke="black" points="426,-280.5 426,-299.5 516,-299.5 516,-280.5 426,-280.5"/>
<text text-anchor="middle" x="471" y="-287.5" font-family="Helvetica,sans-Serif" font-size="10.00">301/CO_TIME.h</text>
</a>
</g>
</g>
<!-- Node1&#45;&gt;Node15 -->
<g id="edge36" class="edge">
<title>Node1&#45;&gt;Node15</title>
<path fill="none" stroke="midnightblue" d="M621.45,-393.41C594.72,-386.57 558.04,-374.66 530,-356 510.67,-343.14 493.45,-322.56 482.67,-308.01"/>
<polygon fill="midnightblue" stroke="midnightblue" points="485.5,-305.94 476.84,-299.85 479.81,-310.02 485.5,-305.94"/>
</g>
<!-- Node16 -->
<g id="node16" class="node">
<title>Node16</title>
<g id="a_node16"><a xlink:href="CO__LEDs_8h.html" target="_top" xlink:title="CANopen Indicator specification (CiA 303&#45;3 v1.4.0)">
<polygon fill="white" stroke="black" points="876,-280.5 876,-299.5 966,-299.5 966,-280.5 876,-280.5"/>
<text text-anchor="middle" x="921" y="-287.5" font-family="Helvetica,sans-Serif" font-size="10.00">303/CO_LEDs.h</text>
</a>
</g>
</g>
<!-- Node1&#45;&gt;Node16 -->
<g id="edge40" class="edge">
<title>Node1&#45;&gt;Node16</title>
<path fill="none" stroke="midnightblue" d="M679.58,-392.46C702.84,-383.59 740.1,-369.19 772,-356 814.18,-338.56 862.53,-317.21 892.42,-303.86"/>
<polygon fill="midnightblue" stroke="midnightblue" points="894.12,-306.93 901.81,-299.65 891.26,-300.54 894.12,-306.93"/>
</g>
<!-- Node17 -->
<g id="node17" class="node">
<title>Node17</title>
<g id="a_node17"><a xlink:href="CO__GFC_8h.html" target="_top" xlink:title="CANopen Global fail&#45;safe command protocol.">
<polygon fill="white" stroke="black" points="1305,-168.5 1305,-187.5 1391,-187.5 1391,-168.5 1305,-168.5"/>
<text text-anchor="middle" x="1348" y="-175.5" font-family="Helvetica,sans-Serif" font-size="10.00">304/CO_GFC.h</text>
</a>
</g>
</g>
<!-- Node1&#45;&gt;Node17 -->
<g id="edge43" class="edge">
<title>Node1&#45;&gt;Node17</title>
<path fill="none" stroke="midnightblue" d="M692.76,-401.35C826.72,-402.31 1293.41,-402.28 1339,-356 1381.07,-313.29 1364.31,-233.06 1353.91,-197.17"/>
<polygon fill="midnightblue" stroke="midnightblue" points="1357.23,-196.07 1350.95,-187.54 1350.54,-198.13 1357.23,-196.07"/>
</g>
<!-- Node18 -->
<g id="node18" class="node">
<title>Node18</title>
<g id="a_node18"><a xlink:href="CO__SRDO_8h.html" target="_top" xlink:title="CANopen Safety Related Data Object protocol.">
<polygon fill="white" stroke="black" points="610,-280.5 610,-299.5 704,-299.5 704,-280.5 610,-280.5"/>
<text text-anchor="middle" x="657" y="-287.5" font-family="Helvetica,sans-Serif" font-size="10.00">304/CO_SRDO.h</text>
</a>
</g>
</g>
<!-- Node1&#45;&gt;Node18 -->
<g id="edge45" class="edge">
<title>Node1&#45;&gt;Node18</title>
<path fill="none" stroke="midnightblue" d="M657,-392.37C657,-374.62 657,-333.67 657,-309.6"/>
<polygon fill="midnightblue" stroke="midnightblue" points="660.5,-309.59 657,-299.59 653.5,-309.59 660.5,-309.59"/>
</g>
<!-- Node19 -->
<g id="node19" class="node">
<title>Node19</title>
<g id="a_node19"><a xlink:href="CO__LSSslave_8h.html" target="_top" xlink:title="CANopen Layer Setting Service &#45; slave protocol.">
<polygon fill="white" stroke="black" points="1220,-336.5 1220,-355.5 1330,-355.5 1330,-336.5 1220,-336.5"/>
<text text-anchor="middle" x="1275" y="-343.5" font-family="Helvetica,sans-Serif" font-size="10.00">305/CO_LSSslave.h</text>
</a>
</g>
</g>
<!-- Node1&#45;&gt;Node19 -->
<g id="edge50" class="edge">
<title>Node1&#45;&gt;Node19</title>
<path fill="none" stroke="midnightblue" d="M692.9,-397.86C793.6,-389.06 1079.86,-364.05 1209.62,-352.71"/>
<polygon fill="midnightblue" stroke="midnightblue" points="1210.16,-356.18 1219.82,-351.82 1209.55,-349.21 1210.16,-356.18"/>
</g>
<!-- Node21 -->
<g id="node21" class="node">
<title>Node21</title>
<g id="a_node21"><a xlink:href="CO__LSSmaster_8h.html" target="_top" xlink:title="CANopen Layer Setting Service &#45; master protocol.">
<polygon fill="white" stroke="black" points="1192,-280.5 1192,-299.5 1310,-299.5 1310,-280.5 1192,-280.5"/>
<text text-anchor="middle" x="1251" y="-287.5" font-family="Helvetica,sans-Serif" font-size="10.00">305/CO_LSSmaster.h</text>
</a>
</g>
</g>
<!-- Node1&#45;&gt;Node21 -->
<g id="edge53" class="edge">
<title>Node1&#45;&gt;Node21</title>
<path fill="none" stroke="midnightblue" d="M692.78,-401.79C771.35,-402.6 964.22,-399.55 1118,-356 1159.4,-344.28 1203.54,-320.08 1229.13,-304.75"/>
<polygon fill="midnightblue" stroke="midnightblue" points="1230.96,-307.73 1237.67,-299.54 1227.31,-301.75 1230.96,-307.73"/>
</g>
<!-- Node22 -->
<g id="node22" class="node">
<title>Node22</title>
<g id="a_node22"><a xlink:href="CO__gateway__ascii_8h.html" target="_top" xlink:title="CANopen access from other networks &#45; ASCII mapping (CiA 309&#45;3 DS v3.0.0)">
<polygon fill="white" stroke="black" points="973,-336.5 973,-355.5 1109,-355.5 1109,-336.5 973,-336.5"/>
<text text-anchor="middle" x="1041" y="-343.5" font-family="Helvetica,sans-Serif" font-size="10.00">309/CO_gateway_ascii.h</text>
</a>
</g>
</g>
<!-- Node1&#45;&gt;Node22 -->
<g id="edge55" class="edge">
<title>Node1&#45;&gt;Node22</title>
<path fill="none" stroke="midnightblue" d="M692.78,-395.97C755.96,-387.08 888.36,-368.46 970.47,-356.92"/>
<polygon fill="midnightblue" stroke="midnightblue" points="971.06,-360.37 980.47,-355.51 970.08,-353.44 971.06,-360.37"/>
</g>
<!-- Node23 -->
<g id="node23" class="node">
<title>Node23</title>
<g id="a_node23"><a xlink:href="CO__trace_8h.html" target="_top" xlink:title="CANopen trace object for recording variables over time.">
<polygon fill="white" stroke="black" points="760,-280.5 760,-299.5 858,-299.5 858,-280.5 760,-280.5"/>
<text text-anchor="middle" x="809" y="-287.5" font-family="Helvetica,sans-Serif" font-size="10.00">extra/CO_trace.h</text>
</a>
</g>
</g>
<!-- Node1&#45;&gt;Node23 -->
<g id="edge62" class="edge">
<title>Node1&#45;&gt;Node23</title>
<path fill="none" stroke="midnightblue" d="M678.64,-392.48C697.4,-384.54 724.81,-371.6 746,-356 765.07,-341.96 783.53,-321.92 795.48,-307.81"/>
<polygon fill="midnightblue" stroke="midnightblue" points="798.34,-309.84 802.02,-299.9 792.95,-305.37 798.34,-309.84"/>
</g>
<!-- Node3 -->
<g id="node3" class="node">
<title>Node3</title>
<g id="a_node3"><a xlink:title=" ">
<polygon fill="white" stroke="#bfbfbf" points="634.5,-0.5 634.5,-19.5 687.5,-19.5 687.5,-0.5 634.5,-0.5"/>
<text text-anchor="middle" x="661" y="-7.5" font-family="Helvetica,sans-Serif" font-size="10.00">string.h</text>
</a>
</g>
</g>
<!-- Node2&#45;&gt;Node3 -->
<g id="edge2" class="edge">
<title>Node2&#45;&gt;Node3</title>
<path fill="none" stroke="midnightblue" d="M729.83,-56.32C717.15,-47.98 697.77,-35.21 682.79,-25.35"/>
<polygon fill="midnightblue" stroke="midnightblue" points="684.42,-22.23 674.14,-19.65 680.57,-28.08 684.42,-22.23"/>
</g>
<!-- Node4 -->
<g id="node4" class="node">
<title>Node4</title>
<g id="a_node4"><a xlink:href="CO__config_8h.html" target="_top" xlink:title="Configuration macros for CANopenNode.">
<polygon fill="white" stroke="black" points="705.5,-0.5 705.5,-19.5 780.5,-19.5 780.5,-0.5 705.5,-0.5"/>
<text text-anchor="middle" x="743" y="-7.5" font-family="Helvetica,sans-Serif" font-size="10.00">CO_config.h</text>
</a>
</g>
</g>
<!-- Node2&#45;&gt;Node4 -->
<g id="edge3" class="edge">
<title>Node2&#45;&gt;Node4</title>
<path fill="none" stroke="midnightblue" d="M743,-56.08C743,-49.01 743,-38.86 743,-29.99"/>
<polygon fill="midnightblue" stroke="midnightblue" points="746.5,-29.75 743,-19.75 739.5,-29.75 746.5,-29.75"/>
</g>
<!-- Node5 -->
<g id="node5" class="node">
<title>Node5</title>
<g id="a_node5"><a xlink:title=" ">
<polygon fill="white" stroke="#bfbfbf" points="799,-0.5 799,-19.5 907,-19.5 907,-0.5 799,-0.5"/>
<text text-anchor="middle" x="853" y="-7.5" font-family="Helvetica,sans-Serif" font-size="10.00">CO_driver_target.h</text>
</a>
</g>
</g>
<!-- Node2&#45;&gt;Node5 -->
<g id="edge4" class="edge">
<title>Node2&#45;&gt;Node5</title>
<path fill="none" stroke="midnightblue" d="M760.67,-56.32C778.39,-47.62 805.9,-34.12 826.29,-24.11"/>
<polygon fill="midnightblue" stroke="midnightblue" points="827.94,-27.2 835.37,-19.65 824.85,-20.92 827.94,-27.2"/>
</g>
<!-- Node6&#45;&gt;Node2 -->
<g id="edge6" class="edge">
<title>Node6&#45;&gt;Node2</title>
<path fill="none" stroke="midnightblue" d="M461.92,-112.44C522.82,-102.6 622.49,-86.48 685.32,-76.33"/>
<polygon fill="midnightblue" stroke="midnightblue" points="686.15,-79.74 695.46,-74.69 685.03,-72.83 686.15,-79.74"/>
</g>
<!-- Node7&#45;&gt;Node2 -->
<g id="edge8" class="edge">
<title>Node7&#45;&gt;Node2</title>
<path fill="none" stroke="midnightblue" d="M583.09,-224.08C610.38,-197.27 691.9,-117.19 726.83,-82.89"/>
<polygon fill="midnightblue" stroke="midnightblue" points="729.6,-85.07 734.28,-75.57 724.69,-80.08 729.6,-85.07"/>
</g>
<!-- Node7&#45;&gt;Node6 -->
<g id="edge9" class="edge">
<title>Node7&#45;&gt;Node6</title>
<path fill="none" stroke="midnightblue" d="M561.05,-224.37C532.74,-205.49 465.08,-160.38 430.36,-137.24"/>
<polygon fill="midnightblue" stroke="midnightblue" points="432.15,-134.23 421.89,-131.59 428.27,-140.05 432.15,-134.23"/>
</g>
<!-- Node7&#45;&gt;Node8 -->
<g id="edge10" class="edge">
<title>Node7&#45;&gt;Node8</title>
<path fill="none" stroke="midnightblue" d="M526.15,-224.44C472.8,-214.9 386.56,-199.48 329.56,-189.29"/>
<polygon fill="midnightblue" stroke="midnightblue" points="330.09,-185.83 319.63,-187.52 328.86,-192.72 330.09,-185.83"/>
</g>
<!-- Node8&#45;&gt;Node2 -->
<g id="edge11" class="edge">
<title>Node8&#45;&gt;Node2</title>
<path fill="none" stroke="midnightblue" d="M277.6,-168.43C287.58,-153.96 309.96,-124.99 337,-112 397.13,-83.11 588.17,-72.38 685.22,-68.72"/>
<polygon fill="midnightblue" stroke="midnightblue" points="685.58,-72.21 695.45,-68.35 685.33,-65.21 685.58,-72.21"/>
</g>
<!-- Node8&#45;&gt;Node6 -->
<g id="edge12" class="edge">
<title>Node8&#45;&gt;Node6</title>
<path fill="none" stroke="midnightblue" d="M293.71,-168.44C316.35,-159.52 352.07,-145.44 377.75,-135.32"/>
<polygon fill="midnightblue" stroke="midnightblue" points="379.37,-138.44 387.39,-131.52 376.81,-131.93 379.37,-138.44"/>
</g>
<!-- Node9&#45;&gt;Node2 -->
<g id="edge14" class="edge">
<title>Node9&#45;&gt;Node2</title>
<path fill="none" stroke="midnightblue" d="M210.39,-280.49C151.31,-271.19 66.7,-255.99 57,-244 51.41,-237.09 53.24,-232.05 57,-224 90.89,-151.5 123.24,-140.57 198,-112 285.79,-78.45 563.75,-69.88 685.23,-67.72"/>
<polygon fill="midnightblue" stroke="midnightblue" points="685.51,-71.21 695.45,-67.54 685.39,-64.21 685.51,-71.21"/>
</g>
<!-- Node9&#45;&gt;Node6 -->
<g id="edge15" class="edge">
<title>Node9&#45;&gt;Node6</title>
<path fill="none" stroke="midnightblue" d="M275.58,-280.08C298.26,-253.38 365.8,-173.87 395.14,-139.32"/>
<polygon fill="midnightblue" stroke="midnightblue" points="397.92,-141.46 401.72,-131.57 392.58,-136.92 397.92,-141.46"/>
</g>
<!-- Node9&#45;&gt;Node7 -->
<g id="edge16" class="edge">
<title>Node9&#45;&gt;Node7</title>
<path fill="none" stroke="midnightblue" d="M316.49,-280.44C370.54,-270.9 457.93,-255.48 515.67,-245.29"/>
<polygon fill="midnightblue" stroke="midnightblue" points="516.5,-248.7 525.74,-243.52 515.28,-241.81 516.5,-248.7"/>
</g>
<!-- Node9&#45;&gt;Node8 -->
<g id="edge17" class="edge">
<title>Node9&#45;&gt;Node8</title>
<path fill="none" stroke="midnightblue" d="M268.31,-280.37C268.96,-262.62 270.45,-221.67 271.32,-197.6"/>
<polygon fill="midnightblue" stroke="midnightblue" points="274.82,-197.71 271.69,-187.59 267.83,-197.46 274.82,-197.71"/>
</g>
<!-- Node10&#45;&gt;Node2 -->
<g id="edge20" class="edge">
<title>Node10&#45;&gt;Node2</title>
<path fill="none" stroke="midnightblue" d="M795.99,-224.08C787.14,-197.83 761.06,-120.55 749.11,-85.12"/>
<polygon fill="midnightblue" stroke="midnightblue" points="752.4,-83.92 745.89,-75.57 745.77,-86.16 752.4,-83.92"/>
</g>
<!-- Node10&#45;&gt;Node6 -->
<g id="edge21" class="edge">
<title>Node10&#45;&gt;Node6</title>
<path fill="none" stroke="midnightblue" d="M768.72,-224.46C699.1,-204.82 527.6,-156.45 449.23,-134.35"/>
<polygon fill="midnightblue" stroke="midnightblue" points="449.83,-130.88 439.26,-131.53 447.93,-137.62 449.83,-130.88"/>
</g>
<!-- Node11&#45;&gt;Node2 -->
<g id="edge23" class="edge">
<title>Node11&#45;&gt;Node2</title>
<path fill="none" stroke="midnightblue" d="M1032.85,-280.3C1006.77,-252.79 922.13,-166.34 839,-112 818.83,-98.82 794.19,-87.35 774.93,-79.29"/>
<polygon fill="midnightblue" stroke="midnightblue" points="776.25,-76.05 765.67,-75.51 773.6,-82.53 776.25,-76.05"/>
</g>
<!-- Node11&#45;&gt;Node6 -->
<g id="edge24" class="edge">
<title>Node11&#45;&gt;Node6</title>
<path fill="none" stroke="midnightblue" d="M1020.95,-280.49C988.88,-267.1 923.87,-240.93 867,-224 726.44,-182.15 556.94,-149.19 468.82,-133.33"/>
<polygon fill="midnightblue" stroke="midnightblue" points="469.2,-129.84 458.74,-131.53 467.96,-136.73 469.2,-129.84"/>
</g>
<!-- Node11&#45;&gt;Node10 -->
<g id="edge25" class="edge">
<title>Node11&#45;&gt;Node10</title>
<path fill="none" stroke="midnightblue" d="M1002.65,-280.44C960.53,-271.04 892.79,-255.93 847.13,-245.74"/>
<polygon fill="midnightblue" stroke="midnightblue" points="847.69,-242.28 837.17,-243.52 846.16,-249.11 847.69,-242.28"/>
</g>
<!-- Node12 -->
<g id="node12" class="node">
<title>Node12</title>
<g id="a_node12"><a xlink:href="CO__fifo_8h.html" target="_top" xlink:title="FIFO circular buffer.">
<polygon fill="white" stroke="black" points="1028.5,-224.5 1028.5,-243.5 1111.5,-243.5 1111.5,-224.5 1028.5,-224.5"/>
<text text-anchor="middle" x="1070" y="-231.5" font-family="Helvetica,sans-Serif" font-size="10.00">301/CO_fifo.h</text>
</a>
</g>
</g>
<!-- Node11&#45;&gt;Node12 -->
<g id="edge26" class="edge">
<title>Node11&#45;&gt;Node12</title>
<path fill="none" stroke="midnightblue" d="M1045.79,-280.08C1049.76,-272.69 1055.53,-261.95 1060.43,-252.81"/>
<polygon fill="midnightblue" stroke="midnightblue" points="1063.65,-254.22 1065.3,-243.75 1057.49,-250.91 1063.65,-254.22"/>
</g>
<!-- Node12&#45;&gt;Node2 -->
<g id="edge27" class="edge">
<title>Node12&#45;&gt;Node2</title>
<path fill="none" stroke="midnightblue" d="M1068.77,-224.26C1065.08,-201.64 1051.93,-140.89 1014,-112 981.39,-87.16 870.35,-75.39 800.94,-70.33"/>
<polygon fill="midnightblue" stroke="midnightblue" points="800.81,-66.82 790.59,-69.61 800.32,-73.8 800.81,-66.82"/>
</g>
<!-- Node13&#45;&gt;Node2 -->
<g id="edge29" class="edge">
<title>Node13&#45;&gt;Node2</title>
<path fill="none" stroke="midnightblue" d="M113.75,-224.1C116.94,-210.18 125,-183.3 142,-168 199.56,-116.2 231.34,-128.52 307,-112 440.46,-82.85 601.13,-72.46 685.23,-68.85"/>
<polygon fill="midnightblue" stroke="midnightblue" points="685.5,-72.34 695.35,-68.43 685.22,-65.34 685.5,-72.34"/>
</g>
<!-- Node13&#45;&gt;Node6 -->
<g id="edge30" class="edge">
<title>Node13&#45;&gt;Node6</title>
<path fill="none" stroke="midnightblue" d="M117.14,-224.18C125.99,-209.88 145.51,-181.84 170,-168 220.9,-139.25 286.66,-128.43 336.31,-124.56"/>
<polygon fill="midnightblue" stroke="midnightblue" points="336.6,-128.05 346.33,-123.86 336.11,-121.07 336.6,-128.05"/>
</g>
<!-- Node13&#45;&gt;Node8 -->
<g id="edge31" class="edge">
<title>Node13&#45;&gt;Node8</title>
<path fill="none" stroke="midnightblue" d="M137.35,-224.44C164.27,-215.36 207,-200.94 237.09,-190.78"/>
<polygon fill="midnightblue" stroke="midnightblue" points="238.41,-194.03 246.77,-187.52 236.17,-187.4 238.41,-194.03"/>
</g>
<!-- Node14&#45;&gt;Node6 -->
<g id="edge33" class="edge">
<title>Node14&#45;&gt;Node6</title>
<path fill="none" stroke="midnightblue" d="M146.96,-280.46C152.13,-271.48 160.38,-256.88 167,-244 184.08,-210.76 173.74,-191.26 203,-168 223.55,-151.66 285.74,-139.5 336.46,-131.97"/>
<polygon fill="midnightblue" stroke="midnightblue" points="337.04,-135.43 346.44,-130.53 336.04,-128.5 337.04,-135.43"/>
</g>
<!-- Node14&#45;&gt;Node8 -->
<g id="edge34" class="edge">
<title>Node14&#45;&gt;Node8</title>
<path fill="none" stroke="midnightblue" d="M153.76,-280.28C165.62,-271.4 184.37,-257.09 200,-244 219.43,-227.73 240.89,-208.13 255.29,-194.74"/>
<polygon fill="midnightblue" stroke="midnightblue" points="257.96,-197.03 262.88,-187.64 253.18,-191.91 257.96,-197.03"/>
</g>
<!-- Node14&#45;&gt;Node13 -->
<g id="edge35" class="edge">
<title>Node14&#45;&gt;Node13</title>
<path fill="none" stroke="midnightblue" d="M137.05,-280.08C132.9,-272.61 126.85,-261.72 121.73,-252.52"/>
<polygon fill="midnightblue" stroke="midnightblue" points="124.78,-250.79 116.86,-243.75 118.66,-254.19 124.78,-250.79"/>
</g>
<!-- Node15&#45;&gt;Node2 -->
<g id="edge37" class="edge">
<title>Node15&#45;&gt;Node2</title>
<path fill="none" stroke="midnightblue" d="M472.08,-280.11C474.11,-266.69 479.57,-241.02 493,-224 551.89,-149.39 656.66,-100.49 709.93,-79.2"/>
<polygon fill="midnightblue" stroke="midnightblue" points="711.22,-82.45 719.25,-75.55 708.66,-75.93 711.22,-82.45"/>
</g>
<!-- Node15&#45;&gt;Node6 -->
<g id="edge38" class="edge">
<title>Node15&#45;&gt;Node6</title>
<path fill="none" stroke="midnightblue" d="M467.67,-280.08C457.87,-253.83 429,-176.55 415.77,-141.12"/>
<polygon fill="midnightblue" stroke="midnightblue" points="418.98,-139.71 412.2,-131.57 412.42,-142.16 418.98,-139.71"/>
</g>
<!-- Node15&#45;&gt;Node7 -->
<g id="edge39" class="edge">
<title>Node15&#45;&gt;Node7</title>
<path fill="none" stroke="midnightblue" d="M487.55,-280.32C503.99,-271.7 529.43,-258.36 548.47,-248.39"/>
<polygon fill="midnightblue" stroke="midnightblue" points="550.26,-251.4 557.49,-243.65 547.01,-245.2 550.26,-251.4"/>
</g>
<!-- Node16&#45;&gt;Node2 -->
<g id="edge41" class="edge">
<title>Node16&#45;&gt;Node2</title>
<path fill="none" stroke="midnightblue" d="M917.98,-280.41C907.79,-252.49 872.03,-163.21 815,-112 801.15,-99.56 783.43,-88.44 769.04,-80.36"/>
<polygon fill="midnightblue" stroke="midnightblue" points="770.59,-77.22 760.14,-75.52 767.25,-83.37 770.59,-77.22"/>
</g>
<!-- Node16&#45;&gt;Node7 -->
<g id="edge42" class="edge">
<title>Node16&#45;&gt;Node7</title>
<path fill="none" stroke="midnightblue" d="M875.93,-281.44C872.91,-280.95 869.91,-280.47 867,-280 789.54,-267.6 700.44,-254.01 641.03,-245.05"/>
<polygon fill="midnightblue" stroke="midnightblue" points="641.44,-241.57 631.03,-243.54 640.39,-248.49 641.44,-241.57"/>
</g>
<!-- Node17&#45;&gt;Node2 -->
<g id="edge44" class="edge">
<title>Node17&#45;&gt;Node2</title>
<path fill="none" stroke="midnightblue" d="M1337.47,-168.38C1319.02,-153.85 1279.1,-124.79 1240,-112 1159.75,-85.76 913.59,-73.39 800.68,-68.98"/>
<polygon fill="midnightblue" stroke="midnightblue" points="800.63,-65.48 790.5,-68.59 800.36,-72.47 800.63,-65.48"/>
</g>
<!-- Node18&#45;&gt;Node2 -->
<g id="edge46" class="edge">
<title>Node18&#45;&gt;Node2</title>
<path fill="none" stroke="midnightblue" d="M660.37,-280.3C673.08,-247.49 718.25,-130.88 735.88,-85.38"/>
<polygon fill="midnightblue" stroke="midnightblue" points="739.21,-86.47 739.56,-75.88 732.68,-83.94 739.21,-86.47"/>
</g>
<!-- Node18&#45;&gt;Node7 -->
<g id="edge49" class="edge">
<title>Node18&#45;&gt;Node7</title>
<path fill="none" stroke="midnightblue" d="M643.66,-280.32C630.84,-271.98 611.22,-259.21 596.06,-249.35"/>
<polygon fill="midnightblue" stroke="midnightblue" points="597.59,-246.17 587.3,-243.65 593.78,-252.04 597.59,-246.17"/>
</g>
<!-- Node18&#45;&gt;Node8 -->
<g id="edge48" class="edge">
<title>Node18&#45;&gt;Node8</title>
<path fill="none" stroke="midnightblue" d="M659.78,-280.08C663.52,-266.14 668.17,-239.21 654,-224 633.13,-201.59 446.12,-188.2 341.72,-182.4"/>
<polygon fill="midnightblue" stroke="midnightblue" points="341.75,-178.9 331.57,-181.85 341.37,-185.89 341.75,-178.9"/>
</g>
<!-- Node18&#45;&gt;Node10 -->
<g id="edge47" class="edge">
<title>Node18&#45;&gt;Node10</title>
<path fill="none" stroke="midnightblue" d="M679.5,-280.44C703.08,-271.48 740.32,-257.31 766.96,-247.18"/>
<polygon fill="midnightblue" stroke="midnightblue" points="768.5,-250.34 776.6,-243.52 766.01,-243.8 768.5,-250.34"/>
</g>
<!-- Node20 -->
<g id="node20" class="node">
<title>Node20</title>
<g id="a_node20"><a xlink:href="CO__LSS_8h.html" target="_top" xlink:title="CANopen Layer Setting Services protocol (common).">
<polygon fill="white" stroke="black" points="1209.5,-224.5 1209.5,-243.5 1292.5,-243.5 1292.5,-224.5 1209.5,-224.5"/>
<text text-anchor="middle" x="1251" y="-231.5" font-family="Helvetica,sans-Serif" font-size="10.00">305/CO_LSS.h</text>
</a>
</g>
</g>
<!-- Node19&#45;&gt;Node20 -->
<g id="edge51" class="edge">
<title>Node19&#45;&gt;Node20</title>
<path fill="none" stroke="midnightblue" d="M1288.25,-336.32C1305.01,-324.19 1330.42,-301.25 1319,-280 1311.38,-265.82 1297.1,-255.35 1283.59,-248.1"/>
<polygon fill="midnightblue" stroke="midnightblue" points="1284.97,-244.88 1274.45,-243.59 1281.87,-251.16 1284.97,-244.88"/>
</g>
<!-- Node20&#45;&gt;Node2 -->
<g id="edge52" class="edge">
<title>Node20&#45;&gt;Node2</title>
<path fill="none" stroke="midnightblue" d="M1248.71,-224.39C1242.14,-201.53 1220.88,-139.21 1178,-112 1116.8,-73.16 904.89,-67.22 801.14,-66.72"/>
<polygon fill="midnightblue" stroke="midnightblue" points="800.86,-63.22 790.85,-66.68 800.84,-70.22 800.86,-63.22"/>
</g>
<!-- Node21&#45;&gt;Node20 -->
<g id="edge54" class="edge">
<title>Node21&#45;&gt;Node20</title>
<path fill="none" stroke="midnightblue" d="M1251,-280.08C1251,-273.01 1251,-262.86 1251,-253.99"/>
<polygon fill="midnightblue" stroke="midnightblue" points="1254.5,-253.75 1251,-243.75 1247.5,-253.75 1254.5,-253.75"/>
</g>
<!-- Node22&#45;&gt;Node2 -->
<g id="edge56" class="edge">
<title>Node22&#45;&gt;Node2</title>
<path fill="none" stroke="midnightblue" d="M1064.42,-336.42C1100.11,-321.66 1164,-287.86 1164,-235 1164,-235 1164,-235 1164,-177 1164,-102.84 916.4,-77.73 800.96,-70.06"/>
<polygon fill="midnightblue" stroke="midnightblue" points="801.09,-66.56 790.88,-69.41 800.64,-73.54 801.09,-66.56"/>
</g>
<!-- Node22&#45;&gt;Node7 -->
<g id="edge59" class="edge">
<title>Node22&#45;&gt;Node7</title>
<path fill="none" stroke="midnightblue" d="M972.8,-341.84C856.66,-335.9 630.15,-321.68 601,-300 586.47,-289.19 579.71,-269.11 576.6,-254.12"/>
<polygon fill="midnightblue" stroke="midnightblue" points="579.99,-253.15 574.86,-243.88 573.09,-254.32 579.99,-253.15"/>
</g>
<!-- Node22&#45;&gt;Node11 -->
<g id="edge58" class="edge">
<title>Node22&#45;&gt;Node11</title>
<path fill="none" stroke="midnightblue" d="M1041,-336.08C1041,-329.01 1041,-318.86 1041,-309.99"/>
<polygon fill="midnightblue" stroke="midnightblue" points="1044.5,-309.75 1041,-299.75 1037.5,-309.75 1044.5,-309.75"/>
</g>
<!-- Node22&#45;&gt;Node12 -->
<g id="edge57" class="edge">
<title>Node22&#45;&gt;Node12</title>
<path fill="none" stroke="midnightblue" d="M1063.46,-336.38C1078.77,-329.18 1097.86,-317.29 1107,-300 1116.03,-282.92 1102.06,-263.73 1088.78,-250.66"/>
<polygon fill="midnightblue" stroke="midnightblue" points="1090.96,-247.91 1081.22,-243.73 1086.23,-253.07 1090.96,-247.91"/>
</g>
<!-- Node22&#45;&gt;Node16 -->
<g id="edge61" class="edge">
<title>Node22&#45;&gt;Node16</title>
<path fill="none" stroke="midnightblue" d="M1021.99,-336.44C1002.41,-327.64 971.69,-313.81 949.27,-303.72"/>
<polygon fill="midnightblue" stroke="midnightblue" points="950.48,-300.43 939.93,-299.52 947.61,-306.81 950.48,-300.43"/>
</g>
<!-- Node22&#45;&gt;Node21 -->
<g id="edge60" class="edge">
<title>Node22&#45;&gt;Node21</title>
<path fill="none" stroke="midnightblue" d="M1074.28,-336.44C1110.45,-327.14 1168.38,-312.25 1207.98,-302.06"/>
<polygon fill="midnightblue" stroke="midnightblue" points="1209.07,-305.4 1217.88,-299.52 1207.32,-298.62 1209.07,-305.4"/>
</g>
<!-- Node23&#45;&gt;Node2 -->
<g id="edge63" class="edge">
<title>Node23&#45;&gt;Node2</title>
<path fill="none" stroke="midnightblue" d="M827.39,-280.47C841.1,-273 858.81,-260.71 867,-244 870.91,-236.02 869.92,-232.4 867,-224 845.84,-163.08 790.15,-107.94 761.14,-82.24"/>
<polygon fill="midnightblue" stroke="midnightblue" points="763.24,-79.43 753.39,-75.52 758.65,-84.71 763.24,-79.43"/>
</g>
<!-- Node23&#45;&gt;Node10 -->
<g id="edge64" class="edge">
<title>Node23&#45;&gt;Node10</title>
<path fill="none" stroke="midnightblue" d="M807.35,-280.08C806.02,-272.93 804.12,-262.64 802.46,-253.69"/>
<polygon fill="midnightblue" stroke="midnightblue" points="805.88,-252.95 800.62,-243.75 799,-254.22 805.88,-252.95"/>
</g>
</g>
</svg>
