<?xml version="1.0" encoding="UTF-8" standalone="no"?>
<!DOCTYPE svg PUBLIC "-//W3C//DTD SVG 1.1//EN"
 "http://www.w3.org/Graphics/SVG/1.1/DTD/svg11.dtd">
<!-- Generated by graphviz version 2.43.0 (0)
 -->
<!-- Title: CANopen.h Pages: 1 -->
<svg width="1486pt" height="412pt"
 viewBox="0.00 0.00 1486.00 412.00" xmlns="http://www.w3.org/2000/svg" xmlns:xlink="http://www.w3.org/1999/xlink">
<g id="graph0" class="graph" transform="scale(1 1) rotate(0) translate(4 408)">
<title>CANopen.h</title>
<!-- Node1 -->
<g id="Node000001" class="node">
<title>Node1</title>
<g id="a_Node000001"><a xlink:title="Main CANopenNode file.">
<polygon fill="#999999" stroke="#666666" points="752.5,-404 681.5,-404 681.5,-385 752.5,-385 752.5,-404"/>
<text text-anchor="middle" x="717" y="-392" font-family="Helvetica,sans-Serif" font-size="10.00">CANopen.h</text>
</a>
</g>
</g>
<!-- Node2 -->
<g id="Node000002" class="node">
<title>Node2</title>
<g id="a_Node000002"><a xlink:href="CO__driver_8h.html" target="_top" xlink:title="Interface between CAN hardware and CANopenNode.">
<polygon fill="white" stroke="#666666" points="840.5,-74 745.5,-74 745.5,-55 840.5,-55 840.5,-74"/>
<text text-anchor="middle" x="793" y="-62" font-family="Helvetica,sans-Serif" font-size="10.00">301/CO_driver.h</text>
</a>
</g>
</g>
<!-- Node1&#45;&gt;Node2 -->
<g id="edge1_Node000001_Node000002" class="edge">
<title>Node1&#45;&gt;Node2</title>
<g id="a_edge1_Node000001_Node000002"><a xlink:title=" ">
<path fill="none" stroke="#63b8ff" d="M681.12,-392.63C569.81,-389.63 231.46,-378.3 126,-349 65.58,-332.21 0,-348.21 0,-285.5 0,-285.5 0,-285.5 0,-173.5 0,-107.6 70.23,-126.62 134,-110 246.85,-80.58 596.42,-69.82 735.28,-66.64"/>
<polygon fill="#63b8ff" stroke="#63b8ff" points="735.38,-70.14 745.3,-66.41 735.23,-63.14 735.38,-70.14"/>
</a>
</g>
</g>
<!-- Node6 -->
<g id="Node000006" class="node">
<title>Node6</title>
<g id="a_Node000006"><a xlink:href="CO__ODinterface_8h.html" target="_top" xlink:title="CANopen Object Dictionary interface.">
<polygon fill="white" stroke="#666666" points="714.5,-129 589.5,-129 589.5,-110 714.5,-110 714.5,-129"/>
<text text-anchor="middle" x="652" y="-117" font-family="Helvetica,sans-Serif" font-size="10.00">301/CO_ODinterface.h</text>
</a>
</g>
</g>
<!-- Node1&#45;&gt;Node6 -->
<g id="edge5_Node000001_Node000006" class="edge">
<title>Node1&#45;&gt;Node6</title>
<g id="a_edge5_Node000001_Node000006"><a xlink:title=" ">
<path fill="none" stroke="#63b8ff" d="M714.91,-384.73C705.76,-346.3 669.11,-192.38 656.38,-138.91"/>
<polygon fill="#63b8ff" stroke="#63b8ff" points="659.77,-138.02 654.05,-129.11 652.96,-139.64 659.77,-138.02"/>
</a>
</g>
</g>
<!-- Node7 -->
<g id="Node000007" class="node">
<title>Node7</title>
<g id="a_Node000007"><a xlink:href="CO__NMT__Heartbeat_8h.html" target="_top" xlink:title="CANopen Network management and Heartbeat producer protocol.">
<polygon fill="white" stroke="#666666" points="623.5,-239 480.5,-239 480.5,-220 623.5,-220 623.5,-239"/>
<text text-anchor="middle" x="552" y="-227" font-family="Helvetica,sans-Serif" font-size="10.00">301/CO_NMT_Heartbeat.h</text>
</a>
</g>
</g>
<!-- Node1&#45;&gt;Node7 -->
<g id="edge7_Node000001_Node000007" class="edge">
<title>Node1&#45;&gt;Node7</title>
<g id="a_edge7_Node000001_Node000007"><a xlink:title=" ">
<path fill="none" stroke="#63b8ff" d="M696.24,-384.89C664.51,-370.68 604.15,-339.3 571,-294 561.34,-280.8 556.55,-262.67 554.2,-249.16"/>
<polygon fill="#63b8ff" stroke="#63b8ff" points="557.64,-248.51 552.74,-239.11 550.71,-249.51 557.64,-248.51"/>
</a>
</g>
</g>
<!-- Node8 -->
<g id="Node000008" class="node">
<title>Node8</title>
<g id="a_Node000008"><a xlink:href="CO__Emergency_8h.html" target="_top" xlink:title="CANopen Emergency protocol.">
<polygon fill="white" stroke="#666666" points="409.5,-184 290.5,-184 290.5,-165 409.5,-165 409.5,-184"/>
<text text-anchor="middle" x="350" y="-172" font-family="Helvetica,sans-Serif" font-size="10.00">301/CO_Emergency.h</text>
</a>
</g>
</g>
<!-- Node1&#45;&gt;Node8 -->
<g id="edge23_Node000001_Node000008" class="edge">
<title>Node1&#45;&gt;Node8</title>
<g id="a_edge23_Node000001_Node000008"><a xlink:title=" ">
<path fill="none" stroke="#63b8ff" d="M681.35,-388.36C601.53,-376.09 412.36,-342.42 373,-294 349.62,-265.23 347.57,-219.63 348.53,-194.21"/>
<polygon fill="#63b8ff" stroke="#63b8ff" points="352.04,-194.26 349.12,-184.08 345.05,-193.85 352.04,-194.26"/>
</a>
</g>
</g>
<!-- Node9 -->
<g id="Node000009" class="node">
<title>Node9</title>
<g id="a_Node000009"><a xlink:href="CO__HBconsumer_8h.html" target="_top" xlink:title="CANopen Heartbeat consumer protocol.">
<polygon fill="white" stroke="#666666" points="326,-294 198,-294 198,-275 326,-275 326,-294"/>
<text text-anchor="middle" x="262" y="-282" font-family="Helvetica,sans-Serif" font-size="10.00">301/CO_HBconsumer.h</text>
</a>
</g>
</g>
<!-- Node1&#45;&gt;Node9 -->
<g id="edge13_Node000001_Node000009" class="edge">
<title>Node1&#45;&gt;Node9</title>
<g id="a_edge13_Node000001_Node000009"><a xlink:title=" ">
<path fill="none" stroke="#63b8ff" d="M681.33,-391.83C599.6,-387.59 401.15,-374.88 340,-349 314.76,-338.32 291.16,-316.87 276.66,-301.87"/>
<polygon fill="#63b8ff" stroke="#63b8ff" points="278.98,-299.22 269.6,-294.31 273.87,-304 278.98,-299.22"/>
</a>
</g>
</g>
<!-- Node10 -->
<g id="Node000010" class="node">
<title>Node10</title>
<g id="a_Node000010"><a xlink:href="CO__Node__Guarding_8h.html" target="_top" xlink:title="CANopen Node Guarding slave and master objects.">
<polygon fill="white" stroke="#666666" points="523.5,-294 382.5,-294 382.5,-275 523.5,-275 523.5,-294"/>
<text text-anchor="middle" x="453" y="-282" font-family="Helvetica,sans-Serif" font-size="10.00">301/CO_Node_Guarding.h</text>
</a>
</g>
</g>
<!-- Node1&#45;&gt;Node10 -->
<g id="edge18_Node000001_Node000010" class="edge">
<title>Node1&#45;&gt;Node10</title>
<g id="a_edge18_Node000001_Node000010"><a xlink:title=" ">
<path fill="none" stroke="#63b8ff" d="M681.28,-388.89C644.11,-383.14 584.88,-371.22 538,-349 511.92,-336.64 485.92,-315.62 469.68,-301.17"/>
<polygon fill="#63b8ff" stroke="#63b8ff" points="471.87,-298.44 462.12,-294.3 467.16,-303.62 471.87,-298.44"/>
</a>
</g>
</g>
<!-- Node11 -->
<g id="Node000011" class="node">
<title>Node11</title>
<g id="a_Node000011"><a xlink:href="CO__SDOserver_8h.html" target="_top" xlink:title="CANopen Service Data Object &#45; server protocol.">
<polygon fill="white" stroke="#666666" points="1054,-184 936,-184 936,-165 1054,-165 1054,-184"/>
<text text-anchor="middle" x="995" y="-172" font-family="Helvetica,sans-Serif" font-size="10.00">301/CO_SDOserver.h</text>
</a>
</g>
</g>
<!-- Node1&#45;&gt;Node11 -->
<g id="edge24_Node000001_Node000011" class="edge">
<title>Node1&#45;&gt;Node11</title>
<g id="a_edge24_Node000001_Node000011"><a xlink:title=" ">
<path fill="none" stroke="#63b8ff" d="M736.98,-384.95C756.43,-376.43 786.69,-362.69 812,-349 852.9,-326.88 866.25,-324.9 901,-294 936.17,-262.73 968.16,-217.17 984.19,-192.65"/>
<polygon fill="#63b8ff" stroke="#63b8ff" points="987.24,-194.38 989.7,-184.08 981.35,-190.6 987.24,-194.38"/>
</a>
</g>
</g>
<!-- Node12 -->
<g id="Node000012" class="node">
<title>Node12</title>
<g id="a_Node000012"><a xlink:href="CO__SDOclient_8h.html" target="_top" xlink:title="CANopen Service Data Object &#45; client protocol.">
<polygon fill="white" stroke="#666666" points="1214,-239 1100,-239 1100,-220 1214,-220 1214,-239"/>
<text text-anchor="middle" x="1157" y="-227" font-family="Helvetica,sans-Serif" font-size="10.00">301/CO_SDOclient.h</text>
</a>
</g>
</g>
<!-- Node1&#45;&gt;Node12 -->
<g id="edge27_Node000001_Node000012" class="edge">
<title>Node1&#45;&gt;Node12</title>
<g id="a_edge27_Node000001_Node000012"><a xlink:title=" ">
<path fill="none" stroke="#63b8ff" d="M752.82,-393.13C807.38,-391.41 913.65,-383.46 996,-349 1055.77,-323.99 1113.99,-272.44 1141.13,-246.36"/>
<polygon fill="#63b8ff" stroke="#63b8ff" points="1143.81,-248.63 1148.52,-239.14 1138.92,-243.62 1143.81,-248.63"/>
</a>
</g>
</g>
<!-- Node14 -->
<g id="Node000014" class="node">
<title>Node14</title>
<g id="a_Node000014"><a xlink:href="CO__SYNC_8h.html" target="_top" xlink:title="CANopen Synchronisation protocol.">
<polygon fill="white" stroke="#666666" points="120,-239 28,-239 28,-220 120,-220 120,-239"/>
<text text-anchor="middle" x="74" y="-227" font-family="Helvetica,sans-Serif" font-size="10.00">301/CO_SYNC.h</text>
</a>
</g>
</g>
<!-- Node1&#45;&gt;Node14 -->
<g id="edge33_Node000001_Node000014" class="edge">
<title>Node1&#45;&gt;Node14</title>
<g id="a_edge33_Node000001_Node000014"><a xlink:title=" ">
<path fill="none" stroke="#63b8ff" d="M681.24,-393.13C601.24,-391.65 402.11,-384.4 240,-349 167.77,-333.23 129.91,-351.15 83,-294 72.96,-281.76 71.29,-263.53 71.8,-249.74"/>
<polygon fill="#63b8ff" stroke="#63b8ff" points="75.31,-249.66 72.6,-239.42 68.34,-249.12 75.31,-249.66"/>
</a>
</g>
</g>
<!-- Node15 -->
<g id="Node000015" class="node">
<title>Node15</title>
<g id="a_Node000015"><a xlink:href="CO__PDO_8h.html" target="_top" xlink:title="CANopen Process Data Object protocol.">
<polygon fill="white" stroke="#666666" points="179.5,-294 92.5,-294 92.5,-275 179.5,-275 179.5,-294"/>
<text text-anchor="middle" x="136" y="-282" font-family="Helvetica,sans-Serif" font-size="10.00">301/CO_PDO.h</text>
</a>
</g>
</g>
<!-- Node1&#45;&gt;Node15 -->
<g id="edge37_Node000001_Node000015" class="edge">
<title>Node1&#45;&gt;Node15</title>
<g id="a_edge37_Node000001_Node000015"><a xlink:title=" ">
<path fill="none" stroke="#63b8ff" d="M681.31,-392.62C609.37,-390.2 442.18,-381.27 306,-349 254.32,-336.76 197,-313.1 163.86,-298.38"/>
<polygon fill="#63b8ff" stroke="#63b8ff" points="164.95,-295.03 154.39,-294.12 162.07,-301.41 164.95,-295.03"/>
</a>
</g>
</g>
<!-- Node16 -->
<g id="Node000016" class="node">
<title>Node16</title>
<g id="a_Node000016"><a xlink:href="CO__TIME_8h.html" target="_top" xlink:title="CANopen Time&#45;stamp protocol.">
<polygon fill="white" stroke="#666666" points="670,-294 580,-294 580,-275 670,-275 670,-294"/>
<text text-anchor="middle" x="625" y="-282" font-family="Helvetica,sans-Serif" font-size="10.00">301/CO_TIME.h</text>
</a>
</g>
</g>
<!-- Node1&#45;&gt;Node16 -->
<g id="edge41_Node000001_Node000016" class="edge">
<title>Node1&#45;&gt;Node16</title>
<g id="a_edge41_Node000001_Node000016"><a xlink:title=" ">
<path fill="none" stroke="#63b8ff" d="M709.47,-384.66C694.1,-366.61 658.88,-325.28 639.12,-302.08"/>
<polygon fill="#63b8ff" stroke="#63b8ff" points="641.52,-299.5 632.38,-294.16 636.2,-304.04 641.52,-299.5"/>
</a>
</g>
</g>
<!-- Node17 -->
<g id="Node000017" class="node">
<title>Node17</title>
<g id="a_Node000017"><a xlink:href="CO__LEDs_8h.html" target="_top" xlink:title="CANopen Indicator specification (CiA 303&#45;3 v1.4.0)">
<polygon fill="white" stroke="#666666" points="892,-294 802,-294 802,-275 892,-275 892,-294"/>
<text text-anchor="middle" x="847" y="-282" font-family="Helvetica,sans-Serif" font-size="10.00">303/CO_LEDs.h</text>
</a>
</g>
</g>
<!-- Node1&#45;&gt;Node17 -->
<g id="edge45_Node000001_Node000017" class="edge">
<title>Node1&#45;&gt;Node17</title>
<g id="a_edge45_Node000001_Node000017"><a xlink:title=" ">
<path fill="none" stroke="#63b8ff" d="M733.32,-384.9C748.26,-376.65 770.62,-363.37 788,-349 805.12,-334.84 822.12,-315.89 833.44,-302.38"/>
<polygon fill="#63b8ff" stroke="#63b8ff" points="836.36,-304.35 840.01,-294.4 830.95,-299.9 836.36,-304.35"/>
</a>
</g>
</g>
<!-- Node18 -->
<g id="Node000018" class="node">
<title>Node18</title>
<g id="a_Node000018"><a xlink:href="CO__GFC_8h.html" target="_top" xlink:title="CANopen Global fail&#45;safe command protocol.">
<polygon fill="white" stroke="#666666" points="880,-184 794,-184 794,-165 880,-165 880,-184"/>
<text text-anchor="middle" x="837" y="-172" font-family="Helvetica,sans-Serif" font-size="10.00">304/CO_GFC.h</text>
</a>
</g>
</g>
<!-- Node1&#45;&gt;Node18 -->
<g id="edge48_Node000001_Node000018" class="edge">
<title>Node1&#45;&gt;Node18</title>
<g id="a_edge48_Node000001_Node000018"><a xlink:title=" ">
<path fill="none" stroke="#63b8ff" d="M723.07,-384.7C729.2,-375.77 738.9,-361.51 747,-349 768.05,-316.49 765.3,-302.07 793,-275 815.51,-253 838.39,-266.34 854,-239 862.2,-224.64 855.68,-206.21 848.47,-192.9"/>
<polygon fill="#63b8ff" stroke="#63b8ff" points="851.43,-191.04 843.3,-184.25 845.42,-194.63 851.43,-191.04"/>
</a>
</g>
</g>
<!-- Node19 -->
<g id="Node000019" class="node">
<title>Node19</title>
<g id="a_Node000019"><a xlink:href="CO__SRDO_8h.html" target="_top" xlink:title="CANopen Safety Related Data Object protocol.">
<polygon fill="white" stroke="#666666" points="812,-239 718,-239 718,-220 812,-220 812,-239"/>
<text text-anchor="middle" x="765" y="-227" font-family="Helvetica,sans-Serif" font-size="10.00">304/CO_SRDO.h</text>
</a>
</g>
</g>
<!-- Node1&#45;&gt;Node19 -->
<g id="edge51_Node000001_Node000019" class="edge">
<title>Node1&#45;&gt;Node19</title>
<g id="a_edge51_Node000001_Node000019"><a xlink:title=" ">
<path fill="none" stroke="#63b8ff" d="M719.58,-384.74C727.1,-359.2 749.12,-284.43 759.48,-249.23"/>
<polygon fill="#63b8ff" stroke="#63b8ff" points="762.94,-249.89 762.41,-239.31 756.22,-247.91 762.94,-249.89"/>
</a>
</g>
</g>
<!-- Node20 -->
<g id="Node000020" class="node">
<title>Node20</title>
<g id="a_Node000020"><a xlink:href="CO__LSSslave_8h.html" target="_top" xlink:title="CANopen Layer Setting Service &#45; slave protocol.">
<polygon fill="white" stroke="#666666" points="1478,-349 1368,-349 1368,-330 1478,-330 1478,-349"/>
<text text-anchor="middle" x="1423" y="-337" font-family="Helvetica,sans-Serif" font-size="10.00">305/CO_LSSslave.h</text>
</a>
</g>
</g>
<!-- Node1&#45;&gt;Node20 -->
<g id="edge54_Node000001_Node000020" class="edge">
<title>Node1&#45;&gt;Node20</title>
<g id="a_edge54_Node000001_Node000020"><a xlink:title=" ">
<path fill="none" stroke="#63b8ff" d="M752.59,-391.05C846.2,-384.56 1107.02,-366.27 1324,-349 1334.86,-348.14 1346.39,-347.18 1357.6,-346.23"/>
<polygon fill="#63b8ff" stroke="#63b8ff" points="1358.1,-349.7 1367.77,-345.36 1357.51,-342.73 1358.1,-349.7"/>
</a>
</g>
</g>
<!-- Node22 -->
<g id="Node000022" class="node">
<title>Node22</title>
<g id="a_Node000022"><a xlink:href="CO__LSSmaster_8h.html" target="_top" xlink:title="CANopen Layer Setting Service &#45; master protocol.">
<polygon fill="white" stroke="#666666" points="1426,-294 1308,-294 1308,-275 1426,-275 1426,-294"/>
<text text-anchor="middle" x="1367" y="-282" font-family="Helvetica,sans-Serif" font-size="10.00">305/CO_LSSmaster.h</text>
</a>
</g>
</g>
<!-- Node1&#45;&gt;Node22 -->
<g id="edge57_Node000001_Node000022" class="edge">
<title>Node1&#45;&gt;Node22</title>
<g id="a_edge57_Node000001_Node000022"><a xlink:title=" ">
<path fill="none" stroke="#63b8ff" d="M752.6,-392.1C853.99,-387.84 1142.83,-373.8 1234,-349 1275.12,-337.81 1319.03,-314.31 1344.69,-299.24"/>
<polygon fill="#63b8ff" stroke="#63b8ff" points="1346.49,-302.25 1353.28,-294.11 1342.9,-296.24 1346.49,-302.25"/>
</a>
</g>
</g>
<!-- Node23 -->
<g id="Node000023" class="node">
<title>Node23</title>
<g id="a_Node000023"><a xlink:href="CO__gateway__ascii_8h.html" target="_top" xlink:title="CANopen access from other networks &#45; ASCII mapping (CiA 309&#45;3 DS v3.0.0)">
<polygon fill="white" stroke="#666666" points="1225,-349 1089,-349 1089,-330 1225,-330 1225,-349"/>
<text text-anchor="middle" x="1157" y="-337" font-family="Helvetica,sans-Serif" font-size="10.00">309/CO_gateway_ascii.h</text>
</a>
</g>
</g>
<!-- Node1&#45;&gt;Node23 -->
<g id="edge59_Node000001_Node000023" class="edge">
<title>Node1&#45;&gt;Node23</title>
<g id="a_edge59_Node000001_Node000023"><a xlink:title=" ">
<path fill="none" stroke="#63b8ff" d="M752.63,-389.21C823.27,-380.7 982.54,-361.51 1078.77,-349.92"/>
<polygon fill="#63b8ff" stroke="#63b8ff" points="1079.23,-353.39 1088.74,-348.72 1078.39,-346.44 1079.23,-353.39"/>
</a>
</g>
</g>
<!-- Node24 -->
<g id="Node000024" class="node">
<title>Node24</title>
<g id="a_Node000024"><a xlink:href="CO__trace_8h.html" target="_top" xlink:title="CANopen trace object for recording variables over time.">
<polygon fill="white" stroke="#666666" points="1082,-239 984,-239 984,-220 1082,-220 1082,-239"/>
<text text-anchor="middle" x="1033" y="-227" font-family="Helvetica,sans-Serif" font-size="10.00">extra/CO_trace.h</text>
</a>
</g>
</g>
<!-- Node1&#45;&gt;Node24 -->
<g id="edge66_Node000001_Node000024" class="edge">
<title>Node1&#45;&gt;Node24</title>
<g id="a_edge66_Node000001_Node000024"><a xlink:title=" ">
<path fill="none" stroke="#63b8ff" d="M752.74,-391.16C814.45,-386.49 937.7,-374.23 972,-349 1005.6,-324.29 1022.13,-275.63 1028.96,-249"/>
<polygon fill="#63b8ff" stroke="#63b8ff" points="1032.42,-249.6 1031.32,-239.06 1025.61,-247.98 1032.42,-249.6"/>
</a>
</g>
</g>
<!-- Node3 -->
<g id="Node000003" class="node">
<title>Node3</title>
<g id="a_Node000003"><a xlink:title=" ">
<polygon fill="#e0e0e0" stroke="#999999" points="737.5,-19 684.5,-19 684.5,0 737.5,0 737.5,-19"/>
<text text-anchor="middle" x="711" y="-7" font-family="Helvetica,sans-Serif" font-size="10.00">string.h</text>
</a>
</g>
</g>
<!-- Node2&#45;&gt;Node3 -->
<g id="edge2_Node000002_Node000003" class="edge">
<title>Node2&#45;&gt;Node3</title>
<g id="a_edge2_Node000002_Node000003"><a xlink:title=" ">
<path fill="none" stroke="#63b8ff" d="M779.83,-54.98C767.23,-46.84 748,-34.41 733.06,-24.76"/>
<polygon fill="#63b8ff" stroke="#63b8ff" points="734.71,-21.66 724.41,-19.17 730.91,-27.54 734.71,-21.66"/>
</a>
</g>
</g>
<!-- Node4 -->
<g id="Node000004" class="node">
<title>Node4</title>
<g id="a_Node000004"><a xlink:href="CO__config_8h.html" target="_top" xlink:title="Configuration macros for CANopenNode.">
<polygon fill="white" stroke="#666666" points="830.5,-19 755.5,-19 755.5,0 830.5,0 830.5,-19"/>
<text text-anchor="middle" x="793" y="-7" font-family="Helvetica,sans-Serif" font-size="10.00">CO_config.h</text>
</a>
</g>
</g>
<!-- Node2&#45;&gt;Node4 -->
<g id="edge3_Node000002_Node000004" class="edge">
<title>Node2&#45;&gt;Node4</title>
<g id="a_edge3_Node000002_Node000004"><a xlink:title=" ">
<path fill="none" stroke="#63b8ff" d="M793,-54.75C793,-47.8 793,-37.85 793,-29.13"/>
<polygon fill="#63b8ff" stroke="#63b8ff" points="796.5,-29.09 793,-19.09 789.5,-29.09 796.5,-29.09"/>
</a>
</g>
</g>
<!-- Node5 -->
<g id="Node000005" class="node">
<title>Node5</title>
<g id="a_Node000005"><a xlink:title=" ">
<polygon fill="#e0e0e0" stroke="#999999" points="957,-19 849,-19 849,0 957,0 957,-19"/>
<text text-anchor="middle" x="903" y="-7" font-family="Helvetica,sans-Serif" font-size="10.00">CO_driver_target.h</text>
</a>
</g>
</g>
<!-- Node2&#45;&gt;Node5 -->
<g id="edge4_Node000002_Node000005" class="edge">
<title>Node2&#45;&gt;Node5</title>
<g id="a_edge4_Node000002_Node000005"><a xlink:title=" ">
<path fill="none" stroke="#63b8ff" d="M810.67,-54.98C828.29,-46.5 855.58,-33.35 875.93,-23.54"/>
<polygon fill="#63b8ff" stroke="#63b8ff" points="877.52,-26.66 885.01,-19.17 874.48,-20.36 877.52,-26.66"/>
</a>
</g>
</g>
<!-- Node6&#45;&gt;Node2 -->
<g id="edge6_Node000006_Node000002" class="edge">
<title>Node6&#45;&gt;Node2</title>
<g id="a_edge6_Node000006_Node000002"><a xlink:title=" ">
<path fill="none" stroke="#63b8ff" d="M674.65,-109.98C697.85,-101.27 734.12,-87.63 760.4,-77.75"/>
<polygon fill="#63b8ff" stroke="#63b8ff" points="761.8,-80.97 769.93,-74.17 759.34,-74.41 761.8,-80.97"/>
</a>
</g>
</g>
<!-- Node7&#45;&gt;Node2 -->
<g id="edge8_Node000007_Node000002" class="edge">
<title>Node7&#45;&gt;Node2</title>
<g id="a_edge8_Node000007_Node000002"><a xlink:title=" ">
<path fill="none" stroke="#63b8ff" d="M551.2,-219.87C549.68,-198.04 548.96,-140.24 580,-110 601.72,-88.84 679.93,-76.72 735.27,-70.62"/>
<polygon fill="#63b8ff" stroke="#63b8ff" points="735.74,-74.09 745.31,-69.56 735,-67.13 735.74,-74.09"/>
</a>
</g>
</g>
<!-- Node7&#45;&gt;Node6 -->
<g id="edge9_Node000007_Node000006" class="edge">
<title>Node7&#45;&gt;Node6</title>
<g id="a_edge9_Node000007_Node000006"><a xlink:title=" ">
<path fill="none" stroke="#63b8ff" d="M560.18,-219.66C576.97,-201.54 615.51,-159.91 636.93,-136.77"/>
<polygon fill="#63b8ff" stroke="#63b8ff" points="639.76,-138.87 643.98,-129.16 634.62,-134.12 639.76,-138.87"/>
</a>
</g>
</g>
<!-- Node7&#45;&gt;Node8 -->
<g id="edge10_Node000007_Node000008" class="edge">
<title>Node7&#45;&gt;Node8</title>
<g id="a_edge10_Node000007_Node000008"><a xlink:title=" ">
<path fill="none" stroke="#63b8ff" d="M519.55,-219.98C485.04,-210.93 430.34,-196.58 392.44,-186.64"/>
<polygon fill="#63b8ff" stroke="#63b8ff" points="393.27,-183.23 382.71,-184.08 391.49,-190.01 393.27,-183.23"/>
</a>
</g>
</g>
<!-- Node8&#45;&gt;Node2 -->
<g id="edge11_Node000008_Node000002" class="edge">
<title>Node8&#45;&gt;Node2</title>
<g id="a_edge11_Node000008_Node000002"><a xlink:title=" ">
<path fill="none" stroke="#63b8ff" d="M357.11,-164.7C369.17,-150.46 395.18,-122.68 424,-110 478.4,-86.06 645.56,-73.53 735.05,-68.39"/>
<polygon fill="#63b8ff" stroke="#63b8ff" points="735.51,-71.87 745.3,-67.81 735.12,-64.88 735.51,-71.87"/>
</a>
</g>
</g>
<!-- Node8&#45;&gt;Node6 -->
<g id="edge12_Node000008_Node000006" class="edge">
<title>Node8&#45;&gt;Node6</title>
<g id="a_edge12_Node000008_Node000006"><a xlink:title=" ">
<path fill="none" stroke="#63b8ff" d="M398.52,-164.98C451.61,-155.67 536.69,-140.74 593.44,-130.78"/>
<polygon fill="#63b8ff" stroke="#63b8ff" points="594.1,-134.21 603.35,-129.04 592.89,-127.32 594.1,-134.21"/>
</a>
</g>
</g>
<!-- Node9&#45;&gt;Node2 -->
<g id="edge14_Node000009_Node000002" class="edge">
<title>Node9&#45;&gt;Node2</title>
<g id="a_edge14_Node000009_Node000002"><a xlink:title=" ">
<path fill="none" stroke="#63b8ff" d="M258.98,-274.89C252.13,-253.6 237.9,-197.88 264,-165 302.24,-116.82 331.55,-125.78 391,-110 510.67,-78.23 656.21,-69.12 735.21,-66.52"/>
<polygon fill="#63b8ff" stroke="#63b8ff" points="735.55,-70.01 745.43,-66.21 735.33,-63.01 735.55,-70.01"/>
</a>
</g>
</g>
<!-- Node9&#45;&gt;Node6 -->
<g id="edge15_Node000009_Node000006" class="edge">
<title>Node9&#45;&gt;Node6</title>
<g id="a_edge15_Node000009_Node000006"><a xlink:title=" ">
<path fill="none" stroke="#63b8ff" d="M260.3,-274.79C256.55,-252.78 250.21,-194.6 281,-165 302.05,-144.76 477.04,-130.98 579,-124.58"/>
<polygon fill="#63b8ff" stroke="#63b8ff" points="579.47,-128.06 589.23,-123.95 579.04,-121.07 579.47,-128.06"/>
</a>
</g>
</g>
<!-- Node9&#45;&gt;Node7 -->
<g id="edge16_Node000009_Node000007" class="edge">
<title>Node9&#45;&gt;Node7</title>
<g id="a_edge16_Node000009_Node000007"><a xlink:title=" ">
<path fill="none" stroke="#63b8ff" d="M308.59,-274.98C359.39,-265.7 440.69,-250.84 495.19,-240.88"/>
<polygon fill="#63b8ff" stroke="#63b8ff" points="495.83,-244.32 505.04,-239.08 494.57,-237.44 495.83,-244.32"/>
</a>
</g>
</g>
<!-- Node9&#45;&gt;Node8 -->
<g id="edge17_Node000009_Node000008" class="edge">
<title>Node9&#45;&gt;Node8</title>
<g id="a_edge17_Node000009_Node000008"><a xlink:title=" ">
<path fill="none" stroke="#63b8ff" d="M269.2,-274.66C283.91,-256.61 317.59,-215.28 336.49,-192.08"/>
<polygon fill="#63b8ff" stroke="#63b8ff" points="339.34,-194.12 342.95,-184.16 333.91,-189.7 339.34,-194.12"/>
</a>
</g>
</g>
<!-- Node10&#45;&gt;Node2 -->
<g id="edge19_Node000010_Node000002" class="edge">
<title>Node10&#45;&gt;Node2</title>
<g id="a_edge19_Node000010_Node000002"><a xlink:title=" ">
<path fill="none" stroke="#63b8ff" d="M451.91,-274.84C450.7,-262.18 449.88,-238.17 458,-220 485.58,-158.3 503.68,-142.4 563,-110 616.65,-80.7 686.59,-70.46 735.19,-67.01"/>
<polygon fill="#63b8ff" stroke="#63b8ff" points="735.47,-70.5 745.23,-66.37 735.03,-63.51 735.47,-70.5"/>
</a>
</g>
</g>
<!-- Node10&#45;&gt;Node6 -->
<g id="edge20_Node000010_Node000006" class="edge">
<title>Node10&#45;&gt;Node6</title>
<g id="a_edge20_Node000010_Node000006"><a xlink:title=" ">
<path fill="none" stroke="#63b8ff" d="M453.39,-274.74C454.39,-261.53 458.01,-236.32 471,-220 507.31,-174.38 570.51,-146.57 611.8,-132.35"/>
<polygon fill="#63b8ff" stroke="#63b8ff" points="613.15,-135.59 621.53,-129.11 610.94,-128.95 613.15,-135.59"/>
</a>
</g>
</g>
<!-- Node10&#45;&gt;Node7 -->
<g id="edge22_Node000010_Node000007" class="edge">
<title>Node10&#45;&gt;Node7</title>
<g id="a_edge22_Node000010_Node000007"><a xlink:title=" ">
<path fill="none" stroke="#63b8ff" d="M468.91,-274.98C484.55,-266.61 508.66,-253.7 526.88,-243.95"/>
<polygon fill="#63b8ff" stroke="#63b8ff" points="528.64,-246.98 535.8,-239.17 525.34,-240.8 528.64,-246.98"/>
</a>
</g>
</g>
<!-- Node10&#45;&gt;Node8 -->
<g id="edge21_Node000010_Node000008" class="edge">
<title>Node10&#45;&gt;Node8</title>
<g id="a_edge21_Node000010_Node000008"><a xlink:title=" ">
<path fill="none" stroke="#63b8ff" d="M441.45,-274.92C430.3,-266.39 413.21,-252.63 400,-239 385.72,-224.26 371.44,-205.64 361.82,-192.38"/>
<polygon fill="#63b8ff" stroke="#63b8ff" points="364.61,-190.28 355.96,-184.17 358.92,-194.34 364.61,-190.28"/>
</a>
</g>
</g>
<!-- Node11&#45;&gt;Node2 -->
<g id="edge25_Node000011_Node000002" class="edge">
<title>Node11&#45;&gt;Node2</title>
<g id="a_edge25_Node000011_Node000002"><a xlink:title=" ">
<path fill="none" stroke="#63b8ff" d="M987.28,-164.93C974.76,-151.5 948.76,-125.47 922,-110 896.2,-95.09 864.6,-84.08 839.14,-76.75"/>
<polygon fill="#63b8ff" stroke="#63b8ff" points="839.92,-73.34 829.35,-74.02 838.04,-80.08 839.92,-73.34"/>
</a>
</g>
</g>
<!-- Node11&#45;&gt;Node6 -->
<g id="edge26_Node000011_Node000006" class="edge">
<title>Node11&#45;&gt;Node6</title>
<g id="a_edge26_Node000011_Node000006"><a xlink:title=" ">
<path fill="none" stroke="#63b8ff" d="M939.89,-164.98C879.22,-155.61 781.76,-140.55 717.31,-130.59"/>
<polygon fill="#63b8ff" stroke="#63b8ff" points="717.67,-127.11 707.26,-129.04 716.6,-134.02 717.67,-127.11"/>
</a>
</g>
</g>
<!-- Node12&#45;&gt;Node2 -->
<g id="edge28_Node000012_Node000002" class="edge">
<title>Node12&#45;&gt;Node2</title>
<g id="a_edge28_Node000012_Node000002"><a xlink:title=" ">
<path fill="none" stroke="#63b8ff" d="M1150.84,-219.91C1134.38,-197.66 1086.88,-137.97 1032,-110 974.83,-80.86 901.28,-70.64 850.96,-67.14"/>
<polygon fill="#63b8ff" stroke="#63b8ff" points="851.1,-63.64 840.9,-66.51 850.66,-70.63 851.1,-63.64"/>
</a>
</g>
</g>
<!-- Node12&#45;&gt;Node6 -->
<g id="edge29_Node000012_Node000006" class="edge">
<title>Node12&#45;&gt;Node6</title>
<g id="a_edge29_Node000012_Node000006"><a xlink:title=" ">
<path fill="none" stroke="#63b8ff" d="M1147.73,-219.91C1131.8,-205.71 1097.58,-177.66 1063,-165 1002.65,-142.9 825.58,-129.94 724.64,-124.15"/>
<polygon fill="#63b8ff" stroke="#63b8ff" points="724.7,-120.65 714.52,-123.58 724.31,-127.64 724.7,-120.65"/>
</a>
</g>
</g>
<!-- Node12&#45;&gt;Node11 -->
<g id="edge30_Node000012_Node000011" class="edge">
<title>Node12&#45;&gt;Node11</title>
<g id="a_edge30_Node000012_Node000011"><a xlink:title=" ">
<path fill="none" stroke="#63b8ff" d="M1130.97,-219.98C1103.89,-211.13 1061.29,-197.19 1030.99,-187.28"/>
<polygon fill="#63b8ff" stroke="#63b8ff" points="1031.82,-183.87 1021.23,-184.08 1029.65,-190.52 1031.82,-183.87"/>
</a>
</g>
</g>
<!-- Node13 -->
<g id="Node000013" class="node">
<title>Node13</title>
<g id="a_Node000013"><a xlink:href="CO__fifo_8h.html" target="_top" xlink:title="FIFO circular buffer.">
<polygon fill="white" stroke="#666666" points="1269.5,-184 1186.5,-184 1186.5,-165 1269.5,-165 1269.5,-184"/>
<text text-anchor="middle" x="1228" y="-172" font-family="Helvetica,sans-Serif" font-size="10.00">301/CO_fifo.h</text>
</a>
</g>
</g>
<!-- Node12&#45;&gt;Node13 -->
<g id="edge31_Node000012_Node000013" class="edge">
<title>Node12&#45;&gt;Node13</title>
<g id="a_edge31_Node000012_Node000013"><a xlink:title=" ">
<path fill="none" stroke="#63b8ff" d="M1168.41,-219.98C1179.11,-212 1195.34,-199.88 1208.16,-190.31"/>
<polygon fill="#63b8ff" stroke="#63b8ff" points="1210.47,-192.96 1216.39,-184.17 1206.28,-187.35 1210.47,-192.96"/>
</a>
</g>
</g>
<!-- Node13&#45;&gt;Node2 -->
<g id="edge32_Node000013_Node000002" class="edge">
<title>Node13&#45;&gt;Node2</title>
<g id="a_edge32_Node000013_Node000002"><a xlink:title=" ">
<path fill="none" stroke="#63b8ff" d="M1223.16,-164.7C1214.81,-150.46 1196.22,-122.69 1172,-110 1117.54,-81.47 942.84,-70.92 850.87,-67.27"/>
<polygon fill="#63b8ff" stroke="#63b8ff" points="850.74,-63.77 840.62,-66.88 850.48,-70.76 850.74,-63.77"/>
</a>
</g>
</g>
<!-- Node14&#45;&gt;Node2 -->
<g id="edge34_Node000014_Node000002" class="edge">
<title>Node14&#45;&gt;Node2</title>
<g id="a_edge34_Node000014_Node000002"><a xlink:title=" ">
<path fill="none" stroke="#63b8ff" d="M77.13,-219.63C81.97,-206.72 92.18,-182.4 106,-165 129.75,-135.1 136.58,-124.27 172,-110 273.25,-69.19 601.32,-65.08 735.25,-65.16"/>
<polygon fill="#63b8ff" stroke="#63b8ff" points="735.31,-68.66 745.32,-65.17 735.32,-61.66 735.31,-68.66"/>
</a>
</g>
</g>
<!-- Node14&#45;&gt;Node6 -->
<g id="edge35_Node000014_Node000006" class="edge">
<title>Node14&#45;&gt;Node6</title>
<g id="a_edge35_Node000014_Node000006"><a xlink:title=" ">
<path fill="none" stroke="#63b8ff" d="M79.31,-219.6C88.43,-205.23 108.59,-177.26 134,-165 210.69,-127.98 455.76,-121.36 579.32,-120.43"/>
<polygon fill="#63b8ff" stroke="#63b8ff" points="579.46,-123.93 589.44,-120.37 579.42,-116.93 579.46,-123.93"/>
</a>
</g>
</g>
<!-- Node14&#45;&gt;Node8 -->
<g id="edge36_Node000014_Node000008" class="edge">
<title>Node14&#45;&gt;Node8</title>
<g id="a_edge36_Node000014_Node000008"><a xlink:title=" ">
<path fill="none" stroke="#63b8ff" d="M118.34,-219.98C166.49,-210.74 243.42,-195.97 295.29,-186.01"/>
<polygon fill="#63b8ff" stroke="#63b8ff" points="296.15,-189.41 305.31,-184.08 294.83,-182.53 296.15,-189.41"/>
</a>
</g>
</g>
<!-- Node15&#45;&gt;Node6 -->
<g id="edge38_Node000015_Node000006" class="edge">
<title>Node15&#45;&gt;Node6</title>
<g id="a_edge38_Node000015_Node000006"><a xlink:title=" ">
<path fill="none" stroke="#63b8ff" d="M142.25,-274.68C158.97,-251.9 207.31,-191.04 264,-165 318.47,-139.98 482.78,-128.3 579.22,-123.46"/>
<polygon fill="#63b8ff" stroke="#63b8ff" points="579.67,-126.94 589.48,-122.96 579.33,-119.95 579.67,-126.94"/>
</a>
</g>
</g>
<!-- Node15&#45;&gt;Node8 -->
<g id="edge39_Node000015_Node000008" class="edge">
<title>Node15&#45;&gt;Node8</title>
<g id="a_edge39_Node000015_Node000008"><a xlink:title=" ">
<path fill="none" stroke="#63b8ff" d="M153.15,-274.84C190.57,-255.96 279.75,-210.96 324.07,-188.59"/>
<polygon fill="#63b8ff" stroke="#63b8ff" points="325.71,-191.68 333.06,-184.05 322.56,-185.43 325.71,-191.68"/>
</a>
</g>
</g>
<!-- Node15&#45;&gt;Node14 -->
<g id="edge40_Node000015_Node000014" class="edge">
<title>Node15&#45;&gt;Node14</title>
<g id="a_edge40_Node000015_Node000014"><a xlink:title=" ">
<path fill="none" stroke="#63b8ff" d="M126.04,-274.98C116.87,-267.15 103.06,-255.34 91.97,-245.86"/>
<polygon fill="#63b8ff" stroke="#63b8ff" points="94.02,-243.01 84.14,-239.17 89.47,-248.33 94.02,-243.01"/>
</a>
</g>
</g>
<!-- Node16&#45;&gt;Node2 -->
<g id="edge42_Node000016_Node000002" class="edge">
<title>Node16&#45;&gt;Node2</title>
<g id="a_edge42_Node000016_Node000002"><a xlink:title=" ">
<path fill="none" stroke="#63b8ff" d="M670.23,-279.66C722.13,-274.2 802.49,-262.18 821,-239 841.85,-212.89 786.89,-188.57 785,-184 771.25,-150.79 779.93,-107.87 786.87,-83.86"/>
<polygon fill="#63b8ff" stroke="#63b8ff" points="790.23,-84.84 789.85,-74.26 783.55,-82.77 790.23,-84.84"/>
</a>
</g>
</g>
<!-- Node16&#45;&gt;Node6 -->
<g id="edge43_Node000016_Node000006" class="edge">
<title>Node16&#45;&gt;Node6</title>
<g id="a_edge43_Node000016_Node000006"><a xlink:title=" ">
<path fill="none" stroke="#63b8ff" d="M626.45,-274.74C630.68,-249.2 643.07,-174.43 648.9,-139.23"/>
<polygon fill="#63b8ff" stroke="#63b8ff" points="652.36,-139.74 650.54,-129.31 645.45,-138.6 652.36,-139.74"/>
</a>
</g>
</g>
<!-- Node16&#45;&gt;Node7 -->
<g id="edge44_Node000016_Node000007" class="edge">
<title>Node16&#45;&gt;Node7</title>
<g id="a_edge44_Node000016_Node000007"><a xlink:title=" ">
<path fill="none" stroke="#63b8ff" d="M613.27,-274.98C602.27,-267 585.58,-254.88 572.4,-245.31"/>
<polygon fill="#63b8ff" stroke="#63b8ff" points="574.09,-242.21 563.94,-239.17 569.98,-247.88 574.09,-242.21"/>
</a>
</g>
</g>
<!-- Node17&#45;&gt;Node2 -->
<g id="edge46_Node000017_Node000002" class="edge">
<title>Node17&#45;&gt;Node2</title>
<g id="a_edge46_Node000017_Node000002"><a xlink:title=" ">
<path fill="none" stroke="#63b8ff" d="M860.49,-274.75C871.29,-266.87 885.65,-254.21 892,-239 897.36,-226.16 900.08,-190.42 889,-165 873.01,-128.32 837.14,-97.22 814.06,-79.98"/>
<polygon fill="#63b8ff" stroke="#63b8ff" points="816.06,-77.11 805.91,-74.07 811.95,-82.78 816.06,-77.11"/>
</a>
</g>
</g>
<!-- Node17&#45;&gt;Node7 -->
<g id="edge47_Node000017_Node000007" class="edge">
<title>Node17&#45;&gt;Node7</title>
<g id="a_edge47_Node000017_Node000007"><a xlink:title=" ">
<path fill="none" stroke="#63b8ff" d="M801.87,-275.39C750.37,-266.14 665.99,-250.98 609.73,-240.87"/>
<polygon fill="#63b8ff" stroke="#63b8ff" points="610.03,-237.37 599.57,-239.05 608.79,-244.26 610.03,-237.37"/>
</a>
</g>
</g>
<!-- Node18&#45;&gt;Node2 -->
<g id="edge49_Node000018_Node000002" class="edge">
<title>Node18&#45;&gt;Node2</title>
<g id="a_edge49_Node000018_Node000002"><a xlink:title=" ">
<path fill="none" stroke="#63b8ff" d="M833.4,-164.66C826.21,-147.01 809.94,-107.09 800.39,-83.64"/>
<polygon fill="#63b8ff" stroke="#63b8ff" points="803.54,-82.1 796.53,-74.16 797.06,-84.74 803.54,-82.1"/>
</a>
</g>
</g>
<!-- Node18&#45;&gt;Node6 -->
<g id="edge50_Node000018_Node000006" class="edge">
<title>Node18&#45;&gt;Node6</title>
<g id="a_edge50_Node000018_Node000006"><a xlink:title=" ">
<path fill="none" stroke="#63b8ff" d="M807.28,-164.98C775.95,-156.01 726.43,-141.82 691.76,-131.89"/>
<polygon fill="#63b8ff" stroke="#63b8ff" points="692.53,-128.47 681.96,-129.08 690.61,-135.2 692.53,-128.47"/>
</a>
</g>
</g>
<!-- Node19&#45;&gt;Node6 -->
<g id="edge53_Node000019_Node000006" class="edge">
<title>Node19&#45;&gt;Node6</title>
<g id="a_edge53_Node000019_Node000006"><a xlink:title=" ">
<path fill="none" stroke="#63b8ff" d="M756.97,-219.61C745.55,-207.08 723.79,-183.68 704,-165 693.2,-154.8 680.55,-143.96 670.43,-135.52"/>
<polygon fill="#63b8ff" stroke="#63b8ff" points="672.56,-132.74 662.62,-129.07 668.1,-138.14 672.56,-132.74"/>
</a>
</g>
</g>
<!-- Node19&#45;&gt;Node8 -->
<g id="edge52_Node000019_Node000008" class="edge">
<title>Node19&#45;&gt;Node8</title>
<g id="a_edge52_Node000019_Node000008"><a xlink:title=" ">
<path fill="none" stroke="#63b8ff" d="M717.8,-222.47C644.82,-213.15 504.19,-195.19 419.55,-184.38"/>
<polygon fill="#63b8ff" stroke="#63b8ff" points="419.88,-180.9 409.51,-183.1 418.99,-187.84 419.88,-180.9"/>
</a>
</g>
</g>
<!-- Node21 -->
<g id="Node000021" class="node">
<title>Node21</title>
<g id="a_Node000021"><a xlink:href="CO__LSS_8h.html" target="_top" xlink:title="CANopen Layer Setting Services protocol (common).">
<polygon fill="white" stroke="#666666" points="1408.5,-239 1325.5,-239 1325.5,-220 1408.5,-220 1408.5,-239"/>
<text text-anchor="middle" x="1367" y="-227" font-family="Helvetica,sans-Serif" font-size="10.00">305/CO_LSS.h</text>
</a>
</g>
</g>
<!-- Node20&#45;&gt;Node21 -->
<g id="edge55_Node000020_Node000021" class="edge">
<title>Node20&#45;&gt;Node21</title>
<g id="a_edge55_Node000020_Node000021"><a xlink:title=" ">
<path fill="none" stroke="#63b8ff" d="M1428.08,-329.73C1434.77,-316.94 1444.61,-292.76 1435,-275 1427.42,-260.98 1413.3,-250.67 1399.87,-243.53"/>
<polygon fill="#63b8ff" stroke="#63b8ff" points="1401.3,-240.33 1390.78,-239.08 1398.23,-246.62 1401.3,-240.33"/>
</a>
</g>
</g>
<!-- Node21&#45;&gt;Node2 -->
<g id="edge56_Node000021_Node000002" class="edge">
<title>Node21&#45;&gt;Node2</title>
<g id="a_edge56_Node000021_Node000002"><a xlink:title=" ">
<path fill="none" stroke="#63b8ff" d="M1365.91,-219.77C1362.56,-197.2 1350.27,-136.8 1312,-110 1274.94,-84.05 978.66,-71.48 851.09,-67.23"/>
<polygon fill="#63b8ff" stroke="#63b8ff" points="850.84,-63.72 840.74,-66.89 850.62,-70.71 850.84,-63.72"/>
</a>
</g>
</g>
<!-- Node22&#45;&gt;Node21 -->
<g id="edge58_Node000022_Node000021" class="edge">
<title>Node22&#45;&gt;Node21</title>
<g id="a_edge58_Node000022_Node000021"><a xlink:title=" ">
<path fill="none" stroke="#63b8ff" d="M1367,-274.75C1367,-267.8 1367,-257.85 1367,-249.13"/>
<polygon fill="#63b8ff" stroke="#63b8ff" points="1370.5,-249.09 1367,-239.09 1363.5,-249.09 1370.5,-249.09"/>
</a>
</g>
</g>
<!-- Node23&#45;&gt;Node2 -->
<g id="edge60_Node000023_Node000002" class="edge">
<title>Node23&#45;&gt;Node2</title>
<g id="a_edge60_Node000023_Node000002"><a xlink:title=" ">
<path fill="none" stroke="#63b8ff" d="M1171.49,-329.97C1210.98,-305.57 1315.22,-232.9 1279,-165 1258.35,-126.28 1238.22,-125.06 1197,-110 1134.81,-87.28 946.7,-73.96 850.7,-68.46"/>
<polygon fill="#63b8ff" stroke="#63b8ff" points="850.77,-64.96 840.59,-67.89 850.37,-71.95 850.77,-64.96"/>
</a>
</g>
</g>
<!-- Node23&#45;&gt;Node7 -->
<g id="edge63_Node000023_Node000007" class="edge">
<title>Node23&#45;&gt;Node7</title>
<g id="a_edge63_Node000023_Node000007"><a xlink:title=" ">
<path fill="none" stroke="#63b8ff" d="M1127.29,-329.93C1079.84,-316.52 983.82,-290.5 901,-275 810.16,-258 704.78,-245.55 633.78,-238.21"/>
<polygon fill="#63b8ff" stroke="#63b8ff" points="633.87,-234.7 623.56,-237.17 633.16,-241.67 633.87,-234.7"/>
</a>
</g>
</g>
<!-- Node23&#45;&gt;Node12 -->
<g id="edge62_Node000023_Node000012" class="edge">
<title>Node23&#45;&gt;Node12</title>
<g id="a_edge62_Node000023_Node000012"><a xlink:title=" ">
<path fill="none" stroke="#63b8ff" d="M1157,-329.66C1157,-312.17 1157,-272.8 1157,-249.27"/>
<polygon fill="#63b8ff" stroke="#63b8ff" points="1160.5,-249.16 1157,-239.16 1153.5,-249.16 1160.5,-249.16"/>
</a>
</g>
</g>
<!-- Node23&#45;&gt;Node13 -->
<g id="edge61_Node000023_Node000013" class="edge">
<title>Node23&#45;&gt;Node13</title>
<g id="a_edge61_Node000023_Node000013"><a xlink:title=" ">
<path fill="none" stroke="#63b8ff" d="M1165.11,-329.75C1179.71,-313.39 1210.09,-276.43 1223,-239 1227.96,-224.61 1229.03,-207.33 1228.96,-194.43"/>
<polygon fill="#63b8ff" stroke="#63b8ff" points="1232.46,-194.31 1228.68,-184.41 1225.47,-194.51 1232.46,-194.31"/>
</a>
</g>
</g>
<!-- Node23&#45;&gt;Node17 -->
<g id="edge65_Node000023_Node000017" class="edge">
<title>Node23&#45;&gt;Node17</title>
<g id="a_edge65_Node000023_Node000017"><a xlink:title=" ">
<path fill="none" stroke="#63b8ff" d="M1107.19,-329.98C1051.17,-320.41 960.42,-304.89 902.26,-294.95"/>
<polygon fill="#63b8ff" stroke="#63b8ff" points="902.59,-291.45 892.15,-293.22 901.41,-298.35 902.59,-291.45"/>
</a>
</g>
</g>
<!-- Node23&#45;&gt;Node22 -->
<g id="edge64_Node000023_Node000022" class="edge">
<title>Node23&#45;&gt;Node22</title>
<g id="a_edge64_Node000023_Node000022"><a xlink:title=" ">
<path fill="none" stroke="#63b8ff" d="M1190.74,-329.98C1226.68,-320.91 1283.72,-306.52 1323.13,-296.57"/>
<polygon fill="#63b8ff" stroke="#63b8ff" points="1324.16,-299.92 1333,-294.08 1322.44,-293.14 1324.16,-299.92"/>
</a>
</g>
</g>
<!-- Node24&#45;&gt;Node2 -->
<g id="edge67_Node000024_Node000002" class="edge">
<title>Node24&#45;&gt;Node2</title>
<g id="a_edge67_Node000024_Node000002"><a xlink:title=" ">
<path fill="none" stroke="#63b8ff" d="M1042.44,-219.95C1055.08,-207.44 1074.64,-183.61 1063,-165 1018.43,-93.74 915.82,-73.17 850.71,-67.44"/>
<polygon fill="#63b8ff" stroke="#63b8ff" points="850.84,-63.94 840.6,-66.64 850.29,-70.92 850.84,-63.94"/>
</a>
</g>
</g>
<!-- Node24&#45;&gt;Node11 -->
<g id="edge68_Node000024_Node000011" class="edge">
<title>Node24&#45;&gt;Node11</title>
<g id="a_edge68_Node000024_Node000011"><a xlink:title=" ">
<path fill="none" stroke="#63b8ff" d="M1026.73,-219.75C1021.41,-212.34 1013.64,-201.5 1007.12,-192.41"/>
<polygon fill="#63b8ff" stroke="#63b8ff" points="1009.83,-190.18 1001.16,-184.09 1004.14,-194.26 1009.83,-190.18"/>
</a>
</g>
</g>
</g>
</svg>
