<?xml version="1.0" encoding="UTF-8" standalone="no"?>
<!DOCTYPE svg PUBLIC "-//W3C//DTD SVG 1.1//EN"
 "http://www.w3.org/Graphics/SVG/1.1/DTD/svg11.dtd">
<!-- Generated by graphviz version 2.43.0 (0)
 -->
<!-- Title: 301/CO_Node_Guarding.h Pages: 1 -->
<svg width="342pt" height="302pt"
 viewBox="0.00 0.00 341.63 302.00" xmlns="http://www.w3.org/2000/svg" xmlns:xlink="http://www.w3.org/1999/xlink">
<g id="graph0" class="graph" transform="scale(1 1) rotate(0) translate(4 298)">
<title>301/CO_Node_Guarding.h</title>
<!-- Node1 -->
<g id="Node000001" class="node">
<title>Node1</title>
<g id="a_Node000001"><a xlink:title="CANopen Node Guarding slave and master objects.">
<polygon fill="#999999" stroke="#666666" points="212.63,-294 71.63,-294 71.63,-275 212.63,-275 212.63,-294"/>
<text text-anchor="middle" x="142.13" y="-282" font-family="Helvetica,sans-Serif" font-size="10.00">301/CO_Node_Guarding.h</text>
</a>
</g>
</g>
<!-- Node2 -->
<g id="Node000002" class="node">
<title>Node2</title>
<g id="a_Node000002"><a xlink:href="CO__driver_8h.html" target="_top" xlink:title="Interface between CAN hardware and CANopenNode.">
<polygon fill="white" stroke="#666666" points="184.63,-74 89.63,-74 89.63,-55 184.63,-55 184.63,-74"/>
<text text-anchor="middle" x="137.13" y="-62" font-family="Helvetica,sans-Serif" font-size="10.00">301/CO_driver.h</text>
</a>
</g>
</g>
<!-- Node1&#45;&gt;Node2 -->
<g id="edge1_Node000001_Node000002" class="edge">
<title>Node1&#45;&gt;Node2</title>
<g id="a_edge1_Node000001_Node000002"><a xlink:title=" ">
<path fill="none" stroke="#63b8ff" d="M71.41,-275.91C48.4,-269.7 25.19,-258.62 11.13,-239 -31.55,-179.42 65.94,-108.87 113.25,-79.46"/>
<polygon fill="#63b8ff" stroke="#63b8ff" points="115.26,-82.33 121.98,-74.14 111.62,-76.35 115.26,-82.33"/>
</a>
</g>
</g>
<!-- Node6 -->
<g id="Node000006" class="node">
<title>Node6</title>
<g id="a_Node000006"><a xlink:href="CO__ODinterface_8h.html" target="_top" xlink:title="CANopen Object Dictionary interface.">
<polygon fill="white" stroke="#666666" points="245.63,-129 120.63,-129 120.63,-110 245.63,-110 245.63,-129"/>
<text text-anchor="middle" x="183.13" y="-117" font-family="Helvetica,sans-Serif" font-size="10.00">301/CO_ODinterface.h</text>
</a>
</g>
</g>
<!-- Node1&#45;&gt;Node6 -->
<g id="edge5_Node000001_Node000006" class="edge">
<title>Node1&#45;&gt;Node6</title>
<g id="a_edge5_Node000001_Node000006"><a xlink:title=" ">
<path fill="none" stroke="#63b8ff" d="M150.35,-274.76C157.73,-266.32 168.15,-252.82 173.13,-239 185.24,-205.45 185.56,-163.23 184.49,-139.31"/>
<polygon fill="#63b8ff" stroke="#63b8ff" points="187.98,-138.93 183.9,-129.15 180.99,-139.34 187.98,-138.93"/>
</a>
</g>
</g>
<!-- Node7 -->
<g id="Node000007" class="node">
<title>Node7</title>
<g id="a_Node000007"><a xlink:href="CO__Emergency_8h.html" target="_top" xlink:title="CANopen Emergency protocol.">
<polygon fill="white" stroke="#666666" points="333.63,-184 214.63,-184 214.63,-165 333.63,-165 333.63,-184"/>
<text text-anchor="middle" x="274.13" y="-172" font-family="Helvetica,sans-Serif" font-size="10.00">301/CO_Emergency.h</text>
</a>
</g>
</g>
<!-- Node1&#45;&gt;Node7 -->
<g id="edge7_Node000001_Node000007" class="edge">
<title>Node1&#45;&gt;Node7</title>
<g id="a_edge7_Node000001_Node000007"><a xlink:title=" ">
<path fill="none" stroke="#63b8ff" d="M155.53,-275C168.76,-266.41 189.39,-252.52 206.13,-239 224.87,-223.87 244.84,-204.83 258.26,-191.56"/>
<polygon fill="#63b8ff" stroke="#63b8ff" points="261.09,-193.68 265.69,-184.14 256.14,-188.73 261.09,-193.68"/>
</a>
</g>
</g>
<!-- Node8 -->
<g id="Node000008" class="node">
<title>Node8</title>
<g id="a_Node000008"><a xlink:href="CO__NMT__Heartbeat_8h.html" target="_top" xlink:title="CANopen Network management and Heartbeat producer protocol.">
<polygon fill="white" stroke="#666666" points="163.63,-239 20.63,-239 20.63,-220 163.63,-220 163.63,-239"/>
<text text-anchor="middle" x="92.13" y="-227" font-family="Helvetica,sans-Serif" font-size="10.00">301/CO_NMT_Heartbeat.h</text>
</a>
</g>
</g>
<!-- Node1&#45;&gt;Node8 -->
<g id="edge10_Node000001_Node000008" class="edge">
<title>Node1&#45;&gt;Node8</title>
<g id="a_edge10_Node000001_Node000008"><a xlink:title=" ">
<path fill="none" stroke="#63b8ff" d="M133.88,-274.75C126.67,-267.11 116.02,-255.82 107.29,-246.56"/>
<polygon fill="#63b8ff" stroke="#63b8ff" points="109.65,-243.96 100.24,-239.09 104.55,-248.76 109.65,-243.96"/>
</a>
</g>
</g>
<!-- Node3 -->
<g id="Node000003" class="node">
<title>Node3</title>
<g id="a_Node000003"><a xlink:title=" ">
<polygon fill="#e0e0e0" stroke="#999999" points="81.63,-19 28.63,-19 28.63,0 81.63,0 81.63,-19"/>
<text text-anchor="middle" x="55.13" y="-7" font-family="Helvetica,sans-Serif" font-size="10.00">string.h</text>
</a>
</g>
</g>
<!-- Node2&#45;&gt;Node3 -->
<g id="edge2_Node000002_Node000003" class="edge">
<title>Node2&#45;&gt;Node3</title>
<g id="a_edge2_Node000002_Node000003"><a xlink:title=" ">
<path fill="none" stroke="#63b8ff" d="M123.96,-54.98C111.36,-46.84 92.13,-34.41 77.2,-24.76"/>
<polygon fill="#63b8ff" stroke="#63b8ff" points="78.85,-21.66 68.55,-19.17 75.05,-27.54 78.85,-21.66"/>
</a>
</g>
</g>
<!-- Node4 -->
<g id="Node000004" class="node">
<title>Node4</title>
<g id="a_Node000004"><a xlink:href="CO__config_8h.html" target="_top" xlink:title="Configuration macros for CANopenNode.">
<polygon fill="white" stroke="#666666" points="174.63,-19 99.63,-19 99.63,0 174.63,0 174.63,-19"/>
<text text-anchor="middle" x="137.13" y="-7" font-family="Helvetica,sans-Serif" font-size="10.00">CO_config.h</text>
</a>
</g>
</g>
<!-- Node2&#45;&gt;Node4 -->
<g id="edge3_Node000002_Node000004" class="edge">
<title>Node2&#45;&gt;Node4</title>
<g id="a_edge3_Node000002_Node000004"><a xlink:title=" ">
<path fill="none" stroke="#63b8ff" d="M137.13,-54.75C137.13,-47.8 137.13,-37.85 137.13,-29.13"/>
<polygon fill="#63b8ff" stroke="#63b8ff" points="140.63,-29.09 137.13,-19.09 133.63,-29.09 140.63,-29.09"/>
</a>
</g>
</g>
<!-- Node5 -->
<g id="Node000005" class="node">
<title>Node5</title>
<g id="a_Node000005"><a xlink:title=" ">
<polygon fill="#e0e0e0" stroke="#999999" points="301.13,-19 193.13,-19 193.13,0 301.13,0 301.13,-19"/>
<text text-anchor="middle" x="247.13" y="-7" font-family="Helvetica,sans-Serif" font-size="10.00">CO_driver_target.h</text>
</a>
</g>
</g>
<!-- Node2&#45;&gt;Node5 -->
<g id="edge4_Node000002_Node000005" class="edge">
<title>Node2&#45;&gt;Node5</title>
<g id="a_edge4_Node000002_Node000005"><a xlink:title=" ">
<path fill="none" stroke="#63b8ff" d="M154.81,-54.98C172.42,-46.5 199.71,-33.35 220.06,-23.54"/>
<polygon fill="#63b8ff" stroke="#63b8ff" points="221.65,-26.66 229.14,-19.17 218.61,-20.36 221.65,-26.66"/>
</a>
</g>
</g>
<!-- Node6&#45;&gt;Node2 -->
<g id="edge6_Node000006_Node000002" class="edge">
<title>Node6&#45;&gt;Node2</title>
<g id="a_edge6_Node000006_Node000002"><a xlink:title=" ">
<path fill="none" stroke="#63b8ff" d="M175.54,-109.75C168.97,-102.18 159.31,-91.05 151.32,-81.84"/>
<polygon fill="#63b8ff" stroke="#63b8ff" points="153.79,-79.35 144.59,-74.09 148.5,-83.94 153.79,-79.35"/>
</a>
</g>
</g>
<!-- Node7&#45;&gt;Node2 -->
<g id="edge8_Node000007_Node000002" class="edge">
<title>Node7&#45;&gt;Node2</title>
<g id="a_edge8_Node000007_Node000002"><a xlink:title=" ">
<path fill="none" stroke="#63b8ff" d="M273.9,-164.93C273.07,-151.51 269.57,-125.49 255.13,-110 239.21,-92.92 216.07,-82.35 194.49,-75.82"/>
<polygon fill="#63b8ff" stroke="#63b8ff" points="195.29,-72.41 184.72,-73.1 193.41,-79.16 195.29,-72.41"/>
</a>
</g>
</g>
<!-- Node7&#45;&gt;Node6 -->
<g id="edge9_Node000007_Node000006" class="edge">
<title>Node7&#45;&gt;Node6</title>
<g id="a_edge9_Node000007_Node000006"><a xlink:title=" ">
<path fill="none" stroke="#63b8ff" d="M259.51,-164.98C245.27,-156.69 223.38,-143.94 206.68,-134.22"/>
<polygon fill="#63b8ff" stroke="#63b8ff" points="208.42,-131.18 198.02,-129.17 204.9,-137.23 208.42,-131.18"/>
</a>
</g>
</g>
<!-- Node8&#45;&gt;Node2 -->
<g id="edge11_Node000008_Node000002" class="edge">
<title>Node8&#45;&gt;Node2</title>
<g id="a_edge11_Node000008_Node000002"><a xlink:title=" ">
<path fill="none" stroke="#63b8ff" d="M92.57,-219.92C93.8,-200.04 98.17,-149.54 112.13,-110 115.45,-100.61 120.67,-90.9 125.48,-82.95"/>
<polygon fill="#63b8ff" stroke="#63b8ff" points="128.59,-84.58 131,-74.27 122.68,-80.83 128.59,-84.58"/>
</a>
</g>
</g>
<!-- Node8&#45;&gt;Node6 -->
<g id="edge12_Node000008_Node000006" class="edge">
<title>Node8&#45;&gt;Node6</title>
<g id="a_edge12_Node000008_Node000006"><a xlink:title=" ">
<path fill="none" stroke="#63b8ff" d="M99.58,-219.66C114.79,-201.61 149.62,-160.28 169.17,-137.08"/>
<polygon fill="#63b8ff" stroke="#63b8ff" points="172.07,-139.06 175.84,-129.16 166.72,-134.55 172.07,-139.06"/>
</a>
</g>
</g>
<!-- Node8&#45;&gt;Node7 -->
<g id="edge13_Node000008_Node000007" class="edge">
<title>Node8&#45;&gt;Node7</title>
<g id="a_edge13_Node000008_Node000007"><a xlink:title=" ">
<path fill="none" stroke="#63b8ff" d="M121.38,-219.98C152.2,-211.01 200.91,-196.82 235.02,-186.89"/>
<polygon fill="#63b8ff" stroke="#63b8ff" points="236.04,-190.24 244.66,-184.08 234.08,-183.52 236.04,-190.24"/>
</a>
</g>
</g>
</g>
</svg>
