<?xml version="1.0" encoding="UTF-8" standalone="no"?>
<!DOCTYPE svg PUBLIC "-//W3C//DTD SVG 1.1//EN"
 "http://www.w3.org/Graphics/SVG/1.1/DTD/svg11.dtd">
<!-- Generated by graphviz version 2.43.0 (0)
 -->
<!-- Title: 301/CO_ODinterface.h Pages: 1 -->
<!--zoomable 302 -->

<svg id="main" version="1.1" xmlns="http://www.w3.org/2000/svg" xmlns:xlink="http://www.w3.org/1999/xlink" xml:space="preserve" onload="init(evt)">
<style type="text/css"><![CDATA[
.node, .edge {opacity: 0.7;}
.node.selected, .edge.selected {opacity: 1;}
.edge:hover path { stroke: red; }
.edge:hover polygon { stroke: red; fill: red; }
]]></style>

<defs>
  <circle id="rim" cx="0" cy="0" r="7"/>
  <circle id="rim2" cx="0" cy="0" r="3.5"/>
  <g id="zoomPlus">
    <use xlink:href="#rim" fill="#404040"><set attributeName="fill" to="#808080" begin="zoomplus.mouseover" end="zoomplus.mouseout"/></use>
    <path d="M-4,0h8M0,-4v8" fill="none" stroke="white" stroke-width="1.5" pointer-events="none"/>
  </g>
  <g id="zoomMin">
    <use xlink:href="#rim" fill="#404040"><set attributeName="fill" to="#808080" begin="zoomminus.mouseover" end="zoomminus.mouseout"/></use>
    <path d="M-4,0h8" fill="none" stroke="white" stroke-width="1.5" pointer-events="none"/>
  </g>
  <g id="arrowUp" transform="translate(30 24)">
    <use xlink:href="#rim"/>
    <path pointer-events="none" fill="none" stroke="white" stroke-width="1.5" d="M0,-3.0v7 M-2.5,-0.5L0,-3.0L2.5,-0.5"/>
  </g>
  <g id="arrowRight" transform="rotate(90) translate(36 -43)">
    <use xlink:href="#rim"/>
    <path pointer-events="none" fill="none" stroke="white" stroke-width="1.5" d="M0,-3.0v7 M-2.5,-0.5L0,-3.0L2.5,-0.5"/>
  </g>
  <g id="arrowDown" transform="rotate(180) translate(-30 -48)">
    <use xlink:href="#rim"/>
    <path pointer-events="none" fill="none" stroke="white" stroke-width="1.5" d="M0,-3.0v7 M-2.5,-0.5L0,-3.0L2.5,-0.5"/>
  </g>
  <g id="arrowLeft" transform="rotate(270) translate(-36 17)">
    <use xlink:href="#rim"/>
    <path pointer-events="none" fill="none" stroke="white" stroke-width="1.5" d="M0,-3.0v7 M-2.5,-0.5L0,-3.0L2.5,-0.5"/>
  </g>
  <g id="resetDef">
    <use xlink:href="#rim2" fill="#404040"><set attributeName="fill" to="#808080" begin="reset.mouseover" end="reset.mouseout"/></use>
  </g>
</defs>
<script type="application/ecmascript">
var viewWidth = 1329;
var viewHeight = 302;
var sectionId = 'dynsection-1';
</script>
<script type="application/ecmascript" xlink:href="svg.min.js"/>
<svg id="graph" class="graph">
<g id="viewport">
<title>301/CO_ODinterface.h</title>
<!-- Node1 -->
<g id="Node000001" class="node">
<title>Node1</title>
<g id="a_Node000001"><a xlink:title="CANopen Object Dictionary interface.">
<polygon fill="#999999" stroke="#666666" points="798.5,-294 673.5,-294 673.5,-275 798.5,-275 798.5,-294"/>
<text text-anchor="middle" x="736" y="-282" font-family="Helvetica,sans-Serif" font-size="10.00">301/CO_ODinterface.h</text>
</a>
</g>
</g>
<!-- Node2 -->
<g id="Node000002" class="node">
<title>Node2</title>
<g id="a_Node000002"><a xlink:href="CO__Emergency_8h.html" target="_top" xlink:title="CANopen Emergency protocol.">
<polygon fill="white" stroke="#666666" points="645.5,-239 526.5,-239 526.5,-220 645.5,-220 645.5,-239"/>
<text text-anchor="middle" x="586" y="-227" font-family="Helvetica,sans-Serif" font-size="10.00">301/CO_Emergency.h</text>
</a>
</g>
</g>
<!-- Node1&#45;&gt;Node2 -->
<g id="edge1_Node000001_Node000002" class="edge">
<title>Node1&#45;&gt;Node2</title>
<g id="a_edge1_Node000001_Node000002"><a xlink:title=" ">
<path fill="none" stroke="#63b8ff" d="M702.18,-271.55C674.32,-261.71 635.49,-247.98 610.54,-239.17"/>
<polygon fill="#63b8ff" stroke="#63b8ff" points="701.31,-274.95 711.9,-274.98 703.64,-268.35 701.31,-274.95"/>
</a>
</g>
</g>
<!-- Node3 -->
<g id="Node000003" class="node">
<title>Node3</title>
<g id="a_Node000003"><a xlink:href="CO__HBconsumer_8h.html" target="_top" xlink:title="CANopen Heartbeat consumer protocol.">
<polygon fill="white" stroke="#666666" points="128,-129 0,-129 0,-110 128,-110 128,-129"/>
<text text-anchor="middle" x="64" y="-117" font-family="Helvetica,sans-Serif" font-size="10.00">301/CO_HBconsumer.h</text>
</a>
</g>
</g>
<!-- Node1&#45;&gt;Node3 -->
<g id="edge25_Node000001_Node000003" class="edge">
<title>Node1&#45;&gt;Node3</title>
<g id="a_edge25_Node000001_Node000003"><a xlink:title=" ">
<path fill="none" stroke="#63b8ff" d="M662.93,-280.86C583.09,-276.68 451.88,-266.01 342,-239 276.28,-222.85 262.25,-210.55 200,-184 156.86,-165.6 107.15,-141.68 81.43,-129.1"/>
<polygon fill="#63b8ff" stroke="#63b8ff" points="663.21,-284.38 673.37,-281.38 663.56,-277.38 663.21,-284.38"/>
</a>
</g>
</g>
<!-- Node4 -->
<g id="Node000004" class="node">
<title>Node4</title>
<g id="a_Node000004"><a xlink:href="CANopen_8h.html" target="_top" xlink:title="Main CANopenNode file.">
<polygon fill="white" stroke="#666666" points="715.5,-19 644.5,-19 644.5,0 715.5,0 715.5,-19"/>
<text text-anchor="middle" x="680" y="-7" font-family="Helvetica,sans-Serif" font-size="10.00">CANopen.h</text>
</a>
</g>
</g>
<!-- Node1&#45;&gt;Node4 -->
<g id="edge42_Node000001_Node000004" class="edge">
<title>Node1&#45;&gt;Node4</title>
<g id="a_edge42_Node000001_Node000004"><a xlink:title=" ">
<path fill="none" stroke="#63b8ff" d="M809,-278.18C874.37,-268.95 960,-243.84 960,-175.5 960,-175.5 960,-175.5 960,-118.5 960,-66.72 791.23,-30.25 715.75,-16.52"/>
<polygon fill="#63b8ff" stroke="#63b8ff" points="808.16,-274.76 798.69,-279.52 809.06,-281.7 808.16,-274.76"/>
</a>
</g>
</g>
<!-- Node5 -->
<g id="Node000005" class="node">
<title>Node5</title>
<g id="a_Node000005"><a xlink:href="CO__NMT__Heartbeat_8h.html" target="_top" xlink:title="CANopen Network management and Heartbeat producer protocol.">
<polygon fill="white" stroke="#666666" points="465.5,-184 322.5,-184 322.5,-165 465.5,-165 465.5,-184"/>
<text text-anchor="middle" x="394" y="-172" font-family="Helvetica,sans-Serif" font-size="10.00">301/CO_NMT_Heartbeat.h</text>
</a>
</g>
</g>
<!-- Node1&#45;&gt;Node5 -->
<g id="edge26_Node000001_Node000005" class="edge">
<title>Node1&#45;&gt;Node5</title>
<g id="a_edge26_Node000001_Node000005"><a xlink:title=" ">
<path fill="none" stroke="#63b8ff" d="M663.21,-279.12C611.56,-274 541.48,-262.94 484,-239 451.17,-225.33 418.53,-198 403.14,-184.08"/>
<polygon fill="#63b8ff" stroke="#63b8ff" points="663,-282.61 673.28,-280.06 663.65,-275.64 663,-282.61"/>
</a>
</g>
</g>
<!-- Node6 -->
<g id="Node000006" class="node">
<title>Node6</title>
<g id="a_Node000006"><a xlink:href="CO__Node__Guarding_8h.html" target="_top" xlink:title="CANopen Node Guarding slave and master objects.">
<polygon fill="white" stroke="#666666" points="287.5,-129 146.5,-129 146.5,-110 287.5,-110 287.5,-129"/>
<text text-anchor="middle" x="217" y="-117" font-family="Helvetica,sans-Serif" font-size="10.00">301/CO_Node_Guarding.h</text>
</a>
</g>
</g>
<!-- Node1&#45;&gt;Node6 -->
<g id="edge27_Node000001_Node000006" class="edge">
<title>Node1&#45;&gt;Node6</title>
<g id="a_edge27_Node000001_Node000006"><a xlink:title=" ">
<path fill="none" stroke="#63b8ff" d="M663.07,-283.55C566.33,-280.31 393.76,-262.76 273,-184 250.35,-169.22 231.33,-142.88 222.42,-129.24"/>
<polygon fill="#63b8ff" stroke="#63b8ff" points="663.24,-287.05 673.33,-283.85 663.44,-280.06 663.24,-287.05"/>
</a>
</g>
</g>
<!-- Node7 -->
<g id="Node000007" class="node">
<title>Node7</title>
<g id="a_Node000007"><a xlink:href="CO__TIME_8h.html" target="_top" xlink:title="CANopen Time&#45;stamp protocol.">
<polygon fill="white" stroke="#666666" points="580,-129 490,-129 490,-110 580,-110 580,-129"/>
<text text-anchor="middle" x="535" y="-117" font-family="Helvetica,sans-Serif" font-size="10.00">301/CO_TIME.h</text>
</a>
</g>
</g>
<!-- Node1&#45;&gt;Node7 -->
<g id="edge38_Node000001_Node000007" class="edge">
<title>Node1&#45;&gt;Node7</title>
<g id="a_edge38_Node000001_Node000007"><a xlink:title=" ">
<path fill="none" stroke="#63b8ff" d="M663.38,-278.47C606.98,-272.86 535.35,-261.46 517,-239 490.14,-206.13 517.52,-150.4 529.75,-129.11"/>
<polygon fill="#63b8ff" stroke="#63b8ff" points="663.08,-281.95 673.36,-279.41 663.74,-274.98 663.08,-281.95"/>
</a>
</g>
</g>
<!-- Node10 -->
<g id="Node000010" class="node">
<title>Node10</title>
<g id="a_Node000010"><a xlink:href="CO__PDO_8h.html" target="_top" xlink:title="CANopen Process Data Object protocol.">
<polygon fill="white" stroke="#666666" points="723.5,-129 636.5,-129 636.5,-110 723.5,-110 723.5,-129"/>
<text text-anchor="middle" x="680" y="-117" font-family="Helvetica,sans-Serif" font-size="10.00">301/CO_PDO.h</text>
</a>
</g>
</g>
<!-- Node1&#45;&gt;Node10 -->
<g id="edge28_Node000001_Node000010" class="edge">
<title>Node1&#45;&gt;Node10</title>
<g id="a_edge28_Node000001_Node000010"><a xlink:title=" ">
<path fill="none" stroke="#63b8ff" d="M723.27,-266.65C709.81,-247.71 689.38,-215.47 681,-184 675.95,-165.04 677.44,-141.74 678.81,-129.31"/>
<polygon fill="#63b8ff" stroke="#63b8ff" points="720.51,-268.81 729.24,-274.82 726.16,-264.68 720.51,-268.81"/>
</a>
</g>
</g>
<!-- Node11 -->
<g id="Node000011" class="node">
<title>Node11</title>
<g id="a_Node000011"><a xlink:href="CO__SYNC_8h.html" target="_top" xlink:title="CANopen Synchronisation protocol.">
<polygon fill="white" stroke="#666666" points="782,-184 690,-184 690,-165 782,-165 782,-184"/>
<text text-anchor="middle" x="736" y="-172" font-family="Helvetica,sans-Serif" font-size="10.00">301/CO_SYNC.h</text>
</a>
</g>
</g>
<!-- Node1&#45;&gt;Node11 -->
<g id="edge37_Node000001_Node000011" class="edge">
<title>Node1&#45;&gt;Node11</title>
<g id="a_edge37_Node000001_Node000011"><a xlink:title=" ">
<path fill="none" stroke="#63b8ff" d="M736,-264.48C736,-240.84 736,-201.5 736,-184.16"/>
<polygon fill="#63b8ff" stroke="#63b8ff" points="732.5,-264.66 736,-274.66 739.5,-264.66 732.5,-264.66"/>
</a>
</g>
</g>
<!-- Node12 -->
<g id="Node000012" class="node">
<title>Node12</title>
<g id="a_Node000012"><a xlink:href="CO__SRDO_8h.html" target="_top" xlink:title="CANopen Safety Related Data Object protocol.">
<polygon fill="white" stroke="#666666" points="894,-184 800,-184 800,-165 894,-165 894,-184"/>
<text text-anchor="middle" x="847" y="-172" font-family="Helvetica,sans-Serif" font-size="10.00">304/CO_SRDO.h</text>
</a>
</g>
</g>
<!-- Node1&#45;&gt;Node12 -->
<g id="edge41_Node000001_Node000012" class="edge">
<title>Node1&#45;&gt;Node12</title>
<g id="a_edge41_Node000001_Node000012"><a xlink:title=" ">
<path fill="none" stroke="#63b8ff" d="M752.34,-267.61C776.12,-244.47 819.47,-202.29 838.1,-184.16"/>
<polygon fill="#63b8ff" stroke="#63b8ff" points="749.81,-265.18 745.08,-274.66 754.69,-270.2 749.81,-265.18"/>
</a>
</g>
</g>
<!-- Node13 -->
<g id="Node000013" class="node">
<title>Node13</title>
<g id="a_Node000013"><a xlink:href="CO__SDOclient_8h.html" target="_top" xlink:title="CANopen Service Data Object &#45; client protocol.">
<polygon fill="white" stroke="#666666" points="932,-129 818,-129 818,-110 932,-110 932,-129"/>
<text text-anchor="middle" x="875" y="-117" font-family="Helvetica,sans-Serif" font-size="10.00">301/CO_SDOclient.h</text>
</a>
</g>
</g>
<!-- Node1&#45;&gt;Node13 -->
<g id="edge29_Node000001_Node000013" class="edge">
<title>Node1&#45;&gt;Node13</title>
<g id="a_edge29_Node000001_Node000013"><a xlink:title=" ">
<path fill="none" stroke="#63b8ff" d="M777.72,-271.78C817.89,-258.02 876.35,-230.9 903,-184 913.6,-165.35 895.92,-141.94 884.16,-129.4"/>
<polygon fill="#63b8ff" stroke="#63b8ff" points="776.59,-268.46 768.18,-274.91 778.78,-275.11 776.59,-268.46"/>
</a>
</g>
</g>
<!-- Node14 -->
<g id="Node000014" class="node">
<title>Node14</title>
<g id="a_Node000014"><a xlink:href="CO__SDOserver_8h.html" target="_top" xlink:title="CANopen Service Data Object &#45; server protocol.">
<polygon fill="white" stroke="#666666" points="1106,-184 988,-184 988,-165 1106,-165 1106,-184"/>
<text text-anchor="middle" x="1047" y="-172" font-family="Helvetica,sans-Serif" font-size="10.00">301/CO_SDOserver.h</text>
</a>
</g>
</g>
<!-- Node1&#45;&gt;Node14 -->
<g id="edge32_Node000001_Node000014" class="edge">
<title>Node1&#45;&gt;Node14</title>
<g id="a_edge32_Node000001_Node000014"><a xlink:title=" ">
<path fill="none" stroke="#63b8ff" d="M808.86,-279.84C857.63,-275.05 922.15,-264.07 974,-239 1002.13,-225.4 1027.92,-198.04 1039.92,-184.1"/>
<polygon fill="#63b8ff" stroke="#63b8ff" points="808.34,-276.38 798.7,-280.78 808.97,-283.35 808.34,-276.38"/>
</a>
</g>
</g>
<!-- Node16 -->
<g id="Node000016" class="node">
<title>Node16</title>
<g id="a_Node000016"><a xlink:href="CO__GFC_8h.html" target="_top" xlink:title="CANopen Global fail&#45;safe command protocol.">
<polygon fill="white" stroke="#666666" points="1228,-74 1142,-74 1142,-55 1228,-55 1228,-74"/>
<text text-anchor="middle" x="1185" y="-62" font-family="Helvetica,sans-Serif" font-size="10.00">304/CO_GFC.h</text>
</a>
</g>
</g>
<!-- Node1&#45;&gt;Node16 -->
<g id="edge39_Node000001_Node000016" class="edge">
<title>Node1&#45;&gt;Node16</title>
<g id="a_edge39_Node000001_Node000016"><a xlink:title=" ">
<path fill="none" stroke="#63b8ff" d="M808.95,-277C863.16,-270.81 938.42,-259.32 1002,-239 1055.2,-221.99 1073.95,-221.87 1115,-184 1150.83,-150.95 1174.01,-95.32 1181.94,-74.09"/>
<polygon fill="#63b8ff" stroke="#63b8ff" points="808.29,-273.55 798.74,-278.13 809.06,-280.51 808.29,-273.55"/>
</a>
</g>
</g>
<!-- Node17 -->
<g id="Node000017" class="node">
<title>Node17</title>
<g id="a_Node000017"><a xlink:href="CO__storage_8h.html" target="_top" xlink:title="CANopen data storage base object.">
<polygon fill="white" stroke="#666666" points="1293,-239 1171,-239 1171,-220 1293,-220 1293,-239"/>
<text text-anchor="middle" x="1232" y="-227" font-family="Helvetica,sans-Serif" font-size="10.00">storage/CO_storage.h</text>
</a>
</g>
</g>
<!-- Node1&#45;&gt;Node17 -->
<g id="edge43_Node000001_Node000017" class="edge">
<title>Node1&#45;&gt;Node17</title>
<g id="a_edge43_Node000001_Node000017"><a xlink:title=" ">
<path fill="none" stroke="#63b8ff" d="M808.68,-275.73C906.59,-265.27 1079.14,-246.83 1170.79,-237.04"/>
<polygon fill="#63b8ff" stroke="#63b8ff" points="808.14,-272.27 798.57,-276.81 808.88,-279.23 808.14,-272.27"/>
</a>
</g>
</g>
<!-- Node2&#45;&gt;Node3 -->
<g id="edge2_Node000002_Node000003" class="edge">
<title>Node2&#45;&gt;Node3</title>
<g id="a_edge2_Node000002_Node000003"><a xlink:title=" ">
<path fill="none" stroke="#63b8ff" d="M516.43,-221.71C452.64,-214.76 355.78,-202.35 273,-184 204.69,-168.86 126.29,-142.56 87.82,-129.05"/>
<polygon fill="#63b8ff" stroke="#63b8ff" points="516.06,-225.19 526.38,-222.78 516.81,-218.23 516.06,-225.19"/>
</a>
</g>
</g>
<!-- Node2&#45;&gt;Node4 -->
<g id="edge24_Node000002_Node000004" class="edge">
<title>Node2&#45;&gt;Node4</title>
<g id="a_edge24_Node000002_Node000004"><a xlink:title=" ">
<path fill="none" stroke="#63b8ff" d="M591.67,-209.98C599.09,-186.4 612.94,-144.55 628,-110 643.11,-75.34 665.18,-36.07 674.99,-19.08"/>
<polygon fill="#63b8ff" stroke="#63b8ff" points="588.27,-209.13 588.65,-219.71 594.95,-211.2 588.27,-209.13"/>
</a>
</g>
</g>
<!-- Node2&#45;&gt;Node5 -->
<g id="edge4_Node000002_Node000005" class="edge">
<title>Node2&#45;&gt;Node5</title>
<g id="a_edge4_Node000002_Node000005"><a xlink:title=" ">
<path fill="none" stroke="#63b8ff" d="M545.47,-217.31C509.54,-207.39 457.84,-193.12 425.09,-184.08"/>
<polygon fill="#63b8ff" stroke="#63b8ff" points="544.58,-220.7 555.15,-219.98 546.44,-213.95 544.58,-220.7"/>
</a>
</g>
</g>
<!-- Node2&#45;&gt;Node6 -->
<g id="edge16_Node000002_Node000006" class="edge">
<title>Node2&#45;&gt;Node6</title>
<g id="a_edge16_Node000002_Node000006"><a xlink:title=" ">
<path fill="none" stroke="#63b8ff" d="M516.07,-225.21C459.61,-220.66 378.99,-209.82 313,-184 278.39,-170.46 243.39,-143.07 226.84,-129.11"/>
<polygon fill="#63b8ff" stroke="#63b8ff" points="516.09,-228.72 526.32,-225.99 516.62,-221.74 516.09,-228.72"/>
</a>
</g>
</g>
<!-- Node2&#45;&gt;Node10 -->
<g id="edge17_Node000002_Node000010" class="edge">
<title>Node2&#45;&gt;Node10</title>
<g id="a_edge17_Node000002_Node000010"><a xlink:title=" ">
<path fill="none" stroke="#63b8ff" d="M600.36,-212C620.61,-188.73 656.82,-147.13 672.46,-129.16"/>
<polygon fill="#63b8ff" stroke="#63b8ff" points="597.62,-209.82 593.69,-219.66 602.9,-214.42 597.62,-209.82"/>
</a>
</g>
</g>
<!-- Node2&#45;&gt;Node11 -->
<g id="edge19_Node000002_Node000011" class="edge">
<title>Node2&#45;&gt;Node11</title>
<g id="a_edge19_Node000002_Node000011"><a xlink:title=" ">
<path fill="none" stroke="#63b8ff" d="M619.82,-216.55C647.68,-206.71 686.51,-192.98 711.46,-184.17"/>
<polygon fill="#63b8ff" stroke="#63b8ff" points="618.36,-213.35 610.1,-219.98 620.69,-219.95 618.36,-213.35"/>
</a>
</g>
</g>
<!-- Node2&#45;&gt;Node12 -->
<g id="edge22_Node000002_Node000012" class="edge">
<title>Node2&#45;&gt;Node12</title>
<g id="a_edge22_Node000002_Node000012"><a xlink:title=" ">
<path fill="none" stroke="#63b8ff" d="M638,-217.94C686.92,-208.01 759.27,-193.31 804.74,-184.08"/>
<polygon fill="#63b8ff" stroke="#63b8ff" points="637.04,-214.56 627.93,-219.98 638.43,-221.42 637.04,-214.56"/>
</a>
</g>
</g>
<!-- Node3&#45;&gt;Node4 -->
<g id="edge3_Node000003_Node000004" class="edge">
<title>Node3&#45;&gt;Node4</title>
<g id="a_edge3_Node000003_Node000004"><a xlink:title=" ">
<path fill="none" stroke="#63b8ff" d="M95.6,-106.42C134.92,-91.89 204.43,-67.86 266,-55 404.17,-26.15 572.4,-15.42 644.47,-11.96"/>
<polygon fill="#63b8ff" stroke="#63b8ff" points="94.18,-103.21 86.04,-109.99 96.63,-109.77 94.18,-103.21"/>
</a>
</g>
</g>
<!-- Node5&#45;&gt;Node3 -->
<g id="edge5_Node000005_Node000003" class="edge">
<title>Node5&#45;&gt;Node3</title>
<g id="a_edge5_Node000005_Node000003"><a xlink:title=" ">
<path fill="none" stroke="#63b8ff" d="M330.94,-163.37C268.97,-153.42 175.47,-138.4 117.16,-129.04"/>
<polygon fill="#63b8ff" stroke="#63b8ff" points="330.55,-166.85 340.98,-164.98 331.66,-159.94 330.55,-166.85"/>
</a>
</g>
</g>
<!-- Node5&#45;&gt;Node4 -->
<g id="edge15_Node000005_Node000004" class="edge">
<title>Node5&#45;&gt;Node4</title>
<g id="a_edge15_Node000005_Node000004"><a xlink:title=" ">
<path fill="none" stroke="#63b8ff" d="M365.93,-159.84C354.1,-152.48 341.57,-142.18 335,-129 316.38,-91.64 382.78,-55.66 384,-55 428.39,-30.97 575.84,-17.79 644.39,-12.82"/>
<polygon fill="#63b8ff" stroke="#63b8ff" points="364.32,-162.95 374.73,-164.9 367.8,-156.88 364.32,-162.95"/>
</a>
</g>
</g>
<!-- Node5&#45;&gt;Node6 -->
<g id="edge6_Node000005_Node000006" class="edge">
<title>Node5&#45;&gt;Node6</title>
<g id="a_edge6_Node000005_Node000006"><a xlink:title=" ">
<path fill="none" stroke="#63b8ff" d="M355.78,-162.06C322.7,-152.15 275.59,-138.04 245.66,-129.08"/>
<polygon fill="#63b8ff" stroke="#63b8ff" points="354.98,-165.47 365.56,-164.98 356.99,-158.76 354.98,-165.47"/>
</a>
</g>
</g>
<!-- Node5&#45;&gt;Node7 -->
<g id="edge8_Node000005_Node000007" class="edge">
<title>Node5&#45;&gt;Node7</title>
<g id="a_edge8_Node000005_Node000007"><a xlink:title=" ">
<path fill="none" stroke="#63b8ff" d="M426.14,-161.42C452.29,-151.59 488.59,-137.95 511.93,-129.17"/>
<polygon fill="#63b8ff" stroke="#63b8ff" points="424.78,-158.19 416.65,-164.98 427.25,-164.74 424.78,-158.19"/>
</a>
</g>
</g>
<!-- Node8 -->
<g id="Node000008" class="node">
<title>Node8</title>
<g id="a_Node000008"><a xlink:href="CO__LEDs_8h.html" target="_top" xlink:title="CANopen Indicator specification (CiA 303&#45;3 v1.4.0)">
<polygon fill="white" stroke="#666666" points="434,-129 344,-129 344,-110 434,-110 434,-129"/>
<text text-anchor="middle" x="389" y="-117" font-family="Helvetica,sans-Serif" font-size="10.00">303/CO_LEDs.h</text>
</a>
</g>
</g>
<!-- Node5&#45;&gt;Node8 -->
<g id="edge10_Node000005_Node000008" class="edge">
<title>Node5&#45;&gt;Node8</title>
<g id="a_edge10_Node000005_Node000008"><a xlink:title=" ">
<path fill="none" stroke="#63b8ff" d="M392.22,-154.66C391.4,-145.93 390.46,-135.99 389.81,-129.09"/>
<polygon fill="#63b8ff" stroke="#63b8ff" points="388.75,-155.12 393.17,-164.75 395.72,-154.46 388.75,-155.12"/>
</a>
</g>
</g>
<!-- Node9 -->
<g id="Node000009" class="node">
<title>Node9</title>
<g id="a_Node000009"><a xlink:href="CO__gateway__ascii_8h.html" target="_top" xlink:title="CANopen access from other networks &#45; ASCII mapping (CiA 309&#45;3 DS v3.0.0)">
<polygon fill="white" stroke="#666666" points="542,-74 406,-74 406,-55 542,-55 542,-74"/>
<text text-anchor="middle" x="474" y="-62" font-family="Helvetica,sans-Serif" font-size="10.00">309/CO_gateway_ascii.h</text>
</a>
</g>
</g>
<!-- Node5&#45;&gt;Node9 -->
<g id="edge14_Node000005_Node000009" class="edge">
<title>Node5&#45;&gt;Node9</title>
<g id="a_edge14_Node000005_Node000009"><a xlink:title=" ">
<path fill="none" stroke="#63b8ff" d="M413.63,-158.64C423.32,-150.61 434.68,-140.09 443,-129 456.25,-111.34 466.2,-87.12 470.93,-74.3"/>
<polygon fill="#63b8ff" stroke="#63b8ff" points="411.29,-156.02 405.66,-165 415.66,-161.49 411.29,-156.02"/>
</a>
</g>
</g>
<!-- Node6&#45;&gt;Node4 -->
<g id="edge7_Node000006_Node000004" class="edge">
<title>Node6&#45;&gt;Node4</title>
<g id="a_edge7_Node000006_Node000004"><a xlink:title=" ">
<path fill="none" stroke="#63b8ff" d="M232.83,-102.56C248.79,-87.55 274.9,-65.81 302,-55 363.84,-30.34 562.52,-16.93 644.31,-12.34"/>
<polygon fill="#63b8ff" stroke="#63b8ff" points="230.2,-100.23 225.45,-109.7 235.07,-105.26 230.2,-100.23"/>
</a>
</g>
</g>
<!-- Node7&#45;&gt;Node4 -->
<g id="edge9_Node000007_Node000004" class="edge">
<title>Node7&#45;&gt;Node4</title>
<g id="a_edge9_Node000007_Node000004"><a xlink:title=" ">
<path fill="none" stroke="#63b8ff" d="M547.88,-101.69C559.02,-87.93 576.11,-68.59 594,-55 614.21,-39.64 640.5,-26.92 658.67,-19.07"/>
<polygon fill="#63b8ff" stroke="#63b8ff" points="544.92,-99.79 541.47,-109.8 550.42,-104.12 544.92,-99.79"/>
</a>
</g>
</g>
<!-- Node8&#45;&gt;Node4 -->
<g id="edge13_Node000008_Node000004" class="edge">
<title>Node8&#45;&gt;Node4</title>
<g id="a_edge13_Node000008_Node000004"><a xlink:title=" ">
<path fill="none" stroke="#63b8ff" d="M385.89,-99.62C384.7,-85.45 385.77,-66.58 397,-55 430.63,-20.32 576.16,-12.65 644.42,-10.97"/>
<polygon fill="#63b8ff" stroke="#63b8ff" points="382.44,-100.26 387.16,-109.74 389.38,-99.38 382.44,-100.26"/>
</a>
</g>
</g>
<!-- Node8&#45;&gt;Node9 -->
<g id="edge11_Node000008_Node000009" class="edge">
<title>Node8&#45;&gt;Node9</title>
<g id="a_edge11_Node000008_Node000009"><a xlink:title=" ">
<path fill="none" stroke="#63b8ff" d="M411.57,-104.42C427,-94.81 446.95,-82.37 460.09,-74.17"/>
<polygon fill="#63b8ff" stroke="#63b8ff" points="409.29,-101.72 402.66,-109.98 412.99,-107.66 409.29,-101.72"/>
</a>
</g>
</g>
<!-- Node9&#45;&gt;Node4 -->
<g id="edge12_Node000009_Node000004" class="edge">
<title>Node9&#45;&gt;Node4</title>
<g id="a_edge12_Node000009_Node000004"><a xlink:title=" ">
<path fill="none" stroke="#63b8ff" d="M517,-52.44C555.56,-42.52 611.36,-28.16 646.64,-19.08"/>
<polygon fill="#63b8ff" stroke="#63b8ff" points="515.91,-49.1 507.1,-54.98 517.65,-55.88 515.91,-49.1"/>
</a>
</g>
</g>
<!-- Node10&#45;&gt;Node4 -->
<g id="edge18_Node000010_Node000004" class="edge">
<title>Node10&#45;&gt;Node4</title>
<g id="a_edge18_Node000010_Node000004"><a xlink:title=" ">
<path fill="none" stroke="#63b8ff" d="M680,-99.48C680,-75.84 680,-36.5 680,-19.16"/>
<polygon fill="#63b8ff" stroke="#63b8ff" points="676.5,-99.66 680,-109.66 683.5,-99.66 676.5,-99.66"/>
</a>
</g>
</g>
<!-- Node11&#45;&gt;Node4 -->
<g id="edge21_Node000011_Node000004" class="edge">
<title>Node11&#45;&gt;Node4</title>
<g id="a_edge21_Node000011_Node000004"><a xlink:title=" ">
<path fill="none" stroke="#63b8ff" d="M737.26,-154.34C737.58,-141.56 736.99,-124.5 733,-110 723.04,-73.77 698.21,-35.91 686.41,-19.25"/>
<polygon fill="#63b8ff" stroke="#63b8ff" points="733.75,-154.53 736.78,-164.68 740.74,-154.85 733.75,-154.53"/>
</a>
</g>
</g>
<!-- Node11&#45;&gt;Node10 -->
<g id="edge20_Node000011_Node000010" class="edge">
<title>Node11&#45;&gt;Node10</title>
<g id="a_edge20_Node000011_Node000010"><a xlink:title=" ">
<path fill="none" stroke="#63b8ff" d="M719.67,-158.04C709.74,-148.64 697.41,-136.98 689.16,-129.17"/>
<polygon fill="#63b8ff" stroke="#63b8ff" points="717.33,-160.65 727,-164.98 722.15,-155.57 717.33,-160.65"/>
</a>
</g>
</g>
<!-- Node12&#45;&gt;Node4 -->
<g id="edge23_Node000012_Node000004" class="edge">
<title>Node12&#45;&gt;Node4</title>
<g id="a_edge23_Node000012_Node000004"><a xlink:title=" ">
<path fill="none" stroke="#63b8ff" d="M831.36,-157.57C808.77,-134.64 765.61,-91.14 728,-55 714.89,-42.4 699.42,-28.17 689.66,-19.27"/>
<polygon fill="#63b8ff" stroke="#63b8ff" points="828.94,-160.1 838.44,-164.77 833.93,-155.19 828.94,-160.1"/>
</a>
</g>
</g>
<!-- Node13&#45;&gt;Node4 -->
<g id="edge31_Node000013_Node000004" class="edge">
<title>Node13&#45;&gt;Node4</title>
<g id="a_edge31_Node000013_Node000004"><a xlink:title=" ">
<path fill="none" stroke="#63b8ff" d="M860.54,-102.45C847.08,-88.31 825.85,-68.01 804,-55 775.9,-38.26 740.5,-26.34 714.73,-19.07"/>
<polygon fill="#63b8ff" stroke="#63b8ff" points="858.14,-105.01 867.51,-109.95 863.27,-100.24 858.14,-105.01"/>
</a>
</g>
</g>
<!-- Node13&#45;&gt;Node9 -->
<g id="edge30_Node000013_Node000009" class="edge">
<title>Node13&#45;&gt;Node9</title>
<g id="a_edge30_Node000013_Node000009"><a xlink:title=" ">
<path fill="none" stroke="#63b8ff" d="M807.7,-109.61C732.7,-99.69 612.29,-83.78 538.46,-74.02"/>
<polygon fill="#63b8ff" stroke="#63b8ff" points="807.6,-113.12 817.97,-110.96 808.52,-106.18 807.6,-113.12"/>
</a>
</g>
</g>
<!-- Node14&#45;&gt;Node4 -->
<g id="edge34_Node000014_Node000004" class="edge">
<title>Node14&#45;&gt;Node4</title>
<g id="a_edge34_Node000014_Node000004"><a xlink:title=" ">
<path fill="none" stroke="#63b8ff" d="M1041.28,-155.18C1031.88,-128.41 1010.49,-79.14 974,-55 932.13,-27.3 784.17,-16 715.5,-12.17"/>
<polygon fill="#63b8ff" stroke="#63b8ff" points="1038.01,-156.46 1044.48,-164.85 1044.65,-154.25 1038.01,-156.46"/>
</a>
</g>
</g>
<!-- Node14&#45;&gt;Node13 -->
<g id="edge33_Node000014_Node000013" class="edge">
<title>Node14&#45;&gt;Node13</title>
<g id="a_edge33_Node000014_Node000013"><a xlink:title=" ">
<path fill="none" stroke="#63b8ff" d="M1009.44,-161.93C977.32,-152.03 931.81,-138.01 902.85,-129.08"/>
<polygon fill="#63b8ff" stroke="#63b8ff" points="1008.78,-165.38 1019.37,-164.98 1010.84,-158.69 1008.78,-165.38"/>
</a>
</g>
</g>
<!-- Node15 -->
<g id="Node000015" class="node">
<title>Node15</title>
<g id="a_Node000015"><a xlink:href="CO__trace_8h.html" target="_top" xlink:title="CANopen trace object for recording variables over time.">
<polygon fill="white" stroke="#666666" points="1124,-74 1026,-74 1026,-55 1124,-55 1124,-74"/>
<text text-anchor="middle" x="1075" y="-62" font-family="Helvetica,sans-Serif" font-size="10.00">extra/CO_trace.h</text>
</a>
</g>
</g>
<!-- Node14&#45;&gt;Node15 -->
<g id="edge35_Node000014_Node000015" class="edge">
<title>Node14&#45;&gt;Node15</title>
<g id="a_edge35_Node000014_Node000015"><a xlink:title=" ">
<path fill="none" stroke="#63b8ff" d="M1051.85,-154.8C1057.97,-131.2 1068.24,-91.58 1072.76,-74.16"/>
<polygon fill="#63b8ff" stroke="#63b8ff" points="1048.41,-154.1 1049.29,-164.66 1055.19,-155.86 1048.41,-154.1"/>
</a>
</g>
</g>
<!-- Node15&#45;&gt;Node4 -->
<g id="edge36_Node000015_Node000004" class="edge">
<title>Node15&#45;&gt;Node4</title>
<g id="a_edge36_Node000015_Node000004"><a xlink:title=" ">
<path fill="none" stroke="#63b8ff" d="M1015.82,-55.51C1014.54,-55.34 1013.26,-55.17 1012,-55 904.22,-40.51 776.75,-23.44 715.87,-15.3"/>
<polygon fill="#63b8ff" stroke="#63b8ff" points="1015.44,-58.99 1025.82,-56.86 1016.38,-52.06 1015.44,-58.99"/>
</a>
</g>
</g>
<!-- Node16&#45;&gt;Node4 -->
<g id="edge40_Node000016_Node000004" class="edge">
<title>Node16&#45;&gt;Node4</title>
<g id="a_edge40_Node000016_Node000004"><a xlink:title=" ">
<path fill="none" stroke="#63b8ff" d="M1131.79,-54.92C970.47,-34.11 790.61,-19.11 715.62,-13.22"/>
<polygon fill="#63b8ff" stroke="#63b8ff" points="1131.53,-58.42 1141.9,-56.24 1132.44,-51.48 1131.53,-58.42"/>
</a>
</g>
</g>
<!-- Node18 -->
<g id="Node000018" class="node">
<title>Node18</title>
<g id="a_Node000018"><a xlink:href="CO__storageEeprom_8h.html" target="_top" xlink:title="CANopen data storage object for storing data into block device (eeprom)">
<polygon fill="white" stroke="#666666" points="1320.5,-184 1161.5,-184 1161.5,-165 1320.5,-165 1320.5,-184"/>
<text text-anchor="middle" x="1241" y="-172" font-family="Helvetica,sans-Serif" font-size="10.00">storage/CO_storageEeprom.h</text>
</a>
</g>
</g>
<!-- Node17&#45;&gt;Node18 -->
<g id="edge44_Node000017_Node000018" class="edge">
<title>Node17&#45;&gt;Node18</title>
<g id="a_edge44_Node000017_Node000018"><a xlink:title=" ">
<path fill="none" stroke="#63b8ff" d="M1235.2,-209.66C1236.68,-200.93 1238.37,-190.99 1239.54,-184.09"/>
<polygon fill="#63b8ff" stroke="#63b8ff" points="1231.71,-209.3 1233.49,-219.75 1238.61,-210.48 1231.71,-209.3"/>
</a>
</g>
</g>
</g>
</svg>

<g id="navigator" transform="translate(0 0)" fill="#404254">
  <rect fill="#f2f5e9" fill-opacity="0.5" stroke="#606060" stroke-width=".5" x="0" y="0" width="60" height="60"/>
  <use id="zoomplus" xlink:href="#zoomPlus" x="17" y="9" onmousedown="handleZoom(evt,'in')"/>
  <use id="zoomminus" xlink:href="#zoomMin" x="42" y="9" onmousedown="handleZoom(evt,'out')"/>
  <use id="reset" xlink:href="#resetDef" x="30" y="36" onmousedown="handleReset()"/>
   <use id="arrowup" xlink:href="#arrowUp" x="0" y="0" onmousedown="handlePan(0,-1)"/>
  <use id="arrowright" xlink:href="#arrowRight" x="0" y="0" onmousedown="handlePan(1,0)"/>
  <use id="arrowdown" xlink:href="#arrowDown" x="0" y="0" onmousedown="handlePan(0,1)"/>
  <use id="arrowleft" xlink:href="#arrowLeft" x="0" y="0" onmousedown="handlePan(-1,0)"/>
</g>
<svg viewBox="0 0 15 15" width="100%" height="30px" preserveAspectRatio="xMaxYMin meet">
 <g id="arrow_out" transform="scale(0.3 0.3)">
  <a xlink:href="CO__ODinterface_8h__dep__incl_org.svg" target="_base">
   <rect id="button" ry="5" rx="5" y="6" x="6" height="38" width="38"
        fill="#f2f5e9" fill-opacity="0.5" stroke="#606060" stroke-width="1.0"/>
   <path id="arrow"
     d="M 11.500037,31.436501 C 11.940474,20.09759 22.043105,11.32322 32.158766,21.979434 L 37.068811,17.246167 C 37.068811,17.246167 37.088388,32 37.088388,32 L 22.160133,31.978069 C 22.160133,31.978069 26.997745,27.140456 26.997745,27.140456 C 18.528582,18.264221 13.291696,25.230495 11.500037,31.436501 z"
     style="fill:#404040;"/>
  </a>
 </g>
</svg>

<style type='text/css'>
<![CDATA[
[data-mouse-over-selected='false'] { opacity: 0.7; }
[data-mouse-over-selected='true']  { opacity: 1.0; }
]]>
</style>
<script type="application/ecmascript"><![CDATA[
document.addEventListener('DOMContentLoaded', (event) => {
  highlightEdges();
  highlightAdjacentNodes();
});
]]></script>
</svg>
