<?xml version="1.0" encoding="UTF-8" standalone="no"?>
<!DOCTYPE svg PUBLIC "-//W3C//DTD SVG 1.1//EN"
 "http://www.w3.org/Graphics/SVG/1.1/DTD/svg11.dtd">
<!-- Generated by graphviz version 2.43.0 (0)
 -->
<!-- Title: 301/CO_ODinterface.h Pages: 1 -->
<!--zoomable 308 -->
<svg id="main" version="1.1" xmlns="http://www.w3.org/2000/svg" xmlns:xlink="http://www.w3.org/1999/xlink" xml:space="preserve" onload="init(evt)">
<style type="text/css"><![CDATA[
.edge:hover path { stroke: red; }
.edge:hover polygon { stroke: red; fill: red; }
]]></style>
<script type="text/javascript"><![CDATA[
var edges = document.getElementsByTagName('g');
if (edges && edges.length) {
  for (var i=0;i<edges.length;i++) {
    if (edges[i].id.substr(0,4)=='edge') {
      edges[i].setAttribute('class','edge');
    }
  }
}
]]></script>
        <defs>
                <circle id="rim" cx="0" cy="0" r="7"/>
                <circle id="rim2" cx="0" cy="0" r="3.5"/>
                <g id="zoomPlus">
                        <use xlink:href="#rim" fill="#404040">
                                <set attributeName="fill" to="#808080" begin="zoomplus.mouseover" end="zoomplus.mouseout"/>
                        </use>
                        <path d="M-4,0h8M0,-4v8" fill="none" stroke="white" stroke-width="1.5" pointer-events="none"/>
                </g>
                <g id="zoomMin">
                        <use xlink:href="#rim" fill="#404040">
                                <set attributeName="fill" to="#808080" begin="zoomminus.mouseover" end="zoomminus.mouseout"/>
                        </use>
                        <path d="M-4,0h8" fill="none" stroke="white" stroke-width="1.5" pointer-events="none"/>
                </g>
                <g id="dirArrow">
                        <path fill="none" stroke="white" stroke-width="1.5" d="M0,-3.0v7 M-2.5,-0.5L0,-3.0L2.5,-0.5"/>
                </g>
               <g id="resetDef">
                       <use xlink:href="#rim2" fill="#404040">
                               <set attributeName="fill" to="#808080" begin="reset.mouseover" end="reset.mouseout"/>
                       </use>
               </g>
        </defs>

<script type="text/javascript">
var viewWidth = 1157;
var viewHeight = 308;
var sectionId = 'dynsection-1';
</script>
<script xlink:href="svgpan.js"/>
<svg id="graph" class="graph">
<g id="viewport">
<title>301/CO_ODinterface.h</title>
<polygon fill="white" stroke="transparent" points="-4,4 -4,-304 1152.5,-304 1152.5,4 -4,4"/>
<!-- Node1 -->
<g id="node1" class="node">
<title>Node1</title>
<g id="a_node1"><a xlink:title="CANopen Object Dictionary interface.">
<polygon fill="#bfbfbf" stroke="black" points="594.5,-280.5 594.5,-299.5 719.5,-299.5 719.5,-280.5 594.5,-280.5"/>
<text text-anchor="middle" x="657" y="-287.5" font-family="Helvetica,sans-Serif" font-size="10.00">301/CO_ODinterface.h</text>
</a>
</g>
</g>
<!-- Node2 -->
<g id="node2" class="node">
<title>Node2</title>
<g id="a_node2"><a xlink:href="CANopen_8h.html" target="_top" xlink:title="Main CANopenNode file.">
<polygon fill="white" stroke="black" points="505.5,-0.5 505.5,-19.5 576.5,-19.5 576.5,-0.5 505.5,-0.5"/>
<text text-anchor="middle" x="541" y="-7.5" font-family="Helvetica,sans-Serif" font-size="10.00">CANopen.h</text>
</a>
</g>
</g>
<!-- Node1&#45;&gt;Node2 -->
<g id="edge1" class="edge">
<title>Node1&#45;&gt;Node2</title>
<path fill="none" stroke="midnightblue" d="M723.76,-278.7C813.52,-262.94 962,-229.27 962,-179 962,-179 962,-179 962,-121 962,-41.58 678.03,-18.42 576.53,-12.67"/>
<polygon fill="midnightblue" stroke="midnightblue" points="722.91,-275.3 713.65,-280.45 724.1,-282.2 722.91,-275.3"/>
</g>
<!-- Node3 -->
<g id="node3" class="node">
<title>Node3</title>
<g id="a_node3"><a xlink:href="CO__NMT__Heartbeat_8h.html" target="_top" xlink:title="CANopen Network management and Heartbeat producer protocol.">
<polygon fill="white" stroke="black" points="392.5,-168.5 392.5,-187.5 535.5,-187.5 535.5,-168.5 392.5,-168.5"/>
<text text-anchor="middle" x="464" y="-175.5" font-family="Helvetica,sans-Serif" font-size="10.00">301/CO_NMT_Heartbeat.h</text>
</a>
</g>
</g>
<!-- Node1&#45;&gt;Node3 -->
<g id="edge2" class="edge">
<title>Node1&#45;&gt;Node3</title>
<path fill="none" stroke="midnightblue" d="M632.96,-275.3C592.62,-252.3 512.41,-206.59 479.07,-187.59"/>
<polygon fill="midnightblue" stroke="midnightblue" points="631.43,-278.46 641.86,-280.37 634.9,-272.38 631.43,-278.46"/>
</g>
<!-- Node4 -->
<g id="node4" class="node">
<title>Node4</title>
<g id="a_node4"><a xlink:href="CO__HBconsumer_8h.html" target="_top" xlink:title="CANopen Heartbeat consumer protocol.">
<polygon fill="white" stroke="black" points="108,-112.5 108,-131.5 236,-131.5 236,-112.5 108,-112.5"/>
<text text-anchor="middle" x="172" y="-119.5" font-family="Helvetica,sans-Serif" font-size="10.00">301/CO_HBconsumer.h</text>
</a>
</g>
</g>
<!-- Node1&#45;&gt;Node4 -->
<g id="edge26" class="edge">
<title>Node1&#45;&gt;Node4</title>
<path fill="none" stroke="midnightblue" d="M594.7,-278.65C553.4,-271 498.31,-259.27 451,-244 348,-210.76 231.05,-153.17 188.54,-131.54"/>
<polygon fill="midnightblue" stroke="midnightblue" points="594.15,-282.11 604.62,-280.46 595.41,-275.22 594.15,-282.11"/>
</g>
<!-- Node5 -->
<g id="node5" class="node">
<title>Node5</title>
<g id="a_node5"><a xlink:href="CO__TIME_8h.html" target="_top" xlink:title="CANopen Time&#45;stamp protocol.">
<polygon fill="white" stroke="black" points="0,-112.5 0,-131.5 90,-131.5 90,-112.5 0,-112.5"/>
<text text-anchor="middle" x="45" y="-119.5" font-family="Helvetica,sans-Serif" font-size="10.00">301/CO_TIME.h</text>
</a>
</g>
</g>
<!-- Node1&#45;&gt;Node5 -->
<g id="edge38" class="edge">
<title>Node1&#45;&gt;Node5</title>
<path fill="none" stroke="midnightblue" d="M584.17,-279.98C530.54,-272.53 456.11,-260.5 392,-244 265.34,-211.41 119.02,-153.42 65.75,-131.61"/>
<polygon fill="midnightblue" stroke="midnightblue" points="583.89,-283.47 594.27,-281.36 584.84,-276.54 583.89,-283.47"/>
</g>
<!-- Node10 -->
<g id="node10" class="node">
<title>Node10</title>
<g id="a_node10"><a xlink:href="CO__Emergency_8h.html" target="_top" xlink:title="CANopen Emergency protocol.">
<polygon fill="white" stroke="black" points="641.5,-224.5 641.5,-243.5 760.5,-243.5 760.5,-224.5 641.5,-224.5"/>
<text text-anchor="middle" x="701" y="-231.5" font-family="Helvetica,sans-Serif" font-size="10.00">301/CO_Emergency.h</text>
</a>
</g>
</g>
<!-- Node1&#45;&gt;Node10 -->
<g id="edge16" class="edge">
<title>Node1&#45;&gt;Node10</title>
<path fill="none" stroke="midnightblue" d="M670.73,-272.14C678.4,-262.74 687.63,-251.4 693.87,-243.75"/>
<polygon fill="midnightblue" stroke="midnightblue" points="667.87,-270.12 664.27,-280.08 673.3,-274.54 667.87,-270.12"/>
</g>
<!-- Node11 -->
<g id="node11" class="node">
<title>Node11</title>
<g id="a_node11"><a xlink:href="CO__SYNC_8h.html" target="_top" xlink:title="CANopen Synchronisation protocol.">
<polygon fill="white" stroke="black" points="842,-168.5 842,-187.5 934,-187.5 934,-168.5 842,-168.5"/>
<text text-anchor="middle" x="888" y="-175.5" font-family="Helvetica,sans-Serif" font-size="10.00">301/CO_SYNC.h</text>
</a>
</g>
</g>
<!-- Node1&#45;&gt;Node11 -->
<g id="edge36" class="edge">
<title>Node1&#45;&gt;Node11</title>
<path fill="none" stroke="midnightblue" d="M729.81,-279.26C761.6,-272.7 798.33,-261.84 828,-244 852.48,-229.28 873.06,-201.64 882.49,-187.62"/>
<polygon fill="midnightblue" stroke="midnightblue" points="728.81,-275.89 719.67,-281.24 730.16,-282.76 728.81,-275.89"/>
</g>
<!-- Node12 -->
<g id="node12" class="node">
<title>Node12</title>
<g id="a_node12"><a xlink:href="CO__PDO_8h.html" target="_top" xlink:title="CANopen Process Data Object protocol.">
<polygon fill="white" stroke="black" points="800.5,-112.5 800.5,-131.5 887.5,-131.5 887.5,-112.5 800.5,-112.5"/>
<text text-anchor="middle" x="844" y="-119.5" font-family="Helvetica,sans-Serif" font-size="10.00">301/CO_PDO.h</text>
</a>
</g>
</g>
<!-- Node1&#45;&gt;Node12 -->
<g id="edge37" class="edge">
<title>Node1&#45;&gt;Node12</title>
<path fill="none" stroke="midnightblue" d="M704.75,-277.47C726.41,-270.47 751.31,-259.76 770,-244 808.59,-211.46 832.83,-153.44 840.95,-131.62"/>
<polygon fill="midnightblue" stroke="midnightblue" points="703.6,-274.16 695.06,-280.43 705.64,-280.86 703.6,-274.16"/>
</g>
<!-- Node13 -->
<g id="node13" class="node">
<title>Node13</title>
<g id="a_node13"><a xlink:href="CO__SDOserver_8h.html" target="_top" xlink:title="CANopen Service Data Object &#45; server protocol.">
<polygon fill="white" stroke="black" points="554,-168.5 554,-187.5 672,-187.5 672,-168.5 554,-168.5"/>
<text text-anchor="middle" x="613" y="-175.5" font-family="Helvetica,sans-Serif" font-size="10.00">301/CO_SDOserver.h</text>
</a>
</g>
</g>
<!-- Node1&#45;&gt;Node13 -->
<g id="edge27" class="edge">
<title>Node1&#45;&gt;Node13</title>
<path fill="none" stroke="midnightblue" d="M646.21,-271.71C641.41,-263.53 635.96,-253.48 632,-244 623.84,-224.47 617.76,-200.27 614.87,-187.62"/>
<polygon fill="midnightblue" stroke="midnightblue" points="643.25,-273.58 651.42,-280.33 649.24,-269.96 643.25,-273.58"/>
</g>
<!-- Node14 -->
<g id="node14" class="node">
<title>Node14</title>
<g id="a_node14"><a xlink:href="CO__SDOclient_8h.html" target="_top" xlink:title="CANopen Service Data Object &#45; client protocol.">
<polygon fill="white" stroke="black" points="254,-112.5 254,-131.5 368,-131.5 368,-112.5 254,-112.5"/>
<text text-anchor="middle" x="311" y="-119.5" font-family="Helvetica,sans-Serif" font-size="10.00">301/CO_SDOclient.h</text>
</a>
</g>
</g>
<!-- Node1&#45;&gt;Node14 -->
<g id="edge35" class="edge">
<title>Node1&#45;&gt;Node14</title>
<path fill="none" stroke="midnightblue" d="M611.19,-277.88C554.77,-262.93 457.29,-232.91 383,-188 356.48,-171.97 330.89,-145.4 318.59,-131.73"/>
<polygon fill="midnightblue" stroke="midnightblue" points="610.34,-281.28 620.9,-280.41 612.1,-274.5 610.34,-281.28"/>
</g>
<!-- Node16 -->
<g id="node16" class="node">
<title>Node16</title>
<g id="a_node16"><a xlink:href="CO__storage_8h.html" target="_top" xlink:title="CANopen data storage base object.">
<polygon fill="white" stroke="black" points="999,-224.5 999,-243.5 1121,-243.5 1121,-224.5 999,-224.5"/>
<text text-anchor="middle" x="1060" y="-231.5" font-family="Helvetica,sans-Serif" font-size="10.00">storage/CO_storage.h</text>
</a>
</g>
</g>
<!-- Node1&#45;&gt;Node16 -->
<g id="edge39" class="edge">
<title>Node1&#45;&gt;Node16</title>
<path fill="none" stroke="midnightblue" d="M729.62,-279.27C806.58,-268.96 926.75,-252.86 998.98,-243.18"/>
<polygon fill="midnightblue" stroke="midnightblue" points="728.97,-275.82 719.53,-280.62 729.9,-282.76 728.97,-275.82"/>
</g>
<!-- Node3&#45;&gt;Node2 -->
<g id="edge3" class="edge">
<title>Node3&#45;&gt;Node2</title>
<path fill="none" stroke="midnightblue" d="M491.83,-163.27C503.74,-155.81 516.4,-145.34 523,-132 526.94,-124.03 526.62,-120.12 523,-112 513.27,-90.15 492.73,-97.85 483,-76 479.38,-67.88 479.09,-63.98 483,-56 491.19,-39.29 508.9,-27 522.61,-19.53"/>
<polygon fill="midnightblue" stroke="midnightblue" points="489.88,-160.36 482.98,-168.4 493.39,-166.41 489.88,-160.36"/>
</g>
<!-- Node3&#45;&gt;Node4 -->
<g id="edge4" class="edge">
<title>Node3&#45;&gt;Node4</title>
<path fill="none" stroke="midnightblue" d="M407.77,-166.6C352.58,-156.4 269.44,-141.02 218.05,-131.52"/>
<polygon fill="midnightblue" stroke="midnightblue" points="407.26,-170.07 417.73,-168.44 408.53,-163.18 407.26,-170.07"/>
</g>
<!-- Node3&#45;&gt;Node5 -->
<g id="edge6" class="edge">
<title>Node3&#45;&gt;Node5</title>
<path fill="none" stroke="midnightblue" d="M382,-167.9C307.94,-159.44 196.01,-146.06 99,-132 96.08,-131.58 93.08,-131.13 90.06,-130.66"/>
<polygon fill="midnightblue" stroke="midnightblue" points="381.87,-171.41 392.2,-169.06 382.66,-164.45 381.87,-171.41"/>
</g>
<!-- Node6 -->
<g id="node6" class="node">
<title>Node6</title>
<g id="a_node6"><a xlink:href="CO__LEDs_8h.html" target="_top" xlink:title="CANopen Indicator specification (CiA 303&#45;3 v1.4.0)">
<polygon fill="white" stroke="black" points="424,-112.5 424,-131.5 514,-131.5 514,-112.5 424,-112.5"/>
<text text-anchor="middle" x="469" y="-119.5" font-family="Helvetica,sans-Serif" font-size="10.00">303/CO_LEDs.h</text>
</a>
</g>
</g>
<!-- Node3&#45;&gt;Node6 -->
<g id="edge8" class="edge">
<title>Node3&#45;&gt;Node6</title>
<path fill="none" stroke="midnightblue" d="M465.75,-158.1C466.58,-149.14 467.53,-138.86 468.19,-131.75"/>
<polygon fill="midnightblue" stroke="midnightblue" points="462.26,-157.8 464.83,-168.08 469.23,-158.45 462.26,-157.8"/>
</g>
<!-- Node7 -->
<g id="node7" class="node">
<title>Node7</title>
<g id="a_node7"><a xlink:href="CO__gateway__ascii_8h.html" target="_top" xlink:title="CANopen access from other networks &#45; ASCII mapping (CiA 309&#45;3 DS v3.0.0)">
<polygon fill="white" stroke="black" points="262,-56.5 262,-75.5 398,-75.5 398,-56.5 262,-56.5"/>
<text text-anchor="middle" x="330" y="-63.5" font-family="Helvetica,sans-Serif" font-size="10.00">309/CO_gateway_ascii.h</text>
</a>
</g>
</g>
<!-- Node3&#45;&gt;Node7 -->
<g id="edge15" class="edge">
<title>Node3&#45;&gt;Node7</title>
<path fill="none" stroke="midnightblue" d="M445.5,-161.82C416.96,-138.39 363.12,-94.19 340.47,-75.59"/>
<polygon fill="midnightblue" stroke="midnightblue" points="443.54,-164.73 453.49,-168.37 447.98,-159.32 443.54,-164.73"/>
</g>
<!-- Node8 -->
<g id="node8" class="node">
<title>Node8</title>
<g id="a_node8"><a xlink:href="CO__SRDO_8h.html" target="_top" xlink:title="CANopen Safety Related Data Object protocol.">
<polygon fill="white" stroke="black" points="608,-112.5 608,-131.5 702,-131.5 702,-112.5 608,-112.5"/>
<text text-anchor="middle" x="655" y="-119.5" font-family="Helvetica,sans-Serif" font-size="10.00">304/CO_SRDO.h</text>
</a>
</g>
</g>
<!-- Node3&#45;&gt;Node8 -->
<g id="edge12" class="edge">
<title>Node3&#45;&gt;Node8</title>
<path fill="none" stroke="midnightblue" d="M503.97,-165.7C540.02,-155.51 592.24,-140.74 624.88,-131.52"/>
<polygon fill="midnightblue" stroke="midnightblue" points="502.94,-162.35 494.26,-168.44 504.84,-169.09 502.94,-162.35"/>
</g>
<!-- Node4&#45;&gt;Node2 -->
<g id="edge5" class="edge">
<title>Node4&#45;&gt;Node2</title>
<path fill="none" stroke="midnightblue" d="M185.51,-104.42C198.91,-89.19 220.9,-67.32 245,-56 332.04,-15.11 447.86,-9.82 505.41,-10.03"/>
<polygon fill="midnightblue" stroke="midnightblue" points="182.8,-102.2 178.98,-112.09 188.13,-106.74 182.8,-102.2"/>
</g>
<!-- Node5&#45;&gt;Node2 -->
<g id="edge7" class="edge">
<title>Node5&#45;&gt;Node2</title>
<path fill="none" stroke="midnightblue" d="M72.37,-108.04C104.92,-93.17 161.23,-69.16 212,-56 316.64,-28.88 444.49,-17.35 505.41,-13.12"/>
<polygon fill="midnightblue" stroke="midnightblue" points="70.68,-104.96 63.07,-112.33 73.61,-111.32 70.68,-104.96"/>
</g>
<!-- Node6&#45;&gt;Node2 -->
<g id="edge9" class="edge">
<title>Node6&#45;&gt;Node2</title>
<path fill="none" stroke="midnightblue" d="M456.79,-103.91C448.59,-90.16 440.83,-70.77 450,-56 462.09,-36.54 485.37,-25.24 505.35,-18.83"/>
<polygon fill="midnightblue" stroke="midnightblue" points="453.93,-105.94 462.33,-112.4 459.79,-102.12 453.93,-105.94"/>
</g>
<!-- Node6&#45;&gt;Node7 -->
<g id="edge10" class="edge">
<title>Node6&#45;&gt;Node7</title>
<path fill="none" stroke="midnightblue" d="M437.52,-108.77C411.41,-98.63 374.96,-84.47 351.92,-75.52"/>
<polygon fill="midnightblue" stroke="midnightblue" points="436.39,-112.08 446.98,-112.44 438.92,-105.56 436.39,-112.08"/>
</g>
<!-- Node7&#45;&gt;Node2 -->
<g id="edge11" class="edge">
<title>Node7&#45;&gt;Node2</title>
<path fill="none" stroke="midnightblue" d="M373.14,-53.96C412.99,-43.76 471.36,-28.82 507.72,-19.52"/>
<polygon fill="midnightblue" stroke="midnightblue" points="372.25,-50.57 363.43,-56.44 373.99,-57.35 372.25,-50.57"/>
</g>
<!-- Node8&#45;&gt;Node2 -->
<g id="edge13" class="edge">
<title>Node8&#45;&gt;Node2</title>
<path fill="none" stroke="midnightblue" d="M641.97,-104.07C631.13,-90.45 614.95,-71.15 599,-56 584.4,-42.13 565.73,-28.24 553.57,-19.64"/>
<polygon fill="midnightblue" stroke="midnightblue" points="639.34,-106.39 648.26,-112.1 644.85,-102.07 639.34,-106.39"/>
</g>
<!-- Node9 -->
<g id="node9" class="node">
<title>Node9</title>
<g id="a_node9"><a xlink:href="CO__SRDO_8c.html" target="_top" xlink:title="CANopen Safety Related Data Object protocol.">
<polygon fill="white" stroke="black" points="646.5,-56.5 646.5,-75.5 739.5,-75.5 739.5,-56.5 646.5,-56.5"/>
<text text-anchor="middle" x="693" y="-63.5" font-family="Helvetica,sans-Serif" font-size="10.00">304/CO_SRDO.c</text>
</a>
</g>
</g>
<!-- Node8&#45;&gt;Node9 -->
<g id="edge14" class="edge">
<title>Node8&#45;&gt;Node9</title>
<path fill="none" stroke="midnightblue" d="M667.06,-103.86C673.64,-94.5 681.51,-83.33 686.84,-75.75"/>
<polygon fill="midnightblue" stroke="midnightblue" points="664.17,-101.89 661.27,-112.08 669.89,-105.92 664.17,-101.89"/>
</g>
<!-- Node10&#45;&gt;Node2 -->
<g id="edge19" class="edge">
<title>Node10&#45;&gt;Node2</title>
<path fill="none" stroke="midnightblue" d="M716.73,-216.76C747.2,-183.33 807.85,-105.78 767,-56 743.34,-27.16 634.21,-16.46 576.69,-12.77"/>
<polygon fill="midnightblue" stroke="midnightblue" points="713.98,-214.57 709.71,-224.27 719.1,-219.35 713.98,-214.57"/>
</g>
<!-- Node10&#45;&gt;Node3 -->
<g id="edge17" class="edge">
<title>Node10&#45;&gt;Node3</title>
<path fill="none" stroke="midnightblue" d="M653.68,-222.22C608.89,-212.01 542.56,-196.9 501.38,-187.52"/>
<polygon fill="midnightblue" stroke="midnightblue" points="652.92,-225.63 663.45,-224.44 654.47,-218.81 652.92,-225.63"/>
</g>
<!-- Node10&#45;&gt;Node4 -->
<g id="edge18" class="edge">
<title>Node10&#45;&gt;Node4</title>
<path fill="none" stroke="midnightblue" d="M631.2,-226.34C566.38,-219.39 467.46,-206.86 383,-188 313.61,-172.5 233.99,-145.34 195.4,-131.55"/>
<polygon fill="midnightblue" stroke="midnightblue" points="630.99,-229.83 641.3,-227.4 631.72,-222.87 630.99,-229.83"/>
</g>
<!-- Node10&#45;&gt;Node8 -->
<g id="edge25" class="edge">
<title>Node10&#45;&gt;Node8</title>
<path fill="none" stroke="midnightblue" d="M696.52,-214.57C693.02,-201.33 687.64,-183.22 681,-168 675.23,-154.77 666.52,-140.5 660.79,-131.66"/>
<polygon fill="midnightblue" stroke="midnightblue" points="693.15,-215.53 699,-224.37 699.94,-213.81 693.15,-215.53"/>
</g>
<!-- Node10&#45;&gt;Node11 -->
<g id="edge20" class="edge">
<title>Node10&#45;&gt;Node11</title>
<path fill="none" stroke="midnightblue" d="M740.59,-221.57C775.87,-211.38 826.69,-196.7 858.51,-187.52"/>
<polygon fill="midnightblue" stroke="midnightblue" points="739.27,-218.31 730.63,-224.44 741.21,-225.03 739.27,-218.31"/>
</g>
<!-- Node10&#45;&gt;Node12 -->
<g id="edge24" class="edge">
<title>Node10&#45;&gt;Node12</title>
<path fill="none" stroke="midnightblue" d="M720.35,-218.12C750.7,-194.77 808.55,-150.27 832.83,-131.59"/>
<polygon fill="midnightblue" stroke="midnightblue" points="718.01,-215.5 712.22,-224.37 722.28,-221.05 718.01,-215.5"/>
</g>
<!-- Node11&#45;&gt;Node2 -->
<g id="edge21" class="edge">
<title>Node11&#45;&gt;Node2</title>
<path fill="none" stroke="midnightblue" d="M895.44,-158.71C899.74,-145.32 903.19,-126.95 897,-112 883.53,-79.48 872.43,-71.85 841,-56 795.27,-32.93 645.85,-18.94 576.7,-13.55"/>
<polygon fill="midnightblue" stroke="midnightblue" points="892.11,-157.63 891.98,-168.22 898.69,-160.02 892.11,-157.63"/>
</g>
<!-- Node11&#45;&gt;Node12 -->
<g id="edge22" class="edge">
<title>Node11&#45;&gt;Node12</title>
<path fill="none" stroke="midnightblue" d="M874.27,-160.14C866.6,-150.74 857.37,-139.4 851.13,-131.75"/>
<polygon fill="midnightblue" stroke="midnightblue" points="871.7,-162.54 880.73,-168.08 877.13,-158.12 871.7,-162.54"/>
</g>
<!-- Node12&#45;&gt;Node2 -->
<g id="edge23" class="edge">
<title>Node12&#45;&gt;Node2</title>
<path fill="none" stroke="midnightblue" d="M842.14,-102.16C839.64,-87.33 833.77,-67.33 820,-56 783.44,-25.92 643.43,-15.62 576.73,-12.37"/>
<polygon fill="midnightblue" stroke="midnightblue" points="838.7,-102.81 843.47,-112.27 845.64,-101.9 838.7,-102.81"/>
</g>
<!-- Node13&#45;&gt;Node2 -->
<g id="edge28" class="edge">
<title>Node13&#45;&gt;Node2</title>
<path fill="none" stroke="midnightblue" d="M646.99,-164.76C698.27,-144.46 785.73,-101.52 749,-56 727.77,-29.69 630.61,-18 576.92,-13.47"/>
<polygon fill="midnightblue" stroke="midnightblue" points="645.64,-161.54 637.57,-168.4 648.16,-168.07 645.64,-161.54"/>
</g>
<!-- Node13&#45;&gt;Node8 -->
<g id="edge32" class="edge">
<title>Node13&#45;&gt;Node8</title>
<path fill="none" stroke="midnightblue" d="M626.11,-160.14C633.43,-150.74 642.24,-139.4 648.19,-131.75"/>
<polygon fill="midnightblue" stroke="midnightblue" points="623.31,-158.04 619.94,-168.08 628.84,-162.34 623.31,-158.04"/>
</g>
<!-- Node13&#45;&gt;Node14 -->
<g id="edge29" class="edge">
<title>Node13&#45;&gt;Node14</title>
<path fill="none" stroke="midnightblue" d="M555.2,-166.66C498.12,-156.46 411.88,-141.04 358.63,-131.52"/>
<polygon fill="midnightblue" stroke="midnightblue" points="554.69,-170.13 565.15,-168.44 555.92,-163.24 554.69,-170.13"/>
</g>
<!-- Node15 -->
<g id="node15" class="node">
<title>Node15</title>
<g id="a_node15"><a xlink:href="CO__trace_8h.html" target="_top" xlink:title="CANopen trace object for recording variables over time.">
<polygon fill="white" stroke="black" points="492,-56.5 492,-75.5 590,-75.5 590,-56.5 492,-56.5"/>
<text text-anchor="middle" x="541" y="-63.5" font-family="Helvetica,sans-Serif" font-size="10.00">extra/CO_trace.h</text>
</a>
</g>
</g>
<!-- Node13&#45;&gt;Node15 -->
<g id="edge33" class="edge">
<title>Node13&#45;&gt;Node15</title>
<path fill="none" stroke="midnightblue" d="M601.84,-159.96C586.24,-136.12 558.48,-93.71 546.62,-75.59"/>
<polygon fill="midnightblue" stroke="midnightblue" points="598.95,-161.92 607.35,-168.37 604.8,-158.08 598.95,-161.92"/>
</g>
<!-- Node14&#45;&gt;Node2 -->
<g id="edge30" class="edge">
<title>Node14&#45;&gt;Node2</title>
<path fill="none" stroke="midnightblue" d="M284.9,-107.53C262.98,-94.48 237.53,-74.08 253,-56 285.12,-18.47 435.78,-12.01 505.47,-11.06"/>
<polygon fill="midnightblue" stroke="midnightblue" points="283.21,-110.6 293.64,-112.48 286.66,-104.51 283.21,-110.6"/>
</g>
<!-- Node14&#45;&gt;Node7 -->
<g id="edge31" class="edge">
<title>Node14&#45;&gt;Node7</title>
<path fill="none" stroke="midnightblue" d="M317.55,-102.4C320.72,-93.36 324.39,-82.94 326.92,-75.75"/>
<polygon fill="midnightblue" stroke="midnightblue" points="314.15,-101.49 314.14,-112.08 320.76,-103.81 314.15,-101.49"/>
</g>
<!-- Node15&#45;&gt;Node2 -->
<g id="edge34" class="edge">
<title>Node15&#45;&gt;Node2</title>
<path fill="none" stroke="midnightblue" d="M541,-45.8C541,-36.91 541,-26.78 541,-19.75"/>
<polygon fill="midnightblue" stroke="midnightblue" points="537.5,-46.08 541,-56.08 544.5,-46.08 537.5,-46.08"/>
</g>
<!-- Node17 -->
<g id="node17" class="node">
<title>Node17</title>
<g id="a_node17"><a xlink:href="CO__storageEeprom_8h.html" target="_top" xlink:title="CANopen data storage object for storing data into block device (eeprom)">
<polygon fill="white" stroke="black" points="989.5,-168.5 989.5,-187.5 1148.5,-187.5 1148.5,-168.5 989.5,-168.5"/>
<text text-anchor="middle" x="1069" y="-175.5" font-family="Helvetica,sans-Serif" font-size="10.00">storage/CO_storageEeprom.h</text>
</a>
</g>
</g>
<!-- Node16&#45;&gt;Node17 -->
<g id="edge40" class="edge">
<title>Node16&#45;&gt;Node17</title>
<path fill="none" stroke="midnightblue" d="M1063.15,-214.1C1064.64,-205.14 1066.36,-194.86 1067.54,-187.75"/>
<polygon fill="midnightblue" stroke="midnightblue" points="1059.68,-213.64 1061.49,-224.08 1066.58,-214.79 1059.68,-213.64"/>
</g>
</g>
</svg>
        <g id="navigator" transform="translate(0 0)" fill="#404254">
                <rect fill="#f2f5e9" fill-opacity="0.5" stroke="#606060" stroke-width=".5" x="0" y="0" width="60" height="60"/>
                <use id="zoomplus" xlink:href="#zoomPlus" x="17" y="9" onmousedown="handleZoom(evt,'in')"/>
                <use id="zoomminus" xlink:href="#zoomMin" x="42" y="9" onmousedown="handleZoom(evt,'out')"/>
                <use id="reset" xlink:href="#resetDef" x="30" y="36" onmousedown="handleReset()"/>
                <g id="arrowUp" xlink:href="#dirArrow" transform="translate(30 24)" onmousedown="handlePan(0,-1)">
                  <use xlink:href="#rim" fill="#404040">
                        <set attributeName="fill" to="#808080" begin="arrowUp.mouseover" end="arrowUp.mouseout"/>
                  </use>
                  <path fill="none" stroke="white" stroke-width="1.5" d="M0,-3.0v7 M-2.5,-0.5L0,-3.0L2.5,-0.5"/>
                </g>
                <g id="arrowRight" xlink:href="#dirArrow" transform="rotate(90) translate(36 -43)" onmousedown="handlePan(1,0)">
                  <use xlink:href="#rim" fill="#404040">
                        <set attributeName="fill" to="#808080" begin="arrowRight.mouseover" end="arrowRight.mouseout"/>
                  </use>
                  <path fill="none" stroke="white" stroke-width="1.5" d="M0,-3.0v7 M-2.5,-0.5L0,-3.0L2.5,-0.5"/>
                </g>
                <g id="arrowDown" xlink:href="#dirArrow" transform="rotate(180) translate(-30 -48)" onmousedown="handlePan(0,1)">
                  <use xlink:href="#rim" fill="#404040">
                        <set attributeName="fill" to="#808080" begin="arrowDown.mouseover" end="arrowDown.mouseout"/>
                  </use>
                  <path fill="none" stroke="white" stroke-width="1.5" d="M0,-3.0v7 M-2.5,-0.5L0,-3.0L2.5,-0.5"/>
                </g>
                <g id="arrowLeft" xlink:href="#dirArrow" transform="rotate(270) translate(-36 17)" onmousedown="handlePan(-1,0)">
                  <use xlink:href="#rim" fill="#404040">
                        <set attributeName="fill" to="#808080" begin="arrowLeft.mouseover" end="arrowLeft.mouseout"/>
                  </use>
                  <path fill="none" stroke="white" stroke-width="1.5" d="M0,-3.0v7 M-2.5,-0.5L0,-3.0L2.5,-0.5"/>
                </g>
        </g>
        <svg viewBox="0 0 15 15" width="100%" height="30px" preserveAspectRatio="xMaxYMin meet">
         <g id="arrow_out" transform="scale(0.3 0.3)">
          <a xlink:href="CO__ODinterface_8h__dep__incl_org.svg" target="_base">
           <rect id="button" ry="5" rx="5" y="6" x="6" height="38" width="38"
                fill="#f2f5e9" fill-opacity="0.5" stroke="#606060" stroke-width="1.0"/>
           <path id="arrow"
             d="M 11.500037,31.436501 C 11.940474,20.09759 22.043105,11.32322 32.158766,21.979434 L 37.068811,17.246167 C 37.068811,17.246167 37.088388,32 37.088388,32 L 22.160133,31.978069 C 22.160133,31.978069 26.997745,27.140456 26.997745,27.140456 C 18.528582,18.264221 13.291696,25.230495 11.500037,31.436501 z"
             style="fill:#404040;"/>
          </a>
         </g>
        </svg>
</svg>
