<?xml version="1.0" encoding="UTF-8" standalone="no"?>
<!DOCTYPE svg PUBLIC "-//W3C//DTD SVG 1.1//EN"
 "http://www.w3.org/Graphics/SVG/1.1/DTD/svg11.dtd">
<!-- Generated by graphviz version 2.43.0 (0)
 -->
<!-- Title: 305/CO_LSSmaster.h Pages: 1 -->
<svg width="183pt" height="140pt"
 viewBox="0.00 0.00 183.00 140.00" xmlns="http://www.w3.org/2000/svg" xmlns:xlink="http://www.w3.org/1999/xlink">
<g id="graph0" class="graph" transform="scale(1 1) rotate(0) translate(4 136)">
<title>305/CO_LSSmaster.h</title>
<polygon fill="white" stroke="transparent" points="-4,4 -4,-136 179,-136 179,4 -4,4"/>
<!-- Node1 -->
<g id="node1" class="node">
<title>Node1</title>
<g id="a_node1"><a xlink:title="CANopen Layer Setting Service &#45; master protocol.">
<polygon fill="#bfbfbf" stroke="black" points="0,-112.5 0,-131.5 118,-131.5 118,-112.5 0,-112.5"/>
<text text-anchor="middle" x="59" y="-119.5" font-family="Helvetica,sans-Serif" font-size="10.00">305/CO_LSSmaster.h</text>
</a>
</g>
</g>
<!-- Node2 -->
<g id="node2" class="node">
<title>Node2</title>
<g id="a_node2"><a xlink:href="CANopen_8h.html" target="_top" xlink:title="Main CANopenNode file.">
<polygon fill="white" stroke="black" points="23.5,-0.5 23.5,-19.5 94.5,-19.5 94.5,-0.5 23.5,-0.5"/>
<text text-anchor="middle" x="59" y="-7.5" font-family="Helvetica,sans-Serif" font-size="10.00">CANopen.h</text>
</a>
</g>
</g>
<!-- Node1&#45;&gt;Node2 -->
<g id="edge1" class="edge">
<title>Node1&#45;&gt;Node2</title>
<path fill="none" stroke="midnightblue" d="M44.44,-104.53C34.87,-91.66 24.95,-73.14 30,-56 34.15,-41.91 44.22,-28.07 51.33,-19.54"/>
<polygon fill="midnightblue" stroke="midnightblue" points="41.83,-106.87 50.83,-112.45 47.28,-102.47 41.83,-106.87"/>
</g>
<!-- Node3 -->
<g id="node3" class="node">
<title>Node3</title>
<g id="a_node3"><a xlink:href="CO__gateway__ascii_8h.html" target="_top" xlink:title="CANopen access from other networks &#45; ASCII mapping (CiA 309&#45;3 DS v3.0.0)">
<polygon fill="white" stroke="black" points="39,-56.5 39,-75.5 175,-75.5 175,-56.5 39,-56.5"/>
<text text-anchor="middle" x="107" y="-63.5" font-family="Helvetica,sans-Serif" font-size="10.00">309/CO_gateway_ascii.h</text>
</a>
</g>
</g>
<!-- Node1&#45;&gt;Node3 -->
<g id="edge2" class="edge">
<title>Node1&#45;&gt;Node3</title>
<path fill="none" stroke="midnightblue" d="M73.73,-104.43C82.14,-94.97 92.35,-83.48 99.22,-75.75"/>
<polygon fill="midnightblue" stroke="midnightblue" points="70.95,-102.28 66.93,-112.08 76.19,-106.93 70.95,-102.28"/>
</g>
<!-- Node3&#45;&gt;Node2 -->
<g id="edge3" class="edge">
<title>Node3&#45;&gt;Node2</title>
<path fill="none" stroke="midnightblue" d="M92.27,-48.43C83.86,-38.97 73.65,-27.48 66.78,-19.75"/>
<polygon fill="midnightblue" stroke="midnightblue" points="89.81,-50.93 99.07,-56.08 95.05,-46.28 89.81,-50.93"/>
</g>
</g>
</svg>
