<?xml version="1.0" encoding="UTF-8" standalone="no"?>
<!DOCTYPE svg PUBLIC "-//W3C//DTD SVG 1.1//EN"
 "http://www.w3.org/Graphics/SVG/1.1/DTD/svg11.dtd">
<!-- Generated by graphviz version 2.43.0 (0)
 -->
<!-- Title: 301/CO_PDO.h Pages: 1 -->
<svg width="320pt" height="302pt"
 viewBox="0.00 0.00 319.50 302.00" xmlns="http://www.w3.org/2000/svg" xmlns:xlink="http://www.w3.org/1999/xlink">
<g id="graph0" class="graph" transform="scale(1 1) rotate(0) translate(4 298)">
<title>301/CO_PDO.h</title>
<!-- Node1 -->
<g id="Node000001" class="node">
<title>Node1</title>
<g id="a_Node000001"><a xlink:title="CANopen Process Data Object protocol.">
<polygon fill="#999999" stroke="#666666" points="191,-294 104,-294 104,-275 191,-275 191,-294"/>
<text text-anchor="middle" x="147.5" y="-282" font-family="Helvetica,sans-Serif" font-size="10.00">301/CO_PDO.h</text>
</a>
</g>
</g>
<!-- Node2 -->
<g id="Node000002" class="node">
<title>Node2</title>
<g id="a_Node000002"><a xlink:href="CO__ODinterface_8h.html" target="_top" xlink:title="CANopen Object Dictionary interface.">
<polygon fill="white" stroke="#666666" points="210,-129 85,-129 85,-110 210,-110 210,-129"/>
<text text-anchor="middle" x="147.5" y="-117" font-family="Helvetica,sans-Serif" font-size="10.00">301/CO_ODinterface.h</text>
</a>
</g>
</g>
<!-- Node1&#45;&gt;Node2 -->
<g id="edge1_Node000001_Node000002" class="edge">
<title>Node1&#45;&gt;Node2</title>
<g id="a_edge1_Node000001_Node000002"><a xlink:title=" ">
<path fill="none" stroke="#63b8ff" d="M147.5,-274.74C147.5,-249.31 147.5,-175.08 147.5,-139.69"/>
<polygon fill="#63b8ff" stroke="#63b8ff" points="151,-139.31 147.5,-129.31 144,-139.31 151,-139.31"/>
</a>
</g>
</g>
<!-- Node7 -->
<g id="Node000007" class="node">
<title>Node7</title>
<g id="a_Node000007"><a xlink:href="CO__Emergency_8h.html" target="_top" xlink:title="CANopen Emergency protocol.">
<polygon fill="white" stroke="#666666" points="119,-184 0,-184 0,-165 119,-165 119,-184"/>
<text text-anchor="middle" x="59.5" y="-172" font-family="Helvetica,sans-Serif" font-size="10.00">301/CO_Emergency.h</text>
</a>
</g>
</g>
<!-- Node1&#45;&gt;Node7 -->
<g id="edge6_Node000001_Node000007" class="edge">
<title>Node1&#45;&gt;Node7</title>
<g id="a_edge6_Node000001_Node000007"><a xlink:title=" ">
<path fill="none" stroke="#63b8ff" d="M140.3,-274.66C125.59,-256.61 91.91,-215.28 73.01,-192.08"/>
<polygon fill="#63b8ff" stroke="#63b8ff" points="75.59,-189.7 66.55,-184.16 70.16,-194.12 75.59,-189.7"/>
</a>
</g>
</g>
<!-- Node8 -->
<g id="Node000008" class="node">
<title>Node8</title>
<g id="a_Node000008"><a xlink:href="CO__SYNC_8h.html" target="_top" xlink:title="CANopen Synchronisation protocol.">
<polygon fill="white" stroke="#666666" points="267.5,-239 175.5,-239 175.5,-220 267.5,-220 267.5,-239"/>
<text text-anchor="middle" x="221.5" y="-227" font-family="Helvetica,sans-Serif" font-size="10.00">301/CO_SYNC.h</text>
</a>
</g>
</g>
<!-- Node1&#45;&gt;Node8 -->
<g id="edge9_Node000001_Node000008" class="edge">
<title>Node1&#45;&gt;Node8</title>
<g id="a_edge9_Node000001_Node000008"><a xlink:title=" ">
<path fill="none" stroke="#63b8ff" d="M159.39,-274.98C170.65,-266.92 187.79,-254.65 201.21,-245.03"/>
<polygon fill="#63b8ff" stroke="#63b8ff" points="203.3,-247.84 209.39,-239.17 199.23,-242.15 203.3,-247.84"/>
</a>
</g>
</g>
<!-- Node3 -->
<g id="Node000003" class="node">
<title>Node3</title>
<g id="a_Node000003"><a xlink:href="CO__driver_8h.html" target="_top" xlink:title="Interface between CAN hardware and CANopenNode.">
<polygon fill="white" stroke="#666666" points="195,-74 100,-74 100,-55 195,-55 195,-74"/>
<text text-anchor="middle" x="147.5" y="-62" font-family="Helvetica,sans-Serif" font-size="10.00">301/CO_driver.h</text>
</a>
</g>
</g>
<!-- Node2&#45;&gt;Node3 -->
<g id="edge2_Node000002_Node000003" class="edge">
<title>Node2&#45;&gt;Node3</title>
<g id="a_edge2_Node000002_Node000003"><a xlink:title=" ">
<path fill="none" stroke="#63b8ff" d="M147.5,-109.75C147.5,-102.8 147.5,-92.85 147.5,-84.13"/>
<polygon fill="#63b8ff" stroke="#63b8ff" points="151,-84.09 147.5,-74.09 144,-84.09 151,-84.09"/>
</a>
</g>
</g>
<!-- Node4 -->
<g id="Node000004" class="node">
<title>Node4</title>
<g id="a_Node000004"><a xlink:title=" ">
<polygon fill="#e0e0e0" stroke="#999999" points="92,-19 39,-19 39,0 92,0 92,-19"/>
<text text-anchor="middle" x="65.5" y="-7" font-family="Helvetica,sans-Serif" font-size="10.00">string.h</text>
</a>
</g>
</g>
<!-- Node3&#45;&gt;Node4 -->
<g id="edge3_Node000003_Node000004" class="edge">
<title>Node3&#45;&gt;Node4</title>
<g id="a_edge3_Node000003_Node000004"><a xlink:title=" ">
<path fill="none" stroke="#63b8ff" d="M134.33,-54.98C121.73,-46.84 102.5,-34.41 87.56,-24.76"/>
<polygon fill="#63b8ff" stroke="#63b8ff" points="89.21,-21.66 78.91,-19.17 85.41,-27.54 89.21,-21.66"/>
</a>
</g>
</g>
<!-- Node5 -->
<g id="Node000005" class="node">
<title>Node5</title>
<g id="a_Node000005"><a xlink:href="CO__config_8h.html" target="_top" xlink:title="Configuration macros for CANopenNode.">
<polygon fill="white" stroke="#666666" points="185,-19 110,-19 110,0 185,0 185,-19"/>
<text text-anchor="middle" x="147.5" y="-7" font-family="Helvetica,sans-Serif" font-size="10.00">CO_config.h</text>
</a>
</g>
</g>
<!-- Node3&#45;&gt;Node5 -->
<g id="edge4_Node000003_Node000005" class="edge">
<title>Node3&#45;&gt;Node5</title>
<g id="a_edge4_Node000003_Node000005"><a xlink:title=" ">
<path fill="none" stroke="#63b8ff" d="M147.5,-54.75C147.5,-47.8 147.5,-37.85 147.5,-29.13"/>
<polygon fill="#63b8ff" stroke="#63b8ff" points="151,-29.09 147.5,-19.09 144,-29.09 151,-29.09"/>
</a>
</g>
</g>
<!-- Node6 -->
<g id="Node000006" class="node">
<title>Node6</title>
<g id="a_Node000006"><a xlink:title=" ">
<polygon fill="#e0e0e0" stroke="#999999" points="311.5,-19 203.5,-19 203.5,0 311.5,0 311.5,-19"/>
<text text-anchor="middle" x="257.5" y="-7" font-family="Helvetica,sans-Serif" font-size="10.00">CO_driver_target.h</text>
</a>
</g>
</g>
<!-- Node3&#45;&gt;Node6 -->
<g id="edge5_Node000003_Node000006" class="edge">
<title>Node3&#45;&gt;Node6</title>
<g id="a_edge5_Node000003_Node000006"><a xlink:title=" ">
<path fill="none" stroke="#63b8ff" d="M165.17,-54.98C182.79,-46.5 210.08,-33.35 230.43,-23.54"/>
<polygon fill="#63b8ff" stroke="#63b8ff" points="232.02,-26.66 239.51,-19.17 228.98,-20.36 232.02,-26.66"/>
</a>
</g>
</g>
<!-- Node7&#45;&gt;Node2 -->
<g id="edge8_Node000007_Node000002" class="edge">
<title>Node7&#45;&gt;Node2</title>
<g id="a_edge8_Node000007_Node000002"><a xlink:title=" ">
<path fill="none" stroke="#63b8ff" d="M73.64,-164.98C87.29,-156.77 108.19,-144.18 124.28,-134.49"/>
<polygon fill="#63b8ff" stroke="#63b8ff" points="126.34,-137.33 133.1,-129.17 122.73,-131.33 126.34,-137.33"/>
</a>
</g>
</g>
<!-- Node7&#45;&gt;Node3 -->
<g id="edge7_Node000007_Node000003" class="edge">
<title>Node7&#45;&gt;Node3</title>
<g id="a_edge7_Node000007_Node000003"><a xlink:title=" ">
<path fill="none" stroke="#63b8ff" d="M59.67,-164.83C60.35,-151.75 63.28,-126.69 75.5,-110 85.61,-96.19 101.43,-85.73 115.67,-78.44"/>
<polygon fill="#63b8ff" stroke="#63b8ff" points="117.21,-81.58 124.72,-74.1 114.19,-75.27 117.21,-81.58"/>
</a>
</g>
</g>
<!-- Node8&#45;&gt;Node2 -->
<g id="edge11_Node000008_Node000002" class="edge">
<title>Node8&#45;&gt;Node2</title>
<g id="a_edge11_Node000008_Node000002"><a xlink:title=" ">
<path fill="none" stroke="#63b8ff" d="M215.44,-219.66C203.19,-201.77 175.25,-161 159.28,-137.69"/>
<polygon fill="#63b8ff" stroke="#63b8ff" points="161.97,-135.43 153.43,-129.16 156.2,-139.39 161.97,-135.43"/>
</a>
</g>
</g>
<!-- Node8&#45;&gt;Node3 -->
<g id="edge10_Node000008_Node000003" class="edge">
<title>Node8&#45;&gt;Node3</title>
<g id="a_edge10_Node000008_Node000003"><a xlink:title=" ">
<path fill="none" stroke="#63b8ff" d="M223.9,-219.73C229.05,-199.02 239.09,-146.11 218.5,-110 210.42,-95.83 195.8,-85.54 181.92,-78.44"/>
<polygon fill="#63b8ff" stroke="#63b8ff" points="183.05,-75.11 172.51,-74.03 180.08,-81.45 183.05,-75.11"/>
</a>
</g>
</g>
<!-- Node8&#45;&gt;Node7 -->
<g id="edge12_Node000008_Node000007" class="edge">
<title>Node8&#45;&gt;Node7</title>
<g id="a_edge12_Node000008_Node000007"><a xlink:title=" ">
<path fill="none" stroke="#63b8ff" d="M195.47,-219.98C168.39,-211.13 125.79,-197.19 95.49,-187.28"/>
<polygon fill="#63b8ff" stroke="#63b8ff" points="96.32,-183.87 85.73,-184.08 94.15,-190.52 96.32,-183.87"/>
</a>
</g>
</g>
</g>
</svg>
