<?xml version="1.0" encoding="UTF-8" standalone="no"?>
<!DOCTYPE svg PUBLIC "-//W3C//DTD SVG 1.1//EN"
 "http://www.w3.org/Graphics/SVG/1.1/DTD/svg11.dtd">
<!-- Generated by graphviz version 2.43.0 (0)
 -->
<!-- Title: 301/CO_fifo.h Pages: 1 -->
<svg width="218pt" height="196pt"
 viewBox="0.00 0.00 218.00 196.00" xmlns="http://www.w3.org/2000/svg" xmlns:xlink="http://www.w3.org/1999/xlink">
<g id="graph0" class="graph" transform="scale(1 1) rotate(0) translate(4 192)">
<title>301/CO_fifo.h</title>
<polygon fill="white" stroke="transparent" points="-4,4 -4,-192 214,-192 214,4 -4,4"/>
<!-- Node1 -->
<g id="node1" class="node">
<title>Node1</title>
<g id="a_node1"><a xlink:title="FIFO circular buffer.">
<polygon fill="#bfbfbf" stroke="black" points="57.5,-168.5 57.5,-187.5 140.5,-187.5 140.5,-168.5 57.5,-168.5"/>
<text text-anchor="middle" x="99" y="-175.5" font-family="Helvetica,sans-Serif" font-size="10.00">301/CO_fifo.h</text>
</a>
</g>
</g>
<!-- Node2 -->
<g id="node2" class="node">
<title>Node2</title>
<g id="a_node2"><a xlink:href="CO__SDOclient_8h.html" target="_top" xlink:title="CANopen Service Data Object &#45; client protocol.">
<polygon fill="white" stroke="black" points="0,-112.5 0,-131.5 114,-131.5 114,-112.5 0,-112.5"/>
<text text-anchor="middle" x="57" y="-119.5" font-family="Helvetica,sans-Serif" font-size="10.00">301/CO_SDOclient.h</text>
</a>
</g>
</g>
<!-- Node1&#45;&gt;Node2 -->
<g id="edge1" class="edge">
<title>Node1&#45;&gt;Node2</title>
<path fill="none" stroke="midnightblue" d="M85.89,-160.14C78.57,-150.74 69.76,-139.4 63.81,-131.75"/>
<polygon fill="midnightblue" stroke="midnightblue" points="83.16,-162.34 92.06,-168.08 88.69,-158.04 83.16,-162.34"/>
</g>
<!-- Node4 -->
<g id="node4" class="node">
<title>Node4</title>
<g id="a_node4"><a xlink:href="CO__gateway__ascii_8h.html" target="_top" xlink:title="CANopen access from other networks &#45; ASCII mapping (CiA 309&#45;3 DS v3.0.0)">
<polygon fill="white" stroke="black" points="74,-56.5 74,-75.5 210,-75.5 210,-56.5 74,-56.5"/>
<text text-anchor="middle" x="142" y="-63.5" font-family="Helvetica,sans-Serif" font-size="10.00">309/CO_gateway_ascii.h</text>
</a>
</g>
</g>
<!-- Node1&#45;&gt;Node4 -->
<g id="edge5" class="edge">
<title>Node1&#45;&gt;Node4</title>
<path fill="none" stroke="midnightblue" d="M109.47,-159.4C114.04,-151.25 119.2,-141.33 123,-132 130.99,-112.4 137.14,-88.23 140.08,-75.6"/>
<polygon fill="midnightblue" stroke="midnightblue" points="106.3,-157.89 104.34,-168.3 112.37,-161.38 106.3,-157.89"/>
</g>
<!-- Node3 -->
<g id="node3" class="node">
<title>Node3</title>
<g id="a_node3"><a xlink:href="CANopen_8h.html" target="_top" xlink:title="Main CANopenNode file.">
<polygon fill="white" stroke="black" points="58.5,-0.5 58.5,-19.5 129.5,-19.5 129.5,-0.5 58.5,-0.5"/>
<text text-anchor="middle" x="94" y="-7.5" font-family="Helvetica,sans-Serif" font-size="10.00">CANopen.h</text>
</a>
</g>
</g>
<!-- Node2&#45;&gt;Node3 -->
<g id="edge2" class="edge">
<title>Node2&#45;&gt;Node3</title>
<path fill="none" stroke="midnightblue" d="M57.11,-102.05C57.72,-88.8 59.61,-70.88 65,-56 70,-42.19 79.88,-28.29 86.7,-19.66"/>
<polygon fill="midnightblue" stroke="midnightblue" points="53.61,-102.22 56.85,-112.3 60.6,-102.39 53.61,-102.22"/>
</g>
<!-- Node2&#45;&gt;Node4 -->
<g id="edge3" class="edge">
<title>Node2&#45;&gt;Node4</title>
<path fill="none" stroke="midnightblue" d="M79.19,-106.9C94.78,-97 115.13,-84.07 128.38,-75.65"/>
<polygon fill="midnightblue" stroke="midnightblue" points="77.22,-104.01 70.66,-112.32 80.97,-109.92 77.22,-104.01"/>
</g>
<!-- Node4&#45;&gt;Node3 -->
<g id="edge4" class="edge">
<title>Node4&#45;&gt;Node3</title>
<path fill="none" stroke="midnightblue" d="M127.27,-48.43C118.86,-38.97 108.65,-27.48 101.78,-19.75"/>
<polygon fill="midnightblue" stroke="midnightblue" points="124.81,-50.93 134.07,-56.08 130.05,-46.28 124.81,-50.93"/>
</g>
</g>
</svg>
