<?xml version="1.0" encoding="UTF-8" standalone="no"?>
<!DOCTYPE svg PUBLIC "-//W3C//DTD SVG 1.1//EN"
 "http://www.w3.org/Graphics/SVG/1.1/DTD/svg11.dtd">
<!-- Generated by graphviz version 2.43.0 (0)
 -->
<!-- Title: 301/CO_SDOclient.h Pages: 1 -->
<svg width="181pt" height="140pt"
 viewBox="0.00 0.00 181.00 140.00" xmlns="http://www.w3.org/2000/svg" xmlns:xlink="http://www.w3.org/1999/xlink">
<g id="graph0" class="graph" transform="scale(1 1) rotate(0) translate(4 136)">
<title>301/CO_SDOclient.h</title>
<polygon fill="white" stroke="transparent" points="-4,4 -4,-136 177,-136 177,4 -4,4"/>
<!-- Node1 -->
<g id="node1" class="node">
<title>Node1</title>
<g id="a_node1"><a xlink:title="CANopen Service Data Object &#45; client protocol.">
<polygon fill="#bfbfbf" stroke="black" points="0,-112.5 0,-131.5 114,-131.5 114,-112.5 0,-112.5"/>
<text text-anchor="middle" x="57" y="-119.5" font-family="Helvetica,sans-Serif" font-size="10.00">301/CO_SDOclient.h</text>
</a>
</g>
</g>
<!-- Node2 -->
<g id="node2" class="node">
<title>Node2</title>
<g id="a_node2"><a xlink:href="CANopen_8h.html" target="_top" xlink:title="Main CANopenNode file.">
<polygon fill="white" stroke="black" points="21.5,-0.5 21.5,-19.5 92.5,-19.5 92.5,-0.5 21.5,-0.5"/>
<text text-anchor="middle" x="57" y="-7.5" font-family="Helvetica,sans-Serif" font-size="10.00">CANopen.h</text>
</a>
</g>
</g>
<!-- Node1&#45;&gt;Node2 -->
<g id="edge1" class="edge">
<title>Node1&#45;&gt;Node2</title>
<path fill="none" stroke="midnightblue" d="M42.44,-104.53C32.87,-91.66 22.95,-73.14 28,-56 32.15,-41.91 42.22,-28.07 49.33,-19.54"/>
<polygon fill="midnightblue" stroke="midnightblue" points="39.83,-106.87 48.83,-112.45 45.28,-102.47 39.83,-106.87"/>
</g>
<!-- Node3 -->
<g id="node3" class="node">
<title>Node3</title>
<g id="a_node3"><a xlink:href="CO__gateway__ascii_8h.html" target="_top" xlink:title="CANopen access from other networks &#45; ASCII mapping (CiA 309&#45;3 DS v3.0.0)">
<polygon fill="white" stroke="black" points="37,-56.5 37,-75.5 173,-75.5 173,-56.5 37,-56.5"/>
<text text-anchor="middle" x="105" y="-63.5" font-family="Helvetica,sans-Serif" font-size="10.00">309/CO_gateway_ascii.h</text>
</a>
</g>
</g>
<!-- Node1&#45;&gt;Node3 -->
<g id="edge2" class="edge">
<title>Node1&#45;&gt;Node3</title>
<path fill="none" stroke="midnightblue" d="M71.73,-104.43C80.14,-94.97 90.35,-83.48 97.22,-75.75"/>
<polygon fill="midnightblue" stroke="midnightblue" points="68.95,-102.28 64.93,-112.08 74.19,-106.93 68.95,-102.28"/>
</g>
<!-- Node3&#45;&gt;Node2 -->
<g id="edge3" class="edge">
<title>Node3&#45;&gt;Node2</title>
<path fill="none" stroke="midnightblue" d="M90.27,-48.43C81.86,-38.97 71.65,-27.48 64.78,-19.75"/>
<polygon fill="midnightblue" stroke="midnightblue" points="87.81,-50.93 97.07,-56.08 93.05,-46.28 87.81,-50.93"/>
</g>
</g>
</svg>
