<?xml version="1.0" encoding="UTF-8" standalone="no"?>
<!DOCTYPE svg PUBLIC "-//W3C//DTD SVG 1.1//EN"
 "http://www.w3.org/Graphics/SVG/1.1/DTD/svg11.dtd">
<!-- Generated by graphviz version 2.43.0 (0)
 -->
<!-- Title: 301/CO_config.h Pages: 1 -->
<svg width="1744pt" height="412pt"
 viewBox="0.00 0.00 1744.00 412.00" xmlns="http://www.w3.org/2000/svg" xmlns:xlink="http://www.w3.org/1999/xlink">
<g id="graph0" class="graph" transform="scale(1 1) rotate(0) translate(4 408)">
<title>301/CO_config.h</title>
<!-- Node1 -->
<g id="Node000001" class="node">
<title>Node1</title>
<g id="a_Node000001"><a xlink:title="Configuration macros for CANopenNode.">
<polygon fill="#999999" stroke="#666666" points="1001,-404 905,-404 905,-385 1001,-385 1001,-404"/>
<text text-anchor="middle" x="953" y="-392" font-family="Helvetica,sans-Serif" font-size="10.00">301/CO_config.h</text>
</a>
</g>
</g>
<!-- Node2 -->
<g id="Node000002" class="node">
<title>Node2</title>
<g id="a_Node000002"><a xlink:href="CO__driver_8h.html" target="_top" xlink:title="Interface between CAN hardware and CANopenNode.">
<polygon fill="white" stroke="#666666" points="1000.5,-349 905.5,-349 905.5,-330 1000.5,-330 1000.5,-349"/>
<text text-anchor="middle" x="953" y="-337" font-family="Helvetica,sans-Serif" font-size="10.00">301/CO_driver.h</text>
</a>
</g>
</g>
<!-- Node1&#45;&gt;Node2 -->
<g id="edge1_Node000001_Node000002" class="edge">
<title>Node1&#45;&gt;Node2</title>
<g id="a_edge1_Node000001_Node000002"><a xlink:title=" ">
<path fill="none" stroke="#63b8ff" d="M953,-374.66C953,-365.93 953,-355.99 953,-349.09"/>
<polygon fill="#63b8ff" stroke="#63b8ff" points="949.5,-374.75 953,-384.75 956.5,-374.75 949.5,-374.75"/>
</a>
</g>
</g>
<!-- Node3 -->
<g id="Node000003" class="node">
<title>Node3</title>
<g id="a_Node000003"><a xlink:href="CO__Emergency_8h.html" target="_top" xlink:title="CANopen Emergency protocol.">
<polygon fill="white" stroke="#666666" points="371.5,-239 252.5,-239 252.5,-220 371.5,-220 371.5,-239"/>
<text text-anchor="middle" x="312" y="-227" font-family="Helvetica,sans-Serif" font-size="10.00">301/CO_Emergency.h</text>
</a>
</g>
</g>
<!-- Node2&#45;&gt;Node3 -->
<g id="edge2_Node000002_Node000003" class="edge">
<title>Node2&#45;&gt;Node3</title>
<g id="a_edge2_Node000002_Node000003"><a xlink:title=" ">
<path fill="none" stroke="#63b8ff" d="M894.97,-338.47C769.46,-337.68 476.8,-331.72 386,-294 356.92,-281.92 331.03,-253.87 319.05,-239.44"/>
<polygon fill="#63b8ff" stroke="#63b8ff" points="895.13,-341.97 905.15,-338.53 895.17,-334.97 895.13,-341.97"/>
</a>
</g>
</g>
<!-- Node4 -->
<g id="Node000004" class="node">
<title>Node4</title>
<g id="a_Node000004"><a xlink:href="CO__HBconsumer_8h.html" target="_top" xlink:title="CANopen Heartbeat consumer protocol.">
<polygon fill="white" stroke="#666666" points="410,-129 282,-129 282,-110 410,-110 410,-129"/>
<text text-anchor="middle" x="346" y="-117" font-family="Helvetica,sans-Serif" font-size="10.00">301/CO_HBconsumer.h</text>
</a>
</g>
</g>
<!-- Node2&#45;&gt;Node4 -->
<g id="edge26_Node000002_Node000004" class="edge">
<title>Node2&#45;&gt;Node4</title>
<g id="a_edge26_Node000002_Node000004"><a xlink:title=" ">
<path fill="none" stroke="#63b8ff" d="M894.89,-337.09C764.69,-333.46 453.1,-322.05 352,-294 299.71,-279.49 271.44,-285.21 243,-239 214.78,-193.15 291.41,-147.52 327.9,-129.05"/>
<polygon fill="#63b8ff" stroke="#63b8ff" points="894.97,-340.59 905.06,-337.37 895.16,-333.6 894.97,-340.59"/>
</a>
</g>
</g>
<!-- Node5 -->
<g id="Node000005" class="node">
<title>Node5</title>
<g id="a_Node000005"><a xlink:href="CANopen_8h.html" target="_top" xlink:title="Main CANopenNode file.">
<polygon fill="white" stroke="#666666" points="818.5,-19 747.5,-19 747.5,0 818.5,0 818.5,-19"/>
<text text-anchor="middle" x="783" y="-7" font-family="Helvetica,sans-Serif" font-size="10.00">CANopen.h</text>
</a>
</g>
</g>
<!-- Node2&#45;&gt;Node5 -->
<g id="edge68_Node000002_Node000005" class="edge">
<title>Node2&#45;&gt;Node5</title>
<g id="a_edge68_Node000002_Node000005"><a xlink:title=" ">
<path fill="none" stroke="#63b8ff" d="M895.39,-338.06C689.17,-335.72 0,-321.12 0,-230.5 0,-230.5 0,-230.5 0,-118.5 0,-62.05 55.98,-71.4 110,-55 230.87,-18.3 626.02,-11.85 747.29,-10.73"/>
<polygon fill="#63b8ff" stroke="#63b8ff" points="895.38,-341.56 905.41,-338.16 895.45,-334.56 895.38,-341.56"/>
</a>
</g>
</g>
<!-- Node6 -->
<g id="Node000006" class="node">
<title>Node6</title>
<g id="a_Node000006"><a xlink:href="CO__NMT__Heartbeat_8h.html" target="_top" xlink:title="CANopen Network management and Heartbeat producer protocol.">
<polygon fill="white" stroke="#666666" points="623.5,-184 480.5,-184 480.5,-165 623.5,-165 623.5,-184"/>
<text text-anchor="middle" x="552" y="-172" font-family="Helvetica,sans-Serif" font-size="10.00">301/CO_NMT_Heartbeat.h</text>
</a>
</g>
</g>
<!-- Node2&#45;&gt;Node6 -->
<g id="edge27_Node000002_Node000006" class="edge">
<title>Node2&#45;&gt;Node6</title>
<g id="a_edge27_Node000002_Node000006"><a xlink:title=" ">
<path fill="none" stroke="#63b8ff" d="M894.9,-336.07C814.59,-331.77 674.73,-320.63 632,-294 588.61,-266.95 563.25,-206.7 555,-184.2"/>
<polygon fill="#63b8ff" stroke="#63b8ff" points="895.17,-339.59 905.34,-336.61 895.53,-332.6 895.17,-339.59"/>
</a>
</g>
</g>
<!-- Node7 -->
<g id="Node000007" class="node">
<title>Node7</title>
<g id="a_Node000007"><a xlink:href="CO__Node__Guarding_8h.html" target="_top" xlink:title="CANopen Node Guarding slave and master objects.">
<polygon fill="white" stroke="#666666" points="569.5,-129 428.5,-129 428.5,-110 569.5,-110 569.5,-129"/>
<text text-anchor="middle" x="499" y="-117" font-family="Helvetica,sans-Serif" font-size="10.00">301/CO_Node_Guarding.h</text>
</a>
</g>
</g>
<!-- Node2&#45;&gt;Node7 -->
<g id="edge28_Node000002_Node000007" class="edge">
<title>Node2&#45;&gt;Node7</title>
<g id="a_edge28_Node000002_Node000007"><a xlink:title=" ">
<path fill="none" stroke="#63b8ff" d="M895.39,-334.77C810.68,-328.67 657.05,-315.08 606,-294 531.89,-263.39 498.42,-255.94 463,-184 453.15,-163.99 473.86,-141.48 487.76,-129.37"/>
<polygon fill="#63b8ff" stroke="#63b8ff" points="895.14,-338.26 905.36,-335.48 895.64,-331.28 895.14,-338.26"/>
</a>
</g>
</g>
<!-- Node8 -->
<g id="Node000008" class="node">
<title>Node8</title>
<g id="a_Node000008"><a xlink:href="CO__TIME_8h.html" target="_top" xlink:title="CANopen Time&#45;stamp protocol.">
<polygon fill="white" stroke="#666666" points="726,-129 636,-129 636,-110 726,-110 726,-129"/>
<text text-anchor="middle" x="681" y="-117" font-family="Helvetica,sans-Serif" font-size="10.00">301/CO_TIME.h</text>
</a>
</g>
</g>
<!-- Node2&#45;&gt;Node8 -->
<g id="edge54_Node000002_Node000008" class="edge">
<title>Node2&#45;&gt;Node8</title>
<g id="a_edge54_Node000002_Node000008"><a xlink:title=" ">
<path fill="none" stroke="#63b8ff" d="M895.16,-338.06C820,-336.11 694.91,-327.73 666,-294 623.9,-244.87 662.67,-156.64 676.52,-129.01"/>
<polygon fill="#63b8ff" stroke="#63b8ff" points="895.35,-341.56 905.42,-338.29 895.51,-334.56 895.35,-341.56"/>
</a>
</g>
</g>
<!-- Node9 -->
<g id="Node000009" class="node">
<title>Node9</title>
<g id="a_Node000009"><a xlink:href="CO__LEDs_8h.html" target="_top" xlink:title="CANopen Indicator specification (CiA 303&#45;3 v1.4.0)">
<polygon fill="white" stroke="#666666" points="1049,-129 959,-129 959,-110 1049,-110 1049,-129"/>
<text text-anchor="middle" x="1004" y="-117" font-family="Helvetica,sans-Serif" font-size="10.00">303/CO_LEDs.h</text>
</a>
</g>
</g>
<!-- Node2&#45;&gt;Node9 -->
<g id="edge59_Node000002_Node000009" class="edge">
<title>Node2&#45;&gt;Node9</title>
<g id="a_edge59_Node000002_Node000009"><a xlink:title=" ">
<path fill="none" stroke="#63b8ff" d="M971.13,-323.09C999.55,-297.6 1053.47,-243.51 1074,-184 1076.75,-176.02 1078.07,-172.4 1074,-165 1064.43,-147.58 1044.84,-136.01 1028.81,-129.05"/>
<polygon fill="#63b8ff" stroke="#63b8ff" points="968.71,-320.55 963.51,-329.78 973.33,-325.81 968.71,-320.55"/>
</a>
</g>
</g>
<!-- Node10 -->
<g id="Node000010" class="node">
<title>Node10</title>
<g id="a_Node000010"><a xlink:href="CO__gateway__ascii_8h.html" target="_top" xlink:title="CANopen access from other networks &#45; ASCII mapping (CiA 309&#45;3 DS v3.0.0)">
<polygon fill="white" stroke="#666666" points="1332,-74 1196,-74 1196,-55 1332,-55 1332,-74"/>
<text text-anchor="middle" x="1264" y="-62" font-family="Helvetica,sans-Serif" font-size="10.00">309/CO_gateway_ascii.h</text>
</a>
</g>
</g>
<!-- Node2&#45;&gt;Node10 -->
<g id="edge67_Node000002_Node000010" class="edge">
<title>Node2&#45;&gt;Node10</title>
<g id="a_edge67_Node000002_Node000010"><a xlink:title=" ">
<path fill="none" stroke="#63b8ff" d="M1010.82,-338.88C1080.08,-337.56 1198.55,-329.6 1293,-294 1334.06,-278.52 1354.35,-277.72 1375,-239 1393.17,-204.92 1301.66,-104.83 1272.61,-74.39"/>
<polygon fill="#63b8ff" stroke="#63b8ff" points="1010.51,-335.39 1000.56,-339.04 1010.61,-342.39 1010.51,-335.39"/>
</a>
</g>
</g>
<!-- Node12 -->
<g id="Node000012" class="node">
<title>Node12</title>
<g id="a_Node000012"><a xlink:href="CO__SYNC_8h.html" target="_top" xlink:title="CANopen Synchronisation protocol.">
<polygon fill="white" stroke="#666666" points="120,-184 28,-184 28,-165 120,-165 120,-184"/>
<text text-anchor="middle" x="74" y="-172" font-family="Helvetica,sans-Serif" font-size="10.00">301/CO_SYNC.h</text>
</a>
</g>
</g>
<!-- Node2&#45;&gt;Node12 -->
<g id="edge53_Node000002_Node000012" class="edge">
<title>Node2&#45;&gt;Node12</title>
<g id="a_edge53_Node000002_Node000012"><a xlink:title=" ">
<path fill="none" stroke="#63b8ff" d="M894.91,-337.17C731,-333.13 272.69,-319.64 210,-294 150,-269.46 98.11,-207.13 80.45,-184.16"/>
<polygon fill="#63b8ff" stroke="#63b8ff" points="895.19,-340.68 905.27,-337.43 895.36,-333.68 895.19,-340.68"/>
</a>
</g>
</g>
<!-- Node14 -->
<g id="Node000014" class="node">
<title>Node14</title>
<g id="a_Node000014"><a xlink:href="CO__ODinterface_8h.html" target="_top" xlink:title="CANopen Object Dictionary interface.">
<polygon fill="white" stroke="#666666" points="799.5,-294 674.5,-294 674.5,-275 799.5,-275 799.5,-294"/>
<text text-anchor="middle" x="737" y="-282" font-family="Helvetica,sans-Serif" font-size="10.00">301/CO_ODinterface.h</text>
</a>
</g>
</g>
<!-- Node2&#45;&gt;Node14 -->
<g id="edge29_Node000002_Node000014" class="edge">
<title>Node2&#45;&gt;Node14</title>
<g id="a_edge29_Node000002_Node000014"><a xlink:title=" ">
<path fill="none" stroke="#63b8ff" d="M908.43,-327.56C867.98,-317.64 809.13,-303.2 771.98,-294.08"/>
<polygon fill="#63b8ff" stroke="#63b8ff" points="907.75,-331 918.3,-329.98 909.42,-324.2 907.75,-331"/>
</a>
</g>
</g>
<!-- Node15 -->
<g id="Node000015" class="node">
<title>Node15</title>
<g id="a_Node000015"><a xlink:href="CO__SDOclient_8h.html" target="_top" xlink:title="CANopen Service Data Object &#45; client protocol.">
<polygon fill="white" stroke="#666666" points="1273,-184 1159,-184 1159,-165 1273,-165 1273,-184"/>
<text text-anchor="middle" x="1216" y="-172" font-family="Helvetica,sans-Serif" font-size="10.00">301/CO_SDOclient.h</text>
</a>
</g>
</g>
<!-- Node2&#45;&gt;Node15 -->
<g id="edge51_Node000002_Node000015" class="edge">
<title>Node2&#45;&gt;Node15</title>
<g id="a_edge51_Node000002_Node000015"><a xlink:title=" ">
<path fill="none" stroke="#63b8ff" d="M1010.98,-336.82C1077.81,-331.38 1184.86,-311.13 1235,-239 1246.95,-221.8 1232.31,-196.96 1222.84,-184.04"/>
<polygon fill="#63b8ff" stroke="#63b8ff" points="1010.34,-333.35 1000.62,-337.57 1010.84,-340.33 1010.34,-333.35"/>
</a>
</g>
</g>
<!-- Node16 -->
<g id="Node000016" class="node">
<title>Node16</title>
<g id="a_Node000016"><a xlink:href="CO__SDOserver_8h.html" target="_top" xlink:title="CANopen Service Data Object &#45; server protocol.">
<polygon fill="white" stroke="#666666" points="1226,-239 1108,-239 1108,-220 1226,-220 1226,-239"/>
<text text-anchor="middle" x="1167" y="-227" font-family="Helvetica,sans-Serif" font-size="10.00">301/CO_SDOserver.h</text>
</a>
</g>
</g>
<!-- Node2&#45;&gt;Node16 -->
<g id="edge52_Node000002_Node000016" class="edge">
<title>Node2&#45;&gt;Node16</title>
<g id="a_edge52_Node000002_Node000016"><a xlink:title=" ">
<path fill="none" stroke="#63b8ff" d="M984.16,-326.1C1004.81,-317.63 1032.34,-305.83 1056,-294 1091.94,-276.03 1132.55,-251.73 1153.26,-239.03"/>
<polygon fill="#63b8ff" stroke="#63b8ff" points="982.57,-322.97 974.62,-329.98 985.21,-329.46 982.57,-322.97"/>
</a>
</g>
</g>
<!-- Node17 -->
<g id="Node000017" class="node">
<title>Node17</title>
<g id="a_Node000017"><a xlink:href="CO__trace_8h.html" target="_top" xlink:title="CANopen trace object for recording variables over time.">
<polygon fill="white" stroke="#666666" points="1476,-184 1378,-184 1378,-165 1476,-165 1476,-184"/>
<text text-anchor="middle" x="1427" y="-172" font-family="Helvetica,sans-Serif" font-size="10.00">extra/CO_trace.h</text>
</a>
</g>
</g>
<!-- Node2&#45;&gt;Node17 -->
<g id="edge69_Node000002_Node000017" class="edge">
<title>Node2&#45;&gt;Node17</title>
<g id="a_edge69_Node000002_Node000017"><a xlink:title=" ">
<path fill="none" stroke="#63b8ff" d="M1011.02,-336.72C1127.17,-332.61 1379.62,-320.69 1408,-294 1439.12,-264.74 1432.58,-206.35 1428.74,-184.25"/>
<polygon fill="#63b8ff" stroke="#63b8ff" points="1010.76,-333.23 1000.88,-337.07 1011,-340.23 1010.76,-333.23"/>
</a>
</g>
</g>
<!-- Node18 -->
<g id="Node000018" class="node">
<title>Node18</title>
<g id="a_Node000018"><a xlink:href="CO__GFC_8h.html" target="_top" xlink:title="CANopen Global fail&#45;safe command protocol.">
<polygon fill="white" stroke="#666666" points="874,-239 788,-239 788,-220 874,-220 874,-239"/>
<text text-anchor="middle" x="831" y="-227" font-family="Helvetica,sans-Serif" font-size="10.00">304/CO_GFC.h</text>
</a>
</g>
</g>
<!-- Node2&#45;&gt;Node18 -->
<g id="edge60_Node000002_Node000018" class="edge">
<title>Node2&#45;&gt;Node18</title>
<g id="a_edge60_Node000002_Node000018"><a xlink:title=" ">
<path fill="none" stroke="#63b8ff" d="M935.39,-322.91C909.32,-299.83 861.35,-257.37 840.78,-239.16"/>
<polygon fill="#63b8ff" stroke="#63b8ff" points="933.21,-325.65 943.02,-329.66 937.85,-320.41 933.21,-325.65"/>
</a>
</g>
</g>
<!-- Node19 -->
<g id="Node000019" class="node">
<title>Node19</title>
<g id="a_Node000019"><a xlink:href="CO__storage_8h.html" target="_top" xlink:title="CANopen data storage base object.">
<polygon fill="white" stroke="#666666" points="1014,-239 892,-239 892,-220 1014,-220 1014,-239"/>
<text text-anchor="middle" x="953" y="-227" font-family="Helvetica,sans-Serif" font-size="10.00">storage/CO_storage.h</text>
</a>
</g>
</g>
<!-- Node2&#45;&gt;Node19 -->
<g id="edge71_Node000002_Node000019" class="edge">
<title>Node2&#45;&gt;Node19</title>
<g id="a_edge71_Node000002_Node000019"><a xlink:title=" ">
<path fill="none" stroke="#63b8ff" d="M953,-319.48C953,-295.84 953,-256.5 953,-239.16"/>
<polygon fill="#63b8ff" stroke="#63b8ff" points="949.5,-319.66 953,-329.66 956.5,-319.66 949.5,-319.66"/>
</a>
</g>
</g>
<!-- Node21 -->
<g id="Node000021" class="node">
<title>Node21</title>
<g id="a_Node000021"><a xlink:href="CO__fifo_8h.html" target="_top" xlink:title="FIFO circular buffer.">
<polygon fill="white" stroke="#666666" points="1365.5,-239 1282.5,-239 1282.5,-220 1365.5,-220 1365.5,-239"/>
<text text-anchor="middle" x="1324" y="-227" font-family="Helvetica,sans-Serif" font-size="10.00">301/CO_fifo.h</text>
</a>
</g>
</g>
<!-- Node2&#45;&gt;Node21 -->
<g id="edge55_Node000002_Node000021" class="edge">
<title>Node2&#45;&gt;Node21</title>
<g id="a_edge55_Node000002_Node000021"><a xlink:title=" ">
<path fill="none" stroke="#63b8ff" d="M1010.85,-335.12C1089.33,-329.72 1224.72,-317.32 1268,-294 1292.07,-281.03 1310.72,-253.39 1319.13,-239.24"/>
<polygon fill="#63b8ff" stroke="#63b8ff" points="1010.38,-331.64 1000.63,-335.8 1010.84,-338.63 1010.38,-331.64"/>
</a>
</g>
</g>
<!-- Node22 -->
<g id="Node000022" class="node">
<title>Node22</title>
<g id="a_Node000022"><a xlink:href="crc16-ccitt_8h.html" target="_top" xlink:title="Calculation of CRC 16 CCITT polynomial.">
<polygon fill="white" stroke="#666666" points="1558,-294 1460,-294 1460,-275 1558,-275 1558,-294"/>
<text text-anchor="middle" x="1509" y="-282" font-family="Helvetica,sans-Serif" font-size="10.00">301/crc16&#45;ccitt.h</text>
</a>
</g>
</g>
<!-- Node2&#45;&gt;Node22 -->
<g id="edge58_Node000002_Node000022" class="edge">
<title>Node2&#45;&gt;Node22</title>
<g id="a_edge58_Node000002_Node000022"><a xlink:title=" ">
<path fill="none" stroke="#63b8ff" d="M1010.9,-334.11C1103.1,-326.92 1288.94,-311.67 1446,-294 1450.5,-293.49 1455.17,-292.93 1459.85,-292.34"/>
<polygon fill="#63b8ff" stroke="#63b8ff" points="1010.36,-330.64 1000.66,-334.9 1010.9,-337.62 1010.36,-330.64"/>
</a>
</g>
</g>
<!-- Node23 -->
<g id="Node000023" class="node">
<title>Node23</title>
<g id="a_Node000023"><a xlink:href="CO__LSS_8h.html" target="_top" xlink:title="CANopen Layer Setting Services protocol (common).">
<polygon fill="white" stroke="#666666" points="1603.5,-184 1520.5,-184 1520.5,-165 1603.5,-165 1603.5,-184"/>
<text text-anchor="middle" x="1562" y="-172" font-family="Helvetica,sans-Serif" font-size="10.00">305/CO_LSS.h</text>
</a>
</g>
</g>
<!-- Node2&#45;&gt;Node23 -->
<g id="edge61_Node000002_Node000023" class="edge">
<title>Node2&#45;&gt;Node23</title>
<g id="a_edge61_Node000002_Node000023"><a xlink:title=" ">
<path fill="none" stroke="#63b8ff" d="M1010.75,-338.68C1156.35,-338.54 1529.59,-334.22 1567,-294 1595.75,-263.09 1575.25,-205.7 1565.94,-184.06"/>
<polygon fill="#63b8ff" stroke="#63b8ff" points="1010.66,-335.18 1000.66,-338.69 1010.66,-342.18 1010.66,-335.18"/>
</a>
</g>
</g>
<!-- Node26 -->
<g id="Node000026" class="node">
<title>Node26</title>
<g id="a_Node000026"><a xlink:href="CO__eeprom_8h.html" target="_top" xlink:title="Eeprom interface for use with CO_storageEeprom.">
<polygon fill="white" stroke="#666666" points="1736,-294 1614,-294 1614,-275 1736,-275 1736,-294"/>
<text text-anchor="middle" x="1675" y="-282" font-family="Helvetica,sans-Serif" font-size="10.00">storage/CO_eeprom.h</text>
</a>
</g>
</g>
<!-- Node2&#45;&gt;Node26 -->
<g id="edge70_Node000002_Node000026" class="edge">
<title>Node2&#45;&gt;Node26</title>
<g id="a_edge70_Node000002_Node000026"><a xlink:title=" ">
<path fill="none" stroke="#63b8ff" d="M1010.71,-335.39C1123.87,-329.1 1382.8,-313.77 1600,-294 1604.44,-293.6 1609.02,-293.15 1613.63,-292.68"/>
<polygon fill="#63b8ff" stroke="#63b8ff" points="1010.33,-331.9 1000.54,-335.95 1010.72,-338.89 1010.33,-331.9"/>
</a>
</g>
</g>
<!-- Node3&#45;&gt;Node4 -->
<g id="edge3_Node000003_Node000004" class="edge">
<title>Node3&#45;&gt;Node4</title>
<g id="a_edge3_Node000003_Node000004"><a xlink:title=" ">
<path fill="none" stroke="#63b8ff" d="M314.18,-209.73C316,-196.91 319.1,-179.65 324,-165 328.38,-151.92 335.88,-137.81 340.89,-129.06"/>
<polygon fill="#63b8ff" stroke="#63b8ff" points="310.7,-209.32 312.9,-219.68 317.65,-210.21 310.7,-209.32"/>
</a>
</g>
</g>
<!-- Node3&#45;&gt;Node5 -->
<g id="edge25_Node000003_Node000005" class="edge">
<title>Node3&#45;&gt;Node5</title>
<g id="a_edge25_Node000003_Node000005"><a xlink:title=" ">
<path fill="none" stroke="#63b8ff" d="M274.5,-216.55C220.29,-197.32 130.32,-156.88 167,-110 239.02,-17.97 627.17,-10.39 747.45,-10.28"/>
<polygon fill="#63b8ff" stroke="#63b8ff" points="273.57,-219.93 284.17,-219.89 275.86,-213.32 273.57,-219.93"/>
</a>
</g>
</g>
<!-- Node3&#45;&gt;Node6 -->
<g id="edge5_Node000003_Node000006" class="edge">
<title>Node3&#45;&gt;Node6</title>
<g id="a_edge5_Node000003_Node000006"><a xlink:title=" ">
<path fill="none" stroke="#63b8ff" d="M360.38,-217.82C405.36,-207.88 471.5,-193.28 513.14,-184.08"/>
<polygon fill="#63b8ff" stroke="#63b8ff" points="359.57,-214.41 350.56,-219.98 361.08,-221.25 359.57,-214.41"/>
</a>
</g>
</g>
<!-- Node3&#45;&gt;Node7 -->
<g id="edge17_Node000003_Node000007" class="edge">
<title>Node3&#45;&gt;Node7</title>
<g id="a_edge17_Node000003_Node000007"><a xlink:title=" ">
<path fill="none" stroke="#63b8ff" d="M330.48,-213.46C347.79,-199.8 374.72,-179.6 400,-165 425.13,-150.49 455.85,-137.33 476.34,-129.15"/>
<polygon fill="#63b8ff" stroke="#63b8ff" points="327.99,-210.97 322.37,-219.95 332.36,-216.44 327.99,-210.97"/>
</a>
</g>
</g>
<!-- Node11 -->
<g id="Node000011" class="node">
<title>Node11</title>
<g id="a_Node000011"><a xlink:href="CO__PDO_8h.html" target="_top" xlink:title="CANopen Process Data Object protocol.">
<polygon fill="white" stroke="#666666" points="263.5,-129 176.5,-129 176.5,-110 263.5,-110 263.5,-129"/>
<text text-anchor="middle" x="220" y="-117" font-family="Helvetica,sans-Serif" font-size="10.00">301/CO_PDO.h</text>
</a>
</g>
</g>
<!-- Node3&#45;&gt;Node11 -->
<g id="edge18_Node000003_Node000011" class="edge">
<title>Node3&#45;&gt;Node11</title>
<g id="a_edge18_Node000003_Node000011"><a xlink:title=" ">
<path fill="none" stroke="#63b8ff" d="M297.94,-212C278.13,-188.73 242.68,-147.13 227.38,-129.16"/>
<polygon fill="#63b8ff" stroke="#63b8ff" points="295.32,-214.32 304.47,-219.66 300.65,-209.78 295.32,-214.32"/>
</a>
</g>
</g>
<!-- Node3&#45;&gt;Node12 -->
<g id="edge20_Node000003_Node000012" class="edge">
<title>Node3&#45;&gt;Node12</title>
<g id="a_edge20_Node000003_Node000012"><a xlink:title=" ">
<path fill="none" stroke="#63b8ff" d="M263.74,-217.75C219.14,-207.82 153.74,-193.26 112.54,-184.08"/>
<polygon fill="#63b8ff" stroke="#63b8ff" points="263.24,-221.23 273.76,-219.98 264.76,-214.39 263.24,-221.23"/>
</a>
</g>
</g>
<!-- Node13 -->
<g id="Node000013" class="node">
<title>Node13</title>
<g id="a_Node000013"><a xlink:href="CO__SRDO_8h.html" target="_top" xlink:title="CANopen Safety Related Data Object protocol.">
<polygon fill="white" stroke="#666666" points="812,-184 718,-184 718,-165 812,-165 812,-184"/>
<text text-anchor="middle" x="765" y="-172" font-family="Helvetica,sans-Serif" font-size="10.00">304/CO_SRDO.h</text>
</a>
</g>
</g>
<!-- Node3&#45;&gt;Node13 -->
<g id="edge23_Node000003_Node000013" class="edge">
<title>Node3&#45;&gt;Node13</title>
<g id="a_edge23_Node000003_Node000013"><a xlink:title=" ">
<path fill="none" stroke="#63b8ff" d="M381.88,-220.32C475.18,-209.41 637.96,-190.36 717.93,-181.01"/>
<polygon fill="#63b8ff" stroke="#63b8ff" points="381.21,-216.88 371.69,-221.52 382.03,-223.83 381.21,-216.88"/>
</a>
</g>
</g>
<!-- Node4&#45;&gt;Node5 -->
<g id="edge4_Node000004_Node000005" class="edge">
<title>Node4&#45;&gt;Node5</title>
<g id="a_edge4_Node000004_Node000005"><a xlink:title=" ">
<path fill="none" stroke="#63b8ff" d="M380.67,-106.62C421.52,-92.92 491.64,-70.3 553,-55 621.07,-38.02 701.84,-23.72 747.28,-16.2"/>
<polygon fill="#63b8ff" stroke="#63b8ff" points="379.29,-103.4 370.93,-109.91 381.53,-110.03 379.29,-103.4"/>
</a>
</g>
</g>
<!-- Node6&#45;&gt;Node4 -->
<g id="edge6_Node000006_Node000004" class="edge">
<title>Node6&#45;&gt;Node4</title>
<g id="a_edge6_Node000006_Node000004"><a xlink:title=" ">
<path fill="none" stroke="#63b8ff" d="M509,-162.44C470.44,-152.52 414.64,-138.16 379.36,-129.08"/>
<polygon fill="#63b8ff" stroke="#63b8ff" points="508.35,-165.88 518.9,-164.98 510.09,-159.1 508.35,-165.88"/>
</a>
</g>
</g>
<!-- Node6&#45;&gt;Node5 -->
<g id="edge16_Node000006_Node000005" class="edge">
<title>Node6&#45;&gt;Node5</title>
<g id="a_edge16_Node000006_Node000005"><a xlink:title=" ">
<path fill="none" stroke="#63b8ff" d="M569.19,-157.79C584.05,-144.49 606.34,-125.23 627,-110 676.65,-73.41 739.57,-35.73 767.93,-19.19"/>
<polygon fill="#63b8ff" stroke="#63b8ff" points="566.45,-155.55 561.37,-164.85 571.14,-160.75 566.45,-155.55"/>
</a>
</g>
</g>
<!-- Node6&#45;&gt;Node7 -->
<g id="edge7_Node000006_Node000007" class="edge">
<title>Node6&#45;&gt;Node7</title>
<g id="a_edge7_Node000006_Node000007"><a xlink:title=" ">
<path fill="none" stroke="#63b8ff" d="M536.02,-157.52C526.68,-148.18 515.25,-136.75 507.59,-129.09"/>
<polygon fill="#63b8ff" stroke="#63b8ff" points="533.7,-160.15 543.25,-164.75 538.65,-155.2 533.7,-160.15"/>
</a>
</g>
</g>
<!-- Node6&#45;&gt;Node8 -->
<g id="edge9_Node000006_Node000008" class="edge">
<title>Node6&#45;&gt;Node8</title>
<g id="a_edge9_Node000006_Node000008"><a xlink:title=" ">
<path fill="none" stroke="#63b8ff" d="M582.04,-161.16C605.92,-151.35 638.72,-137.87 659.9,-129.17"/>
<polygon fill="#63b8ff" stroke="#63b8ff" points="580.65,-157.95 572.73,-164.98 583.31,-164.42 580.65,-157.95"/>
</a>
</g>
</g>
<!-- Node6&#45;&gt;Node9 -->
<g id="edge11_Node000006_Node000009" class="edge">
<title>Node6&#45;&gt;Node9</title>
<g id="a_edge11_Node000006_Node000009"><a xlink:title=" ">
<path fill="none" stroke="#63b8ff" d="M633.79,-163.91C729.04,-152.74 882.97,-134.69 958.81,-125.8"/>
<polygon fill="#63b8ff" stroke="#63b8ff" points="633.15,-160.46 623.62,-165.1 633.96,-167.41 633.15,-160.46"/>
</a>
</g>
</g>
<!-- Node6&#45;&gt;Node10 -->
<g id="edge15_Node000006_Node000010" class="edge">
<title>Node6&#45;&gt;Node10</title>
<g id="a_edge15_Node000006_Node000010"><a xlink:title=" ">
<path fill="none" stroke="#63b8ff" d="M613.63,-163.33C691.81,-150.5 830.81,-127.95 950,-110 1037.25,-96.86 1138.3,-82.73 1201.7,-74"/>
<polygon fill="#63b8ff" stroke="#63b8ff" points="612.78,-159.92 603.48,-164.99 613.91,-166.83 612.78,-159.92"/>
</a>
</g>
</g>
<!-- Node7&#45;&gt;Node5 -->
<g id="edge8_Node000007_Node000005" class="edge">
<title>Node7&#45;&gt;Node5</title>
<g id="a_edge8_Node000007_Node000005"><a xlink:title=" ">
<path fill="none" stroke="#63b8ff" d="M516.77,-102.76C534.06,-88.27 561.64,-67.22 589,-55 641.38,-31.61 707.4,-19.84 747.35,-14.46"/>
<polygon fill="#63b8ff" stroke="#63b8ff" points="514.04,-100.49 508.73,-109.66 518.6,-105.81 514.04,-100.49"/>
</a>
</g>
</g>
<!-- Node8&#45;&gt;Node5 -->
<g id="edge10_Node000008_Node000005" class="edge">
<title>Node8&#45;&gt;Node5</title>
<g id="a_edge10_Node000008_Node000005"><a xlink:title=" ">
<path fill="none" stroke="#63b8ff" d="M696.3,-102.3C718.21,-79.1 757.78,-37.21 774.82,-19.16"/>
<polygon fill="#63b8ff" stroke="#63b8ff" points="693.67,-99.99 689.35,-109.66 698.76,-104.79 693.67,-99.99"/>
</a>
</g>
</g>
<!-- Node9&#45;&gt;Node5 -->
<g id="edge14_Node000009_Node000005" class="edge">
<title>Node9&#45;&gt;Node5</title>
<g id="a_edge14_Node000009_Node000005"><a xlink:title=" ">
<path fill="none" stroke="#63b8ff" d="M981.45,-104.58C959.16,-91.09 923.85,-70.45 892,-55 863.13,-40.99 828.67,-27.43 806.34,-19.03"/>
<polygon fill="#63b8ff" stroke="#63b8ff" points="979.81,-107.67 990.17,-109.89 983.45,-101.7 979.81,-107.67"/>
</a>
</g>
</g>
<!-- Node9&#45;&gt;Node10 -->
<g id="edge12_Node000009_Node000010" class="edge">
<title>Node9&#45;&gt;Node10</title>
<g id="a_edge12_Node000009_Node000010"><a xlink:title=" ">
<path fill="none" stroke="#63b8ff" d="M1055.8,-107.94C1104.54,-98.01 1176.61,-83.31 1221.9,-74.08"/>
<polygon fill="#63b8ff" stroke="#63b8ff" points="1054.87,-104.56 1045.77,-109.98 1056.27,-111.42 1054.87,-104.56"/>
</a>
</g>
</g>
<!-- Node10&#45;&gt;Node5 -->
<g id="edge13_Node000010_Node000005" class="edge">
<title>Node10&#45;&gt;Node5</title>
<g id="a_edge13_Node000010_Node000005"><a xlink:title=" ">
<path fill="none" stroke="#63b8ff" d="M1185.87,-54.89C1080.19,-43.25 896.02,-22.95 818.74,-14.44"/>
<polygon fill="#63b8ff" stroke="#63b8ff" points="1185.53,-58.37 1195.85,-55.99 1186.29,-51.42 1185.53,-58.37"/>
</a>
</g>
</g>
<!-- Node11&#45;&gt;Node5 -->
<g id="edge19_Node000011_Node000005" class="edge">
<title>Node11&#45;&gt;Node5</title>
<g id="a_edge19_Node000011_Node000005"><a xlink:title=" ">
<path fill="none" stroke="#63b8ff" d="M260.98,-107.23C311.99,-93.49 401.92,-70.23 480,-55 576.02,-36.27 690.54,-21.47 747.36,-14.63"/>
<polygon fill="#63b8ff" stroke="#63b8ff" points="259.75,-103.94 251.01,-109.93 261.58,-110.69 259.75,-103.94"/>
</a>
</g>
</g>
<!-- Node12&#45;&gt;Node5 -->
<g id="edge22_Node000012_Node000005" class="edge">
<title>Node12&#45;&gt;Node5</title>
<g id="a_edge22_Node000012_Node000005"><a xlink:title=" ">
<path fill="none" stroke="#63b8ff" d="M77.47,-154.91C83.61,-127.78 99.2,-78.06 134,-55 185.25,-21.04 618.86,-12.66 747.3,-10.91"/>
<polygon fill="#63b8ff" stroke="#63b8ff" points="74.04,-154.21 75.44,-164.71 80.89,-155.62 74.04,-154.21"/>
</a>
</g>
</g>
<!-- Node12&#45;&gt;Node11 -->
<g id="edge21_Node000012_Node000011" class="edge">
<title>Node12&#45;&gt;Node11</title>
<g id="a_edge21_Node000012_Node000011"><a xlink:title=" ">
<path fill="none" stroke="#63b8ff" d="M106.92,-161.55C134.03,-151.71 171.83,-137.98 196.12,-129.17"/>
<polygon fill="#63b8ff" stroke="#63b8ff" points="105.66,-158.28 97.46,-164.98 108.05,-164.86 105.66,-158.28"/>
</a>
</g>
</g>
<!-- Node13&#45;&gt;Node5 -->
<g id="edge24_Node000013_Node000005" class="edge">
<title>Node13&#45;&gt;Node5</title>
<g id="a_edge24_Node000013_Node000005"><a xlink:title=" ">
<path fill="none" stroke="#63b8ff" d="M767.11,-154.37C771.02,-119.03 779.21,-44.79 782.03,-19.31"/>
<polygon fill="#63b8ff" stroke="#63b8ff" points="763.59,-154.41 765.97,-164.74 770.54,-155.18 763.59,-154.41"/>
</a>
</g>
</g>
<!-- Node14&#45;&gt;Node3 -->
<g id="edge30_Node000014_Node000003" class="edge">
<title>Node14&#45;&gt;Node3</title>
<g id="a_edge30_Node000014_Node000003"><a xlink:title=" ">
<path fill="none" stroke="#63b8ff" d="M664.22,-274.42C581.56,-264.12 448.25,-247.49 371.53,-237.92"/>
<polygon fill="#63b8ff" stroke="#63b8ff" points="663.93,-277.92 674.29,-275.68 664.8,-270.97 663.93,-277.92"/>
</a>
</g>
</g>
<!-- Node14&#45;&gt;Node4 -->
<g id="edge31_Node000014_Node000004" class="edge">
<title>Node14&#45;&gt;Node4</title>
<g id="a_edge31_Node000014_Node000004"><a xlink:title=" ">
<path fill="none" stroke="#63b8ff" d="M667.54,-273.22C629.56,-266.23 582.19,-255.24 542,-239 466.42,-208.46 386.2,-150.84 357.24,-129.1"/>
<polygon fill="#63b8ff" stroke="#63b8ff" points="667.03,-276.68 677.49,-275 668.26,-269.79 667.03,-276.68"/>
</a>
</g>
</g>
<!-- Node14&#45;&gt;Node5 -->
<g id="edge48_Node000014_Node000005" class="edge">
<title>Node14&#45;&gt;Node5</title>
<g id="a_edge48_Node000014_Node000005"><a xlink:title=" ">
<path fill="none" stroke="#63b8ff" d="M746.94,-265.71C754.78,-252.43 766.45,-234.21 779,-220 795.27,-201.57 810.73,-206.34 821,-184 848.19,-124.89 804.74,-45.35 788.63,-19.22"/>
<polygon fill="#63b8ff" stroke="#63b8ff" points="743.69,-264.34 741.74,-274.75 749.76,-267.82 743.69,-264.34"/>
</a>
</g>
</g>
<!-- Node14&#45;&gt;Node6 -->
<g id="edge32_Node000014_Node000006" class="edge">
<title>Node14&#45;&gt;Node6</title>
<g id="a_edge32_Node000014_Node000006"><a xlink:title=" ">
<path fill="none" stroke="#63b8ff" d="M713.14,-269.57C674.28,-246.89 598.48,-202.64 566.64,-184.05"/>
<polygon fill="#63b8ff" stroke="#63b8ff" points="711.77,-272.83 722.17,-274.84 715.3,-266.78 711.77,-272.83"/>
</a>
</g>
</g>
<!-- Node14&#45;&gt;Node7 -->
<g id="edge33_Node000014_Node000007" class="edge">
<title>Node14&#45;&gt;Node7</title>
<g id="a_edge33_Node000014_Node000007"><a xlink:title=" ">
<path fill="none" stroke="#63b8ff" d="M699.21,-271.93C629.28,-250.15 485.5,-203.49 472,-184 459.72,-166.27 478.06,-142.08 490.03,-129.28"/>
<polygon fill="#63b8ff" stroke="#63b8ff" points="698.38,-275.34 708.97,-274.96 700.46,-268.65 698.38,-275.34"/>
</a>
</g>
</g>
<!-- Node14&#45;&gt;Node8 -->
<g id="edge44_Node000014_Node000008" class="edge">
<title>Node14&#45;&gt;Node8</title>
<g id="a_edge44_Node000014_Node000008"><a xlink:title=" ">
<path fill="none" stroke="#63b8ff" d="M730.58,-264.83C718.51,-229.67 692.82,-154.9 684.03,-129.31"/>
<polygon fill="#63b8ff" stroke="#63b8ff" points="727.43,-266.42 733.99,-274.74 734.05,-264.14 727.43,-266.42"/>
</a>
</g>
</g>
<!-- Node14&#45;&gt;Node11 -->
<g id="edge34_Node000014_Node000011" class="edge">
<title>Node14&#45;&gt;Node11</title>
<g id="a_edge34_Node000014_Node000011"><a xlink:title=" ">
<path fill="none" stroke="#63b8ff" d="M664.43,-274.31C616.3,-267.18 552.1,-255.67 497,-239 394.37,-207.95 278.48,-150.64 236.38,-129.04"/>
<polygon fill="#63b8ff" stroke="#63b8ff" points="664.04,-277.79 674.44,-275.76 665.05,-270.86 664.04,-277.79"/>
</a>
</g>
</g>
<!-- Node14&#45;&gt;Node12 -->
<g id="edge43_Node000014_Node000012" class="edge">
<title>Node14&#45;&gt;Node12</title>
<g id="a_edge43_Node000014_Node000012"><a xlink:title=" ">
<path fill="none" stroke="#63b8ff" d="M664.14,-283.04C566.92,-281.04 389.95,-272.58 243,-239 185.86,-225.94 122.02,-198.08 91.76,-184.01"/>
<polygon fill="#63b8ff" stroke="#63b8ff" points="664.1,-286.54 674.16,-283.23 664.23,-279.54 664.1,-286.54"/>
</a>
</g>
</g>
<!-- Node14&#45;&gt;Node13 -->
<g id="edge47_Node000014_Node000013" class="edge">
<title>Node14&#45;&gt;Node13</title>
<g id="a_edge47_Node000014_Node000013"><a xlink:title=" ">
<path fill="none" stroke="#63b8ff" d="M738.39,-264.42C739.63,-251.67 741.92,-234.62 746,-220 749.61,-207.05 756.13,-192.91 760.51,-184.12"/>
<polygon fill="#63b8ff" stroke="#63b8ff" points="734.87,-264.46 737.51,-274.72 741.85,-265.06 734.87,-264.46"/>
</a>
</g>
</g>
<!-- Node14&#45;&gt;Node15 -->
<g id="edge35_Node000014_Node000015" class="edge">
<title>Node14&#45;&gt;Node15</title>
<g id="a_edge35_Node000014_Node000015"><a xlink:title=" ">
<path fill="none" stroke="#63b8ff" d="M809.98,-275.49C868.16,-268.3 951.45,-256.22 1023,-239 1086.27,-223.78 1158.59,-197.51 1194.05,-184.03"/>
<polygon fill="#63b8ff" stroke="#63b8ff" points="809.28,-272.04 799.78,-276.73 810.13,-278.99 809.28,-272.04"/>
</a>
</g>
</g>
<!-- Node14&#45;&gt;Node16 -->
<g id="edge38_Node000014_Node000016" class="edge">
<title>Node14&#45;&gt;Node16</title>
<g id="a_edge38_Node000014_Node000016"><a xlink:title=" ">
<path fill="none" stroke="#63b8ff" d="M809.49,-274.56C893.42,-264.22 1030.06,-247.38 1107.86,-237.79"/>
<polygon fill="#63b8ff" stroke="#63b8ff" points="809.02,-271.1 799.53,-275.79 809.88,-278.04 809.02,-271.1"/>
</a>
</g>
</g>
<!-- Node14&#45;&gt;Node18 -->
<g id="edge45_Node000014_Node000018" class="edge">
<title>Node14&#45;&gt;Node18</title>
<g id="a_edge45_Node000014_Node000018"><a xlink:title=" ">
<path fill="none" stroke="#63b8ff" d="M761,-269.97C778.19,-260.28 800.81,-247.52 815.62,-239.17"/>
<polygon fill="#63b8ff" stroke="#63b8ff" points="759.09,-267.02 752.1,-274.98 762.53,-273.12 759.09,-267.02"/>
</a>
</g>
</g>
<!-- Node14&#45;&gt;Node19 -->
<g id="edge49_Node000014_Node000019" class="edge">
<title>Node14&#45;&gt;Node19</title>
<g id="a_edge49_Node000014_Node000019"><a xlink:title=" ">
<path fill="none" stroke="#63b8ff" d="M781.57,-272.56C822.02,-262.64 880.87,-248.2 918.02,-239.08"/>
<polygon fill="#63b8ff" stroke="#63b8ff" points="780.58,-269.2 771.7,-274.98 782.25,-276 780.58,-269.2"/>
</a>
</g>
</g>
<!-- Node15&#45;&gt;Node5 -->
<g id="edge37_Node000015_Node000005" class="edge">
<title>Node15&#45;&gt;Node5</title>
<g id="a_edge37_Node000015_Node000005"><a xlink:title=" ">
<path fill="none" stroke="#63b8ff" d="M1210.51,-155.06C1201.45,-128.12 1180.61,-78.66 1144,-55 1090.76,-20.6 899.03,-12.79 818.75,-11.02"/>
<polygon fill="#63b8ff" stroke="#63b8ff" points="1207.24,-156.31 1213.6,-164.78 1213.91,-154.19 1207.24,-156.31"/>
</a>
</g>
</g>
<!-- Node15&#45;&gt;Node10 -->
<g id="edge36_Node000015_Node000010" class="edge">
<title>Node15&#45;&gt;Node10</title>
<g id="a_edge36_Node000015_Node000010"><a xlink:title=" ">
<path fill="none" stroke="#63b8ff" d="M1224.03,-155.44C1234.48,-131.92 1252.34,-91.73 1260.15,-74.16"/>
<polygon fill="#63b8ff" stroke="#63b8ff" points="1220.79,-154.1 1219.93,-164.66 1227.19,-156.95 1220.79,-154.1"/>
</a>
</g>
</g>
<!-- Node16&#45;&gt;Node5 -->
<g id="edge40_Node000016_Node000005" class="edge">
<title>Node16&#45;&gt;Node5</title>
<g id="a_edge40_Node000016_Node000005"><a xlink:title=" ">
<path fill="none" stroke="#63b8ff" d="M1155.32,-211.66C1137.12,-186.51 1099.71,-138.97 1058,-110 981.69,-57 873.95,-28.93 818.71,-17.23"/>
<polygon fill="#63b8ff" stroke="#63b8ff" points="1152.49,-213.72 1161.13,-219.84 1158.2,-209.66 1152.49,-213.72"/>
</a>
</g>
</g>
<!-- Node16&#45;&gt;Node15 -->
<g id="edge39_Node000016_Node000015" class="edge">
<title>Node16&#45;&gt;Node15</title>
<g id="a_edge39_Node000016_Node000015"><a xlink:title=" ">
<path fill="none" stroke="#63b8ff" d="M1182.03,-212.24C1190.62,-202.95 1201.04,-191.68 1208.06,-184.09"/>
<polygon fill="#63b8ff" stroke="#63b8ff" points="1179.31,-210.03 1175.09,-219.75 1184.45,-214.78 1179.31,-210.03"/>
</a>
</g>
</g>
<!-- Node16&#45;&gt;Node17 -->
<g id="edge41_Node000016_Node000017" class="edge">
<title>Node16&#45;&gt;Node17</title>
<g id="a_edge41_Node000016_Node000017"><a xlink:title=" ">
<path fill="none" stroke="#63b8ff" d="M1218.8,-217.94C1267.54,-208.01 1339.61,-193.31 1384.9,-184.08"/>
<polygon fill="#63b8ff" stroke="#63b8ff" points="1217.87,-214.56 1208.77,-219.98 1219.27,-221.42 1217.87,-214.56"/>
</a>
</g>
</g>
<!-- Node17&#45;&gt;Node5 -->
<g id="edge42_Node000017_Node000005" class="edge">
<title>Node17&#45;&gt;Node5</title>
<g id="a_edge42_Node000017_Node000005"><a xlink:title=" ">
<path fill="none" stroke="#63b8ff" d="M1419.86,-155.53C1408.01,-128.39 1381.51,-77.73 1341,-55 1295.55,-29.5 934.51,-15.49 818.65,-11.62"/>
<polygon fill="#63b8ff" stroke="#63b8ff" points="1416.71,-157.09 1423.8,-164.97 1423.17,-154.39 1416.71,-157.09"/>
</a>
</g>
</g>
<!-- Node18&#45;&gt;Node5 -->
<g id="edge46_Node000018_Node000005" class="edge">
<title>Node18&#45;&gt;Node5</title>
<g id="a_edge46_Node000018_Node000005"><a xlink:title=" ">
<path fill="none" stroke="#63b8ff" d="M842.42,-211.15C846.98,-203.22 851.69,-193.49 854,-184 856,-175.79 855.4,-173.33 854,-165 845.44,-113.99 840.13,-100.75 816,-55 808.91,-41.56 798,-27.76 790.69,-19.16"/>
<polygon fill="#63b8ff" stroke="#63b8ff" points="839.36,-209.45 837.1,-219.8 845.32,-213.11 839.36,-209.45"/>
</a>
</g>
</g>
<!-- Node20 -->
<g id="Node000020" class="node">
<title>Node20</title>
<g id="a_Node000020"><a xlink:href="CO__storageEeprom_8h.html" target="_top" xlink:title="CANopen data storage object for storing data into block device (eeprom)">
<polygon fill="white" stroke="#666666" points="1064.5,-184 905.5,-184 905.5,-165 1064.5,-165 1064.5,-184"/>
<text text-anchor="middle" x="985" y="-172" font-family="Helvetica,sans-Serif" font-size="10.00">storage/CO_storageEeprom.h</text>
</a>
</g>
</g>
<!-- Node19&#45;&gt;Node20 -->
<g id="edge50_Node000019_Node000020" class="edge">
<title>Node19&#45;&gt;Node20</title>
<g id="a_edge50_Node000019_Node000020"><a xlink:title=" ">
<path fill="none" stroke="#63b8ff" d="M963.5,-211.1C968.97,-202.04 975.42,-191.37 979.81,-184.09"/>
<polygon fill="#63b8ff" stroke="#63b8ff" points="960.46,-209.38 958.28,-219.75 966.45,-213 960.46,-209.38"/>
</a>
</g>
</g>
<!-- Node21&#45;&gt;Node10 -->
<g id="edge57_Node000021_Node000010" class="edge">
<title>Node21&#45;&gt;Node10</title>
<g id="a_edge57_Node000021_Node000010"><a xlink:title=" ">
<path fill="none" stroke="#63b8ff" d="M1317.29,-210.28C1304.43,-175.32 1276.7,-100.01 1267.24,-74.31"/>
<polygon fill="#63b8ff" stroke="#63b8ff" points="1314.04,-211.56 1320.77,-219.74 1320.6,-209.14 1314.04,-211.56"/>
</a>
</g>
</g>
<!-- Node21&#45;&gt;Node15 -->
<g id="edge56_Node000021_Node000015" class="edge">
<title>Node21&#45;&gt;Node15</title>
<g id="a_edge56_Node000021_Node000015"><a xlink:title=" ">
<path fill="none" stroke="#63b8ff" d="M1297.51,-215.5C1277.64,-205.75 1251,-192.68 1233.67,-184.17"/>
<polygon fill="#63b8ff" stroke="#63b8ff" points="1296.13,-218.72 1306.65,-219.98 1299.21,-212.44 1296.13,-218.72"/>
</a>
</g>
</g>
<!-- Node24 -->
<g id="Node000024" class="node">
<title>Node24</title>
<g id="a_Node000024"><a xlink:href="CO__LSSmaster_8h.html" target="_top" xlink:title="CANopen Layer Setting Service &#45; master protocol.">
<polygon fill="white" stroke="#666666" points="1534,-129 1416,-129 1416,-110 1534,-110 1534,-129"/>
<text text-anchor="middle" x="1475" y="-117" font-family="Helvetica,sans-Serif" font-size="10.00">305/CO_LSSmaster.h</text>
</a>
</g>
</g>
<!-- Node23&#45;&gt;Node24 -->
<g id="edge62_Node000023_Node000024" class="edge">
<title>Node23&#45;&gt;Node24</title>
<g id="a_edge62_Node000023_Node000024"><a xlink:title=" ">
<path fill="none" stroke="#63b8ff" d="M1539.34,-159.7C1523.49,-150.04 1502.81,-137.44 1489.23,-129.17"/>
<polygon fill="#63b8ff" stroke="#63b8ff" points="1537.66,-162.77 1548.02,-164.98 1541.3,-156.79 1537.66,-162.77"/>
</a>
</g>
</g>
<!-- Node25 -->
<g id="Node000025" class="node">
<title>Node25</title>
<g id="a_Node000025"><a xlink:href="CO__LSSslave_8h.html" target="_top" xlink:title="CANopen Layer Setting Service &#45; slave protocol.">
<polygon fill="white" stroke="#666666" points="1602,-74 1492,-74 1492,-55 1602,-55 1602,-74"/>
<text text-anchor="middle" x="1547" y="-62" font-family="Helvetica,sans-Serif" font-size="10.00">305/CO_LSSslave.h</text>
</a>
</g>
</g>
<!-- Node23&#45;&gt;Node25 -->
<g id="edge65_Node000023_Node000025" class="edge">
<title>Node23&#45;&gt;Node25</title>
<g id="a_edge65_Node000023_Node000025"><a xlink:title=" ">
<path fill="none" stroke="#63b8ff" d="M1559.36,-154.48C1556.08,-130.84 1550.61,-91.5 1548.2,-74.16"/>
<polygon fill="#63b8ff" stroke="#63b8ff" points="1555.93,-155.24 1560.77,-164.66 1562.86,-154.28 1555.93,-155.24"/>
</a>
</g>
</g>
<!-- Node24&#45;&gt;Node5 -->
<g id="edge64_Node000024_Node000005" class="edge">
<title>Node24&#45;&gt;Node5</title>
<g id="a_edge64_Node000024_Node000005"><a xlink:title=" ">
<path fill="none" stroke="#63b8ff" d="M1461.6,-101.88C1448.27,-86.69 1426.34,-65.12 1402,-55 1295.42,-10.71 933.67,-9.38 818.52,-10.13"/>
<polygon fill="#63b8ff" stroke="#63b8ff" points="1458.95,-104.17 1468.08,-109.54 1464.3,-99.65 1458.95,-104.17"/>
</a>
</g>
</g>
<!-- Node24&#45;&gt;Node10 -->
<g id="edge63_Node000024_Node000010" class="edge">
<title>Node24&#45;&gt;Node10</title>
<g id="a_edge63_Node000024_Node000010"><a xlink:title=" ">
<path fill="none" stroke="#63b8ff" d="M1431.21,-107.5C1391.7,-97.58 1334.38,-83.18 1298.17,-74.08"/>
<polygon fill="#63b8ff" stroke="#63b8ff" points="1430.55,-110.94 1441.1,-109.98 1432.25,-104.15 1430.55,-110.94"/>
</a>
</g>
</g>
<!-- Node25&#45;&gt;Node5 -->
<g id="edge66_Node000025_Node000005" class="edge">
<title>Node25&#45;&gt;Node5</title>
<g id="a_edge66_Node000025_Node000005"><a xlink:title=" ">
<path fill="none" stroke="#63b8ff" d="M1481.65,-56.58C1475.69,-56.02 1469.73,-55.48 1464,-55 1217.54,-34.33 920.21,-17.78 818.85,-12.38"/>
<polygon fill="#63b8ff" stroke="#63b8ff" points="1481.38,-60.07 1491.67,-57.55 1482.05,-53.1 1481.38,-60.07"/>
</a>
</g>
</g>
</g>
</svg>
