<?xml version="1.0" encoding="UTF-8" standalone="no"?>
<!DOCTYPE svg PUBLIC "-//W3C//DTD SVG 1.1//EN"
 "http://www.w3.org/Graphics/SVG/1.1/DTD/svg11.dtd">
<!-- Generated by graphviz version 2.43.0 (0)
 -->
<!-- Title: 301/CO_NMT_Heartbeat.h Pages: 1 -->
<svg width="281pt" height="252pt"
 viewBox="0.00 0.00 280.50 252.00" xmlns="http://www.w3.org/2000/svg" xmlns:xlink="http://www.w3.org/1999/xlink">
<g id="graph0" class="graph" transform="scale(1 1) rotate(0) translate(4 248)">
<title>301/CO_NMT_Heartbeat.h</title>
<polygon fill="white" stroke="transparent" points="-4,4 -4,-248 276.5,-248 276.5,4 -4,4"/>
<!-- Node1 -->
<g id="node1" class="node">
<title>Node1</title>
<g id="a_node1"><a xlink:title="CANopen Network management and Heartbeat producer protocol.">
<polygon fill="#bfbfbf" stroke="black" points="10,-224.5 10,-243.5 153,-243.5 153,-224.5 10,-224.5"/>
<text text-anchor="middle" x="81.5" y="-231.5" font-family="Helvetica,sans-Serif" font-size="10.00">301/CO_NMT_Heartbeat.h</text>
</a>
</g>
</g>
<!-- Node2 -->
<g id="node2" class="node">
<title>Node2</title>
<g id="a_node2"><a xlink:href="CO__driver_8h.html" target="_top" xlink:title="Interface between CAN hardware and CANopenNode.">
<polygon fill="white" stroke="black" points="61,-56.5 61,-75.5 156,-75.5 156,-56.5 61,-56.5"/>
<text text-anchor="middle" x="108.5" y="-63.5" font-family="Helvetica,sans-Serif" font-size="10.00">301/CO_driver.h</text>
</a>
</g>
</g>
<!-- Node1&#45;&gt;Node2 -->
<g id="edge1" class="edge">
<title>Node1&#45;&gt;Node2</title>
<path fill="none" stroke="midnightblue" d="M73.41,-224.41C55.26,-204.04 14.55,-151.6 36.5,-112 44.59,-97.41 59.6,-86.92 73.84,-79.76"/>
<polygon fill="midnightblue" stroke="midnightblue" points="75.39,-82.9 83,-75.53 72.45,-76.55 75.39,-82.9"/>
</g>
<!-- Node6 -->
<g id="node6" class="node">
<title>Node6</title>
<g id="a_node6"><a xlink:href="CO__ODinterface_8h.html" target="_top" xlink:title="CANopen Object Dictionary interface.">
<polygon fill="white" stroke="black" points="46,-112.5 46,-131.5 171,-131.5 171,-112.5 46,-112.5"/>
<text text-anchor="middle" x="108.5" y="-119.5" font-family="Helvetica,sans-Serif" font-size="10.00">301/CO_ODinterface.h</text>
</a>
</g>
</g>
<!-- Node1&#45;&gt;Node6 -->
<g id="edge5" class="edge">
<title>Node1&#45;&gt;Node6</title>
<path fill="none" stroke="midnightblue" d="M83.62,-224.37C87.98,-206.62 98.03,-165.67 103.94,-141.6"/>
<polygon fill="midnightblue" stroke="midnightblue" points="107.41,-142.14 106.39,-131.59 100.61,-140.47 107.41,-142.14"/>
</g>
<!-- Node7 -->
<g id="node7" class="node">
<title>Node7</title>
<g id="a_node7"><a xlink:href="CO__Emergency_8h.html" target="_top" xlink:title="CANopen Emergency protocol.">
<polygon fill="white" stroke="black" points="110,-168.5 110,-187.5 229,-187.5 229,-168.5 110,-168.5"/>
<text text-anchor="middle" x="169.5" y="-175.5" font-family="Helvetica,sans-Serif" font-size="10.00">301/CO_Emergency.h</text>
</a>
</g>
</g>
<!-- Node1&#45;&gt;Node7 -->
<g id="edge7" class="edge">
<title>Node1&#45;&gt;Node7</title>
<path fill="none" stroke="midnightblue" d="M95.64,-224.32C109.37,-215.9 130.44,-202.97 146.56,-193.07"/>
<polygon fill="midnightblue" stroke="midnightblue" points="148.7,-195.87 155.4,-187.65 145.04,-189.9 148.7,-195.87"/>
</g>
<!-- Node3 -->
<g id="node3" class="node">
<title>Node3</title>
<g id="a_node3"><a xlink:title=" ">
<polygon fill="white" stroke="#bfbfbf" points="0,-0.5 0,-19.5 53,-19.5 53,-0.5 0,-0.5"/>
<text text-anchor="middle" x="26.5" y="-7.5" font-family="Helvetica,sans-Serif" font-size="10.00">string.h</text>
</a>
</g>
</g>
<!-- Node2&#45;&gt;Node3 -->
<g id="edge2" class="edge">
<title>Node2&#45;&gt;Node3</title>
<path fill="none" stroke="midnightblue" d="M95.33,-56.32C82.65,-47.98 63.27,-35.21 48.29,-25.35"/>
<polygon fill="midnightblue" stroke="midnightblue" points="49.92,-22.23 39.64,-19.65 46.07,-28.08 49.92,-22.23"/>
</g>
<!-- Node4 -->
<g id="node4" class="node">
<title>Node4</title>
<g id="a_node4"><a xlink:href="CO__config_8h.html" target="_top" xlink:title="Configuration macros for CANopenNode.">
<polygon fill="white" stroke="black" points="71,-0.5 71,-19.5 146,-19.5 146,-0.5 71,-0.5"/>
<text text-anchor="middle" x="108.5" y="-7.5" font-family="Helvetica,sans-Serif" font-size="10.00">CO_config.h</text>
</a>
</g>
</g>
<!-- Node2&#45;&gt;Node4 -->
<g id="edge3" class="edge">
<title>Node2&#45;&gt;Node4</title>
<path fill="none" stroke="midnightblue" d="M108.5,-56.08C108.5,-49.01 108.5,-38.86 108.5,-29.99"/>
<polygon fill="midnightblue" stroke="midnightblue" points="112,-29.75 108.5,-19.75 105,-29.75 112,-29.75"/>
</g>
<!-- Node5 -->
<g id="node5" class="node">
<title>Node5</title>
<g id="a_node5"><a xlink:title=" ">
<polygon fill="white" stroke="#bfbfbf" points="164.5,-0.5 164.5,-19.5 272.5,-19.5 272.5,-0.5 164.5,-0.5"/>
<text text-anchor="middle" x="218.5" y="-7.5" font-family="Helvetica,sans-Serif" font-size="10.00">CO_driver_target.h</text>
</a>
</g>
</g>
<!-- Node2&#45;&gt;Node5 -->
<g id="edge4" class="edge">
<title>Node2&#45;&gt;Node5</title>
<path fill="none" stroke="midnightblue" d="M126.17,-56.32C143.89,-47.62 171.4,-34.12 191.79,-24.11"/>
<polygon fill="midnightblue" stroke="midnightblue" points="193.44,-27.2 200.87,-19.65 190.35,-20.92 193.44,-27.2"/>
</g>
<!-- Node6&#45;&gt;Node2 -->
<g id="edge6" class="edge">
<title>Node6&#45;&gt;Node2</title>
<path fill="none" stroke="midnightblue" d="M108.5,-112.08C108.5,-105.01 108.5,-94.86 108.5,-85.99"/>
<polygon fill="midnightblue" stroke="midnightblue" points="112,-85.75 108.5,-75.75 105,-85.75 112,-85.75"/>
</g>
<!-- Node7&#45;&gt;Node2 -->
<g id="edge8" class="edge">
<title>Node7&#45;&gt;Node2</title>
<path fill="none" stroke="midnightblue" d="M174.03,-168.41C180.24,-155.38 189.52,-130.21 179.5,-112 171.61,-97.66 157.01,-87.25 143.1,-80.08"/>
<polygon fill="midnightblue" stroke="midnightblue" points="144.2,-76.73 133.66,-75.62 141.21,-83.06 144.2,-76.73"/>
</g>
<!-- Node7&#45;&gt;Node6 -->
<g id="edge9" class="edge">
<title>Node7&#45;&gt;Node6</title>
<path fill="none" stroke="midnightblue" d="M159.7,-168.32C150.68,-160.34 137.09,-148.31 126.18,-138.65"/>
<polygon fill="midnightblue" stroke="midnightblue" points="128.29,-135.84 118.48,-131.83 123.65,-141.08 128.29,-135.84"/>
</g>
</g>
</svg>
