<?xml version="1.0" encoding="UTF-8" standalone="no"?>
<!DOCTYPE svg PUBLIC "-//W3C//DTD SVG 1.1//EN"
 "http://www.w3.org/Graphics/SVG/1.1/DTD/svg11.dtd">
<!-- Generated by graphviz version 2.43.0 (0)
 -->
<!-- Title: 301/CO_Emergency.h Pages: 1 -->
<svg width="690pt" height="252pt"
 viewBox="0.00 0.00 689.50 252.00" xmlns="http://www.w3.org/2000/svg" xmlns:xlink="http://www.w3.org/1999/xlink">
<g id="graph0" class="graph" transform="scale(1 1) rotate(0) translate(4 248)">
<title>301/CO_Emergency.h</title>
<polygon fill="white" stroke="transparent" points="-4,4 -4,-248 685.5,-248 685.5,4 -4,4"/>
<!-- Node1 -->
<g id="node1" class="node">
<title>Node1</title>
<g id="a_node1"><a xlink:title="CANopen Emergency protocol.">
<polygon fill="#bfbfbf" stroke="black" points="422.5,-224.5 422.5,-243.5 541.5,-243.5 541.5,-224.5 422.5,-224.5"/>
<text text-anchor="middle" x="482" y="-231.5" font-family="Helvetica,sans-Serif" font-size="10.00">301/CO_Emergency.h</text>
</a>
</g>
</g>
<!-- Node2 -->
<g id="node2" class="node">
<title>Node2</title>
<g id="a_node2"><a xlink:href="CO__NMT__Heartbeat_8h.html" target="_top" xlink:title="CANopen Network management and Heartbeat producer protocol.">
<polygon fill="white" stroke="black" points="230.5,-168.5 230.5,-187.5 373.5,-187.5 373.5,-168.5 230.5,-168.5"/>
<text text-anchor="middle" x="302" y="-175.5" font-family="Helvetica,sans-Serif" font-size="10.00">301/CO_NMT_Heartbeat.h</text>
</a>
</g>
</g>
<!-- Node1&#45;&gt;Node2 -->
<g id="edge1" class="edge">
<title>Node1&#45;&gt;Node2</title>
<path fill="none" stroke="midnightblue" d="M443.89,-221.57C409.94,-211.38 361.01,-196.7 330.39,-187.52"/>
<polygon fill="midnightblue" stroke="midnightblue" points="442.89,-224.92 453.48,-224.44 444.91,-218.22 442.89,-224.92"/>
</g>
<!-- Node3 -->
<g id="node3" class="node">
<title>Node3</title>
<g id="a_node3"><a xlink:href="CANopen_8h.html" target="_top" xlink:title="Main CANopenNode file.">
<polygon fill="white" stroke="black" points="304.5,-0.5 304.5,-19.5 375.5,-19.5 375.5,-0.5 304.5,-0.5"/>
<text text-anchor="middle" x="340" y="-7.5" font-family="Helvetica,sans-Serif" font-size="10.00">CANopen.h</text>
</a>
</g>
</g>
<!-- Node1&#45;&gt;Node3 -->
<g id="edge16" class="edge">
<title>Node1&#45;&gt;Node3</title>
<path fill="none" stroke="midnightblue" d="M492.49,-215.22C511.34,-180.7 545.72,-103.78 509,-56 492.86,-35 420.2,-21.72 375.57,-15.39"/>
<polygon fill="midnightblue" stroke="midnightblue" points="489.32,-213.71 487.44,-224.14 495.42,-217.16 489.32,-213.71"/>
</g>
<!-- Node4 -->
<g id="node4" class="node">
<title>Node4</title>
<g id="a_node4"><a xlink:href="CO__HBconsumer_8h.html" target="_top" xlink:title="CANopen Heartbeat consumer protocol.">
<polygon fill="white" stroke="black" points="0,-112.5 0,-131.5 128,-131.5 128,-112.5 0,-112.5"/>
<text text-anchor="middle" x="64" y="-119.5" font-family="Helvetica,sans-Serif" font-size="10.00">301/CO_HBconsumer.h</text>
</a>
</g>
</g>
<!-- Node1&#45;&gt;Node4 -->
<g id="edge15" class="edge">
<title>Node1&#45;&gt;Node4</title>
<path fill="none" stroke="midnightblue" d="M412.33,-225.26C359.21,-218.34 284.59,-206.4 221,-188 168.29,-172.75 109.3,-145.35 80.97,-131.5"/>
<polygon fill="midnightblue" stroke="midnightblue" points="411.96,-228.74 422.33,-226.54 412.85,-221.8 411.96,-228.74"/>
</g>
<!-- Node8 -->
<g id="node8" class="node">
<title>Node8</title>
<g id="a_node8"><a xlink:href="CO__SRDO_8h.html" target="_top" xlink:title="CANopen Safety Related Data Object protocol.">
<polygon fill="white" stroke="black" points="387,-112.5 387,-131.5 481,-131.5 481,-112.5 387,-112.5"/>
<text text-anchor="middle" x="434" y="-119.5" font-family="Helvetica,sans-Serif" font-size="10.00">304/CO_SRDO.h</text>
</a>
</g>
</g>
<!-- Node1&#45;&gt;Node8 -->
<g id="edge22" class="edge">
<title>Node1&#45;&gt;Node8</title>
<path fill="none" stroke="midnightblue" d="M474.14,-215C463.67,-191 445.55,-149.47 437.75,-131.59"/>
<polygon fill="midnightblue" stroke="midnightblue" points="471.03,-216.6 478.23,-224.37 477.44,-213.8 471.03,-216.6"/>
</g>
<!-- Node10 -->
<g id="node10" class="node">
<title>Node10</title>
<g id="a_node10"><a xlink:href="CO__SYNC_8h.html" target="_top" xlink:title="CANopen Synchronisation protocol.">
<polygon fill="white" stroke="black" points="533,-168.5 533,-187.5 625,-187.5 625,-168.5 533,-168.5"/>
<text text-anchor="middle" x="579" y="-175.5" font-family="Helvetica,sans-Serif" font-size="10.00">301/CO_SYNC.h</text>
</a>
</g>
</g>
<!-- Node1&#45;&gt;Node10 -->
<g id="edge17" class="edge">
<title>Node1&#45;&gt;Node10</title>
<path fill="none" stroke="midnightblue" d="M506.34,-219.45C524.24,-209.48 548.05,-196.23 563.45,-187.65"/>
<polygon fill="midnightblue" stroke="midnightblue" points="504.62,-216.4 497.58,-224.32 508.02,-222.52 504.62,-216.4"/>
</g>
<!-- Node11 -->
<g id="node11" class="node">
<title>Node11</title>
<g id="a_node11"><a xlink:href="CO__PDO_8h.html" target="_top" xlink:title="CANopen Process Data Object protocol.">
<polygon fill="white" stroke="black" points="594.5,-112.5 594.5,-131.5 681.5,-131.5 681.5,-112.5 594.5,-112.5"/>
<text text-anchor="middle" x="638" y="-119.5" font-family="Helvetica,sans-Serif" font-size="10.00">301/CO_PDO.h</text>
</a>
</g>
</g>
<!-- Node1&#45;&gt;Node11 -->
<g id="edge21" class="edge">
<title>Node1&#45;&gt;Node11</title>
<path fill="none" stroke="midnightblue" d="M551.6,-229.62C581.62,-224.36 614.29,-212.76 634,-188 646.95,-171.72 643.35,-145.26 640.3,-131.67"/>
<polygon fill="midnightblue" stroke="midnightblue" points="550.9,-226.19 541.55,-231.17 551.96,-233.11 550.9,-226.19"/>
</g>
<!-- Node2&#45;&gt;Node3 -->
<g id="edge2" class="edge">
<title>Node2&#45;&gt;Node3</title>
<path fill="none" stroke="midnightblue" d="M306.37,-157.93C314.61,-121.92 332.16,-45.23 338.04,-19.57"/>
<polygon fill="midnightblue" stroke="midnightblue" points="302.86,-157.55 304.04,-168.08 309.69,-159.11 302.86,-157.55"/>
</g>
<!-- Node2&#45;&gt;Node4 -->
<g id="edge3" class="edge">
<title>Node2&#45;&gt;Node4</title>
<path fill="none" stroke="midnightblue" d="M254.48,-166.22C209.5,-156.01 142.9,-140.9 101.54,-131.52"/>
<polygon fill="midnightblue" stroke="midnightblue" points="253.76,-169.64 264.29,-168.44 255.31,-162.82 253.76,-169.64"/>
</g>
<!-- Node5 -->
<g id="node5" class="node">
<title>Node5</title>
<g id="a_node5"><a xlink:href="CO__TIME_8h.html" target="_top" xlink:title="CANopen Time&#45;stamp protocol.">
<polygon fill="white" stroke="black" points="30,-56.5 30,-75.5 120,-75.5 120,-56.5 30,-56.5"/>
<text text-anchor="middle" x="75" y="-63.5" font-family="Helvetica,sans-Serif" font-size="10.00">301/CO_TIME.h</text>
</a>
</g>
</g>
<!-- Node2&#45;&gt;Node5 -->
<g id="edge5" class="edge">
<title>Node2&#45;&gt;Node5</title>
<path fill="none" stroke="midnightblue" d="M261.97,-165.49C236.46,-157.51 203.06,-145.85 175,-132 140.83,-115.14 104.12,-88.94 86.17,-75.53"/>
<polygon fill="midnightblue" stroke="midnightblue" points="261.09,-168.88 271.68,-168.47 263.14,-162.19 261.09,-168.88"/>
</g>
<!-- Node6 -->
<g id="node6" class="node">
<title>Node6</title>
<g id="a_node6"><a xlink:href="CO__LEDs_8h.html" target="_top" xlink:title="CANopen Indicator specification (CiA 303&#45;3 v1.4.0)">
<polygon fill="white" stroke="black" points="184,-112.5 184,-131.5 274,-131.5 274,-112.5 184,-112.5"/>
<text text-anchor="middle" x="229" y="-119.5" font-family="Helvetica,sans-Serif" font-size="10.00">303/CO_LEDs.h</text>
</a>
</g>
</g>
<!-- Node2&#45;&gt;Node6 -->
<g id="edge7" class="edge">
<title>Node2&#45;&gt;Node6</title>
<path fill="none" stroke="midnightblue" d="M281.86,-162.1C268.72,-152.38 252.02,-140.03 240.94,-131.83"/>
<polygon fill="midnightblue" stroke="midnightblue" points="280.15,-165.19 290.27,-168.32 284.31,-159.56 280.15,-165.19"/>
</g>
<!-- Node7 -->
<g id="node7" class="node">
<title>Node7</title>
<g id="a_node7"><a xlink:href="CO__gateway__ascii_8h.html" target="_top" xlink:title="CANopen access from other networks &#45; ASCII mapping (CiA 309&#45;3 DS v3.0.0)">
<polygon fill="white" stroke="black" points="176,-56.5 176,-75.5 312,-75.5 312,-56.5 176,-56.5"/>
<text text-anchor="middle" x="244" y="-63.5" font-family="Helvetica,sans-Serif" font-size="10.00">309/CO_gateway_ascii.h</text>
</a>
</g>
</g>
<!-- Node2&#45;&gt;Node7 -->
<g id="edge14" class="edge">
<title>Node2&#45;&gt;Node7</title>
<path fill="none" stroke="midnightblue" d="M298.72,-158.14C295.87,-144.7 290.92,-126.52 283,-112 275.28,-97.84 262.49,-84.23 253.67,-75.75"/>
<polygon fill="midnightblue" stroke="midnightblue" points="295.32,-158.97 300.65,-168.13 302.19,-157.65 295.32,-158.97"/>
</g>
<!-- Node2&#45;&gt;Node8 -->
<g id="edge11" class="edge">
<title>Node2&#45;&gt;Node8</title>
<path fill="none" stroke="midnightblue" d="M332.22,-164.64C356.99,-154.5 391.4,-140.43 413.18,-131.52"/>
<polygon fill="midnightblue" stroke="midnightblue" points="330.85,-161.42 322.92,-168.44 333.5,-167.9 330.85,-161.42"/>
</g>
<!-- Node4&#45;&gt;Node3 -->
<g id="edge4" class="edge">
<title>Node4&#45;&gt;Node3</title>
<path fill="none" stroke="midnightblue" d="M42.96,-106.17C26.04,-92.47 7.2,-71.89 21,-56 57.41,-14.1 229.15,-10.12 304.46,-10.45"/>
<polygon fill="midnightblue" stroke="midnightblue" points="40.89,-108.99 50.95,-112.29 45.14,-103.43 40.89,-108.99"/>
</g>
<!-- Node5&#45;&gt;Node3 -->
<g id="edge6" class="edge">
<title>Node5&#45;&gt;Node3</title>
<path fill="none" stroke="midnightblue" d="M127.07,-54.39C179.36,-43.73 258.53,-27.6 304.16,-18.3"/>
<polygon fill="midnightblue" stroke="midnightblue" points="126.09,-51.02 116.99,-56.44 127.49,-57.88 126.09,-51.02"/>
</g>
<!-- Node6&#45;&gt;Node3 -->
<g id="edge8" class="edge">
<title>Node6&#45;&gt;Node3</title>
<path fill="none" stroke="midnightblue" d="M201.01,-107.7C178.25,-95.06 152.16,-75.19 167,-56 183.66,-34.46 258.78,-21.3 304.38,-15.16"/>
<polygon fill="midnightblue" stroke="midnightblue" points="199.63,-110.93 210.11,-112.49 202.89,-104.73 199.63,-110.93"/>
</g>
<!-- Node6&#45;&gt;Node7 -->
<g id="edge9" class="edge">
<title>Node6&#45;&gt;Node7</title>
<path fill="none" stroke="midnightblue" d="M234.17,-102.4C236.68,-93.36 239.57,-82.94 241.57,-75.75"/>
<polygon fill="midnightblue" stroke="midnightblue" points="230.78,-101.51 231.48,-112.08 237.53,-103.38 230.78,-101.51"/>
</g>
<!-- Node7&#45;&gt;Node3 -->
<g id="edge10" class="edge">
<title>Node7&#45;&gt;Node3</title>
<path fill="none" stroke="midnightblue" d="M268.57,-51.18C286.24,-41.24 309.51,-28.15 324.61,-19.65"/>
<polygon fill="midnightblue" stroke="midnightblue" points="266.42,-48.37 259.42,-56.32 269.86,-54.47 266.42,-48.37"/>
</g>
<!-- Node8&#45;&gt;Node3 -->
<g id="edge12" class="edge">
<title>Node8&#45;&gt;Node3</title>
<path fill="none" stroke="midnightblue" d="M419.97,-104.59C399.71,-80.87 362.96,-37.87 347.34,-19.59"/>
<polygon fill="midnightblue" stroke="midnightblue" points="417.47,-107.04 426.62,-112.37 422.79,-102.49 417.47,-107.04"/>
</g>
<!-- Node9 -->
<g id="node9" class="node">
<title>Node9</title>
<g id="a_node9"><a xlink:href="CO__SRDO_8c.html" target="_top" xlink:title="CANopen Safety Related Data Object protocol.">
<polygon fill="white" stroke="black" points="406.5,-56.5 406.5,-75.5 499.5,-75.5 499.5,-56.5 406.5,-56.5"/>
<text text-anchor="middle" x="453" y="-63.5" font-family="Helvetica,sans-Serif" font-size="10.00">304/CO_SRDO.c</text>
</a>
</g>
</g>
<!-- Node8&#45;&gt;Node9 -->
<g id="edge13" class="edge">
<title>Node8&#45;&gt;Node9</title>
<path fill="none" stroke="midnightblue" d="M440.55,-102.4C443.72,-93.36 447.39,-82.94 449.92,-75.75"/>
<polygon fill="midnightblue" stroke="midnightblue" points="437.15,-101.49 437.14,-112.08 443.76,-103.81 437.15,-101.49"/>
</g>
<!-- Node10&#45;&gt;Node3 -->
<g id="edge18" class="edge">
<title>Node10&#45;&gt;Node3</title>
<path fill="none" stroke="midnightblue" d="M578.81,-158.19C577.48,-131.46 570.93,-82.77 542,-56 518.13,-33.92 427.04,-20.57 375.71,-14.64"/>
<polygon fill="midnightblue" stroke="midnightblue" points="575.32,-158.58 579.12,-168.47 582.32,-158.37 575.32,-158.58"/>
</g>
<!-- Node10&#45;&gt;Node11 -->
<g id="edge19" class="edge">
<title>Node10&#45;&gt;Node11</title>
<path fill="none" stroke="midnightblue" d="M595.89,-161.54C606.41,-151.91 619.57,-139.87 628.35,-131.83"/>
<polygon fill="midnightblue" stroke="midnightblue" points="593.49,-158.99 588.48,-168.32 598.22,-164.15 593.49,-158.99"/>
</g>
<!-- Node11&#45;&gt;Node3 -->
<g id="edge20" class="edge">
<title>Node11&#45;&gt;Node3</title>
<path fill="none" stroke="midnightblue" d="M627.38,-103.73C617.16,-88.65 600.29,-67.45 580,-56 514.65,-19.12 424.94,-11.73 375.79,-10.68"/>
<polygon fill="midnightblue" stroke="midnightblue" points="624.48,-105.69 632.86,-112.18 630.36,-101.88 624.48,-105.69"/>
</g>
</g>
</svg>
