<?xml version="1.0" encoding="UTF-8" standalone="no"?>
<!DOCTYPE svg PUBLIC "-//W3C//DTD SVG 1.1//EN"
 "http://www.w3.org/Graphics/SVG/1.1/DTD/svg11.dtd">
<!-- Generated by graphviz version 2.43.0 (0)
 -->
<!-- Title: 301/CO_config.h Pages: 1 -->
<svg width="1800pt" height="420pt"
 viewBox="0.00 0.00 1800.00 420.00" xmlns="http://www.w3.org/2000/svg" xmlns:xlink="http://www.w3.org/1999/xlink">
<g id="graph0" class="graph" transform="scale(1 1) rotate(0) translate(4 416)">
<title>301/CO_config.h</title>
<polygon fill="white" stroke="transparent" points="-4,4 -4,-416 1796,-416 1796,4 -4,4"/>
<!-- Node1 -->
<g id="node1" class="node">
<title>Node1</title>
<g id="a_node1"><a xlink:title="Configuration macros for CANopenNode.">
<polygon fill="#bfbfbf" stroke="black" points="966,-392.5 966,-411.5 1062,-411.5 1062,-392.5 966,-392.5"/>
<text text-anchor="middle" x="1014" y="-399.5" font-family="Helvetica,sans-Serif" font-size="10.00">301/CO_config.h</text>
</a>
</g>
</g>
<!-- Node2 -->
<g id="node2" class="node">
<title>Node2</title>
<g id="a_node2"><a xlink:href="CO__driver_8h.html" target="_top" xlink:title="Interface between CAN hardware and CANopenNode.">
<polygon fill="white" stroke="black" points="966.5,-336.5 966.5,-355.5 1061.5,-355.5 1061.5,-336.5 966.5,-336.5"/>
<text text-anchor="middle" x="1014" y="-343.5" font-family="Helvetica,sans-Serif" font-size="10.00">301/CO_driver.h</text>
</a>
</g>
</g>
<!-- Node1&#45;&gt;Node2 -->
<g id="edge1" class="edge">
<title>Node1&#45;&gt;Node2</title>
<path fill="none" stroke="midnightblue" d="M1014,-381.8C1014,-372.91 1014,-362.78 1014,-355.75"/>
<polygon fill="midnightblue" stroke="midnightblue" points="1010.5,-382.08 1014,-392.08 1017.5,-382.08 1010.5,-382.08"/>
</g>
<!-- Node3 -->
<g id="node3" class="node">
<title>Node3</title>
<g id="a_node3"><a xlink:href="CANopen_8h.html" target="_top" xlink:title="Main CANopenNode file.">
<polygon fill="white" stroke="black" points="878.5,-0.5 878.5,-19.5 949.5,-19.5 949.5,-0.5 878.5,-0.5"/>
<text text-anchor="middle" x="914" y="-7.5" font-family="Helvetica,sans-Serif" font-size="10.00">CANopen.h</text>
</a>
</g>
</g>
<!-- Node2&#45;&gt;Node3 -->
<g id="edge2" class="edge">
<title>Node2&#45;&gt;Node3</title>
<path fill="none" stroke="midnightblue" d="M1071.79,-344.66C1205.72,-342.3 1526,-327.04 1526,-235 1526,-235 1526,-235 1526,-121 1526,-90.64 1528.85,-74.78 1505,-56 1461.35,-21.62 1070.62,-13.22 949.58,-11.43"/>
<polygon fill="midnightblue" stroke="midnightblue" points="1071.65,-341.16 1061.71,-344.81 1071.76,-348.16 1071.65,-341.16"/>
</g>
<!-- Node4 -->
<g id="node4" class="node">
<title>Node4</title>
<g id="a_node4"><a xlink:href="CO__ODinterface_8h.html" target="_top" xlink:title="CANopen Object Dictionary interface.">
<polygon fill="white" stroke="black" points="561.5,-280.5 561.5,-299.5 686.5,-299.5 686.5,-280.5 561.5,-280.5"/>
<text text-anchor="middle" x="624" y="-287.5" font-family="Helvetica,sans-Serif" font-size="10.00">301/CO_ODinterface.h</text>
</a>
</g>
</g>
<!-- Node2&#45;&gt;Node4 -->
<g id="edge3" class="edge">
<title>Node2&#45;&gt;Node4</title>
<path fill="none" stroke="midnightblue" d="M955.86,-336.95C883.33,-326.91 759.87,-309.81 685.72,-299.55"/>
<polygon fill="midnightblue" stroke="midnightblue" points="955.79,-340.47 966.18,-338.38 956.75,-333.54 955.79,-340.47"/>
</g>
<!-- Node5 -->
<g id="node5" class="node">
<title>Node5</title>
<g id="a_node5"><a xlink:href="CO__NMT__Heartbeat_8h.html" target="_top" xlink:title="CANopen Network management and Heartbeat producer protocol.">
<polygon fill="white" stroke="black" points="452.5,-168.5 452.5,-187.5 595.5,-187.5 595.5,-168.5 452.5,-168.5"/>
<text text-anchor="middle" x="524" y="-175.5" font-family="Helvetica,sans-Serif" font-size="10.00">301/CO_NMT_Heartbeat.h</text>
</a>
</g>
</g>
<!-- Node2&#45;&gt;Node5 -->
<g id="edge44" class="edge">
<title>Node2&#45;&gt;Node5</title>
<path fill="none" stroke="midnightblue" d="M956.11,-343.09C838.84,-338.69 581.8,-326.15 552,-300 518.61,-270.7 520.83,-210.21 522.97,-187.69"/>
<polygon fill="midnightblue" stroke="midnightblue" points="956.21,-346.6 966.33,-343.47 956.47,-339.6 956.21,-346.6"/>
</g>
<!-- Node6 -->
<g id="node6" class="node">
<title>Node6</title>
<g id="a_node6"><a xlink:href="CO__HBconsumer_8h.html" target="_top" xlink:title="CANopen Heartbeat consumer protocol.">
<polygon fill="white" stroke="black" points="406,-112.5 406,-131.5 534,-131.5 534,-112.5 406,-112.5"/>
<text text-anchor="middle" x="470" y="-119.5" font-family="Helvetica,sans-Serif" font-size="10.00">301/CO_HBconsumer.h</text>
</a>
</g>
</g>
<!-- Node2&#45;&gt;Node6 -->
<g id="edge46" class="edge">
<title>Node2&#45;&gt;Node6</title>
<path fill="none" stroke="midnightblue" d="M956.22,-344.87C845.13,-343.76 606.35,-337 534,-300 475.11,-269.88 459.26,-249.92 436,-188 428.03,-166.78 447.58,-143.64 460.23,-131.52"/>
<polygon fill="midnightblue" stroke="midnightblue" points="956.21,-348.37 966.24,-344.96 956.27,-341.37 956.21,-348.37"/>
</g>
<!-- Node7 -->
<g id="node7" class="node">
<title>Node7</title>
<g id="a_node7"><a xlink:href="CO__TIME_8h.html" target="_top" xlink:title="CANopen Time&#45;stamp protocol.">
<polygon fill="white" stroke="black" points="743,-112.5 743,-131.5 833,-131.5 833,-112.5 743,-112.5"/>
<text text-anchor="middle" x="788" y="-119.5" font-family="Helvetica,sans-Serif" font-size="10.00">301/CO_TIME.h</text>
</a>
</g>
</g>
<!-- Node2&#45;&gt;Node7 -->
<g id="edge53" class="edge">
<title>Node2&#45;&gt;Node7</title>
<path fill="none" stroke="midnightblue" d="M977.88,-332.9C940.67,-318.29 884.61,-289.81 859,-244 842.51,-214.51 873.48,-197.5 857,-168 847.23,-150.52 827.51,-138.7 811.65,-131.58"/>
<polygon fill="midnightblue" stroke="midnightblue" points="976.78,-336.22 987.37,-336.48 979.25,-329.67 976.78,-336.22"/>
</g>
<!-- Node8 -->
<g id="node8" class="node">
<title>Node8</title>
<g id="a_node8"><a xlink:href="CO__LEDs_8h.html" target="_top" xlink:title="CANopen Indicator specification (CiA 303&#45;3 v1.4.0)">
<polygon fill="white" stroke="black" points="980,-112.5 980,-131.5 1070,-131.5 1070,-112.5 980,-112.5"/>
<text text-anchor="middle" x="1025" y="-119.5" font-family="Helvetica,sans-Serif" font-size="10.00">303/CO_LEDs.h</text>
</a>
</g>
</g>
<!-- Node2&#45;&gt;Node8 -->
<g id="edge54" class="edge">
<title>Node2&#45;&gt;Node8</title>
<path fill="none" stroke="midnightblue" d="M1022.76,-327.07C1037.28,-294.96 1063.4,-225.61 1049,-168 1045.61,-154.43 1037.26,-140.47 1031.37,-131.77"/>
<polygon fill="midnightblue" stroke="midnightblue" points="1019.43,-325.92 1018.35,-336.46 1025.77,-328.89 1019.43,-325.92"/>
</g>
<!-- Node9 -->
<g id="node9" class="node">
<title>Node9</title>
<g id="a_node9"><a xlink:href="CO__gateway__ascii_8h.html" target="_top" xlink:title="CANopen access from other networks &#45; ASCII mapping (CiA 309&#45;3 DS v3.0.0)">
<polygon fill="white" stroke="black" points="1126,-56.5 1126,-75.5 1262,-75.5 1262,-56.5 1126,-56.5"/>
<text text-anchor="middle" x="1194" y="-63.5" font-family="Helvetica,sans-Serif" font-size="10.00">309/CO_gateway_ascii.h</text>
</a>
</g>
</g>
<!-- Node2&#45;&gt;Node9 -->
<g id="edge65" class="edge">
<title>Node2&#45;&gt;Node9</title>
<path fill="none" stroke="midnightblue" d="M1071.83,-345.06C1148.98,-341.74 1276,-322.93 1276,-235 1276,-235 1276,-235 1276,-177 1276,-131.27 1229.88,-92.26 1206.81,-75.61"/>
<polygon fill="midnightblue" stroke="midnightblue" points="1071.62,-341.56 1061.75,-345.41 1071.87,-348.56 1071.62,-341.56"/>
</g>
<!-- Node10 -->
<g id="node10" class="node">
<title>Node10</title>
<g id="a_node10"><a xlink:href="CO__SRDO_8h.html" target="_top" xlink:title="CANopen Safety Related Data Object protocol.">
<polygon fill="white" stroke="black" points="294,-112.5 294,-131.5 388,-131.5 388,-112.5 294,-112.5"/>
<text text-anchor="middle" x="341" y="-119.5" font-family="Helvetica,sans-Serif" font-size="10.00">304/CO_SRDO.h</text>
</a>
</g>
</g>
<!-- Node2&#45;&gt;Node10 -->
<g id="edge58" class="edge">
<title>Node2&#45;&gt;Node10</title>
<path fill="none" stroke="midnightblue" d="M956.03,-344.43C808.57,-342.48 422.19,-334.17 299,-300 246.9,-285.55 219.09,-290.2 191,-244 157.63,-189.11 258.69,-148.49 311.31,-131.61"/>
<polygon fill="midnightblue" stroke="midnightblue" points="956.18,-347.93 966.22,-344.56 956.27,-340.93 956.18,-347.93"/>
</g>
<!-- Node12 -->
<g id="node12" class="node">
<title>Node12</title>
<g id="a_node12"><a xlink:href="CO__Emergency_8h.html" target="_top" xlink:title="CANopen Emergency protocol.">
<polygon fill="white" stroke="black" points="200.5,-224.5 200.5,-243.5 319.5,-243.5 319.5,-224.5 200.5,-224.5"/>
<text text-anchor="middle" x="260" y="-231.5" font-family="Helvetica,sans-Serif" font-size="10.00">301/CO_Emergency.h</text>
</a>
</g>
</g>
<!-- Node2&#45;&gt;Node12 -->
<g id="edge45" class="edge">
<title>Node2&#45;&gt;Node12</title>
<path fill="none" stroke="midnightblue" d="M956.09,-343.3C802.16,-338.48 390.68,-323.53 334,-300 304.31,-287.68 278.32,-258.4 266.61,-243.71"/>
<polygon fill="midnightblue" stroke="midnightblue" points="956.18,-346.8 966.29,-343.62 956.4,-339.81 956.18,-346.8"/>
</g>
<!-- Node13 -->
<g id="node13" class="node">
<title>Node13</title>
<g id="a_node13"><a xlink:href="CO__SYNC_8h.html" target="_top" xlink:title="CANopen Synchronisation protocol.">
<polygon fill="white" stroke="black" points="0,-168.5 0,-187.5 92,-187.5 92,-168.5 0,-168.5"/>
<text text-anchor="middle" x="46" y="-175.5" font-family="Helvetica,sans-Serif" font-size="10.00">301/CO_SYNC.h</text>
</a>
</g>
</g>
<!-- Node2&#45;&gt;Node13 -->
<g id="edge52" class="edge">
<title>Node2&#45;&gt;Node13</title>
<path fill="none" stroke="midnightblue" d="M956.33,-344.47C775.9,-342.47 229.83,-333.67 158,-300 104.09,-274.73 63.85,-210.65 50.65,-187.5"/>
<polygon fill="midnightblue" stroke="midnightblue" points="956.38,-347.97 966.42,-344.58 956.46,-340.97 956.38,-347.97"/>
</g>
<!-- Node15 -->
<g id="node15" class="node">
<title>Node15</title>
<g id="a_node15"><a xlink:href="CO__SDOserver_8h.html" target="_top" xlink:title="CANopen Service Data Object &#45; server protocol.">
<polygon fill="white" stroke="black" points="868,-224.5 868,-243.5 986,-243.5 986,-224.5 868,-224.5"/>
<text text-anchor="middle" x="927" y="-231.5" font-family="Helvetica,sans-Serif" font-size="10.00">301/CO_SDOserver.h</text>
</a>
</g>
</g>
<!-- Node2&#45;&gt;Node15 -->
<g id="edge47" class="edge">
<title>Node2&#45;&gt;Node15</title>
<path fill="none" stroke="midnightblue" d="M1000.77,-328.27C981.96,-304.49 948.19,-261.79 933.8,-243.59"/>
<polygon fill="midnightblue" stroke="midnightblue" points="998.22,-330.7 1007.17,-336.37 1003.72,-326.35 998.22,-330.7"/>
</g>
<!-- Node16 -->
<g id="node16" class="node">
<title>Node16</title>
<g id="a_node16"><a xlink:href="CO__SDOclient_8h.html" target="_top" xlink:title="CANopen Service Data Object &#45; client protocol.">
<polygon fill="white" stroke="black" points="1096,-168.5 1096,-187.5 1210,-187.5 1210,-168.5 1096,-168.5"/>
<text text-anchor="middle" x="1153" y="-175.5" font-family="Helvetica,sans-Serif" font-size="10.00">301/CO_SDOclient.h</text>
</a>
</g>
</g>
<!-- Node2&#45;&gt;Node16 -->
<g id="edge48" class="edge">
<title>Node2&#45;&gt;Node16</title>
<path fill="none" stroke="midnightblue" d="M1052.77,-332.78C1070.33,-325.6 1090.2,-314.94 1104,-300 1135.38,-266.04 1147.86,-209.37 1151.64,-187.75"/>
<polygon fill="midnightblue" stroke="midnightblue" points="1051.39,-329.56 1043.31,-336.42 1053.9,-336.1 1051.39,-329.56"/>
</g>
<!-- Node17 -->
<g id="node17" class="node">
<title>Node17</title>
<g id="a_node17"><a xlink:href="CO__trace_8h.html" target="_top" xlink:title="CANopen trace object for recording variables over time.">
<polygon fill="white" stroke="black" points="942,-168.5 942,-187.5 1040,-187.5 1040,-168.5 942,-168.5"/>
<text text-anchor="middle" x="991" y="-175.5" font-family="Helvetica,sans-Serif" font-size="10.00">extra/CO_trace.h</text>
</a>
</g>
</g>
<!-- Node2&#45;&gt;Node17 -->
<g id="edge66" class="edge">
<title>Node2&#45;&gt;Node17</title>
<path fill="none" stroke="midnightblue" d="M1011.36,-325.93C1006.37,-289.92 995.74,-213.23 992.19,-187.57"/>
<polygon fill="midnightblue" stroke="midnightblue" points="1007.92,-326.65 1012.76,-336.08 1014.86,-325.69 1007.92,-326.65"/>
</g>
<!-- Node18 -->
<g id="node18" class="node">
<title>Node18</title>
<g id="a_node18"><a xlink:href="CO__storage_8h.html" target="_top" xlink:title="CANopen data storage base object.">
<polygon fill="white" stroke="black" points="690,-224.5 690,-243.5 812,-243.5 812,-224.5 690,-224.5"/>
<text text-anchor="middle" x="751" y="-231.5" font-family="Helvetica,sans-Serif" font-size="10.00">storage/CO_storage.h</text>
</a>
</g>
</g>
<!-- Node2&#45;&gt;Node18 -->
<g id="edge69" class="edge">
<title>Node2&#45;&gt;Node18</title>
<path fill="none" stroke="midnightblue" d="M956.22,-338.46C917.7,-332.38 866.83,-320.97 826,-300 797.49,-285.36 770.82,-257.68 758.36,-243.64"/>
<polygon fill="midnightblue" stroke="midnightblue" points="955.83,-341.94 966.24,-339.96 956.87,-335.02 955.83,-341.94"/>
</g>
<!-- Node20 -->
<g id="node20" class="node">
<title>Node20</title>
<g id="a_node20"><a xlink:href="CO__fifo_8h.html" target="_top" xlink:title="FIFO circular buffer.">
<polygon fill="white" stroke="black" points="1156.5,-224.5 1156.5,-243.5 1239.5,-243.5 1239.5,-224.5 1156.5,-224.5"/>
<text text-anchor="middle" x="1198" y="-231.5" font-family="Helvetica,sans-Serif" font-size="10.00">301/CO_fifo.h</text>
</a>
</g>
</g>
<!-- Node2&#45;&gt;Node20 -->
<g id="edge49" class="edge">
<title>Node2&#45;&gt;Node20</title>
<path fill="none" stroke="midnightblue" d="M1064.79,-333.72C1089.52,-326.65 1118.83,-315.81 1142,-300 1164.64,-284.55 1183.66,-257.73 1192.57,-243.87"/>
<polygon fill="midnightblue" stroke="midnightblue" points="1063.58,-330.42 1054.86,-336.43 1065.43,-337.18 1063.58,-330.42"/>
</g>
<!-- Node21 -->
<g id="node21" class="node">
<title>Node21</title>
<g id="a_node21"><a xlink:href="CO__GFC_8h.html" target="_top" xlink:title="CANopen Global fail&#45;safe command protocol.">
<polygon fill="white" stroke="black" points="1304,-280.5 1304,-299.5 1390,-299.5 1390,-280.5 1304,-280.5"/>
<text text-anchor="middle" x="1347" y="-287.5" font-family="Helvetica,sans-Serif" font-size="10.00">304/CO_GFC.h</text>
</a>
</g>
</g>
<!-- Node2&#45;&gt;Node21 -->
<g id="edge55" class="edge">
<title>Node2&#45;&gt;Node21</title>
<path fill="none" stroke="midnightblue" d="M1071.96,-335.6C1138.08,-324.88 1244.68,-307.59 1303.88,-297.99"/>
<polygon fill="midnightblue" stroke="midnightblue" points="1071.02,-332.21 1061.71,-337.26 1072.14,-339.12 1071.02,-332.21"/>
</g>
<!-- Node23 -->
<g id="node23" class="node">
<title>Node23</title>
<g id="a_node23"><a xlink:href="CO__LSS_8h.html" target="_top" xlink:title="CANopen Layer Setting Services protocol (common).">
<polygon fill="white" stroke="black" points="1414.5,-168.5 1414.5,-187.5 1497.5,-187.5 1497.5,-168.5 1414.5,-168.5"/>
<text text-anchor="middle" x="1456" y="-175.5" font-family="Helvetica,sans-Serif" font-size="10.00">305/CO_LSS.h</text>
</a>
</g>
</g>
<!-- Node2&#45;&gt;Node23 -->
<g id="edge59" class="edge">
<title>Node2&#45;&gt;Node23</title>
<path fill="none" stroke="midnightblue" d="M1071.85,-344.05C1165.52,-341.56 1345.35,-332.56 1399,-300 1440.29,-274.94 1452.11,-210.72 1455.09,-187.52"/>
<polygon fill="midnightblue" stroke="midnightblue" points="1071.6,-340.56 1061.69,-344.3 1071.77,-347.55 1071.6,-340.56"/>
</g>
<!-- Node26 -->
<g id="node26" class="node">
<title>Node26</title>
<g id="a_node26"><a xlink:href="crc16-ccitt_8h.html" target="_top" xlink:title="Calculation of CRC 16 CCITT polynomial.">
<polygon fill="white" stroke="black" points="1554,-280.5 1554,-299.5 1652,-299.5 1652,-280.5 1554,-280.5"/>
<text text-anchor="middle" x="1603" y="-287.5" font-family="Helvetica,sans-Serif" font-size="10.00">301/crc16&#45;ccitt.h</text>
</a>
</g>
</g>
<!-- Node2&#45;&gt;Node26 -->
<g id="edge67" class="edge">
<title>Node2&#45;&gt;Node26</title>
<path fill="none" stroke="midnightblue" d="M1071.77,-341.13C1168.72,-334.4 1370.21,-319.38 1540,-300 1544.5,-299.49 1549.18,-298.91 1553.85,-298.29"/>
<polygon fill="midnightblue" stroke="midnightblue" points="1071.33,-337.65 1061.6,-341.83 1071.82,-344.64 1071.33,-337.65"/>
</g>
<!-- Node27 -->
<g id="node27" class="node">
<title>Node27</title>
<g id="a_node27"><a xlink:href="CO__eeprom_8h.html" target="_top" xlink:title="Eeprom interface for use with CO_storageEeprom.">
<polygon fill="white" stroke="black" points="1670,-280.5 1670,-299.5 1792,-299.5 1792,-280.5 1670,-280.5"/>
<text text-anchor="middle" x="1731" y="-287.5" font-family="Helvetica,sans-Serif" font-size="10.00">storage/CO_eeprom.h</text>
</a>
</g>
</g>
<!-- Node2&#45;&gt;Node27 -->
<g id="edge68" class="edge">
<title>Node2&#45;&gt;Node27</title>
<path fill="none" stroke="midnightblue" d="M1071.74,-342.12C1184.94,-336.22 1443.96,-321.48 1661,-300 1663.93,-299.71 1666.92,-299.4 1669.94,-299.06"/>
<polygon fill="midnightblue" stroke="midnightblue" points="1071.37,-338.63 1061.57,-342.65 1071.73,-345.62 1071.37,-338.63"/>
</g>
<!-- Node4&#45;&gt;Node3 -->
<g id="edge4" class="edge">
<title>Node4&#45;&gt;Node3</title>
<path fill="none" stroke="midnightblue" d="M624,-270.25C624,-248.36 624,-211.05 624,-179 624,-179 624,-179 624,-121 624,-67.15 801,-30.3 878.44,-16.76"/>
<polygon fill="midnightblue" stroke="midnightblue" points="620.5,-270.44 624,-280.44 627.5,-270.44 620.5,-270.44"/>
</g>
<!-- Node4&#45;&gt;Node5 -->
<g id="edge5" class="edge">
<title>Node4&#45;&gt;Node5</title>
<path fill="none" stroke="midnightblue" d="M609.36,-272.9C587.86,-249.25 548.5,-205.95 531.81,-187.59"/>
<polygon fill="midnightblue" stroke="midnightblue" points="606.84,-275.32 616.15,-280.37 612.02,-270.61 606.84,-275.32"/>
</g>
<!-- Node4&#45;&gt;Node6 -->
<g id="edge29" class="edge">
<title>Node4&#45;&gt;Node6</title>
<path fill="none" stroke="midnightblue" d="M577.54,-277.53C534.13,-264.07 471.82,-237.09 443,-188 431.86,-169.03 449.74,-144.6 461.33,-131.77"/>
<polygon fill="midnightblue" stroke="midnightblue" points="576.73,-280.94 587.31,-280.43 578.72,-274.23 576.73,-280.94"/>
</g>
<!-- Node4&#45;&gt;Node7 -->
<g id="edge41" class="edge">
<title>Node4&#45;&gt;Node7</title>
<path fill="none" stroke="midnightblue" d="M630.61,-270.65C641.7,-240.67 664.4,-183.01 680,-168 699.18,-149.55 727.01,-138.2 749.61,-131.51"/>
<polygon fill="midnightblue" stroke="midnightblue" points="627.22,-269.72 627.08,-280.32 633.8,-272.12 627.22,-269.72"/>
</g>
<!-- Node4&#45;&gt;Node12 -->
<g id="edge19" class="edge">
<title>Node4&#45;&gt;Node12</title>
<path fill="none" stroke="midnightblue" d="M556.03,-278.92C487.26,-268.71 382.13,-253.12 317.41,-243.52"/>
<polygon fill="midnightblue" stroke="midnightblue" points="555.92,-282.44 566.32,-280.44 556.95,-275.51 555.92,-282.44"/>
</g>
<!-- Node4&#45;&gt;Node13 -->
<g id="edge39" class="edge">
<title>Node4&#45;&gt;Node13</title>
<path fill="none" stroke="midnightblue" d="M551.16,-288.44C464.07,-286.17 314.57,-277.2 191,-244 141.18,-230.61 86.77,-202.1 61.07,-187.7"/>
<polygon fill="midnightblue" stroke="midnightblue" points="551.13,-291.94 561.21,-288.68 551.29,-284.94 551.13,-291.94"/>
</g>
<!-- Node14 -->
<g id="node14" class="node">
<title>Node14</title>
<g id="a_node14"><a xlink:href="CO__PDO_8h.html" target="_top" xlink:title="CANopen Process Data Object protocol.">
<polygon fill="white" stroke="black" points="156.5,-112.5 156.5,-131.5 243.5,-131.5 243.5,-112.5 156.5,-112.5"/>
<text text-anchor="middle" x="200" y="-119.5" font-family="Helvetica,sans-Serif" font-size="10.00">301/CO_PDO.h</text>
</a>
</g>
</g>
<!-- Node4&#45;&gt;Node14 -->
<g id="edge40" class="edge">
<title>Node4&#45;&gt;Node14</title>
<path fill="none" stroke="midnightblue" d="M581.03,-277.77C550.55,-269.42 508.85,-257.23 473,-244 374.02,-207.49 259.89,-152.56 217.25,-131.57"/>
<polygon fill="midnightblue" stroke="midnightblue" points="580.34,-281.21 590.91,-280.45 582.17,-274.45 580.34,-281.21"/>
</g>
<!-- Node4&#45;&gt;Node15 -->
<g id="edge30" class="edge">
<title>Node4&#45;&gt;Node15</title>
<path fill="none" stroke="midnightblue" d="M682,-278.66C739.26,-268.46 825.78,-253.04 879.21,-243.52"/>
<polygon fill="midnightblue" stroke="midnightblue" points="681.24,-275.24 672.01,-280.44 682.47,-282.13 681.24,-275.24"/>
</g>
<!-- Node4&#45;&gt;Node16 -->
<g id="edge38" class="edge">
<title>Node4&#45;&gt;Node16</title>
<path fill="none" stroke="midnightblue" d="M697.02,-285.95C772.64,-281.45 893.68,-270.47 995,-244 1048.67,-229.98 1108.24,-201.76 1136.45,-187.57"/>
<polygon fill="midnightblue" stroke="midnightblue" points="696.45,-282.48 686.66,-286.54 696.85,-289.46 696.45,-282.48"/>
</g>
<!-- Node4&#45;&gt;Node18 -->
<g id="edge42" class="edge">
<title>Node4&#45;&gt;Node18</title>
<path fill="none" stroke="midnightblue" d="M653.39,-276.5C677.2,-266.38 710.11,-252.39 730.97,-243.52"/>
<polygon fill="midnightblue" stroke="midnightblue" points="651.96,-273.31 644.12,-280.44 654.7,-279.75 651.96,-273.31"/>
</g>
<!-- Node5&#45;&gt;Node3 -->
<g id="edge6" class="edge">
<title>Node5&#45;&gt;Node3</title>
<path fill="none" stroke="midnightblue" d="M531.23,-158.99C543.2,-131.74 569.85,-80.61 610,-56 654.41,-28.78 807.91,-16.9 878.27,-12.8"/>
<polygon fill="midnightblue" stroke="midnightblue" points="527.9,-157.89 527.25,-168.46 534.35,-160.6 527.9,-157.89"/>
</g>
<!-- Node5&#45;&gt;Node6 -->
<g id="edge7" class="edge">
<title>Node5&#45;&gt;Node6</title>
<path fill="none" stroke="midnightblue" d="M508,-161C498.43,-151.43 486.64,-139.64 478.75,-131.75"/>
<polygon fill="midnightblue" stroke="midnightblue" points="505.54,-163.49 515.08,-168.08 510.49,-158.54 505.54,-163.49"/>
</g>
<!-- Node5&#45;&gt;Node7 -->
<g id="edge9" class="edge">
<title>Node5&#45;&gt;Node7</title>
<path fill="none" stroke="midnightblue" d="M575.78,-166.41C625.67,-156.2 700.2,-140.96 746.36,-131.52"/>
<polygon fill="midnightblue" stroke="midnightblue" points="574.93,-163.01 565.83,-168.44 576.33,-169.87 574.93,-163.01"/>
</g>
<!-- Node5&#45;&gt;Node8 -->
<g id="edge11" class="edge">
<title>Node5&#45;&gt;Node8</title>
<path fill="none" stroke="midnightblue" d="M605.59,-168.21C712.19,-156.72 895.2,-136.99 979.75,-127.88"/>
<polygon fill="midnightblue" stroke="midnightblue" points="605.08,-164.74 595.51,-169.29 605.83,-171.7 605.08,-164.74"/>
</g>
<!-- Node5&#45;&gt;Node9 -->
<g id="edge18" class="edge">
<title>Node5&#45;&gt;Node9</title>
<path fill="none" stroke="midnightblue" d="M555.93,-164.89C596.64,-149.96 669.5,-125 734,-112 871.46,-84.3 1035.6,-73.45 1125.94,-69.35"/>
<polygon fill="midnightblue" stroke="midnightblue" points="554.46,-161.7 546.3,-168.45 556.89,-168.26 554.46,-161.7"/>
</g>
<!-- Node5&#45;&gt;Node10 -->
<g id="edge15" class="edge">
<title>Node5&#45;&gt;Node10</title>
<path fill="none" stroke="midnightblue" d="M485.26,-165.57C450.74,-155.38 400.99,-140.7 369.86,-131.52"/>
<polygon fill="midnightblue" stroke="midnightblue" points="484.42,-168.97 495,-168.44 486.4,-162.26 484.42,-168.97"/>
</g>
<!-- Node6&#45;&gt;Node3 -->
<g id="edge8" class="edge">
<title>Node6&#45;&gt;Node3</title>
<path fill="none" stroke="midnightblue" d="M487,-105.43C504.79,-90.12 534.23,-67.42 564,-56 672.96,-14.19 813.57,-9.68 878.39,-10.12"/>
<polygon fill="midnightblue" stroke="midnightblue" points="484.43,-103.03 479.26,-112.28 489.07,-108.28 484.43,-103.03"/>
</g>
<!-- Node7&#45;&gt;Node3 -->
<g id="edge10" class="edge">
<title>Node7&#45;&gt;Node3</title>
<path fill="none" stroke="midnightblue" d="M805.74,-105.51C832.66,-82.01 882.95,-38.11 904.16,-19.59"/>
<polygon fill="midnightblue" stroke="midnightblue" points="803.12,-103.16 797.89,-112.37 807.72,-108.43 803.12,-103.16"/>
</g>
<!-- Node8&#45;&gt;Node3 -->
<g id="edge12" class="edge">
<title>Node8&#45;&gt;Node3</title>
<path fill="none" stroke="midnightblue" d="M1010.89,-104.38C999.26,-90.93 982.1,-71.72 966,-56 952.33,-42.65 935.44,-28.41 924.69,-19.61"/>
<polygon fill="midnightblue" stroke="midnightblue" points="1008.51,-106.97 1017.68,-112.28 1013.82,-102.41 1008.51,-106.97"/>
</g>
<!-- Node8&#45;&gt;Node9 -->
<g id="edge13" class="edge">
<title>Node8&#45;&gt;Node9</title>
<path fill="none" stroke="midnightblue" d="M1061.6,-109.3C1093.45,-99.13 1138.84,-84.62 1167.35,-75.52"/>
<polygon fill="midnightblue" stroke="midnightblue" points="1060.24,-106.07 1051.78,-112.44 1062.37,-112.73 1060.24,-106.07"/>
</g>
<!-- Node9&#45;&gt;Node3 -->
<g id="edge14" class="edge">
<title>Node9&#45;&gt;Node3</title>
<path fill="none" stroke="midnightblue" d="M1139.52,-54.49C1083.45,-43.68 997.71,-27.14 949.72,-17.89"/>
<polygon fill="midnightblue" stroke="midnightblue" points="1139.15,-57.99 1149.63,-56.44 1140.48,-51.11 1139.15,-57.99"/>
</g>
<!-- Node10&#45;&gt;Node3 -->
<g id="edge16" class="edge">
<title>Node10&#45;&gt;Node3</title>
<path fill="none" stroke="midnightblue" d="M341.08,-101.99C342.26,-87.06 346.49,-67.01 360,-56 400.12,-23.31 761.95,-13.81 878.21,-11.59"/>
<polygon fill="midnightblue" stroke="midnightblue" points="337.58,-102.05 340.68,-112.18 344.57,-102.32 337.58,-102.05"/>
</g>
<!-- Node11 -->
<g id="node11" class="node">
<title>Node11</title>
<g id="a_node11"><a xlink:href="CO__SRDO_8c.html" target="_top" xlink:title="CANopen Safety Related Data Object protocol.">
<polygon fill="white" stroke="black" points="369.5,-56.5 369.5,-75.5 462.5,-75.5 462.5,-56.5 369.5,-56.5"/>
<text text-anchor="middle" x="416" y="-63.5" font-family="Helvetica,sans-Serif" font-size="10.00">304/CO_SRDO.c</text>
</a>
</g>
</g>
<!-- Node10&#45;&gt;Node11 -->
<g id="edge17" class="edge">
<title>Node10&#45;&gt;Node11</title>
<path fill="none" stroke="midnightblue" d="M361.31,-106.38C374.86,-96.62 392.24,-84.11 403.73,-75.83"/>
<polygon fill="midnightblue" stroke="midnightblue" points="359.12,-103.64 353.05,-112.32 363.21,-109.32 359.12,-103.64"/>
</g>
<!-- Node12&#45;&gt;Node3 -->
<g id="edge22" class="edge">
<title>Node12&#45;&gt;Node3</title>
<path fill="none" stroke="midnightblue" d="M231.23,-220.09C188.76,-199.18 117.34,-155.81 147,-112 184.57,-56.51 221.69,-71.02 287,-56 400.8,-29.82 762.48,-15.97 878.1,-12.12"/>
<polygon fill="midnightblue" stroke="midnightblue" points="229.78,-223.28 240.31,-224.44 232.81,-216.96 229.78,-223.28"/>
</g>
<!-- Node12&#45;&gt;Node5 -->
<g id="edge20" class="edge">
<title>Node12&#45;&gt;Node5</title>
<path fill="none" stroke="midnightblue" d="M311.78,-222.41C361.67,-212.2 436.2,-196.96 482.36,-187.52"/>
<polygon fill="midnightblue" stroke="midnightblue" points="310.93,-219.01 301.83,-224.44 312.33,-225.87 310.93,-219.01"/>
</g>
<!-- Node12&#45;&gt;Node6 -->
<g id="edge21" class="edge">
<title>Node12&#45;&gt;Node6</title>
<path fill="none" stroke="midnightblue" d="M274.66,-216.85C288.65,-202.29 310.96,-181.19 334,-168 364.43,-150.57 402.6,-138.69 430.75,-131.53"/>
<polygon fill="midnightblue" stroke="midnightblue" points="272.08,-214.49 267.79,-224.18 277.18,-219.28 272.08,-214.49"/>
</g>
<!-- Node12&#45;&gt;Node10 -->
<g id="edge28" class="edge">
<title>Node12&#45;&gt;Node10</title>
<path fill="none" stroke="midnightblue" d="M254.39,-214.47C251.35,-200.69 249.71,-181.93 258,-168 268.98,-149.55 290.46,-138.2 308.82,-131.51"/>
<polygon fill="midnightblue" stroke="midnightblue" points="251.03,-215.49 256.96,-224.27 257.81,-213.71 251.03,-215.49"/>
</g>
<!-- Node12&#45;&gt;Node13 -->
<g id="edge23" class="edge">
<title>Node12&#45;&gt;Node13</title>
<path fill="none" stroke="midnightblue" d="M216.24,-221.96C175.83,-211.76 116.63,-196.82 79.75,-187.52"/>
<polygon fill="midnightblue" stroke="midnightblue" points="215.54,-225.39 226.09,-224.44 217.25,-218.6 215.54,-225.39"/>
</g>
<!-- Node12&#45;&gt;Node14 -->
<g id="edge27" class="edge">
<title>Node12&#45;&gt;Node14</title>
<path fill="none" stroke="midnightblue" d="M242.73,-217.03C234.87,-208.97 226,-198.66 220,-188 209.58,-169.48 203.92,-144.87 201.49,-131.89"/>
<polygon fill="midnightblue" stroke="midnightblue" points="240.53,-219.77 250.12,-224.27 245.43,-214.77 240.53,-219.77"/>
</g>
<!-- Node13&#45;&gt;Node3 -->
<g id="edge24" class="edge">
<title>Node13&#45;&gt;Node3</title>
<path fill="none" stroke="midnightblue" d="M49.22,-158.37C55.09,-130.7 70.39,-79.49 106,-56 171.09,-13.07 730.92,-10.76 878.47,-10.9"/>
<polygon fill="midnightblue" stroke="midnightblue" points="45.75,-157.85 47.3,-168.34 52.63,-159.18 45.75,-157.85"/>
</g>
<!-- Node13&#45;&gt;Node14 -->
<g id="edge25" class="edge">
<title>Node13&#45;&gt;Node14</title>
<path fill="none" stroke="midnightblue" d="M80.11,-165.04C109.09,-154.88 149.96,-140.55 175.71,-131.52"/>
<polygon fill="midnightblue" stroke="midnightblue" points="78.68,-161.83 70.4,-168.44 81,-168.44 78.68,-161.83"/>
</g>
<!-- Node14&#45;&gt;Node3 -->
<g id="edge26" class="edge">
<title>Node14&#45;&gt;Node3</title>
<path fill="none" stroke="midnightblue" d="M223.27,-107.35C250.82,-91.92 298.59,-67.46 343,-56 445.06,-29.65 769.67,-16.08 878.24,-12.2"/>
<polygon fill="midnightblue" stroke="midnightblue" points="221.36,-104.4 214.4,-112.39 224.82,-110.49 221.36,-104.4"/>
</g>
<!-- Node15&#45;&gt;Node3 -->
<g id="edge31" class="edge">
<title>Node15&#45;&gt;Node3</title>
<path fill="none" stroke="midnightblue" d="M925.9,-214.3C923.23,-168.64 916.45,-52.85 914.52,-19.88"/>
<polygon fill="midnightblue" stroke="midnightblue" points="922.41,-214.52 926.49,-224.3 929.4,-214.11 922.41,-214.52"/>
</g>
<!-- Node15&#45;&gt;Node10 -->
<g id="edge35" class="edge">
<title>Node15&#45;&gt;Node10</title>
<path fill="none" stroke="midnightblue" d="M857.68,-226.98C726.18,-215.5 452.69,-191.32 443,-188 405.65,-175.21 368.15,-146.15 350.86,-131.61"/>
<polygon fill="midnightblue" stroke="midnightblue" points="857.39,-230.47 867.66,-227.85 858,-223.49 857.39,-230.47"/>
</g>
<!-- Node15&#45;&gt;Node16 -->
<g id="edge32" class="edge">
<title>Node15&#45;&gt;Node16</title>
<path fill="none" stroke="midnightblue" d="M972.67,-222.09C1015.36,-211.89 1078.25,-196.86 1117.36,-187.52"/>
<polygon fill="midnightblue" stroke="midnightblue" points="971.72,-218.72 962.81,-224.44 973.35,-225.52 971.72,-218.72"/>
</g>
<!-- Node15&#45;&gt;Node17 -->
<g id="edge36" class="edge">
<title>Node15&#45;&gt;Node17</title>
<path fill="none" stroke="midnightblue" d="M944.99,-217.82C956.46,-208.15 970.91,-195.95 980.53,-187.83"/>
<polygon fill="midnightblue" stroke="midnightblue" points="942.67,-215.2 937.28,-224.32 947.18,-220.55 942.67,-215.2"/>
</g>
<!-- Node16&#45;&gt;Node3 -->
<g id="edge33" class="edge">
<title>Node16&#45;&gt;Node3</title>
<path fill="none" stroke="midnightblue" d="M1136.56,-161.2C1121.98,-147.51 1099.81,-127.53 1079,-112 1041.55,-84.05 1029.89,-80.35 990,-56 968.8,-43.06 944,-28.47 928.64,-19.51"/>
<polygon fill="midnightblue" stroke="midnightblue" points="1134.16,-163.75 1143.83,-168.08 1138.98,-158.66 1134.16,-163.75"/>
</g>
<!-- Node16&#45;&gt;Node9 -->
<g id="edge34" class="edge">
<title>Node16&#45;&gt;Node9</title>
<path fill="none" stroke="midnightblue" d="M1159.71,-159C1168.66,-135 1184.13,-93.47 1190.8,-75.59"/>
<polygon fill="midnightblue" stroke="midnightblue" points="1156.43,-157.78 1156.22,-168.37 1162.99,-160.22 1156.43,-157.78"/>
</g>
<!-- Node17&#45;&gt;Node3 -->
<g id="edge37" class="edge">
<title>Node17&#45;&gt;Node3</title>
<path fill="none" stroke="midnightblue" d="M982.58,-158.86C966.07,-123.25 929.98,-45.45 917.97,-19.57"/>
<polygon fill="midnightblue" stroke="midnightblue" points="979.48,-160.48 986.86,-168.08 985.83,-157.53 979.48,-160.48"/>
</g>
<!-- Node19 -->
<g id="node19" class="node">
<title>Node19</title>
<g id="a_node19"><a xlink:href="CO__storageEeprom_8h.html" target="_top" xlink:title="CANopen data storage object for storing data into block device (eeprom)">
<polygon fill="white" stroke="black" points="689.5,-168.5 689.5,-187.5 848.5,-187.5 848.5,-168.5 689.5,-168.5"/>
<text text-anchor="middle" x="769" y="-175.5" font-family="Helvetica,sans-Serif" font-size="10.00">storage/CO_storageEeprom.h</text>
</a>
</g>
</g>
<!-- Node18&#45;&gt;Node19 -->
<g id="edge43" class="edge">
<title>Node18&#45;&gt;Node19</title>
<path fill="none" stroke="midnightblue" d="M757.2,-214.4C760.21,-205.36 763.69,-194.94 766.08,-187.75"/>
<polygon fill="midnightblue" stroke="midnightblue" points="753.81,-213.49 753.97,-224.08 760.46,-215.7 753.81,-213.49"/>
</g>
<!-- Node20&#45;&gt;Node9 -->
<g id="edge51" class="edge">
<title>Node20&#45;&gt;Node9</title>
<path fill="none" stroke="midnightblue" d="M1208.28,-215.63C1212.49,-207.52 1216.88,-197.57 1219,-188 1228.34,-145.91 1207.6,-95.32 1198.26,-75.53"/>
<polygon fill="midnightblue" stroke="midnightblue" points="1205.18,-214 1203.38,-224.44 1211.3,-217.4 1205.18,-214"/>
</g>
<!-- Node20&#45;&gt;Node16 -->
<g id="edge50" class="edge">
<title>Node20&#45;&gt;Node16</title>
<path fill="none" stroke="midnightblue" d="M1183.95,-216.14C1176.11,-206.74 1166.67,-195.4 1160.29,-187.75"/>
<polygon fill="midnightblue" stroke="midnightblue" points="1181.48,-218.64 1190.57,-224.08 1186.86,-214.16 1181.48,-218.64"/>
</g>
<!-- Node21&#45;&gt;Node3 -->
<g id="edge56" class="edge">
<title>Node21&#45;&gt;Node3</title>
<path fill="none" stroke="midnightblue" d="M1338.21,-271.31C1328.43,-249.97 1314,-212.75 1314,-179 1314,-179 1314,-179 1314,-121 1314,-86.36 1300.42,-74.28 1271,-56 1217.8,-22.95 1028.95,-14.07 949.56,-11.77"/>
<polygon fill="midnightblue" stroke="midnightblue" points="1335.09,-272.9 1342.55,-280.42 1341.41,-269.89 1335.09,-272.9"/>
</g>
<!-- Node22 -->
<g id="node22" class="node">
<title>Node22</title>
<g id="a_node22"><a xlink:href="CO__GFC_8c.html" target="_top" xlink:title="CANopen Global fail&#45;safe command protocol.">
<polygon fill="white" stroke="black" points="1342,-224.5 1342,-243.5 1428,-243.5 1428,-224.5 1342,-224.5"/>
<text text-anchor="middle" x="1385" y="-231.5" font-family="Helvetica,sans-Serif" font-size="10.00">304/CO_GFC.c</text>
</a>
</g>
</g>
<!-- Node21&#45;&gt;Node22 -->
<g id="edge57" class="edge">
<title>Node21&#45;&gt;Node22</title>
<path fill="none" stroke="midnightblue" d="M1359.06,-271.86C1365.64,-262.5 1373.51,-251.33 1378.84,-243.75"/>
<polygon fill="midnightblue" stroke="midnightblue" points="1356.17,-269.89 1353.27,-280.08 1361.89,-273.92 1356.17,-269.89"/>
</g>
<!-- Node24 -->
<g id="node24" class="node">
<title>Node24</title>
<g id="a_node24"><a xlink:href="CO__LSSslave_8h.html" target="_top" xlink:title="CANopen Layer Setting Service &#45; slave protocol.">
<polygon fill="white" stroke="black" points="1386,-56.5 1386,-75.5 1496,-75.5 1496,-56.5 1386,-56.5"/>
<text text-anchor="middle" x="1441" y="-63.5" font-family="Helvetica,sans-Serif" font-size="10.00">305/CO_LSSslave.h</text>
</a>
</g>
</g>
<!-- Node23&#45;&gt;Node24 -->
<g id="edge60" class="edge">
<title>Node23&#45;&gt;Node24</title>
<path fill="none" stroke="midnightblue" d="M1464.11,-159.17C1469,-146 1473.49,-127.72 1469,-112 1465.01,-98.02 1455.28,-84.16 1448.41,-75.59"/>
<polygon fill="midnightblue" stroke="midnightblue" points="1460.84,-157.9 1460.26,-168.48 1467.31,-160.57 1460.84,-157.9"/>
</g>
<!-- Node25 -->
<g id="node25" class="node">
<title>Node25</title>
<g id="a_node25"><a xlink:href="CO__LSSmaster_8h.html" target="_top" xlink:title="CANopen Layer Setting Service &#45; master protocol.">
<polygon fill="white" stroke="black" points="1342,-112.5 1342,-131.5 1460,-131.5 1460,-112.5 1342,-112.5"/>
<text text-anchor="middle" x="1401" y="-119.5" font-family="Helvetica,sans-Serif" font-size="10.00">305/CO_LSSmaster.h</text>
</a>
</g>
</g>
<!-- Node23&#45;&gt;Node25 -->
<g id="edge62" class="edge">
<title>Node23&#45;&gt;Node25</title>
<path fill="none" stroke="midnightblue" d="M1439.71,-161C1429.96,-151.43 1417.95,-139.64 1409.91,-131.75"/>
<polygon fill="midnightblue" stroke="midnightblue" points="1437.33,-163.57 1446.92,-168.08 1442.23,-158.58 1437.33,-163.57"/>
</g>
<!-- Node24&#45;&gt;Node3 -->
<g id="edge61" class="edge">
<title>Node24&#45;&gt;Node3</title>
<path fill="none" stroke="midnightblue" d="M1375.62,-56.86C1373.04,-56.57 1370.5,-56.28 1368,-56 1212.33,-38.69 1026.26,-21.27 949.64,-14.24"/>
<polygon fill="midnightblue" stroke="midnightblue" points="1375.27,-60.35 1385.61,-58.03 1376.09,-53.39 1375.27,-60.35"/>
</g>
<!-- Node25&#45;&gt;Node3 -->
<g id="edge63" class="edge">
<title>Node25&#45;&gt;Node3</title>
<path fill="none" stroke="midnightblue" d="M1388.03,-104.68C1374.74,-89.27 1352.6,-66.92 1328,-56 1260.52,-26.04 1037.18,-15.24 949.64,-12.1"/>
<polygon fill="midnightblue" stroke="midnightblue" points="1385.37,-106.96 1394.46,-112.42 1390.76,-102.49 1385.37,-106.96"/>
</g>
<!-- Node25&#45;&gt;Node9 -->
<g id="edge64" class="edge">
<title>Node25&#45;&gt;Node9</title>
<path fill="none" stroke="midnightblue" d="M1358.18,-109.83C1319.09,-99.63 1262.17,-84.78 1226.65,-75.52"/>
<polygon fill="midnightblue" stroke="midnightblue" points="1357.64,-113.31 1368.2,-112.44 1359.41,-106.53 1357.64,-113.31"/>
</g>
</g>
</svg>
