<?xml version="1.0" encoding="UTF-8" standalone="no"?>
<!DOCTYPE svg PUBLIC "-//W3C//DTD SVG 1.1//EN"
 "http://www.w3.org/Graphics/SVG/1.1/DTD/svg11.dtd">
<!-- Generated by graphviz version 2.43.0 (0)
 -->
<!-- Title: 301/CO_SYNC.h Pages: 1 -->
<svg width="281pt" height="247pt"
 viewBox="0.00 0.00 280.50 247.00" xmlns="http://www.w3.org/2000/svg" xmlns:xlink="http://www.w3.org/1999/xlink">
<g id="graph0" class="graph" transform="scale(1 1) rotate(0) translate(4 243)">
<title>301/CO_SYNC.h</title>
<!-- Node1 -->
<g id="Node000001" class="node">
<title>Node1</title>
<g id="a_Node000001"><a xlink:title="CANopen Synchronisation protocol.">
<polygon fill="#999999" stroke="#666666" points="127.5,-239 35.5,-239 35.5,-220 127.5,-220 127.5,-239"/>
<text text-anchor="middle" x="81.5" y="-227" font-family="Helvetica,sans-Serif" font-size="10.00">301/CO_SYNC.h</text>
</a>
</g>
</g>
<!-- Node2 -->
<g id="Node000002" class="node">
<title>Node2</title>
<g id="a_Node000002"><a xlink:href="CO__driver_8h.html" target="_top" xlink:title="Interface between CAN hardware and CANopenNode.">
<polygon fill="white" stroke="#666666" points="156,-74 61,-74 61,-55 156,-55 156,-74"/>
<text text-anchor="middle" x="108.5" y="-62" font-family="Helvetica,sans-Serif" font-size="10.00">301/CO_driver.h</text>
</a>
</g>
</g>
<!-- Node1&#45;&gt;Node2 -->
<g id="edge1_Node000001_Node000002" class="edge">
<title>Node1&#45;&gt;Node2</title>
<g id="a_edge1_Node000001_Node000002"><a xlink:title=" ">
<path fill="none" stroke="#63b8ff" d="M73.18,-219.79C54.99,-199.65 14.96,-148.63 36.5,-110 44.54,-95.58 59.4,-85.24 73.54,-78.18"/>
<polygon fill="#63b8ff" stroke="#63b8ff" points="75.01,-81.36 82.65,-74.01 72.1,-74.99 75.01,-81.36"/>
</a>
</g>
</g>
<!-- Node6 -->
<g id="Node000006" class="node">
<title>Node6</title>
<g id="a_Node000006"><a xlink:href="CO__ODinterface_8h.html" target="_top" xlink:title="CANopen Object Dictionary interface.">
<polygon fill="white" stroke="#666666" points="171,-129 46,-129 46,-110 171,-110 171,-129"/>
<text text-anchor="middle" x="108.5" y="-117" font-family="Helvetica,sans-Serif" font-size="10.00">301/CO_ODinterface.h</text>
</a>
</g>
</g>
<!-- Node1&#45;&gt;Node6 -->
<g id="edge5_Node000001_Node000006" class="edge">
<title>Node1&#45;&gt;Node6</title>
<g id="a_edge5_Node000001_Node000006"><a xlink:title=" ">
<path fill="none" stroke="#63b8ff" d="M83.71,-219.66C88.1,-202.09 98.01,-162.45 103.89,-138.95"/>
<polygon fill="#63b8ff" stroke="#63b8ff" points="107.31,-139.71 106.34,-129.16 100.51,-138.01 107.31,-139.71"/>
</a>
</g>
</g>
<!-- Node7 -->
<g id="Node000007" class="node">
<title>Node7</title>
<g id="a_Node000007"><a xlink:href="CO__Emergency_8h.html" target="_top" xlink:title="CANopen Emergency protocol.">
<polygon fill="white" stroke="#666666" points="229,-184 110,-184 110,-165 229,-165 229,-184"/>
<text text-anchor="middle" x="169.5" y="-172" font-family="Helvetica,sans-Serif" font-size="10.00">301/CO_Emergency.h</text>
</a>
</g>
</g>
<!-- Node1&#45;&gt;Node7 -->
<g id="edge7_Node000001_Node000007" class="edge">
<title>Node1&#45;&gt;Node7</title>
<g id="a_edge7_Node000001_Node000007"><a xlink:title=" ">
<path fill="none" stroke="#63b8ff" d="M95.64,-219.98C109.29,-211.77 130.19,-199.18 146.28,-189.49"/>
<polygon fill="#63b8ff" stroke="#63b8ff" points="148.34,-192.33 155.1,-184.17 144.73,-186.33 148.34,-192.33"/>
</a>
</g>
</g>
<!-- Node3 -->
<g id="Node000003" class="node">
<title>Node3</title>
<g id="a_Node000003"><a xlink:title=" ">
<polygon fill="#e0e0e0" stroke="#999999" points="53,-19 0,-19 0,0 53,0 53,-19"/>
<text text-anchor="middle" x="26.5" y="-7" font-family="Helvetica,sans-Serif" font-size="10.00">string.h</text>
</a>
</g>
</g>
<!-- Node2&#45;&gt;Node3 -->
<g id="edge2_Node000002_Node000003" class="edge">
<title>Node2&#45;&gt;Node3</title>
<g id="a_edge2_Node000002_Node000003"><a xlink:title=" ">
<path fill="none" stroke="#63b8ff" d="M95.33,-54.98C82.73,-46.84 63.5,-34.41 48.56,-24.76"/>
<polygon fill="#63b8ff" stroke="#63b8ff" points="50.21,-21.66 39.91,-19.17 46.41,-27.54 50.21,-21.66"/>
</a>
</g>
</g>
<!-- Node4 -->
<g id="Node000004" class="node">
<title>Node4</title>
<g id="a_Node000004"><a xlink:href="CO__config_8h.html" target="_top" xlink:title="Configuration macros for CANopenNode.">
<polygon fill="white" stroke="#666666" points="146,-19 71,-19 71,0 146,0 146,-19"/>
<text text-anchor="middle" x="108.5" y="-7" font-family="Helvetica,sans-Serif" font-size="10.00">CO_config.h</text>
</a>
</g>
</g>
<!-- Node2&#45;&gt;Node4 -->
<g id="edge3_Node000002_Node000004" class="edge">
<title>Node2&#45;&gt;Node4</title>
<g id="a_edge3_Node000002_Node000004"><a xlink:title=" ">
<path fill="none" stroke="#63b8ff" d="M108.5,-54.75C108.5,-47.8 108.5,-37.85 108.5,-29.13"/>
<polygon fill="#63b8ff" stroke="#63b8ff" points="112,-29.09 108.5,-19.09 105,-29.09 112,-29.09"/>
</a>
</g>
</g>
<!-- Node5 -->
<g id="Node000005" class="node">
<title>Node5</title>
<g id="a_Node000005"><a xlink:title=" ">
<polygon fill="#e0e0e0" stroke="#999999" points="272.5,-19 164.5,-19 164.5,0 272.5,0 272.5,-19"/>
<text text-anchor="middle" x="218.5" y="-7" font-family="Helvetica,sans-Serif" font-size="10.00">CO_driver_target.h</text>
</a>
</g>
</g>
<!-- Node2&#45;&gt;Node5 -->
<g id="edge4_Node000002_Node000005" class="edge">
<title>Node2&#45;&gt;Node5</title>
<g id="a_edge4_Node000002_Node000005"><a xlink:title=" ">
<path fill="none" stroke="#63b8ff" d="M126.17,-54.98C143.79,-46.5 171.08,-33.35 191.43,-23.54"/>
<polygon fill="#63b8ff" stroke="#63b8ff" points="193.02,-26.66 200.51,-19.17 189.98,-20.36 193.02,-26.66"/>
</a>
</g>
</g>
<!-- Node6&#45;&gt;Node2 -->
<g id="edge6_Node000006_Node000002" class="edge">
<title>Node6&#45;&gt;Node2</title>
<g id="a_edge6_Node000006_Node000002"><a xlink:title=" ">
<path fill="none" stroke="#63b8ff" d="M108.5,-109.75C108.5,-102.8 108.5,-92.85 108.5,-84.13"/>
<polygon fill="#63b8ff" stroke="#63b8ff" points="112,-84.09 108.5,-74.09 105,-84.09 112,-84.09"/>
</a>
</g>
</g>
<!-- Node7&#45;&gt;Node2 -->
<g id="edge8_Node000007_Node000002" class="edge">
<title>Node7&#45;&gt;Node2</title>
<g id="a_edge8_Node000007_Node000002"><a xlink:title=" ">
<path fill="none" stroke="#63b8ff" d="M174.19,-164.68C180.33,-151.83 189.23,-127.58 179.5,-110 171.66,-95.83 157.21,-85.57 143.39,-78.5"/>
<polygon fill="#63b8ff" stroke="#63b8ff" points="144.55,-75.18 134.01,-74.1 141.58,-81.52 144.55,-75.18"/>
</a>
</g>
</g>
<!-- Node7&#45;&gt;Node6 -->
<g id="edge9_Node000007_Node000006" class="edge">
<title>Node7&#45;&gt;Node6</title>
<g id="a_edge9_Node000007_Node000006"><a xlink:title=" ">
<path fill="none" stroke="#63b8ff" d="M159.7,-164.98C150.68,-157.15 137.09,-145.34 126.18,-135.86"/>
<polygon fill="#63b8ff" stroke="#63b8ff" points="128.32,-133.09 118.48,-129.17 123.73,-138.37 128.32,-133.09"/>
</a>
</g>
</g>
</g>
</svg>
