<?xml version="1.0" encoding="UTF-8" standalone="no"?>
<!DOCTYPE svg PUBLIC "-//W3C//DTD SVG 1.1//EN"
 "http://www.w3.org/Graphics/SVG/1.1/DTD/svg11.dtd">
<!-- Generated by graphviz version 2.43.0 (0)
 -->
<!-- Title: 301/CO_NMT_Heartbeat.h Pages: 1 -->
<svg width="535pt" height="196pt"
 viewBox="0.00 0.00 535.06 196.00" xmlns="http://www.w3.org/2000/svg" xmlns:xlink="http://www.w3.org/1999/xlink">
<g id="graph0" class="graph" transform="scale(1 1) rotate(0) translate(4 192)">
<title>301/CO_NMT_Heartbeat.h</title>
<polygon fill="white" stroke="transparent" points="-4,4 -4,-192 531.06,-192 531.06,4 -4,4"/>
<!-- Node1 -->
<g id="node1" class="node">
<title>Node1</title>
<g id="a_node1"><a xlink:title="CANopen Network management and Heartbeat producer protocol.">
<polygon fill="#bfbfbf" stroke="black" points="135.06,-168.5 135.06,-187.5 278.06,-187.5 278.06,-168.5 135.06,-168.5"/>
<text text-anchor="middle" x="206.56" y="-175.5" font-family="Helvetica,sans-Serif" font-size="10.00">301/CO_NMT_Heartbeat.h</text>
</a>
</g>
</g>
<!-- Node2 -->
<g id="node2" class="node">
<title>Node2</title>
<g id="a_node2"><a xlink:href="CANopen_8h.html" target="_top" xlink:title="Main CANopenNode file.">
<polygon fill="white" stroke="black" points="159.06,-0.5 159.06,-19.5 230.06,-19.5 230.06,-0.5 159.06,-0.5"/>
<text text-anchor="middle" x="194.56" y="-7.5" font-family="Helvetica,sans-Serif" font-size="10.00">CANopen.h</text>
</a>
</g>
</g>
<!-- Node1&#45;&gt;Node2 -->
<g id="edge1" class="edge">
<title>Node1&#45;&gt;Node2</title>
<path fill="none" stroke="midnightblue" d="M152.71,-166.18C80.5,-149.26 -33.77,-112.48 10.56,-56 28.63,-32.98 110.53,-20.21 158.76,-14.57"/>
<polygon fill="midnightblue" stroke="midnightblue" points="152.07,-169.63 162.59,-168.44 153.62,-162.8 152.07,-169.63"/>
</g>
<!-- Node3 -->
<g id="node3" class="node">
<title>Node3</title>
<g id="a_node3"><a xlink:href="CO__HBconsumer_8h.html" target="_top" xlink:title="CANopen Heartbeat consumer protocol.">
<polygon fill="white" stroke="black" points="19.56,-56.5 19.56,-75.5 147.56,-75.5 147.56,-56.5 19.56,-56.5"/>
<text text-anchor="middle" x="83.56" y="-63.5" font-family="Helvetica,sans-Serif" font-size="10.00">301/CO_HBconsumer.h</text>
</a>
</g>
</g>
<!-- Node1&#45;&gt;Node3 -->
<g id="edge2" class="edge">
<title>Node1&#45;&gt;Node3</title>
<path fill="none" stroke="midnightblue" d="M152.17,-165.39C132.72,-158.66 112.24,-148.2 98.56,-132 84.81,-115.72 83.08,-89.26 83.19,-75.67"/>
<polygon fill="midnightblue" stroke="midnightblue" points="151.32,-168.79 161.91,-168.48 153.44,-162.12 151.32,-168.79"/>
</g>
<!-- Node4 -->
<g id="node4" class="node">
<title>Node4</title>
<g id="a_node4"><a xlink:href="CO__TIME_8h.html" target="_top" xlink:title="CANopen Time&#45;stamp protocol.">
<polygon fill="white" stroke="black" points="107.56,-112.5 107.56,-131.5 197.56,-131.5 197.56,-112.5 107.56,-112.5"/>
<text text-anchor="middle" x="152.56" y="-119.5" font-family="Helvetica,sans-Serif" font-size="10.00">301/CO_TIME.h</text>
</a>
</g>
</g>
<!-- Node1&#45;&gt;Node4 -->
<g id="edge4" class="edge">
<title>Node1&#45;&gt;Node4</title>
<path fill="none" stroke="midnightblue" d="M190.56,-161C180.99,-151.43 169.2,-139.64 161.31,-131.75"/>
<polygon fill="midnightblue" stroke="midnightblue" points="188.1,-163.49 197.64,-168.08 193.05,-158.54 188.1,-163.49"/>
</g>
<!-- Node5 -->
<g id="node5" class="node">
<title>Node5</title>
<g id="a_node5"><a xlink:href="CO__LEDs_8h.html" target="_top" xlink:title="CANopen Indicator specification (CiA 303&#45;3 v1.4.0)">
<polygon fill="white" stroke="black" points="215.56,-112.5 215.56,-131.5 305.56,-131.5 305.56,-112.5 215.56,-112.5"/>
<text text-anchor="middle" x="260.56" y="-119.5" font-family="Helvetica,sans-Serif" font-size="10.00">303/CO_LEDs.h</text>
</a>
</g>
</g>
<!-- Node1&#45;&gt;Node5 -->
<g id="edge6" class="edge">
<title>Node1&#45;&gt;Node5</title>
<path fill="none" stroke="midnightblue" d="M222.56,-161C232.13,-151.43 243.92,-139.64 251.81,-131.75"/>
<polygon fill="midnightblue" stroke="midnightblue" points="220.07,-158.54 215.48,-168.08 225.02,-163.49 220.07,-158.54"/>
</g>
<!-- Node6 -->
<g id="node6" class="node">
<title>Node6</title>
<g id="a_node6"><a xlink:href="CO__gateway__ascii_8h.html" target="_top" xlink:title="CANopen access from other networks &#45; ASCII mapping (CiA 309&#45;3 DS v3.0.0)">
<polygon fill="white" stroke="black" points="241.56,-56.5 241.56,-75.5 377.56,-75.5 377.56,-56.5 241.56,-56.5"/>
<text text-anchor="middle" x="309.56" y="-63.5" font-family="Helvetica,sans-Serif" font-size="10.00">309/CO_gateway_ascii.h</text>
</a>
</g>
</g>
<!-- Node1&#45;&gt;Node6 -->
<g id="edge13" class="edge">
<title>Node1&#45;&gt;Node6</title>
<path fill="none" stroke="midnightblue" d="M267.83,-165.21C285.93,-158.56 303.77,-148.19 314.56,-132 325.99,-114.86 318.64,-89.24 313.44,-75.86"/>
<polygon fill="midnightblue" stroke="midnightblue" points="266.48,-161.97 258.09,-168.44 268.68,-168.61 266.48,-161.97"/>
</g>
<!-- Node7 -->
<g id="node7" class="node">
<title>Node7</title>
<g id="a_node7"><a xlink:href="CO__SRDO_8h.html" target="_top" xlink:title="CANopen Safety Related Data Object protocol.">
<polygon fill="white" stroke="black" points="361.56,-112.5 361.56,-131.5 455.56,-131.5 455.56,-112.5 361.56,-112.5"/>
<text text-anchor="middle" x="408.56" y="-119.5" font-family="Helvetica,sans-Serif" font-size="10.00">304/CO_SRDO.h</text>
</a>
</g>
</g>
<!-- Node1&#45;&gt;Node7 -->
<g id="edge10" class="edge">
<title>Node1&#45;&gt;Node7</title>
<path fill="none" stroke="midnightblue" d="M248.35,-165.83C286.49,-155.63 342.04,-140.78 376.7,-131.52"/>
<polygon fill="midnightblue" stroke="midnightblue" points="247.32,-162.48 238.57,-168.44 249.13,-169.24 247.32,-162.48"/>
</g>
<!-- Node3&#45;&gt;Node2 -->
<g id="edge3" class="edge">
<title>Node3&#45;&gt;Node2</title>
<path fill="none" stroke="midnightblue" d="M110.56,-51.86C131.15,-41.85 158.9,-28.35 176.77,-19.65"/>
<polygon fill="midnightblue" stroke="midnightblue" points="108.85,-48.8 101.39,-56.32 111.92,-55.1 108.85,-48.8"/>
</g>
<!-- Node4&#45;&gt;Node2 -->
<g id="edge5" class="edge">
<title>Node4&#45;&gt;Node2</title>
<path fill="none" stroke="midnightblue" d="M159.43,-103C168.6,-79 184.45,-37.47 191.28,-19.59"/>
<polygon fill="midnightblue" stroke="midnightblue" points="156.15,-101.78 155.85,-112.37 162.69,-104.27 156.15,-101.78"/>
</g>
<!-- Node5&#45;&gt;Node2 -->
<g id="edge7" class="edge">
<title>Node5&#45;&gt;Node2</title>
<path fill="none" stroke="midnightblue" d="M249.77,-103.91C244.52,-95.53 238.15,-85.27 232.56,-76 220.54,-56.08 206.86,-32.43 199.65,-19.88"/>
<polygon fill="midnightblue" stroke="midnightblue" points="246.83,-105.81 255.12,-112.42 252.76,-102.09 246.83,-105.81"/>
</g>
<!-- Node5&#45;&gt;Node6 -->
<g id="edge8" class="edge">
<title>Node5&#45;&gt;Node6</title>
<path fill="none" stroke="midnightblue" d="M275.59,-104.43C284.18,-94.97 294.6,-83.48 301.62,-75.75"/>
<polygon fill="midnightblue" stroke="midnightblue" points="272.78,-102.33 268.65,-112.08 277.96,-107.03 272.78,-102.33"/>
</g>
<!-- Node6&#45;&gt;Node2 -->
<g id="edge9" class="edge">
<title>Node6&#45;&gt;Node2</title>
<path fill="none" stroke="midnightblue" d="M282.08,-52.1C260.59,-42.01 231.34,-28.27 212.7,-19.52"/>
<polygon fill="midnightblue" stroke="midnightblue" points="280.8,-55.36 291.34,-56.44 283.77,-49.02 280.8,-55.36"/>
</g>
<!-- Node7&#45;&gt;Node2 -->
<g id="edge11" class="edge">
<title>Node7&#45;&gt;Node2</title>
<path fill="none" stroke="midnightblue" d="M407.1,-102.45C404.94,-87.79 399.63,-67.87 386.56,-56 363.88,-35.4 279.04,-21.61 230.06,-15.17"/>
<polygon fill="midnightblue" stroke="midnightblue" points="403.62,-102.87 408.2,-112.42 410.58,-102.09 403.62,-102.87"/>
</g>
<!-- Node8 -->
<g id="node8" class="node">
<title>Node8</title>
<g id="a_node8"><a xlink:href="CO__SRDO_8c.html" target="_top" xlink:title="CANopen Safety Related Data Object protocol.">
<polygon fill="white" stroke="black" points="434.06,-56.5 434.06,-75.5 527.06,-75.5 527.06,-56.5 434.06,-56.5"/>
<text text-anchor="middle" x="480.56" y="-63.5" font-family="Helvetica,sans-Serif" font-size="10.00">304/CO_SRDO.c</text>
</a>
</g>
</g>
<!-- Node7&#45;&gt;Node8 -->
<g id="edge12" class="edge">
<title>Node7&#45;&gt;Node8</title>
<path fill="none" stroke="midnightblue" d="M428.42,-106.1C441.38,-96.38 457.86,-84.03 468.78,-75.83"/>
<polygon fill="midnightblue" stroke="midnightblue" points="426.03,-103.52 420.13,-112.32 430.23,-109.12 426.03,-103.52"/>
</g>
</g>
</svg>
