<?xml version="1.0" encoding="UTF-8" standalone="no"?>
<!DOCTYPE svg PUBLIC "-//W3C//DTD SVG 1.1//EN"
 "http://www.w3.org/Graphics/SVG/1.1/DTD/svg11.dtd">
<!-- Generated by graphviz version 2.43.0 (0)
 -->
<!-- Title: 305/CO_LSSslave.h Pages: 1 -->
<svg width="281pt" height="196pt"
 viewBox="0.00 0.00 280.50 196.00" xmlns="http://www.w3.org/2000/svg" xmlns:xlink="http://www.w3.org/1999/xlink">
<g id="graph0" class="graph" transform="scale(1 1) rotate(0) translate(4 192)">
<title>305/CO_LSSslave.h</title>
<polygon fill="white" stroke="transparent" points="-4,4 -4,-192 276.5,-192 276.5,4 -4,4"/>
<!-- Node1 -->
<g id="node1" class="node">
<title>Node1</title>
<g id="a_node1"><a xlink:title="CANopen Layer Setting Service &#45; slave protocol.">
<polygon fill="#bfbfbf" stroke="black" points="53.5,-168.5 53.5,-187.5 163.5,-187.5 163.5,-168.5 53.5,-168.5"/>
<text text-anchor="middle" x="108.5" y="-175.5" font-family="Helvetica,sans-Serif" font-size="10.00">305/CO_LSSslave.h</text>
</a>
</g>
</g>
<!-- Node2 -->
<g id="node2" class="node">
<title>Node2</title>
<g id="a_node2"><a xlink:href="CO__LSS_8h.html" target="_top" xlink:title="CANopen Layer Setting Services protocol (common).">
<polygon fill="white" stroke="black" points="67,-112.5 67,-131.5 150,-131.5 150,-112.5 67,-112.5"/>
<text text-anchor="middle" x="108.5" y="-119.5" font-family="Helvetica,sans-Serif" font-size="10.00">305/CO_LSS.h</text>
</a>
</g>
</g>
<!-- Node1&#45;&gt;Node2 -->
<g id="edge1" class="edge">
<title>Node1&#45;&gt;Node2</title>
<path fill="none" stroke="midnightblue" d="M108.5,-168.08C108.5,-161.01 108.5,-150.86 108.5,-141.99"/>
<polygon fill="midnightblue" stroke="midnightblue" points="112,-141.75 108.5,-131.75 105,-141.75 112,-141.75"/>
</g>
<!-- Node3 -->
<g id="node3" class="node">
<title>Node3</title>
<g id="a_node3"><a xlink:href="CO__driver_8h.html" target="_top" xlink:title="Interface between CAN hardware and CANopenNode.">
<polygon fill="white" stroke="black" points="61,-56.5 61,-75.5 156,-75.5 156,-56.5 61,-56.5"/>
<text text-anchor="middle" x="108.5" y="-63.5" font-family="Helvetica,sans-Serif" font-size="10.00">301/CO_driver.h</text>
</a>
</g>
</g>
<!-- Node2&#45;&gt;Node3 -->
<g id="edge2" class="edge">
<title>Node2&#45;&gt;Node3</title>
<path fill="none" stroke="midnightblue" d="M108.5,-112.08C108.5,-105.01 108.5,-94.86 108.5,-85.99"/>
<polygon fill="midnightblue" stroke="midnightblue" points="112,-85.75 108.5,-75.75 105,-85.75 112,-85.75"/>
</g>
<!-- Node4 -->
<g id="node4" class="node">
<title>Node4</title>
<g id="a_node4"><a xlink:title=" ">
<polygon fill="white" stroke="#bfbfbf" points="0,-0.5 0,-19.5 53,-19.5 53,-0.5 0,-0.5"/>
<text text-anchor="middle" x="26.5" y="-7.5" font-family="Helvetica,sans-Serif" font-size="10.00">string.h</text>
</a>
</g>
</g>
<!-- Node3&#45;&gt;Node4 -->
<g id="edge3" class="edge">
<title>Node3&#45;&gt;Node4</title>
<path fill="none" stroke="midnightblue" d="M95.33,-56.32C82.65,-47.98 63.27,-35.21 48.29,-25.35"/>
<polygon fill="midnightblue" stroke="midnightblue" points="49.92,-22.23 39.64,-19.65 46.07,-28.08 49.92,-22.23"/>
</g>
<!-- Node5 -->
<g id="node5" class="node">
<title>Node5</title>
<g id="a_node5"><a xlink:href="CO__config_8h.html" target="_top" xlink:title="Configuration macros for CANopenNode.">
<polygon fill="white" stroke="black" points="71,-0.5 71,-19.5 146,-19.5 146,-0.5 71,-0.5"/>
<text text-anchor="middle" x="108.5" y="-7.5" font-family="Helvetica,sans-Serif" font-size="10.00">CO_config.h</text>
</a>
</g>
</g>
<!-- Node3&#45;&gt;Node5 -->
<g id="edge4" class="edge">
<title>Node3&#45;&gt;Node5</title>
<path fill="none" stroke="midnightblue" d="M108.5,-56.08C108.5,-49.01 108.5,-38.86 108.5,-29.99"/>
<polygon fill="midnightblue" stroke="midnightblue" points="112,-29.75 108.5,-19.75 105,-29.75 112,-29.75"/>
</g>
<!-- Node6 -->
<g id="node6" class="node">
<title>Node6</title>
<g id="a_node6"><a xlink:title=" ">
<polygon fill="white" stroke="#bfbfbf" points="164.5,-0.5 164.5,-19.5 272.5,-19.5 272.5,-0.5 164.5,-0.5"/>
<text text-anchor="middle" x="218.5" y="-7.5" font-family="Helvetica,sans-Serif" font-size="10.00">CO_driver_target.h</text>
</a>
</g>
</g>
<!-- Node3&#45;&gt;Node6 -->
<g id="edge5" class="edge">
<title>Node3&#45;&gt;Node6</title>
<path fill="none" stroke="midnightblue" d="M126.17,-56.32C143.89,-47.62 171.4,-34.12 191.79,-24.11"/>
<polygon fill="midnightblue" stroke="midnightblue" points="193.44,-27.2 200.87,-19.65 190.35,-20.92 193.44,-27.2"/>
</g>
</g>
</svg>
