<?xml version="1.0" encoding="UTF-8" standalone="no"?>
<!DOCTYPE svg PUBLIC "-//W3C//DTD SVG 1.1//EN"
 "http://www.w3.org/Graphics/SVG/1.1/DTD/svg11.dtd">
<!-- Generated by graphviz version 2.43.0 (0)
 -->
<!-- Title: 301/CO_SDOclient.h Pages: 1 -->
<svg width="295pt" height="247pt"
 viewBox="0.00 0.00 295.35 247.00" xmlns="http://www.w3.org/2000/svg" xmlns:xlink="http://www.w3.org/1999/xlink">

<svg id="main" version="1.1" xmlns="http://www.w3.org/2000/svg" xmlns:xlink="http://www.w3.org/1999/xlink" xml:space="preserve" onload="init(evt)">
<style type="text/css"><![CDATA[
.node, .edge {opacity: 0.7;}
.node.selected, .edge.selected {opacity: 1;}
.edge:hover path { stroke: red; }
.edge:hover polygon { stroke: red; fill: red; }
]]></style>
<script type="application/ecmascript" xlink:href="svg.min.js"/>
<svg id="graph" class="graph">
<g id="graph0" class="graph" transform="scale(1 1) rotate(0) translate(4 243)">
<title>301/CO_SDOclient.h</title>
<!-- Node1 -->
<g id="Node000001" class="node">
<title>Node1</title>
<g id="a_Node000001"><a xlink:title="CANopen Service Data Object &#45; client protocol.">
<polygon fill="#999999" stroke="#666666" points="165.35,-239 51.35,-239 51.35,-220 165.35,-220 165.35,-239"/>
<text text-anchor="middle" x="108.35" y="-227" font-family="Helvetica,sans-Serif" font-size="10.00">301/CO_SDOclient.h</text>
</a>
</g>
</g>
<!-- Node2 -->
<g id="Node000002" class="node">
<title>Node2</title>
<g id="a_Node000002"><a xlink:href="CO__driver_8h.html" target="_top" xlink:title="Interface between CAN hardware and CANopenNode.">
<polygon fill="white" stroke="#666666" points="170.85,-74 75.85,-74 75.85,-55 170.85,-55 170.85,-74"/>
<text text-anchor="middle" x="123.35" y="-62" font-family="Helvetica,sans-Serif" font-size="10.00">301/CO_driver.h</text>
</a>
</g>
</g>
<!-- Node1&#45;&gt;Node2 -->
<g id="edge1_Node000001_Node000002" class="edge">
<title>Node1&#45;&gt;Node2</title>
<g id="a_edge1_Node000001_Node000002"><a xlink:title=" ">
<path fill="none" stroke="#63b8ff" d="M90.76,-219.94C54.42,-201.11 -23.04,-154.22 7.35,-110 20.71,-90.57 43.82,-79.62 65.9,-73.45"/>
<polygon fill="#63b8ff" stroke="#63b8ff" points="66.76,-76.84 75.61,-71.01 65.06,-70.05 66.76,-76.84"/>
</a>
</g>
</g>
<!-- Node6 -->
<g id="Node000006" class="node">
<title>Node6</title>
<g id="a_Node000006"><a xlink:href="CO__ODinterface_8h.html" target="_top" xlink:title="CANopen Object Dictionary interface.">
<polygon fill="white" stroke="#666666" points="140.85,-129 15.85,-129 15.85,-110 140.85,-110 140.85,-129"/>
<text text-anchor="middle" x="78.35" y="-117" font-family="Helvetica,sans-Serif" font-size="10.00">301/CO_ODinterface.h</text>
</a>
</g>
</g>
<!-- Node1&#45;&gt;Node6 -->
<g id="edge5_Node000001_Node000006" class="edge">
<title>Node1&#45;&gt;Node6</title>
<g id="a_edge5_Node000001_Node000006"><a xlink:title=" ">
<path fill="none" stroke="#63b8ff" d="M102.26,-219.76C96.58,-211.11 88.38,-197.27 84.35,-184 79.97,-169.56 78.56,-152.5 78.19,-139.7"/>
<polygon fill="#63b8ff" stroke="#63b8ff" points="81.69,-139.31 78.09,-129.34 74.69,-139.37 81.69,-139.31"/>
</a>
</g>
</g>
<!-- Node7 -->
<g id="Node000007" class="node">
<title>Node7</title>
<g id="a_Node000007"><a xlink:href="CO__SDOserver_8h.html" target="_top" xlink:title="CANopen Service Data Object &#45; server protocol.">
<polygon fill="white" stroke="#666666" points="211.35,-184 93.35,-184 93.35,-165 211.35,-165 211.35,-184"/>
<text text-anchor="middle" x="152.35" y="-172" font-family="Helvetica,sans-Serif" font-size="10.00">301/CO_SDOserver.h</text>
</a>
</g>
</g>
<!-- Node1&#45;&gt;Node7 -->
<g id="edge7_Node000001_Node000007" class="edge">
<title>Node1&#45;&gt;Node7</title>
<g id="a_edge7_Node000001_Node000007"><a xlink:title=" ">
<path fill="none" stroke="#63b8ff" d="M115.62,-219.75C121.9,-212.18 131.14,-201.05 138.78,-191.84"/>
<polygon fill="#63b8ff" stroke="#63b8ff" points="141.53,-194.02 145.22,-184.09 136.14,-189.55 141.53,-194.02"/>
</a>
</g>
</g>
<!-- Node8 -->
<g id="Node000008" class="node">
<title>Node8</title>
<g id="a_Node000008"><a xlink:href="CO__fifo_8h.html" target="_top" xlink:title="FIFO circular buffer.">
<polygon fill="white" stroke="#666666" points="280.85,-129 197.85,-129 197.85,-110 280.85,-110 280.85,-129"/>
<text text-anchor="middle" x="239.35" y="-117" font-family="Helvetica,sans-Serif" font-size="10.00">301/CO_fifo.h</text>
</a>
</g>
</g>
<!-- Node1&#45;&gt;Node8 -->
<g id="edge10_Node000001_Node000008" class="edge">
<title>Node1&#45;&gt;Node8</title>
<g id="a_edge10_Node000001_Node000008"><a xlink:title=" ">
<path fill="none" stroke="#63b8ff" d="M154.96,-219.92C177.51,-213.54 203.32,-202.59 220.35,-184 231.53,-171.8 236.14,-153.28 238.04,-139.38"/>
<polygon fill="#63b8ff" stroke="#63b8ff" points="241.57,-139.34 239.08,-129.04 234.6,-138.64 241.57,-139.34"/>
</a>
</g>
</g>
<!-- Node3 -->
<g id="Node000003" class="node">
<title>Node3</title>
<g id="a_Node000003"><a xlink:title=" ">
<polygon fill="#e0e0e0" stroke="#999999" points="67.85,-19 14.85,-19 14.85,0 67.85,0 67.85,-19"/>
<text text-anchor="middle" x="41.35" y="-7" font-family="Helvetica,sans-Serif" font-size="10.00">string.h</text>
</a>
</g>
</g>
<!-- Node2&#45;&gt;Node3 -->
<g id="edge2_Node000002_Node000003" class="edge">
<title>Node2&#45;&gt;Node3</title>
<g id="a_edge2_Node000002_Node000003"><a xlink:title=" ">
<path fill="none" stroke="#63b8ff" d="M110.18,-54.98C97.58,-46.84 78.35,-34.41 63.41,-24.76"/>
<polygon fill="#63b8ff" stroke="#63b8ff" points="65.07,-21.66 54.77,-19.17 61.27,-27.54 65.07,-21.66"/>
</a>
</g>
</g>
<!-- Node4 -->
<g id="Node000004" class="node">
<title>Node4</title>
<g id="a_Node000004"><a xlink:href="CO__config_8h.html" target="_top" xlink:title="Configuration macros for CANopenNode.">
<polygon fill="white" stroke="#666666" points="160.85,-19 85.85,-19 85.85,0 160.85,0 160.85,-19"/>
<text text-anchor="middle" x="123.35" y="-7" font-family="Helvetica,sans-Serif" font-size="10.00">CO_config.h</text>
</a>
</g>
</g>
<!-- Node2&#45;&gt;Node4 -->
<g id="edge3_Node000002_Node000004" class="edge">
<title>Node2&#45;&gt;Node4</title>
<g id="a_edge3_Node000002_Node000004"><a xlink:title=" ">
<path fill="none" stroke="#63b8ff" d="M123.35,-54.75C123.35,-47.8 123.35,-37.85 123.35,-29.13"/>
<polygon fill="#63b8ff" stroke="#63b8ff" points="126.85,-29.09 123.35,-19.09 119.85,-29.09 126.85,-29.09"/>
</a>
</g>
</g>
<!-- Node5 -->
<g id="Node000005" class="node">
<title>Node5</title>
<g id="a_Node000005"><a xlink:title=" ">
<polygon fill="#e0e0e0" stroke="#999999" points="287.35,-19 179.35,-19 179.35,0 287.35,0 287.35,-19"/>
<text text-anchor="middle" x="233.35" y="-7" font-family="Helvetica,sans-Serif" font-size="10.00">CO_driver_target.h</text>
</a>
</g>
</g>
<!-- Node2&#45;&gt;Node5 -->
<g id="edge4_Node000002_Node000005" class="edge">
<title>Node2&#45;&gt;Node5</title>
<g id="a_edge4_Node000002_Node000005"><a xlink:title=" ">
<path fill="none" stroke="#63b8ff" d="M141.03,-54.98C158.64,-46.5 185.93,-33.35 206.28,-23.54"/>
<polygon fill="#63b8ff" stroke="#63b8ff" points="207.87,-26.66 215.36,-19.17 204.83,-20.36 207.87,-26.66"/>
</a>
</g>
</g>
<!-- Node6&#45;&gt;Node2 -->
<g id="edge6_Node000006_Node000002" class="edge">
<title>Node6&#45;&gt;Node2</title>
<g id="a_edge6_Node000006_Node000002"><a xlink:title=" ">
<path fill="none" stroke="#63b8ff" d="M85.78,-109.75C92.21,-102.18 101.66,-91.05 109.48,-81.84"/>
<polygon fill="#63b8ff" stroke="#63b8ff" points="112.26,-83.98 116.06,-74.09 106.92,-79.45 112.26,-83.98"/>
</a>
</g>
</g>
<!-- Node7&#45;&gt;Node2 -->
<g id="edge8_Node000007_Node000002" class="edge">
<title>Node7&#45;&gt;Node2</title>
<g id="a_edge8_Node000007_Node000002"><a xlink:title=" ">
<path fill="none" stroke="#63b8ff" d="M153.47,-164.65C154.72,-152.17 155.94,-128.82 150.35,-110 147.43,-100.16 141.79,-90.3 136.42,-82.36"/>
<polygon fill="#63b8ff" stroke="#63b8ff" points="139.11,-80.11 130.41,-74.05 133.43,-84.21 139.11,-80.11"/>
</a>
</g>
</g>
<!-- Node7&#45;&gt;Node6 -->
<g id="edge9_Node000007_Node000006" class="edge">
<title>Node7&#45;&gt;Node6</title>
<g id="a_edge9_Node000007_Node000006"><a xlink:title=" ">
<path fill="none" stroke="#63b8ff" d="M140.46,-164.98C129.2,-156.92 112.07,-144.65 98.64,-135.03"/>
<polygon fill="#63b8ff" stroke="#63b8ff" points="100.63,-132.15 90.46,-129.17 96.55,-137.84 100.63,-132.15"/>
</a>
</g>
</g>
<!-- Node8&#45;&gt;Node2 -->
<g id="edge11_Node000008_Node000002" class="edge">
<title>Node8&#45;&gt;Node2</title>
<g id="a_edge11_Node000008_Node000002"><a xlink:title=" ">
<path fill="none" stroke="#63b8ff" d="M220.72,-109.98C202.06,-101.46 173.1,-88.23 151.61,-78.41"/>
<polygon fill="#63b8ff" stroke="#63b8ff" points="152.88,-75.14 142.33,-74.17 149.97,-81.51 152.88,-75.14"/>
</a>
</g>
</g>
</g>
</svg>
</svg>

<style type='text/css'>
<![CDATA[
[data-mouse-over-selected='false'] { opacity: 0.7; }
[data-mouse-over-selected='true']  { opacity: 1.0; }
]]>
</style>
<script type="application/ecmascript"><![CDATA[
document.addEventListener('DOMContentLoaded', (event) => {
  highlightEdges();
  highlightAdjacentNodes();
});
]]></script>
</svg>
