<?xml version="1.0" encoding="UTF-8" standalone="no"?>
<!DOCTYPE svg PUBLIC "-//W3C//DTD SVG 1.1//EN"
 "http://www.w3.org/Graphics/SVG/1.1/DTD/svg11.dtd">
<!-- Generated by graphviz version 2.43.0 (0)
 -->
<!-- Title: 301/CO_NMT_Heartbeat.h Pages: 1 -->
<svg width="564pt" height="192pt"
 viewBox="0.00 0.00 564.00 192.00" xmlns="http://www.w3.org/2000/svg" xmlns:xlink="http://www.w3.org/1999/xlink">
<g id="graph0" class="graph" transform="scale(1 1) rotate(0) translate(4 188)">
<title>301/CO_NMT_Heartbeat.h</title>
<!-- Node1 -->
<g id="Node000001" class="node">
<title>Node1</title>
<g id="a_Node000001"><a xlink:title="CANopen Network management and Heartbeat producer protocol.">
<polygon fill="#999999" stroke="#666666" points="341.5,-184 198.5,-184 198.5,-165 341.5,-165 341.5,-184"/>
<text text-anchor="middle" x="270" y="-172" font-family="Helvetica,sans-Serif" font-size="10.00">301/CO_NMT_Heartbeat.h</text>
</a>
</g>
</g>
<!-- Node2 -->
<g id="Node000002" class="node">
<title>Node2</title>
<g id="a_Node000002"><a xlink:href="CO__HBconsumer_8h.html" target="_top" xlink:title="CANopen Heartbeat consumer protocol.">
<polygon fill="white" stroke="#666666" points="128,-74 0,-74 0,-55 128,-55 128,-74"/>
<text text-anchor="middle" x="64" y="-62" font-family="Helvetica,sans-Serif" font-size="10.00">301/CO_HBconsumer.h</text>
</a>
</g>
</g>
<!-- Node1&#45;&gt;Node2 -->
<g id="edge1_Node000001_Node000002" class="edge">
<title>Node1&#45;&gt;Node2</title>
<g id="a_edge1_Node000001_Node000002"><a xlink:title=" ">
<path fill="none" stroke="#63b8ff" d="M225.46,-162.18C200.08,-154.72 168.21,-143.62 142,-129 113.94,-113.34 85.92,-87.39 72.38,-74.03"/>
<polygon fill="#63b8ff" stroke="#63b8ff" points="224.63,-165.58 235.2,-164.96 226.54,-158.85 224.63,-165.58"/>
</a>
</g>
</g>
<!-- Node3 -->
<g id="Node000003" class="node">
<title>Node3</title>
<g id="a_Node000003"><a xlink:href="CANopen_8h.html" target="_top" xlink:title="Main CANopenNode file.">
<polygon fill="white" stroke="#666666" points="339.5,-19 268.5,-19 268.5,0 339.5,0 339.5,-19"/>
<text text-anchor="middle" x="304" y="-7" font-family="Helvetica,sans-Serif" font-size="10.00">CANopen.h</text>
</a>
</g>
</g>
<!-- Node1&#45;&gt;Node3 -->
<g id="edge12_Node000001_Node000003" class="edge">
<title>Node1&#45;&gt;Node3</title>
<g id="a_edge12_Node000001_Node000003"><a xlink:title=" ">
<path fill="none" stroke="#63b8ff" d="M245.18,-159.97C208.75,-138.33 148.01,-94.36 176,-55 196.79,-25.76 238.23,-15.57 268.35,-12.1"/>
<polygon fill="#63b8ff" stroke="#63b8ff" points="243.44,-163 253.85,-164.97 246.94,-156.94 243.44,-163"/>
</a>
</g>
</g>
<!-- Node4 -->
<g id="Node000004" class="node">
<title>Node4</title>
<g id="a_Node000004"><a xlink:href="CO__Node__Guarding_8h.html" target="_top" xlink:title="CANopen Node Guarding slave and master objects.">
<polygon fill="white" stroke="#666666" points="325.5,-74 184.5,-74 184.5,-55 325.5,-55 325.5,-74"/>
<text text-anchor="middle" x="255" y="-62" font-family="Helvetica,sans-Serif" font-size="10.00">301/CO_Node_Guarding.h</text>
</a>
</g>
</g>
<!-- Node1&#45;&gt;Node4 -->
<g id="edge3_Node000001_Node000004" class="edge">
<title>Node1&#45;&gt;Node4</title>
<g id="a_edge3_Node000001_Node000004"><a xlink:title=" ">
<path fill="none" stroke="#63b8ff" d="M261.44,-155.59C258.1,-147.64 254.67,-138.05 253,-129 249.44,-109.69 251.8,-86.54 253.56,-74.22"/>
<polygon fill="#63b8ff" stroke="#63b8ff" points="258.34,-157.22 265.63,-164.91 264.73,-154.35 258.34,-157.22"/>
</a>
</g>
</g>
<!-- Node5 -->
<g id="Node000005" class="node">
<title>Node5</title>
<g id="a_Node000005"><a xlink:href="CO__TIME_8h.html" target="_top" xlink:title="CANopen Time&#45;stamp protocol.">
<polygon fill="white" stroke="#666666" points="352,-129 262,-129 262,-110 352,-110 352,-129"/>
<text text-anchor="middle" x="307" y="-117" font-family="Helvetica,sans-Serif" font-size="10.00">301/CO_TIME.h</text>
</a>
</g>
</g>
<!-- Node1&#45;&gt;Node5 -->
<g id="edge5_Node000001_Node000005" class="edge">
<title>Node1&#45;&gt;Node5</title>
<g id="a_edge5_Node000001_Node000005"><a xlink:title=" ">
<path fill="none" stroke="#63b8ff" d="M281.95,-156.39C288.31,-147.27 295.87,-136.45 301,-129.09"/>
<polygon fill="#63b8ff" stroke="#63b8ff" points="278.96,-154.55 276.11,-164.75 284.7,-158.55 278.96,-154.55"/>
</a>
</g>
</g>
<!-- Node6 -->
<g id="Node000006" class="node">
<title>Node6</title>
<g id="a_Node000006"><a xlink:href="CO__LEDs_8h.html" target="_top" xlink:title="CANopen Indicator specification (CiA 303&#45;3 v1.4.0)">
<polygon fill="white" stroke="#666666" points="460,-129 370,-129 370,-110 460,-110 460,-129"/>
<text text-anchor="middle" x="415" y="-117" font-family="Helvetica,sans-Serif" font-size="10.00">303/CO_LEDs.h</text>
</a>
</g>
</g>
<!-- Node1&#45;&gt;Node6 -->
<g id="edge7_Node000001_Node000006" class="edge">
<title>Node1&#45;&gt;Node6</title>
<g id="a_edge7_Node000001_Node000006"><a xlink:title=" ">
<path fill="none" stroke="#63b8ff" d="M302.69,-161.55C329.62,-151.71 367.16,-137.98 391.28,-129.17"/>
<polygon fill="#63b8ff" stroke="#63b8ff" points="301.49,-158.26 293.3,-164.98 303.89,-164.84 301.49,-158.26"/>
</a>
</g>
</g>
<!-- Node7 -->
<g id="Node000007" class="node">
<title>Node7</title>
<g id="a_Node000007"><a xlink:href="CO__gateway__ascii_8h.html" target="_top" xlink:title="CANopen access from other networks &#45; ASCII mapping (CiA 309&#45;3 DS v3.0.0)">
<polygon fill="white" stroke="#666666" points="556,-74 420,-74 420,-55 556,-55 556,-74"/>
<text text-anchor="middle" x="488" y="-62" font-family="Helvetica,sans-Serif" font-size="10.00">309/CO_gateway_ascii.h</text>
</a>
</g>
</g>
<!-- Node1&#45;&gt;Node7 -->
<g id="edge11_Node000001_Node000007" class="edge">
<title>Node1&#45;&gt;Node7</title>
<g id="a_edge11_Node000001_Node000007"><a xlink:title=" ">
<path fill="none" stroke="#63b8ff" d="M351.46,-163.71C398.52,-156.48 451.74,-145.08 469,-129 484.49,-114.57 487.53,-88.08 488.01,-74.32"/>
<polygon fill="#63b8ff" stroke="#63b8ff" points="350.9,-160.26 341.52,-165.19 351.93,-167.18 350.9,-160.26"/>
</a>
</g>
</g>
<!-- Node2&#45;&gt;Node3 -->
<g id="edge2_Node000002_Node000003" class="edge">
<title>Node2&#45;&gt;Node3</title>
<g id="a_edge2_Node000002_Node000003"><a xlink:title=" ">
<path fill="none" stroke="#63b8ff" d="M112.33,-52.83C158.46,-42.64 226.88,-27.53 268.28,-18.39"/>
<polygon fill="#63b8ff" stroke="#63b8ff" points="111.57,-49.41 102.56,-54.98 113.08,-56.25 111.57,-49.41"/>
</a>
</g>
</g>
<!-- Node4&#45;&gt;Node3 -->
<g id="edge4_Node000004_Node000003" class="edge">
<title>Node4&#45;&gt;Node3</title>
<g id="a_edge4_Node000004_Node000003"><a xlink:title=" ">
<path fill="none" stroke="#63b8ff" d="M270.03,-47.24C278.62,-37.95 289.04,-26.68 296.06,-19.09"/>
<polygon fill="#63b8ff" stroke="#63b8ff" points="267.31,-45.03 263.09,-54.75 272.45,-49.78 267.31,-45.03"/>
</a>
</g>
</g>
<!-- Node5&#45;&gt;Node3 -->
<g id="edge6_Node000005_Node000003" class="edge">
<title>Node5&#45;&gt;Node3</title>
<g id="a_edge6_Node000005_Node000003"><a xlink:title=" ">
<path fill="none" stroke="#63b8ff" d="M321.83,-101.55C331,-88.98 340.11,-71.28 335,-55 330.6,-40.99 320.05,-27.53 312.48,-19.15"/>
<polygon fill="#63b8ff" stroke="#63b8ff" points="318.84,-99.69 315.36,-109.7 324.32,-104.05 318.84,-99.69"/>
</a>
</g>
</g>
<!-- Node6&#45;&gt;Node3 -->
<g id="edge10_Node000006_Node000003" class="edge">
<title>Node6&#45;&gt;Node3</title>
<g id="a_edge10_Node000006_Node000003"><a xlink:title=" ">
<path fill="none" stroke="#63b8ff" d="M398.66,-102.61C374.88,-79.47 331.53,-37.29 312.9,-19.16"/>
<polygon fill="#63b8ff" stroke="#63b8ff" points="396.31,-105.2 405.92,-109.66 401.19,-100.18 396.31,-105.2"/>
</a>
</g>
</g>
<!-- Node6&#45;&gt;Node7 -->
<g id="edge8_Node000006_Node000007" class="edge">
<title>Node6&#45;&gt;Node7</title>
<g id="a_edge8_Node000006_Node000007"><a xlink:title=" ">
<path fill="none" stroke="#63b8ff" d="M435.14,-103.88C448.28,-94.34 464.98,-82.21 476.06,-74.17"/>
<polygon fill="#63b8ff" stroke="#63b8ff" points="432.76,-101.28 426.73,-109.98 436.88,-106.94 432.76,-101.28"/>
</a>
</g>
</g>
<!-- Node7&#45;&gt;Node3 -->
<g id="edge9_Node000007_Node000003" class="edge">
<title>Node7&#45;&gt;Node3</title>
<g id="a_edge9_Node000007_Node000003"><a xlink:title=" ">
<path fill="none" stroke="#63b8ff" d="M448.71,-52.18C414.3,-42.27 365.04,-28.08 333.79,-19.08"/>
<polygon fill="#63b8ff" stroke="#63b8ff" points="447.86,-55.58 458.44,-54.98 449.8,-48.85 447.86,-55.58"/>
</a>
</g>
</g>
</g>
</svg>
