<?xml version="1.0" encoding="UTF-8" standalone="no"?>
<!DOCTYPE svg PUBLIC "-//W3C//DTD SVG 1.1//EN"
 "http://www.w3.org/Graphics/SVG/1.1/DTD/svg11.dtd">
<!-- Generated by graphviz version 2.43.0 (0)
 -->
<!-- Title: 303/CO_LEDs.h Pages: 1 -->
<svg width="281pt" height="308pt"
 viewBox="0.00 0.00 281.00 308.00" xmlns="http://www.w3.org/2000/svg" xmlns:xlink="http://www.w3.org/1999/xlink">
<g id="graph0" class="graph" transform="scale(1 1) rotate(0) translate(4 304)">
<title>303/CO_LEDs.h</title>
<polygon fill="white" stroke="transparent" points="-4,4 -4,-304 277,-304 277,4 -4,4"/>
<!-- Node1 -->
<g id="node1" class="node">
<title>Node1</title>
<g id="a_node1"><a xlink:title="CANopen Indicator specification (CiA 303&#45;3 v1.4.0)">
<polygon fill="#bfbfbf" stroke="black" points="30.5,-280.5 30.5,-299.5 120.5,-299.5 120.5,-280.5 30.5,-280.5"/>
<text text-anchor="middle" x="75.5" y="-287.5" font-family="Helvetica,sans-Serif" font-size="10.00">303/CO_LEDs.h</text>
</a>
</g>
</g>
<!-- Node2 -->
<g id="node2" class="node">
<title>Node2</title>
<g id="a_node2"><a xlink:href="CO__driver_8h.html" target="_top" xlink:title="Interface between CAN hardware and CANopenNode.">
<polygon fill="white" stroke="black" points="61,-56.5 61,-75.5 156,-75.5 156,-56.5 61,-56.5"/>
<text text-anchor="middle" x="108.5" y="-63.5" font-family="Helvetica,sans-Serif" font-size="10.00">301/CO_driver.h</text>
</a>
</g>
</g>
<!-- Node1&#45;&gt;Node2 -->
<g id="edge1" class="edge">
<title>Node1&#45;&gt;Node2</title>
<path fill="none" stroke="midnightblue" d="M67.02,-280.23C59.45,-271.75 48.9,-258.13 44.5,-244 41.86,-235.51 43.23,-232.8 44.5,-224 51.91,-172.64 55.17,-158.84 77.5,-112 82.24,-102.06 89.05,-91.89 95.08,-83.74"/>
<polygon fill="midnightblue" stroke="midnightblue" points="97.87,-85.85 101.19,-75.79 92.32,-81.59 97.87,-85.85"/>
</g>
<!-- Node6 -->
<g id="node6" class="node">
<title>Node6</title>
<g id="a_node6"><a xlink:href="CO__NMT__Heartbeat_8h.html" target="_top" xlink:title="CANopen Network management and Heartbeat producer protocol.">
<polygon fill="white" stroke="black" points="54,-224.5 54,-243.5 197,-243.5 197,-224.5 54,-224.5"/>
<text text-anchor="middle" x="125.5" y="-231.5" font-family="Helvetica,sans-Serif" font-size="10.00">301/CO_NMT_Heartbeat.h</text>
</a>
</g>
</g>
<!-- Node1&#45;&gt;Node6 -->
<g id="edge5" class="edge">
<title>Node1&#45;&gt;Node6</title>
<path fill="none" stroke="midnightblue" d="M83.76,-280.08C90.96,-272.3 101.61,-260.8 110.35,-251.37"/>
<polygon fill="midnightblue" stroke="midnightblue" points="113.17,-253.47 117.4,-243.75 108.03,-248.71 113.17,-253.47"/>
</g>
<!-- Node3 -->
<g id="node3" class="node">
<title>Node3</title>
<g id="a_node3"><a xlink:title=" ">
<polygon fill="white" stroke="#bfbfbf" points="0,-0.5 0,-19.5 53,-19.5 53,-0.5 0,-0.5"/>
<text text-anchor="middle" x="26.5" y="-7.5" font-family="Helvetica,sans-Serif" font-size="10.00">string.h</text>
</a>
</g>
</g>
<!-- Node2&#45;&gt;Node3 -->
<g id="edge2" class="edge">
<title>Node2&#45;&gt;Node3</title>
<path fill="none" stroke="midnightblue" d="M95.33,-56.32C82.65,-47.98 63.27,-35.21 48.29,-25.35"/>
<polygon fill="midnightblue" stroke="midnightblue" points="49.92,-22.23 39.64,-19.65 46.07,-28.08 49.92,-22.23"/>
</g>
<!-- Node4 -->
<g id="node4" class="node">
<title>Node4</title>
<g id="a_node4"><a xlink:href="CO__config_8h.html" target="_top" xlink:title="Configuration macros for CANopenNode.">
<polygon fill="white" stroke="black" points="71,-0.5 71,-19.5 146,-19.5 146,-0.5 71,-0.5"/>
<text text-anchor="middle" x="108.5" y="-7.5" font-family="Helvetica,sans-Serif" font-size="10.00">CO_config.h</text>
</a>
</g>
</g>
<!-- Node2&#45;&gt;Node4 -->
<g id="edge3" class="edge">
<title>Node2&#45;&gt;Node4</title>
<path fill="none" stroke="midnightblue" d="M108.5,-56.08C108.5,-49.01 108.5,-38.86 108.5,-29.99"/>
<polygon fill="midnightblue" stroke="midnightblue" points="112,-29.75 108.5,-19.75 105,-29.75 112,-29.75"/>
</g>
<!-- Node5 -->
<g id="node5" class="node">
<title>Node5</title>
<g id="a_node5"><a xlink:title=" ">
<polygon fill="white" stroke="#bfbfbf" points="164.5,-0.5 164.5,-19.5 272.5,-19.5 272.5,-0.5 164.5,-0.5"/>
<text text-anchor="middle" x="218.5" y="-7.5" font-family="Helvetica,sans-Serif" font-size="10.00">CO_driver_target.h</text>
</a>
</g>
</g>
<!-- Node2&#45;&gt;Node5 -->
<g id="edge4" class="edge">
<title>Node2&#45;&gt;Node5</title>
<path fill="none" stroke="midnightblue" d="M126.17,-56.32C143.89,-47.62 171.4,-34.12 191.79,-24.11"/>
<polygon fill="midnightblue" stroke="midnightblue" points="193.44,-27.2 200.87,-19.65 190.35,-20.92 193.44,-27.2"/>
</g>
<!-- Node6&#45;&gt;Node2 -->
<g id="edge6" class="edge">
<title>Node6&#45;&gt;Node2</title>
<path fill="none" stroke="midnightblue" d="M120.46,-224.47C110.77,-207.55 89.89,-168.23 82.5,-132 80.72,-123.29 80.2,-120.59 82.5,-112 85.15,-102.1 90.57,-92.13 95.77,-84.1"/>
<polygon fill="midnightblue" stroke="midnightblue" points="98.79,-85.89 101.61,-75.68 93.04,-81.91 98.79,-85.89"/>
</g>
<!-- Node7 -->
<g id="node7" class="node">
<title>Node7</title>
<g id="a_node7"><a xlink:href="CO__ODinterface_8h.html" target="_top" xlink:title="CANopen Object Dictionary interface.">
<polygon fill="white" stroke="black" points="92,-112.5 92,-131.5 217,-131.5 217,-112.5 92,-112.5"/>
<text text-anchor="middle" x="154.5" y="-119.5" font-family="Helvetica,sans-Serif" font-size="10.00">301/CO_ODinterface.h</text>
</a>
</g>
</g>
<!-- Node6&#45;&gt;Node7 -->
<g id="edge7" class="edge">
<title>Node6&#45;&gt;Node7</title>
<path fill="none" stroke="midnightblue" d="M127.78,-224.37C132.48,-206.54 143.35,-165.3 149.68,-141.27"/>
<polygon fill="midnightblue" stroke="midnightblue" points="153.07,-142.15 152.23,-131.59 146.3,-140.37 153.07,-142.15"/>
</g>
<!-- Node8 -->
<g id="node8" class="node">
<title>Node8</title>
<g id="a_node8"><a xlink:href="CO__Emergency_8h.html" target="_top" xlink:title="CANopen Emergency protocol.">
<polygon fill="white" stroke="black" points="154,-168.5 154,-187.5 273,-187.5 273,-168.5 154,-168.5"/>
<text text-anchor="middle" x="213.5" y="-175.5" font-family="Helvetica,sans-Serif" font-size="10.00">301/CO_Emergency.h</text>
</a>
</g>
</g>
<!-- Node6&#45;&gt;Node8 -->
<g id="edge9" class="edge">
<title>Node6&#45;&gt;Node8</title>
<path fill="none" stroke="midnightblue" d="M139.64,-224.32C153.37,-215.9 174.44,-202.97 190.56,-193.07"/>
<polygon fill="midnightblue" stroke="midnightblue" points="192.7,-195.87 199.4,-187.65 189.04,-189.9 192.7,-195.87"/>
</g>
<!-- Node7&#45;&gt;Node2 -->
<g id="edge8" class="edge">
<title>Node7&#45;&gt;Node2</title>
<path fill="none" stroke="midnightblue" d="M146.9,-112.08C140.27,-104.3 130.48,-92.8 122.44,-83.37"/>
<polygon fill="midnightblue" stroke="midnightblue" points="125.1,-81.09 115.95,-75.75 119.77,-85.63 125.1,-81.09"/>
</g>
<!-- Node8&#45;&gt;Node2 -->
<g id="edge10" class="edge">
<title>Node8&#45;&gt;Node2</title>
<path fill="none" stroke="midnightblue" d="M218.89,-168.16C226.27,-154.81 237.32,-129.22 225.5,-112 211.92,-92.23 188.36,-81.14 165.92,-74.93"/>
<polygon fill="midnightblue" stroke="midnightblue" points="166.61,-71.49 156.06,-72.47 164.92,-78.29 166.61,-71.49"/>
</g>
<!-- Node8&#45;&gt;Node7 -->
<g id="edge11" class="edge">
<title>Node8&#45;&gt;Node7</title>
<path fill="none" stroke="midnightblue" d="M204.02,-168.32C195.3,-160.34 182.16,-148.31 171.6,-138.65"/>
<polygon fill="midnightblue" stroke="midnightblue" points="173.89,-136 164.15,-131.83 169.17,-141.17 173.89,-136"/>
</g>
</g>
</svg>
