<?xml version="1.0" encoding="UTF-8" standalone="no"?>
<!DOCTYPE svg PUBLIC "-//W3C//DTD SVG 1.1//EN"
 "http://www.w3.org/Graphics/SVG/1.1/DTD/svg11.dtd">
<!-- Generated by graphviz version 2.43.0 (0)
 -->
<!-- Title: extra/CO_trace.h Pages: 1 -->
<svg width="281pt" height="252pt"
 viewBox="0.00 0.00 280.50 252.00" xmlns="http://www.w3.org/2000/svg" xmlns:xlink="http://www.w3.org/1999/xlink">
<g id="graph0" class="graph" transform="scale(1 1) rotate(0) translate(4 248)">
<title>extra/CO_trace.h</title>
<polygon fill="white" stroke="transparent" points="-4,4 -4,-248 276.5,-248 276.5,4 -4,4"/>
<!-- Node1 -->
<g id="node1" class="node">
<title>Node1</title>
<g id="a_node1"><a xlink:title="CANopen trace object for recording variables over time.">
<polygon fill="#bfbfbf" stroke="black" points="64.5,-224.5 64.5,-243.5 162.5,-243.5 162.5,-224.5 64.5,-224.5"/>
<text text-anchor="middle" x="113.5" y="-231.5" font-family="Helvetica,sans-Serif" font-size="10.00">extra/CO_trace.h</text>
</a>
</g>
</g>
<!-- Node2 -->
<g id="node2" class="node">
<title>Node2</title>
<g id="a_node2"><a xlink:href="CO__driver_8h.html" target="_top" xlink:title="Interface between CAN hardware and CANopenNode.">
<polygon fill="white" stroke="black" points="61,-56.5 61,-75.5 156,-75.5 156,-56.5 61,-56.5"/>
<text text-anchor="middle" x="108.5" y="-63.5" font-family="Helvetica,sans-Serif" font-size="10.00">301/CO_driver.h</text>
</a>
</g>
</g>
<!-- Node1&#45;&gt;Node2 -->
<g id="edge1" class="edge">
<title>Node1&#45;&gt;Node2</title>
<path fill="none" stroke="midnightblue" d="M107.13,-224.23C101.24,-215.53 92.89,-201.57 89.5,-188 80.51,-152.04 92.57,-108.96 101.18,-85.12"/>
<polygon fill="midnightblue" stroke="midnightblue" points="104.51,-86.2 104.81,-75.61 97.97,-83.71 104.51,-86.2"/>
</g>
<!-- Node6 -->
<g id="node6" class="node">
<title>Node6</title>
<g id="a_node6"><a xlink:href="CO__SDOserver_8h.html" target="_top" xlink:title="CANopen Service Data Object &#45; server protocol.">
<polygon fill="white" stroke="black" points="98.5,-168.5 98.5,-187.5 216.5,-187.5 216.5,-168.5 98.5,-168.5"/>
<text text-anchor="middle" x="157.5" y="-175.5" font-family="Helvetica,sans-Serif" font-size="10.00">301/CO_SDOserver.h</text>
</a>
</g>
</g>
<!-- Node1&#45;&gt;Node6 -->
<g id="edge5" class="edge">
<title>Node1&#45;&gt;Node6</title>
<path fill="none" stroke="midnightblue" d="M120.77,-224.08C127.04,-216.38 136.29,-205.03 143.93,-195.65"/>
<polygon fill="midnightblue" stroke="midnightblue" points="146.77,-197.71 150.37,-187.75 141.34,-193.29 146.77,-197.71"/>
</g>
<!-- Node3 -->
<g id="node3" class="node">
<title>Node3</title>
<g id="a_node3"><a xlink:title=" ">
<polygon fill="white" stroke="#bfbfbf" points="0,-0.5 0,-19.5 53,-19.5 53,-0.5 0,-0.5"/>
<text text-anchor="middle" x="26.5" y="-7.5" font-family="Helvetica,sans-Serif" font-size="10.00">string.h</text>
</a>
</g>
</g>
<!-- Node2&#45;&gt;Node3 -->
<g id="edge2" class="edge">
<title>Node2&#45;&gt;Node3</title>
<path fill="none" stroke="midnightblue" d="M95.33,-56.32C82.65,-47.98 63.27,-35.21 48.29,-25.35"/>
<polygon fill="midnightblue" stroke="midnightblue" points="49.92,-22.23 39.64,-19.65 46.07,-28.08 49.92,-22.23"/>
</g>
<!-- Node4 -->
<g id="node4" class="node">
<title>Node4</title>
<g id="a_node4"><a xlink:href="CO__config_8h.html" target="_top" xlink:title="Configuration macros for CANopenNode.">
<polygon fill="white" stroke="black" points="71,-0.5 71,-19.5 146,-19.5 146,-0.5 71,-0.5"/>
<text text-anchor="middle" x="108.5" y="-7.5" font-family="Helvetica,sans-Serif" font-size="10.00">CO_config.h</text>
</a>
</g>
</g>
<!-- Node2&#45;&gt;Node4 -->
<g id="edge3" class="edge">
<title>Node2&#45;&gt;Node4</title>
<path fill="none" stroke="midnightblue" d="M108.5,-56.08C108.5,-49.01 108.5,-38.86 108.5,-29.99"/>
<polygon fill="midnightblue" stroke="midnightblue" points="112,-29.75 108.5,-19.75 105,-29.75 112,-29.75"/>
</g>
<!-- Node5 -->
<g id="node5" class="node">
<title>Node5</title>
<g id="a_node5"><a xlink:title=" ">
<polygon fill="white" stroke="#bfbfbf" points="164.5,-0.5 164.5,-19.5 272.5,-19.5 272.5,-0.5 164.5,-0.5"/>
<text text-anchor="middle" x="218.5" y="-7.5" font-family="Helvetica,sans-Serif" font-size="10.00">CO_driver_target.h</text>
</a>
</g>
</g>
<!-- Node2&#45;&gt;Node5 -->
<g id="edge4" class="edge">
<title>Node2&#45;&gt;Node5</title>
<path fill="none" stroke="midnightblue" d="M126.17,-56.32C143.89,-47.62 171.4,-34.12 191.79,-24.11"/>
<polygon fill="midnightblue" stroke="midnightblue" points="193.44,-27.2 200.87,-19.65 190.35,-20.92 193.44,-27.2"/>
</g>
<!-- Node6&#45;&gt;Node2 -->
<g id="edge6" class="edge">
<title>Node6&#45;&gt;Node2</title>
<path fill="none" stroke="midnightblue" d="M150.43,-168.18C143.73,-159.44 133.77,-145.45 127.5,-132 120.51,-117.01 115.47,-98.88 112.34,-85.58"/>
<polygon fill="midnightblue" stroke="midnightblue" points="115.74,-84.72 110.17,-75.71 108.9,-86.23 115.74,-84.72"/>
</g>
<!-- Node7 -->
<g id="node7" class="node">
<title>Node7</title>
<g id="a_node7"><a xlink:href="CO__ODinterface_8h.html" target="_top" xlink:title="CANopen Object Dictionary interface.">
<polygon fill="white" stroke="black" points="137,-112.5 137,-131.5 262,-131.5 262,-112.5 137,-112.5"/>
<text text-anchor="middle" x="199.5" y="-119.5" font-family="Helvetica,sans-Serif" font-size="10.00">301/CO_ODinterface.h</text>
</a>
</g>
</g>
<!-- Node6&#45;&gt;Node7 -->
<g id="edge7" class="edge">
<title>Node6&#45;&gt;Node7</title>
<path fill="none" stroke="midnightblue" d="M164.44,-168.08C170.43,-160.38 179.25,-149.03 186.55,-139.65"/>
<polygon fill="midnightblue" stroke="midnightblue" points="189.32,-141.79 192.69,-131.75 183.79,-137.5 189.32,-141.79"/>
</g>
<!-- Node7&#45;&gt;Node2 -->
<g id="edge8" class="edge">
<title>Node7&#45;&gt;Node2</title>
<path fill="none" stroke="midnightblue" d="M184.88,-112.32C170.55,-103.82 148.49,-90.73 131.75,-80.8"/>
<polygon fill="midnightblue" stroke="midnightblue" points="133.47,-77.75 123.08,-75.65 129.9,-83.77 133.47,-77.75"/>
</g>
</g>
</svg>
