<?xml version="1.0" encoding="UTF-8" standalone="no"?>
<!DOCTYPE svg PUBLIC "-//W3C//DTD SVG 1.1//EN"
 "http://www.w3.org/Graphics/SVG/1.1/DTD/svg11.dtd">
<!-- Generated by graphviz version 2.43.0 (0)
 -->
<!-- Title: 301/CO_ODinterface.h Pages: 1 -->
<svg width="1145pt" height="308pt"
 viewBox="0.00 0.00 1144.50 308.00" xmlns="http://www.w3.org/2000/svg" xmlns:xlink="http://www.w3.org/1999/xlink">
<g id="graph0" class="graph" transform="scale(1 1) rotate(0) translate(4 304)">
<title>301/CO_ODinterface.h</title>
<polygon fill="white" stroke="transparent" points="-4,4 -4,-304 1140.5,-304 1140.5,4 -4,4"/>
<!-- Node1 -->
<g id="node1" class="node">
<title>Node1</title>
<g id="a_node1"><a xlink:title="CANopen Object Dictionary interface.">
<polygon fill="#bfbfbf" stroke="black" points="563.5,-280.5 563.5,-299.5 688.5,-299.5 688.5,-280.5 563.5,-280.5"/>
<text text-anchor="middle" x="626" y="-287.5" font-family="Helvetica,sans-Serif" font-size="10.00">301/CO_ODinterface.h</text>
</a>
</g>
</g>
<!-- Node2 -->
<g id="node2" class="node">
<title>Node2</title>
<g id="a_node2"><a xlink:href="CANopen_8h.html" target="_top" xlink:title="Main CANopenNode file.">
<polygon fill="white" stroke="black" points="450.5,-0.5 450.5,-19.5 521.5,-19.5 521.5,-0.5 450.5,-0.5"/>
<text text-anchor="middle" x="486" y="-7.5" font-family="Helvetica,sans-Serif" font-size="10.00">CANopen.h</text>
</a>
</g>
</g>
<!-- Node1&#45;&gt;Node2 -->
<g id="edge1" class="edge">
<title>Node1&#45;&gt;Node2</title>
<path fill="none" stroke="midnightblue" d="M698.76,-279.18C794.29,-264.2 950,-231.71 950,-179 950,-179 950,-179 950,-121 950,-86.36 936.59,-74 907,-56 842.63,-16.85 611.38,-11.54 521.8,-10.98"/>
<polygon fill="midnightblue" stroke="midnightblue" points="698.21,-275.72 688.85,-280.7 699.27,-282.64 698.21,-275.72"/>
</g>
<!-- Node3 -->
<g id="node3" class="node">
<title>Node3</title>
<g id="a_node3"><a xlink:href="CO__Emergency_8h.html" target="_top" xlink:title="CANopen Emergency protocol.">
<polygon fill="white" stroke="black" points="441.5,-224.5 441.5,-243.5 560.5,-243.5 560.5,-224.5 441.5,-224.5"/>
<text text-anchor="middle" x="501" y="-231.5" font-family="Helvetica,sans-Serif" font-size="10.00">301/CO_Emergency.h</text>
</a>
</g>
</g>
<!-- Node1&#45;&gt;Node3 -->
<g id="edge2" class="edge">
<title>Node1&#45;&gt;Node3</title>
<path fill="none" stroke="midnightblue" d="M596.76,-276.37C573.35,-266.26 541.16,-252.35 520.71,-243.52"/>
<polygon fill="midnightblue" stroke="midnightblue" points="595.63,-279.69 606.19,-280.44 598.4,-273.26 595.63,-279.69"/>
</g>
<!-- Node4 -->
<g id="node4" class="node">
<title>Node4</title>
<g id="a_node4"><a xlink:href="CO__HBconsumer_8h.html" target="_top" xlink:title="CANopen Heartbeat consumer protocol.">
<polygon fill="white" stroke="black" points="0,-112.5 0,-131.5 128,-131.5 128,-112.5 0,-112.5"/>
<text text-anchor="middle" x="64" y="-119.5" font-family="Helvetica,sans-Serif" font-size="10.00">301/CO_HBconsumer.h</text>
</a>
</g>
</g>
<!-- Node1&#45;&gt;Node4 -->
<g id="edge25" class="edge">
<title>Node1&#45;&gt;Node4</title>
<path fill="none" stroke="midnightblue" d="M553.42,-283.18C459.16,-273.44 291.29,-248.55 161,-188 126.99,-172.2 91.48,-145.29 74.4,-131.58"/>
<polygon fill="midnightblue" stroke="midnightblue" points="553.12,-286.67 563.42,-284.19 553.82,-279.7 553.12,-286.67"/>
</g>
<!-- Node5 -->
<g id="node5" class="node">
<title>Node5</title>
<g id="a_node5"><a xlink:href="CO__NMT__Heartbeat_8h.html" target="_top" xlink:title="CANopen Network management and Heartbeat producer protocol.">
<polygon fill="white" stroke="black" points="232.5,-168.5 232.5,-187.5 375.5,-187.5 375.5,-168.5 232.5,-168.5"/>
<text text-anchor="middle" x="304" y="-175.5" font-family="Helvetica,sans-Serif" font-size="10.00">301/CO_NMT_Heartbeat.h</text>
</a>
</g>
</g>
<!-- Node1&#45;&gt;Node5 -->
<g id="edge26" class="edge">
<title>Node1&#45;&gt;Node5</title>
<path fill="none" stroke="midnightblue" d="M553.18,-283.04C506.22,-277.25 444.69,-265.94 394,-244 361.1,-229.76 328.5,-201.9 313.13,-187.73"/>
<polygon fill="midnightblue" stroke="midnightblue" points="552.93,-286.54 563.27,-284.23 553.75,-279.59 552.93,-286.54"/>
</g>
<!-- Node6 -->
<g id="node6" class="node">
<title>Node6</title>
<g id="a_node6"><a xlink:href="CO__TIME_8h.html" target="_top" xlink:title="CANopen Time&#45;stamp protocol.">
<polygon fill="white" stroke="black" points="330,-112.5 330,-131.5 420,-131.5 420,-112.5 330,-112.5"/>
<text text-anchor="middle" x="375" y="-119.5" font-family="Helvetica,sans-Serif" font-size="10.00">301/CO_TIME.h</text>
</a>
</g>
</g>
<!-- Node1&#45;&gt;Node6 -->
<g id="edge38" class="edge">
<title>Node1&#45;&gt;Node6</title>
<path fill="none" stroke="midnightblue" d="M552.98,-287.15C513.44,-282.7 465.9,-271.37 432,-244 394.78,-213.95 380.55,-153.91 376.41,-131.61"/>
<polygon fill="midnightblue" stroke="midnightblue" points="552.81,-290.65 563.1,-288.16 553.5,-283.68 552.81,-290.65"/>
</g>
<!-- Node11 -->
<g id="node11" class="node">
<title>Node11</title>
<g id="a_node11"><a xlink:href="CO__PDO_8h.html" target="_top" xlink:title="CANopen Process Data Object protocol.">
<polygon fill="white" stroke="black" points="588.5,-112.5 588.5,-131.5 675.5,-131.5 675.5,-112.5 588.5,-112.5"/>
<text text-anchor="middle" x="632" y="-119.5" font-family="Helvetica,sans-Serif" font-size="10.00">301/CO_PDO.h</text>
</a>
</g>
</g>
<!-- Node1&#45;&gt;Node11 -->
<g id="edge27" class="edge">
<title>Node1&#45;&gt;Node11</title>
<path fill="none" stroke="midnightblue" d="M618.93,-270.87C610.61,-247.02 599.02,-203.91 608,-168 611.39,-154.43 619.74,-140.47 625.63,-131.77"/>
<polygon fill="midnightblue" stroke="midnightblue" points="615.69,-272.21 622.43,-280.38 622.26,-269.79 615.69,-272.21"/>
</g>
<!-- Node12 -->
<g id="node12" class="node">
<title>Node12</title>
<g id="a_node12"><a xlink:href="CO__SYNC_8h.html" target="_top" xlink:title="CANopen Synchronisation protocol.">
<polygon fill="white" stroke="black" points="617,-168.5 617,-187.5 709,-187.5 709,-168.5 617,-168.5"/>
<text text-anchor="middle" x="663" y="-175.5" font-family="Helvetica,sans-Serif" font-size="10.00">301/CO_SYNC.h</text>
</a>
</g>
</g>
<!-- Node1&#45;&gt;Node12 -->
<g id="edge37" class="edge">
<title>Node1&#45;&gt;Node12</title>
<path fill="none" stroke="midnightblue" d="M632.16,-270.67C640.25,-246.62 654.12,-205.39 660.11,-187.59"/>
<polygon fill="midnightblue" stroke="midnightblue" points="628.77,-269.77 628.9,-280.37 635.41,-272.01 628.77,-269.77"/>
</g>
<!-- Node13 -->
<g id="node13" class="node">
<title>Node13</title>
<g id="a_node13"><a xlink:href="CO__SDOclient_8h.html" target="_top" xlink:title="CANopen Service Data Object &#45; client protocol.">
<polygon fill="white" stroke="black" points="732,-112.5 732,-131.5 846,-131.5 846,-112.5 732,-112.5"/>
<text text-anchor="middle" x="789" y="-119.5" font-family="Helvetica,sans-Serif" font-size="10.00">301/CO_SDOclient.h</text>
</a>
</g>
</g>
<!-- Node1&#45;&gt;Node13 -->
<g id="edge28" class="edge">
<title>Node1&#45;&gt;Node13</title>
<path fill="none" stroke="midnightblue" d="M642.05,-272.65C676.14,-237.94 754.73,-157.9 780.59,-131.57"/>
<polygon fill="midnightblue" stroke="midnightblue" points="639.27,-270.49 634.76,-280.08 644.27,-275.39 639.27,-270.49"/>
</g>
<!-- Node14 -->
<g id="node14" class="node">
<title>Node14</title>
<g id="a_node14"><a xlink:href="CO__SDOserver_8h.html" target="_top" xlink:title="CANopen Service Data Object &#45; server protocol.">
<polygon fill="white" stroke="black" points="765,-168.5 765,-187.5 883,-187.5 883,-168.5 765,-168.5"/>
<text text-anchor="middle" x="824" y="-175.5" font-family="Helvetica,sans-Serif" font-size="10.00">301/CO_SDOserver.h</text>
</a>
</g>
</g>
<!-- Node1&#45;&gt;Node14 -->
<g id="edge31" class="edge">
<title>Node1&#45;&gt;Node14</title>
<path fill="none" stroke="midnightblue" d="M670.31,-277.56C695.08,-270.09 725.91,-258.92 751,-244 777.84,-228.04 803.81,-201.44 816.29,-187.75"/>
<polygon fill="midnightblue" stroke="midnightblue" points="669.07,-274.28 660.45,-280.45 671.03,-281 669.07,-274.28"/>
</g>
<!-- Node16 -->
<g id="node16" class="node">
<title>Node16</title>
<g id="a_node16"><a xlink:href="CO__storage_8h.html" target="_top" xlink:title="CANopen data storage base object.">
<polygon fill="white" stroke="black" points="987,-224.5 987,-243.5 1109,-243.5 1109,-224.5 987,-224.5"/>
<text text-anchor="middle" x="1048" y="-231.5" font-family="Helvetica,sans-Serif" font-size="10.00">storage/CO_storage.h</text>
</a>
</g>
</g>
<!-- Node1&#45;&gt;Node16 -->
<g id="edge39" class="edge">
<title>Node1&#45;&gt;Node16</title>
<path fill="none" stroke="midnightblue" d="M698.89,-279.67C780.34,-269.25 910.73,-252.57 986.99,-242.81"/>
<polygon fill="midnightblue" stroke="midnightblue" points="698.2,-276.23 688.72,-280.97 699.09,-283.18 698.2,-276.23"/>
</g>
<!-- Node3&#45;&gt;Node2 -->
<g id="edge3" class="edge">
<title>Node3&#45;&gt;Node2</title>
<path fill="none" stroke="midnightblue" d="M492.95,-215.01C484.55,-195.15 471.92,-162.02 467,-132 460.09,-89.82 475.74,-39.28 482.79,-19.51"/>
<polygon fill="midnightblue" stroke="midnightblue" points="489.81,-216.55 497,-224.33 496.23,-213.76 489.81,-216.55"/>
</g>
<!-- Node3&#45;&gt;Node4 -->
<g id="edge4" class="edge">
<title>Node3&#45;&gt;Node4</title>
<path fill="none" stroke="midnightblue" d="M431.36,-226.18C374.55,-219.56 292.6,-207.58 223,-188 169.6,-172.98 109.86,-145.47 81.19,-131.55"/>
<polygon fill="midnightblue" stroke="midnightblue" points="430.98,-229.66 441.31,-227.31 431.77,-222.7 430.98,-229.66"/>
</g>
<!-- Node3&#45;&gt;Node5 -->
<g id="edge6" class="edge">
<title>Node3&#45;&gt;Node5</title>
<path fill="none" stroke="midnightblue" d="M459.77,-221.7C422.59,-211.51 368.73,-196.74 335.07,-187.52"/>
<polygon fill="midnightblue" stroke="midnightblue" points="459.22,-225.18 469.78,-224.44 461.07,-218.42 459.22,-225.18"/>
</g>
<!-- Node9 -->
<g id="node9" class="node">
<title>Node9</title>
<g id="a_node9"><a xlink:href="CO__SRDO_8h.html" target="_top" xlink:title="CANopen Safety Related Data Object protocol.">
<polygon fill="white" stroke="black" points="476,-112.5 476,-131.5 570,-131.5 570,-112.5 476,-112.5"/>
<text text-anchor="middle" x="523" y="-119.5" font-family="Helvetica,sans-Serif" font-size="10.00">304/CO_SRDO.h</text>
</a>
</g>
</g>
<!-- Node3&#45;&gt;Node9 -->
<g id="edge24" class="edge">
<title>Node3&#45;&gt;Node9</title>
<path fill="none" stroke="midnightblue" d="M504.73,-214.35C509.55,-190.25 517.74,-149.31 521.28,-131.59"/>
<polygon fill="midnightblue" stroke="midnightblue" points="501.26,-213.88 502.73,-224.37 508.12,-215.25 501.26,-213.88"/>
</g>
<!-- Node3&#45;&gt;Node11 -->
<g id="edge19" class="edge">
<title>Node3&#45;&gt;Node11</title>
<path fill="none" stroke="midnightblue" d="M518.28,-217.36C533.14,-204.03 555.23,-184.47 575,-168 590.5,-155.09 608.89,-140.74 620.5,-131.79"/>
<polygon fill="midnightblue" stroke="midnightblue" points="515.53,-215.13 510.44,-224.42 520.21,-220.33 515.53,-215.13"/>
</g>
<!-- Node3&#45;&gt;Node12 -->
<g id="edge21" class="edge">
<title>Node3&#45;&gt;Node12</title>
<path fill="none" stroke="midnightblue" d="M536.48,-221.17C566.99,-211 610.24,-196.59 637.45,-187.52"/>
<polygon fill="midnightblue" stroke="midnightblue" points="535.05,-217.96 526.67,-224.44 537.26,-224.6 535.05,-217.96"/>
</g>
<!-- Node4&#45;&gt;Node2 -->
<g id="edge5" class="edge">
<title>Node4&#45;&gt;Node2</title>
<path fill="none" stroke="midnightblue" d="M78.15,-104.81C92.56,-89.48 116.38,-67.21 142,-56 196.84,-32.01 373.87,-18.15 450.31,-13.15"/>
<polygon fill="midnightblue" stroke="midnightblue" points="75.3,-102.74 71.16,-112.49 80.48,-107.45 75.3,-102.74"/>
</g>
<!-- Node5&#45;&gt;Node2 -->
<g id="edge7" class="edge">
<title>Node5&#45;&gt;Node2</title>
<path fill="none" stroke="midnightblue" d="M227.2,-166.05C193.66,-157.09 164.12,-140.95 175,-112 186.63,-81.04 195.15,-72.17 224,-56 262.24,-34.56 388.04,-20.16 450.36,-14.15"/>
<polygon fill="midnightblue" stroke="midnightblue" points="226.67,-169.52 237.22,-168.5 228.33,-162.72 226.67,-169.52"/>
</g>
<!-- Node5&#45;&gt;Node4 -->
<g id="edge8" class="edge">
<title>Node5&#45;&gt;Node4</title>
<path fill="none" stroke="midnightblue" d="M256.08,-166.22C210.73,-156.01 143.56,-140.9 101.85,-131.52"/>
<polygon fill="midnightblue" stroke="midnightblue" points="255.45,-169.66 265.97,-168.44 256.98,-162.83 255.45,-169.66"/>
</g>
<!-- Node5&#45;&gt;Node6 -->
<g id="edge9" class="edge">
<title>Node5&#45;&gt;Node6</title>
<path fill="none" stroke="midnightblue" d="M323.59,-162.1C336.37,-152.38 352.61,-140.03 363.39,-131.83"/>
<polygon fill="midnightblue" stroke="midnightblue" points="321.25,-159.48 315.41,-168.32 325.49,-165.06 321.25,-159.48"/>
</g>
<!-- Node7 -->
<g id="node7" class="node">
<title>Node7</title>
<g id="a_node7"><a xlink:href="CO__LEDs_8h.html" target="_top" xlink:title="CANopen Indicator specification (CiA 303&#45;3 v1.4.0)">
<polygon fill="white" stroke="black" points="184,-112.5 184,-131.5 274,-131.5 274,-112.5 184,-112.5"/>
<text text-anchor="middle" x="229" y="-119.5" font-family="Helvetica,sans-Serif" font-size="10.00">303/CO_LEDs.h</text>
</a>
</g>
</g>
<!-- Node5&#45;&gt;Node7 -->
<g id="edge11" class="edge">
<title>Node5&#45;&gt;Node7</title>
<path fill="none" stroke="midnightblue" d="M283.69,-162.38C270.14,-152.62 252.76,-140.11 241.27,-131.83"/>
<polygon fill="midnightblue" stroke="midnightblue" points="281.79,-165.32 291.95,-168.32 285.88,-159.64 281.79,-165.32"/>
</g>
<!-- Node8 -->
<g id="node8" class="node">
<title>Node8</title>
<g id="a_node8"><a xlink:href="CO__gateway__ascii_8h.html" target="_top" xlink:title="CANopen access from other networks &#45; ASCII mapping (CiA 309&#45;3 DS v3.0.0)">
<polygon fill="white" stroke="black" points="246,-56.5 246,-75.5 382,-75.5 382,-56.5 246,-56.5"/>
<text text-anchor="middle" x="314" y="-63.5" font-family="Helvetica,sans-Serif" font-size="10.00">309/CO_gateway_ascii.h</text>
</a>
</g>
</g>
<!-- Node5&#45;&gt;Node8 -->
<g id="edge18" class="edge">
<title>Node5&#45;&gt;Node8</title>
<path fill="none" stroke="midnightblue" d="M305.7,-158.35C307.89,-134.25 311.61,-93.31 313.22,-75.59"/>
<polygon fill="midnightblue" stroke="midnightblue" points="302.2,-158.09 304.78,-168.37 309.18,-158.73 302.2,-158.09"/>
</g>
<!-- Node5&#45;&gt;Node9 -->
<g id="edge15" class="edge">
<title>Node5&#45;&gt;Node9</title>
<path fill="none" stroke="midnightblue" d="M348.51,-166.02C389.88,-155.82 450.64,-140.84 488.46,-131.52"/>
<polygon fill="midnightblue" stroke="midnightblue" points="347.57,-162.65 338.7,-168.44 349.25,-169.45 347.57,-162.65"/>
</g>
<!-- Node6&#45;&gt;Node2 -->
<g id="edge10" class="edge">
<title>Node6&#45;&gt;Node2</title>
<path fill="none" stroke="midnightblue" d="M389.11,-104.38C400.74,-90.93 417.9,-71.72 434,-56 447.67,-42.65 464.56,-28.41 475.31,-19.61"/>
<polygon fill="midnightblue" stroke="midnightblue" points="386.18,-102.41 382.32,-112.28 391.49,-106.97 386.18,-102.41"/>
</g>
<!-- Node7&#45;&gt;Node2 -->
<g id="edge12" class="edge">
<title>Node7&#45;&gt;Node2</title>
<path fill="none" stroke="midnightblue" d="M225.83,-101.75C224.61,-87.29 225.66,-68 237,-56 265.59,-25.75 388.29,-15.63 450.11,-12.41"/>
<polygon fill="midnightblue" stroke="midnightblue" points="222.4,-102.59 227.13,-112.08 229.35,-101.71 222.4,-102.59"/>
</g>
<!-- Node7&#45;&gt;Node8 -->
<g id="edge13" class="edge">
<title>Node7&#45;&gt;Node8</title>
<path fill="none" stroke="midnightblue" d="M251.19,-106.9C266.78,-97 287.13,-84.07 300.38,-75.65"/>
<polygon fill="midnightblue" stroke="midnightblue" points="249.22,-104.01 242.66,-112.32 252.97,-109.92 249.22,-104.01"/>
</g>
<!-- Node8&#45;&gt;Node2 -->
<g id="edge14" class="edge">
<title>Node8&#45;&gt;Node2</title>
<path fill="none" stroke="midnightblue" d="M350.83,-53.44C383.26,-43.26 429.74,-28.66 458.87,-19.52"/>
<polygon fill="midnightblue" stroke="midnightblue" points="349.75,-50.11 341.25,-56.44 351.84,-56.79 349.75,-50.11"/>
</g>
<!-- Node9&#45;&gt;Node2 -->
<g id="edge16" class="edge">
<title>Node9&#45;&gt;Node2</title>
<path fill="none" stroke="midnightblue" d="M515.41,-103.17C512.04,-94.97 508.13,-85.06 505,-76 498.17,-56.22 491.65,-32.52 488.31,-19.92"/>
<polygon fill="midnightblue" stroke="midnightblue" points="512.21,-104.59 519.3,-112.47 518.67,-101.89 512.21,-104.59"/>
</g>
<!-- Node10 -->
<g id="node10" class="node">
<title>Node10</title>
<g id="a_node10"><a xlink:href="CO__SRDO_8c.html" target="_top" xlink:title="CANopen Safety Related Data Object protocol.">
<polygon fill="white" stroke="black" points="514.5,-56.5 514.5,-75.5 607.5,-75.5 607.5,-56.5 514.5,-56.5"/>
<text text-anchor="middle" x="561" y="-63.5" font-family="Helvetica,sans-Serif" font-size="10.00">304/CO_SRDO.c</text>
</a>
</g>
</g>
<!-- Node9&#45;&gt;Node10 -->
<g id="edge17" class="edge">
<title>Node9&#45;&gt;Node10</title>
<path fill="none" stroke="midnightblue" d="M535.06,-103.86C541.64,-94.5 549.51,-83.33 554.84,-75.75"/>
<polygon fill="midnightblue" stroke="midnightblue" points="532.17,-101.89 529.27,-112.08 537.89,-105.92 532.17,-101.89"/>
</g>
<!-- Node11&#45;&gt;Node2 -->
<g id="edge20" class="edge">
<title>Node11&#45;&gt;Node2</title>
<path fill="none" stroke="midnightblue" d="M631.99,-102.01C630.99,-87.7 627.37,-68.47 616,-56 591.78,-29.44 551.11,-18.56 521.7,-14.1"/>
<polygon fill="midnightblue" stroke="midnightblue" points="628.5,-102.34 632.33,-112.22 635.5,-102.1 628.5,-102.34"/>
</g>
<!-- Node12&#45;&gt;Node2 -->
<g id="edge22" class="edge">
<title>Node12&#45;&gt;Node2</title>
<path fill="none" stroke="midnightblue" d="M675.06,-159.55C682.62,-146.38 689.89,-127.93 684,-112 672.63,-81.26 663.48,-73.88 636,-56 600.9,-33.17 553.75,-21.52 521.75,-15.86"/>
<polygon fill="midnightblue" stroke="midnightblue" points="672.06,-157.76 669.7,-168.09 677.98,-161.48 672.06,-157.76"/>
</g>
<!-- Node12&#45;&gt;Node11 -->
<g id="edge23" class="edge">
<title>Node12&#45;&gt;Node11</title>
<path fill="none" stroke="midnightblue" d="M652.82,-159.27C647.53,-150.05 641.28,-139.17 637.02,-131.75"/>
<polygon fill="midnightblue" stroke="midnightblue" points="649.87,-161.15 657.88,-168.08 655.94,-157.67 649.87,-161.15"/>
</g>
<!-- Node13&#45;&gt;Node2 -->
<g id="edge29" class="edge">
<title>Node13&#45;&gt;Node2</title>
<path fill="none" stroke="midnightblue" d="M775.49,-104.21C762.42,-89.15 741.21,-67.69 718,-56 653.87,-23.71 569,-14.54 521.72,-11.97"/>
<polygon fill="midnightblue" stroke="midnightblue" points="773.1,-106.8 782.2,-112.21 778.46,-102.3 773.1,-106.8"/>
</g>
<!-- Node13&#45;&gt;Node8 -->
<g id="edge30" class="edge">
<title>Node13&#45;&gt;Node8</title>
<path fill="none" stroke="midnightblue" d="M721.6,-113.34C631.52,-103.1 472.74,-85.05 382.24,-74.76"/>
<polygon fill="midnightblue" stroke="midnightblue" points="721.37,-116.83 731.7,-114.49 722.16,-109.88 721.37,-116.83"/>
</g>
<!-- Node14&#45;&gt;Node2 -->
<g id="edge32" class="edge">
<title>Node14&#45;&gt;Node2</title>
<path fill="none" stroke="midnightblue" d="M843.12,-161.73C871.49,-137.3 918.37,-88.84 889,-56 864.68,-28.81 615.61,-16.15 521.63,-12.32"/>
<polygon fill="midnightblue" stroke="midnightblue" points="840.78,-159.13 835.35,-168.23 845.27,-164.5 840.78,-159.13"/>
</g>
<!-- Node14&#45;&gt;Node9 -->
<g id="edge34" class="edge">
<title>Node14&#45;&gt;Node9</title>
<path fill="none" stroke="midnightblue" d="M766.39,-166.66C709.5,-156.46 623.55,-141.04 570.47,-131.52"/>
<polygon fill="midnightblue" stroke="midnightblue" points="765.84,-170.12 776.31,-168.44 767.08,-163.23 765.84,-170.12"/>
</g>
<!-- Node14&#45;&gt;Node13 -->
<g id="edge33" class="edge">
<title>Node14&#45;&gt;Node13</title>
<path fill="none" stroke="midnightblue" d="M812.7,-159.57C806.68,-150.27 799.53,-139.25 794.67,-131.75"/>
<polygon fill="midnightblue" stroke="midnightblue" points="809.84,-161.6 818.22,-168.08 815.72,-157.79 809.84,-161.6"/>
</g>
<!-- Node15 -->
<g id="node15" class="node">
<title>Node15</title>
<g id="a_node15"><a xlink:href="CO__trace_8h.html" target="_top" xlink:title="CANopen trace object for recording variables over time.">
<polygon fill="white" stroke="black" points="782,-56.5 782,-75.5 880,-75.5 880,-56.5 782,-56.5"/>
<text text-anchor="middle" x="831" y="-63.5" font-family="Helvetica,sans-Serif" font-size="10.00">extra/CO_trace.h</text>
</a>
</g>
</g>
<!-- Node14&#45;&gt;Node15 -->
<g id="edge35" class="edge">
<title>Node14&#45;&gt;Node15</title>
<path fill="none" stroke="midnightblue" d="M838.98,-160.47C845.22,-152.48 851.77,-142.38 855,-132 861.36,-111.55 847.27,-88.12 838.1,-75.73"/>
<polygon fill="midnightblue" stroke="midnightblue" points="836.21,-158.32 832.48,-168.23 841.58,-162.81 836.21,-158.32"/>
</g>
<!-- Node15&#45;&gt;Node2 -->
<g id="edge36" class="edge">
<title>Node15&#45;&gt;Node2</title>
<path fill="none" stroke="midnightblue" d="M771.68,-55.72C699.78,-44.46 580.92,-25.86 521.75,-16.6"/>
<polygon fill="midnightblue" stroke="midnightblue" points="771.52,-59.23 781.94,-57.32 772.6,-52.32 771.52,-59.23"/>
</g>
<!-- Node17 -->
<g id="node17" class="node">
<title>Node17</title>
<g id="a_node17"><a xlink:href="CO__storageEeprom_8h.html" target="_top" xlink:title="CANopen data storage object for storing data into block device (eeprom)">
<polygon fill="white" stroke="black" points="977.5,-168.5 977.5,-187.5 1136.5,-187.5 1136.5,-168.5 977.5,-168.5"/>
<text text-anchor="middle" x="1057" y="-175.5" font-family="Helvetica,sans-Serif" font-size="10.00">storage/CO_storageEeprom.h</text>
</a>
</g>
</g>
<!-- Node16&#45;&gt;Node17 -->
<g id="edge40" class="edge">
<title>Node16&#45;&gt;Node17</title>
<path fill="none" stroke="midnightblue" d="M1051.15,-214.1C1052.64,-205.14 1054.36,-194.86 1055.54,-187.75"/>
<polygon fill="midnightblue" stroke="midnightblue" points="1047.68,-213.64 1049.49,-224.08 1054.58,-214.79 1047.68,-213.64"/>
</g>
</g>
</svg>
