<?xml version="1.0" encoding="UTF-8" standalone="no"?>
<!DOCTYPE svg PUBLIC "-//W3C//DTD SVG 1.1//EN"
 "http://www.w3.org/Graphics/SVG/1.1/DTD/svg11.dtd">
<!-- Generated by graphviz version 2.43.0 (0)
 -->
<!-- Title: 305/CO_LSS.h Pages: 1 -->
<svg width="310pt" height="196pt"
 viewBox="0.00 0.00 310.00 196.00" xmlns="http://www.w3.org/2000/svg" xmlns:xlink="http://www.w3.org/1999/xlink">
<g id="graph0" class="graph" transform="scale(1 1) rotate(0) translate(4 192)">
<title>305/CO_LSS.h</title>
<polygon fill="white" stroke="transparent" points="-4,4 -4,-192 306,-192 306,4 -4,4"/>
<!-- Node1 -->
<g id="node1" class="node">
<title>Node1</title>
<g id="a_node1"><a xlink:title="CANopen Layer Setting Services protocol (common).">
<polygon fill="#bfbfbf" stroke="black" points="56.5,-168.5 56.5,-187.5 139.5,-187.5 139.5,-168.5 56.5,-168.5"/>
<text text-anchor="middle" x="98" y="-175.5" font-family="Helvetica,sans-Serif" font-size="10.00">305/CO_LSS.h</text>
</a>
</g>
</g>
<!-- Node2 -->
<g id="node2" class="node">
<title>Node2</title>
<g id="a_node2"><a xlink:href="CO__LSSslave_8h.html" target="_top" xlink:title="CANopen Layer Setting Service &#45; slave protocol.">
<polygon fill="white" stroke="black" points="0,-56.5 0,-75.5 110,-75.5 110,-56.5 0,-56.5"/>
<text text-anchor="middle" x="55" y="-63.5" font-family="Helvetica,sans-Serif" font-size="10.00">305/CO_LSSslave.h</text>
</a>
</g>
</g>
<!-- Node1&#45;&gt;Node2 -->
<g id="edge1" class="edge">
<title>Node1&#45;&gt;Node2</title>
<path fill="none" stroke="midnightblue" d="M87.53,-159.4C82.96,-151.25 77.8,-141.33 74,-132 66.01,-112.4 59.86,-88.23 56.92,-75.6"/>
<polygon fill="midnightblue" stroke="midnightblue" points="84.63,-161.38 92.66,-168.3 90.7,-157.89 84.63,-161.38"/>
</g>
<!-- Node4 -->
<g id="node4" class="node">
<title>Node4</title>
<g id="a_node4"><a xlink:href="CO__LSSmaster_8h.html" target="_top" xlink:title="CANopen Layer Setting Service &#45; master protocol.">
<polygon fill="white" stroke="black" points="83,-112.5 83,-131.5 201,-131.5 201,-112.5 83,-112.5"/>
<text text-anchor="middle" x="142" y="-119.5" font-family="Helvetica,sans-Serif" font-size="10.00">305/CO_LSSmaster.h</text>
</a>
</g>
</g>
<!-- Node1&#45;&gt;Node4 -->
<g id="edge3" class="edge">
<title>Node1&#45;&gt;Node4</title>
<path fill="none" stroke="midnightblue" d="M111.73,-160.14C119.4,-150.74 128.63,-139.4 134.87,-131.75"/>
<polygon fill="midnightblue" stroke="midnightblue" points="108.87,-158.12 105.27,-168.08 114.3,-162.54 108.87,-158.12"/>
</g>
<!-- Node3 -->
<g id="node3" class="node">
<title>Node3</title>
<g id="a_node3"><a xlink:href="CANopen_8h.html" target="_top" xlink:title="Main CANopenNode file.">
<polygon fill="white" stroke="black" points="102.5,-0.5 102.5,-19.5 173.5,-19.5 173.5,-0.5 102.5,-0.5"/>
<text text-anchor="middle" x="138" y="-7.5" font-family="Helvetica,sans-Serif" font-size="10.00">CANopen.h</text>
</a>
</g>
</g>
<!-- Node2&#45;&gt;Node3 -->
<g id="edge2" class="edge">
<title>Node2&#45;&gt;Node3</title>
<path fill="none" stroke="midnightblue" d="M77.1,-50.62C92.26,-40.76 111.88,-27.99 124.7,-19.65"/>
<polygon fill="midnightblue" stroke="midnightblue" points="74.81,-47.94 68.34,-56.32 78.63,-53.8 74.81,-47.94"/>
</g>
<!-- Node4&#45;&gt;Node3 -->
<g id="edge4" class="edge">
<title>Node4&#45;&gt;Node3</title>
<path fill="none" stroke="midnightblue" d="M141.32,-102.35C140.45,-78.25 138.96,-37.31 138.31,-19.59"/>
<polygon fill="midnightblue" stroke="midnightblue" points="137.82,-102.5 141.69,-112.37 144.82,-102.25 137.82,-102.5"/>
</g>
<!-- Node5 -->
<g id="node5" class="node">
<title>Node5</title>
<g id="a_node5"><a xlink:href="CO__gateway__ascii_8h.html" target="_top" xlink:title="CANopen access from other networks &#45; ASCII mapping (CiA 309&#45;3 DS v3.0.0)">
<polygon fill="white" stroke="black" points="166,-56.5 166,-75.5 302,-75.5 302,-56.5 166,-56.5"/>
<text text-anchor="middle" x="234" y="-63.5" font-family="Helvetica,sans-Serif" font-size="10.00">309/CO_gateway_ascii.h</text>
</a>
</g>
</g>
<!-- Node4&#45;&gt;Node5 -->
<g id="edge5" class="edge">
<title>Node4&#45;&gt;Node5</title>
<path fill="none" stroke="midnightblue" d="M165.55,-107.18C182.48,-97.24 204.78,-84.15 219.26,-75.65"/>
<polygon fill="midnightblue" stroke="midnightblue" points="163.63,-104.24 156.78,-112.32 167.18,-110.28 163.63,-104.24"/>
</g>
<!-- Node5&#45;&gt;Node3 -->
<g id="edge6" class="edge">
<title>Node5&#45;&gt;Node3</title>
<path fill="none" stroke="midnightblue" d="M209.43,-51.18C191.76,-41.24 168.49,-28.15 153.39,-19.65"/>
<polygon fill="midnightblue" stroke="midnightblue" points="208.14,-54.47 218.58,-56.32 211.58,-48.37 208.14,-54.47"/>
</g>
</g>
</svg>
