<?xml version="1.0" encoding="UTF-8" standalone="no"?>
<!DOCTYPE svg PUBLIC "-//W3C//DTD SVG 1.1//EN"
 "http://www.w3.org/Graphics/SVG/1.1/DTD/svg11.dtd">
<!-- Generated by graphviz version 2.43.0 (0)
 -->
<!-- Title: 303/CO_LEDs.h Pages: 1 -->
<svg width="281pt" height="302pt"
 viewBox="0.00 0.00 281.00 302.00" xmlns="http://www.w3.org/2000/svg" xmlns:xlink="http://www.w3.org/1999/xlink">

<svg id="main" version="1.1" xmlns="http://www.w3.org/2000/svg" xmlns:xlink="http://www.w3.org/1999/xlink" xml:space="preserve" onload="init(evt)">
<style type="text/css"><![CDATA[
.node, .edge {opacity: 0.7;}
.node.selected, .edge.selected {opacity: 1;}
.edge:hover path { stroke: red; }
.edge:hover polygon { stroke: red; fill: red; }
]]></style>
<script type="application/ecmascript" xlink:href="svg.min.js"/>
<svg id="graph" class="graph">
<g id="graph0" class="graph" transform="scale(1 1) rotate(0) translate(4 298)">
<title>303/CO_LEDs.h</title>
<!-- Node1 -->
<g id="Node000001" class="node">
<title>Node1</title>
<g id="a_Node000001"><a xlink:title="CANopen Indicator specification (CiA 303&#45;3 v1.4.0)">
<polygon fill="#999999" stroke="#666666" points="120.5,-294 30.5,-294 30.5,-275 120.5,-275 120.5,-294"/>
<text text-anchor="middle" x="75.5" y="-282" font-family="Helvetica,sans-Serif" font-size="10.00">303/CO_LEDs.h</text>
</a>
</g>
</g>
<!-- Node2 -->
<g id="Node000002" class="node">
<title>Node2</title>
<g id="a_Node000002"><a xlink:href="CO__driver_8h.html" target="_top" xlink:title="Interface between CAN hardware and CANopenNode.">
<polygon fill="white" stroke="#666666" points="156,-74 61,-74 61,-55 156,-55 156,-74"/>
<text text-anchor="middle" x="108.5" y="-62" font-family="Helvetica,sans-Serif" font-size="10.00">301/CO_driver.h</text>
</a>
</g>
</g>
<!-- Node1&#45;&gt;Node2 -->
<g id="edge1_Node000001_Node000002" class="edge">
<title>Node1&#45;&gt;Node2</title>
<g id="a_edge1_Node000001_Node000002"><a xlink:title=" ">
<path fill="none" stroke="#63b8ff" d="M67.02,-274.85C59.45,-266.47 48.9,-253.01 44.5,-239 41.97,-230.94 43.27,-228.35 44.5,-220 51.91,-169.5 55.3,-155.96 77.5,-110 82.2,-100.27 88.92,-90.31 94.9,-82.3"/>
<polygon fill="#63b8ff" stroke="#63b8ff" points="97.83,-84.23 101.19,-74.18 92.3,-79.94 97.83,-84.23"/>
</a>
</g>
</g>
<!-- Node6 -->
<g id="Node000006" class="node">
<title>Node6</title>
<g id="a_Node000006"><a xlink:href="CO__NMT__Heartbeat_8h.html" target="_top" xlink:title="CANopen Network management and Heartbeat producer protocol.">
<polygon fill="white" stroke="#666666" points="197,-239 54,-239 54,-220 197,-220 197,-239"/>
<text text-anchor="middle" x="125.5" y="-227" font-family="Helvetica,sans-Serif" font-size="10.00">301/CO_NMT_Heartbeat.h</text>
</a>
</g>
</g>
<!-- Node1&#45;&gt;Node6 -->
<g id="edge5_Node000001_Node000006" class="edge">
<title>Node1&#45;&gt;Node6</title>
<g id="a_edge5_Node000001_Node000006"><a xlink:title=" ">
<path fill="none" stroke="#63b8ff" d="M83.76,-274.75C90.96,-267.11 101.61,-255.82 110.35,-246.56"/>
<polygon fill="#63b8ff" stroke="#63b8ff" points="113.08,-248.76 117.4,-239.09 107.99,-243.96 113.08,-248.76"/>
</a>
</g>
</g>
<!-- Node3 -->
<g id="Node000003" class="node">
<title>Node3</title>
<g id="a_Node000003"><a xlink:title=" ">
<polygon fill="#e0e0e0" stroke="#999999" points="53,-19 0,-19 0,0 53,0 53,-19"/>
<text text-anchor="middle" x="26.5" y="-7" font-family="Helvetica,sans-Serif" font-size="10.00">string.h</text>
</a>
</g>
</g>
<!-- Node2&#45;&gt;Node3 -->
<g id="edge2_Node000002_Node000003" class="edge">
<title>Node2&#45;&gt;Node3</title>
<g id="a_edge2_Node000002_Node000003"><a xlink:title=" ">
<path fill="none" stroke="#63b8ff" d="M95.33,-54.98C82.73,-46.84 63.5,-34.41 48.56,-24.76"/>
<polygon fill="#63b8ff" stroke="#63b8ff" points="50.21,-21.66 39.91,-19.17 46.41,-27.54 50.21,-21.66"/>
</a>
</g>
</g>
<!-- Node4 -->
<g id="Node000004" class="node">
<title>Node4</title>
<g id="a_Node000004"><a xlink:href="CO__config_8h.html" target="_top" xlink:title="Configuration macros for CANopenNode.">
<polygon fill="white" stroke="#666666" points="146,-19 71,-19 71,0 146,0 146,-19"/>
<text text-anchor="middle" x="108.5" y="-7" font-family="Helvetica,sans-Serif" font-size="10.00">CO_config.h</text>
</a>
</g>
</g>
<!-- Node2&#45;&gt;Node4 -->
<g id="edge3_Node000002_Node000004" class="edge">
<title>Node2&#45;&gt;Node4</title>
<g id="a_edge3_Node000002_Node000004"><a xlink:title=" ">
<path fill="none" stroke="#63b8ff" d="M108.5,-54.75C108.5,-47.8 108.5,-37.85 108.5,-29.13"/>
<polygon fill="#63b8ff" stroke="#63b8ff" points="112,-29.09 108.5,-19.09 105,-29.09 112,-29.09"/>
</a>
</g>
</g>
<!-- Node5 -->
<g id="Node000005" class="node">
<title>Node5</title>
<g id="a_Node000005"><a xlink:title=" ">
<polygon fill="#e0e0e0" stroke="#999999" points="272.5,-19 164.5,-19 164.5,0 272.5,0 272.5,-19"/>
<text text-anchor="middle" x="218.5" y="-7" font-family="Helvetica,sans-Serif" font-size="10.00">CO_driver_target.h</text>
</a>
</g>
</g>
<!-- Node2&#45;&gt;Node5 -->
<g id="edge4_Node000002_Node000005" class="edge">
<title>Node2&#45;&gt;Node5</title>
<g id="a_edge4_Node000002_Node000005"><a xlink:title=" ">
<path fill="none" stroke="#63b8ff" d="M126.17,-54.98C143.79,-46.5 171.08,-33.35 191.43,-23.54"/>
<polygon fill="#63b8ff" stroke="#63b8ff" points="193.02,-26.66 200.51,-19.17 189.98,-20.36 193.02,-26.66"/>
</a>
</g>
</g>
<!-- Node6&#45;&gt;Node2 -->
<g id="edge6_Node000006_Node000002" class="edge">
<title>Node6&#45;&gt;Node2</title>
<g id="a_edge6_Node000006_Node000002"><a xlink:title=" ">
<path fill="none" stroke="#63b8ff" d="M120.31,-219.85C110.56,-203.06 89.86,-164.57 82.5,-129 80.79,-120.73 80.29,-118.15 82.5,-110 85.16,-100.19 90.57,-90.33 95.78,-82.39"/>
<polygon fill="#63b8ff" stroke="#63b8ff" points="98.73,-84.27 101.61,-74.07 93,-80.25 98.73,-84.27"/>
</a>
</g>
</g>
<!-- Node7 -->
<g id="Node000007" class="node">
<title>Node7</title>
<g id="a_Node000007"><a xlink:href="CO__ODinterface_8h.html" target="_top" xlink:title="CANopen Object Dictionary interface.">
<polygon fill="white" stroke="#666666" points="217,-129 92,-129 92,-110 217,-110 217,-129"/>
<text text-anchor="middle" x="154.5" y="-117" font-family="Helvetica,sans-Serif" font-size="10.00">301/CO_ODinterface.h</text>
</a>
</g>
</g>
<!-- Node6&#45;&gt;Node7 -->
<g id="edge7_Node000006_Node000007" class="edge">
<title>Node6&#45;&gt;Node7</title>
<g id="a_edge7_Node000006_Node000007"><a xlink:title=" ">
<path fill="none" stroke="#63b8ff" d="M127.87,-219.66C132.59,-202.09 143.24,-162.45 149.54,-138.95"/>
<polygon fill="#63b8ff" stroke="#63b8ff" points="152.96,-139.72 152.18,-129.16 146.2,-137.91 152.96,-139.72"/>
</a>
</g>
</g>
<!-- Node8 -->
<g id="Node000008" class="node">
<title>Node8</title>
<g id="a_Node000008"><a xlink:href="CO__Emergency_8h.html" target="_top" xlink:title="CANopen Emergency protocol.">
<polygon fill="white" stroke="#666666" points="273,-184 154,-184 154,-165 273,-165 273,-184"/>
<text text-anchor="middle" x="213.5" y="-172" font-family="Helvetica,sans-Serif" font-size="10.00">301/CO_Emergency.h</text>
</a>
</g>
</g>
<!-- Node6&#45;&gt;Node8 -->
<g id="edge9_Node000006_Node000008" class="edge">
<title>Node6&#45;&gt;Node8</title>
<g id="a_edge9_Node000006_Node000008"><a xlink:title=" ">
<path fill="none" stroke="#63b8ff" d="M139.64,-219.98C153.29,-211.77 174.19,-199.18 190.28,-189.49"/>
<polygon fill="#63b8ff" stroke="#63b8ff" points="192.34,-192.33 199.1,-184.17 188.73,-186.33 192.34,-192.33"/>
</a>
</g>
</g>
<!-- Node7&#45;&gt;Node2 -->
<g id="edge8_Node000007_Node000002" class="edge">
<title>Node7&#45;&gt;Node2</title>
<g id="a_edge8_Node000007_Node000002"><a xlink:title=" ">
<path fill="none" stroke="#63b8ff" d="M146.9,-109.75C140.34,-102.18 130.68,-91.05 122.69,-81.84"/>
<polygon fill="#63b8ff" stroke="#63b8ff" points="125.15,-79.35 115.95,-74.09 119.87,-83.94 125.15,-79.35"/>
</a>
</g>
</g>
<!-- Node8&#45;&gt;Node2 -->
<g id="edge10_Node000008_Node000002" class="edge">
<title>Node8&#45;&gt;Node2</title>
<g id="a_edge10_Node000008_Node000002"><a xlink:title=" ">
<path fill="none" stroke="#63b8ff" d="M218.83,-164.86C226.14,-151.81 237.09,-126.81 225.5,-110 211.91,-90.29 188.34,-79.3 165.9,-73.18"/>
<polygon fill="#63b8ff" stroke="#63b8ff" points="166.59,-69.74 156.05,-70.77 164.93,-76.54 166.59,-69.74"/>
</a>
</g>
</g>
<!-- Node8&#45;&gt;Node7 -->
<g id="edge11_Node000008_Node000007" class="edge">
<title>Node8&#45;&gt;Node7</title>
<g id="a_edge11_Node000008_Node000007"><a xlink:title=" ">
<path fill="none" stroke="#63b8ff" d="M204.02,-164.98C195.3,-157.15 182.16,-145.34 171.6,-135.86"/>
<polygon fill="#63b8ff" stroke="#63b8ff" points="173.93,-133.25 164.15,-129.17 169.25,-138.46 173.93,-133.25"/>
</a>
</g>
</g>
</g>
</svg>
</svg>

<style type='text/css'>
<![CDATA[
[data-mouse-over-selected='false'] { opacity: 0.7; }
[data-mouse-over-selected='true']  { opacity: 1.0; }
]]>
</style>
<script type="application/ecmascript"><![CDATA[
document.addEventListener('DOMContentLoaded', (event) => {
  highlightEdges();
  highlightAdjacentNodes();
});
]]></script>
</svg>
