<?xml version="1.0" encoding="UTF-8" standalone="no"?>
<!DOCTYPE svg PUBLIC "-//W3C//DTD SVG 1.1//EN"
 "http://www.w3.org/Graphics/SVG/1.1/DTD/svg11.dtd">
<!-- Generated by graphviz version 2.43.0 (0)
 -->
<!-- Title: 301/CO_Emergency.h Pages: 1 -->
<!--zoomable 247 -->

<svg id="main" version="1.1" xmlns="http://www.w3.org/2000/svg" xmlns:xlink="http://www.w3.org/1999/xlink" xml:space="preserve" onload="init(evt)">
<style type="text/css"><![CDATA[
.node, .edge {opacity: 0.7;}
.node.selected, .edge.selected {opacity: 1;}
.edge:hover path { stroke: red; }
.edge:hover polygon { stroke: red; fill: red; }
]]></style>

<defs>
  <circle id="rim" cx="0" cy="0" r="7"/>
  <circle id="rim2" cx="0" cy="0" r="3.5"/>
  <g id="zoomPlus">
    <use xlink:href="#rim" fill="#404040"><set attributeName="fill" to="#808080" begin="zoomplus.mouseover" end="zoomplus.mouseout"/></use>
    <path d="M-4,0h8M0,-4v8" fill="none" stroke="white" stroke-width="1.5" pointer-events="none"/>
  </g>
  <g id="zoomMin">
    <use xlink:href="#rim" fill="#404040"><set attributeName="fill" to="#808080" begin="zoomminus.mouseover" end="zoomminus.mouseout"/></use>
    <path d="M-4,0h8" fill="none" stroke="white" stroke-width="1.5" pointer-events="none"/>
  </g>
  <g id="arrowUp" transform="translate(30 24)">
    <use xlink:href="#rim"/>
    <path pointer-events="none" fill="none" stroke="white" stroke-width="1.5" d="M0,-3.0v7 M-2.5,-0.5L0,-3.0L2.5,-0.5"/>
  </g>
  <g id="arrowRight" transform="rotate(90) translate(36 -43)">
    <use xlink:href="#rim"/>
    <path pointer-events="none" fill="none" stroke="white" stroke-width="1.5" d="M0,-3.0v7 M-2.5,-0.5L0,-3.0L2.5,-0.5"/>
  </g>
  <g id="arrowDown" transform="rotate(180) translate(-30 -48)">
    <use xlink:href="#rim"/>
    <path pointer-events="none" fill="none" stroke="white" stroke-width="1.5" d="M0,-3.0v7 M-2.5,-0.5L0,-3.0L2.5,-0.5"/>
  </g>
  <g id="arrowLeft" transform="rotate(270) translate(-36 17)">
    <use xlink:href="#rim"/>
    <path pointer-events="none" fill="none" stroke="white" stroke-width="1.5" d="M0,-3.0v7 M-2.5,-0.5L0,-3.0L2.5,-0.5"/>
  </g>
  <g id="resetDef">
    <use xlink:href="#rim2" fill="#404040"><set attributeName="fill" to="#808080" begin="reset.mouseover" end="reset.mouseout"/></use>
  </g>
</defs>
<script type="application/ecmascript">
var viewWidth = 798;
var viewHeight = 247;
var sectionId = 'dynsection-1';
</script>
<script type="application/ecmascript" xlink:href="svg.min.js"/>
<svg id="graph" class="graph">
<g id="viewport">
<title>301/CO_Emergency.h</title>
<!-- Node1 -->
<g id="Node000001" class="node">
<title>Node1</title>
<g id="a_Node000001"><a xlink:title="CANopen Emergency protocol.">
<polygon fill="#999999" stroke="#666666" points="446.85,-239 327.85,-239 327.85,-220 446.85,-220 446.85,-239"/>
<text text-anchor="middle" x="387.35" y="-227" font-family="Helvetica,sans-Serif" font-size="10.00">301/CO_Emergency.h</text>
</a>
</g>
</g>
<!-- Node2 -->
<g id="Node000002" class="node">
<title>Node2</title>
<g id="a_Node000002"><a xlink:href="CO__HBconsumer_8h.html" target="_top" xlink:title="CANopen Heartbeat consumer protocol.">
<polygon fill="white" stroke="#666666" points="152.35,-129 24.35,-129 24.35,-110 152.35,-110 152.35,-129"/>
<text text-anchor="middle" x="88.35" y="-117" font-family="Helvetica,sans-Serif" font-size="10.00">301/CO_HBconsumer.h</text>
</a>
</g>
</g>
<!-- Node1&#45;&gt;Node2 -->
<g id="edge1_Node000001_Node000002" class="edge">
<title>Node1&#45;&gt;Node2</title>
<g id="a_edge1_Node000001_Node000002"><a xlink:title=" ">
<path fill="none" stroke="#63b8ff" d="M354.11,-216.5C293.2,-194.49 165.06,-148.21 112.06,-129.07"/>
<polygon fill="#63b8ff" stroke="#63b8ff" points="353.04,-219.83 363.64,-219.94 355.42,-213.25 353.04,-219.83"/>
</a>
</g>
</g>
<!-- Node3 -->
<g id="Node000003" class="node">
<title>Node3</title>
<g id="a_Node000003"><a xlink:href="CANopen_8h.html" target="_top" xlink:title="Main CANopenNode file.">
<polygon fill="white" stroke="#666666" points="471.85,-19 400.85,-19 400.85,0 471.85,0 471.85,-19"/>
<text text-anchor="middle" x="436.35" y="-7" font-family="Helvetica,sans-Serif" font-size="10.00">CANopen.h</text>
</a>
</g>
</g>
<!-- Node1&#45;&gt;Node3 -->
<g id="edge23_Node000001_Node000003" class="edge">
<title>Node1&#45;&gt;Node3</title>
<g id="a_edge23_Node000001_Node000003"><a xlink:title=" ">
<path fill="none" stroke="#63b8ff" d="M317.45,-229.4C189.06,-228.61 -64.22,-214.27 15.35,-110 62.45,-48.28 308.07,-21.35 400.83,-13.28"/>
<polygon fill="#63b8ff" stroke="#63b8ff" points="317.58,-232.9 327.6,-229.44 317.61,-225.9 317.58,-232.9"/>
</a>
</g>
</g>
<!-- Node4 -->
<g id="Node000004" class="node">
<title>Node4</title>
<g id="a_Node000004"><a xlink:href="CO__NMT__Heartbeat_8h.html" target="_top" xlink:title="CANopen Network management and Heartbeat producer protocol.">
<polygon fill="white" stroke="#666666" points="458.85,-184 315.85,-184 315.85,-165 458.85,-165 458.85,-184"/>
<text text-anchor="middle" x="387.35" y="-172" font-family="Helvetica,sans-Serif" font-size="10.00">301/CO_NMT_Heartbeat.h</text>
</a>
</g>
</g>
<!-- Node1&#45;&gt;Node4 -->
<g id="edge3_Node000001_Node000004" class="edge">
<title>Node1&#45;&gt;Node4</title>
<g id="a_edge3_Node000001_Node000004"><a xlink:title=" ">
<path fill="none" stroke="#63b8ff" d="M387.35,-209.66C387.35,-200.93 387.35,-190.99 387.35,-184.09"/>
<polygon fill="#63b8ff" stroke="#63b8ff" points="383.85,-209.75 387.35,-219.75 390.85,-209.75 383.85,-209.75"/>
</a>
</g>
</g>
<!-- Node5 -->
<g id="Node000005" class="node">
<title>Node5</title>
<g id="a_Node000005"><a xlink:href="CO__Node__Guarding_8h.html" target="_top" xlink:title="CANopen Node Guarding slave and master objects.">
<polygon fill="white" stroke="#666666" points="311.85,-129 170.85,-129 170.85,-110 311.85,-110 311.85,-129"/>
<text text-anchor="middle" x="241.35" y="-117" font-family="Helvetica,sans-Serif" font-size="10.00">301/CO_Node_Guarding.h</text>
</a>
</g>
</g>
<!-- Node1&#45;&gt;Node5 -->
<g id="edge15_Node000001_Node000005" class="edge">
<title>Node1&#45;&gt;Node5</title>
<g id="a_edge15_Node000001_Node000005"><a xlink:title=" ">
<path fill="none" stroke="#63b8ff" d="M359.05,-215.34C342.95,-207.28 322.79,-196.19 306.35,-184 283.29,-166.9 260.16,-142.02 248.72,-129.06"/>
<polygon fill="#63b8ff" stroke="#63b8ff" points="357.95,-218.7 368.47,-219.95 361.03,-212.41 357.95,-218.7"/>
</a>
</g>
</g>
<!-- Node9 -->
<g id="Node000009" class="node">
<title>Node9</title>
<g id="a_Node000009"><a xlink:href="CO__PDO_8h.html" target="_top" xlink:title="CANopen Process Data Object protocol.">
<polygon fill="white" stroke="#666666" points="639.85,-129 552.85,-129 552.85,-110 639.85,-110 639.85,-129"/>
<text text-anchor="middle" x="596.35" y="-117" font-family="Helvetica,sans-Serif" font-size="10.00">301/CO_PDO.h</text>
</a>
</g>
</g>
<!-- Node1&#45;&gt;Node9 -->
<g id="edge16_Node000001_Node000009" class="edge">
<title>Node1&#45;&gt;Node9</title>
<g id="a_edge16_Node000001_Node000009"><a xlink:title=" ">
<path fill="none" stroke="#63b8ff" d="M413.2,-215.14C456.75,-192.64 543.53,-147.79 579.81,-129.05"/>
<polygon fill="#63b8ff" stroke="#63b8ff" points="411.38,-212.14 404.1,-219.84 414.59,-218.36 411.38,-212.14"/>
</a>
</g>
</g>
<!-- Node10 -->
<g id="Node000010" class="node">
<title>Node10</title>
<g id="a_Node000010"><a xlink:href="CO__SYNC_8h.html" target="_top" xlink:title="CANopen Synchronisation protocol.">
<polygon fill="white" stroke="#666666" points="642.35,-184 550.35,-184 550.35,-165 642.35,-165 642.35,-184"/>
<text text-anchor="middle" x="596.35" y="-172" font-family="Helvetica,sans-Serif" font-size="10.00">301/CO_SYNC.h</text>
</a>
</g>
</g>
<!-- Node1&#45;&gt;Node10 -->
<g id="edge18_Node000001_Node000010" class="edge">
<title>Node1&#45;&gt;Node10</title>
<g id="a_edge18_Node000001_Node000010"><a xlink:title=" ">
<path fill="none" stroke="#63b8ff" d="M430.72,-217.5C469.86,-207.58 526.63,-193.18 562.51,-184.08"/>
<polygon fill="#63b8ff" stroke="#63b8ff" points="429.76,-214.13 420.93,-219.98 431.48,-220.92 429.76,-214.13"/>
</a>
</g>
</g>
<!-- Node11 -->
<g id="Node000011" class="node">
<title>Node11</title>
<g id="a_Node000011"><a xlink:href="CO__SRDO_8h.html" target="_top" xlink:title="CANopen Safety Related Data Object protocol.">
<polygon fill="white" stroke="#666666" points="790.35,-74 696.35,-74 696.35,-55 790.35,-55 790.35,-74"/>
<text text-anchor="middle" x="743.35" y="-62" font-family="Helvetica,sans-Serif" font-size="10.00">304/CO_SRDO.h</text>
</a>
</g>
</g>
<!-- Node1&#45;&gt;Node11 -->
<g id="edge21_Node000001_Node000011" class="edge">
<title>Node1&#45;&gt;Node11</title>
<g id="a_edge21_Node000001_Node000011"><a xlink:title=" ">
<path fill="none" stroke="#63b8ff" d="M457.08,-222.5C523.96,-215.74 619.38,-203.11 651.35,-184 697.4,-156.47 728.91,-96.51 739.46,-74.14"/>
<polygon fill="#63b8ff" stroke="#63b8ff" points="456.62,-219.03 447.01,-223.5 457.31,-226 456.62,-219.03"/>
</a>
</g>
</g>
<!-- Node2&#45;&gt;Node3 -->
<g id="edge2_Node000002_Node000003" class="edge">
<title>Node2&#45;&gt;Node3</title>
<g id="a_edge2_Node000002_Node000003"><a xlink:title=" ">
<path fill="none" stroke="#63b8ff" d="M121.85,-106.67C159.5,-93.5 222.53,-71.87 277.35,-55 320.91,-41.6 371.7,-27.68 403.93,-19.05"/>
<polygon fill="#63b8ff" stroke="#63b8ff" points="120.67,-103.37 112.39,-109.98 122.98,-109.98 120.67,-103.37"/>
</a>
</g>
</g>
<!-- Node4&#45;&gt;Node2 -->
<g id="edge4_Node000004_Node000002" class="edge">
<title>Node4&#45;&gt;Node2</title>
<g id="a_edge4_Node000004_Node000002"><a xlink:title=" ">
<path fill="none" stroke="#63b8ff" d="M329.18,-163.19C273.12,-153.25 189.29,-138.39 136.77,-129.08"/>
<polygon fill="#63b8ff" stroke="#63b8ff" points="328.85,-166.69 339.31,-164.98 330.08,-159.79 328.85,-166.69"/>
</a>
</g>
</g>
<!-- Node4&#45;&gt;Node3 -->
<g id="edge14_Node000004_Node000003" class="edge">
<title>Node4&#45;&gt;Node3</title>
<g id="a_edge14_Node000004_Node000003"><a xlink:title=" ">
<path fill="none" stroke="#63b8ff" d="M411.18,-159.26C422.5,-151.5 435.46,-141.03 444.35,-129 459.9,-107.96 460.6,-99.73 465.35,-74 466.88,-65.7 467.76,-63.09 465.35,-55 461.25,-41.21 451.38,-27.7 444.29,-19.25"/>
<polygon fill="#63b8ff" stroke="#63b8ff" points="409.03,-156.48 402.57,-164.88 412.85,-162.35 409.03,-156.48"/>
</a>
</g>
</g>
<!-- Node4&#45;&gt;Node5 -->
<g id="edge5_Node000004_Node000005" class="edge">
<title>Node4&#45;&gt;Node5</title>
<g id="a_edge5_Node000004_Node000005"><a xlink:title=" ">
<path fill="none" stroke="#63b8ff" d="M354.43,-161.55C327.32,-151.71 289.52,-137.98 265.23,-129.17"/>
<polygon fill="#63b8ff" stroke="#63b8ff" points="353.3,-164.86 363.89,-164.98 355.69,-158.28 353.3,-164.86"/>
</a>
</g>
</g>
<!-- Node6 -->
<g id="Node000006" class="node">
<title>Node6</title>
<g id="a_Node000006"><a xlink:href="CO__TIME_8h.html" target="_top" xlink:title="CANopen Time&#45;stamp protocol.">
<polygon fill="white" stroke="#666666" points="602.35,-74 512.35,-74 512.35,-55 602.35,-55 602.35,-74"/>
<text text-anchor="middle" x="557.35" y="-62" font-family="Helvetica,sans-Serif" font-size="10.00">301/CO_TIME.h</text>
</a>
</g>
</g>
<!-- Node4&#45;&gt;Node6 -->
<g id="edge7_Node000004_Node000006" class="edge">
<title>Node4&#45;&gt;Node6</title>
<g id="a_edge7_Node000004_Node000006"><a xlink:title=" ">
<path fill="none" stroke="#63b8ff" d="M430.07,-161.88C452.26,-154.6 479.1,-143.76 500.35,-129 522.74,-113.45 542.39,-87.45 551.67,-74.05"/>
<polygon fill="#63b8ff" stroke="#63b8ff" points="428.73,-158.63 420.24,-164.97 430.83,-165.31 428.73,-158.63"/>
</a>
</g>
</g>
<!-- Node7 -->
<g id="Node000007" class="node">
<title>Node7</title>
<g id="a_Node000007"><a xlink:href="CO__LEDs_8h.html" target="_top" xlink:title="CANopen Indicator specification (CiA 303&#45;3 v1.4.0)">
<polygon fill="white" stroke="#666666" points="420.35,-129 330.35,-129 330.35,-110 420.35,-110 420.35,-129"/>
<text text-anchor="middle" x="375.35" y="-117" font-family="Helvetica,sans-Serif" font-size="10.00">303/CO_LEDs.h</text>
</a>
</g>
</g>
<!-- Node4&#45;&gt;Node7 -->
<g id="edge9_Node000004_Node000007" class="edge">
<title>Node4&#45;&gt;Node7</title>
<g id="a_edge9_Node000004_Node000007"><a xlink:title=" ">
<path fill="none" stroke="#63b8ff" d="M383.15,-154.95C381.16,-146.15 378.87,-136.06 377.29,-129.09"/>
<polygon fill="#63b8ff" stroke="#63b8ff" points="379.75,-155.77 385.37,-164.75 386.57,-154.22 379.75,-155.77"/>
</a>
</g>
</g>
<!-- Node8 -->
<g id="Node000008" class="node">
<title>Node8</title>
<g id="a_Node000008"><a xlink:href="CO__gateway__ascii_8h.html" target="_top" xlink:title="CANopen access from other networks &#45; ASCII mapping (CiA 309&#45;3 DS v3.0.0)">
<polygon fill="white" stroke="#666666" points="456.35,-74 320.35,-74 320.35,-55 456.35,-55 456.35,-74"/>
<text text-anchor="middle" x="388.35" y="-62" font-family="Helvetica,sans-Serif" font-size="10.00">309/CO_gateway_ascii.h</text>
</a>
</g>
</g>
<!-- Node4&#45;&gt;Node8 -->
<g id="edge13_Node000004_Node000008" class="edge">
<title>Node4&#45;&gt;Node8</title>
<g id="a_edge13_Node000004_Node000008"><a xlink:title=" ">
<path fill="none" stroke="#63b8ff" d="M407.39,-158.24C415.88,-150.52 424.83,-140.37 429.35,-129 437.83,-107.66 415.56,-85.82 400.61,-74.14"/>
<polygon fill="#63b8ff" stroke="#63b8ff" points="404.94,-155.73 399.56,-164.86 409.46,-161.08 404.94,-155.73"/>
</a>
</g>
</g>
<!-- Node5&#45;&gt;Node3 -->
<g id="edge6_Node000005_Node000003" class="edge">
<title>Node5&#45;&gt;Node3</title>
<g id="a_edge6_Node000005_Node000003"><a xlink:title=" ">
<path fill="none" stroke="#63b8ff" d="M254.09,-101.86C265.77,-87.63 284.27,-67.51 304.35,-55 334.32,-36.33 373.04,-24.48 400.78,-17.74"/>
<polygon fill="#63b8ff" stroke="#63b8ff" points="251.23,-99.84 247.74,-109.84 256.71,-104.19 251.23,-99.84"/>
</a>
</g>
</g>
<!-- Node6&#45;&gt;Node3 -->
<g id="edge8_Node000006_Node000003" class="edge">
<title>Node6&#45;&gt;Node3</title>
<g id="a_edge8_Node000006_Node000003"><a xlink:title=" ">
<path fill="none" stroke="#63b8ff" d="M528.58,-50.9C506.23,-41.11 475.83,-27.79 456.14,-19.17"/>
<polygon fill="#63b8ff" stroke="#63b8ff" points="527.35,-54.18 537.91,-54.98 530.15,-47.77 527.35,-54.18"/>
</a>
</g>
</g>
<!-- Node7&#45;&gt;Node3 -->
<g id="edge12_Node000007_Node000003" class="edge">
<title>Node7&#45;&gt;Node3</title>
<g id="a_edge12_Node000007_Node000003"><a xlink:title=" ">
<path fill="none" stroke="#63b8ff" d="M345.87,-105.42C323.08,-93.41 297.55,-74.56 311.35,-55 331.4,-26.58 371.29,-16.2 400.63,-12.47"/>
<polygon fill="#63b8ff" stroke="#63b8ff" points="344.51,-108.65 355.03,-109.98 347.63,-102.39 344.51,-108.65"/>
</a>
</g>
</g>
<!-- Node7&#45;&gt;Node8 -->
<g id="edge10_Node000007_Node000008" class="edge">
<title>Node7&#45;&gt;Node8</title>
<g id="a_edge10_Node000007_Node000008"><a xlink:title=" ">
<path fill="none" stroke="#63b8ff" d="M379.9,-99.95C382.06,-91.15 384.53,-81.06 386.24,-74.09"/>
<polygon fill="#63b8ff" stroke="#63b8ff" points="376.48,-99.2 377.5,-109.75 383.28,-100.87 376.48,-99.2"/>
</a>
</g>
</g>
<!-- Node8&#45;&gt;Node3 -->
<g id="edge11_Node000008_Node000003" class="edge">
<title>Node8&#45;&gt;Node3</title>
<g id="a_edge11_Node000008_Node000003"><a xlink:title=" ">
<path fill="none" stroke="#63b8ff" d="M403.08,-47.24C411.49,-37.95 421.7,-26.68 428.57,-19.09"/>
<polygon fill="#63b8ff" stroke="#63b8ff" points="400.4,-44.99 396.28,-54.75 405.58,-49.69 400.4,-44.99"/>
</a>
</g>
</g>
<!-- Node9&#45;&gt;Node3 -->
<g id="edge17_Node000009_Node000003" class="edge">
<title>Node9&#45;&gt;Node3</title>
<g id="a_edge17_Node000009_Node000003"><a xlink:title=" ">
<path fill="none" stroke="#63b8ff" d="M607.83,-100.76C615.16,-86.99 621.53,-68.1 611.35,-55 594.42,-33.22 518.05,-20.36 471.98,-14.44"/>
<polygon fill="#63b8ff" stroke="#63b8ff" points="604.61,-99.34 602.56,-109.73 610.65,-102.89 604.61,-99.34"/>
</a>
</g>
</g>
<!-- Node10&#45;&gt;Node3 -->
<g id="edge20_Node000010_Node000003" class="edge">
<title>Node10&#45;&gt;Node3</title>
<g id="a_edge20_Node000010_Node000003"><a xlink:title=" ">
<path fill="none" stroke="#63b8ff" d="M620.93,-159.29C631.44,-151.76 642.6,-141.48 648.35,-129 659.29,-105.23 632.5,-58.68 628.35,-55 605.49,-34.75 521.16,-21.11 472.2,-14.7"/>
<polygon fill="#63b8ff" stroke="#63b8ff" points="618.78,-156.51 612.38,-164.95 622.65,-162.35 618.78,-156.51"/>
</a>
</g>
</g>
<!-- Node10&#45;&gt;Node9 -->
<g id="edge19_Node000010_Node000009" class="edge">
<title>Node10&#45;&gt;Node9</title>
<g id="a_edge19_Node000010_Node000009"><a xlink:title=" ">
<path fill="none" stroke="#63b8ff" d="M596.35,-154.66C596.35,-145.93 596.35,-135.99 596.35,-129.09"/>
<polygon fill="#63b8ff" stroke="#63b8ff" points="592.85,-154.75 596.35,-164.75 599.85,-154.75 592.85,-154.75"/>
</a>
</g>
</g>
<!-- Node11&#45;&gt;Node3 -->
<g id="edge22_Node000011_Node000003" class="edge">
<title>Node11&#45;&gt;Node3</title>
<g id="a_edge22_Node000011_Node000003"><a xlink:title=" ">
<path fill="none" stroke="#63b8ff" d="M685.93,-53.59C623.22,-42.76 524.73,-25.76 472.19,-16.69"/>
<polygon fill="#63b8ff" stroke="#63b8ff" points="685.6,-57.08 696.05,-55.33 686.8,-50.18 685.6,-57.08"/>
</a>
</g>
</g>
</g>
</svg>

<g id="navigator" transform="translate(0 0)" fill="#404254">
  <rect fill="#f2f5e9" fill-opacity="0.5" stroke="#606060" stroke-width=".5" x="0" y="0" width="60" height="60"/>
  <use id="zoomplus" xlink:href="#zoomPlus" x="17" y="9" onmousedown="handleZoom(evt,'in')"/>
  <use id="zoomminus" xlink:href="#zoomMin" x="42" y="9" onmousedown="handleZoom(evt,'out')"/>
  <use id="reset" xlink:href="#resetDef" x="30" y="36" onmousedown="handleReset()"/>
   <use id="arrowup" xlink:href="#arrowUp" x="0" y="0" onmousedown="handlePan(0,-1)"/>
  <use id="arrowright" xlink:href="#arrowRight" x="0" y="0" onmousedown="handlePan(1,0)"/>
  <use id="arrowdown" xlink:href="#arrowDown" x="0" y="0" onmousedown="handlePan(0,1)"/>
  <use id="arrowleft" xlink:href="#arrowLeft" x="0" y="0" onmousedown="handlePan(-1,0)"/>
</g>
<svg viewBox="0 0 15 15" width="100%" height="30px" preserveAspectRatio="xMaxYMin meet">
 <g id="arrow_out" transform="scale(0.3 0.3)">
  <a xlink:href="CO__Emergency_8h__dep__incl_org.svg" target="_base">
   <rect id="button" ry="5" rx="5" y="6" x="6" height="38" width="38"
        fill="#f2f5e9" fill-opacity="0.5" stroke="#606060" stroke-width="1.0"/>
   <path id="arrow"
     d="M 11.500037,31.436501 C 11.940474,20.09759 22.043105,11.32322 32.158766,21.979434 L 37.068811,17.246167 C 37.068811,17.246167 37.088388,32 37.088388,32 L 22.160133,31.978069 C 22.160133,31.978069 26.997745,27.140456 26.997745,27.140456 C 18.528582,18.264221 13.291696,25.230495 11.500037,31.436501 z"
     style="fill:#404040;"/>
  </a>
 </g>
</svg>

<style type='text/css'>
<![CDATA[
[data-mouse-over-selected='false'] { opacity: 0.7; }
[data-mouse-over-selected='true']  { opacity: 1.0; }
]]>
</style>
<script type="application/ecmascript"><![CDATA[
document.addEventListener('DOMContentLoaded', (event) => {
  highlightEdges();
  highlightAdjacentNodes();
});
]]></script>
</svg>
