<?xml version="1.0" encoding="UTF-8" standalone="no"?>
<!DOCTYPE svg PUBLIC "-//W3C//DTD SVG 1.1//EN"
 "http://www.w3.org/Graphics/SVG/1.1/DTD/svg11.dtd">
<!-- Generated by graphviz version 2.43.0 (0)
 -->
<!-- Title: 301/CO_driver.h Pages: 1 -->
<svg width="1698pt" height="364pt"
 viewBox="0.00 0.00 1698.00 364.00" xmlns="http://www.w3.org/2000/svg" xmlns:xlink="http://www.w3.org/1999/xlink">
<g id="graph0" class="graph" transform="scale(1 1) rotate(0) translate(4 360)">
<title>301/CO_driver.h</title>
<polygon fill="white" stroke="transparent" points="-4,4 -4,-360 1694,-360 1694,4 -4,4"/>
<!-- Node1 -->
<g id="node1" class="node">
<title>Node1</title>
<g id="a_node1"><a xlink:title="Interface between CAN hardware and CANopenNode.">
<polygon fill="#bfbfbf" stroke="black" points="868.5,-336.5 868.5,-355.5 963.5,-355.5 963.5,-336.5 868.5,-336.5"/>
<text text-anchor="middle" x="916" y="-343.5" font-family="Helvetica,sans-Serif" font-size="10.00">301/CO_driver.h</text>
</a>
</g>
</g>
<!-- Node2 -->
<g id="node2" class="node">
<title>Node2</title>
<g id="a_node2"><a xlink:href="CANopen_8h.html" target="_top" xlink:title="Main CANopenNode file.">
<polygon fill="white" stroke="black" points="674.5,-0.5 674.5,-19.5 745.5,-19.5 745.5,-0.5 674.5,-0.5"/>
<text text-anchor="middle" x="710" y="-7.5" font-family="Helvetica,sans-Serif" font-size="10.00">CANopen.h</text>
</a>
</g>
</g>
<!-- Node1&#45;&gt;Node2 -->
<g id="edge1" class="edge">
<title>Node1&#45;&gt;Node2</title>
<path fill="none" stroke="midnightblue" d="M974.25,-344.39C1117.64,-342.35 1479.11,-333.89 1521,-300 1544.4,-281.07 1540,-265.1 1540,-235 1540,-235 1540,-235 1540,-121 1540,-39.6 904.53,-16.43 745.66,-11.91"/>
<polygon fill="midnightblue" stroke="midnightblue" points="973.85,-340.89 963.9,-344.53 973.95,-347.89 973.85,-340.89"/>
</g>
<!-- Node3 -->
<g id="node3" class="node">
<title>Node3</title>
<g id="a_node3"><a xlink:href="CO__Emergency_8h.html" target="_top" xlink:title="CANopen Emergency protocol.">
<polygon fill="white" stroke="black" points="319.5,-224.5 319.5,-243.5 438.5,-243.5 438.5,-224.5 319.5,-224.5"/>
<text text-anchor="middle" x="379" y="-231.5" font-family="Helvetica,sans-Serif" font-size="10.00">301/CO_Emergency.h</text>
</a>
</g>
</g>
<!-- Node1&#45;&gt;Node3 -->
<g id="edge2" class="edge">
<title>Node1&#45;&gt;Node3</title>
<path fill="none" stroke="midnightblue" d="M858.19,-345.07C746.44,-344.33 505.42,-338.19 433,-300 408.6,-287.14 390.92,-258.11 383.24,-243.6"/>
<polygon fill="midnightblue" stroke="midnightblue" points="858.25,-348.57 868.27,-345.12 858.29,-341.57 858.25,-348.57"/>
</g>
<!-- Node4 -->
<g id="node4" class="node">
<title>Node4</title>
<g id="a_node4"><a xlink:href="CO__HBconsumer_8h.html" target="_top" xlink:title="CANopen Heartbeat consumer protocol.">
<polygon fill="white" stroke="black" points="296,-112.5 296,-131.5 424,-131.5 424,-112.5 296,-112.5"/>
<text text-anchor="middle" x="360" y="-119.5" font-family="Helvetica,sans-Serif" font-size="10.00">301/CO_HBconsumer.h</text>
</a>
</g>
</g>
<!-- Node1&#45;&gt;Node4 -->
<g id="edge30" class="edge">
<title>Node1&#45;&gt;Node4</title>
<path fill="none" stroke="midnightblue" d="M858.05,-343.07C742.81,-338.71 488.84,-326.36 406,-300 358.93,-285.02 334.6,-286.83 310,-244 287.13,-204.19 331.48,-151.87 351.21,-131.57"/>
<polygon fill="midnightblue" stroke="midnightblue" points="857.98,-346.57 868.1,-343.44 858.24,-339.57 857.98,-346.57"/>
</g>
<!-- Node5 -->
<g id="node5" class="node">
<title>Node5</title>
<g id="a_node5"><a xlink:href="CO__NMT__Heartbeat_8h.html" target="_top" xlink:title="CANopen Network management and Heartbeat producer protocol.">
<polygon fill="white" stroke="black" points="86.5,-168.5 86.5,-187.5 229.5,-187.5 229.5,-168.5 86.5,-168.5"/>
<text text-anchor="middle" x="158" y="-175.5" font-family="Helvetica,sans-Serif" font-size="10.00">301/CO_NMT_Heartbeat.h</text>
</a>
</g>
</g>
<!-- Node1&#45;&gt;Node5 -->
<g id="edge31" class="edge">
<title>Node1&#45;&gt;Node5</title>
<path fill="none" stroke="midnightblue" d="M857.94,-343.25C710.38,-338.48 328.96,-323.96 277,-300 221.61,-274.46 177.99,-211.11 163.32,-187.8"/>
<polygon fill="midnightblue" stroke="midnightblue" points="858.04,-346.76 868.15,-343.58 858.27,-339.76 858.04,-346.76"/>
</g>
<!-- Node6 -->
<g id="node6" class="node">
<title>Node6</title>
<g id="a_node6"><a xlink:href="CO__TIME_8h.html" target="_top" xlink:title="CANopen Time&#45;stamp protocol.">
<polygon fill="white" stroke="black" points="0,-112.5 0,-131.5 90,-131.5 90,-112.5 0,-112.5"/>
<text text-anchor="middle" x="45" y="-119.5" font-family="Helvetica,sans-Serif" font-size="10.00">301/CO_TIME.h</text>
</a>
</g>
</g>
<!-- Node1&#45;&gt;Node6 -->
<g id="edge52" class="edge">
<title>Node1&#45;&gt;Node6</title>
<path fill="none" stroke="midnightblue" d="M858.05,-345.33C707.32,-345.56 306.06,-342.08 181,-300 138.47,-285.69 126.45,-277.85 97,-244 78.86,-223.15 80.97,-213.36 70,-188 61.36,-168.03 52.51,-144 48.02,-131.5"/>
<polygon fill="midnightblue" stroke="midnightblue" points="858.47,-348.82 868.46,-345.3 858.45,-341.82 858.47,-348.82"/>
</g>
<!-- Node7 -->
<g id="node7" class="node">
<title>Node7</title>
<g id="a_node7"><a xlink:href="CO__LEDs_8h.html" target="_top" xlink:title="CANopen Indicator specification (CiA 303&#45;3 v1.4.0)">
<polygon fill="white" stroke="black" points="814,-112.5 814,-131.5 904,-131.5 904,-112.5 814,-112.5"/>
<text text-anchor="middle" x="859" y="-119.5" font-family="Helvetica,sans-Serif" font-size="10.00">303/CO_LEDs.h</text>
</a>
</g>
</g>
<!-- Node1&#45;&gt;Node7 -->
<g id="edge54" class="edge">
<title>Node1&#45;&gt;Node7</title>
<path fill="none" stroke="midnightblue" d="M973.82,-340.46C1012.07,-335.25 1061.99,-324.05 1100,-300 1160.21,-261.9 1237.88,-221.66 1191,-168 1154.31,-126 986.32,-121.67 904.31,-122.14"/>
<polygon fill="midnightblue" stroke="midnightblue" points="973.34,-336.99 963.86,-341.72 974.22,-343.94 973.34,-336.99"/>
</g>
<!-- Node8 -->
<g id="node8" class="node">
<title>Node8</title>
<g id="a_node8"><a xlink:href="CO__gateway__ascii_8h.html" target="_top" xlink:title="CANopen access from other networks &#45; ASCII mapping (CiA 309&#45;3 DS v3.0.0)">
<polygon fill="white" stroke="black" points="864,-56.5 864,-75.5 1000,-75.5 1000,-56.5 864,-56.5"/>
<text text-anchor="middle" x="932" y="-63.5" font-family="Helvetica,sans-Serif" font-size="10.00">309/CO_gateway_ascii.h</text>
</a>
</g>
</g>
<!-- Node1&#45;&gt;Node8 -->
<g id="edge65" class="edge">
<title>Node1&#45;&gt;Node8</title>
<path fill="none" stroke="midnightblue" d="M973.76,-339.71C1018.07,-334.05 1079.93,-322.62 1130,-300 1167.91,-282.87 1184.4,-280.14 1205,-244 1217.4,-222.25 1209.66,-213 1211,-188 1211.47,-179.12 1216.1,-175.28 1211,-168 1182.78,-127.78 1041.72,-91.42 971.64,-75.5"/>
<polygon fill="midnightblue" stroke="midnightblue" points="973.25,-336.24 963.74,-340.93 974.09,-343.19 973.25,-336.24"/>
</g>
<!-- Node9 -->
<g id="node9" class="node">
<title>Node9</title>
<g id="a_node9"><a xlink:href="CO__SRDO_8h.html" target="_top" xlink:title="CANopen Safety Related Data Object protocol.">
<polygon fill="white" stroke="black" points="146,-112.5 146,-131.5 240,-131.5 240,-112.5 146,-112.5"/>
<text text-anchor="middle" x="193" y="-119.5" font-family="Helvetica,sans-Serif" font-size="10.00">304/CO_SRDO.h</text>
</a>
</g>
</g>
<!-- Node1&#45;&gt;Node9 -->
<g id="edge58" class="edge">
<title>Node1&#45;&gt;Node9</title>
<path fill="none" stroke="midnightblue" d="M858.26,-344.98C716.76,-344.31 356.07,-338.75 243,-300 158.81,-271.15 118.78,-266.59 77,-188 60.1,-156.2 106.87,-139.02 145.99,-130.45"/>
<polygon fill="midnightblue" stroke="midnightblue" points="858.45,-348.48 868.46,-345.02 858.48,-341.48 858.45,-348.48"/>
</g>
<!-- Node12 -->
<g id="node12" class="node">
<title>Node12</title>
<g id="a_node12"><a xlink:href="CO__SYNC_8h.html" target="_top" xlink:title="CANopen Synchronisation protocol.">
<polygon fill="white" stroke="black" points="514,-168.5 514,-187.5 606,-187.5 606,-168.5 514,-168.5"/>
<text text-anchor="middle" x="560" y="-175.5" font-family="Helvetica,sans-Serif" font-size="10.00">301/CO_SYNC.h</text>
</a>
</g>
</g>
<!-- Node1&#45;&gt;Node12 -->
<g id="edge51" class="edge">
<title>Node1&#45;&gt;Node12</title>
<path fill="none" stroke="midnightblue" d="M883.31,-332.81C860.59,-324.13 829.7,-311.94 803,-300 715.88,-261.04 614.54,-208.01 575.99,-187.54"/>
<polygon fill="midnightblue" stroke="midnightblue" points="882.23,-336.14 892.83,-336.42 884.72,-329.6 882.23,-336.14"/>
</g>
<!-- Node13 -->
<g id="node13" class="node">
<title>Node13</title>
<g id="a_node13"><a xlink:href="CO__fifo_8h.html" target="_top" xlink:title="FIFO circular buffer.">
<polygon fill="white" stroke="black" points="874.5,-224.5 874.5,-243.5 957.5,-243.5 957.5,-224.5 874.5,-224.5"/>
<text text-anchor="middle" x="916" y="-231.5" font-family="Helvetica,sans-Serif" font-size="10.00">301/CO_fifo.h</text>
</a>
</g>
</g>
<!-- Node1&#45;&gt;Node13 -->
<g id="edge25" class="edge">
<title>Node1&#45;&gt;Node13</title>
<path fill="none" stroke="midnightblue" d="M916,-326.35C916,-302.25 916,-261.31 916,-243.59"/>
<polygon fill="midnightblue" stroke="midnightblue" points="912.5,-326.37 916,-336.37 919.5,-326.37 912.5,-326.37"/>
</g>
<!-- Node14 -->
<g id="node14" class="node">
<title>Node14</title>
<g id="a_node14"><a xlink:href="CO__SDOclient_8h.html" target="_top" xlink:title="CANopen Service Data Object &#45; client protocol.">
<polygon fill="white" stroke="black" points="738,-168.5 738,-187.5 852,-187.5 852,-168.5 738,-168.5"/>
<text text-anchor="middle" x="795" y="-175.5" font-family="Helvetica,sans-Serif" font-size="10.00">301/CO_SDOclient.h</text>
</a>
</g>
</g>
<!-- Node1&#45;&gt;Node14 -->
<g id="edge49" class="edge">
<title>Node1&#45;&gt;Node14</title>
<path fill="none" stroke="midnightblue" d="M903.44,-327.76C877.8,-292.59 820.28,-213.68 801.25,-187.57"/>
<polygon fill="midnightblue" stroke="midnightblue" points="900.78,-330.06 909.49,-336.08 906.43,-325.93 900.78,-330.06"/>
</g>
<!-- Node15 -->
<g id="node15" class="node">
<title>Node15</title>
<g id="a_node15"><a xlink:href="CO__ODinterface_8h.html" target="_top" xlink:title="CANopen Object Dictionary interface.">
<polygon fill="white" stroke="black" points="442.5,-280.5 442.5,-299.5 567.5,-299.5 567.5,-280.5 442.5,-280.5"/>
<text text-anchor="middle" x="505" y="-287.5" font-family="Helvetica,sans-Serif" font-size="10.00">301/CO_ODinterface.h</text>
</a>
</g>
</g>
<!-- Node1&#45;&gt;Node15 -->
<g id="edge32" class="edge">
<title>Node1&#45;&gt;Node15</title>
<path fill="none" stroke="midnightblue" d="M858.49,-337.44C781.82,-327.37 646.62,-309.61 567.51,-299.21"/>
<polygon fill="midnightblue" stroke="midnightblue" points="858.08,-340.92 868.45,-338.75 858.99,-333.98 858.08,-340.92"/>
</g>
<!-- Node16 -->
<g id="node16" class="node">
<title>Node16</title>
<g id="a_node16"><a xlink:href="CO__SDOserver_8h.html" target="_top" xlink:title="CANopen Service Data Object &#45; server protocol.">
<polygon fill="white" stroke="black" points="700,-224.5 700,-243.5 818,-243.5 818,-224.5 700,-224.5"/>
<text text-anchor="middle" x="759" y="-231.5" font-family="Helvetica,sans-Serif" font-size="10.00">301/CO_SDOserver.h</text>
</a>
</g>
</g>
<!-- Node1&#45;&gt;Node16 -->
<g id="edge50" class="edge">
<title>Node1&#45;&gt;Node16</title>
<path fill="none" stroke="midnightblue" d="M887.63,-331.9C870.88,-323.65 849.57,-312.27 832,-300 806.68,-282.32 780.46,-256.92 767.43,-243.72"/>
<polygon fill="midnightblue" stroke="midnightblue" points="886.38,-335.18 896.91,-336.37 889.42,-328.87 886.38,-335.18"/>
</g>
<!-- Node17 -->
<g id="node17" class="node">
<title>Node17</title>
<g id="a_node17"><a xlink:href="CO__trace_8h.html" target="_top" xlink:title="CANopen trace object for recording variables over time.">
<polygon fill="white" stroke="black" points="870,-168.5 870,-187.5 968,-187.5 968,-168.5 870,-168.5"/>
<text text-anchor="middle" x="919" y="-175.5" font-family="Helvetica,sans-Serif" font-size="10.00">extra/CO_trace.h</text>
</a>
</g>
</g>
<!-- Node1&#45;&gt;Node17 -->
<g id="edge68" class="edge">
<title>Node1&#45;&gt;Node17</title>
<path fill="none" stroke="midnightblue" d="M967.91,-334.05C1038.38,-316.82 1150.8,-279.52 1107,-224 1090.01,-202.46 1018.03,-190.08 968.24,-183.94"/>
<polygon fill="midnightblue" stroke="midnightblue" points="966.76,-330.72 957.84,-336.44 968.38,-337.53 966.76,-330.72"/>
</g>
<!-- Node18 -->
<g id="node18" class="node">
<title>Node18</title>
<g id="a_node18"><a xlink:href="CO__storage_8h.html" target="_top" xlink:title="CANopen data storage base object.">
<polygon fill="white" stroke="black" points="976,-224.5 976,-243.5 1098,-243.5 1098,-224.5 976,-224.5"/>
<text text-anchor="middle" x="1037" y="-231.5" font-family="Helvetica,sans-Serif" font-size="10.00">storage/CO_storage.h</text>
</a>
</g>
</g>
<!-- Node1&#45;&gt;Node18 -->
<g id="edge67" class="edge">
<title>Node1&#45;&gt;Node18</title>
<path fill="none" stroke="midnightblue" d="M933.04,-329.51C958.89,-306.01 1007.18,-262.11 1027.55,-243.59"/>
<polygon fill="midnightblue" stroke="midnightblue" points="930.54,-327.05 925.49,-336.37 935.25,-332.23 930.54,-327.05"/>
</g>
<!-- Node20 -->
<g id="node20" class="node">
<title>Node20</title>
<g id="a_node20"><a xlink:href="crc16-ccitt_8h.html" target="_top" xlink:title="Calculation of CRC 16 CCITT polynomial.">
<polygon fill="white" stroke="black" points="1310,-280.5 1310,-299.5 1408,-299.5 1408,-280.5 1310,-280.5"/>
<text text-anchor="middle" x="1359" y="-287.5" font-family="Helvetica,sans-Serif" font-size="10.00">301/crc16&#45;ccitt.h</text>
</a>
</g>
</g>
<!-- Node1&#45;&gt;Node20 -->
<g id="edge53" class="edge">
<title>Node1&#45;&gt;Node20</title>
<path fill="none" stroke="midnightblue" d="M973.86,-338.59C1048.4,-330.22 1181.97,-314.89 1296,-300 1300.49,-299.41 1305.16,-298.78 1309.83,-298.14"/>
<polygon fill="midnightblue" stroke="midnightblue" points="973.28,-335.13 963.74,-339.72 974.06,-342.08 973.28,-335.13"/>
</g>
<!-- Node21 -->
<g id="node21" class="node">
<title>Node21</title>
<g id="a_node21"><a xlink:href="CO__GFC_8h.html" target="_top" xlink:title="CANopen Global fail&#45;safe command protocol.">
<polygon fill="white" stroke="black" points="1426,-280.5 1426,-299.5 1512,-299.5 1512,-280.5 1426,-280.5"/>
<text text-anchor="middle" x="1469" y="-287.5" font-family="Helvetica,sans-Serif" font-size="10.00">304/CO_GFC.h</text>
</a>
</g>
</g>
<!-- Node1&#45;&gt;Node21 -->
<g id="edge55" class="edge">
<title>Node1&#45;&gt;Node21</title>
<path fill="none" stroke="midnightblue" d="M973.91,-341.34C1067.37,-335.1 1257.18,-320.97 1417,-300 1419.91,-299.62 1422.9,-299.19 1425.91,-298.74"/>
<polygon fill="midnightblue" stroke="midnightblue" points="973.55,-337.86 963.81,-342.01 974.02,-344.84 973.55,-337.86"/>
</g>
<!-- Node23 -->
<g id="node23" class="node">
<title>Node23</title>
<g id="a_node23"><a xlink:href="CO__LSS_8h.html" target="_top" xlink:title="CANopen Layer Setting Services protocol (common).">
<polygon fill="white" stroke="black" points="1276.5,-168.5 1276.5,-187.5 1359.5,-187.5 1359.5,-168.5 1276.5,-168.5"/>
<text text-anchor="middle" x="1318" y="-175.5" font-family="Helvetica,sans-Serif" font-size="10.00">305/CO_LSS.h</text>
</a>
</g>
</g>
<!-- Node1&#45;&gt;Node23 -->
<g id="edge59" class="edge">
<title>Node1&#45;&gt;Node23</title>
<path fill="none" stroke="midnightblue" d="M973.62,-343.85C1058.94,-341.1 1213.58,-331.75 1258,-300 1297.29,-271.91 1312.2,-210.68 1316.52,-187.83"/>
<polygon fill="midnightblue" stroke="midnightblue" points="973.46,-340.36 963.57,-344.16 973.67,-347.35 973.46,-340.36"/>
</g>
<!-- Node26 -->
<g id="node26" class="node">
<title>Node26</title>
<g id="a_node26"><a xlink:href="CO__eeprom_8h.html" target="_top" xlink:title="Eeprom interface for use with CO_storageEeprom.">
<polygon fill="white" stroke="black" points="1568,-280.5 1568,-299.5 1690,-299.5 1690,-280.5 1568,-280.5"/>
<text text-anchor="middle" x="1629" y="-287.5" font-family="Helvetica,sans-Serif" font-size="10.00">storage/CO_eeprom.h</text>
</a>
</g>
</g>
<!-- Node1&#45;&gt;Node26 -->
<g id="edge66" class="edge">
<title>Node1&#45;&gt;Node26</title>
<path fill="none" stroke="midnightblue" d="M973.76,-341.88C1085.8,-335.61 1340.42,-320.33 1554,-300 1558.44,-299.58 1563.02,-299.11 1567.63,-298.61"/>
<polygon fill="midnightblue" stroke="midnightblue" points="973.48,-338.39 963.69,-342.44 973.87,-345.38 973.48,-338.39"/>
</g>
<!-- Node3&#45;&gt;Node2 -->
<g id="edge3" class="edge">
<title>Node3&#45;&gt;Node2</title>
<path fill="none" stroke="midnightblue" d="M389.52,-215.56C405.14,-190.61 436.36,-144.2 471,-112 504.41,-80.94 515.57,-75.08 557,-56 595.48,-38.28 642.61,-25.67 674.31,-18.39"/>
<polygon fill="midnightblue" stroke="midnightblue" points="386.41,-213.93 384.15,-224.28 392.37,-217.6 386.41,-213.93"/>
</g>
<!-- Node3&#45;&gt;Node4 -->
<g id="edge4" class="edge">
<title>Node3&#45;&gt;Node4</title>
<path fill="none" stroke="midnightblue" d="M368.72,-215.63C364.51,-207.52 360.12,-197.57 358,-188 353.6,-168.16 356.38,-144.09 358.41,-131.54"/>
<polygon fill="midnightblue" stroke="midnightblue" points="365.7,-217.4 373.62,-224.44 371.82,-214 365.7,-217.4"/>
</g>
<!-- Node3&#45;&gt;Node5 -->
<g id="edge6" class="edge">
<title>Node3&#45;&gt;Node5</title>
<path fill="none" stroke="midnightblue" d="M334.08,-222.02C292.33,-211.82 231.02,-196.84 192.85,-187.52"/>
<polygon fill="midnightblue" stroke="midnightblue" points="333.44,-225.47 343.98,-224.44 335.1,-218.67 333.44,-225.47"/>
</g>
<!-- Node3&#45;&gt;Node9 -->
<g id="edge24" class="edge">
<title>Node3&#45;&gt;Node9</title>
<path fill="none" stroke="midnightblue" d="M355.34,-219.01C316.3,-195.92 239.52,-150.51 207.53,-131.59"/>
<polygon fill="midnightblue" stroke="midnightblue" points="354.02,-222.29 364.4,-224.37 357.58,-216.27 354.02,-222.29"/>
</g>
<!-- Node11 -->
<g id="node11" class="node">
<title>Node11</title>
<g id="a_node11"><a xlink:href="CO__PDO_8h.html" target="_top" xlink:title="CANopen Process Data Object protocol.">
<polygon fill="white" stroke="black" points="480.5,-112.5 480.5,-131.5 567.5,-131.5 567.5,-112.5 480.5,-112.5"/>
<text text-anchor="middle" x="524" y="-119.5" font-family="Helvetica,sans-Serif" font-size="10.00">301/CO_PDO.h</text>
</a>
</g>
</g>
<!-- Node3&#45;&gt;Node11 -->
<g id="edge19" class="edge">
<title>Node3&#45;&gt;Node11</title>
<path fill="none" stroke="midnightblue" d="M398.62,-218.12C429.4,-194.77 488.05,-150.27 512.67,-131.59"/>
<polygon fill="midnightblue" stroke="midnightblue" points="396.23,-215.54 390.38,-224.37 400.46,-221.11 396.23,-215.54"/>
</g>
<!-- Node3&#45;&gt;Node12 -->
<g id="edge21" class="edge">
<title>Node3&#45;&gt;Node12</title>
<path fill="none" stroke="midnightblue" d="M417.32,-221.57C451.46,-211.38 500.66,-196.7 531.45,-187.52"/>
<polygon fill="midnightblue" stroke="midnightblue" points="416.26,-218.23 407.68,-224.44 418.26,-224.94 416.26,-218.23"/>
</g>
<!-- Node4&#45;&gt;Node2 -->
<g id="edge5" class="edge">
<title>Node4&#45;&gt;Node2</title>
<path fill="none" stroke="midnightblue" d="M374.7,-104.51C389.22,-89.34 412.85,-67.52 438,-56 516.99,-19.84 620.7,-12.33 674.37,-11.03"/>
<polygon fill="midnightblue" stroke="midnightblue" points="371.85,-102.43 367.62,-112.14 376.99,-107.19 371.85,-102.43"/>
</g>
<!-- Node5&#45;&gt;Node2 -->
<g id="edge7" class="edge">
<title>Node5&#45;&gt;Node2</title>
<path fill="none" stroke="midnightblue" d="M145.76,-159.82C137.89,-146.54 130.29,-127.81 137,-112 151,-79.02 162.39,-70.86 195,-56 280.76,-16.93 572.37,-11.68 674.4,-11.05"/>
<polygon fill="midnightblue" stroke="midnightblue" points="142.96,-161.93 151.34,-168.41 148.83,-158.12 142.96,-161.93"/>
</g>
<!-- Node5&#45;&gt;Node4 -->
<g id="edge8" class="edge">
<title>Node5&#45;&gt;Node4</title>
<path fill="none" stroke="midnightblue" d="M199.79,-165.83C237.93,-155.63 293.48,-140.78 328.14,-131.52"/>
<polygon fill="midnightblue" stroke="midnightblue" points="198.76,-162.48 190.01,-168.44 200.57,-169.24 198.76,-162.48"/>
</g>
<!-- Node5&#45;&gt;Node6 -->
<g id="edge9" class="edge">
<title>Node5&#45;&gt;Node6</title>
<path fill="none" stroke="midnightblue" d="M131,-164.1C109.89,-154.01 81.14,-140.27 62.82,-131.52"/>
<polygon fill="midnightblue" stroke="midnightblue" points="129.56,-167.29 140.09,-168.44 132.58,-160.97 129.56,-167.29"/>
</g>
<!-- Node5&#45;&gt;Node7 -->
<g id="edge11" class="edge">
<title>Node5&#45;&gt;Node7</title>
<path fill="none" stroke="midnightblue" d="M239.7,-170.71C388.16,-159.27 697.57,-135.44 813.68,-126.49"/>
<polygon fill="midnightblue" stroke="midnightblue" points="239.43,-167.22 229.72,-171.47 239.96,-174.2 239.43,-167.22"/>
</g>
<!-- Node5&#45;&gt;Node8 -->
<g id="edge18" class="edge">
<title>Node5&#45;&gt;Node8</title>
<path fill="none" stroke="midnightblue" d="M185.23,-163.76C203.36,-154.89 227.67,-142.88 249,-132 266,-123.32 268.64,-117.22 287,-112 393.82,-81.62 720.86,-71.32 863.87,-68.21"/>
<polygon fill="midnightblue" stroke="midnightblue" points="183.3,-160.8 175.85,-168.34 186.37,-167.09 183.3,-160.8"/>
</g>
<!-- Node5&#45;&gt;Node9 -->
<g id="edge15" class="edge">
<title>Node5&#45;&gt;Node9</title>
<path fill="none" stroke="midnightblue" d="M169.3,-159.57C175.32,-150.27 182.47,-139.25 187.33,-131.75"/>
<polygon fill="midnightblue" stroke="midnightblue" points="166.28,-157.79 163.78,-168.08 172.16,-161.6 166.28,-157.79"/>
</g>
<!-- Node6&#45;&gt;Node2 -->
<g id="edge10" class="edge">
<title>Node6&#45;&gt;Node2</title>
<path fill="none" stroke="midnightblue" d="M55.26,-103.67C65.47,-88.19 82.68,-66.4 104,-56 155.26,-30.99 552.34,-16.12 674.41,-12.11"/>
<polygon fill="midnightblue" stroke="midnightblue" points="52.17,-102 49.83,-112.34 58.1,-105.72 52.17,-102"/>
</g>
<!-- Node7&#45;&gt;Node2 -->
<g id="edge12" class="edge">
<title>Node7&#45;&gt;Node2</title>
<path fill="none" stroke="midnightblue" d="M846.61,-104.16C835.56,-90 818.33,-69.9 800,-56 779.12,-40.17 751.81,-27.44 732.77,-19.61"/>
<polygon fill="midnightblue" stroke="midnightblue" points="844.09,-106.64 852.93,-112.49 849.67,-102.41 844.09,-106.64"/>
</g>
<!-- Node7&#45;&gt;Node8 -->
<g id="edge13" class="edge">
<title>Node7&#45;&gt;Node8</title>
<path fill="none" stroke="midnightblue" d="M879.14,-106.1C892.28,-96.38 908.98,-84.03 920.06,-75.83"/>
<polygon fill="midnightblue" stroke="midnightblue" points="876.69,-103.56 870.73,-112.32 880.85,-109.19 876.69,-103.56"/>
</g>
<!-- Node8&#45;&gt;Node2 -->
<g id="edge14" class="edge">
<title>Node8&#45;&gt;Node2</title>
<path fill="none" stroke="midnightblue" d="M886.88,-54.02C844.94,-43.82 783.35,-28.84 745.01,-19.52"/>
<polygon fill="midnightblue" stroke="midnightblue" points="886.28,-57.48 896.82,-56.44 887.93,-50.68 886.28,-57.48"/>
</g>
<!-- Node9&#45;&gt;Node2 -->
<g id="edge16" class="edge">
<title>Node9&#45;&gt;Node2</title>
<path fill="none" stroke="midnightblue" d="M193.11,-102.02C194.3,-87.11 198.54,-67.07 212,-56 247.58,-26.74 566.49,-15.07 674.45,-11.93"/>
<polygon fill="midnightblue" stroke="midnightblue" points="189.61,-102.06 192.7,-112.19 196.6,-102.34 189.61,-102.06"/>
</g>
<!-- Node10 -->
<g id="node10" class="node">
<title>Node10</title>
<g id="a_node10"><a xlink:href="CO__SRDO_8c.html" target="_top" xlink:title="CANopen Safety Related Data Object protocol.">
<polygon fill="white" stroke="black" points="221.5,-56.5 221.5,-75.5 314.5,-75.5 314.5,-56.5 221.5,-56.5"/>
<text text-anchor="middle" x="268" y="-63.5" font-family="Helvetica,sans-Serif" font-size="10.00">304/CO_SRDO.c</text>
</a>
</g>
</g>
<!-- Node9&#45;&gt;Node10 -->
<g id="edge17" class="edge">
<title>Node9&#45;&gt;Node10</title>
<path fill="none" stroke="midnightblue" d="M213.31,-106.38C226.86,-96.62 244.24,-84.11 255.73,-75.83"/>
<polygon fill="midnightblue" stroke="midnightblue" points="211.12,-103.64 205.05,-112.32 215.21,-109.32 211.12,-103.64"/>
</g>
<!-- Node11&#45;&gt;Node2 -->
<g id="edge20" class="edge">
<title>Node11&#45;&gt;Node2</title>
<path fill="none" stroke="midnightblue" d="M535.7,-103.56C546.27,-89.02 563.03,-68.7 582,-56 610.28,-37.06 647.42,-25.16 674.4,-18.39"/>
<polygon fill="midnightblue" stroke="midnightblue" points="532.57,-101.94 529.7,-112.14 538.3,-105.96 532.57,-101.94"/>
</g>
<!-- Node12&#45;&gt;Node2 -->
<g id="edge22" class="edge">
<title>Node12&#45;&gt;Node2</title>
<path fill="none" stroke="midnightblue" d="M567.35,-158.77C579.63,-128.95 604.52,-71.53 620,-56 637.39,-38.55 662.92,-26.67 682.36,-19.52"/>
<polygon fill="midnightblue" stroke="midnightblue" points="563.97,-157.79 563.43,-168.37 570.45,-160.43 563.97,-157.79"/>
</g>
<!-- Node12&#45;&gt;Node11 -->
<g id="edge23" class="edge">
<title>Node12&#45;&gt;Node11</title>
<path fill="none" stroke="midnightblue" d="M548.38,-159.57C542.18,-150.27 534.83,-139.25 529.83,-131.75"/>
<polygon fill="midnightblue" stroke="midnightblue" points="545.6,-161.7 554.06,-168.08 551.42,-157.82 545.6,-161.7"/>
</g>
<!-- Node13&#45;&gt;Node8 -->
<g id="edge29" class="edge">
<title>Node13&#45;&gt;Node8</title>
<path fill="none" stroke="midnightblue" d="M945,-219.33C957.23,-211.92 970.19,-201.48 977,-188 997.31,-147.79 957.98,-96.13 940.15,-75.79"/>
<polygon fill="midnightblue" stroke="midnightblue" points="942.93,-216.48 935.91,-224.41 946.34,-222.59 942.93,-216.48"/>
</g>
<!-- Node13&#45;&gt;Node14 -->
<g id="edge26" class="edge">
<title>Node13&#45;&gt;Node14</title>
<path fill="none" stroke="midnightblue" d="M887.69,-220.37C865.03,-210.26 833.87,-196.35 814.08,-187.52"/>
<polygon fill="midnightblue" stroke="midnightblue" points="886.27,-223.56 896.83,-224.44 889.12,-217.17 886.27,-223.56"/>
</g>
<!-- Node14&#45;&gt;Node2 -->
<g id="edge27" class="edge">
<title>Node14&#45;&gt;Node2</title>
<path fill="none" stroke="midnightblue" d="M785.71,-158.86C767.48,-123.25 727.64,-45.45 714.39,-19.57"/>
<polygon fill="midnightblue" stroke="midnightblue" points="782.76,-160.77 790.43,-168.08 788.99,-157.58 782.76,-160.77"/>
</g>
<!-- Node14&#45;&gt;Node8 -->
<g id="edge28" class="edge">
<title>Node14&#45;&gt;Node8</title>
<path fill="none" stroke="midnightblue" d="M855.34,-165.55C876.07,-158.89 897.85,-148.41 913,-132 927.67,-116.1 931.07,-89.48 931.82,-75.76"/>
<polygon fill="midnightblue" stroke="midnightblue" points="854.19,-162.24 845.6,-168.44 856.18,-168.95 854.19,-162.24"/>
</g>
<!-- Node15&#45;&gt;Node2 -->
<g id="edge33" class="edge">
<title>Node15&#45;&gt;Node2</title>
<path fill="none" stroke="midnightblue" d="M539.77,-276.67C577.98,-260.63 634,-228.65 634,-179 634,-179 634,-179 634,-121 634,-76.2 677.2,-36.43 698.46,-19.57"/>
<polygon fill="midnightblue" stroke="midnightblue" points="538.46,-273.43 530.49,-280.41 541.07,-279.92 538.46,-273.43"/>
</g>
<!-- Node15&#45;&gt;Node3 -->
<g id="edge34" class="edge">
<title>Node15&#45;&gt;Node3</title>
<path fill="none" stroke="midnightblue" d="M475.84,-276.5C452.22,-266.38 419.57,-252.39 398.87,-243.52"/>
<polygon fill="midnightblue" stroke="midnightblue" points="474.46,-279.72 485.03,-280.44 477.22,-273.29 474.46,-279.72"/>
</g>
<!-- Node15&#45;&gt;Node4 -->
<g id="edge35" class="edge">
<title>Node15&#45;&gt;Node4</title>
<path fill="none" stroke="midnightblue" d="M490.33,-272.21C459.81,-237.26 390.39,-157.79 367.48,-131.57"/>
<polygon fill="midnightblue" stroke="midnightblue" points="487.99,-274.85 497.2,-280.08 493.26,-270.24 487.99,-274.85"/>
</g>
<!-- Node15&#45;&gt;Node5 -->
<g id="edge36" class="edge">
<title>Node15&#45;&gt;Node5</title>
<path fill="none" stroke="midnightblue" d="M447.55,-278.53C408.32,-270.71 355.43,-258.82 310,-244 259.8,-227.62 203.24,-201.21 175.39,-187.64"/>
<polygon fill="midnightblue" stroke="midnightblue" points="446.99,-281.99 457.47,-280.48 448.34,-275.12 446.99,-281.99"/>
</g>
<!-- Node15&#45;&gt;Node6 -->
<g id="edge46" class="edge">
<title>Node15&#45;&gt;Node6</title>
<path fill="none" stroke="midnightblue" d="M432.26,-279.99C324.59,-265.33 129.84,-233.33 77,-188 59.24,-172.77 50.4,-145.36 46.89,-131.51"/>
<polygon fill="midnightblue" stroke="midnightblue" points="432.02,-283.49 442.4,-281.35 432.95,-276.55 432.02,-283.49"/>
</g>
<!-- Node15&#45;&gt;Node11 -->
<g id="edge37" class="edge">
<title>Node15&#45;&gt;Node11</title>
<path fill="none" stroke="midnightblue" d="M502.71,-270.21C500.32,-246.22 497.8,-203.56 505,-168 507.69,-154.7 514.44,-140.45 519.12,-131.63"/>
<polygon fill="midnightblue" stroke="midnightblue" points="499.26,-270.82 503.84,-280.38 506.22,-270.05 499.26,-270.82"/>
</g>
<!-- Node15&#45;&gt;Node12 -->
<g id="edge45" class="edge">
<title>Node15&#45;&gt;Node12</title>
<path fill="none" stroke="midnightblue" d="M513.84,-271.32C525.82,-247.37 546.73,-205.55 555.7,-187.59"/>
<polygon fill="midnightblue" stroke="midnightblue" points="510.66,-269.86 509.32,-280.37 516.92,-272.99 510.66,-269.86"/>
</g>
<!-- Node15&#45;&gt;Node14 -->
<g id="edge38" class="edge">
<title>Node15&#45;&gt;Node14</title>
<path fill="none" stroke="midnightblue" d="M545.83,-277.69C574.7,-269.32 614.14,-257.14 648,-244 667.65,-236.38 671.77,-232.63 691,-224 719.9,-211.03 753.58,-196.58 774.6,-187.63"/>
<polygon fill="midnightblue" stroke="midnightblue" points="544.73,-274.37 536.09,-280.49 546.66,-281.09 544.73,-274.37"/>
</g>
<!-- Node15&#45;&gt;Node16 -->
<g id="edge39" class="edge">
<title>Node15&#45;&gt;Node16</title>
<path fill="none" stroke="midnightblue" d="M555.12,-278.35C603.12,-268.14 674.62,-252.94 718.94,-243.52"/>
<polygon fill="midnightblue" stroke="midnightblue" points="554.3,-274.94 545.25,-280.44 555.76,-281.79 554.3,-274.94"/>
</g>
<!-- Node15&#45;&gt;Node18 -->
<g id="edge47" class="edge">
<title>Node15&#45;&gt;Node18</title>
<path fill="none" stroke="midnightblue" d="M577.89,-282.54C668.83,-274.33 829.03,-259.36 966,-244 969.21,-243.64 972.5,-243.26 975.82,-242.87"/>
<polygon fill="midnightblue" stroke="midnightblue" points="577.34,-279.07 567.69,-283.46 577.97,-286.04 577.34,-279.07"/>
</g>
<!-- Node16&#45;&gt;Node2 -->
<g id="edge40" class="edge">
<title>Node16&#45;&gt;Node2</title>
<path fill="none" stroke="midnightblue" d="M745.04,-216.28C739.08,-208.23 732.67,-198.13 729,-188 706.79,-126.69 708.29,-46.2 709.5,-19.8"/>
<polygon fill="midnightblue" stroke="midnightblue" points="742.47,-218.69 751.4,-224.4 747.98,-214.37 742.47,-218.69"/>
</g>
<!-- Node16&#45;&gt;Node9 -->
<g id="edge42" class="edge">
<title>Node16&#45;&gt;Node9</title>
<path fill="none" stroke="midnightblue" d="M735.06,-219.32C707.18,-204.09 659.28,-180.02 615,-168 597.11,-163.14 346.55,-138.11 240.2,-127.63"/>
<polygon fill="midnightblue" stroke="midnightblue" points="733.6,-222.52 744.04,-224.31 737,-216.4 733.6,-222.52"/>
</g>
<!-- Node16&#45;&gt;Node14 -->
<g id="edge41" class="edge">
<title>Node16&#45;&gt;Node14</title>
<path fill="none" stroke="midnightblue" d="M770.62,-215.57C776.82,-206.27 784.17,-195.25 789.17,-187.75"/>
<polygon fill="midnightblue" stroke="midnightblue" points="767.58,-213.82 764.94,-224.08 773.4,-217.7 767.58,-213.82"/>
</g>
<!-- Node16&#45;&gt;Node17 -->
<g id="edge43" class="edge">
<title>Node16&#45;&gt;Node17</title>
<path fill="none" stroke="midnightblue" d="M794.05,-221.17C824.17,-211 866.9,-196.59 893.77,-187.52"/>
<polygon fill="midnightblue" stroke="midnightblue" points="792.71,-217.93 784.35,-224.44 794.95,-224.56 792.71,-217.93"/>
</g>
<!-- Node17&#45;&gt;Node2 -->
<g id="edge44" class="edge">
<title>Node17&#45;&gt;Node2</title>
<path fill="none" stroke="midnightblue" d="M872.47,-165.43C850.43,-158.34 824.69,-147.56 805,-132 772.69,-106.46 777.89,-88.02 752,-56 741.25,-42.7 727.53,-28.45 718.75,-19.63"/>
<polygon fill="midnightblue" stroke="midnightblue" points="871.72,-168.86 882.3,-168.44 873.76,-162.17 871.72,-168.86"/>
</g>
<!-- Node19 -->
<g id="node19" class="node">
<title>Node19</title>
<g id="a_node19"><a xlink:href="CO__storageEeprom_8h.html" target="_top" xlink:title="CANopen data storage object for storing data into block device (eeprom)">
<polygon fill="white" stroke="black" points="1023.5,-168.5 1023.5,-187.5 1182.5,-187.5 1182.5,-168.5 1023.5,-168.5"/>
<text text-anchor="middle" x="1103" y="-175.5" font-family="Helvetica,sans-Serif" font-size="10.00">storage/CO_storageEeprom.h</text>
</a>
</g>
</g>
<!-- Node18&#45;&gt;Node19 -->
<g id="edge48" class="edge">
<title>Node18&#45;&gt;Node19</title>
<path fill="none" stroke="midnightblue" d="M1055.55,-217.82C1067.38,-208.15 1082.29,-195.95 1092.2,-187.83"/>
<polygon fill="midnightblue" stroke="midnightblue" points="1053.13,-215.28 1047.6,-224.32 1057.56,-220.7 1053.13,-215.28"/>
</g>
<!-- Node21&#45;&gt;Node2 -->
<g id="edge56" class="edge">
<title>Node21&#45;&gt;Node2</title>
<path fill="none" stroke="midnightblue" d="M1447.68,-274.34C1437.32,-266.34 1425.33,-255.7 1417,-244 1398.95,-218.66 1391,-210.11 1391,-179 1391,-179 1391,-179 1391,-121 1391,-78.87 1360.56,-72.97 1322,-56 1217.66,-10.09 860.1,-9.49 745.59,-10.53"/>
<polygon fill="midnightblue" stroke="midnightblue" points="1445.77,-277.27 1455.89,-280.39 1449.93,-271.64 1445.77,-277.27"/>
</g>
<!-- Node22 -->
<g id="node22" class="node">
<title>Node22</title>
<g id="a_node22"><a xlink:href="CO__GFC_8c.html" target="_top" xlink:title="CANopen Global fail&#45;safe command protocol.">
<polygon fill="white" stroke="black" points="1426,-224.5 1426,-243.5 1512,-243.5 1512,-224.5 1426,-224.5"/>
<text text-anchor="middle" x="1469" y="-231.5" font-family="Helvetica,sans-Serif" font-size="10.00">304/CO_GFC.c</text>
</a>
</g>
</g>
<!-- Node21&#45;&gt;Node22 -->
<g id="edge57" class="edge">
<title>Node21&#45;&gt;Node22</title>
<path fill="none" stroke="midnightblue" d="M1469,-269.8C1469,-260.91 1469,-250.78 1469,-243.75"/>
<polygon fill="midnightblue" stroke="midnightblue" points="1465.5,-270.08 1469,-280.08 1472.5,-270.08 1465.5,-270.08"/>
</g>
<!-- Node24 -->
<g id="node24" class="node">
<title>Node24</title>
<g id="a_node24"><a xlink:href="CO__LSSmaster_8h.html" target="_top" xlink:title="CANopen Layer Setting Service &#45; master protocol.">
<polygon fill="white" stroke="black" points="1190,-112.5 1190,-131.5 1308,-131.5 1308,-112.5 1190,-112.5"/>
<text text-anchor="middle" x="1249" y="-119.5" font-family="Helvetica,sans-Serif" font-size="10.00">305/CO_LSSmaster.h</text>
</a>
</g>
</g>
<!-- Node23&#45;&gt;Node24 -->
<g id="edge60" class="edge">
<title>Node23&#45;&gt;Node24</title>
<path fill="none" stroke="midnightblue" d="M1298.96,-162.1C1286.54,-152.38 1270.76,-140.03 1260.29,-131.83"/>
<polygon fill="midnightblue" stroke="midnightblue" points="1296.88,-164.92 1306.91,-168.32 1301.2,-159.4 1296.88,-164.92"/>
</g>
<!-- Node25 -->
<g id="node25" class="node">
<title>Node25</title>
<g id="a_node25"><a xlink:href="CO__LSSslave_8h.html" target="_top" xlink:title="CANopen Layer Setting Service &#45; slave protocol.">
<polygon fill="white" stroke="black" points="1203,-56.5 1203,-75.5 1313,-75.5 1313,-56.5 1203,-56.5"/>
<text text-anchor="middle" x="1258" y="-63.5" font-family="Helvetica,sans-Serif" font-size="10.00">305/CO_LSSslave.h</text>
</a>
</g>
</g>
<!-- Node23&#45;&gt;Node25 -->
<g id="edge63" class="edge">
<title>Node23&#45;&gt;Node25</title>
<path fill="none" stroke="midnightblue" d="M1321.87,-158.38C1323.74,-144.79 1324.23,-126.33 1317,-112 1308.59,-95.32 1290.77,-83.1 1276.91,-75.64"/>
<polygon fill="midnightblue" stroke="midnightblue" points="1318.38,-157.99 1320.12,-168.44 1325.28,-159.19 1318.38,-157.99"/>
</g>
<!-- Node24&#45;&gt;Node2 -->
<g id="edge61" class="edge">
<title>Node24&#45;&gt;Node2</title>
<path fill="none" stroke="midnightblue" d="M1211.82,-109.5C1164.92,-95.32 1081.62,-71.25 1009,-56 914.73,-36.21 801.98,-21.67 745.68,-15.02"/>
<polygon fill="midnightblue" stroke="midnightblue" points="1210.95,-112.89 1221.53,-112.45 1212.98,-106.19 1210.95,-112.89"/>
</g>
<!-- Node24&#45;&gt;Node8 -->
<g id="edge62" class="edge">
<title>Node24&#45;&gt;Node8</title>
<path fill="none" stroke="midnightblue" d="M1188.7,-110.73C1128.79,-100.52 1038.01,-85.06 981.99,-75.52"/>
<polygon fill="midnightblue" stroke="midnightblue" points="1188.32,-114.21 1198.77,-112.44 1189.5,-107.31 1188.32,-114.21"/>
</g>
<!-- Node25&#45;&gt;Node2 -->
<g id="edge64" class="edge">
<title>Node25&#45;&gt;Node2</title>
<path fill="none" stroke="midnightblue" d="M1192.74,-58.57C1076.22,-47.09 836.12,-23.43 745.59,-14.51"/>
<polygon fill="midnightblue" stroke="midnightblue" points="1192.65,-62.08 1202.95,-59.58 1193.34,-55.11 1192.65,-62.08"/>
</g>
</g>
</svg>
