<?xml version="1.0" encoding="UTF-8" standalone="no"?>
<!DOCTYPE svg PUBLIC "-//W3C//DTD SVG 1.1//EN"
 "http://www.w3.org/Graphics/SVG/1.1/DTD/svg11.dtd">
<!-- Generated by graphviz version 2.43.0 (0)
 -->
<!-- Title: 301/CO_PDO.h Pages: 1 -->
<svg width="320pt" height="308pt"
 viewBox="0.00 0.00 319.50 308.00" xmlns="http://www.w3.org/2000/svg" xmlns:xlink="http://www.w3.org/1999/xlink">
<g id="graph0" class="graph" transform="scale(1 1) rotate(0) translate(4 304)">
<title>301/CO_PDO.h</title>
<polygon fill="white" stroke="transparent" points="-4,4 -4,-304 315.5,-304 315.5,4 -4,4"/>
<!-- Node1 -->
<g id="node1" class="node">
<title>Node1</title>
<g id="a_node1"><a xlink:title="CANopen Process Data Object protocol.">
<polygon fill="#bfbfbf" stroke="black" points="104,-280.5 104,-299.5 191,-299.5 191,-280.5 104,-280.5"/>
<text text-anchor="middle" x="147.5" y="-287.5" font-family="Helvetica,sans-Serif" font-size="10.00">301/CO_PDO.h</text>
</a>
</g>
</g>
<!-- Node2 -->
<g id="node2" class="node">
<title>Node2</title>
<g id="a_node2"><a xlink:href="CO__ODinterface_8h.html" target="_top" xlink:title="CANopen Object Dictionary interface.">
<polygon fill="white" stroke="black" points="85,-112.5 85,-131.5 210,-131.5 210,-112.5 85,-112.5"/>
<text text-anchor="middle" x="147.5" y="-119.5" font-family="Helvetica,sans-Serif" font-size="10.00">301/CO_ODinterface.h</text>
</a>
</g>
</g>
<!-- Node1&#45;&gt;Node2 -->
<g id="edge1" class="edge">
<title>Node1&#45;&gt;Node2</title>
<path fill="none" stroke="midnightblue" d="M147.5,-280.08C147.5,-253.95 147.5,-177.21 147.5,-141.58"/>
<polygon fill="midnightblue" stroke="midnightblue" points="151,-141.57 147.5,-131.57 144,-141.57 151,-141.57"/>
</g>
<!-- Node7 -->
<g id="node7" class="node">
<title>Node7</title>
<g id="a_node7"><a xlink:href="CO__Emergency_8h.html" target="_top" xlink:title="CANopen Emergency protocol.">
<polygon fill="white" stroke="black" points="0,-168.5 0,-187.5 119,-187.5 119,-168.5 0,-168.5"/>
<text text-anchor="middle" x="59.5" y="-175.5" font-family="Helvetica,sans-Serif" font-size="10.00">301/CO_Emergency.h</text>
</a>
</g>
</g>
<!-- Node1&#45;&gt;Node7 -->
<g id="edge6" class="edge">
<title>Node1&#45;&gt;Node7</title>
<path fill="none" stroke="midnightblue" d="M140.59,-280.37C126.01,-262.14 91.84,-219.43 72.84,-195.68"/>
<polygon fill="midnightblue" stroke="midnightblue" points="75.35,-193.21 66.37,-187.59 69.89,-197.59 75.35,-193.21"/>
</g>
<!-- Node8 -->
<g id="node8" class="node">
<title>Node8</title>
<g id="a_node8"><a xlink:href="CO__SYNC_8h.html" target="_top" xlink:title="CANopen Synchronisation protocol.">
<polygon fill="white" stroke="black" points="175.5,-224.5 175.5,-243.5 267.5,-243.5 267.5,-224.5 175.5,-224.5"/>
<text text-anchor="middle" x="221.5" y="-231.5" font-family="Helvetica,sans-Serif" font-size="10.00">301/CO_SYNC.h</text>
</a>
</g>
</g>
<!-- Node1&#45;&gt;Node8 -->
<g id="edge9" class="edge">
<title>Node1&#45;&gt;Node8</title>
<path fill="none" stroke="midnightblue" d="M159.39,-280.32C170.65,-272.11 187.79,-259.6 201.21,-249.81"/>
<polygon fill="midnightblue" stroke="midnightblue" points="203.38,-252.56 209.39,-243.83 199.25,-246.9 203.38,-252.56"/>
</g>
<!-- Node3 -->
<g id="node3" class="node">
<title>Node3</title>
<g id="a_node3"><a xlink:href="CO__driver_8h.html" target="_top" xlink:title="Interface between CAN hardware and CANopenNode.">
<polygon fill="white" stroke="black" points="100,-56.5 100,-75.5 195,-75.5 195,-56.5 100,-56.5"/>
<text text-anchor="middle" x="147.5" y="-63.5" font-family="Helvetica,sans-Serif" font-size="10.00">301/CO_driver.h</text>
</a>
</g>
</g>
<!-- Node2&#45;&gt;Node3 -->
<g id="edge2" class="edge">
<title>Node2&#45;&gt;Node3</title>
<path fill="none" stroke="midnightblue" d="M147.5,-112.08C147.5,-105.01 147.5,-94.86 147.5,-85.99"/>
<polygon fill="midnightblue" stroke="midnightblue" points="151,-85.75 147.5,-75.75 144,-85.75 151,-85.75"/>
</g>
<!-- Node4 -->
<g id="node4" class="node">
<title>Node4</title>
<g id="a_node4"><a xlink:title=" ">
<polygon fill="white" stroke="#bfbfbf" points="39,-0.5 39,-19.5 92,-19.5 92,-0.5 39,-0.5"/>
<text text-anchor="middle" x="65.5" y="-7.5" font-family="Helvetica,sans-Serif" font-size="10.00">string.h</text>
</a>
</g>
</g>
<!-- Node3&#45;&gt;Node4 -->
<g id="edge3" class="edge">
<title>Node3&#45;&gt;Node4</title>
<path fill="none" stroke="midnightblue" d="M134.33,-56.32C121.65,-47.98 102.27,-35.21 87.29,-25.35"/>
<polygon fill="midnightblue" stroke="midnightblue" points="88.92,-22.23 78.64,-19.65 85.07,-28.08 88.92,-22.23"/>
</g>
<!-- Node5 -->
<g id="node5" class="node">
<title>Node5</title>
<g id="a_node5"><a xlink:href="CO__config_8h.html" target="_top" xlink:title="Configuration macros for CANopenNode.">
<polygon fill="white" stroke="black" points="110,-0.5 110,-19.5 185,-19.5 185,-0.5 110,-0.5"/>
<text text-anchor="middle" x="147.5" y="-7.5" font-family="Helvetica,sans-Serif" font-size="10.00">CO_config.h</text>
</a>
</g>
</g>
<!-- Node3&#45;&gt;Node5 -->
<g id="edge4" class="edge">
<title>Node3&#45;&gt;Node5</title>
<path fill="none" stroke="midnightblue" d="M147.5,-56.08C147.5,-49.01 147.5,-38.86 147.5,-29.99"/>
<polygon fill="midnightblue" stroke="midnightblue" points="151,-29.75 147.5,-19.75 144,-29.75 151,-29.75"/>
</g>
<!-- Node6 -->
<g id="node6" class="node">
<title>Node6</title>
<g id="a_node6"><a xlink:title=" ">
<polygon fill="white" stroke="#bfbfbf" points="203.5,-0.5 203.5,-19.5 311.5,-19.5 311.5,-0.5 203.5,-0.5"/>
<text text-anchor="middle" x="257.5" y="-7.5" font-family="Helvetica,sans-Serif" font-size="10.00">CO_driver_target.h</text>
</a>
</g>
</g>
<!-- Node3&#45;&gt;Node6 -->
<g id="edge5" class="edge">
<title>Node3&#45;&gt;Node6</title>
<path fill="none" stroke="midnightblue" d="M165.17,-56.32C182.89,-47.62 210.4,-34.12 230.79,-24.11"/>
<polygon fill="midnightblue" stroke="midnightblue" points="232.44,-27.2 239.87,-19.65 229.35,-20.92 232.44,-27.2"/>
</g>
<!-- Node7&#45;&gt;Node2 -->
<g id="edge8" class="edge">
<title>Node7&#45;&gt;Node2</title>
<path fill="none" stroke="midnightblue" d="M73.64,-168.32C87.37,-159.9 108.44,-146.97 124.56,-137.07"/>
<polygon fill="midnightblue" stroke="midnightblue" points="126.7,-139.87 133.4,-131.65 123.04,-133.9 126.7,-139.87"/>
</g>
<!-- Node7&#45;&gt;Node3 -->
<g id="edge7" class="edge">
<title>Node7&#45;&gt;Node3</title>
<path fill="none" stroke="midnightblue" d="M59.63,-168.14C60.24,-154.76 63.09,-129.13 75.5,-112 85.64,-98 101.61,-87.38 115.93,-79.98"/>
<polygon fill="midnightblue" stroke="midnightblue" points="117.55,-83.09 125.03,-75.58 114.5,-76.79 117.55,-83.09"/>
</g>
<!-- Node8&#45;&gt;Node2 -->
<g id="edge11" class="edge">
<title>Node8&#45;&gt;Node2</title>
<path fill="none" stroke="midnightblue" d="M215.69,-224.37C203.48,-206.22 174.95,-163.8 158.93,-139.99"/>
<polygon fill="midnightblue" stroke="midnightblue" points="161.77,-137.94 153.28,-131.59 155.96,-141.84 161.77,-137.94"/>
</g>
<!-- Node8&#45;&gt;Node3 -->
<g id="edge10" class="edge">
<title>Node8&#45;&gt;Node3</title>
<path fill="none" stroke="midnightblue" d="M223.87,-224.36C229.09,-203.45 239.52,-149.12 218.5,-112 210.3,-97.52 195.32,-87.01 181.22,-79.81"/>
<polygon fill="midnightblue" stroke="midnightblue" points="182.71,-76.64 172.17,-75.55 179.73,-82.97 182.71,-76.64"/>
</g>
<!-- Node8&#45;&gt;Node7 -->
<g id="edge12" class="edge">
<title>Node8&#45;&gt;Node7</title>
<path fill="none" stroke="midnightblue" d="M195.83,-224.44C168.58,-215.36 125.32,-200.94 94.85,-190.78"/>
<polygon fill="midnightblue" stroke="midnightblue" points="95.64,-187.36 85.05,-187.52 93.43,-194 95.64,-187.36"/>
</g>
</g>
</svg>
