<?xml version="1.0" encoding="UTF-8" standalone="no"?>
<!DOCTYPE svg PUBLIC "-//W3C//DTD SVG 1.1//EN"
 "http://www.w3.org/Graphics/SVG/1.1/DTD/svg11.dtd">
<!-- Generated by graphviz version 2.43.0 (0)
 -->
<!-- Title: 301/CO_SDOclient.h Pages: 1 -->
<svg width="295pt" height="252pt"
 viewBox="0.00 0.00 295.47 252.00" xmlns="http://www.w3.org/2000/svg" xmlns:xlink="http://www.w3.org/1999/xlink">
<g id="graph0" class="graph" transform="scale(1 1) rotate(0) translate(4 248)">
<title>301/CO_SDOclient.h</title>
<polygon fill="white" stroke="transparent" points="-4,4 -4,-248 291.47,-248 291.47,4 -4,4"/>
<!-- Node1 -->
<g id="node1" class="node">
<title>Node1</title>
<g id="a_node1"><a xlink:title="CANopen Service Data Object &#45; client protocol.">
<polygon fill="#bfbfbf" stroke="black" points="51.47,-224.5 51.47,-243.5 165.47,-243.5 165.47,-224.5 51.47,-224.5"/>
<text text-anchor="middle" x="108.47" y="-231.5" font-family="Helvetica,sans-Serif" font-size="10.00">301/CO_SDOclient.h</text>
</a>
</g>
</g>
<!-- Node2 -->
<g id="node2" class="node">
<title>Node2</title>
<g id="a_node2"><a xlink:href="CO__driver_8h.html" target="_top" xlink:title="Interface between CAN hardware and CANopenNode.">
<polygon fill="white" stroke="black" points="75.97,-56.5 75.97,-75.5 170.97,-75.5 170.97,-56.5 75.97,-56.5"/>
<text text-anchor="middle" x="123.47" y="-63.5" font-family="Helvetica,sans-Serif" font-size="10.00">301/CO_driver.h</text>
</a>
</g>
</g>
<!-- Node1&#45;&gt;Node2 -->
<g id="edge1" class="edge">
<title>Node1&#45;&gt;Node2</title>
<path fill="none" stroke="midnightblue" d="M91.1,-224.36C54.8,-205.12 -23.3,-156.93 7.47,-112 20.81,-92.51 43.91,-81.47 66,-75.2"/>
<polygon fill="midnightblue" stroke="midnightblue" points="66.88,-78.59 75.71,-72.72 65.15,-71.8 66.88,-78.59"/>
</g>
<!-- Node6 -->
<g id="node6" class="node">
<title>Node6</title>
<g id="a_node6"><a xlink:href="CO__ODinterface_8h.html" target="_top" xlink:title="CANopen Object Dictionary interface.">
<polygon fill="white" stroke="black" points="15.97,-112.5 15.97,-131.5 140.97,-131.5 140.97,-112.5 15.97,-112.5"/>
<text text-anchor="middle" x="78.47" y="-119.5" font-family="Helvetica,sans-Serif" font-size="10.00">301/CO_ODinterface.h</text>
</a>
</g>
</g>
<!-- Node1&#45;&gt;Node6 -->
<g id="edge5" class="edge">
<title>Node1&#45;&gt;Node6</title>
<path fill="none" stroke="midnightblue" d="M102.59,-224.49C96.89,-215.76 88.53,-201.57 84.47,-188 79.94,-172.89 78.56,-154.99 78.25,-141.8"/>
<polygon fill="midnightblue" stroke="midnightblue" points="81.75,-141.6 78.19,-131.62 74.75,-141.64 81.75,-141.6"/>
</g>
<!-- Node7 -->
<g id="node7" class="node">
<title>Node7</title>
<g id="a_node7"><a xlink:href="CO__SDOserver_8h.html" target="_top" xlink:title="CANopen Service Data Object &#45; server protocol.">
<polygon fill="white" stroke="black" points="93.47,-168.5 93.47,-187.5 211.47,-187.5 211.47,-168.5 93.47,-168.5"/>
<text text-anchor="middle" x="152.47" y="-175.5" font-family="Helvetica,sans-Serif" font-size="10.00">301/CO_SDOserver.h</text>
</a>
</g>
</g>
<!-- Node1&#45;&gt;Node7 -->
<g id="edge7" class="edge">
<title>Node1&#45;&gt;Node7</title>
<path fill="none" stroke="midnightblue" d="M115.73,-224.08C122.01,-216.38 131.25,-205.03 138.9,-195.65"/>
<polygon fill="midnightblue" stroke="midnightblue" points="141.73,-197.71 145.34,-187.75 136.3,-193.29 141.73,-197.71"/>
</g>
<!-- Node8 -->
<g id="node8" class="node">
<title>Node8</title>
<g id="a_node8"><a xlink:href="CO__fifo_8h.html" target="_top" xlink:title="FIFO circular buffer.">
<polygon fill="white" stroke="black" points="197.97,-112.5 197.97,-131.5 280.97,-131.5 280.97,-112.5 197.97,-112.5"/>
<text text-anchor="middle" x="239.47" y="-119.5" font-family="Helvetica,sans-Serif" font-size="10.00">301/CO_fifo.h</text>
</a>
</g>
</g>
<!-- Node1&#45;&gt;Node8 -->
<g id="edge10" class="edge">
<title>Node1&#45;&gt;Node8</title>
<path fill="none" stroke="midnightblue" d="M154.28,-224.49C177.05,-218.05 203.29,-206.94 220.47,-188 231.93,-175.36 236.5,-156.15 238.31,-141.89"/>
<polygon fill="midnightblue" stroke="midnightblue" points="241.82,-142.01 239.25,-131.73 234.85,-141.37 241.82,-142.01"/>
</g>
<!-- Node3 -->
<g id="node3" class="node">
<title>Node3</title>
<g id="a_node3"><a xlink:title=" ">
<polygon fill="white" stroke="#bfbfbf" points="14.97,-0.5 14.97,-19.5 67.97,-19.5 67.97,-0.5 14.97,-0.5"/>
<text text-anchor="middle" x="41.47" y="-7.5" font-family="Helvetica,sans-Serif" font-size="10.00">string.h</text>
</a>
</g>
</g>
<!-- Node2&#45;&gt;Node3 -->
<g id="edge2" class="edge">
<title>Node2&#45;&gt;Node3</title>
<path fill="none" stroke="midnightblue" d="M110.29,-56.32C97.62,-47.98 78.23,-35.21 63.26,-25.35"/>
<polygon fill="midnightblue" stroke="midnightblue" points="64.88,-22.23 54.61,-19.65 61.03,-28.08 64.88,-22.23"/>
</g>
<!-- Node4 -->
<g id="node4" class="node">
<title>Node4</title>
<g id="a_node4"><a xlink:href="CO__config_8h.html" target="_top" xlink:title="Configuration macros for CANopenNode.">
<polygon fill="white" stroke="black" points="85.97,-0.5 85.97,-19.5 160.97,-19.5 160.97,-0.5 85.97,-0.5"/>
<text text-anchor="middle" x="123.47" y="-7.5" font-family="Helvetica,sans-Serif" font-size="10.00">CO_config.h</text>
</a>
</g>
</g>
<!-- Node2&#45;&gt;Node4 -->
<g id="edge3" class="edge">
<title>Node2&#45;&gt;Node4</title>
<path fill="none" stroke="midnightblue" d="M123.47,-56.08C123.47,-49.01 123.47,-38.86 123.47,-29.99"/>
<polygon fill="midnightblue" stroke="midnightblue" points="126.97,-29.75 123.47,-19.75 119.97,-29.75 126.97,-29.75"/>
</g>
<!-- Node5 -->
<g id="node5" class="node">
<title>Node5</title>
<g id="a_node5"><a xlink:title=" ">
<polygon fill="white" stroke="#bfbfbf" points="179.47,-0.5 179.47,-19.5 287.47,-19.5 287.47,-0.5 179.47,-0.5"/>
<text text-anchor="middle" x="233.47" y="-7.5" font-family="Helvetica,sans-Serif" font-size="10.00">CO_driver_target.h</text>
</a>
</g>
</g>
<!-- Node2&#45;&gt;Node5 -->
<g id="edge4" class="edge">
<title>Node2&#45;&gt;Node5</title>
<path fill="none" stroke="midnightblue" d="M141.14,-56.32C158.86,-47.62 186.37,-34.12 206.75,-24.11"/>
<polygon fill="midnightblue" stroke="midnightblue" points="208.4,-27.2 215.84,-19.65 205.32,-20.92 208.4,-27.2"/>
</g>
<!-- Node6&#45;&gt;Node2 -->
<g id="edge6" class="edge">
<title>Node6&#45;&gt;Node2</title>
<path fill="none" stroke="midnightblue" d="M85.9,-112.08C92.32,-104.38 101.77,-93.03 109.59,-83.65"/>
<polygon fill="midnightblue" stroke="midnightblue" points="112.46,-85.67 116.17,-75.75 107.08,-81.19 112.46,-85.67"/>
</g>
<!-- Node7&#45;&gt;Node2 -->
<g id="edge8" class="edge">
<title>Node7&#45;&gt;Node2</title>
<path fill="none" stroke="midnightblue" d="M153.56,-168.37C154.85,-155.71 156.19,-131.5 150.47,-112 147.52,-101.96 141.79,-91.88 136.36,-83.81"/>
<polygon fill="midnightblue" stroke="midnightblue" points="139.19,-81.76 130.52,-75.66 133.5,-85.83 139.19,-81.76"/>
</g>
<!-- Node7&#45;&gt;Node6 -->
<g id="edge9" class="edge">
<title>Node7&#45;&gt;Node6</title>
<path fill="none" stroke="midnightblue" d="M140.58,-168.32C129.32,-160.11 112.18,-147.6 98.76,-137.81"/>
<polygon fill="midnightblue" stroke="midnightblue" points="100.71,-134.9 90.57,-131.83 96.59,-140.56 100.71,-134.9"/>
</g>
<!-- Node8&#45;&gt;Node2 -->
<g id="edge11" class="edge">
<title>Node8&#45;&gt;Node2</title>
<path fill="none" stroke="midnightblue" d="M221.09,-112.44C202.25,-103.68 172.73,-89.94 151.09,-79.86"/>
<polygon fill="midnightblue" stroke="midnightblue" points="152.3,-76.56 141.76,-75.52 149.35,-82.91 152.3,-76.56"/>
</g>
</g>
</svg>
