<?xml version="1.0" encoding="UTF-8" standalone="no"?>
<!DOCTYPE svg PUBLIC "-//W3C//DTD SVG 1.1//EN"
 "http://www.w3.org/Graphics/SVG/1.1/DTD/svg11.dtd">
<!-- Generated by graphviz version 2.43.0 (0)
 -->
<!-- Title: 301/CO_SYNC.h Pages: 1 -->
<svg width="134pt" height="140pt"
 viewBox="0.00 0.00 133.50 140.00" xmlns="http://www.w3.org/2000/svg" xmlns:xlink="http://www.w3.org/1999/xlink">
<g id="graph0" class="graph" transform="scale(1 1) rotate(0) translate(4 136)">
<title>301/CO_SYNC.h</title>
<polygon fill="white" stroke="transparent" points="-4,4 -4,-136 129.5,-136 129.5,4 -4,4"/>
<!-- Node1 -->
<g id="node1" class="node">
<title>Node1</title>
<g id="a_node1"><a xlink:title="CANopen Synchronisation protocol.">
<polygon fill="#bfbfbf" stroke="black" points="0,-112.5 0,-131.5 92,-131.5 92,-112.5 0,-112.5"/>
<text text-anchor="middle" x="46" y="-119.5" font-family="Helvetica,sans-Serif" font-size="10.00">301/CO_SYNC.h</text>
</a>
</g>
</g>
<!-- Node2 -->
<g id="node2" class="node">
<title>Node2</title>
<g id="a_node2"><a xlink:href="CANopen_8h.html" target="_top" xlink:title="Main CANopenNode file.">
<polygon fill="white" stroke="black" points="10.5,-0.5 10.5,-19.5 81.5,-19.5 81.5,-0.5 10.5,-0.5"/>
<text text-anchor="middle" x="46" y="-7.5" font-family="Helvetica,sans-Serif" font-size="10.00">CANopen.h</text>
</a>
</g>
</g>
<!-- Node1&#45;&gt;Node2 -->
<g id="edge1" class="edge">
<title>Node1&#45;&gt;Node2</title>
<path fill="none" stroke="midnightblue" d="M36.94,-103.08C31.46,-90.11 26.06,-72.12 29,-56 31.4,-42.86 37.44,-28.56 41.63,-19.69"/>
<polygon fill="midnightblue" stroke="midnightblue" points="33.81,-104.66 41.19,-112.26 40.17,-101.72 33.81,-104.66"/>
</g>
<!-- Node3 -->
<g id="node3" class="node">
<title>Node3</title>
<g id="a_node3"><a xlink:href="CO__PDO_8h.html" target="_top" xlink:title="CANopen Process Data Object protocol.">
<polygon fill="white" stroke="black" points="38.5,-56.5 38.5,-75.5 125.5,-75.5 125.5,-56.5 38.5,-56.5"/>
<text text-anchor="middle" x="82" y="-63.5" font-family="Helvetica,sans-Serif" font-size="10.00">301/CO_PDO.h</text>
</a>
</g>
</g>
<!-- Node1&#45;&gt;Node3 -->
<g id="edge2" class="edge">
<title>Node1&#45;&gt;Node3</title>
<path fill="none" stroke="midnightblue" d="M57.62,-103.57C63.82,-94.27 71.17,-83.25 76.17,-75.75"/>
<polygon fill="midnightblue" stroke="midnightblue" points="54.58,-101.82 51.94,-112.08 60.4,-105.7 54.58,-101.82"/>
</g>
<!-- Node3&#45;&gt;Node2 -->
<g id="edge3" class="edge">
<title>Node3&#45;&gt;Node2</title>
<path fill="none" stroke="midnightblue" d="M70.38,-47.57C64.18,-38.27 56.83,-27.25 51.83,-19.75"/>
<polygon fill="midnightblue" stroke="midnightblue" points="67.6,-49.7 76.06,-56.08 73.42,-45.82 67.6,-49.7"/>
</g>
</g>
</svg>
