<?xml version="1.0" encoding="UTF-8" standalone="no"?>
<!DOCTYPE svg PUBLIC "-//W3C//DTD SVG 1.1//EN"
 "http://www.w3.org/Graphics/SVG/1.1/DTD/svg11.dtd">
<!-- Generated by graphviz version 2.43.0 (0)
 -->
<!-- Title: 309/CO_gateway_ascii.h Pages: 1 -->
<svg width="686pt" height="357pt"
 viewBox="0.00 0.00 685.50 357.00" xmlns="http://www.w3.org/2000/svg" xmlns:xlink="http://www.w3.org/1999/xlink">
<g id="graph0" class="graph" transform="scale(1 1) rotate(0) translate(4 353)">
<title>309/CO_gateway_ascii.h</title>
<!-- Node1 -->
<g id="Node000001" class="node">
<title>Node1</title>
<g id="a_Node000001"><a xlink:title="CANopen access from other networks &#45; ASCII mapping (CiA 309&#45;3 DS v3.0.0)">
<polygon fill="#999999" stroke="#666666" points="357,-349 221,-349 221,-330 357,-330 357,-349"/>
<text text-anchor="middle" x="289" y="-337" font-family="Helvetica,sans-Serif" font-size="10.00">309/CO_gateway_ascii.h</text>
</a>
</g>
</g>
<!-- Node2 -->
<g id="Node000002" class="node">
<title>Node2</title>
<g id="a_Node000002"><a xlink:href="CO__driver_8h.html" target="_top" xlink:title="Interface between CAN hardware and CANopenNode.">
<polygon fill="white" stroke="#666666" points="384.5,-74 289.5,-74 289.5,-55 384.5,-55 384.5,-74"/>
<text text-anchor="middle" x="337" y="-62" font-family="Helvetica,sans-Serif" font-size="10.00">301/CO_driver.h</text>
</a>
</g>
</g>
<!-- Node1&#45;&gt;Node2 -->
<g id="edge1_Node000001_Node000002" class="edge">
<title>Node1&#45;&gt;Node2</title>
<g id="a_edge1_Node000001_Node000002"><a xlink:title=" ">
<path fill="none" stroke="#63b8ff" d="M236.66,-329.99C153.38,-314.94 0,-280.45 0,-230.5 0,-230.5 0,-230.5 0,-173.5 0,-115.56 182.96,-84.37 279.26,-71.96"/>
<polygon fill="#63b8ff" stroke="#63b8ff" points="279.95,-75.41 289.43,-70.68 279.07,-68.46 279.95,-75.41"/>
</a>
</g>
</g>
<!-- Node6 -->
<g id="Node000006" class="node">
<title>Node6</title>
<g id="a_Node000006"><a xlink:href="CO__fifo_8h.html" target="_top" xlink:title="FIFO circular buffer.">
<polygon fill="white" stroke="#666666" points="111.5,-184 28.5,-184 28.5,-165 111.5,-165 111.5,-184"/>
<text text-anchor="middle" x="70" y="-172" font-family="Helvetica,sans-Serif" font-size="10.00">301/CO_fifo.h</text>
</a>
</g>
</g>
<!-- Node1&#45;&gt;Node6 -->
<g id="edge5_Node000001_Node000006" class="edge">
<title>Node1&#45;&gt;Node6</title>
<g id="a_edge5_Node000001_Node000006"><a xlink:title=" ">
<path fill="none" stroke="#63b8ff" d="M277.53,-329.97C242.14,-303.62 134.29,-223.35 89.66,-190.13"/>
<polygon fill="#63b8ff" stroke="#63b8ff" points="91.73,-187.31 81.62,-184.15 87.55,-192.92 91.73,-187.31"/>
</a>
</g>
</g>
<!-- Node7 -->
<g id="Node000007" class="node">
<title>Node7</title>
<g id="a_Node000007"><a xlink:href="CO__SDOclient_8h.html" target="_top" xlink:title="CANopen Service Data Object &#45; client protocol.">
<polygon fill="white" stroke="#666666" points="284,-239 170,-239 170,-220 284,-220 284,-239"/>
<text text-anchor="middle" x="227" y="-227" font-family="Helvetica,sans-Serif" font-size="10.00">301/CO_SDOclient.h</text>
</a>
</g>
</g>
<!-- Node1&#45;&gt;Node7 -->
<g id="edge7_Node000001_Node000007" class="edge">
<title>Node1&#45;&gt;Node7</title>
<g id="a_edge7_Node000001_Node000007"><a xlink:title=" ">
<path fill="none" stroke="#63b8ff" d="M283.93,-329.66C273.7,-311.85 250.46,-271.37 237.05,-248.01"/>
<polygon fill="#63b8ff" stroke="#63b8ff" points="239.98,-246.09 231.97,-239.16 233.91,-249.57 239.98,-246.09"/>
</a>
</g>
</g>
<!-- Node10 -->
<g id="Node000010" class="node">
<title>Node10</title>
<g id="a_Node000010"><a xlink:href="CO__NMT__Heartbeat_8h.html" target="_top" xlink:title="CANopen Network management and Heartbeat producer protocol.">
<polygon fill="white" stroke="#666666" points="478.5,-239 335.5,-239 335.5,-220 478.5,-220 478.5,-239"/>
<text text-anchor="middle" x="407" y="-227" font-family="Helvetica,sans-Serif" font-size="10.00">301/CO_NMT_Heartbeat.h</text>
</a>
</g>
</g>
<!-- Node1&#45;&gt;Node10 -->
<g id="edge15_Node000001_Node000010" class="edge">
<title>Node1&#45;&gt;Node10</title>
<g id="a_edge15_Node000001_Node000010"><a xlink:title=" ">
<path fill="none" stroke="#63b8ff" d="M297.45,-329.61C309.47,-317.09 332.34,-293.69 353,-275 364.26,-264.81 377.4,-253.96 387.9,-245.53"/>
<polygon fill="#63b8ff" stroke="#63b8ff" points="390.35,-248.05 396,-239.08 385.99,-242.57 390.35,-248.05"/>
</a>
</g>
</g>
<!-- Node12 -->
<g id="Node000012" class="node">
<title>Node12</title>
<g id="a_Node000012"><a xlink:href="CO__LSSmaster_8h.html" target="_top" xlink:title="CANopen Layer Setting Service &#45; master protocol.">
<polygon fill="white" stroke="#666666" points="658,-294 540,-294 540,-275 658,-275 658,-294"/>
<text text-anchor="middle" x="599" y="-282" font-family="Helvetica,sans-Serif" font-size="10.00">305/CO_LSSmaster.h</text>
</a>
</g>
</g>
<!-- Node1&#45;&gt;Node12 -->
<g id="edge21_Node000001_Node000012" class="edge">
<title>Node1&#45;&gt;Node12</title>
<g id="a_edge21_Node000001_Node000012"><a xlink:title=" ">
<path fill="none" stroke="#63b8ff" d="M338.81,-329.98C393.3,-320.67 480.63,-305.74 538.89,-295.78"/>
<polygon fill="#63b8ff" stroke="#63b8ff" points="539.79,-299.17 549.06,-294.04 538.61,-292.27 539.79,-299.17"/>
</a>
</g>
</g>
<!-- Node14 -->
<g id="Node000014" class="node">
<title>Node14</title>
<g id="a_Node000014"><a xlink:href="CO__LEDs_8h.html" target="_top" xlink:title="CANopen Indicator specification (CiA 303&#45;3 v1.4.0)">
<polygon fill="white" stroke="#666666" points="452,-294 362,-294 362,-275 452,-275 452,-294"/>
<text text-anchor="middle" x="407" y="-282" font-family="Helvetica,sans-Serif" font-size="10.00">303/CO_LEDs.h</text>
</a>
</g>
</g>
<!-- Node1&#45;&gt;Node14 -->
<g id="edge24_Node000001_Node000014" class="edge">
<title>Node1&#45;&gt;Node14</title>
<g id="a_edge24_Node000001_Node000014"><a xlink:title=" ">
<path fill="none" stroke="#63b8ff" d="M307.96,-329.98C327.03,-321.42 356.66,-308.11 378.55,-298.28"/>
<polygon fill="#63b8ff" stroke="#63b8ff" points="380.01,-301.46 387.7,-294.17 377.14,-295.07 380.01,-301.46"/>
</a>
</g>
</g>
<!-- Node3 -->
<g id="Node000003" class="node">
<title>Node3</title>
<g id="a_Node000003"><a xlink:title=" ">
<polygon fill="#e0e0e0" stroke="#999999" points="281.5,-19 228.5,-19 228.5,0 281.5,0 281.5,-19"/>
<text text-anchor="middle" x="255" y="-7" font-family="Helvetica,sans-Serif" font-size="10.00">string.h</text>
</a>
</g>
</g>
<!-- Node2&#45;&gt;Node3 -->
<g id="edge2_Node000002_Node000003" class="edge">
<title>Node2&#45;&gt;Node3</title>
<g id="a_edge2_Node000002_Node000003"><a xlink:title=" ">
<path fill="none" stroke="#63b8ff" d="M323.83,-54.98C311.23,-46.84 292,-34.41 277.06,-24.76"/>
<polygon fill="#63b8ff" stroke="#63b8ff" points="278.71,-21.66 268.41,-19.17 274.91,-27.54 278.71,-21.66"/>
</a>
</g>
</g>
<!-- Node4 -->
<g id="Node000004" class="node">
<title>Node4</title>
<g id="a_Node000004"><a xlink:href="CO__config_8h.html" target="_top" xlink:title="Configuration macros for CANopenNode.">
<polygon fill="white" stroke="#666666" points="374.5,-19 299.5,-19 299.5,0 374.5,0 374.5,-19"/>
<text text-anchor="middle" x="337" y="-7" font-family="Helvetica,sans-Serif" font-size="10.00">CO_config.h</text>
</a>
</g>
</g>
<!-- Node2&#45;&gt;Node4 -->
<g id="edge3_Node000002_Node000004" class="edge">
<title>Node2&#45;&gt;Node4</title>
<g id="a_edge3_Node000002_Node000004"><a xlink:title=" ">
<path fill="none" stroke="#63b8ff" d="M337,-54.75C337,-47.8 337,-37.85 337,-29.13"/>
<polygon fill="#63b8ff" stroke="#63b8ff" points="340.5,-29.09 337,-19.09 333.5,-29.09 340.5,-29.09"/>
</a>
</g>
</g>
<!-- Node5 -->
<g id="Node000005" class="node">
<title>Node5</title>
<g id="a_Node000005"><a xlink:title=" ">
<polygon fill="#e0e0e0" stroke="#999999" points="501,-19 393,-19 393,0 501,0 501,-19"/>
<text text-anchor="middle" x="447" y="-7" font-family="Helvetica,sans-Serif" font-size="10.00">CO_driver_target.h</text>
</a>
</g>
</g>
<!-- Node2&#45;&gt;Node5 -->
<g id="edge4_Node000002_Node000005" class="edge">
<title>Node2&#45;&gt;Node5</title>
<g id="a_edge4_Node000002_Node000005"><a xlink:title=" ">
<path fill="none" stroke="#63b8ff" d="M354.67,-54.98C372.29,-46.5 399.58,-33.35 419.93,-23.54"/>
<polygon fill="#63b8ff" stroke="#63b8ff" points="421.52,-26.66 429.01,-19.17 418.48,-20.36 421.52,-26.66"/>
</a>
</g>
</g>
<!-- Node6&#45;&gt;Node2 -->
<g id="edge6_Node000006_Node000002" class="edge">
<title>Node6&#45;&gt;Node2</title>
<g id="a_edge6_Node000006_Node000002"><a xlink:title=" ">
<path fill="none" stroke="#63b8ff" d="M74.97,-164.94C83.52,-151.05 102.38,-123.77 126,-110 172.95,-82.62 234.52,-71.98 279.02,-67.9"/>
<polygon fill="#63b8ff" stroke="#63b8ff" points="279.42,-71.38 289.09,-67.06 278.83,-64.41 279.42,-71.38"/>
</a>
</g>
</g>
<!-- Node7&#45;&gt;Node2 -->
<g id="edge8_Node000007_Node000002" class="edge">
<title>Node7&#45;&gt;Node2</title>
<g id="a_edge8_Node000007_Node000002"><a xlink:title=" ">
<path fill="none" stroke="#63b8ff" d="M204.65,-219.96C180.08,-209.16 145.75,-189.05 159,-165 185.78,-116.38 246.53,-89.99 289.59,-76.84"/>
<polygon fill="#63b8ff" stroke="#63b8ff" points="290.68,-80.17 299.3,-74.01 288.72,-73.45 290.68,-80.17"/>
</a>
</g>
</g>
<!-- Node7&#45;&gt;Node6 -->
<g id="edge14_Node000007_Node000006" class="edge">
<title>Node7&#45;&gt;Node6</title>
<g id="a_edge14_Node000007_Node000006"><a xlink:title=" ">
<path fill="none" stroke="#63b8ff" d="M201.78,-219.98C175.64,-211.16 134.6,-197.31 105.27,-187.41"/>
<polygon fill="#63b8ff" stroke="#63b8ff" points="106.02,-183.96 95.42,-184.08 103.78,-190.6 106.02,-183.96"/>
</a>
</g>
</g>
<!-- Node8 -->
<g id="Node000008" class="node">
<title>Node8</title>
<g id="a_Node000008"><a xlink:href="CO__ODinterface_8h.html" target="_top" xlink:title="CANopen Object Dictionary interface.">
<polygon fill="white" stroke="#666666" points="399.5,-129 274.5,-129 274.5,-110 399.5,-110 399.5,-129"/>
<text text-anchor="middle" x="337" y="-117" font-family="Helvetica,sans-Serif" font-size="10.00">301/CO_ODinterface.h</text>
</a>
</g>
</g>
<!-- Node7&#45;&gt;Node8 -->
<g id="edge9_Node000007_Node000008" class="edge">
<title>Node7&#45;&gt;Node8</title>
<g id="a_edge9_Node000007_Node000008"><a xlink:title=" ">
<path fill="none" stroke="#63b8ff" d="M244.02,-219.92C258.68,-211.98 279.8,-199.13 295,-184 308.72,-170.35 320.49,-151.53 328.05,-137.93"/>
<polygon fill="#63b8ff" stroke="#63b8ff" points="331.14,-139.56 332.78,-129.1 324.97,-136.26 331.14,-139.56"/>
</a>
</g>
</g>
<!-- Node9 -->
<g id="Node000009" class="node">
<title>Node9</title>
<g id="a_Node000009"><a xlink:href="CO__SDOserver_8h.html" target="_top" xlink:title="CANopen Service Data Object &#45; server protocol.">
<polygon fill="white" stroke="#666666" points="286,-184 168,-184 168,-165 286,-165 286,-184"/>
<text text-anchor="middle" x="227" y="-172" font-family="Helvetica,sans-Serif" font-size="10.00">301/CO_SDOserver.h</text>
</a>
</g>
</g>
<!-- Node7&#45;&gt;Node9 -->
<g id="edge11_Node000007_Node000009" class="edge">
<title>Node7&#45;&gt;Node9</title>
<g id="a_edge11_Node000007_Node000009"><a xlink:title=" ">
<path fill="none" stroke="#63b8ff" d="M227,-219.75C227,-212.8 227,-202.85 227,-194.13"/>
<polygon fill="#63b8ff" stroke="#63b8ff" points="230.5,-194.09 227,-184.09 223.5,-194.09 230.5,-194.09"/>
</a>
</g>
</g>
<!-- Node8&#45;&gt;Node2 -->
<g id="edge10_Node000008_Node000002" class="edge">
<title>Node8&#45;&gt;Node2</title>
<g id="a_edge10_Node000008_Node000002"><a xlink:title=" ">
<path fill="none" stroke="#63b8ff" d="M337,-109.75C337,-102.8 337,-92.85 337,-84.13"/>
<polygon fill="#63b8ff" stroke="#63b8ff" points="340.5,-84.09 337,-74.09 333.5,-84.09 340.5,-84.09"/>
</a>
</g>
</g>
<!-- Node9&#45;&gt;Node2 -->
<g id="edge12_Node000009_Node000002" class="edge">
<title>Node9&#45;&gt;Node2</title>
<g id="a_edge12_Node000009_Node000002"><a xlink:title=" ">
<path fill="none" stroke="#63b8ff" d="M230.58,-164.82C236.3,-151.72 248.58,-126.65 265,-110 277.61,-97.21 294.59,-86.49 308.9,-78.78"/>
<polygon fill="#63b8ff" stroke="#63b8ff" points="310.56,-81.85 317.84,-74.15 307.35,-75.64 310.56,-81.85"/>
</a>
</g>
</g>
<!-- Node9&#45;&gt;Node8 -->
<g id="edge13_Node000009_Node000008" class="edge">
<title>Node9&#45;&gt;Node8</title>
<g id="a_edge13_Node000009_Node000008"><a xlink:title=" ">
<path fill="none" stroke="#63b8ff" d="M244.67,-164.98C262.29,-156.5 289.58,-143.35 309.93,-133.54"/>
<polygon fill="#63b8ff" stroke="#63b8ff" points="311.52,-136.66 319.01,-129.17 308.48,-130.36 311.52,-136.66"/>
</a>
</g>
</g>
<!-- Node10&#45;&gt;Node2 -->
<g id="edge16_Node000010_Node000002" class="edge">
<title>Node10&#45;&gt;Node2</title>
<g id="a_edge16_Node000010_Node000002"><a xlink:title=" ">
<path fill="none" stroke="#63b8ff" d="M448.7,-219.94C482.7,-210.73 522.86,-193.46 508,-165 482.9,-116.94 423.74,-90.32 382.07,-76.97"/>
<polygon fill="#63b8ff" stroke="#63b8ff" points="383,-73.59 372.41,-74.01 380.95,-80.29 383,-73.59"/>
</a>
</g>
</g>
<!-- Node10&#45;&gt;Node8 -->
<g id="edge17_Node000010_Node000008" class="edge">
<title>Node10&#45;&gt;Node8</title>
<g id="a_edge17_Node000010_Node000008"><a xlink:title=" ">
<path fill="none" stroke="#63b8ff" d="M399.03,-219.68C391.36,-210.97 379.68,-197.08 371,-184 361.18,-169.2 351.79,-151.28 345.38,-138.25"/>
<polygon fill="#63b8ff" stroke="#63b8ff" points="348.42,-136.5 340.92,-129.01 342.11,-139.54 348.42,-136.5"/>
</a>
</g>
</g>
<!-- Node11 -->
<g id="Node000011" class="node">
<title>Node11</title>
<g id="a_Node000011"><a xlink:href="CO__Emergency_8h.html" target="_top" xlink:title="CANopen Emergency protocol.">
<polygon fill="white" stroke="#666666" points="499.5,-184 380.5,-184 380.5,-165 499.5,-165 499.5,-184"/>
<text text-anchor="middle" x="440" y="-172" font-family="Helvetica,sans-Serif" font-size="10.00">301/CO_Emergency.h</text>
</a>
</g>
</g>
<!-- Node10&#45;&gt;Node11 -->
<g id="edge18_Node000010_Node000011" class="edge">
<title>Node10&#45;&gt;Node11</title>
<g id="a_edge18_Node000010_Node000011"><a xlink:title=" ">
<path fill="none" stroke="#63b8ff" d="M412.45,-219.75C417.01,-212.42 423.67,-201.73 429.29,-192.7"/>
<polygon fill="#63b8ff" stroke="#63b8ff" points="432.34,-194.43 434.65,-184.09 426.4,-190.73 432.34,-194.43"/>
</a>
</g>
</g>
<!-- Node11&#45;&gt;Node2 -->
<g id="edge19_Node000011_Node000002" class="edge">
<title>Node11&#45;&gt;Node2</title>
<g id="a_edge19_Node000011_Node000002"><a xlink:title=" ">
<path fill="none" stroke="#63b8ff" d="M437.32,-164.81C432.92,-151.7 423.13,-126.61 408,-110 396.22,-97.07 379.84,-86.47 365.78,-78.86"/>
<polygon fill="#63b8ff" stroke="#63b8ff" points="367,-75.55 356.51,-74.08 363.79,-81.77 367,-75.55"/>
</a>
</g>
</g>
<!-- Node11&#45;&gt;Node8 -->
<g id="edge20_Node000011_Node000008" class="edge">
<title>Node11&#45;&gt;Node8</title>
<g id="a_edge20_Node000011_Node000008"><a xlink:title=" ">
<path fill="none" stroke="#63b8ff" d="M423.45,-164.98C407.11,-156.57 381.87,-143.59 362.87,-133.81"/>
<polygon fill="#63b8ff" stroke="#63b8ff" points="364.34,-130.63 353.85,-129.17 361.14,-136.86 364.34,-130.63"/>
</a>
</g>
</g>
<!-- Node13 -->
<g id="Node000013" class="node">
<title>Node13</title>
<g id="a_Node000013"><a xlink:href="CO__LSS_8h.html" target="_top" xlink:title="CANopen Layer Setting Services protocol (common).">
<polygon fill="white" stroke="#666666" points="677.5,-129 594.5,-129 594.5,-110 677.5,-110 677.5,-129"/>
<text text-anchor="middle" x="636" y="-117" font-family="Helvetica,sans-Serif" font-size="10.00">305/CO_LSS.h</text>
</a>
</g>
</g>
<!-- Node12&#45;&gt;Node13 -->
<g id="edge22_Node000012_Node000013" class="edge">
<title>Node12&#45;&gt;Node13</title>
<g id="a_edge22_Node000012_Node000013"><a xlink:title=" ">
<path fill="none" stroke="#63b8ff" d="M600.99,-274.74C606.79,-249.2 623.76,-174.43 631.75,-139.23"/>
<polygon fill="#63b8ff" stroke="#63b8ff" points="635.2,-139.83 634,-129.31 628.37,-138.28 635.2,-139.83"/>
</a>
</g>
</g>
<!-- Node13&#45;&gt;Node2 -->
<g id="edge23_Node000013_Node000002" class="edge">
<title>Node13&#45;&gt;Node2</title>
<g id="a_edge23_Node000013_Node000002"><a xlink:title=" ">
<path fill="none" stroke="#63b8ff" d="M594.43,-111.13C542.5,-101.93 453.39,-86.13 394.84,-75.75"/>
<polygon fill="#63b8ff" stroke="#63b8ff" points="395.09,-72.24 384.64,-73.94 393.87,-79.14 395.09,-72.24"/>
</a>
</g>
</g>
<!-- Node14&#45;&gt;Node2 -->
<g id="edge25_Node000014_Node000002" class="edge">
<title>Node14&#45;&gt;Node2</title>
<g id="a_edge25_Node000014_Node000002"><a xlink:title=" ">
<path fill="none" stroke="#63b8ff" d="M428.37,-274.96C466.84,-258.11 542.13,-217.62 524,-165 513.89,-135.66 506.55,-127.61 481,-110 455.38,-92.34 422.5,-81.49 394.63,-74.93"/>
<polygon fill="#63b8ff" stroke="#63b8ff" points="395.13,-71.45 384.6,-72.7 393.61,-78.29 395.13,-71.45"/>
</a>
</g>
</g>
<!-- Node14&#45;&gt;Node10 -->
<g id="edge26_Node000014_Node000010" class="edge">
<title>Node14&#45;&gt;Node10</title>
<g id="a_edge26_Node000014_Node000010"><a xlink:title=" ">
<path fill="none" stroke="#63b8ff" d="M407,-274.75C407,-267.8 407,-257.85 407,-249.13"/>
<polygon fill="#63b8ff" stroke="#63b8ff" points="410.5,-249.09 407,-239.09 403.5,-249.09 410.5,-249.09"/>
</a>
</g>
</g>
</g>
</svg>
