<?xml version="1.0" encoding="UTF-8" standalone="no"?>
<!DOCTYPE svg PUBLIC "-//W3C//DTD SVG 1.1//EN"
 "http://www.w3.org/Graphics/SVG/1.1/DTD/svg11.dtd">
<!-- Generated by graphviz version 2.43.0 (0)
 -->
<!-- Title: 301/CO_Emergency.h Pages: 1 -->
<!--zoomable 252 -->
<svg id="main" version="1.1" xmlns="http://www.w3.org/2000/svg" xmlns:xlink="http://www.w3.org/1999/xlink" xml:space="preserve" onload="init(evt)">
<style type="text/css"><![CDATA[
.edge:hover path { stroke: red; }
.edge:hover polygon { stroke: red; fill: red; }
]]></style>
<script type="text/javascript"><![CDATA[
var edges = document.getElementsByTagName('g');
if (edges && edges.length) {
  for (var i=0;i<edges.length;i++) {
    if (edges[i].id.substr(0,4)=='edge') {
      edges[i].setAttribute('class','edge');
    }
  }
}
]]></script>
        <defs>
                <circle id="rim" cx="0" cy="0" r="7"/>
                <circle id="rim2" cx="0" cy="0" r="3.5"/>
                <g id="zoomPlus">
                        <use xlink:href="#rim" fill="#404040">
                                <set attributeName="fill" to="#808080" begin="zoomplus.mouseover" end="zoomplus.mouseout"/>
                        </use>
                        <path d="M-4,0h8M0,-4v8" fill="none" stroke="white" stroke-width="1.5" pointer-events="none"/>
                </g>
                <g id="zoomMin">
                        <use xlink:href="#rim" fill="#404040">
                                <set attributeName="fill" to="#808080" begin="zoomminus.mouseover" end="zoomminus.mouseout"/>
                        </use>
                        <path d="M-4,0h8" fill="none" stroke="white" stroke-width="1.5" pointer-events="none"/>
                </g>
                <g id="dirArrow">
                        <path fill="none" stroke="white" stroke-width="1.5" d="M0,-3.0v7 M-2.5,-0.5L0,-3.0L2.5,-0.5"/>
                </g>
               <g id="resetDef">
                       <use xlink:href="#rim2" fill="#404040">
                               <set attributeName="fill" to="#808080" begin="reset.mouseover" end="reset.mouseout"/>
                       </use>
               </g>
        </defs>

<script type="text/javascript">
var viewWidth = 629;
var viewHeight = 252;
var sectionId = 'dynsection-1';
</script>
<script xlink:href="svgpan.js"/>
<svg id="graph" class="graph">
<g id="viewport">
<title>301/CO_Emergency.h</title>
<polygon fill="white" stroke="transparent" points="-4,4 -4,-248 624.59,-248 624.59,4 -4,4"/>
<!-- Node1 -->
<g id="node1" class="node">
<title>Node1</title>
<g id="a_node1"><a xlink:title="CANopen Emergency protocol.">
<polygon fill="#bfbfbf" stroke="black" points="301.83,-224.5 301.83,-243.5 420.83,-243.5 420.83,-224.5 301.83,-224.5"/>
<text text-anchor="middle" x="361.33" y="-231.5" font-family="Helvetica,sans-Serif" font-size="10.00">301/CO_Emergency.h</text>
</a>
</g>
</g>
<!-- Node2 -->
<g id="node2" class="node">
<title>Node2</title>
<g id="a_node2"><a xlink:href="CANopen_8h.html" target="_top" xlink:title="Main CANopenNode file.">
<polygon fill="white" stroke="black" points="230.83,-0.5 230.83,-19.5 301.83,-19.5 301.83,-0.5 230.83,-0.5"/>
<text text-anchor="middle" x="266.33" y="-7.5" font-family="Helvetica,sans-Serif" font-size="10.00">CANopen.h</text>
</a>
</g>
</g>
<!-- Node1&#45;&gt;Node2 -->
<g id="edge1" class="edge">
<title>Node1&#45;&gt;Node2</title>
<path fill="none" stroke="midnightblue" d="M291.69,-223.36C198.87,-208.88 42.53,-178.17 10.33,-132 -46.75,-50.14 147.67,-22.02 230.62,-13.89"/>
<polygon fill="midnightblue" stroke="midnightblue" points="291.16,-226.82 301.57,-224.88 292.22,-219.9 291.16,-226.82"/>
</g>
<!-- Node3 -->
<g id="node3" class="node">
<title>Node3</title>
<g id="a_node3"><a xlink:href="CO__HBconsumer_8h.html" target="_top" xlink:title="CANopen Heartbeat consumer protocol.">
<polygon fill="white" stroke="black" points="19.33,-112.5 19.33,-131.5 147.33,-131.5 147.33,-112.5 19.33,-112.5"/>
<text text-anchor="middle" x="83.33" y="-119.5" font-family="Helvetica,sans-Serif" font-size="10.00">301/CO_HBconsumer.h</text>
</a>
</g>
</g>
<!-- Node1&#45;&gt;Node3 -->
<g id="edge2" class="edge">
<title>Node1&#45;&gt;Node3</title>
<path fill="none" stroke="midnightblue" d="M315.1,-221.9C284.33,-213.91 243.29,-202.08 208.33,-188 166.58,-171.19 120.27,-144.97 97.53,-131.54"/>
<polygon fill="midnightblue" stroke="midnightblue" points="314.56,-225.37 325.11,-224.46 316.29,-218.59 314.56,-225.37"/>
</g>
<!-- Node4 -->
<g id="node4" class="node">
<title>Node4</title>
<g id="a_node4"><a xlink:href="CO__NMT__Heartbeat_8h.html" target="_top" xlink:title="CANopen Network management and Heartbeat producer protocol.">
<polygon fill="white" stroke="black" points="217.83,-168.5 217.83,-187.5 360.83,-187.5 360.83,-168.5 217.83,-168.5"/>
<text text-anchor="middle" x="289.33" y="-175.5" font-family="Helvetica,sans-Serif" font-size="10.00">301/CO_NMT_Heartbeat.h</text>
</a>
</g>
</g>
<!-- Node1&#45;&gt;Node4 -->
<g id="edge4" class="edge">
<title>Node1&#45;&gt;Node4</title>
<path fill="none" stroke="midnightblue" d="M341.47,-218.1C328.51,-208.38 312.03,-196.03 301.11,-187.83"/>
<polygon fill="midnightblue" stroke="midnightblue" points="339.66,-221.12 349.76,-224.32 343.86,-215.52 339.66,-221.12"/>
</g>
<!-- Node8 -->
<g id="node8" class="node">
<title>Node8</title>
<g id="a_node8"><a xlink:href="CO__SRDO_8h.html" target="_top" xlink:title="CANopen Safety Related Data Object protocol.">
<polygon fill="white" stroke="black" points="400.33,-112.5 400.33,-131.5 494.33,-131.5 494.33,-112.5 400.33,-112.5"/>
<text text-anchor="middle" x="447.33" y="-119.5" font-family="Helvetica,sans-Serif" font-size="10.00">304/CO_SRDO.h</text>
</a>
</g>
</g>
<!-- Node1&#45;&gt;Node8 -->
<g id="edge22" class="edge">
<title>Node1&#45;&gt;Node8</title>
<path fill="none" stroke="midnightblue" d="M374.41,-216.27C393,-192.49 426.39,-149.79 440.62,-131.59"/>
<polygon fill="midnightblue" stroke="midnightblue" points="371.48,-214.33 368.08,-224.37 377,-218.65 371.48,-214.33"/>
</g>
<!-- Node10 -->
<g id="node10" class="node">
<title>Node10</title>
<g id="a_node10"><a xlink:href="CO__PDO_8h.html" target="_top" xlink:title="CANopen Process Data Object protocol.">
<polygon fill="white" stroke="black" points="521.83,-112.5 521.83,-131.5 608.83,-131.5 608.83,-112.5 521.83,-112.5"/>
<text text-anchor="middle" x="565.33" y="-119.5" font-family="Helvetica,sans-Serif" font-size="10.00">301/CO_PDO.h</text>
</a>
</g>
</g>
<!-- Node1&#45;&gt;Node10 -->
<g id="edge17" class="edge">
<title>Node1&#45;&gt;Node10</title>
<path fill="none" stroke="midnightblue" d="M386.2,-219.59C428.67,-196.69 514.02,-150.67 549.4,-131.59"/>
<polygon fill="midnightblue" stroke="midnightblue" points="384.48,-216.54 377.34,-224.37 387.8,-222.7 384.48,-216.54"/>
</g>
<!-- Node11 -->
<g id="node11" class="node">
<title>Node11</title>
<g id="a_node11"><a xlink:href="CO__SYNC_8h.html" target="_top" xlink:title="CANopen Synchronisation protocol.">
<polygon fill="white" stroke="black" points="519.33,-168.5 519.33,-187.5 611.33,-187.5 611.33,-168.5 519.33,-168.5"/>
<text text-anchor="middle" x="565.33" y="-175.5" font-family="Helvetica,sans-Serif" font-size="10.00">301/CO_SYNC.h</text>
</a>
</g>
</g>
<!-- Node1&#45;&gt;Node11 -->
<g id="edge19" class="edge">
<title>Node1&#45;&gt;Node11</title>
<path fill="none" stroke="midnightblue" d="M403.53,-221.83C442.05,-211.63 498.15,-196.78 533.16,-187.52"/>
<polygon fill="midnightblue" stroke="midnightblue" points="402.43,-218.5 393.66,-224.44 404.22,-225.27 402.43,-218.5"/>
</g>
<!-- Node3&#45;&gt;Node2 -->
<g id="edge3" class="edge">
<title>Node3&#45;&gt;Node2</title>
<path fill="none" stroke="midnightblue" d="M85.32,-102.15C87.83,-87.61 93.51,-68.01 106.33,-56 140.25,-24.25 194.79,-14.64 230.6,-11.87"/>
<polygon fill="midnightblue" stroke="midnightblue" points="81.79,-102.11 83.9,-112.49 88.73,-103.06 81.79,-102.11"/>
</g>
<!-- Node4&#45;&gt;Node2 -->
<g id="edge5" class="edge">
<title>Node4&#45;&gt;Node2</title>
<path fill="none" stroke="midnightblue" d="M253.38,-164.64C216.92,-149.92 162.65,-121.45 139.33,-76 119.49,-37.32 186.54,-21.13 230.67,-14.77"/>
<polygon fill="midnightblue" stroke="midnightblue" points="252.56,-168.08 263.15,-168.43 255.09,-161.55 252.56,-168.08"/>
</g>
<!-- Node4&#45;&gt;Node3 -->
<g id="edge6" class="edge">
<title>Node4&#45;&gt;Node3</title>
<path fill="none" stroke="midnightblue" d="M246.72,-165.83C207.82,-155.63 151.17,-140.78 115.82,-131.52"/>
<polygon fill="midnightblue" stroke="midnightblue" points="246.13,-169.29 256.69,-168.44 247.91,-162.52 246.13,-169.29"/>
</g>
<!-- Node5 -->
<g id="node5" class="node">
<title>Node5</title>
<g id="a_node5"><a xlink:href="CO__TIME_8h.html" target="_top" xlink:title="CANopen Time&#45;stamp protocol.">
<polygon fill="white" stroke="black" points="148.33,-56.5 148.33,-75.5 238.33,-75.5 238.33,-56.5 148.33,-56.5"/>
<text text-anchor="middle" x="193.33" y="-63.5" font-family="Helvetica,sans-Serif" font-size="10.00">301/CO_TIME.h</text>
</a>
</g>
</g>
<!-- Node4&#45;&gt;Node5 -->
<g id="edge7" class="edge">
<title>Node4&#45;&gt;Node5</title>
<path fill="none" stroke="midnightblue" d="M268.52,-162.05C257.9,-153.87 245.19,-143.13 235.33,-132 219.12,-113.69 204.73,-88.56 197.77,-75.57"/>
<polygon fill="midnightblue" stroke="midnightblue" points="266.73,-165.09 276.83,-168.29 270.93,-159.49 266.73,-165.09"/>
</g>
<!-- Node6 -->
<g id="node6" class="node">
<title>Node6</title>
<g id="a_node6"><a xlink:href="CO__LEDs_8h.html" target="_top" xlink:title="CANopen Indicator specification (CiA 303&#45;3 v1.4.0)">
<polygon fill="white" stroke="black" points="244.33,-112.5 244.33,-131.5 334.33,-131.5 334.33,-112.5 244.33,-112.5"/>
<text text-anchor="middle" x="289.33" y="-119.5" font-family="Helvetica,sans-Serif" font-size="10.00">303/CO_LEDs.h</text>
</a>
</g>
</g>
<!-- Node4&#45;&gt;Node6 -->
<g id="edge9" class="edge">
<title>Node4&#45;&gt;Node6</title>
<path fill="none" stroke="midnightblue" d="M289.33,-157.8C289.33,-148.91 289.33,-138.78 289.33,-131.75"/>
<polygon fill="midnightblue" stroke="midnightblue" points="285.83,-158.08 289.33,-168.08 292.83,-158.08 285.83,-158.08"/>
</g>
<!-- Node7 -->
<g id="node7" class="node">
<title>Node7</title>
<g id="a_node7"><a xlink:href="CO__gateway__ascii_8h.html" target="_top" xlink:title="CANopen access from other networks &#45; ASCII mapping (CiA 309&#45;3 DS v3.0.0)">
<polygon fill="white" stroke="black" points="294.33,-56.5 294.33,-75.5 430.33,-75.5 430.33,-56.5 294.33,-56.5"/>
<text text-anchor="middle" x="362.33" y="-63.5" font-family="Helvetica,sans-Serif" font-size="10.00">309/CO_gateway_ascii.h</text>
</a>
</g>
</g>
<!-- Node4&#45;&gt;Node7 -->
<g id="edge16" class="edge">
<title>Node4&#45;&gt;Node7</title>
<path fill="none" stroke="midnightblue" d="M312.08,-162.75C322.95,-154.89 335.31,-144.24 343.33,-132 355.06,-114.1 359.72,-88.8 361.43,-75.67"/>
<polygon fill="midnightblue" stroke="midnightblue" points="310.06,-159.89 303.79,-168.44 314.02,-165.67 310.06,-159.89"/>
</g>
<!-- Node4&#45;&gt;Node8 -->
<g id="edge13" class="edge">
<title>Node4&#45;&gt;Node8</title>
<path fill="none" stroke="midnightblue" d="M323.94,-165.17C353.69,-155 395.88,-140.59 422.41,-131.52"/>
<polygon fill="midnightblue" stroke="midnightblue" points="322.7,-161.9 314.37,-168.44 324.96,-168.52 322.7,-161.9"/>
</g>
<!-- Node5&#45;&gt;Node2 -->
<g id="edge8" class="edge">
<title>Node5&#45;&gt;Node2</title>
<path fill="none" stroke="midnightblue" d="M213.47,-50.1C226.61,-40.38 243.31,-28.03 254.39,-19.83"/>
<polygon fill="midnightblue" stroke="midnightblue" points="211.02,-47.56 205.06,-56.32 215.18,-53.19 211.02,-47.56"/>
</g>
<!-- Node6&#45;&gt;Node2 -->
<g id="edge10" class="edge">
<title>Node6&#45;&gt;Node2</title>
<path fill="none" stroke="midnightblue" d="M285.43,-102.35C280.39,-78.25 271.83,-37.31 268.13,-19.59"/>
<polygon fill="midnightblue" stroke="midnightblue" points="282.05,-103.3 287.53,-112.37 288.91,-101.86 282.05,-103.3"/>
</g>
<!-- Node6&#45;&gt;Node7 -->
<g id="edge11" class="edge">
<title>Node6&#45;&gt;Node7</title>
<path fill="none" stroke="midnightblue" d="M309.47,-106.1C322.61,-96.38 339.31,-84.03 350.39,-75.83"/>
<polygon fill="midnightblue" stroke="midnightblue" points="307.02,-103.56 301.06,-112.32 311.18,-109.19 307.02,-103.56"/>
</g>
<!-- Node7&#45;&gt;Node2 -->
<g id="edge12" class="edge">
<title>Node7&#45;&gt;Node2</title>
<path fill="none" stroke="midnightblue" d="M337.76,-51.18C320.09,-41.24 296.82,-28.15 281.72,-19.65"/>
<polygon fill="midnightblue" stroke="midnightblue" points="336.48,-54.47 346.91,-56.32 339.91,-48.37 336.48,-54.47"/>
</g>
<!-- Node8&#45;&gt;Node2 -->
<g id="edge14" class="edge">
<title>Node8&#45;&gt;Node2</title>
<path fill="none" stroke="midnightblue" d="M450.25,-101.99C451.32,-87.66 450.21,-68.42 439.33,-56 421.44,-35.57 347.17,-22.05 301.96,-15.53"/>
<polygon fill="midnightblue" stroke="midnightblue" points="446.74,-101.86 449.06,-112.2 453.69,-102.67 446.74,-101.86"/>
</g>
<!-- Node9 -->
<g id="node9" class="node">
<title>Node9</title>
<g id="a_node9"><a xlink:href="CO__SRDO_8c.html" target="_top" xlink:title="CANopen Safety Related Data Object protocol.">
<polygon fill="white" stroke="black" points="486.83,-56.5 486.83,-75.5 579.83,-75.5 579.83,-56.5 486.83,-56.5"/>
<text text-anchor="middle" x="533.33" y="-63.5" font-family="Helvetica,sans-Serif" font-size="10.00">304/CO_SRDO.c</text>
</a>
</g>
</g>
<!-- Node8&#45;&gt;Node9 -->
<g id="edge15" class="edge">
<title>Node8&#45;&gt;Node9</title>
<path fill="none" stroke="midnightblue" d="M469.79,-106.9C485.56,-97 506.15,-84.07 519.55,-75.65"/>
<polygon fill="midnightblue" stroke="midnightblue" points="467.76,-104.04 461.15,-112.32 471.48,-109.97 467.76,-104.04"/>
</g>
<!-- Node10&#45;&gt;Node2 -->
<g id="edge18" class="edge">
<title>Node10&#45;&gt;Node2</title>
<path fill="none" stroke="midnightblue" d="M579.47,-104.44C589.88,-90.17 600.3,-69.76 588.33,-56 551.52,-13.68 377.78,-9.95 301.92,-10.4"/>
<polygon fill="midnightblue" stroke="midnightblue" points="576.63,-102.39 573.2,-112.41 582.13,-106.72 576.63,-102.39"/>
</g>
<!-- Node11&#45;&gt;Node2 -->
<g id="edge20" class="edge">
<title>Node11&#45;&gt;Node2</title>
<path fill="none" stroke="midnightblue" d="M589.7,-162.73C600.28,-155.09 611.55,-144.64 617.33,-132 626.58,-111.77 613.95,-63.96 605.33,-56 561.78,-15.76 379.8,-10.92 301.93,-10.74"/>
<polygon fill="midnightblue" stroke="midnightblue" points="587.48,-160 581.12,-168.47 591.37,-165.82 587.48,-160"/>
</g>
<!-- Node11&#45;&gt;Node10 -->
<g id="edge21" class="edge">
<title>Node11&#45;&gt;Node10</title>
<path fill="none" stroke="midnightblue" d="M565.33,-157.8C565.33,-148.91 565.33,-138.78 565.33,-131.75"/>
<polygon fill="midnightblue" stroke="midnightblue" points="561.83,-158.08 565.33,-168.08 568.83,-158.08 561.83,-158.08"/>
</g>
</g>
</svg>
        <g id="navigator" transform="translate(0 0)" fill="#404254">
                <rect fill="#f2f5e9" fill-opacity="0.5" stroke="#606060" stroke-width=".5" x="0" y="0" width="60" height="60"/>
                <use id="zoomplus" xlink:href="#zoomPlus" x="17" y="9" onmousedown="handleZoom(evt,'in')"/>
                <use id="zoomminus" xlink:href="#zoomMin" x="42" y="9" onmousedown="handleZoom(evt,'out')"/>
                <use id="reset" xlink:href="#resetDef" x="30" y="36" onmousedown="handleReset()"/>
                <g id="arrowUp" xlink:href="#dirArrow" transform="translate(30 24)" onmousedown="handlePan(0,-1)">
                  <use xlink:href="#rim" fill="#404040">
                        <set attributeName="fill" to="#808080" begin="arrowUp.mouseover" end="arrowUp.mouseout"/>
                  </use>
                  <path fill="none" stroke="white" stroke-width="1.5" d="M0,-3.0v7 M-2.5,-0.5L0,-3.0L2.5,-0.5"/>
                </g>
                <g id="arrowRight" xlink:href="#dirArrow" transform="rotate(90) translate(36 -43)" onmousedown="handlePan(1,0)">
                  <use xlink:href="#rim" fill="#404040">
                        <set attributeName="fill" to="#808080" begin="arrowRight.mouseover" end="arrowRight.mouseout"/>
                  </use>
                  <path fill="none" stroke="white" stroke-width="1.5" d="M0,-3.0v7 M-2.5,-0.5L0,-3.0L2.5,-0.5"/>
                </g>
                <g id="arrowDown" xlink:href="#dirArrow" transform="rotate(180) translate(-30 -48)" onmousedown="handlePan(0,1)">
                  <use xlink:href="#rim" fill="#404040">
                        <set attributeName="fill" to="#808080" begin="arrowDown.mouseover" end="arrowDown.mouseout"/>
                  </use>
                  <path fill="none" stroke="white" stroke-width="1.5" d="M0,-3.0v7 M-2.5,-0.5L0,-3.0L2.5,-0.5"/>
                </g>
                <g id="arrowLeft" xlink:href="#dirArrow" transform="rotate(270) translate(-36 17)" onmousedown="handlePan(-1,0)">
                  <use xlink:href="#rim" fill="#404040">
                        <set attributeName="fill" to="#808080" begin="arrowLeft.mouseover" end="arrowLeft.mouseout"/>
                  </use>
                  <path fill="none" stroke="white" stroke-width="1.5" d="M0,-3.0v7 M-2.5,-0.5L0,-3.0L2.5,-0.5"/>
                </g>
        </g>
        <svg viewBox="0 0 15 15" width="100%" height="30px" preserveAspectRatio="xMaxYMin meet">
         <g id="arrow_out" transform="scale(0.3 0.3)">
          <a xlink:href="CO__Emergency_8h__dep__incl_org.svg" target="_base">
           <rect id="button" ry="5" rx="5" y="6" x="6" height="38" width="38"
                fill="#f2f5e9" fill-opacity="0.5" stroke="#606060" stroke-width="1.0"/>
           <path id="arrow"
             d="M 11.500037,31.436501 C 11.940474,20.09759 22.043105,11.32322 32.158766,21.979434 L 37.068811,17.246167 C 37.068811,17.246167 37.088388,32 37.088388,32 L 22.160133,31.978069 C 22.160133,31.978069 26.997745,27.140456 26.997745,27.140456 C 18.528582,18.264221 13.291696,25.230495 11.500037,31.436501 z"
             style="fill:#404040;"/>
          </a>
         </g>
        </svg>
</svg>
