<?xml version="1.0" encoding="UTF-8" standalone="no"?>
<!DOCTYPE svg PUBLIC "-//W3C//DTD SVG 1.1//EN"
 "http://www.w3.org/Graphics/SVG/1.1/DTD/svg11.dtd">
<!-- Generated by graphviz version 2.43.0 (0)
 -->
<!-- Title: 305/CO_LSS.h Pages: 1 -->
<svg width="284pt" height="196pt"
 viewBox="0.00 0.00 284.47 196.00" xmlns="http://www.w3.org/2000/svg" xmlns:xlink="http://www.w3.org/1999/xlink">
<g id="graph0" class="graph" transform="scale(1 1) rotate(0) translate(4 192)">
<title>305/CO_LSS.h</title>
<polygon fill="white" stroke="transparent" points="-4,4 -4,-192 280.47,-192 280.47,4 -4,4"/>
<!-- Node1 -->
<g id="node1" class="node">
<title>Node1</title>
<g id="a_node1"><a xlink:title="CANopen Layer Setting Services protocol (common).">
<polygon fill="#bfbfbf" stroke="black" points="95.97,-168.5 95.97,-187.5 178.97,-187.5 178.97,-168.5 95.97,-168.5"/>
<text text-anchor="middle" x="137.47" y="-175.5" font-family="Helvetica,sans-Serif" font-size="10.00">305/CO_LSS.h</text>
</a>
</g>
</g>
<!-- Node2 -->
<g id="node2" class="node">
<title>Node2</title>
<g id="a_node2"><a xlink:href="CO__LSSmaster_8h.html" target="_top" xlink:title="CANopen Layer Setting Service &#45; master protocol.">
<polygon fill="white" stroke="black" points="21.47,-112.5 21.47,-131.5 139.47,-131.5 139.47,-112.5 21.47,-112.5"/>
<text text-anchor="middle" x="80.47" y="-119.5" font-family="Helvetica,sans-Serif" font-size="10.00">305/CO_LSSmaster.h</text>
</a>
</g>
</g>
<!-- Node1&#45;&gt;Node2 -->
<g id="edge1" class="edge">
<title>Node1&#45;&gt;Node2</title>
<path fill="none" stroke="midnightblue" d="M120.84,-161.25C110.73,-151.67 98.19,-139.79 89.79,-131.83"/>
<polygon fill="midnightblue" stroke="midnightblue" points="118.64,-163.99 128.31,-168.32 123.46,-158.91 118.64,-163.99"/>
</g>
<!-- Node5 -->
<g id="node5" class="node">
<title>Node5</title>
<g id="a_node5"><a xlink:href="CO__LSSslave_8h.html" target="_top" xlink:title="CANopen Layer Setting Service &#45; slave protocol.">
<polygon fill="white" stroke="black" points="166.47,-56.5 166.47,-75.5 276.47,-75.5 276.47,-56.5 166.47,-56.5"/>
<text text-anchor="middle" x="221.47" y="-63.5" font-family="Helvetica,sans-Serif" font-size="10.00">305/CO_LSSslave.h</text>
</a>
</g>
</g>
<!-- Node1&#45;&gt;Node5 -->
<g id="edge5" class="edge">
<title>Node1&#45;&gt;Node5</title>
<path fill="none" stroke="midnightblue" d="M150.24,-160.27C168.4,-136.49 201.01,-93.79 214.91,-75.59"/>
<polygon fill="midnightblue" stroke="midnightblue" points="147.35,-158.3 144.06,-168.37 152.91,-162.54 147.35,-158.3"/>
</g>
<!-- Node3 -->
<g id="node3" class="node">
<title>Node3</title>
<g id="a_node3"><a xlink:href="CANopen_8h.html" target="_top" xlink:title="Main CANopenNode file.">
<polygon fill="white" stroke="black" points="44.97,-0.5 44.97,-19.5 115.97,-19.5 115.97,-0.5 44.97,-0.5"/>
<text text-anchor="middle" x="80.47" y="-7.5" font-family="Helvetica,sans-Serif" font-size="10.00">CANopen.h</text>
</a>
</g>
</g>
<!-- Node2&#45;&gt;Node3 -->
<g id="edge2" class="edge">
<title>Node2&#45;&gt;Node3</title>
<path fill="none" stroke="midnightblue" d="M42.9,-108.54C27.86,-101.5 12.08,-91.01 3.47,-76 -11.25,-50.36 27.02,-30.24 54.73,-19.53"/>
<polygon fill="midnightblue" stroke="midnightblue" points="41.52,-111.76 52.09,-112.49 44.29,-105.33 41.52,-111.76"/>
</g>
<!-- Node4 -->
<g id="node4" class="node">
<title>Node4</title>
<g id="a_node4"><a xlink:href="CO__gateway__ascii_8h.html" target="_top" xlink:title="CANopen access from other networks &#45; ASCII mapping (CiA 309&#45;3 DS v3.0.0)">
<polygon fill="white" stroke="black" points="12.47,-56.5 12.47,-75.5 148.47,-75.5 148.47,-56.5 12.47,-56.5"/>
<text text-anchor="middle" x="80.47" y="-63.5" font-family="Helvetica,sans-Serif" font-size="10.00">309/CO_gateway_ascii.h</text>
</a>
</g>
</g>
<!-- Node2&#45;&gt;Node4 -->
<g id="edge3" class="edge">
<title>Node2&#45;&gt;Node4</title>
<path fill="none" stroke="midnightblue" d="M80.47,-101.8C80.47,-92.91 80.47,-82.78 80.47,-75.75"/>
<polygon fill="midnightblue" stroke="midnightblue" points="76.97,-102.08 80.47,-112.08 83.97,-102.08 76.97,-102.08"/>
</g>
<!-- Node4&#45;&gt;Node3 -->
<g id="edge4" class="edge">
<title>Node4&#45;&gt;Node3</title>
<path fill="none" stroke="midnightblue" d="M80.47,-45.8C80.47,-36.91 80.47,-26.78 80.47,-19.75"/>
<polygon fill="midnightblue" stroke="midnightblue" points="76.97,-46.08 80.47,-56.08 83.97,-46.08 76.97,-46.08"/>
</g>
<!-- Node5&#45;&gt;Node3 -->
<g id="edge6" class="edge">
<title>Node5&#45;&gt;Node3</title>
<path fill="none" stroke="midnightblue" d="M189.54,-52.77C163.05,-42.63 126.07,-28.47 102.7,-19.52"/>
<polygon fill="midnightblue" stroke="midnightblue" points="188.53,-56.14 199.12,-56.44 191.04,-49.6 188.53,-56.14"/>
</g>
</g>
</svg>
