<?xml version="1.0" encoding="UTF-8" standalone="no"?>
<!DOCTYPE svg PUBLIC "-//W3C//DTD SVG 1.1//EN"
 "http://www.w3.org/Graphics/SVG/1.1/DTD/svg11.dtd">
<!-- Generated by graphviz version 2.43.0 (0)
 -->
<!-- Title: 301/CO_SDOserver.h Pages: 1 -->
<svg width="438pt" height="196pt"
 viewBox="0.00 0.00 438.22 196.00" xmlns="http://www.w3.org/2000/svg" xmlns:xlink="http://www.w3.org/1999/xlink">
<g id="graph0" class="graph" transform="scale(1 1) rotate(0) translate(4 192)">
<title>301/CO_SDOserver.h</title>
<polygon fill="white" stroke="transparent" points="-4,4 -4,-192 434.22,-192 434.22,4 -4,4"/>
<!-- Node1 -->
<g id="node1" class="node">
<title>Node1</title>
<g id="a_node1"><a xlink:title="CANopen Service Data Object &#45; server protocol.">
<polygon fill="#bfbfbf" stroke="black" points="85.22,-168.5 85.22,-187.5 203.22,-187.5 203.22,-168.5 85.22,-168.5"/>
<text text-anchor="middle" x="144.22" y="-175.5" font-family="Helvetica,sans-Serif" font-size="10.00">301/CO_SDOserver.h</text>
</a>
</g>
</g>
<!-- Node2 -->
<g id="node2" class="node">
<title>Node2</title>
<g id="a_node2"><a xlink:href="CANopen_8h.html" target="_top" xlink:title="Main CANopenNode file.">
<polygon fill="white" stroke="black" points="60.72,-0.5 60.72,-19.5 131.72,-19.5 131.72,-0.5 60.72,-0.5"/>
<text text-anchor="middle" x="96.22" y="-7.5" font-family="Helvetica,sans-Serif" font-size="10.00">CANopen.h</text>
</a>
</g>
</g>
<!-- Node1&#45;&gt;Node2 -->
<g id="edge1" class="edge">
<title>Node1&#45;&gt;Node2</title>
<path fill="none" stroke="midnightblue" d="M75.43,-167.61C53.56,-161.15 31.39,-150.28 17.22,-132 -3.53,-105.25 -5.17,-85.04 12.22,-56 23.26,-37.55 44.75,-26.23 63.23,-19.56"/>
<polygon fill="midnightblue" stroke="midnightblue" points="74.53,-170.99 85.1,-170.19 76.34,-164.23 74.53,-170.99"/>
</g>
<!-- Node3 -->
<g id="node3" class="node">
<title>Node3</title>
<g id="a_node3"><a xlink:href="CO__SDOclient_8h.html" target="_top" xlink:title="CANopen Service Data Object &#45; client protocol.">
<polygon fill="white" stroke="black" points="26.22,-112.5 26.22,-131.5 140.22,-131.5 140.22,-112.5 26.22,-112.5"/>
<text text-anchor="middle" x="83.22" y="-119.5" font-family="Helvetica,sans-Serif" font-size="10.00">301/CO_SDOclient.h</text>
</a>
</g>
</g>
<!-- Node1&#45;&gt;Node3 -->
<g id="edge2" class="edge">
<title>Node1&#45;&gt;Node3</title>
<path fill="none" stroke="midnightblue" d="M126.75,-161.54C115.87,-151.91 102.27,-139.87 93.19,-131.83"/>
<polygon fill="midnightblue" stroke="midnightblue" points="124.61,-164.32 134.42,-168.32 129.25,-159.07 124.61,-164.32"/>
</g>
<!-- Node5 -->
<g id="node5" class="node">
<title>Node5</title>
<g id="a_node5"><a xlink:href="CO__SRDO_8h.html" target="_top" xlink:title="CANopen Safety Related Data Object protocol.">
<polygon fill="white" stroke="black" points="158.22,-112.5 158.22,-131.5 252.22,-131.5 252.22,-112.5 158.22,-112.5"/>
<text text-anchor="middle" x="205.22" y="-119.5" font-family="Helvetica,sans-Serif" font-size="10.00">304/CO_SRDO.h</text>
</a>
</g>
</g>
<!-- Node1&#45;&gt;Node5 -->
<g id="edge6" class="edge">
<title>Node1&#45;&gt;Node5</title>
<path fill="none" stroke="midnightblue" d="M161.68,-161.54C172.56,-151.91 186.16,-139.87 195.24,-131.83"/>
<polygon fill="midnightblue" stroke="midnightblue" points="159.18,-159.07 154.02,-168.32 163.82,-164.32 159.18,-159.07"/>
</g>
<!-- Node7 -->
<g id="node7" class="node">
<title>Node7</title>
<g id="a_node7"><a xlink:href="CO__trace_8h.html" target="_top" xlink:title="CANopen trace object for recording variables over time.">
<polygon fill="white" stroke="black" points="332.22,-56.5 332.22,-75.5 430.22,-75.5 430.22,-56.5 332.22,-56.5"/>
<text text-anchor="middle" x="381.22" y="-63.5" font-family="Helvetica,sans-Serif" font-size="10.00">extra/CO_trace.h</text>
</a>
</g>
</g>
<!-- Node1&#45;&gt;Node7 -->
<g id="edge9" class="edge">
<title>Node1&#45;&gt;Node7</title>
<path fill="none" stroke="midnightblue" d="M178.81,-165.03C202.36,-156.55 234.06,-144.51 261.22,-132 300.38,-113.95 344.51,-88.71 366.75,-75.63"/>
<polygon fill="midnightblue" stroke="midnightblue" points="177.5,-161.78 169.25,-168.43 179.85,-168.37 177.5,-161.78"/>
</g>
<!-- Node3&#45;&gt;Node2 -->
<g id="edge3" class="edge">
<title>Node3&#45;&gt;Node2</title>
<path fill="none" stroke="midnightblue" d="M53.91,-107.72C31.84,-95.72 7.28,-76.79 19.22,-56 29.62,-37.87 50.46,-26.35 67.84,-19.51"/>
<polygon fill="midnightblue" stroke="midnightblue" points="52.6,-110.99 63.1,-112.43 55.79,-104.75 52.6,-110.99"/>
</g>
<!-- Node4 -->
<g id="node4" class="node">
<title>Node4</title>
<g id="a_node4"><a xlink:href="CO__gateway__ascii_8h.html" target="_top" xlink:title="CANopen access from other networks &#45; ASCII mapping (CiA 309&#45;3 DS v3.0.0)">
<polygon fill="white" stroke="black" points="28.22,-56.5 28.22,-75.5 164.22,-75.5 164.22,-56.5 28.22,-56.5"/>
<text text-anchor="middle" x="96.22" y="-63.5" font-family="Helvetica,sans-Serif" font-size="10.00">309/CO_gateway_ascii.h</text>
</a>
</g>
</g>
<!-- Node3&#45;&gt;Node4 -->
<g id="edge4" class="edge">
<title>Node3&#45;&gt;Node4</title>
<path fill="none" stroke="midnightblue" d="M87.77,-102.1C89.92,-93.14 92.4,-82.86 94.11,-75.75"/>
<polygon fill="midnightblue" stroke="midnightblue" points="84.3,-101.54 85.36,-112.08 91.11,-103.18 84.3,-101.54"/>
</g>
<!-- Node4&#45;&gt;Node2 -->
<g id="edge5" class="edge">
<title>Node4&#45;&gt;Node2</title>
<path fill="none" stroke="midnightblue" d="M96.22,-45.8C96.22,-36.91 96.22,-26.78 96.22,-19.75"/>
<polygon fill="midnightblue" stroke="midnightblue" points="92.72,-46.08 96.22,-56.08 99.72,-46.08 92.72,-46.08"/>
</g>
<!-- Node5&#45;&gt;Node2 -->
<g id="edge7" class="edge">
<title>Node5&#45;&gt;Node2</title>
<path fill="none" stroke="midnightblue" d="M199.57,-102.94C194.45,-88.86 185.78,-69.5 173.22,-56 157.81,-39.45 134.93,-27.14 118.12,-19.62"/>
<polygon fill="midnightblue" stroke="midnightblue" points="196.27,-104.13 202.79,-112.49 202.91,-101.89 196.27,-104.13"/>
</g>
<!-- Node6 -->
<g id="node6" class="node">
<title>Node6</title>
<g id="a_node6"><a xlink:href="CO__SRDO_8c.html" target="_top" xlink:title="CANopen Safety Related Data Object protocol.">
<polygon fill="white" stroke="black" points="220.72,-56.5 220.72,-75.5 313.72,-75.5 313.72,-56.5 220.72,-56.5"/>
<text text-anchor="middle" x="267.22" y="-63.5" font-family="Helvetica,sans-Serif" font-size="10.00">304/CO_SRDO.c</text>
</a>
</g>
</g>
<!-- Node5&#45;&gt;Node6 -->
<g id="edge8" class="edge">
<title>Node5&#45;&gt;Node6</title>
<path fill="none" stroke="midnightblue" d="M222.97,-105.54C234.02,-95.91 247.85,-83.87 257.07,-75.83"/>
<polygon fill="midnightblue" stroke="midnightblue" points="220.42,-103.12 215.18,-112.32 225.02,-108.4 220.42,-103.12"/>
</g>
<!-- Node7&#45;&gt;Node2 -->
<g id="edge10" class="edge">
<title>Node7&#45;&gt;Node2</title>
<path fill="none" stroke="midnightblue" d="M326.09,-54.56C268.86,-43.71 181,-27.06 132.14,-17.81"/>
<polygon fill="midnightblue" stroke="midnightblue" points="325.58,-58.02 336.06,-56.44 326.88,-51.14 325.58,-58.02"/>
</g>
</g>
</svg>
