<?xml version="1.0" encoding="UTF-8" standalone="no"?>
<!DOCTYPE svg PUBLIC "-//W3C//DTD SVG 1.1//EN"
 "http://www.w3.org/Graphics/SVG/1.1/DTD/svg11.dtd">
<!-- Generated by graphviz version 2.43.0 (0)
 -->
<!-- Title: 309/CO_gateway_ascii.h Pages: 1 -->
<svg width="686pt" height="364pt"
 viewBox="0.00 0.00 685.50 364.00" xmlns="http://www.w3.org/2000/svg" xmlns:xlink="http://www.w3.org/1999/xlink">
<g id="graph0" class="graph" transform="scale(1 1) rotate(0) translate(4 360)">
<title>309/CO_gateway_ascii.h</title>
<polygon fill="white" stroke="transparent" points="-4,4 -4,-360 681.5,-360 681.5,4 -4,4"/>
<!-- Node1 -->
<g id="node1" class="node">
<title>Node1</title>
<g id="a_node1"><a xlink:title="CANopen access from other networks &#45; ASCII mapping (CiA 309&#45;3 DS v3.0.0)">
<polygon fill="#bfbfbf" stroke="black" points="221,-336.5 221,-355.5 357,-355.5 357,-336.5 221,-336.5"/>
<text text-anchor="middle" x="289" y="-343.5" font-family="Helvetica,sans-Serif" font-size="10.00">309/CO_gateway_ascii.h</text>
</a>
</g>
</g>
<!-- Node2 -->
<g id="node2" class="node">
<title>Node2</title>
<g id="a_node2"><a xlink:href="CO__driver_8h.html" target="_top" xlink:title="Interface between CAN hardware and CANopenNode.">
<polygon fill="white" stroke="black" points="289.5,-56.5 289.5,-75.5 384.5,-75.5 384.5,-56.5 289.5,-56.5"/>
<text text-anchor="middle" x="337" y="-63.5" font-family="Helvetica,sans-Serif" font-size="10.00">301/CO_driver.h</text>
</a>
</g>
</g>
<!-- Node1&#45;&gt;Node2 -->
<g id="edge1" class="edge">
<title>Node1&#45;&gt;Node2</title>
<path fill="none" stroke="midnightblue" d="M238.33,-336.46C155.45,-321.04 0,-285.4 0,-235 0,-235 0,-235 0,-177 0,-118.95 182.96,-86.73 279.26,-73.79"/>
<polygon fill="midnightblue" stroke="midnightblue" points="279.97,-77.22 289.43,-72.45 279.06,-70.28 279.97,-77.22"/>
</g>
<!-- Node6 -->
<g id="node6" class="node">
<title>Node6</title>
<g id="a_node6"><a xlink:href="CO__fifo_8h.html" target="_top" xlink:title="FIFO circular buffer.">
<polygon fill="white" stroke="black" points="28.5,-168.5 28.5,-187.5 111.5,-187.5 111.5,-168.5 28.5,-168.5"/>
<text text-anchor="middle" x="70" y="-175.5" font-family="Helvetica,sans-Serif" font-size="10.00">301/CO_fifo.h</text>
</a>
</g>
</g>
<!-- Node1&#45;&gt;Node6 -->
<g id="edge5" class="edge">
<title>Node1&#45;&gt;Node6</title>
<path fill="none" stroke="midnightblue" d="M277.53,-336.31C242.06,-309.42 133.79,-227.35 89.35,-193.67"/>
<polygon fill="midnightblue" stroke="midnightblue" points="91.44,-190.86 81.35,-187.61 87.21,-196.44 91.44,-190.86"/>
</g>
<!-- Node7 -->
<g id="node7" class="node">
<title>Node7</title>
<g id="a_node7"><a xlink:href="CO__SDOclient_8h.html" target="_top" xlink:title="CANopen Service Data Object &#45; client protocol.">
<polygon fill="white" stroke="black" points="170,-224.5 170,-243.5 284,-243.5 284,-224.5 170,-224.5"/>
<text text-anchor="middle" x="227" y="-231.5" font-family="Helvetica,sans-Serif" font-size="10.00">301/CO_SDOclient.h</text>
</a>
</g>
</g>
<!-- Node1&#45;&gt;Node7 -->
<g id="edge7" class="edge">
<title>Node1&#45;&gt;Node7</title>
<path fill="none" stroke="midnightblue" d="M284.13,-336.37C273.95,-318.3 250.21,-276.18 236.76,-252.31"/>
<polygon fill="midnightblue" stroke="midnightblue" points="239.8,-250.58 231.84,-243.59 233.7,-254.02 239.8,-250.58"/>
</g>
<!-- Node10 -->
<g id="node10" class="node">
<title>Node10</title>
<g id="a_node10"><a xlink:href="CO__NMT__Heartbeat_8h.html" target="_top" xlink:title="CANopen Network management and Heartbeat producer protocol.">
<polygon fill="white" stroke="black" points="335.5,-224.5 335.5,-243.5 478.5,-243.5 478.5,-224.5 335.5,-224.5"/>
<text text-anchor="middle" x="407" y="-231.5" font-family="Helvetica,sans-Serif" font-size="10.00">301/CO_NMT_Heartbeat.h</text>
</a>
</g>
</g>
<!-- Node1&#45;&gt;Node10 -->
<g id="edge15" class="edge">
<title>Node1&#45;&gt;Node10</title>
<path fill="none" stroke="midnightblue" d="M297.03,-336.32C308.91,-323.6 332.03,-299.3 353,-280 364.22,-269.67 377.36,-258.7 387.87,-250.18"/>
<polygon fill="midnightblue" stroke="midnightblue" points="390.37,-252.65 395.98,-243.66 385.99,-247.2 390.37,-252.65"/>
</g>
<!-- Node12 -->
<g id="node12" class="node">
<title>Node12</title>
<g id="a_node12"><a xlink:href="CO__LSSmaster_8h.html" target="_top" xlink:title="CANopen Layer Setting Service &#45; master protocol.">
<polygon fill="white" stroke="black" points="540,-280.5 540,-299.5 658,-299.5 658,-280.5 540,-280.5"/>
<text text-anchor="middle" x="599" y="-287.5" font-family="Helvetica,sans-Serif" font-size="10.00">305/CO_LSSmaster.h</text>
</a>
</g>
</g>
<!-- Node1&#45;&gt;Node12 -->
<g id="edge21" class="edge">
<title>Node1&#45;&gt;Node12</title>
<path fill="none" stroke="midnightblue" d="M338.12,-336.44C392.88,-326.9 481.41,-311.48 539.91,-301.29"/>
<polygon fill="midnightblue" stroke="midnightblue" points="540.86,-304.68 550.11,-299.52 539.66,-297.78 540.86,-304.68"/>
</g>
<!-- Node14 -->
<g id="node14" class="node">
<title>Node14</title>
<g id="a_node14"><a xlink:href="CO__LEDs_8h.html" target="_top" xlink:title="CANopen Indicator specification (CiA 303&#45;3 v1.4.0)">
<polygon fill="white" stroke="black" points="362,-280.5 362,-299.5 452,-299.5 452,-280.5 362,-280.5"/>
<text text-anchor="middle" x="407" y="-287.5" font-family="Helvetica,sans-Serif" font-size="10.00">303/CO_LEDs.h</text>
</a>
</g>
</g>
<!-- Node1&#45;&gt;Node14 -->
<g id="edge24" class="edge">
<title>Node1&#45;&gt;Node14</title>
<path fill="none" stroke="midnightblue" d="M307.7,-336.44C326.94,-327.64 357.15,-313.81 379.2,-303.72"/>
<polygon fill="midnightblue" stroke="midnightblue" points="380.75,-306.86 388.39,-299.52 377.84,-300.5 380.75,-306.86"/>
</g>
<!-- Node3 -->
<g id="node3" class="node">
<title>Node3</title>
<g id="a_node3"><a xlink:title=" ">
<polygon fill="white" stroke="#bfbfbf" points="228.5,-0.5 228.5,-19.5 281.5,-19.5 281.5,-0.5 228.5,-0.5"/>
<text text-anchor="middle" x="255" y="-7.5" font-family="Helvetica,sans-Serif" font-size="10.00">string.h</text>
</a>
</g>
</g>
<!-- Node2&#45;&gt;Node3 -->
<g id="edge2" class="edge">
<title>Node2&#45;&gt;Node3</title>
<path fill="none" stroke="midnightblue" d="M323.83,-56.32C311.15,-47.98 291.77,-35.21 276.79,-25.35"/>
<polygon fill="midnightblue" stroke="midnightblue" points="278.42,-22.23 268.14,-19.65 274.57,-28.08 278.42,-22.23"/>
</g>
<!-- Node4 -->
<g id="node4" class="node">
<title>Node4</title>
<g id="a_node4"><a xlink:href="CO__config_8h.html" target="_top" xlink:title="Configuration macros for CANopenNode.">
<polygon fill="white" stroke="black" points="299.5,-0.5 299.5,-19.5 374.5,-19.5 374.5,-0.5 299.5,-0.5"/>
<text text-anchor="middle" x="337" y="-7.5" font-family="Helvetica,sans-Serif" font-size="10.00">CO_config.h</text>
</a>
</g>
</g>
<!-- Node2&#45;&gt;Node4 -->
<g id="edge3" class="edge">
<title>Node2&#45;&gt;Node4</title>
<path fill="none" stroke="midnightblue" d="M337,-56.08C337,-49.01 337,-38.86 337,-29.99"/>
<polygon fill="midnightblue" stroke="midnightblue" points="340.5,-29.75 337,-19.75 333.5,-29.75 340.5,-29.75"/>
</g>
<!-- Node5 -->
<g id="node5" class="node">
<title>Node5</title>
<g id="a_node5"><a xlink:title=" ">
<polygon fill="white" stroke="#bfbfbf" points="393,-0.5 393,-19.5 501,-19.5 501,-0.5 393,-0.5"/>
<text text-anchor="middle" x="447" y="-7.5" font-family="Helvetica,sans-Serif" font-size="10.00">CO_driver_target.h</text>
</a>
</g>
</g>
<!-- Node2&#45;&gt;Node5 -->
<g id="edge4" class="edge">
<title>Node2&#45;&gt;Node5</title>
<path fill="none" stroke="midnightblue" d="M354.67,-56.32C372.39,-47.62 399.9,-34.12 420.29,-24.11"/>
<polygon fill="midnightblue" stroke="midnightblue" points="421.94,-27.2 429.37,-19.65 418.85,-20.92 421.94,-27.2"/>
</g>
<!-- Node6&#45;&gt;Node2 -->
<g id="edge6" class="edge">
<title>Node6&#45;&gt;Node2</title>
<path fill="none" stroke="midnightblue" d="M74.92,-168.25C83.4,-154.04 102.16,-126.12 126,-112 172.94,-84.19 234.77,-73.46 279.35,-69.37"/>
<polygon fill="midnightblue" stroke="midnightblue" points="279.76,-72.85 289.44,-68.54 279.18,-65.88 279.76,-72.85"/>
</g>
<!-- Node7&#45;&gt;Node2 -->
<g id="edge8" class="edge">
<title>Node7&#45;&gt;Node2</title>
<path fill="none" stroke="midnightblue" d="M205.06,-224.37C180.46,-213.28 145.62,-192.52 159,-168 185.84,-118.81 247.17,-91.89 290.3,-78.48"/>
<polygon fill="midnightblue" stroke="midnightblue" points="291.44,-81.79 300.03,-75.58 289.44,-75.08 291.44,-81.79"/>
</g>
<!-- Node7&#45;&gt;Node6 -->
<g id="edge14" class="edge">
<title>Node7&#45;&gt;Node6</title>
<path fill="none" stroke="midnightblue" d="M202.12,-224.44C175.71,-215.36 133.78,-200.94 104.26,-190.78"/>
<polygon fill="midnightblue" stroke="midnightblue" points="105.36,-187.46 94.76,-187.52 103.08,-194.08 105.36,-187.46"/>
</g>
<!-- Node8 -->
<g id="node8" class="node">
<title>Node8</title>
<g id="a_node8"><a xlink:href="CO__ODinterface_8h.html" target="_top" xlink:title="CANopen Object Dictionary interface.">
<polygon fill="white" stroke="black" points="274.5,-112.5 274.5,-131.5 399.5,-131.5 399.5,-112.5 274.5,-112.5"/>
<text text-anchor="middle" x="337" y="-119.5" font-family="Helvetica,sans-Serif" font-size="10.00">301/CO_ODinterface.h</text>
</a>
</g>
</g>
<!-- Node7&#45;&gt;Node8 -->
<g id="edge9" class="edge">
<title>Node7&#45;&gt;Node8</title>
<path fill="none" stroke="midnightblue" d="M243.77,-224.49C258.45,-216.47 279.77,-203.4 295,-188 308.84,-174.01 320.59,-154.75 328.11,-140.84"/>
<polygon fill="midnightblue" stroke="midnightblue" points="331.3,-142.28 332.81,-131.8 325.09,-139.05 331.3,-142.28"/>
</g>
<!-- Node9 -->
<g id="node9" class="node">
<title>Node9</title>
<g id="a_node9"><a xlink:href="CO__SDOserver_8h.html" target="_top" xlink:title="CANopen Service Data Object &#45; server protocol.">
<polygon fill="white" stroke="black" points="168,-168.5 168,-187.5 286,-187.5 286,-168.5 168,-168.5"/>
<text text-anchor="middle" x="227" y="-175.5" font-family="Helvetica,sans-Serif" font-size="10.00">301/CO_SDOserver.h</text>
</a>
</g>
</g>
<!-- Node7&#45;&gt;Node9 -->
<g id="edge11" class="edge">
<title>Node7&#45;&gt;Node9</title>
<path fill="none" stroke="midnightblue" d="M227,-224.08C227,-217.01 227,-206.86 227,-197.99"/>
<polygon fill="midnightblue" stroke="midnightblue" points="230.5,-197.75 227,-187.75 223.5,-197.75 230.5,-197.75"/>
</g>
<!-- Node8&#45;&gt;Node2 -->
<g id="edge10" class="edge">
<title>Node8&#45;&gt;Node2</title>
<path fill="none" stroke="midnightblue" d="M337,-112.08C337,-105.01 337,-94.86 337,-85.99"/>
<polygon fill="midnightblue" stroke="midnightblue" points="340.5,-85.75 337,-75.75 333.5,-85.75 340.5,-85.75"/>
</g>
<!-- Node9&#45;&gt;Node2 -->
<g id="edge12" class="edge">
<title>Node9&#45;&gt;Node2</title>
<path fill="none" stroke="midnightblue" d="M230.54,-168.13C236.21,-154.72 248.43,-129.07 265,-112 277.63,-98.99 294.76,-88.09 309.13,-80.28"/>
<polygon fill="midnightblue" stroke="midnightblue" points="310.86,-83.32 318.11,-75.6 307.63,-77.11 310.86,-83.32"/>
</g>
<!-- Node9&#45;&gt;Node8 -->
<g id="edge13" class="edge">
<title>Node9&#45;&gt;Node8</title>
<path fill="none" stroke="midnightblue" d="M244.67,-168.32C262.39,-159.62 289.9,-146.12 310.29,-136.11"/>
<polygon fill="midnightblue" stroke="midnightblue" points="311.94,-139.2 319.37,-131.65 308.85,-132.92 311.94,-139.2"/>
</g>
<!-- Node10&#45;&gt;Node2 -->
<g id="edge16" class="edge">
<title>Node10&#45;&gt;Node2</title>
<path fill="none" stroke="midnightblue" d="M447.05,-224.49C481.38,-215.05 523.08,-197.18 508,-168 482.86,-119.37 423.13,-92.21 381.38,-78.6"/>
<polygon fill="midnightblue" stroke="midnightblue" points="382.31,-75.22 371.72,-75.58 380.22,-81.9 382.31,-75.22"/>
</g>
<!-- Node10&#45;&gt;Node8 -->
<g id="edge17" class="edge">
<title>Node10&#45;&gt;Node8</title>
<path fill="none" stroke="midnightblue" d="M399.3,-224.42C391.63,-215.63 379.75,-201.4 371,-188 361.01,-172.7 351.54,-154.14 345.15,-140.78"/>
<polygon fill="midnightblue" stroke="midnightblue" points="348.31,-139.28 340.9,-131.71 341.97,-142.25 348.31,-139.28"/>
</g>
<!-- Node11 -->
<g id="node11" class="node">
<title>Node11</title>
<g id="a_node11"><a xlink:href="CO__Emergency_8h.html" target="_top" xlink:title="CANopen Emergency protocol.">
<polygon fill="white" stroke="black" points="380.5,-168.5 380.5,-187.5 499.5,-187.5 499.5,-168.5 380.5,-168.5"/>
<text text-anchor="middle" x="440" y="-175.5" font-family="Helvetica,sans-Serif" font-size="10.00">301/CO_Emergency.h</text>
</a>
</g>
</g>
<!-- Node10&#45;&gt;Node11 -->
<g id="edge18" class="edge">
<title>Node10&#45;&gt;Node11</title>
<path fill="none" stroke="midnightblue" d="M412.45,-224.08C417.01,-216.61 423.67,-205.72 429.29,-196.52"/>
<polygon fill="midnightblue" stroke="midnightblue" points="432.42,-198.11 434.65,-187.75 426.45,-194.46 432.42,-198.11"/>
</g>
<!-- Node11&#45;&gt;Node2 -->
<g id="edge19" class="edge">
<title>Node11&#45;&gt;Node2</title>
<path fill="none" stroke="midnightblue" d="M437.36,-168.12C433.02,-154.7 423.29,-129.03 408,-112 396.08,-98.73 379.36,-87.87 365.14,-80.15"/>
<polygon fill="midnightblue" stroke="midnightblue" points="366.72,-77.03 356.23,-75.53 363.5,-83.24 366.72,-77.03"/>
</g>
<!-- Node11&#45;&gt;Node8 -->
<g id="edge20" class="edge">
<title>Node11&#45;&gt;Node8</title>
<path fill="none" stroke="midnightblue" d="M423.45,-168.32C407.01,-159.7 381.57,-146.36 362.53,-136.39"/>
<polygon fill="midnightblue" stroke="midnightblue" points="363.99,-133.2 353.51,-131.65 360.74,-139.4 363.99,-133.2"/>
</g>
<!-- Node13 -->
<g id="node13" class="node">
<title>Node13</title>
<g id="a_node13"><a xlink:href="CO__LSS_8h.html" target="_top" xlink:title="CANopen Layer Setting Services protocol (common).">
<polygon fill="white" stroke="black" points="594.5,-112.5 594.5,-131.5 677.5,-131.5 677.5,-112.5 594.5,-112.5"/>
<text text-anchor="middle" x="636" y="-119.5" font-family="Helvetica,sans-Serif" font-size="10.00">305/CO_LSS.h</text>
</a>
</g>
</g>
<!-- Node12&#45;&gt;Node13 -->
<g id="edge22" class="edge">
<title>Node12&#45;&gt;Node13</title>
<path fill="none" stroke="midnightblue" d="M600.99,-280.08C606.81,-253.95 623.92,-177.21 631.86,-141.58"/>
<polygon fill="midnightblue" stroke="midnightblue" points="635.33,-142.09 634.09,-131.57 628.5,-140.57 635.33,-142.09"/>
</g>
<!-- Node13&#45;&gt;Node2 -->
<g id="edge23" class="edge">
<title>Node13&#45;&gt;Node2</title>
<path fill="none" stroke="midnightblue" d="M594.43,-113.49C542.35,-104.09 452.87,-87.93 394.33,-77.35"/>
<polygon fill="midnightblue" stroke="midnightblue" points="394.59,-73.84 384.13,-75.51 393.35,-80.73 394.59,-73.84"/>
</g>
<!-- Node14&#45;&gt;Node2 -->
<g id="edge25" class="edge">
<title>Node14&#45;&gt;Node2</title>
<path fill="none" stroke="midnightblue" d="M427.77,-280.46C466.03,-263.27 542.18,-221.54 524,-168 513.91,-138.29 506.73,-129.96 481,-112 455.46,-94.17 422.59,-83.2 394.69,-76.56"/>
<polygon fill="midnightblue" stroke="midnightblue" points="395.19,-73.08 384.67,-74.3 393.65,-79.91 395.19,-73.08"/>
</g>
<!-- Node14&#45;&gt;Node10 -->
<g id="edge26" class="edge">
<title>Node14&#45;&gt;Node10</title>
<path fill="none" stroke="midnightblue" d="M407,-280.08C407,-273.01 407,-262.86 407,-253.99"/>
<polygon fill="midnightblue" stroke="midnightblue" points="410.5,-253.75 407,-243.75 403.5,-253.75 410.5,-253.75"/>
</g>
</g>
</svg>
