<?xml version="1.0" encoding="UTF-8" standalone="no"?>
<!DOCTYPE svg PUBLIC "-//W3C//DTD SVG 1.1//EN"
 "http://www.w3.org/Graphics/SVG/1.1/DTD/svg11.dtd">
<!-- Generated by graphviz version 2.43.0 (0)
 -->
<!-- Title: 301/CO_SDOserver.h Pages: 1 -->
<svg width="336pt" height="192pt"
 viewBox="0.00 0.00 336.00 192.00" xmlns="http://www.w3.org/2000/svg" xmlns:xlink="http://www.w3.org/1999/xlink">
<g id="graph0" class="graph" transform="scale(1 1) rotate(0) translate(4 188)">
<title>301/CO_SDOserver.h</title>
<!-- Node1 -->
<g id="Node000001" class="node">
<title>Node1</title>
<g id="a_Node000001"><a xlink:title="CANopen Service Data Object &#45; server protocol.">
<polygon fill="#999999" stroke="#666666" points="261,-184 143,-184 143,-165 261,-165 261,-184"/>
<text text-anchor="middle" x="202" y="-172" font-family="Helvetica,sans-Serif" font-size="10.00">301/CO_SDOserver.h</text>
</a>
</g>
</g>
<!-- Node2 -->
<g id="Node000002" class="node">
<title>Node2</title>
<g id="a_Node000002"><a xlink:href="CO__SDOclient_8h.html" target="_top" xlink:title="CANopen Service Data Object &#45; client protocol.">
<polygon fill="white" stroke="#666666" points="174,-129 60,-129 60,-110 174,-110 174,-129"/>
<text text-anchor="middle" x="117" y="-117" font-family="Helvetica,sans-Serif" font-size="10.00">301/CO_SDOclient.h</text>
</a>
</g>
</g>
<!-- Node1&#45;&gt;Node2 -->
<g id="edge1_Node000001_Node000002" class="edge">
<title>Node1&#45;&gt;Node2</title>
<g id="a_edge1_Node000001_Node000002"><a xlink:title=" ">
<path fill="none" stroke="#63b8ff" d="M179.43,-159.42C164,-149.81 144.05,-137.37 130.91,-129.17"/>
<polygon fill="#63b8ff" stroke="#63b8ff" points="178.01,-162.66 188.34,-164.98 181.71,-156.72 178.01,-162.66"/>
</a>
</g>
</g>
<!-- Node4 -->
<g id="Node000004" class="node">
<title>Node4</title>
<g id="a_Node000004"><a xlink:href="CANopen_8h.html" target="_top" xlink:title="Main CANopenNode file.">
<polygon fill="white" stroke="#666666" points="218.5,-19 147.5,-19 147.5,0 218.5,0 218.5,-19"/>
<text text-anchor="middle" x="183" y="-7" font-family="Helvetica,sans-Serif" font-size="10.00">CANopen.h</text>
</a>
</g>
</g>
<!-- Node1&#45;&gt;Node4 -->
<g id="edge5_Node000001_Node000004" class="edge">
<title>Node1&#45;&gt;Node4</title>
<g id="a_edge5_Node000001_Node000004"><a xlink:title=" ">
<path fill="none" stroke="#63b8ff" d="M199.77,-154.37C195.65,-119.03 187,-44.79 184.03,-19.31"/>
<polygon fill="#63b8ff" stroke="#63b8ff" points="196.34,-155.21 200.98,-164.74 203.3,-154.4 196.34,-155.21"/>
</a>
</g>
</g>
<!-- Node5 -->
<g id="Node000005" class="node">
<title>Node5</title>
<g id="a_Node000005"><a xlink:href="CO__trace_8h.html" target="_top" xlink:title="CANopen trace object for recording variables over time.">
<polygon fill="white" stroke="#666666" points="328,-74 230,-74 230,-55 328,-55 328,-74"/>
<text text-anchor="middle" x="279" y="-62" font-family="Helvetica,sans-Serif" font-size="10.00">extra/CO_trace.h</text>
</a>
</g>
</g>
<!-- Node1&#45;&gt;Node5 -->
<g id="edge6_Node000001_Node000005" class="edge">
<title>Node1&#45;&gt;Node5</title>
<g id="a_edge6_Node000001_Node000005"><a xlink:title=" ">
<path fill="none" stroke="#63b8ff" d="M214.2,-156.38C230.87,-133.01 260.13,-91.97 272.83,-74.16"/>
<polygon fill="#63b8ff" stroke="#63b8ff" points="211.26,-154.49 208.3,-164.66 216.96,-158.55 211.26,-154.49"/>
</a>
</g>
</g>
<!-- Node3 -->
<g id="Node000003" class="node">
<title>Node3</title>
<g id="a_Node000003"><a xlink:href="CO__gateway__ascii_8h.html" target="_top" xlink:title="CANopen access from other networks &#45; ASCII mapping (CiA 309&#45;3 DS v3.0.0)">
<polygon fill="white" stroke="#666666" points="136,-74 0,-74 0,-55 136,-55 136,-74"/>
<text text-anchor="middle" x="68" y="-62" font-family="Helvetica,sans-Serif" font-size="10.00">309/CO_gateway_ascii.h</text>
</a>
</g>
</g>
<!-- Node2&#45;&gt;Node3 -->
<g id="edge2_Node000002_Node000003" class="edge">
<title>Node2&#45;&gt;Node3</title>
<g id="a_edge2_Node000002_Node000003"><a xlink:title=" ">
<path fill="none" stroke="#63b8ff" d="M101.97,-102.24C93.38,-92.95 82.96,-81.68 75.94,-74.09"/>
<polygon fill="#63b8ff" stroke="#63b8ff" points="99.55,-104.78 108.91,-109.75 104.69,-100.03 99.55,-104.78"/>
</a>
</g>
</g>
<!-- Node2&#45;&gt;Node4 -->
<g id="edge4_Node000002_Node000004" class="edge">
<title>Node2&#45;&gt;Node4</title>
<g id="a_edge4_Node000002_Node000004"><a xlink:title=" ">
<path fill="none" stroke="#63b8ff" d="M128.13,-101.01C133.3,-92.84 139.51,-82.95 145,-74 156.96,-54.51 170.66,-31.42 177.9,-19.16"/>
<polygon fill="#63b8ff" stroke="#63b8ff" points="125.04,-99.35 122.64,-109.67 130.95,-103.1 125.04,-99.35"/>
</a>
</g>
</g>
<!-- Node3&#45;&gt;Node4 -->
<g id="edge3_Node000003_Node000004" class="edge">
<title>Node3&#45;&gt;Node4</title>
<g id="a_edge3_Node000003_Node000004"><a xlink:title=" ">
<path fill="none" stroke="#63b8ff" d="M95.63,-50.77C116.84,-40.99 145.56,-27.75 164.19,-19.17"/>
<polygon fill="#63b8ff" stroke="#63b8ff" points="94.09,-47.62 86.48,-54.98 97.02,-53.98 94.09,-47.62"/>
</a>
</g>
</g>
<!-- Node5&#45;&gt;Node4 -->
<g id="edge7_Node000005_Node000004" class="edge">
<title>Node5&#45;&gt;Node4</title>
<g id="a_edge7_Node000005_Node000004"><a xlink:title=" ">
<path fill="none" stroke="#63b8ff" d="M254.48,-49.97C236.94,-40.28 213.83,-27.52 198.7,-19.17"/>
<polygon fill="#63b8ff" stroke="#63b8ff" points="253.13,-53.22 263.58,-54.98 256.51,-47.09 253.13,-53.22"/>
</a>
</g>
</g>
</g>
</svg>
