<?xml version="1.0" encoding="UTF-8" standalone="no"?>
<!DOCTYPE svg PUBLIC "-//W3C//DTD SVG 1.1//EN"
 "http://www.w3.org/Graphics/SVG/1.1/DTD/svg11.dtd">
<!-- Generated by graphviz version 2.43.0 (0)
 -->
<!-- Title: 304/CO_SRDO.h Pages: 1 -->
<svg width="281pt" height="247pt"
 viewBox="0.00 0.00 280.50 247.00" xmlns="http://www.w3.org/2000/svg" xmlns:xlink="http://www.w3.org/1999/xlink">
<g id="graph0" class="graph" transform="scale(1 1) rotate(0) translate(4 243)">
<title>304/CO_SRDO.h</title>
<!-- Node1 -->
<g id="Node000001" class="node">
<title>Node1</title>
<g id="a_Node000001"><a xlink:title="CANopen Safety Related Data Object protocol.">
<polygon fill="#999999" stroke="#666666" points="157.5,-239 63.5,-239 63.5,-220 157.5,-220 157.5,-239"/>
<text text-anchor="middle" x="110.5" y="-227" font-family="Helvetica,sans-Serif" font-size="10.00">304/CO_SRDO.h</text>
</a>
</g>
</g>
<!-- Node2 -->
<g id="Node000002" class="node">
<title>Node2</title>
<g id="a_Node000002"><a xlink:href="CO__Emergency_8h.html" target="_top" xlink:title="CANopen Emergency protocol.">
<polygon fill="white" stroke="#666666" points="126,-184 7,-184 7,-165 126,-165 126,-184"/>
<text text-anchor="middle" x="66.5" y="-172" font-family="Helvetica,sans-Serif" font-size="10.00">301/CO_Emergency.h</text>
</a>
</g>
</g>
<!-- Node1&#45;&gt;Node2 -->
<g id="edge1_Node000001_Node000002" class="edge">
<title>Node1&#45;&gt;Node2</title>
<g id="a_edge1_Node000001_Node000002"><a xlink:title=" ">
<path fill="none" stroke="#63b8ff" d="M103.23,-219.75C96.96,-212.18 87.71,-201.05 80.07,-191.84"/>
<polygon fill="#63b8ff" stroke="#63b8ff" points="82.71,-189.55 73.63,-184.09 77.33,-194.02 82.71,-189.55"/>
</a>
</g>
</g>
<!-- Node7 -->
<g id="Node000007" class="node">
<title>Node7</title>
<g id="a_Node000007"><a xlink:href="CO__ODinterface_8h.html" target="_top" xlink:title="CANopen Object Dictionary interface.">
<polygon fill="white" stroke="#666666" points="217,-129 92,-129 92,-110 217,-110 217,-129"/>
<text text-anchor="middle" x="154.5" y="-117" font-family="Helvetica,sans-Serif" font-size="10.00">301/CO_ODinterface.h</text>
</a>
</g>
</g>
<!-- Node1&#45;&gt;Node7 -->
<g id="edge8_Node000001_Node000007" class="edge">
<title>Node1&#45;&gt;Node7</title>
<g id="a_edge8_Node000001_Node000007"><a xlink:title=" ">
<path fill="none" stroke="#63b8ff" d="M116.07,-219.93C121.58,-211.17 129.96,-197.05 135.5,-184 141.69,-169.42 146.72,-152.15 150.04,-139.31"/>
<polygon fill="#63b8ff" stroke="#63b8ff" points="153.5,-139.89 152.51,-129.34 146.71,-138.21 153.5,-139.89"/>
</a>
</g>
</g>
<!-- Node3 -->
<g id="Node000003" class="node">
<title>Node3</title>
<g id="a_Node000003"><a xlink:href="CO__driver_8h.html" target="_top" xlink:title="Interface between CAN hardware and CANopenNode.">
<polygon fill="white" stroke="#666666" points="156,-74 61,-74 61,-55 156,-55 156,-74"/>
<text text-anchor="middle" x="108.5" y="-62" font-family="Helvetica,sans-Serif" font-size="10.00">301/CO_driver.h</text>
</a>
</g>
</g>
<!-- Node2&#45;&gt;Node3 -->
<g id="edge2_Node000002_Node000003" class="edge">
<title>Node2&#45;&gt;Node3</title>
<g id="a_edge2_Node000002_Node000003"><a xlink:title=" ">
<path fill="none" stroke="#63b8ff" d="M68.14,-164.65C70.61,-152.16 75.84,-128.81 83.5,-110 87.3,-100.66 92.66,-90.84 97.44,-82.8"/>
<polygon fill="#63b8ff" stroke="#63b8ff" points="100.58,-84.39 102.85,-74.04 94.62,-80.72 100.58,-84.39"/>
</a>
</g>
</g>
<!-- Node2&#45;&gt;Node7 -->
<g id="edge6_Node000002_Node000007" class="edge">
<title>Node2&#45;&gt;Node7</title>
<g id="a_edge6_Node000002_Node000007"><a xlink:title=" ">
<path fill="none" stroke="#63b8ff" d="M80.64,-164.98C94.29,-156.77 115.19,-144.18 131.28,-134.49"/>
<polygon fill="#63b8ff" stroke="#63b8ff" points="133.34,-137.33 140.1,-129.17 129.73,-131.33 133.34,-137.33"/>
</a>
</g>
</g>
<!-- Node4 -->
<g id="Node000004" class="node">
<title>Node4</title>
<g id="a_Node000004"><a xlink:title=" ">
<polygon fill="#e0e0e0" stroke="#999999" points="53,-19 0,-19 0,0 53,0 53,-19"/>
<text text-anchor="middle" x="26.5" y="-7" font-family="Helvetica,sans-Serif" font-size="10.00">string.h</text>
</a>
</g>
</g>
<!-- Node3&#45;&gt;Node4 -->
<g id="edge3_Node000003_Node000004" class="edge">
<title>Node3&#45;&gt;Node4</title>
<g id="a_edge3_Node000003_Node000004"><a xlink:title=" ">
<path fill="none" stroke="#63b8ff" d="M95.33,-54.98C82.73,-46.84 63.5,-34.41 48.56,-24.76"/>
<polygon fill="#63b8ff" stroke="#63b8ff" points="50.21,-21.66 39.91,-19.17 46.41,-27.54 50.21,-21.66"/>
</a>
</g>
</g>
<!-- Node5 -->
<g id="Node000005" class="node">
<title>Node5</title>
<g id="a_Node000005"><a xlink:href="CO__config_8h.html" target="_top" xlink:title="Configuration macros for CANopenNode.">
<polygon fill="white" stroke="#666666" points="146,-19 71,-19 71,0 146,0 146,-19"/>
<text text-anchor="middle" x="108.5" y="-7" font-family="Helvetica,sans-Serif" font-size="10.00">CO_config.h</text>
</a>
</g>
</g>
<!-- Node3&#45;&gt;Node5 -->
<g id="edge4_Node000003_Node000005" class="edge">
<title>Node3&#45;&gt;Node5</title>
<g id="a_edge4_Node000003_Node000005"><a xlink:title=" ">
<path fill="none" stroke="#63b8ff" d="M108.5,-54.75C108.5,-47.8 108.5,-37.85 108.5,-29.13"/>
<polygon fill="#63b8ff" stroke="#63b8ff" points="112,-29.09 108.5,-19.09 105,-29.09 112,-29.09"/>
</a>
</g>
</g>
<!-- Node6 -->
<g id="Node000006" class="node">
<title>Node6</title>
<g id="a_Node000006"><a xlink:title=" ">
<polygon fill="#e0e0e0" stroke="#999999" points="272.5,-19 164.5,-19 164.5,0 272.5,0 272.5,-19"/>
<text text-anchor="middle" x="218.5" y="-7" font-family="Helvetica,sans-Serif" font-size="10.00">CO_driver_target.h</text>
</a>
</g>
</g>
<!-- Node3&#45;&gt;Node6 -->
<g id="edge5_Node000003_Node000006" class="edge">
<title>Node3&#45;&gt;Node6</title>
<g id="a_edge5_Node000003_Node000006"><a xlink:title=" ">
<path fill="none" stroke="#63b8ff" d="M126.17,-54.98C143.79,-46.5 171.08,-33.35 191.43,-23.54"/>
<polygon fill="#63b8ff" stroke="#63b8ff" points="193.02,-26.66 200.51,-19.17 189.98,-20.36 193.02,-26.66"/>
</a>
</g>
</g>
<!-- Node7&#45;&gt;Node3 -->
<g id="edge7_Node000007_Node000003" class="edge">
<title>Node7&#45;&gt;Node3</title>
<g id="a_edge7_Node000007_Node000003"><a xlink:title=" ">
<path fill="none" stroke="#63b8ff" d="M146.9,-109.75C140.34,-102.18 130.68,-91.05 122.69,-81.84"/>
<polygon fill="#63b8ff" stroke="#63b8ff" points="125.15,-79.35 115.95,-74.09 119.87,-83.94 125.15,-79.35"/>
</a>
</g>
</g>
</g>
</svg>
