<?xml version="1.0" encoding="UTF-8" standalone="no"?>
<!DOCTYPE svg PUBLIC "-//W3C//DTD SVG 1.1//EN"
 "http://www.w3.org/Graphics/SVG/1.1/DTD/svg11.dtd">
<!-- Generated by graphviz version 2.43.0 (0)
 -->
<!-- Title: 301/CO_HBconsumer.h Pages: 1 -->
<svg width="342pt" height="308pt"
 viewBox="0.00 0.00 341.82 308.00" xmlns="http://www.w3.org/2000/svg" xmlns:xlink="http://www.w3.org/1999/xlink">
<g id="graph0" class="graph" transform="scale(1 1) rotate(0) translate(4 304)">
<title>301/CO_HBconsumer.h</title>
<polygon fill="white" stroke="transparent" points="-4,4 -4,-304 337.82,-304 337.82,4 -4,4"/>
<!-- Node1 -->
<g id="node1" class="node">
<title>Node1</title>
<g id="a_node1"><a xlink:title="CANopen Heartbeat consumer protocol.">
<polygon fill="#bfbfbf" stroke="black" points="78.32,-280.5 78.32,-299.5 206.32,-299.5 206.32,-280.5 78.32,-280.5"/>
<text text-anchor="middle" x="142.32" y="-287.5" font-family="Helvetica,sans-Serif" font-size="10.00">301/CO_HBconsumer.h</text>
</a>
</g>
</g>
<!-- Node2 -->
<g id="node2" class="node">
<title>Node2</title>
<g id="a_node2"><a xlink:href="CO__driver_8h.html" target="_top" xlink:title="Interface between CAN hardware and CANopenNode.">
<polygon fill="white" stroke="black" points="89.82,-56.5 89.82,-75.5 184.82,-75.5 184.82,-56.5 89.82,-56.5"/>
<text text-anchor="middle" x="137.32" y="-63.5" font-family="Helvetica,sans-Serif" font-size="10.00">301/CO_driver.h</text>
</a>
</g>
</g>
<!-- Node1&#45;&gt;Node2 -->
<g id="edge1" class="edge">
<title>Node1&#45;&gt;Node2</title>
<path fill="none" stroke="midnightblue" d="M78.09,-282.79C53.03,-276.87 26.69,-265.53 11.32,-244 -31.93,-183.41 66.37,-111.05 113.69,-81.08"/>
<polygon fill="midnightblue" stroke="midnightblue" points="115.77,-83.91 122.42,-75.66 112.08,-77.96 115.77,-83.91"/>
</g>
<!-- Node6 -->
<g id="node6" class="node">
<title>Node6</title>
<g id="a_node6"><a xlink:href="CO__ODinterface_8h.html" target="_top" xlink:title="CANopen Object Dictionary interface.">
<polygon fill="white" stroke="black" points="120.82,-112.5 120.82,-131.5 245.82,-131.5 245.82,-112.5 120.82,-112.5"/>
<text text-anchor="middle" x="183.32" y="-119.5" font-family="Helvetica,sans-Serif" font-size="10.00">301/CO_ODinterface.h</text>
</a>
</g>
</g>
<!-- Node1&#45;&gt;Node6 -->
<g id="edge5" class="edge">
<title>Node1&#45;&gt;Node6</title>
<path fill="none" stroke="midnightblue" d="M150.25,-280.47C157.65,-271.95 168.28,-258.12 173.32,-244 185.62,-209.54 185.83,-166.18 184.7,-141.83"/>
<polygon fill="midnightblue" stroke="midnightblue" points="188.17,-141.3 184.08,-131.53 181.19,-141.72 188.17,-141.3"/>
</g>
<!-- Node7 -->
<g id="node7" class="node">
<title>Node7</title>
<g id="a_node7"><a xlink:href="CO__NMT__Heartbeat_8h.html" target="_top" xlink:title="CANopen Network management and Heartbeat producer protocol.">
<polygon fill="white" stroke="black" points="20.82,-224.5 20.82,-243.5 163.82,-243.5 163.82,-224.5 20.82,-224.5"/>
<text text-anchor="middle" x="92.32" y="-231.5" font-family="Helvetica,sans-Serif" font-size="10.00">301/CO_NMT_Heartbeat.h</text>
</a>
</g>
</g>
<!-- Node1&#45;&gt;Node7 -->
<g id="edge7" class="edge">
<title>Node1&#45;&gt;Node7</title>
<path fill="none" stroke="midnightblue" d="M134.06,-280.08C126.85,-272.3 116.21,-260.8 107.47,-251.37"/>
<polygon fill="midnightblue" stroke="midnightblue" points="109.78,-248.71 100.42,-243.75 104.65,-253.47 109.78,-248.71"/>
</g>
<!-- Node8 -->
<g id="node8" class="node">
<title>Node8</title>
<g id="a_node8"><a xlink:href="CO__Emergency_8h.html" target="_top" xlink:title="CANopen Emergency protocol.">
<polygon fill="white" stroke="black" points="214.82,-168.5 214.82,-187.5 333.82,-187.5 333.82,-168.5 214.82,-168.5"/>
<text text-anchor="middle" x="274.32" y="-175.5" font-family="Helvetica,sans-Serif" font-size="10.00">301/CO_Emergency.h</text>
</a>
</g>
</g>
<!-- Node1&#45;&gt;Node8 -->
<g id="edge13" class="edge">
<title>Node1&#45;&gt;Node8</title>
<path fill="none" stroke="midnightblue" d="M155.73,-280.42C168.98,-271.75 189.63,-257.71 206.32,-244 225.3,-228.4 245.46,-208.68 258.86,-195.08"/>
<polygon fill="midnightblue" stroke="midnightblue" points="261.43,-197.45 265.9,-187.85 256.42,-192.57 261.43,-197.45"/>
</g>
<!-- Node3 -->
<g id="node3" class="node">
<title>Node3</title>
<g id="a_node3"><a xlink:title=" ">
<polygon fill="white" stroke="#bfbfbf" points="28.82,-0.5 28.82,-19.5 81.82,-19.5 81.82,-0.5 28.82,-0.5"/>
<text text-anchor="middle" x="55.32" y="-7.5" font-family="Helvetica,sans-Serif" font-size="10.00">string.h</text>
</a>
</g>
</g>
<!-- Node2&#45;&gt;Node3 -->
<g id="edge2" class="edge">
<title>Node2&#45;&gt;Node3</title>
<path fill="none" stroke="midnightblue" d="M124.14,-56.32C111.47,-47.98 92.08,-35.21 77.11,-25.35"/>
<polygon fill="midnightblue" stroke="midnightblue" points="78.74,-22.23 68.46,-19.65 74.89,-28.08 78.74,-22.23"/>
</g>
<!-- Node4 -->
<g id="node4" class="node">
<title>Node4</title>
<g id="a_node4"><a xlink:href="CO__config_8h.html" target="_top" xlink:title="Configuration macros for CANopenNode.">
<polygon fill="white" stroke="black" points="99.82,-0.5 99.82,-19.5 174.82,-19.5 174.82,-0.5 99.82,-0.5"/>
<text text-anchor="middle" x="137.32" y="-7.5" font-family="Helvetica,sans-Serif" font-size="10.00">CO_config.h</text>
</a>
</g>
</g>
<!-- Node2&#45;&gt;Node4 -->
<g id="edge3" class="edge">
<title>Node2&#45;&gt;Node4</title>
<path fill="none" stroke="midnightblue" d="M137.32,-56.08C137.32,-49.01 137.32,-38.86 137.32,-29.99"/>
<polygon fill="midnightblue" stroke="midnightblue" points="140.82,-29.75 137.32,-19.75 133.82,-29.75 140.82,-29.75"/>
</g>
<!-- Node5 -->
<g id="node5" class="node">
<title>Node5</title>
<g id="a_node5"><a xlink:title=" ">
<polygon fill="white" stroke="#bfbfbf" points="193.32,-0.5 193.32,-19.5 301.32,-19.5 301.32,-0.5 193.32,-0.5"/>
<text text-anchor="middle" x="247.32" y="-7.5" font-family="Helvetica,sans-Serif" font-size="10.00">CO_driver_target.h</text>
</a>
</g>
</g>
<!-- Node2&#45;&gt;Node5 -->
<g id="edge4" class="edge">
<title>Node2&#45;&gt;Node5</title>
<path fill="none" stroke="midnightblue" d="M154.99,-56.32C172.71,-47.62 200.22,-34.12 220.61,-24.11"/>
<polygon fill="midnightblue" stroke="midnightblue" points="222.25,-27.2 229.69,-19.65 219.17,-20.92 222.25,-27.2"/>
</g>
<!-- Node6&#45;&gt;Node2 -->
<g id="edge6" class="edge">
<title>Node6&#45;&gt;Node2</title>
<path fill="none" stroke="midnightblue" d="M175.72,-112.08C169.09,-104.3 159.3,-92.8 151.26,-83.37"/>
<polygon fill="midnightblue" stroke="midnightblue" points="153.92,-81.09 144.77,-75.75 148.59,-85.63 153.92,-81.09"/>
</g>
<!-- Node7&#45;&gt;Node2 -->
<g id="edge8" class="edge">
<title>Node7&#45;&gt;Node2</title>
<path fill="none" stroke="midnightblue" d="M92.74,-224.24C93.93,-203.96 98.23,-152.41 112.32,-112 115.7,-102.3 121.09,-92.23 126,-84.08"/>
<polygon fill="midnightblue" stroke="midnightblue" points="129.01,-85.87 131.39,-75.54 123.09,-82.13 129.01,-85.87"/>
</g>
<!-- Node7&#45;&gt;Node6 -->
<g id="edge9" class="edge">
<title>Node7&#45;&gt;Node6</title>
<path fill="none" stroke="midnightblue" d="M99.46,-224.37C114.61,-206.05 150.19,-163.05 169.78,-139.36"/>
<polygon fill="midnightblue" stroke="midnightblue" points="172.53,-141.53 176.21,-131.59 167.14,-137.07 172.53,-141.53"/>
</g>
<!-- Node7&#45;&gt;Node8 -->
<g id="edge10" class="edge">
<title>Node7&#45;&gt;Node8</title>
<path fill="none" stroke="midnightblue" d="M121.16,-224.44C152.17,-215.24 201.65,-200.56 235.94,-190.39"/>
<polygon fill="midnightblue" stroke="midnightblue" points="237.02,-193.72 245.61,-187.52 235.03,-187.01 237.02,-193.72"/>
</g>
<!-- Node8&#45;&gt;Node2 -->
<g id="edge11" class="edge">
<title>Node8&#45;&gt;Node2</title>
<path fill="none" stroke="midnightblue" d="M274.14,-168.24C273.39,-154.52 269.99,-127.9 255.32,-112 239.45,-94.82 216.33,-84.14 194.74,-77.53"/>
<polygon fill="midnightblue" stroke="midnightblue" points="195.54,-74.12 184.96,-74.77 193.63,-80.86 195.54,-74.12"/>
</g>
<!-- Node8&#45;&gt;Node6 -->
<g id="edge12" class="edge">
<title>Node8&#45;&gt;Node6</title>
<path fill="none" stroke="midnightblue" d="M259.7,-168.32C245.37,-159.82 223.3,-146.73 206.57,-136.8"/>
<polygon fill="midnightblue" stroke="midnightblue" points="208.29,-133.75 197.9,-131.65 204.72,-139.77 208.29,-133.75"/>
</g>
</g>
</svg>
