<?xml version="1.0" encoding="UTF-8" standalone="no"?>
<!DOCTYPE svg PUBLIC "-//W3C//DTD SVG 1.1//EN"
 "http://www.w3.org/Graphics/SVG/1.1/DTD/svg11.dtd">
<!-- Generated by graphviz version 2.43.0 (0)
 -->
<!-- Title: 301/CO_TIME.h Pages: 1 -->
<svg width="308pt" height="302pt"
 viewBox="0.00 0.00 308.00 302.00" xmlns="http://www.w3.org/2000/svg" xmlns:xlink="http://www.w3.org/1999/xlink">
<g id="graph0" class="graph" transform="scale(1 1) rotate(0) translate(4 298)">
<title>301/CO_TIME.h</title>
<!-- Node1 -->
<g id="Node000001" class="node">
<title>Node1</title>
<g id="a_Node000001"><a xlink:title="CANopen Time&#45;stamp protocol.">
<polygon fill="#999999" stroke="#666666" points="90,-294 0,-294 0,-275 90,-275 90,-294"/>
<text text-anchor="middle" x="45" y="-282" font-family="Helvetica,sans-Serif" font-size="10.00">301/CO_TIME.h</text>
</a>
</g>
</g>
<!-- Node2 -->
<g id="Node000002" class="node">
<title>Node2</title>
<g id="a_Node000002"><a xlink:href="CO__driver_8h.html" target="_top" xlink:title="Interface between CAN hardware and CANopenNode.">
<polygon fill="white" stroke="#666666" points="183.5,-74 88.5,-74 88.5,-55 183.5,-55 183.5,-74"/>
<text text-anchor="middle" x="136" y="-62" font-family="Helvetica,sans-Serif" font-size="10.00">301/CO_driver.h</text>
</a>
</g>
</g>
<!-- Node1&#45;&gt;Node2 -->
<g id="edge1_Node000001_Node000002" class="edge">
<title>Node1&#45;&gt;Node2</title>
<g id="a_edge1_Node000001_Node000002"><a xlink:title=" ">
<path fill="none" stroke="#63b8ff" d="M39.93,-274.98C24.63,-248.05 -17.83,-163.41 19,-110 32.59,-90.29 56.16,-79.3 78.6,-73.18"/>
<polygon fill="#63b8ff" stroke="#63b8ff" points="79.57,-76.54 88.45,-70.77 77.91,-69.74 79.57,-76.54"/>
</a>
</g>
</g>
<!-- Node6 -->
<g id="Node000006" class="node">
<title>Node6</title>
<g id="a_Node000006"><a xlink:href="CO__ODinterface_8h.html" target="_top" xlink:title="CANopen Object Dictionary interface.">
<polygon fill="white" stroke="#666666" points="153.5,-129 28.5,-129 28.5,-110 153.5,-110 153.5,-129"/>
<text text-anchor="middle" x="91" y="-117" font-family="Helvetica,sans-Serif" font-size="10.00">301/CO_ODinterface.h</text>
</a>
</g>
</g>
<!-- Node1&#45;&gt;Node6 -->
<g id="edge5_Node000001_Node000006" class="edge">
<title>Node1&#45;&gt;Node6</title>
<g id="a_edge5_Node000001_Node000006"><a xlink:title=" ">
<path fill="none" stroke="#63b8ff" d="M47.47,-274.74C54.68,-249.2 75.78,-174.43 85.71,-139.23"/>
<polygon fill="#63b8ff" stroke="#63b8ff" points="89.17,-139.88 88.51,-129.31 82.43,-137.98 89.17,-139.88"/>
</a>
</g>
</g>
<!-- Node7 -->
<g id="Node000007" class="node">
<title>Node7</title>
<g id="a_Node000007"><a xlink:href="CO__NMT__Heartbeat_8h.html" target="_top" xlink:title="CANopen Network management and Heartbeat producer protocol.">
<polygon fill="white" stroke="#666666" points="229.5,-239 86.5,-239 86.5,-220 229.5,-220 229.5,-239"/>
<text text-anchor="middle" x="158" y="-227" font-family="Helvetica,sans-Serif" font-size="10.00">301/CO_NMT_Heartbeat.h</text>
</a>
</g>
</g>
<!-- Node1&#45;&gt;Node7 -->
<g id="edge7_Node000001_Node000007" class="edge">
<title>Node1&#45;&gt;Node7</title>
<g id="a_edge7_Node000001_Node000007"><a xlink:title=" ">
<path fill="none" stroke="#63b8ff" d="M63.16,-274.98C81.25,-266.5 109.28,-253.35 130.19,-243.54"/>
<polygon fill="#63b8ff" stroke="#63b8ff" points="131.95,-246.59 139.51,-239.17 128.97,-240.25 131.95,-246.59"/>
</a>
</g>
</g>
<!-- Node3 -->
<g id="Node000003" class="node">
<title>Node3</title>
<g id="a_Node000003"><a xlink:title=" ">
<polygon fill="#e0e0e0" stroke="#999999" points="80.5,-19 27.5,-19 27.5,0 80.5,0 80.5,-19"/>
<text text-anchor="middle" x="54" y="-7" font-family="Helvetica,sans-Serif" font-size="10.00">string.h</text>
</a>
</g>
</g>
<!-- Node2&#45;&gt;Node3 -->
<g id="edge2_Node000002_Node000003" class="edge">
<title>Node2&#45;&gt;Node3</title>
<g id="a_edge2_Node000002_Node000003"><a xlink:title=" ">
<path fill="none" stroke="#63b8ff" d="M122.83,-54.98C110.23,-46.84 91,-34.41 76.06,-24.76"/>
<polygon fill="#63b8ff" stroke="#63b8ff" points="77.71,-21.66 67.41,-19.17 73.91,-27.54 77.71,-21.66"/>
</a>
</g>
</g>
<!-- Node4 -->
<g id="Node000004" class="node">
<title>Node4</title>
<g id="a_Node000004"><a xlink:href="CO__config_8h.html" target="_top" xlink:title="Configuration macros for CANopenNode.">
<polygon fill="white" stroke="#666666" points="173.5,-19 98.5,-19 98.5,0 173.5,0 173.5,-19"/>
<text text-anchor="middle" x="136" y="-7" font-family="Helvetica,sans-Serif" font-size="10.00">CO_config.h</text>
</a>
</g>
</g>
<!-- Node2&#45;&gt;Node4 -->
<g id="edge3_Node000002_Node000004" class="edge">
<title>Node2&#45;&gt;Node4</title>
<g id="a_edge3_Node000002_Node000004"><a xlink:title=" ">
<path fill="none" stroke="#63b8ff" d="M136,-54.75C136,-47.8 136,-37.85 136,-29.13"/>
<polygon fill="#63b8ff" stroke="#63b8ff" points="139.5,-29.09 136,-19.09 132.5,-29.09 139.5,-29.09"/>
</a>
</g>
</g>
<!-- Node5 -->
<g id="Node000005" class="node">
<title>Node5</title>
<g id="a_Node000005"><a xlink:title=" ">
<polygon fill="#e0e0e0" stroke="#999999" points="300,-19 192,-19 192,0 300,0 300,-19"/>
<text text-anchor="middle" x="246" y="-7" font-family="Helvetica,sans-Serif" font-size="10.00">CO_driver_target.h</text>
</a>
</g>
</g>
<!-- Node2&#45;&gt;Node5 -->
<g id="edge4_Node000002_Node000005" class="edge">
<title>Node2&#45;&gt;Node5</title>
<g id="a_edge4_Node000002_Node000005"><a xlink:title=" ">
<path fill="none" stroke="#63b8ff" d="M153.67,-54.98C171.29,-46.5 198.58,-33.35 218.93,-23.54"/>
<polygon fill="#63b8ff" stroke="#63b8ff" points="220.52,-26.66 228.01,-19.17 217.48,-20.36 220.52,-26.66"/>
</a>
</g>
</g>
<!-- Node6&#45;&gt;Node2 -->
<g id="edge6_Node000006_Node000002" class="edge">
<title>Node6&#45;&gt;Node2</title>
<g id="a_edge6_Node000006_Node000002"><a xlink:title=" ">
<path fill="none" stroke="#63b8ff" d="M98.43,-109.75C104.85,-102.18 114.31,-91.05 122.12,-81.84"/>
<polygon fill="#63b8ff" stroke="#63b8ff" points="124.9,-83.98 128.71,-74.09 119.57,-79.45 124.9,-83.98"/>
</a>
</g>
</g>
<!-- Node7&#45;&gt;Node2 -->
<g id="edge8_Node000007_Node000002" class="edge">
<title>Node7&#45;&gt;Node2</title>
<g id="a_edge8_Node000007_Node000002"><a xlink:title=" ">
<path fill="none" stroke="#63b8ff" d="M187.68,-219.95C215.58,-210.13 251.46,-191.82 240,-165 223.74,-126.93 184.97,-96.47 159.64,-79.71"/>
<polygon fill="#63b8ff" stroke="#63b8ff" points="161.29,-76.61 150.98,-74.16 157.51,-82.5 161.29,-76.61"/>
</a>
</g>
</g>
<!-- Node7&#45;&gt;Node6 -->
<g id="edge9_Node000007_Node000006" class="edge">
<title>Node7&#45;&gt;Node6</title>
<g id="a_edge9_Node000007_Node000006"><a xlink:title=" ">
<path fill="none" stroke="#63b8ff" d="M141.52,-219.86C128.63,-212.21 111.38,-199.81 102,-184 94.05,-170.6 91.5,-153 90.82,-139.72"/>
<polygon fill="#63b8ff" stroke="#63b8ff" points="94.31,-139.32 90.62,-129.39 87.31,-139.45 94.31,-139.32"/>
</a>
</g>
</g>
<!-- Node8 -->
<g id="Node000008" class="node">
<title>Node8</title>
<g id="a_Node000008"><a xlink:href="CO__Emergency_8h.html" target="_top" xlink:title="CANopen Emergency protocol.">
<polygon fill="white" stroke="#666666" points="230.5,-184 111.5,-184 111.5,-165 230.5,-165 230.5,-184"/>
<text text-anchor="middle" x="171" y="-172" font-family="Helvetica,sans-Serif" font-size="10.00">301/CO_Emergency.h</text>
</a>
</g>
</g>
<!-- Node7&#45;&gt;Node8 -->
<g id="edge10_Node000007_Node000008" class="edge">
<title>Node7&#45;&gt;Node8</title>
<g id="a_edge10_Node000007_Node000008"><a xlink:title=" ">
<path fill="none" stroke="#63b8ff" d="M160.15,-219.75C161.87,-212.72 164.35,-202.62 166.5,-193.84"/>
<polygon fill="#63b8ff" stroke="#63b8ff" points="169.91,-194.63 168.89,-184.09 163.11,-192.97 169.91,-194.63"/>
</a>
</g>
</g>
<!-- Node8&#45;&gt;Node2 -->
<g id="edge11_Node000008_Node000002" class="edge">
<title>Node8&#45;&gt;Node2</title>
<g id="a_edge11_Node000008_Node000002"><a xlink:title=" ">
<path fill="none" stroke="#63b8ff" d="M170.82,-164.62C170.32,-152.11 168.51,-128.72 162,-110 158.66,-100.4 153.17,-90.56 148.09,-82.59"/>
<polygon fill="#63b8ff" stroke="#63b8ff" points="150.95,-80.56 142.47,-74.2 145.13,-84.46 150.95,-80.56"/>
</a>
</g>
</g>
<!-- Node8&#45;&gt;Node6 -->
<g id="edge12_Node000008_Node000006" class="edge">
<title>Node8&#45;&gt;Node6</title>
<g id="a_edge12_Node000008_Node000006"><a xlink:title=" ">
<path fill="none" stroke="#63b8ff" d="M158.15,-164.98C145.86,-156.84 127.09,-144.41 112.52,-134.76"/>
<polygon fill="#63b8ff" stroke="#63b8ff" points="114.36,-131.78 104.09,-129.17 110.49,-137.61 114.36,-131.78"/>
</a>
</g>
</g>
</g>
</svg>
