<?xml version="1.0" encoding="UTF-8" standalone="no"?>
<!DOCTYPE svg PUBLIC "-//W3C//DTD SVG 1.1//EN"
 "http://www.w3.org/Graphics/SVG/1.1/DTD/svg11.dtd">
<!-- Generated by graphviz version 2.43.0 (0)
 -->
<!-- Title: 301/CO_TIME.h Pages: 1 -->
<svg width="308pt" height="308pt"
 viewBox="0.00 0.00 308.00 308.00" xmlns="http://www.w3.org/2000/svg" xmlns:xlink="http://www.w3.org/1999/xlink">
<g id="graph0" class="graph" transform="scale(1 1) rotate(0) translate(4 304)">
<title>301/CO_TIME.h</title>
<polygon fill="white" stroke="transparent" points="-4,4 -4,-304 304,-304 304,4 -4,4"/>
<!-- Node1 -->
<g id="node1" class="node">
<title>Node1</title>
<g id="a_node1"><a xlink:title="CANopen Time&#45;stamp protocol.">
<polygon fill="#bfbfbf" stroke="black" points="0,-280.5 0,-299.5 90,-299.5 90,-280.5 0,-280.5"/>
<text text-anchor="middle" x="45" y="-287.5" font-family="Helvetica,sans-Serif" font-size="10.00">301/CO_TIME.h</text>
</a>
</g>
</g>
<!-- Node2 -->
<g id="node2" class="node">
<title>Node2</title>
<g id="a_node2"><a xlink:href="CO__driver_8h.html" target="_top" xlink:title="Interface between CAN hardware and CANopenNode.">
<polygon fill="white" stroke="black" points="88.5,-56.5 88.5,-75.5 183.5,-75.5 183.5,-56.5 88.5,-56.5"/>
<text text-anchor="middle" x="136" y="-63.5" font-family="Helvetica,sans-Serif" font-size="10.00">301/CO_driver.h</text>
</a>
</g>
</g>
<!-- Node1&#45;&gt;Node2 -->
<g id="edge1" class="edge">
<title>Node1&#45;&gt;Node2</title>
<path fill="none" stroke="midnightblue" d="M39.88,-280.31C24.42,-252.85 -18.45,-166.53 19,-112 32.58,-92.23 56.14,-81.14 78.58,-74.93"/>
<polygon fill="midnightblue" stroke="midnightblue" points="79.58,-78.29 88.44,-72.47 77.89,-71.49 79.58,-78.29"/>
</g>
<!-- Node6 -->
<g id="node6" class="node">
<title>Node6</title>
<g id="a_node6"><a xlink:href="CO__ODinterface_8h.html" target="_top" xlink:title="CANopen Object Dictionary interface.">
<polygon fill="white" stroke="black" points="28.5,-112.5 28.5,-131.5 153.5,-131.5 153.5,-112.5 28.5,-112.5"/>
<text text-anchor="middle" x="91" y="-119.5" font-family="Helvetica,sans-Serif" font-size="10.00">301/CO_ODinterface.h</text>
</a>
</g>
</g>
<!-- Node1&#45;&gt;Node6 -->
<g id="edge5" class="edge">
<title>Node1&#45;&gt;Node6</title>
<path fill="none" stroke="midnightblue" d="M47.47,-280.08C54.71,-253.95 75.98,-177.21 85.85,-141.58"/>
<polygon fill="midnightblue" stroke="midnightblue" points="89.33,-142.14 88.63,-131.57 82.58,-140.27 89.33,-142.14"/>
</g>
<!-- Node7 -->
<g id="node7" class="node">
<title>Node7</title>
<g id="a_node7"><a xlink:href="CO__NMT__Heartbeat_8h.html" target="_top" xlink:title="CANopen Network management and Heartbeat producer protocol.">
<polygon fill="white" stroke="black" points="86.5,-224.5 86.5,-243.5 229.5,-243.5 229.5,-224.5 86.5,-224.5"/>
<text text-anchor="middle" x="158" y="-231.5" font-family="Helvetica,sans-Serif" font-size="10.00">301/CO_NMT_Heartbeat.h</text>
</a>
</g>
</g>
<!-- Node1&#45;&gt;Node7 -->
<g id="edge7" class="edge">
<title>Node1&#45;&gt;Node7</title>
<path fill="none" stroke="midnightblue" d="M62.91,-280.44C81.25,-271.68 110.01,-257.94 131.09,-247.86"/>
<polygon fill="midnightblue" stroke="midnightblue" points="132.67,-250.99 140.18,-243.52 129.65,-244.67 132.67,-250.99"/>
</g>
<!-- Node3 -->
<g id="node3" class="node">
<title>Node3</title>
<g id="a_node3"><a xlink:title=" ">
<polygon fill="white" stroke="#bfbfbf" points="27.5,-0.5 27.5,-19.5 80.5,-19.5 80.5,-0.5 27.5,-0.5"/>
<text text-anchor="middle" x="54" y="-7.5" font-family="Helvetica,sans-Serif" font-size="10.00">string.h</text>
</a>
</g>
</g>
<!-- Node2&#45;&gt;Node3 -->
<g id="edge2" class="edge">
<title>Node2&#45;&gt;Node3</title>
<path fill="none" stroke="midnightblue" d="M122.83,-56.32C110.15,-47.98 90.77,-35.21 75.79,-25.35"/>
<polygon fill="midnightblue" stroke="midnightblue" points="77.42,-22.23 67.14,-19.65 73.57,-28.08 77.42,-22.23"/>
</g>
<!-- Node4 -->
<g id="node4" class="node">
<title>Node4</title>
<g id="a_node4"><a xlink:href="CO__config_8h.html" target="_top" xlink:title="Configuration macros for CANopenNode.">
<polygon fill="white" stroke="black" points="98.5,-0.5 98.5,-19.5 173.5,-19.5 173.5,-0.5 98.5,-0.5"/>
<text text-anchor="middle" x="136" y="-7.5" font-family="Helvetica,sans-Serif" font-size="10.00">CO_config.h</text>
</a>
</g>
</g>
<!-- Node2&#45;&gt;Node4 -->
<g id="edge3" class="edge">
<title>Node2&#45;&gt;Node4</title>
<path fill="none" stroke="midnightblue" d="M136,-56.08C136,-49.01 136,-38.86 136,-29.99"/>
<polygon fill="midnightblue" stroke="midnightblue" points="139.5,-29.75 136,-19.75 132.5,-29.75 139.5,-29.75"/>
</g>
<!-- Node5 -->
<g id="node5" class="node">
<title>Node5</title>
<g id="a_node5"><a xlink:title=" ">
<polygon fill="white" stroke="#bfbfbf" points="192,-0.5 192,-19.5 300,-19.5 300,-0.5 192,-0.5"/>
<text text-anchor="middle" x="246" y="-7.5" font-family="Helvetica,sans-Serif" font-size="10.00">CO_driver_target.h</text>
</a>
</g>
</g>
<!-- Node2&#45;&gt;Node5 -->
<g id="edge4" class="edge">
<title>Node2&#45;&gt;Node5</title>
<path fill="none" stroke="midnightblue" d="M153.67,-56.32C171.39,-47.62 198.9,-34.12 219.29,-24.11"/>
<polygon fill="midnightblue" stroke="midnightblue" points="220.94,-27.2 228.37,-19.65 217.85,-20.92 220.94,-27.2"/>
</g>
<!-- Node6&#45;&gt;Node2 -->
<g id="edge6" class="edge">
<title>Node6&#45;&gt;Node2</title>
<path fill="none" stroke="midnightblue" d="M98.43,-112.08C104.85,-104.38 114.31,-93.03 122.12,-83.65"/>
<polygon fill="midnightblue" stroke="midnightblue" points="124.99,-85.67 128.71,-75.75 119.62,-81.19 124.99,-85.67"/>
</g>
<!-- Node7&#45;&gt;Node2 -->
<g id="edge8" class="edge">
<title>Node7&#45;&gt;Node2</title>
<path fill="none" stroke="midnightblue" d="M186.65,-224.48C214.69,-214.4 251.6,-195.44 240,-168 223.68,-129.39 184.57,-98.27 159.24,-81.24"/>
<polygon fill="midnightblue" stroke="midnightblue" points="160.89,-78.13 150.6,-75.61 157.07,-84 160.89,-78.13"/>
</g>
<!-- Node7&#45;&gt;Node6 -->
<g id="edge9" class="edge">
<title>Node7&#45;&gt;Node6</title>
<path fill="none" stroke="midnightblue" d="M141.76,-224.39C128.83,-216.64 111.41,-204.03 102,-188 93.76,-173.97 91.28,-155.47 90.7,-141.8"/>
<polygon fill="midnightblue" stroke="midnightblue" points="94.2,-141.61 90.58,-131.65 87.2,-141.69 94.2,-141.61"/>
</g>
<!-- Node8 -->
<g id="node8" class="node">
<title>Node8</title>
<g id="a_node8"><a xlink:href="CO__Emergency_8h.html" target="_top" xlink:title="CANopen Emergency protocol.">
<polygon fill="white" stroke="black" points="111.5,-168.5 111.5,-187.5 230.5,-187.5 230.5,-168.5 111.5,-168.5"/>
<text text-anchor="middle" x="171" y="-175.5" font-family="Helvetica,sans-Serif" font-size="10.00">301/CO_Emergency.h</text>
</a>
</g>
</g>
<!-- Node7&#45;&gt;Node8 -->
<g id="edge10" class="edge">
<title>Node7&#45;&gt;Node8</title>
<path fill="none" stroke="midnightblue" d="M160.15,-224.08C161.87,-216.93 164.35,-206.64 166.5,-197.69"/>
<polygon fill="midnightblue" stroke="midnightblue" points="169.96,-198.29 168.89,-187.75 163.15,-196.65 169.96,-198.29"/>
</g>
<!-- Node8&#45;&gt;Node2 -->
<g id="edge11" class="edge">
<title>Node8&#45;&gt;Node2</title>
<path fill="none" stroke="midnightblue" d="M170.85,-168.34C170.4,-155.65 168.66,-131.39 162,-112 158.67,-102.31 153.18,-92.36 148.1,-84.29"/>
<polygon fill="midnightblue" stroke="midnightblue" points="150.92,-82.21 142.48,-75.81 145.08,-86.08 150.92,-82.21"/>
</g>
<!-- Node8&#45;&gt;Node6 -->
<g id="edge12" class="edge">
<title>Node8&#45;&gt;Node6</title>
<path fill="none" stroke="midnightblue" d="M158.15,-168.32C145.78,-159.98 126.87,-147.21 112.26,-137.35"/>
<polygon fill="midnightblue" stroke="midnightblue" points="114.07,-134.35 103.82,-131.65 110.15,-140.15 114.07,-134.35"/>
</g>
</g>
</svg>
