<?xml version="1.0" encoding="UTF-8" standalone="no"?>
<!DOCTYPE svg PUBLIC "-//W3C//DTD SVG 1.1//EN"
 "http://www.w3.org/Graphics/SVG/1.1/DTD/svg11.dtd">
<!-- Generated by graphviz version 2.43.0 (0)
 -->
<!-- Title: 304/CO_SRDO.c Pages: 1 -->
<svg width="354pt" height="364pt"
 viewBox="0.00 0.00 353.73 364.00" xmlns="http://www.w3.org/2000/svg" xmlns:xlink="http://www.w3.org/1999/xlink">
<g id="graph0" class="graph" transform="scale(1 1) rotate(0) translate(4 360)">
<title>304/CO_SRDO.c</title>
<polygon fill="white" stroke="transparent" points="-4,4 -4,-360 349.73,-360 349.73,4 -4,4"/>
<!-- Node1 -->
<g id="node1" class="node">
<title>Node1</title>
<g id="a_node1"><a xlink:title="CANopen Safety Related Data Object protocol.">
<polygon fill="#bfbfbf" stroke="black" points="78.73,-336.5 78.73,-355.5 171.73,-355.5 171.73,-336.5 78.73,-336.5"/>
<text text-anchor="middle" x="125.23" y="-343.5" font-family="Helvetica,sans-Serif" font-size="10.00">304/CO_SRDO.c</text>
</a>
</g>
</g>
<!-- Node2 -->
<g id="node2" class="node">
<title>Node2</title>
<g id="a_node2"><a xlink:href="CO__SRDO_8h.html" target="_top" xlink:title="CANopen Safety Related Data Object protocol.">
<polygon fill="white" stroke="black" points="78.23,-280.5 78.23,-299.5 172.23,-299.5 172.23,-280.5 78.23,-280.5"/>
<text text-anchor="middle" x="125.23" y="-287.5" font-family="Helvetica,sans-Serif" font-size="10.00">304/CO_SRDO.h</text>
</a>
</g>
</g>
<!-- Node1&#45;&gt;Node2 -->
<g id="edge1" class="edge">
<title>Node1&#45;&gt;Node2</title>
<path fill="none" stroke="midnightblue" d="M125.23,-336.08C125.23,-329.01 125.23,-318.86 125.23,-309.99"/>
<polygon fill="midnightblue" stroke="midnightblue" points="128.73,-309.75 125.23,-299.75 121.73,-309.75 128.73,-309.75"/>
</g>
<!-- Node3 -->
<g id="node3" class="node">
<title>Node3</title>
<g id="a_node3"><a xlink:href="CO__driver_8h.html" target="_top" xlink:title="Interface between CAN hardware and CANopenNode.">
<polygon fill="white" stroke="black" points="99.73,-56.5 99.73,-75.5 194.73,-75.5 194.73,-56.5 99.73,-56.5"/>
<text text-anchor="middle" x="147.23" y="-63.5" font-family="Helvetica,sans-Serif" font-size="10.00">301/CO_driver.h</text>
</a>
</g>
</g>
<!-- Node2&#45;&gt;Node3 -->
<g id="edge2" class="edge">
<title>Node2&#45;&gt;Node3</title>
<path fill="none" stroke="midnightblue" d="M103.53,-280.4C62.25,-262.64 -21.22,-219.27 5.23,-168 28.02,-123.83 80.04,-94.76 114.39,-79.59"/>
<polygon fill="midnightblue" stroke="midnightblue" points="116.16,-82.64 124,-75.51 113.42,-76.2 116.16,-82.64"/>
</g>
<!-- Node7 -->
<g id="node7" class="node">
<title>Node7</title>
<g id="a_node7"><a xlink:href="CO__SDOserver_8h.html" target="_top" xlink:title="CANopen Service Data Object &#45; server protocol.">
<polygon fill="white" stroke="black" points="14.23,-168.5 14.23,-187.5 132.23,-187.5 132.23,-168.5 14.23,-168.5"/>
<text text-anchor="middle" x="73.23" y="-175.5" font-family="Helvetica,sans-Serif" font-size="10.00">301/CO_SDOserver.h</text>
</a>
</g>
</g>
<!-- Node2&#45;&gt;Node7 -->
<g id="edge6" class="edge">
<title>Node2&#45;&gt;Node7</title>
<path fill="none" stroke="midnightblue" d="M119.95,-280.19C114.67,-271.23 106.46,-256.87 100.23,-244 92.68,-228.38 85.19,-210.08 80.03,-196.89"/>
<polygon fill="midnightblue" stroke="midnightblue" points="83.29,-195.62 76.43,-187.55 76.76,-198.14 83.29,-195.62"/>
</g>
<!-- Node9 -->
<g id="node9" class="node">
<title>Node9</title>
<g id="a_node9"><a xlink:href="CO__Emergency_8h.html" target="_top" xlink:title="CANopen Emergency protocol.">
<polygon fill="white" stroke="black" points="226.73,-168.5 226.73,-187.5 345.73,-187.5 345.73,-168.5 226.73,-168.5"/>
<text text-anchor="middle" x="286.23" y="-175.5" font-family="Helvetica,sans-Serif" font-size="10.00">301/CO_Emergency.h</text>
</a>
</g>
</g>
<!-- Node2&#45;&gt;Node9 -->
<g id="edge10" class="edge">
<title>Node2&#45;&gt;Node9</title>
<path fill="none" stroke="midnightblue" d="M172.47,-283.95C201.68,-278.52 238.08,-267.29 262.23,-244 274.8,-231.88 280.84,-212.6 283.7,-198.18"/>
<polygon fill="midnightblue" stroke="midnightblue" points="287.22,-198.32 285.39,-187.89 280.32,-197.19 287.22,-198.32"/>
</g>
<!-- Node10 -->
<g id="node10" class="node">
<title>Node10</title>
<g id="a_node10"><a xlink:href="CO__NMT__Heartbeat_8h.html" target="_top" xlink:title="CANopen Network management and Heartbeat producer protocol.">
<polygon fill="white" stroke="black" points="109.73,-224.5 109.73,-243.5 252.73,-243.5 252.73,-224.5 109.73,-224.5"/>
<text text-anchor="middle" x="181.23" y="-231.5" font-family="Helvetica,sans-Serif" font-size="10.00">301/CO_NMT_Heartbeat.h</text>
</a>
</g>
</g>
<!-- Node2&#45;&gt;Node10 -->
<g id="edge13" class="edge">
<title>Node2&#45;&gt;Node10</title>
<path fill="none" stroke="midnightblue" d="M134.23,-280.32C142.43,-272.42 154.74,-260.55 164.7,-250.94"/>
<polygon fill="midnightblue" stroke="midnightblue" points="167.3,-253.29 172.07,-243.83 162.44,-248.26 167.3,-253.29"/>
</g>
<!-- Node4 -->
<g id="node4" class="node">
<title>Node4</title>
<g id="a_node4"><a xlink:title=" ">
<polygon fill="white" stroke="#bfbfbf" points="38.73,-0.5 38.73,-19.5 91.73,-19.5 91.73,-0.5 38.73,-0.5"/>
<text text-anchor="middle" x="65.23" y="-7.5" font-family="Helvetica,sans-Serif" font-size="10.00">string.h</text>
</a>
</g>
</g>
<!-- Node3&#45;&gt;Node4 -->
<g id="edge3" class="edge">
<title>Node3&#45;&gt;Node4</title>
<path fill="none" stroke="midnightblue" d="M134.06,-56.32C121.38,-47.98 102,-35.21 87.03,-25.35"/>
<polygon fill="midnightblue" stroke="midnightblue" points="88.65,-22.23 78.37,-19.65 84.8,-28.08 88.65,-22.23"/>
</g>
<!-- Node5 -->
<g id="node5" class="node">
<title>Node5</title>
<g id="a_node5"><a xlink:href="CO__config_8h.html" target="_top" xlink:title="Configuration macros for CANopenNode.">
<polygon fill="white" stroke="black" points="109.73,-0.5 109.73,-19.5 184.73,-19.5 184.73,-0.5 109.73,-0.5"/>
<text text-anchor="middle" x="147.23" y="-7.5" font-family="Helvetica,sans-Serif" font-size="10.00">CO_config.h</text>
</a>
</g>
</g>
<!-- Node3&#45;&gt;Node5 -->
<g id="edge4" class="edge">
<title>Node3&#45;&gt;Node5</title>
<path fill="none" stroke="midnightblue" d="M147.23,-56.08C147.23,-49.01 147.23,-38.86 147.23,-29.99"/>
<polygon fill="midnightblue" stroke="midnightblue" points="150.73,-29.75 147.23,-19.75 143.73,-29.75 150.73,-29.75"/>
</g>
<!-- Node6 -->
<g id="node6" class="node">
<title>Node6</title>
<g id="a_node6"><a xlink:title=" ">
<polygon fill="white" stroke="#bfbfbf" points="203.23,-0.5 203.23,-19.5 311.23,-19.5 311.23,-0.5 203.23,-0.5"/>
<text text-anchor="middle" x="257.23" y="-7.5" font-family="Helvetica,sans-Serif" font-size="10.00">CO_driver_target.h</text>
</a>
</g>
</g>
<!-- Node3&#45;&gt;Node6 -->
<g id="edge5" class="edge">
<title>Node3&#45;&gt;Node6</title>
<path fill="none" stroke="midnightblue" d="M164.91,-56.32C182.63,-47.62 210.13,-34.12 230.52,-24.11"/>
<polygon fill="midnightblue" stroke="midnightblue" points="232.17,-27.2 239.6,-19.65 229.08,-20.92 232.17,-27.2"/>
</g>
<!-- Node7&#45;&gt;Node3 -->
<g id="edge7" class="edge">
<title>Node7&#45;&gt;Node3</title>
<path fill="none" stroke="midnightblue" d="M79.04,-168.37C91.25,-150.22 119.78,-107.8 135.8,-83.99"/>
<polygon fill="midnightblue" stroke="midnightblue" points="138.77,-85.84 141.45,-75.59 132.97,-81.94 138.77,-85.84"/>
</g>
<!-- Node8 -->
<g id="node8" class="node">
<title>Node8</title>
<g id="a_node8"><a xlink:href="CO__ODinterface_8h.html" target="_top" xlink:title="CANopen Object Dictionary interface.">
<polygon fill="white" stroke="black" points="175.73,-112.5 175.73,-131.5 300.73,-131.5 300.73,-112.5 175.73,-112.5"/>
<text text-anchor="middle" x="238.23" y="-119.5" font-family="Helvetica,sans-Serif" font-size="10.00">301/CO_ODinterface.h</text>
</a>
</g>
</g>
<!-- Node7&#45;&gt;Node8 -->
<g id="edge8" class="edge">
<title>Node7&#45;&gt;Node8</title>
<path fill="none" stroke="midnightblue" d="M99.38,-168.44C127.26,-159.32 171.58,-144.81 202.63,-134.65"/>
<polygon fill="midnightblue" stroke="midnightblue" points="203.79,-137.95 212.21,-131.52 201.62,-131.3 203.79,-137.95"/>
</g>
<!-- Node8&#45;&gt;Node3 -->
<g id="edge9" class="edge">
<title>Node8&#45;&gt;Node3</title>
<path fill="none" stroke="midnightblue" d="M223.61,-112.32C209.28,-103.82 187.22,-90.73 170.48,-80.8"/>
<polygon fill="midnightblue" stroke="midnightblue" points="172.2,-77.75 161.82,-75.65 168.63,-83.77 172.2,-77.75"/>
</g>
<!-- Node9&#45;&gt;Node3 -->
<g id="edge11" class="edge">
<title>Node9&#45;&gt;Node3</title>
<path fill="none" stroke="midnightblue" d="M294.41,-168.21C305.77,-154.92 323.49,-129.42 310.23,-112 297.29,-95.01 246.41,-82.79 204.89,-75.42"/>
<polygon fill="midnightblue" stroke="midnightblue" points="205.28,-71.93 194.84,-73.69 204.1,-78.83 205.28,-71.93"/>
</g>
<!-- Node9&#45;&gt;Node8 -->
<g id="edge12" class="edge">
<title>Node9&#45;&gt;Node8</title>
<path fill="none" stroke="midnightblue" d="M278.31,-168.08C271.39,-160.3 261.17,-148.8 252.78,-139.37"/>
<polygon fill="midnightblue" stroke="midnightblue" points="255.27,-136.9 246.01,-131.75 250.04,-141.55 255.27,-136.9"/>
</g>
<!-- Node10&#45;&gt;Node3 -->
<g id="edge14" class="edge">
<title>Node10&#45;&gt;Node3</title>
<path fill="none" stroke="midnightblue" d="M179.4,-224.08C174.05,-197.95 158.34,-121.21 151.04,-85.58"/>
<polygon fill="midnightblue" stroke="midnightblue" points="154.42,-84.66 148.99,-75.57 147.56,-86.07 154.42,-84.66"/>
</g>
<!-- Node10&#45;&gt;Node8 -->
<g id="edge15" class="edge">
<title>Node10&#45;&gt;Node8</title>
<path fill="none" stroke="midnightblue" d="M185.7,-224.37C195.03,-206.38 216.7,-164.55 229.1,-140.63"/>
<polygon fill="midnightblue" stroke="midnightblue" points="232.29,-142.08 233.78,-131.59 226.07,-138.86 232.29,-142.08"/>
</g>
<!-- Node10&#45;&gt;Node9 -->
<g id="edge16" class="edge">
<title>Node10&#45;&gt;Node9</title>
<path fill="none" stroke="midnightblue" d="M198.1,-224.32C214.94,-215.66 241.04,-202.24 260.47,-192.25"/>
<polygon fill="midnightblue" stroke="midnightblue" points="262.11,-195.34 269.4,-187.65 258.91,-189.12 262.11,-195.34"/>
</g>
</g>
</svg>
