<?xml version="1.0" encoding="UTF-8" standalone="no"?>
<!DOCTYPE svg PUBLIC "-//W3C//DTD SVG 1.1//EN"
 "http://www.w3.org/Graphics/SVG/1.1/DTD/svg11.dtd">
<!-- Generated by graphviz version 2.43.0 (0)
 -->
<!-- Title: 309 Pages: 1 -->
<svg width="147pt" height="188pt"
 viewBox="0.00 0.00 146.53 188.00" xmlns="http://www.w3.org/2000/svg" xmlns:xlink="http://www.w3.org/1999/xlink">
<g id="graph0" class="graph" transform="scale(1 1) rotate(0) translate(4 184)">
<title>309</title>
<polygon fill="white" stroke="transparent" points="-4,4 -4,-184 142.53,-184 142.53,4 -4,4"/>
<!-- dir_77924ae5e158f0fe5749d81e75dc818c -->
<g id="node1" class="node">
<title>dir_77924ae5e158f0fe5749d81e75dc818c</title>
<g id="a_node1"><a xlink:href="dir_77924ae5e158f0fe5749d81e75dc818c.html" target="_top" xlink:title="309">
<polygon fill="#eeeeff" stroke="black" points="126,-180 72,-180 72,-144 126,-144 126,-180"/>
<text text-anchor="middle" x="99" y="-159.5" font-family="Helvetica,sans-Serif" font-size="10.00">309</text>
</a>
</g>
</g>
<!-- dir_6b9d3acb0ed2bca35694b645384363d3 -->
<g id="node2" class="node">
<title>dir_6b9d3acb0ed2bca35694b645384363d3</title>
<g id="a_node2"><a xlink:href="dir_6b9d3acb0ed2bca35694b645384363d3.html" target="_top" xlink:title="303">
<polygon fill="none" stroke="black" points="54,-108 0,-108 0,-72 54,-72 54,-108"/>
<text text-anchor="middle" x="27" y="-87.5" font-family="Helvetica,sans-Serif" font-size="10.00">303</text>
</a>
</g>
</g>
<!-- dir_77924ae5e158f0fe5749d81e75dc818c&#45;&gt;dir_6b9d3acb0ed2bca35694b645384363d3 -->
<g id="edge2" class="edge">
<title>dir_77924ae5e158f0fe5749d81e75dc818c&#45;&gt;dir_6b9d3acb0ed2bca35694b645384363d3</title>
<path fill="none" stroke="black" d="M81.2,-143.7C72.4,-135.14 61.62,-124.66 52,-115.3"/>
<polygon fill="black" stroke="black" points="54.2,-112.57 44.59,-108.1 49.32,-117.58 54.2,-112.57"/>
<g id="a_edge2&#45;headlabel"><a xlink:href="dir_000004_000001.html" target="_top" xlink:title="1">
<text text-anchor="middle" x="58.76" y="-110.54" font-family="Helvetica,sans-Serif" font-size="10.00">1</text>
</a>
</g>
</g>
<!-- dir_9d7b210e307d5785c6c2b238c23a336b -->
<g id="node3" class="node">
<title>dir_9d7b210e307d5785c6c2b238c23a336b</title>
<g id="a_node3"><a xlink:href="dir_9d7b210e307d5785c6c2b238c23a336b.html" target="_top" xlink:title="305">
<polygon fill="none" stroke="black" points="126,-108 72,-108 72,-72 126,-72 126,-108"/>
<text text-anchor="middle" x="99" y="-87.5" font-family="Helvetica,sans-Serif" font-size="10.00">305</text>
</a>
</g>
</g>
<!-- dir_77924ae5e158f0fe5749d81e75dc818c&#45;&gt;dir_9d7b210e307d5785c6c2b238c23a336b -->
<g id="edge3" class="edge">
<title>dir_77924ae5e158f0fe5749d81e75dc818c&#45;&gt;dir_9d7b210e307d5785c6c2b238c23a336b</title>
<path fill="none" stroke="black" d="M99,-143.7C99,-135.98 99,-126.71 99,-118.11"/>
<polygon fill="black" stroke="black" points="102.5,-118.1 99,-108.1 95.5,-118.1 102.5,-118.1"/>
<g id="a_edge3&#45;headlabel"><a xlink:href="dir_000004_000003.html" target="_top" xlink:title="1">
<text text-anchor="middle" x="105.34" y="-119.2" font-family="Helvetica,sans-Serif" font-size="10.00">1</text>
</a>
</g>
</g>
<!-- dir_f17b92000dd778003adbbcb6b5ce4226 -->
<g id="node4" class="node">
<title>dir_f17b92000dd778003adbbcb6b5ce4226</title>
<g id="a_node4"><a xlink:href="dir_f17b92000dd778003adbbcb6b5ce4226.html" target="_top" xlink:title="301">
<polygon fill="none" stroke="black" points="126,-36 72,-36 72,0 126,0 126,-36"/>
<text text-anchor="middle" x="99" y="-15.5" font-family="Helvetica,sans-Serif" font-size="10.00">301</text>
</a>
</g>
</g>
<!-- dir_77924ae5e158f0fe5749d81e75dc818c&#45;&gt;dir_f17b92000dd778003adbbcb6b5ce4226 -->
<g id="edge4" class="edge">
<title>dir_77924ae5e158f0fe5749d81e75dc818c&#45;&gt;dir_f17b92000dd778003adbbcb6b5ce4226</title>
<path fill="none" stroke="black" d="M114.61,-143.77C122.37,-134.03 130.95,-121.18 135,-108 139.7,-92.71 139.7,-87.29 135,-72 131.99,-62.22 126.49,-52.62 120.68,-44.33"/>
<polygon fill="black" stroke="black" points="123.41,-42.13 114.61,-36.23 117.81,-46.33 123.41,-42.13"/>
<g id="a_edge4&#45;headlabel"><a xlink:href="dir_000004_000000.html" target="_top" xlink:title="4">
<text text-anchor="middle" x="127.83" y="-40.8" font-family="Helvetica,sans-Serif" font-size="10.00">4</text>
</a>
</g>
</g>
<!-- dir_6b9d3acb0ed2bca35694b645384363d3&#45;&gt;dir_f17b92000dd778003adbbcb6b5ce4226 -->
<g id="edge1" class="edge">
<title>dir_6b9d3acb0ed2bca35694b645384363d3&#45;&gt;dir_f17b92000dd778003adbbcb6b5ce4226</title>
<path fill="none" stroke="black" d="M44.8,-71.7C53.6,-63.14 64.38,-52.66 74,-43.3"/>
<polygon fill="black" stroke="black" points="76.68,-45.58 81.41,-36.1 71.8,-40.57 76.68,-45.58"/>
<g id="a_edge1&#45;headlabel"><a xlink:href="dir_000001_000000.html" target="_top" xlink:title="2">
<text text-anchor="middle" x="76.08" y="-47.63" font-family="Helvetica,sans-Serif" font-size="10.00">2</text>
</a>
</g>
</g>
<!-- dir_9d7b210e307d5785c6c2b238c23a336b&#45;&gt;dir_f17b92000dd778003adbbcb6b5ce4226 -->
<g id="edge5" class="edge">
<title>dir_9d7b210e307d5785c6c2b238c23a336b&#45;&gt;dir_f17b92000dd778003adbbcb6b5ce4226</title>
<path fill="none" stroke="black" d="M99,-71.7C99,-63.98 99,-54.71 99,-46.11"/>
<polygon fill="black" stroke="black" points="102.5,-46.1 99,-36.1 95.5,-46.1 102.5,-46.1"/>
<g id="a_edge5&#45;headlabel"><a xlink:href="dir_000003_000000.html" target="_top" xlink:title="1">
<text text-anchor="middle" x="105.34" y="-47.2" font-family="Helvetica,sans-Serif" font-size="10.00">1</text>
</a>
</g>
</g>
</g>
</svg>
