<?xml version="1.0" encoding="UTF-8" standalone="no"?>
<!DOCTYPE svg PUBLIC "-//W3C//DTD SVG 1.1//EN"
 "http://www.w3.org/Graphics/SVG/1.1/DTD/svg11.dtd">
<!-- Generated by graphviz version 2.43.0 (0)
 -->
<!-- Title: Stack configuration Pages: 1 -->
<!--zoomable 641 -->

<svg id="main" version="1.1" xmlns="http://www.w3.org/2000/svg" xmlns:xlink="http://www.w3.org/1999/xlink" xml:space="preserve" onload="init(evt)">
<style type="text/css"><![CDATA[
.node, .edge {opacity: 0.7;}
.node.selected, .edge.selected {opacity: 1;}
.edge:hover path { stroke: red; }
.edge:hover polygon { stroke: red; fill: red; }
]]></style>

<defs>
  <circle id="rim" cx="0" cy="0" r="7"/>
  <circle id="rim2" cx="0" cy="0" r="3.5"/>
  <g id="zoomPlus">
    <use xlink:href="#rim" fill="#404040"><set attributeName="fill" to="#808080" begin="zoomplus.mouseover" end="zoomplus.mouseout"/></use>
    <path d="M-4,0h8M0,-4v8" fill="none" stroke="white" stroke-width="1.5" pointer-events="none"/>
  </g>
  <g id="zoomMin">
    <use xlink:href="#rim" fill="#404040"><set attributeName="fill" to="#808080" begin="zoomminus.mouseover" end="zoomminus.mouseout"/></use>
    <path d="M-4,0h8" fill="none" stroke="white" stroke-width="1.5" pointer-events="none"/>
  </g>
  <g id="arrowUp" transform="translate(30 24)">
    <use xlink:href="#rim"/>
    <path pointer-events="none" fill="none" stroke="white" stroke-width="1.5" d="M0,-3.0v7 M-2.5,-0.5L0,-3.0L2.5,-0.5"/>
  </g>
  <g id="arrowRight" transform="rotate(90) translate(36 -43)">
    <use xlink:href="#rim"/>
    <path pointer-events="none" fill="none" stroke="white" stroke-width="1.5" d="M0,-3.0v7 M-2.5,-0.5L0,-3.0L2.5,-0.5"/>
  </g>
  <g id="arrowDown" transform="rotate(180) translate(-30 -48)">
    <use xlink:href="#rim"/>
    <path pointer-events="none" fill="none" stroke="white" stroke-width="1.5" d="M0,-3.0v7 M-2.5,-0.5L0,-3.0L2.5,-0.5"/>
  </g>
  <g id="arrowLeft" transform="rotate(270) translate(-36 17)">
    <use xlink:href="#rim"/>
    <path pointer-events="none" fill="none" stroke="white" stroke-width="1.5" d="M0,-3.0v7 M-2.5,-0.5L0,-3.0L2.5,-0.5"/>
  </g>
  <g id="resetDef">
    <use xlink:href="#rim2" fill="#404040"><set attributeName="fill" to="#808080" begin="reset.mouseover" end="reset.mouseout"/></use>
  </g>
</defs>
<script type="application/ecmascript">
var viewWidth = 384;
var viewHeight = 641;
var sectionId = 'dynsection-0';
</script>
<script type="application/ecmascript" xlink:href="svg.min.js"/>
<svg id="graph" class="graph">
<g id="viewport">
<title>Stack configuration</title>
<!-- Node1 -->
<g id="Node000001" class="node">
<title>Node1</title>
<g id="a_Node000001"><a xlink:title="Stack configuration and enabling macros.">
<polygon fill="#999999" stroke="#666666" points="194,-340 83,-340 83,-321 194,-321 194,-340"/>
<text text-anchor="middle" x="138.5" y="-328" font-family="Helvetica,sans-Serif" font-size="10.00">Stack configuration</text>
</a>
</g>
</g>
<!-- Node3 -->
<g id="Node000003" class="node">
<title>Node3</title>
<g id="a_Node000003"><a xlink:href="group__CO__STACK__CONFIG__COMMON.html" target="_top" xlink:title="Constants for common definitions.">
<polygon fill="white" stroke="#666666" points="361,-633 245,-633 245,-614 361,-614 361,-633"/>
<text text-anchor="middle" x="303" y="-621" font-family="Helvetica,sans-Serif" font-size="10.00">Common definitions</text>
</a>
</g>
</g>
<!-- Node1&#45;&gt;Node3 -->
<g id="edge2" class="edge">
<title>Node1&#45;&gt;Node3</title>
<path fill="none" stroke="black" d="M139.84,-350.18C141.84,-400.56 154.35,-535.18 230,-605.5 234.34,-609.54 239.45,-612.7 244.9,-615.18"/>
<polygon fill="black" stroke="black" points="143.34,-349.9 139.55,-340.01 136.34,-350.11 143.34,-349.9"/>
</g>
<!-- Node15 -->
<g id="Node000015" class="node">
<title>Node15</title>
<g id="a_Node000015"><a xlink:href="group__CO__STACK__CONFIG__CRC16.html" target="_top" xlink:title="Helper object for CRC&#45;16 checksum">
<polygon fill="white" stroke="#666666" points="357,-596 249,-596 249,-577 357,-577 357,-596"/>
<text text-anchor="middle" x="303" y="-584" font-family="Helvetica,sans-Serif" font-size="10.00">CRC 16 calculation</text>
</a>
</g>
</g>
<!-- Node1&#45;&gt;Node15 -->
<g id="edge14" class="edge">
<title>Node1&#45;&gt;Node15</title>
<path fill="none" stroke="black" d="M141.04,-350.59C145.67,-396.46 163.57,-509.51 230,-568.5 235.39,-573.29 241.87,-576.85 248.71,-579.48"/>
<polygon fill="black" stroke="black" points="144.51,-350.09 140.13,-340.45 137.54,-350.72 144.51,-350.09"/>
</g>
<!-- Node18 -->
<g id="Node000018" class="node">
<title>Node18</title>
<g id="a_Node000018"><a xlink:href="group__CO__STACK__CONFIG__DEBUG.html" target="_top" xlink:title="Messages from different parts of the stack.">
<polygon fill="white" stroke="#666666" points="353.5,-559 252.5,-559 252.5,-540 353.5,-540 353.5,-559"/>
<text text-anchor="middle" x="303" y="-547" font-family="Helvetica,sans-Serif" font-size="10.00">Debug messages</text>
</a>
</g>
</g>
<!-- Node1&#45;&gt;Node18 -->
<g id="edge17" class="edge">
<title>Node1&#45;&gt;Node18</title>
<path fill="none" stroke="black" d="M142.62,-350.04C150.09,-390.16 172.81,-482.14 230,-530.5 236.42,-535.93 244.22,-539.82 252.28,-542.61"/>
<polygon fill="black" stroke="black" points="146.07,-349.43 140.91,-340.18 139.17,-350.63 146.07,-349.43"/>
</g>
<!-- Node6 -->
<g id="Node000006" class="node">
<title>Node6</title>
<g id="a_Node000006"><a xlink:href="group__CO__STACK__CONFIG__EMERGENCY.html" target="_top" xlink:title="Specified in standard CiA 301">
<polygon fill="white" stroke="#666666" points="361.5,-521.5 244.5,-521.5 244.5,-491.5 361.5,-491.5 361.5,-521.5"/>
<text text-anchor="start" x="252.5" y="-509.5" font-family="Helvetica,sans-Serif" font-size="10.00">Emergency producer</text>
<text text-anchor="middle" x="303" y="-498.5" font-family="Helvetica,sans-Serif" font-size="10.00">/consumer</text>
</a>
</g>
</g>
<!-- Node1&#45;&gt;Node6 -->
<g id="edge5" class="edge">
<title>Node1&#45;&gt;Node6</title>
<path fill="none" stroke="black" d="M145.95,-349.89C157.63,-382.07 185.29,-446.51 230,-482.5 234.31,-485.97 239.15,-488.95 244.22,-491.5"/>
<polygon fill="black" stroke="black" points="149.21,-348.59 142.6,-340.3 142.6,-350.9 149.21,-348.59"/>
</g>
<!-- Node16 -->
<g id="Node000016" class="node">
<title>Node16</title>
<g id="a_Node000016"><a xlink:href="group__CO__STACK__CONFIG__FIFO.html" target="_top" xlink:title="Helper object for FIFO buffer">
<polygon fill="white" stroke="#666666" points="338.5,-473 267.5,-473 267.5,-454 338.5,-454 338.5,-473"/>
<text text-anchor="middle" x="303" y="-461" font-family="Helvetica,sans-Serif" font-size="10.00">FIFO buffer</text>
</a>
</g>
</g>
<!-- Node1&#45;&gt;Node16 -->
<g id="edge15" class="edge">
<title>Node1&#45;&gt;Node16</title>
<path fill="none" stroke="black" d="M149.14,-349.42C163.29,-375.21 192.16,-421 230,-445.5 241.03,-452.64 254.7,-456.95 267.16,-459.55"/>
<polygon fill="black" stroke="black" points="152.08,-347.49 144.3,-340.3 145.9,-350.77 152.08,-347.49"/>
</g>
<!-- Node14 -->
<g id="Node000014" class="node">
<title>Node14</title>
<g id="a_Node000014"><a xlink:href="group__CO__STACK__CONFIG__GATEWAY.html" target="_top" xlink:title="Specified in standard CiA 309">
<polygon fill="white" stroke="#666666" points="356.5,-436 249.5,-436 249.5,-417 356.5,-417 356.5,-436"/>
<text text-anchor="middle" x="303" y="-424" font-family="Helvetica,sans-Serif" font-size="10.00">CANopen gateway</text>
</a>
</g>
</g>
<!-- Node1&#45;&gt;Node14 -->
<g id="edge13" class="edge">
<title>Node1&#45;&gt;Node14</title>
<path fill="none" stroke="black" d="M154.49,-347.45C171.19,-365.27 199.82,-392.86 230,-408.5 236.52,-411.88 243.71,-414.65 250.94,-416.91"/>
<polygon fill="black" stroke="black" points="157.03,-345.04 147.7,-340.02 151.87,-349.77 157.03,-345.04"/>
</g>
<!-- Node11 -->
<g id="Node000011" class="node">
<title>Node11</title>
<g id="a_Node000011"><a xlink:href="group__CO__STACK__CONFIG__LEDS.html" target="_top" xlink:title="Specified in standard CiA 303&#45;3">
<polygon fill="white" stroke="#666666" points="362.5,-399 243.5,-399 243.5,-380 362.5,-380 362.5,-399"/>
<text text-anchor="middle" x="303" y="-387" font-family="Helvetica,sans-Serif" font-size="10.00">CANopen LED diodes</text>
</a>
</g>
</g>
<!-- Node1&#45;&gt;Node11 -->
<g id="edge10" class="edge">
<title>Node1&#45;&gt;Node11</title>
<path fill="none" stroke="black" d="M167.31,-344.68C184.94,-353.27 208.42,-363.98 230,-371.5 239.13,-374.68 249.08,-377.54 258.6,-380"/>
<polygon fill="black" stroke="black" points="168.68,-341.45 158.16,-340.16 165.58,-347.72 168.68,-341.45"/>
</g>
<!-- Node13 -->
<g id="Node000013" class="node">
<title>Node13</title>
<g id="a_Node000013"><a xlink:href="group__CO__STACK__CONFIG__LSS.html" target="_top" xlink:title="Specified in standard CiA 305">
<polygon fill="white" stroke="#666666" points="353.5,-362 252.5,-362 252.5,-343 353.5,-343 353.5,-362"/>
<text text-anchor="middle" x="303" y="-350" font-family="Helvetica,sans-Serif" font-size="10.00">LSS master/slave</text>
</a>
</g>
</g>
<!-- Node1&#45;&gt;Node13 -->
<g id="edge12" class="edge">
<title>Node1&#45;&gt;Node13</title>
<path fill="none" stroke="black" d="M204.38,-339.28C220.32,-341.44 237.14,-343.72 252.23,-345.76"/>
<polygon fill="black" stroke="black" points="204.44,-335.76 194.06,-337.89 203.5,-342.7 204.44,-335.76"/>
</g>
<!-- Node4 -->
<g id="Node000004" class="node">
<title>Node4</title>
<g id="a_Node000004"><a xlink:href="group__CO__STACK__CONFIG__NMT__HB.html" target="_top" xlink:title="Specified in standard CiA 301">
<polygon fill="white" stroke="#666666" points="368.5,-324.5 237.5,-324.5 237.5,-294.5 368.5,-294.5 368.5,-324.5"/>
<text text-anchor="start" x="245.5" y="-312.5" font-family="Helvetica,sans-Serif" font-size="10.00">NMT master/slave and</text>
<text text-anchor="middle" x="303" y="-301.5" font-family="Helvetica,sans-Serif" font-size="10.00"> HB producer/consumer</text>
</a>
</g>
</g>
<!-- Node1&#45;&gt;Node4 -->
<g id="edge3" class="edge">
<title>Node1&#45;&gt;Node4</title>
<path fill="none" stroke="black" d="M204.02,-322.16C215.02,-320.74 226.45,-319.26 237.45,-317.84"/>
<polygon fill="black" stroke="black" points="203.53,-318.7 194.06,-323.45 204.43,-325.64 203.53,-318.7"/>
</g>
<!-- Node5 -->
<g id="Node000005" class="node">
<title>Node5</title>
<g id="a_Node000005"><a xlink:href="group__CO__STACK__CONFIG__NODE__GUARDING.html" target="_top" xlink:title="Specified in standard CiA 301">
<polygon fill="white" stroke="#666666" points="376,-276.5 230,-276.5 230,-246.5 376,-246.5 376,-276.5"/>
<text text-anchor="start" x="238" y="-264.5" font-family="Helvetica,sans-Serif" font-size="10.00">CANopen Node Guarding</text>
<text text-anchor="middle" x="303" y="-253.5" font-family="Helvetica,sans-Serif" font-size="10.00"> slave and master objects.</text>
</a>
</g>
</g>
<!-- Node1&#45;&gt;Node5 -->
<g id="edge4" class="edge">
<title>Node1&#45;&gt;Node5</title>
<path fill="none" stroke="black" d="M166.03,-316.08C183.84,-306.71 207.97,-294.6 230,-285.5 237.55,-282.38 245.67,-279.37 253.63,-276.59"/>
<polygon fill="black" stroke="black" points="164.04,-313.18 156.85,-320.96 167.32,-319.36 164.04,-313.18"/>
</g>
<!-- Node7 -->
<g id="Node000007" class="node">
<title>Node7</title>
<g id="a_Node000007"><a xlink:href="group__CO__STACK__CONFIG__SDO.html" target="_top" xlink:title="Specified in standard CiA 301">
<polygon fill="white" stroke="#666666" points="353.5,-228 252.5,-228 252.5,-209 353.5,-209 353.5,-228"/>
<text text-anchor="middle" x="303" y="-216" font-family="Helvetica,sans-Serif" font-size="10.00">SDO server/client</text>
</a>
</g>
</g>
<!-- Node1&#45;&gt;Node7 -->
<g id="edge6" class="edge">
<title>Node1&#45;&gt;Node7</title>
<path fill="none" stroke="black" d="M151.91,-312.84C167.66,-291.74 196.81,-256.88 230,-237.5 236.81,-233.52 244.46,-230.36 252.17,-227.86"/>
<polygon fill="black" stroke="black" points="149.06,-310.8 146,-320.95 154.72,-314.92 149.06,-310.8"/>
</g>
<!-- Node12 -->
<g id="Node000012" class="node">
<title>Node12</title>
<g id="a_Node000012"><a xlink:href="group__CO__STACK__CONFIG__SRDO.html" target="_top" xlink:title="Specified in standard EN 50325&#45;5 (CiA 304)">
<polygon fill="white" stroke="#666666" points="360.5,-190.5 245.5,-190.5 245.5,-160.5 360.5,-160.5 360.5,-190.5"/>
<text text-anchor="start" x="253.5" y="-178.5" font-family="Helvetica,sans-Serif" font-size="10.00">Safety Related Data</text>
<text text-anchor="middle" x="303" y="-167.5" font-family="Helvetica,sans-Serif" font-size="10.00"> Objects (SRDO)</text>
</a>
</g>
</g>
<!-- Node1&#45;&gt;Node12 -->
<g id="edge11" class="edge">
<title>Node1&#45;&gt;Node12</title>
<path fill="none" stroke="black" d="M147.8,-311.42C161.1,-282.99 189.84,-229.65 230,-199.5 234.64,-196.02 239.81,-193.03 245.19,-190.46"/>
<polygon fill="black" stroke="black" points="144.54,-310.12 143.6,-320.67 150.92,-313.01 144.54,-310.12"/>
</g>
<!-- Node10 -->
<g id="Node000010" class="node">
<title>Node10</title>
<g id="a_Node000010"><a xlink:href="group__CO__STACK__CONFIG__STORAGE.html" target="_top" xlink:title="Data storage with CANopen OD objects 1010 and 1011, CiA 301">
<polygon fill="white" stroke="#666666" points="343,-142 263,-142 263,-123 343,-123 343,-142"/>
<text text-anchor="middle" x="303" y="-130" font-family="Helvetica,sans-Serif" font-size="10.00">Data storage</text>
</a>
</g>
</g>
<!-- Node1&#45;&gt;Node10 -->
<g id="edge9" class="edge">
<title>Node1&#45;&gt;Node10</title>
<path fill="none" stroke="black" d="M143.75,-311.01C152.84,-274.07 177.75,-193.78 230,-151.5 239.35,-143.94 251.4,-139.36 262.97,-136.6"/>
<polygon fill="black" stroke="black" points="140.28,-310.46 141.42,-321 147.1,-312.05 140.28,-310.46"/>
</g>
<!-- Node9 -->
<g id="Node000009" class="node">
<title>Node9</title>
<g id="a_Node000009"><a xlink:href="group__CO__STACK__CONFIG__SYNC__PDO.html" target="_top" xlink:title="Specified in standard CiA 301">
<polygon fill="white" stroke="#666666" points="370,-104.5 236,-104.5 236,-74.5 370,-74.5 370,-104.5"/>
<text text-anchor="start" x="244" y="-92.5" font-family="Helvetica,sans-Serif" font-size="10.00">SYNC and PDO producer</text>
<text text-anchor="middle" x="303" y="-81.5" font-family="Helvetica,sans-Serif" font-size="10.00">/consumer</text>
</a>
</g>
</g>
<!-- Node1&#45;&gt;Node9 -->
<g id="edge8" class="edge">
<title>Node1&#45;&gt;Node9</title>
<path fill="none" stroke="black" d="M142.23,-310.51C149.07,-268.1 170.84,-168.48 230,-113.5 233.67,-110.09 237.83,-107.17 242.27,-104.66"/>
<polygon fill="black" stroke="black" points="138.73,-310.25 140.71,-320.66 145.65,-311.29 138.73,-310.25"/>
</g>
<!-- Node8 -->
<g id="Node000008" class="node">
<title>Node8</title>
<g id="a_Node000008"><a xlink:href="group__CO__STACK__CONFIG__TIME.html" target="_top" xlink:title="Specified in standard CiA 301">
<polygon fill="white" stroke="#666666" points="371.5,-56 234.5,-56 234.5,-37 371.5,-37 371.5,-56"/>
<text text-anchor="middle" x="303" y="-44" font-family="Helvetica,sans-Serif" font-size="10.00">Time producer/consumer</text>
</a>
</g>
</g>
<!-- Node1&#45;&gt;Node8 -->
<g id="edge7" class="edge">
<title>Node1&#45;&gt;Node8</title>
<path fill="none" stroke="black" d="M140.2,-310.6C143.03,-261.41 157.38,-133.14 230,-65.5 234.16,-61.62 239.02,-58.52 244.21,-56.03"/>
<polygon fill="black" stroke="black" points="136.69,-310.69 139.71,-320.84 143.68,-311.02 136.69,-310.69"/>
</g>
<!-- Node17 -->
<g id="Node000017" class="node">
<title>Node17</title>
<g id="a_Node000017"><a xlink:href="group__CO__STACK__CONFIG__TRACE.html" target="_top" xlink:title="Non standard object">
<polygon fill="white" stroke="#666666" points="346,-19 260,-19 260,0 346,0 346,-19"/>
<text text-anchor="middle" x="303" y="-7" font-family="Helvetica,sans-Serif" font-size="10.00">Trace recorder</text>
</a>
</g>
</g>
<!-- Node1&#45;&gt;Node17 -->
<g id="edge16" class="edge">
<title>Node1&#45;&gt;Node17</title>
<path fill="none" stroke="black" d="M139.15,-310.67C139.32,-256.76 147.54,-106.31 230,-27.5 238.1,-19.75 249.02,-15.2 259.89,-12.55"/>
<polygon fill="black" stroke="black" points="135.65,-310.93 139.21,-320.91 142.65,-310.89 135.65,-310.93"/>
</g>
<!-- Node2 -->
<g id="Node000002" class="node">
<title>Node2</title>
<g id="a_Node000002"><a xlink:href="group__CO__driver.html" target="_top" xlink:title="Interface between CAN hardware and CANopenNode.">
<polygon fill="white" stroke="#666666" points="47,-340 0,-340 0,-321 47,-321 47,-340"/>
<text text-anchor="middle" x="23.5" y="-328" font-family="Helvetica,sans-Serif" font-size="10.00">Driver</text>
</a>
</g>
</g>
<!-- Node2&#45;&gt;Node1 -->
<g id="edge1" class="edge">
<title>Node2&#45;&gt;Node1</title>
<path fill="none" stroke="black" d="M57.11,-330.5C65.13,-330.5 73.93,-330.5 82.68,-330.5"/>
<polygon fill="black" stroke="black" points="57.1,-327 47.1,-330.5 57.1,-334 57.1,-327"/>
</g>
</g>
</svg>

<g id="navigator" transform="translate(0 0)" fill="#404254">
  <rect fill="#f2f5e9" fill-opacity="0.5" stroke="#606060" stroke-width=".5" x="0" y="0" width="60" height="60"/>
  <use id="zoomplus" xlink:href="#zoomPlus" x="17" y="9" onmousedown="handleZoom(evt,'in')"/>
  <use id="zoomminus" xlink:href="#zoomMin" x="42" y="9" onmousedown="handleZoom(evt,'out')"/>
  <use id="reset" xlink:href="#resetDef" x="30" y="36" onmousedown="handleReset()"/>
   <use id="arrowup" xlink:href="#arrowUp" x="0" y="0" onmousedown="handlePan(0,-1)"/>
  <use id="arrowright" xlink:href="#arrowRight" x="0" y="0" onmousedown="handlePan(1,0)"/>
  <use id="arrowdown" xlink:href="#arrowDown" x="0" y="0" onmousedown="handlePan(0,1)"/>
  <use id="arrowleft" xlink:href="#arrowLeft" x="0" y="0" onmousedown="handlePan(-1,0)"/>
</g>
<svg viewBox="0 0 15 15" width="100%" height="30px" preserveAspectRatio="xMaxYMin meet">
 <g id="arrow_out" transform="scale(0.3 0.3)">
  <a xlink:href="group__CO__STACK__CONFIG_org.svg" target="_base">
   <rect id="button" ry="5" rx="5" y="6" x="6" height="38" width="38"
        fill="#f2f5e9" fill-opacity="0.5" stroke="#606060" stroke-width="1.0"/>
   <path id="arrow"
     d="M 11.500037,31.436501 C 11.940474,20.09759 22.043105,11.32322 32.158766,21.979434 L 37.068811,17.246167 C 37.068811,17.246167 37.088388,32 37.088388,32 L 22.160133,31.978069 C 22.160133,31.978069 26.997745,27.140456 26.997745,27.140456 C 18.528582,18.264221 13.291696,25.230495 11.500037,31.436501 z"
     style="fill:#404040;"/>
  </a>
 </g>
</svg>

<style type='text/css'>
<![CDATA[
[data-mouse-over-selected='false'] { opacity: 0.7; }
[data-mouse-over-selected='true']  { opacity: 1.0; }
]]>
</style>
<script type="application/ecmascript"><![CDATA[
document.addEventListener('DOMContentLoaded', (event) => {
  highlightEdges();
  highlightAdjacentNodes();
});
]]></script>
</svg>
