<?xml version="1.0" encoding="UTF-8" standalone="no"?>
<!DOCTYPE svg PUBLIC "-//W3C//DTD SVG 1.1//EN"
 "http://www.w3.org/Graphics/SVG/1.1/DTD/svg11.dtd">
<!-- Generated by graphviz version 2.43.0 (0)
 -->
<!-- Title: CANopen_305 Pages: 1 -->
<svg width="200pt" height="101pt"
 viewBox="0.00 0.00 200.00 101.00" xmlns="http://www.w3.org/2000/svg" xmlns:xlink="http://www.w3.org/1999/xlink">
<g id="graph0" class="graph" transform="scale(1 1) rotate(0) translate(4 97)">
<title>CANopen_305</title>
<polygon fill="white" stroke="transparent" points="-4,4 -4,-97 196,-97 196,4 -4,4"/>
<!-- Node4 -->
<g id="node1" class="node">
<title>Node4</title>
<g id="a_node1"><a xlink:href="group__CO__LSSslave.html" target="_top" xlink:title="CANopen Layer Setting Service &#45; slave protocol.">
<polygon fill="white" stroke="black" points="188.5,-93 124.5,-93 124.5,-74 188.5,-74 188.5,-93"/>
<text text-anchor="middle" x="156.5" y="-81" font-family="Helvetica,sans-Serif" font-size="10.00">LSS Slave</text>
</a>
</g>
</g>
<!-- Node2 -->
<g id="node2" class="node">
<title>Node2</title>
<g id="a_node2"><a xlink:href="group__CO__LSS.html" target="_top" xlink:title="CANopen Layer Setting Services protocol (common).">
<polygon fill="white" stroke="black" points="173.5,-56 139.5,-56 139.5,-37 173.5,-37 173.5,-56"/>
<text text-anchor="middle" x="156.5" y="-44" font-family="Helvetica,sans-Serif" font-size="10.00">LSS</text>
</a>
</g>
</g>
<!-- Node3 -->
<g id="node3" class="node">
<title>Node3</title>
<g id="a_node3"><a xlink:href="group__CO__LSSmaster.html" target="_top" xlink:title="CANopen Layer Setting Service &#45; master protocol.">
<polygon fill="white" stroke="black" points="192,-19 121,-19 121,0 192,0 192,-19"/>
<text text-anchor="middle" x="156.5" y="-7" font-family="Helvetica,sans-Serif" font-size="10.00">LSS Master</text>
</a>
</g>
</g>
<!-- Node1 -->
<g id="node4" class="node">
<title>Node1</title>
<g id="a_node4"><a xlink:title="CANopen layer setting services (LSS) and protocols (CiA 305 DSP v3.0.0)">
<polygon fill="#bfbfbf" stroke="black" points="85,-56 0,-56 0,-37 85,-37 85,-56"/>
<text text-anchor="middle" x="42.5" y="-44" font-family="Helvetica,sans-Serif" font-size="10.00">CANopen_305</text>
</a>
</g>
</g>
<!-- Node1&#45;&gt;Node4 -->
<g id="edge3" class="edge">
<title>Node1&#45;&gt;Node4</title>
<path fill="none" stroke="black" d="M82.06,-59.24C96.59,-64.04 112.84,-69.41 126.37,-73.88"/>
<polygon fill="black" stroke="black" points="82.94,-55.84 72.34,-56.03 80.74,-62.49 82.94,-55.84"/>
</g>
<!-- Node1&#45;&gt;Node2 -->
<g id="edge1" class="edge">
<title>Node1&#45;&gt;Node2</title>
<path fill="none" stroke="black" d="M95.57,-46.5C111.51,-46.5 127.89,-46.5 139.48,-46.5"/>
<polygon fill="black" stroke="black" points="95.2,-43 85.2,-46.5 95.2,-50 95.2,-43"/>
</g>
<!-- Node1&#45;&gt;Node3 -->
<g id="edge2" class="edge">
<title>Node1&#45;&gt;Node3</title>
<path fill="none" stroke="black" d="M82.06,-33.76C96.59,-28.96 112.84,-23.59 126.37,-19.12"/>
<polygon fill="black" stroke="black" points="80.74,-30.51 72.34,-36.97 82.94,-37.16 80.74,-30.51"/>
</g>
</g>
</svg>
