<?xml version="1.0" encoding="UTF-8" standalone="no"?>
<!DOCTYPE svg PUBLIC "-//W3C//DTD SVG 1.1//EN"
 "http://www.w3.org/Graphics/SVG/1.1/DTD/svg11.dtd">
<!-- Generated by graphviz version 2.43.0 (0)
 -->
<!-- Title: NMT and Heartbeat Pages: 1 -->
<svg width="407pt" height="38pt"
 viewBox="0.00 0.00 407.00 38.00" xmlns="http://www.w3.org/2000/svg" xmlns:xlink="http://www.w3.org/1999/xlink">
<g id="graph0" class="graph" transform="scale(1 1) rotate(0) translate(4 34)">
<title>NMT and Heartbeat</title>
<!-- Node2 -->
<g id="Node000002" class="node">
<title>Node2</title>
<g id="a_Node000002"><a xlink:href="group__CO__CANopen__301.html" target="_top" xlink:title=" ">
<polygon fill="white" stroke="#666666" points="85,-24.5 0,-24.5 0,-5.5 85,-5.5 85,-24.5"/>
<text text-anchor="middle" x="42.5" y="-12.5" font-family="Helvetica,sans-Serif" font-size="10.00">CANopen_301</text>
</a>
</g>
</g>
<!-- Node1 -->
<g id="Node000001" class="node">
<title>Node1</title>
<g id="a_Node000001"><a xlink:title="CANopen Network management and Heartbeat producer protocol.">
<polygon fill="#999999" stroke="#666666" points="233,-24.5 121,-24.5 121,-5.5 233,-5.5 233,-24.5"/>
<text text-anchor="middle" x="177" y="-12.5" font-family="Helvetica,sans-Serif" font-size="10.00">NMT and Heartbeat</text>
</a>
</g>
</g>
<!-- Node2&#45;&gt;Node1 -->
<g id="edge1" class="edge">
<title>Node2&#45;&gt;Node1</title>
<path fill="none" stroke="black" d="M95.18,-15C103.64,-15 112.44,-15 120.98,-15"/>
<polygon fill="black" stroke="black" points="95.06,-11.5 85.06,-15 95.06,-18.5 95.06,-11.5"/>
</g>
<!-- Node3 -->
<g id="Node000003" class="node">
<title>Node3</title>
<g id="a_Node000003"><a xlink:href="group__CO__NMT__control__t.html" target="_top" xlink:title=" ">
<polygon fill="white" stroke="#666666" points="399,-30 269,-30 269,0 399,0 399,-30"/>
<text text-anchor="start" x="277" y="-18" font-family="Helvetica,sans-Serif" font-size="10.00">NMT control bitfield</text>
<text text-anchor="middle" x="334" y="-7" font-family="Helvetica,sans-Serif" font-size="10.00"> for NMT internal state.</text>
</a>
</g>
</g>
<!-- Node1&#45;&gt;Node3 -->
<g id="edge2" class="edge">
<title>Node1&#45;&gt;Node3</title>
<path fill="none" stroke="black" d="M243.27,-15C251.73,-15 260.39,-15 268.83,-15"/>
<polygon fill="black" stroke="black" points="243.08,-11.5 233.08,-15 243.08,-18.5 243.08,-11.5"/>
</g>
</g>
</svg>
