<?xml version="1.0" encoding="UTF-8" standalone="no"?>
<!DOCTYPE svg PUBLIC "-//W3C//DTD SVG 1.1//EN"
 "http://www.w3.org/Graphics/SVG/1.1/DTD/svg11.dtd">
<!-- Generated by graphviz version 2.43.0 (0)
 -->
<!-- Title: OD interface Pages: 1 -->
<svg width="362pt" height="64pt"
 viewBox="0.00 0.00 362.00 64.00" xmlns="http://www.w3.org/2000/svg" xmlns:xlink="http://www.w3.org/1999/xlink">
<g id="graph0" class="graph" transform="scale(1 1) rotate(0) translate(4 60)">
<title>OD interface</title>
<!-- Node2 -->
<g id="Node000002" class="node">
<title>Node2</title>
<g id="a_Node000002"><a xlink:href="group__CO__CANopen__301.html" target="_top" xlink:title=" ">
<polygon fill="white" stroke="#666666" points="85,-37 0,-37 0,-18 85,-18 85,-37"/>
<text text-anchor="middle" x="42.5" y="-25" font-family="Helvetica,sans-Serif" font-size="10.00">CANopen_301</text>
</a>
</g>
</g>
<!-- Node1 -->
<g id="Node000001" class="node">
<title>Node1</title>
<g id="a_Node000001"><a xlink:title="CANopen Object Dictionary interface.">
<polygon fill="#999999" stroke="#666666" points="199,-37 121,-37 121,-18 199,-18 199,-37"/>
<text text-anchor="middle" x="160" y="-25" font-family="Helvetica,sans-Serif" font-size="10.00">OD interface</text>
</a>
</g>
</g>
<!-- Node2&#45;&gt;Node1 -->
<g id="edge1" class="edge">
<title>Node2&#45;&gt;Node1</title>
<path fill="none" stroke="black" d="M95.47,-27.5C104,-27.5 112.7,-27.5 120.82,-27.5"/>
<polygon fill="black" stroke="black" points="95.2,-24 85.2,-27.5 95.2,-31 95.2,-24"/>
</g>
<!-- Node4 -->
<g id="Node000004" class="node">
<title>Node4</title>
<g id="a_Node000004"><a xlink:href="group__CO__ODdefinition.html" target="_top" xlink:title=" ">
<polygon fill="white" stroke="#666666" points="354,-56 235,-56 235,-37 354,-37 354,-56"/>
<text text-anchor="middle" x="294.5" y="-44" font-family="Helvetica,sans-Serif" font-size="10.00">OD definition objects</text>
</a>
</g>
</g>
<!-- Node3 -->
<g id="Node000003" class="node">
<title>Node3</title>
<g id="a_Node000003"><a xlink:href="group__CO__ODgetSetters.html" target="_top" xlink:title=" ">
<polygon fill="white" stroke="#666666" points="349.5,-19 239.5,-19 239.5,0 349.5,0 349.5,-19"/>
<text text-anchor="middle" x="294.5" y="-7" font-family="Helvetica,sans-Serif" font-size="10.00">Getters and setters</text>
</a>
</g>
</g>
<!-- Node1&#45;&gt;Node4 -->
<g id="edge3" class="edge">
<title>Node1&#45;&gt;Node4</title>
<path fill="none" stroke="black" d="M209.42,-34.44C217.58,-35.61 226.14,-36.84 234.54,-38.05"/>
<polygon fill="black" stroke="black" points="209.72,-30.95 199.32,-33 208.73,-37.88 209.72,-30.95"/>
</g>
<!-- Node1&#45;&gt;Node3 -->
<g id="edge2" class="edge">
<title>Node1&#45;&gt;Node3</title>
<path fill="none" stroke="black" d="M209.3,-20.94C219.12,-19.6 229.5,-18.19 239.49,-16.84"/>
<polygon fill="black" stroke="black" points="208.76,-17.48 199.32,-22.29 209.7,-24.42 208.76,-17.48"/>
</g>
</g>
</svg>
