<?xml version="1.0" encoding="UTF-8" standalone="no"?>
<!DOCTYPE svg PUBLIC "-//W3C//DTD SVG 1.1//EN"
 "http://www.w3.org/Graphics/SVG/1.1/DTD/svg11.dtd">
<!-- Generated by graphviz version 2.43.0 (0)
 -->
<!-- Title: LSS Pages: 1 -->
<svg width="354pt" height="321pt"
 viewBox="0.00 0.00 354.00 321.00" xmlns="http://www.w3.org/2000/svg" xmlns:xlink="http://www.w3.org/1999/xlink">

<svg id="main" version="1.1" xmlns="http://www.w3.org/2000/svg" xmlns:xlink="http://www.w3.org/1999/xlink" xml:space="preserve" onload="init(evt)">
<style type="text/css"><![CDATA[
.node, .edge {opacity: 0.7;}
.node.selected, .edge.selected {opacity: 1;}
.edge:hover path { stroke: red; }
.edge:hover polygon { stroke: red; fill: red; }
]]></style>
<script type="application/ecmascript" xlink:href="svg.min.js"/>
<svg id="graph" class="graph">
<g id="graph0" class="graph" transform="scale(1 1) rotate(0) translate(4 317)">
<title>LSS</title>
<!-- Node2 -->
<g id="Node000002" class="node">
<title>Node2</title>
<g id="a_Node000002"><a xlink:href="group__CO__CANopen__305.html" target="_top" xlink:title=" ">
<polygon fill="white" stroke="#666666" points="85,-160 0,-160 0,-141 85,-141 85,-160"/>
<text text-anchor="middle" x="42.5" y="-148" font-family="Helvetica,sans-Serif" font-size="10.00">CANopen_305</text>
</a>
</g>
</g>
<!-- Node1 -->
<g id="Node000001" class="node">
<title>Node1</title>
<g id="a_Node000001"><a xlink:title="CANopen Layer Setting Services protocol (common).">
<polygon fill="#999999" stroke="#666666" points="155,-160 121,-160 121,-141 155,-141 155,-160"/>
<text text-anchor="middle" x="138" y="-148" font-family="Helvetica,sans-Serif" font-size="10.00">LSS</text>
</a>
</g>
</g>
<!-- Node2&#45;&gt;Node1 -->
<g id="edge1" class="edge">
<title>Node2&#45;&gt;Node1</title>
<path fill="none" stroke="black" d="M95.2,-150.5C104.52,-150.5 113.57,-150.5 120.85,-150.5"/>
<polygon fill="black" stroke="black" points="95.06,-147 85.05,-150.5 95.05,-154 95.06,-147"/>
</g>
<!-- Node10 -->
<g id="Node000010" class="node">
<title>Node10</title>
<g id="a_Node000010"><a xlink:href="group__CO__LSS__BIT__TIMING__table.html" target="_top" xlink:title="Definition of table_index for /CiA301/ bit timing table">
<polygon fill="white" stroke="#666666" points="340,-313 197,-313 197,-294 340,-294 340,-313"/>
<text text-anchor="middle" x="268.5" y="-301" font-family="Helvetica,sans-Serif" font-size="10.00">CO_LSS_BIT_TIMING table</text>
</a>
</g>
</g>
<!-- Node1&#45;&gt;Node10 -->
<g id="edge9" class="edge">
<title>Node1&#45;&gt;Node10</title>
<path fill="none" stroke="black" d="M141.05,-170.59C145.15,-200.04 157.11,-254.65 191,-284.5 195.31,-288.3 200.27,-291.36 205.54,-293.83"/>
<polygon fill="black" stroke="black" points="144.48,-169.81 139.8,-160.31 137.53,-170.66 144.48,-169.81"/>
</g>
<!-- Node5 -->
<g id="Node000005" class="node">
<title>Node5</title>
<g id="a_Node000005"><a xlink:href="group__CO__LSS__CFG__BIT__TIMING__status.html" target="_top" xlink:title="Error codes for Configure bit timing parameters protocol">
<polygon fill="white" stroke="#666666" points="339,-275.5 198,-275.5 198,-245.5 339,-245.5 339,-275.5"/>
<text text-anchor="start" x="206" y="-263.5" font-family="Helvetica,sans-Serif" font-size="10.00">CO_LSS_CFG_BIT_TIMING</text>
<text text-anchor="middle" x="268.5" y="-252.5" font-family="Helvetica,sans-Serif" font-size="10.00"> status</text>
</a>
</g>
</g>
<!-- Node1&#45;&gt;Node5 -->
<g id="edge4" class="edge">
<title>Node1&#45;&gt;Node5</title>
<path fill="none" stroke="black" d="M145.78,-169.44C153.71,-188.97 168.66,-218.97 191,-236.5 195.38,-239.94 200.26,-242.89 205.37,-245.42"/>
<polygon fill="black" stroke="black" points="149.03,-168.14 142.18,-160.06 142.5,-170.65 149.03,-168.14"/>
</g>
<!-- Node4 -->
<g id="Node000004" class="node">
<title>Node4</title>
<g id="a_Node000004"><a xlink:href="group__CO__LSS__CFG__NODE__ID__status.html" target="_top" xlink:title="Error codes for Configure node ID protocol">
<polygon fill="white" stroke="#666666" points="332.5,-227.5 204.5,-227.5 204.5,-197.5 332.5,-197.5 332.5,-227.5"/>
<text text-anchor="start" x="212.5" y="-215.5" font-family="Helvetica,sans-Serif" font-size="10.00">CO_LSS_CFG_NODE_ID</text>
<text text-anchor="middle" x="268.5" y="-204.5" font-family="Helvetica,sans-Serif" font-size="10.00"> status</text>
</a>
</g>
</g>
<!-- Node1&#45;&gt;Node4 -->
<g id="edge3" class="edge">
<title>Node1&#45;&gt;Node4</title>
<path fill="none" stroke="black" d="M157.8,-166.56C167.27,-174.03 179.23,-182.56 191,-188.5 197.59,-191.82 204.72,-194.8 211.9,-197.43"/>
<polygon fill="black" stroke="black" points="159.83,-163.7 149.87,-160.09 155.41,-169.12 159.83,-163.7"/>
</g>
<!-- Node6 -->
<g id="Node000006" class="node">
<title>Node6</title>
<g id="a_Node000006"><a xlink:href="group__CO__LSS__CFG__STORE__status.html" target="_top" xlink:title="Error codes for Store configuration protocol">
<polygon fill="white" stroke="#666666" points="343,-179 194,-179 194,-160 343,-160 343,-179"/>
<text text-anchor="middle" x="268.5" y="-167" font-family="Helvetica,sans-Serif" font-size="10.00">CO_LSS_CFG_STORE status</text>
</a>
</g>
</g>
<!-- Node1&#45;&gt;Node6 -->
<g id="edge5" class="edge">
<title>Node1&#45;&gt;Node6</title>
<path fill="none" stroke="black" d="M165.21,-154.37C176.27,-156.01 189.68,-157.99 203.1,-159.98"/>
<polygon fill="black" stroke="black" points="165.42,-150.87 155.01,-152.87 164.4,-157.79 165.42,-150.87"/>
</g>
<!-- Node7 -->
<g id="Node000007" class="node">
<title>Node7</title>
<g id="a_Node000007"><a xlink:href="group__CO__LSS__FASTSCAN__bitcheck.html" target="_top" xlink:title="Fastscan BitCheck.">
<polygon fill="white" stroke="#666666" points="345.5,-142 191.5,-142 191.5,-123 345.5,-123 345.5,-142"/>
<text text-anchor="middle" x="268.5" y="-130" font-family="Helvetica,sans-Serif" font-size="10.00">CO_LSS_FASTSCAN bitcheck</text>
</a>
</g>
</g>
<!-- Node1&#45;&gt;Node7 -->
<g id="edge6" class="edge">
<title>Node1&#45;&gt;Node7</title>
<path fill="none" stroke="black" d="M165.13,-146.84C175.24,-145.42 187.32,-143.73 199.58,-142.01"/>
<polygon fill="black" stroke="black" points="164.43,-143.4 155.01,-148.26 165.4,-150.34 164.43,-143.4"/>
</g>
<!-- Node8 -->
<g id="Node000008" class="node">
<title>Node8</title>
<g id="a_Node000008"><a xlink:href="group__CO__LSS__FASTSCAN__lssSub__lssNext.html" target="_top" xlink:title=" ">
<polygon fill="white" stroke="#666666" points="340.5,-104.5 196.5,-104.5 196.5,-74.5 340.5,-74.5 340.5,-104.5"/>
<text text-anchor="start" x="204.5" y="-92.5" font-family="Helvetica,sans-Serif" font-size="10.00">CO_LSS_FASTSCAN lssSub</text>
<text text-anchor="middle" x="268.5" y="-81.5" font-family="Helvetica,sans-Serif" font-size="10.00"> lssNext</text>
</a>
</g>
</g>
<!-- Node1&#45;&gt;Node8 -->
<g id="edge7" class="edge">
<title>Node1&#45;&gt;Node8</title>
<path fill="none" stroke="black" d="M158.98,-134.64C168.32,-127.77 179.82,-120.05 191,-114.5 198.38,-110.84 206.43,-107.53 214.44,-104.62"/>
<polygon fill="black" stroke="black" points="156.63,-132.03 150.77,-140.86 160.86,-137.61 156.63,-132.03"/>
</g>
<!-- Node9 -->
<g id="Node000009" class="node">
<title>Node9</title>
<g id="a_Node000009"><a xlink:href="group__CO__LSS__STATE__state.html" target="_top" xlink:title=" ">
<polygon fill="white" stroke="#666666" points="326.5,-56 210.5,-56 210.5,-37 326.5,-37 326.5,-56"/>
<text text-anchor="middle" x="268.5" y="-44" font-family="Helvetica,sans-Serif" font-size="10.00">CO_LSS_STATE state</text>
</a>
</g>
</g>
<!-- Node1&#45;&gt;Node9 -->
<g id="edge8" class="edge">
<title>Node1&#45;&gt;Node9</title>
<path fill="none" stroke="black" d="M145.63,-131.51C153.44,-111.98 168.29,-82.15 191,-65.5 196.74,-61.29 203.3,-58.01 210.12,-55.45"/>
<polygon fill="black" stroke="black" points="142.35,-130.31 142.1,-140.9 148.9,-132.77 142.35,-130.31"/>
</g>
<!-- Node3 -->
<g id="Node000003" class="node">
<title>Node3</title>
<g id="a_Node000003"><a xlink:href="group__CO__LSS__command__specifiers.html" target="_top" xlink:title=" ">
<polygon fill="white" stroke="#666666" points="346,-19 191,-19 191,0 346,0 346,-19"/>
<text text-anchor="middle" x="268.5" y="-7" font-family="Helvetica,sans-Serif" font-size="10.00">CO_LSS command specifiers</text>
</a>
</g>
</g>
<!-- Node1&#45;&gt;Node3 -->
<g id="edge2" class="edge">
<title>Node1&#45;&gt;Node3</title>
<path fill="none" stroke="black" d="M141.88,-130.65C146.9,-103.47 159.87,-55.02 191,-28.5 195.48,-24.68 200.61,-21.61 206.05,-19.15"/>
<polygon fill="black" stroke="black" points="138.37,-130.44 140.19,-140.88 145.28,-131.58 138.37,-130.44"/>
</g>
</g>
</svg>
</svg>

<style type='text/css'>
<![CDATA[
[data-mouse-over-selected='false'] { opacity: 0.7; }
[data-mouse-over-selected='true']  { opacity: 1.0; }
]]>
</style>
<script type="application/ecmascript"><![CDATA[
document.addEventListener('DOMContentLoaded', (event) => {
  highlightEdges();
  highlightAdjacentNodes();
});
]]></script>
</svg>
