<?xml version="1.0" encoding="UTF-8" standalone="no"?>
<!DOCTYPE svg PUBLIC "-//W3C//DTD SVG 1.1//EN"
 "http://www.w3.org/Graphics/SVG/1.1/DTD/svg11.dtd">
<!-- Generated by graphviz version 2.43.0 (0)
 -->
<!-- Title: CANopen_301 Pages: 1 -->
<svg width="245pt" height="434pt"
 viewBox="0.00 0.00 245.00 434.00" xmlns="http://www.w3.org/2000/svg" xmlns:xlink="http://www.w3.org/1999/xlink">
<g id="graph0" class="graph" transform="scale(1 1) rotate(0) translate(4 430)">
<title>CANopen_301</title>
<polygon fill="white" stroke="transparent" points="-4,4 -4,-430 241,-430 241,4 -4,4"/>
<!-- Node13 -->
<g id="node1" class="node">
<title>Node13</title>
<g id="a_node1"><a xlink:href="group__CO__crc16__ccitt.html" target="_top" xlink:title="Calculation of CRC 16 CCITT polynomial.">
<polygon fill="white" stroke="black" points="220.5,-426 137.5,-426 137.5,-407 220.5,-407 220.5,-426"/>
<text text-anchor="middle" x="179" y="-414" font-family="Helvetica,sans-Serif" font-size="10.00">CRC 16 CCITT</text>
</a>
</g>
</g>
<!-- Node8 -->
<g id="node2" class="node">
<title>Node8</title>
<g id="a_node2"><a xlink:href="group__CO__PDO.html" target="_top" xlink:title="CANopen Process Data Object protocol.">
<polygon fill="white" stroke="black" points="198,-389 160,-389 160,-370 198,-370 198,-389"/>
<text text-anchor="middle" x="179" y="-377" font-family="Helvetica,sans-Serif" font-size="10.00">PDO</text>
</a>
</g>
</g>
<!-- Node2 -->
<g id="node3" class="node">
<title>Node2</title>
<g id="a_node3"><a xlink:href="group__CO__driver.html" target="_top" xlink:title="Interface between CAN hardware and CANopenNode.">
<polygon fill="white" stroke="black" points="202.5,-352 155.5,-352 155.5,-333 202.5,-333 202.5,-352"/>
<text text-anchor="middle" x="179" y="-340" font-family="Helvetica,sans-Serif" font-size="10.00">Driver</text>
</a>
</g>
</g>
<!-- Node10 -->
<g id="node4" class="node">
<title>Node10</title>
<g id="a_node4"><a xlink:href="group__CO__SDOserver.html" target="_top" xlink:title="CANopen Service Data Object &#45; server protocol.">
<polygon fill="white" stroke="black" points="214.5,-315 143.5,-315 143.5,-296 214.5,-296 214.5,-315"/>
<text text-anchor="middle" x="179" y="-303" font-family="Helvetica,sans-Serif" font-size="10.00">SDO server</text>
</a>
</g>
</g>
<!-- Node12 -->
<g id="node5" class="node">
<title>Node12</title>
<g id="a_node5"><a xlink:href="group__CO__TIME.html" target="_top" xlink:title="CANopen Time&#45;stamp protocol.">
<polygon fill="white" stroke="black" points="199.5,-278 158.5,-278 158.5,-259 199.5,-259 199.5,-278"/>
<text text-anchor="middle" x="179" y="-266" font-family="Helvetica,sans-Serif" font-size="10.00">TIME</text>
</a>
</g>
</g>
<!-- Node11 -->
<g id="node6" class="node">
<title>Node11</title>
<g id="a_node6"><a xlink:href="group__CO__SYNC.html" target="_top" xlink:title="CANopen Synchronisation protocol.">
<polygon fill="white" stroke="black" points="200.5,-241 157.5,-241 157.5,-222 200.5,-222 200.5,-241"/>
<text text-anchor="middle" x="179" y="-229" font-family="Helvetica,sans-Serif" font-size="10.00">SYNC</text>
</a>
</g>
</g>
<!-- Node4 -->
<g id="node7" class="node">
<title>Node4</title>
<g id="a_node7"><a xlink:href="group__CO__CANopen__301__fifo.html" target="_top" xlink:title="FIFO circular buffer for continuous data flow.">
<polygon fill="white" stroke="black" points="234,-204 124,-204 124,-185 234,-185 234,-204"/>
<text text-anchor="middle" x="179" y="-192" font-family="Helvetica,sans-Serif" font-size="10.00">FIFO circular buffer</text>
</a>
</g>
</g>
<!-- Node1 -->
<g id="node8" class="node">
<title>Node1</title>
<g id="a_node8"><a xlink:title="CANopen application layer and communication profile (CiA 301 v4.2.0)">
<polygon fill="#bfbfbf" stroke="black" points="85,-222 0,-222 0,-203 85,-203 85,-222"/>
<text text-anchor="middle" x="42.5" y="-210" font-family="Helvetica,sans-Serif" font-size="10.00">CANopen_301</text>
</a>
</g>
</g>
<!-- Node1&#45;&gt;Node13 -->
<g id="edge12" class="edge">
<title>Node1&#45;&gt;Node13</title>
<path fill="none" stroke="black" d="M46.22,-232.45C52.43,-270.33 71.18,-352.92 121,-398.5 125.67,-402.77 131.35,-406.03 137.3,-408.52"/>
<polygon fill="black" stroke="black" points="49.63,-231.59 44.67,-222.22 42.7,-232.63 49.63,-231.59"/>
</g>
<!-- Node1&#45;&gt;Node8 -->
<g id="edge7" class="edge">
<title>Node1&#45;&gt;Node8</title>
<path fill="none" stroke="black" d="M48.39,-231.97C57.36,-263.73 79.45,-326.61 121,-361.5 131.97,-370.71 147.67,-375.22 159.82,-377.42"/>
<polygon fill="black" stroke="black" points="51.72,-230.89 45.75,-222.14 44.96,-232.7 51.72,-230.89"/>
</g>
<!-- Node1&#45;&gt;Node2 -->
<g id="edge1" class="edge">
<title>Node1&#45;&gt;Node2</title>
<path fill="none" stroke="black" d="M51.71,-231.33C63.5,-256.23 87.55,-299.82 121,-324.5 131.02,-331.89 144.17,-336.31 155.32,-338.92"/>
<polygon fill="black" stroke="black" points="54.88,-229.85 47.54,-222.2 48.51,-232.75 54.88,-229.85"/>
</g>
<!-- Node1&#45;&gt;Node10 -->
<g id="edge9" class="edge">
<title>Node1&#45;&gt;Node10</title>
<path fill="none" stroke="black" d="M57.37,-230C71.65,-246.94 95.39,-272.24 121,-287.5 127.86,-291.59 135.76,-294.85 143.44,-297.41"/>
<polygon fill="black" stroke="black" points="59.85,-227.51 50.8,-222 54.44,-231.95 59.85,-227.51"/>
</g>
<!-- Node1&#45;&gt;Node12 -->
<g id="edge11" class="edge">
<title>Node1&#45;&gt;Node12</title>
<path fill="none" stroke="black" d="M70.06,-226.75C84.82,-234.36 103.65,-243.55 121,-250.5 133.24,-255.4 147.36,-259.87 158.49,-263.13"/>
<polygon fill="black" stroke="black" points="71.49,-223.55 61.01,-222.03 68.25,-229.76 71.49,-223.55"/>
</g>
<!-- Node1&#45;&gt;Node11 -->
<g id="edge10" class="edge">
<title>Node1&#45;&gt;Node11</title>
<path fill="none" stroke="black" d="M95.37,-219.83C116.95,-222.88 140.77,-226.24 157.27,-228.57"/>
<polygon fill="black" stroke="black" points="95.71,-216.34 85.32,-218.41 94.73,-223.27 95.71,-216.34"/>
</g>
<!-- Node1&#45;&gt;Node4 -->
<g id="edge3" class="edge">
<title>Node1&#45;&gt;Node4</title>
<path fill="none" stroke="black" d="M95.27,-205.57C104.62,-204.32 114.4,-203.01 123.82,-201.75"/>
<polygon fill="black" stroke="black" points="94.77,-202.11 85.32,-206.9 95.7,-209.05 94.77,-202.11"/>
</g>
<!-- Node6 -->
<g id="node9" class="node">
<title>Node6</title>
<g id="a_node9"><a xlink:href="group__CO__NMT__Heartbeat.html" target="_top" xlink:title="CANopen Network management and Heartbeat producer protocol.">
<polygon fill="white" stroke="black" points="235,-167 123,-167 123,-148 235,-148 235,-167"/>
<text text-anchor="middle" x="179" y="-155" font-family="Helvetica,sans-Serif" font-size="10.00">NMT and Heartbeat</text>
</a>
</g>
</g>
<!-- Node1&#45;&gt;Node6 -->
<g id="edge5" class="edge">
<title>Node1&#45;&gt;Node6</title>
<path fill="none" stroke="black" d="M71.66,-198.48C86.22,-191.48 104.38,-183.11 121,-176.5 129.43,-173.15 138.72,-169.88 147.3,-167.03"/>
<polygon fill="black" stroke="black" points="70.13,-195.34 62.66,-202.86 73.19,-201.63 70.13,-195.34"/>
</g>
<!-- Node5 -->
<g id="node10" class="node">
<title>Node5</title>
<g id="a_node10"><a xlink:href="group__CO__HBconsumer.html" target="_top" xlink:title="CANopen Heartbeat consumer protocol.">
<polygon fill="white" stroke="black" points="237,-130 121,-130 121,-111 237,-111 237,-130"/>
<text text-anchor="middle" x="179" y="-118" font-family="Helvetica,sans-Serif" font-size="10.00">Heartbeat consumer</text>
</a>
</g>
</g>
<!-- Node1&#45;&gt;Node5 -->
<g id="edge4" class="edge">
<title>Node1&#45;&gt;Node5</title>
<path fill="none" stroke="black" d="M58.22,-194.77C72.68,-178.37 96.14,-154.36 121,-139.5 127.27,-135.75 134.37,-132.64 141.38,-130.08"/>
<polygon fill="black" stroke="black" points="55.38,-192.7 51.51,-202.56 60.69,-197.27 55.38,-192.7"/>
</g>
<!-- Node9 -->
<g id="node11" class="node">
<title>Node9</title>
<g id="a_node11"><a xlink:href="group__CO__SDOclient.html" target="_top" xlink:title="CANopen Service Data Object &#45; client protocol.">
<polygon fill="white" stroke="black" points="213,-93 145,-93 145,-74 213,-74 213,-93"/>
<text text-anchor="middle" x="179" y="-81" font-family="Helvetica,sans-Serif" font-size="10.00">SDO client</text>
</a>
</g>
</g>
<!-- Node1&#45;&gt;Node9 -->
<g id="edge8" class="edge">
<title>Node1&#45;&gt;Node9</title>
<path fill="none" stroke="black" d="M52.19,-193.39C64.27,-168.92 88.36,-126.77 121,-102.5 128.03,-97.27 136.59,-93.43 144.91,-90.62"/>
<polygon fill="black" stroke="black" points="48.9,-192.16 47.77,-202.69 55.22,-195.17 48.9,-192.16"/>
</g>
<!-- Node3 -->
<g id="node12" class="node">
<title>Node3</title>
<g id="a_node12"><a xlink:href="group__CO__Emergency.html" target="_top" xlink:title="CANopen Emergency protocol.">
<polygon fill="white" stroke="black" points="214.5,-56 143.5,-56 143.5,-37 214.5,-37 214.5,-56"/>
<text text-anchor="middle" x="179" y="-44" font-family="Helvetica,sans-Serif" font-size="10.00">Emergency</text>
</a>
</g>
</g>
<!-- Node1&#45;&gt;Node3 -->
<g id="edge2" class="edge">
<title>Node1&#45;&gt;Node3</title>
<path fill="none" stroke="black" d="M48.66,-192.9C57.91,-161.54 80.27,-100.07 121,-65.5 127.36,-60.1 135.32,-56.22 143.24,-53.44"/>
<polygon fill="black" stroke="black" points="45.26,-192.08 45.93,-202.65 52,-193.97 45.26,-192.08"/>
</g>
<!-- Node7 -->
<g id="node13" class="node">
<title>Node7</title>
<g id="a_node13"><a xlink:href="group__CO__ODinterface.html" target="_top" xlink:title="CANopen Object Dictionary interface.">
<polygon fill="white" stroke="black" points="218,-19 140,-19 140,0 218,0 218,-19"/>
<text text-anchor="middle" x="179" y="-7" font-family="Helvetica,sans-Serif" font-size="10.00">OD interface</text>
</a>
</g>
</g>
<!-- Node1&#45;&gt;Node7 -->
<g id="edge6" class="edge">
<title>Node1&#45;&gt;Node7</title>
<path fill="none" stroke="black" d="M46.35,-192.83C52.78,-155.48 71.9,-73.96 121,-28.5 126.36,-23.54 133.05,-19.87 139.94,-17.16"/>
<polygon fill="black" stroke="black" points="42.86,-192.49 44.74,-202.92 49.77,-193.59 42.86,-192.49"/>
</g>
</g>
</svg>
