<?xml version="1.0" encoding="UTF-8" standalone="no"?>
<!DOCTYPE svg PUBLIC "-//W3C//DTD SVG 1.1//EN"
 "http://www.w3.org/Graphics/SVG/1.1/DTD/svg11.dtd">
<!-- Generated by graphviz version 2.43.0 (0)
 -->
<!-- Title: Driver Pages: 1 -->
<svg width="367pt" height="187pt"
 viewBox="0.00 0.00 367.00 186.50" xmlns="http://www.w3.org/2000/svg" xmlns:xlink="http://www.w3.org/1999/xlink">
<g id="graph0" class="graph" transform="scale(1 1) rotate(0) translate(4 182.5)">
<title>Driver</title>
<polygon fill="white" stroke="transparent" points="-4,4 -4,-182.5 363,-182.5 363,4 -4,4"/>
<!-- Node6 -->
<g id="node1" class="node">
<title>Node6</title>
<g id="a_node1"><a xlink:href="group__CO__CAN__Message__transmission.html" target="_top" xlink:title="Target specific definitions and description of CAN message transmission.">
<polygon fill="white" stroke="black" points="340.5,-178.5 222.5,-178.5 222.5,-148.5 340.5,-148.5 340.5,-178.5"/>
<text text-anchor="start" x="230.5" y="-166.5" font-family="Helvetica,sans-Serif" font-size="10.00">Transmission of CAN</text>
<text text-anchor="middle" x="281.5" y="-155.5" font-family="Helvetica,sans-Serif" font-size="10.00"> messages</text>
</a>
</g>
</g>
<!-- Node1 -->
<g id="node2" class="node">
<title>Node1</title>
<g id="a_node2"><a xlink:title="Interface between CAN hardware and CANopenNode.">
<polygon fill="#bfbfbf" stroke="black" points="168,-93 121,-93 121,-74 168,-74 168,-93"/>
<text text-anchor="middle" x="144.5" y="-81" font-family="Helvetica,sans-Serif" font-size="10.00">Driver</text>
</a>
</g>
</g>
<!-- Node1&#45;&gt;Node6 -->
<g id="edge5" class="edge">
<title>Node1&#45;&gt;Node6</title>
<path fill="none" stroke="black" d="M159.89,-101.04C170.84,-113.36 186.89,-129.39 204,-139.5 209.75,-142.9 216.04,-145.87 222.45,-148.45"/>
<polygon fill="black" stroke="black" points="162.35,-98.53 153.18,-93.22 157.04,-103.09 162.35,-98.53"/>
</g>
<!-- Node7 -->
<g id="node3" class="node">
<title>Node7</title>
<g id="a_node3"><a xlink:href="group__CO__critical__sections.html" target="_top" xlink:title="Protection of critical sections in multi&#45;threaded operation.">
<polygon fill="white" stroke="black" points="329,-130 234,-130 234,-111 329,-111 329,-130"/>
<text text-anchor="middle" x="281.5" y="-118" font-family="Helvetica,sans-Serif" font-size="10.00">Critical sections</text>
</a>
</g>
</g>
<!-- Node1&#45;&gt;Node7 -->
<g id="edge6" class="edge">
<title>Node1&#45;&gt;Node7</title>
<path fill="none" stroke="black" d="M177.73,-94.5C186.23,-97.25 195.43,-100.1 204,-102.5 214.64,-105.48 226.21,-108.37 237.05,-110.94"/>
<polygon fill="black" stroke="black" points="178.74,-91.15 168.15,-91.34 176.55,-97.79 178.74,-91.15"/>
</g>
<!-- Node3 -->
<g id="node4" class="node">
<title>Node3</title>
<g id="a_node4"><a xlink:href="group__CO__STACK__CONFIG.html" target="_top" xlink:title="Stack configuration and enabling macros.">
<polygon fill="white" stroke="black" points="337,-93 226,-93 226,-74 337,-74 337,-93"/>
<text text-anchor="middle" x="281.5" y="-81" font-family="Helvetica,sans-Serif" font-size="10.00">Stack configuration</text>
</a>
</g>
</g>
<!-- Node1&#45;&gt;Node3 -->
<g id="edge2" class="edge">
<title>Node1&#45;&gt;Node3</title>
<path fill="none" stroke="black" d="M178.38,-83.5C192.63,-83.5 209.7,-83.5 225.77,-83.5"/>
<polygon fill="black" stroke="black" points="178.1,-80 168.1,-83.5 178.1,-87 178.1,-80"/>
</g>
<!-- Node4 -->
<g id="node6" class="node">
<title>Node4</title>
<g id="a_node6"><a xlink:href="group__CO__dataTypes.html" target="_top" xlink:title="Target specific basic definitions and data types.">
<polygon fill="white" stroke="black" points="330.5,-56 232.5,-56 232.5,-37 330.5,-37 330.5,-56"/>
<text text-anchor="middle" x="281.5" y="-44" font-family="Helvetica,sans-Serif" font-size="10.00">Basic definitions</text>
</a>
</g>
</g>
<!-- Node1&#45;&gt;Node4 -->
<g id="edge3" class="edge">
<title>Node1&#45;&gt;Node4</title>
<path fill="none" stroke="black" d="M177.73,-72.5C186.23,-69.75 195.43,-66.9 204,-64.5 214.64,-61.52 226.21,-58.63 237.05,-56.06"/>
<polygon fill="black" stroke="black" points="176.55,-69.21 168.15,-75.66 178.74,-75.85 176.55,-69.21"/>
</g>
<!-- Node5 -->
<g id="node7" class="node">
<title>Node5</title>
<g id="a_node7"><a xlink:href="group__CO__CAN__Message__reception.html" target="_top" xlink:title="Target specific definitions and description of CAN message reception.">
<polygon fill="white" stroke="black" points="359,-19 204,-19 204,0 359,0 359,-19"/>
<text text-anchor="middle" x="281.5" y="-7" font-family="Helvetica,sans-Serif" font-size="10.00">Reception of CAN messages</text>
</a>
</g>
</g>
<!-- Node1&#45;&gt;Node5 -->
<g id="edge4" class="edge">
<title>Node1&#45;&gt;Node5</title>
<path fill="none" stroke="black" d="M159.3,-66.01C170.15,-53.44 186.33,-37.09 204,-27.5 210.24,-24.12 217.09,-21.36 224.07,-19.13"/>
<polygon fill="black" stroke="black" points="156.39,-64.04 152.7,-73.97 161.78,-68.51 156.39,-64.04"/>
</g>
<!-- Node2 -->
<g id="node5" class="node">
<title>Node2</title>
<g id="a_node5"><a xlink:href="group__CO__CANopen__301.html" target="_top" xlink:title="CANopen application layer and communication profile (CiA 301 v4.2.0)">
<polygon fill="white" stroke="black" points="85,-93 0,-93 0,-74 85,-74 85,-93"/>
<text text-anchor="middle" x="42.5" y="-81" font-family="Helvetica,sans-Serif" font-size="10.00">CANopen_301</text>
</a>
</g>
</g>
<!-- Node2&#45;&gt;Node1 -->
<g id="edge1" class="edge">
<title>Node2&#45;&gt;Node1</title>
<path fill="none" stroke="black" d="M95.17,-83.5C104.17,-83.5 113.1,-83.5 120.79,-83.5"/>
<polygon fill="black" stroke="black" points="95.04,-80 85.04,-83.5 95.04,-87 95.04,-80"/>
</g>
</g>
</svg>
