<?xml version="1.0" encoding="UTF-8" standalone="no"?>
<!DOCTYPE svg PUBLIC "-//W3C//DTD SVG 1.1//EN"
 "http://www.w3.org/Graphics/SVG/1.1/DTD/svg11.dtd">
<!-- Generated by graphviz version 2.43.0 (0)
 -->
<!-- Title: Stack configuration Pages: 1 -->
<svg width="375pt" height="592pt"
 viewBox="0.00 0.00 375.00 592.00" xmlns="http://www.w3.org/2000/svg" xmlns:xlink="http://www.w3.org/1999/xlink">
<g id="graph0" class="graph" transform="scale(1 1) rotate(0) translate(4 588)">
<title>Stack configuration</title>
<polygon fill="white" stroke="transparent" points="-4,4 -4,-588 371,-588 371,4 -4,4"/>
<!-- Node5 -->
<g id="node1" class="node">
<title>Node5</title>
<g id="a_node1"><a xlink:href="group__CO__STACK__CONFIG__EMERGENCY.html" target="_top" xlink:title="Specified in standard CiA 301.">
<polygon fill="white" stroke="black" points="357,-584 240,-584 240,-554 357,-554 357,-584"/>
<text text-anchor="start" x="248" y="-572" font-family="Helvetica,sans-Serif" font-size="10.00">Emergency producer</text>
<text text-anchor="middle" x="298.5" y="-561" font-family="Helvetica,sans-Serif" font-size="10.00">/consumer</text>
</a>
</g>
</g>
<!-- Node6 -->
<g id="node2" class="node">
<title>Node6</title>
<g id="a_node2"><a xlink:href="group__CO__STACK__CONFIG__SDO.html" target="_top" xlink:title="Specified in standard CiA 301.">
<polygon fill="white" stroke="black" points="349,-535.5 248,-535.5 248,-516.5 349,-516.5 349,-535.5"/>
<text text-anchor="middle" x="298.5" y="-523.5" font-family="Helvetica,sans-Serif" font-size="10.00">SDO server/client</text>
</a>
</g>
</g>
<!-- Node7 -->
<g id="node3" class="node">
<title>Node7</title>
<g id="a_node3"><a xlink:href="group__CO__STACK__CONFIG__TIME.html" target="_top" xlink:title="Specified in standard CiA 301.">
<polygon fill="white" stroke="black" points="367,-498.5 230,-498.5 230,-479.5 367,-479.5 367,-498.5"/>
<text text-anchor="middle" x="298.5" y="-486.5" font-family="Helvetica,sans-Serif" font-size="10.00">Time producer/consumer</text>
</a>
</g>
</g>
<!-- Node17 -->
<g id="node4" class="node">
<title>Node17</title>
<g id="a_node4"><a xlink:href="group__CO__STACK__CONFIG__DEBUG.html" target="_top" xlink:title="Messages from different parts of the stack.">
<polygon fill="white" stroke="black" points="349,-461.5 248,-461.5 248,-442.5 349,-442.5 349,-461.5"/>
<text text-anchor="middle" x="298.5" y="-449.5" font-family="Helvetica,sans-Serif" font-size="10.00">Debug messages</text>
</a>
</g>
</g>
<!-- Node10 -->
<g id="node5" class="node">
<title>Node10</title>
<g id="a_node5"><a xlink:href="group__CO__STACK__CONFIG__LEDS.html" target="_top" xlink:title="Specified in standard CiA 303&#45;3.">
<polygon fill="white" stroke="black" points="358,-424.5 239,-424.5 239,-405.5 358,-405.5 358,-424.5"/>
<text text-anchor="middle" x="298.5" y="-412.5" font-family="Helvetica,sans-Serif" font-size="10.00">CANopen LED diodes</text>
</a>
</g>
</g>
<!-- Node2 -->
<g id="node6" class="node">
<title>Node2</title>
<g id="a_node6"><a xlink:href="group__CO__driver.html" target="_top" xlink:title="Interface between CAN hardware and CANopenNode.">
<polygon fill="white" stroke="black" points="47,-313.5 0,-313.5 0,-294.5 47,-294.5 47,-313.5"/>
<text text-anchor="middle" x="23.5" y="-301.5" font-family="Helvetica,sans-Serif" font-size="10.00">Driver</text>
</a>
</g>
</g>
<!-- Node1 -->
<g id="node9" class="node">
<title>Node1</title>
<g id="a_node9"><a xlink:title="Stack configuration and enabling macros.">
<polygon fill="#bfbfbf" stroke="black" points="194,-313.5 83,-313.5 83,-294.5 194,-294.5 194,-313.5"/>
<text text-anchor="middle" x="138.5" y="-301.5" font-family="Helvetica,sans-Serif" font-size="10.00">Stack configuration</text>
</a>
</g>
</g>
<!-- Node2&#45;&gt;Node1 -->
<g id="edge1" class="edge">
<title>Node2&#45;&gt;Node1</title>
<path fill="none" stroke="black" d="M57.11,-304C65.13,-304 73.93,-304 82.68,-304"/>
<polygon fill="black" stroke="black" points="57.1,-300.5 47.1,-304 57.1,-307.5 57.1,-300.5"/>
</g>
<!-- Node12 -->
<g id="node7" class="node">
<title>Node12</title>
<g id="a_node7"><a xlink:href="group__CO__STACK__CONFIG__LSS.html" target="_top" xlink:title="Specified in standard CiA 305.">
<polygon fill="white" stroke="black" points="349,-387.5 248,-387.5 248,-368.5 349,-368.5 349,-387.5"/>
<text text-anchor="middle" x="298.5" y="-375.5" font-family="Helvetica,sans-Serif" font-size="10.00">LSS master/slave</text>
</a>
</g>
</g>
<!-- Node9 -->
<g id="node8" class="node">
<title>Node9</title>
<g id="a_node8"><a xlink:href="group__CO__STACK__CONFIG__STORAGE.html" target="_top" xlink:title="Data storage with CANopen OD objects 1010 and 1011, CiA 301.">
<polygon fill="white" stroke="black" points="338.5,-350.5 258.5,-350.5 258.5,-331.5 338.5,-331.5 338.5,-350.5"/>
<text text-anchor="middle" x="298.5" y="-338.5" font-family="Helvetica,sans-Serif" font-size="10.00">Data storage</text>
</a>
</g>
</g>
<!-- Node1&#45;&gt;Node5 -->
<g id="edge4" class="edge">
<title>Node1&#45;&gt;Node5</title>
<path fill="none" stroke="black" d="M141.37,-323.9C146.68,-369.41 165.93,-482.05 230,-545 233.46,-548.4 237.43,-551.32 241.68,-553.83"/>
<polygon fill="black" stroke="black" points="144.83,-323.41 140.3,-313.84 137.87,-324.15 144.83,-323.41"/>
</g>
<!-- Node1&#45;&gt;Node6 -->
<g id="edge5" class="edge">
<title>Node1&#45;&gt;Node6</title>
<path fill="none" stroke="black" d="M142.51,-323.91C149.76,-364.8 172.1,-458.54 230,-508 235.16,-512.41 241.3,-515.75 247.73,-518.28"/>
<polygon fill="black" stroke="black" points="145.93,-323.15 140.85,-313.86 139.03,-324.3 145.93,-323.15"/>
</g>
<!-- Node1&#45;&gt;Node7 -->
<g id="edge6" class="edge">
<title>Node1&#45;&gt;Node7</title>
<path fill="none" stroke="black" d="M144.57,-323.63C154.67,-358.71 180.69,-432.14 230,-471 234.29,-474.38 239.15,-477.12 244.26,-479.36"/>
<polygon fill="black" stroke="black" points="147.86,-322.39 141.84,-313.67 141.11,-324.24 147.86,-322.39"/>
</g>
<!-- Node1&#45;&gt;Node17 -->
<g id="edge16" class="edge">
<title>Node1&#45;&gt;Node17</title>
<path fill="none" stroke="black" d="M147.42,-322.83C160.39,-351.34 188.89,-405.17 230,-434 235.36,-437.76 241.47,-440.74 247.76,-443.09"/>
<polygon fill="black" stroke="black" points="150.58,-321.32 143.35,-313.57 144.17,-324.13 150.58,-321.32"/>
</g>
<!-- Node1&#45;&gt;Node10 -->
<g id="edge9" class="edge">
<title>Node1&#45;&gt;Node10</title>
<path fill="none" stroke="black" d="M151.92,-321.65C167.67,-342.73 196.83,-377.57 230,-397 235.86,-400.43 242.39,-403.22 249.01,-405.49"/>
<polygon fill="black" stroke="black" points="154.73,-319.56 146.01,-313.54 149.07,-323.69 154.73,-319.56"/>
</g>
<!-- Node1&#45;&gt;Node12 -->
<g id="edge11" class="edge">
<title>Node1&#45;&gt;Node12</title>
<path fill="none" stroke="black" d="M160.76,-319.66C178.51,-332.1 204.86,-349.15 230,-360 237.57,-363.27 245.88,-366.07 254.01,-368.42"/>
<polygon fill="black" stroke="black" points="162.49,-316.6 152.32,-313.64 158.43,-322.3 162.49,-316.6"/>
</g>
<!-- Node1&#45;&gt;Node9 -->
<g id="edge8" class="edge">
<title>Node1&#45;&gt;Node9</title>
<path fill="none" stroke="black" d="M190.07,-315.84C212.17,-321.02 237.69,-326.99 258.31,-331.82"/>
<polygon fill="black" stroke="black" points="190.72,-312.4 180.19,-313.53 189.13,-319.22 190.72,-312.4"/>
</g>
<!-- Node3 -->
<g id="node10" class="node">
<title>Node3</title>
<g id="a_node10"><a xlink:href="group__CO__STACK__CONFIG__COMMON.html" target="_top" xlink:title="Constants for common definitions.">
<polygon fill="white" stroke="black" points="356.5,-313.5 240.5,-313.5 240.5,-294.5 356.5,-294.5 356.5,-313.5"/>
<text text-anchor="middle" x="298.5" y="-301.5" font-family="Helvetica,sans-Serif" font-size="10.00">Common definitions</text>
</a>
</g>
</g>
<!-- Node1&#45;&gt;Node3 -->
<g id="edge2" class="edge">
<title>Node1&#45;&gt;Node3</title>
<path fill="none" stroke="black" d="M204.6,-304C216.46,-304 228.75,-304 240.36,-304"/>
<polygon fill="black" stroke="black" points="204.32,-300.5 194.32,-304 204.32,-307.5 204.32,-300.5"/>
</g>
<!-- Node8 -->
<g id="node11" class="node">
<title>Node8</title>
<g id="a_node11"><a xlink:href="group__CO__STACK__CONFIG__SYNC__PDO.html" target="_top" xlink:title="Specified in standard CiA 301.">
<polygon fill="white" stroke="black" points="365.5,-276 231.5,-276 231.5,-246 365.5,-246 365.5,-276"/>
<text text-anchor="start" x="239.5" y="-264" font-family="Helvetica,sans-Serif" font-size="10.00">SYNC and PDO producer</text>
<text text-anchor="middle" x="298.5" y="-253" font-family="Helvetica,sans-Serif" font-size="10.00">/consumer</text>
</a>
</g>
</g>
<!-- Node1&#45;&gt;Node8 -->
<g id="edge7" class="edge">
<title>Node1&#45;&gt;Node8</title>
<path fill="none" stroke="black" d="M184.27,-291.82C202.33,-286.9 223.36,-281.18 242.36,-276.01"/>
<polygon fill="black" stroke="black" points="183.3,-288.45 174.57,-294.46 185.13,-295.21 183.3,-288.45"/>
</g>
<!-- Node16 -->
<g id="node12" class="node">
<title>Node16</title>
<g id="a_node12"><a xlink:href="group__CO__STACK__CONFIG__TRACE.html" target="_top" xlink:title="Non standard object.">
<polygon fill="white" stroke="black" points="341.5,-227.5 255.5,-227.5 255.5,-208.5 341.5,-208.5 341.5,-227.5"/>
<text text-anchor="middle" x="298.5" y="-215.5" font-family="Helvetica,sans-Serif" font-size="10.00">Trace recorder</text>
</a>
</g>
</g>
<!-- Node1&#45;&gt;Node16 -->
<g id="edge15" class="edge">
<title>Node1&#45;&gt;Node16</title>
<path fill="none" stroke="black" d="M157.47,-287.58C174.86,-272.48 202.55,-250.46 230,-237 237.87,-233.14 246.65,-229.95 255.21,-227.36"/>
<polygon fill="black" stroke="black" points="154.97,-285.12 149.81,-294.37 159.61,-290.36 154.97,-285.12"/>
</g>
<!-- Node15 -->
<g id="node13" class="node">
<title>Node15</title>
<g id="a_node13"><a xlink:href="group__CO__STACK__CONFIG__FIFO.html" target="_top" xlink:title="Helper object for FIFO buffer.">
<polygon fill="white" stroke="black" points="334,-190.5 263,-190.5 263,-171.5 334,-171.5 334,-190.5"/>
<text text-anchor="middle" x="298.5" y="-178.5" font-family="Helvetica,sans-Serif" font-size="10.00">FIFO buffer</text>
</a>
</g>
</g>
<!-- Node1&#45;&gt;Node15 -->
<g id="edge14" class="edge">
<title>Node1&#45;&gt;Node15</title>
<path fill="none" stroke="black" d="M150.26,-285.8C165.16,-262.18 194.34,-221.36 230,-199 239.86,-192.82 251.82,-188.74 262.92,-186.06"/>
<polygon fill="black" stroke="black" points="147.17,-284.13 144.93,-294.49 153.14,-287.79 147.17,-284.13"/>
</g>
<!-- Node13 -->
<g id="node14" class="node">
<title>Node13</title>
<g id="a_node14"><a xlink:href="group__CO__STACK__CONFIG__GATEWAY.html" target="_top" xlink:title="Specified in standard CiA 309.">
<polygon fill="white" stroke="black" points="352,-153.5 245,-153.5 245,-134.5 352,-134.5 352,-153.5"/>
<text text-anchor="middle" x="298.5" y="-141.5" font-family="Helvetica,sans-Serif" font-size="10.00">CANopen gateway</text>
</a>
</g>
</g>
<!-- Node1&#45;&gt;Node13 -->
<g id="edge12" class="edge">
<title>Node1&#45;&gt;Node13</title>
<path fill="none" stroke="black" d="M146.42,-284.75C158.48,-253.99 186.32,-193.98 230,-162 234.7,-158.56 240.01,-155.78 245.53,-153.53"/>
<polygon fill="black" stroke="black" points="143.07,-283.72 142.81,-294.31 149.62,-286.19 143.07,-283.72"/>
</g>
<!-- Node4 -->
<g id="node15" class="node">
<title>Node4</title>
<g id="a_node15"><a xlink:href="group__CO__STACK__CONFIG__NMT__HB.html" target="_top" xlink:title="Specified in standard CiA 301.">
<polygon fill="white" stroke="black" points="364,-116 233,-116 233,-86 364,-86 364,-116"/>
<text text-anchor="start" x="241" y="-104" font-family="Helvetica,sans-Serif" font-size="10.00">NMT master/slave and</text>
<text text-anchor="middle" x="298.5" y="-93" font-family="Helvetica,sans-Serif" font-size="10.00"> HB producer/consumer</text>
</a>
</g>
</g>
<!-- Node1&#45;&gt;Node4 -->
<g id="edge3" class="edge">
<title>Node1&#45;&gt;Node4</title>
<path fill="none" stroke="black" d="M144.21,-284.39C153.98,-247.89 179.8,-169.22 230,-125 233.92,-121.55 238.37,-118.58 243.07,-116.04"/>
<polygon fill="black" stroke="black" points="140.77,-283.72 141.69,-294.28 147.56,-285.45 140.77,-283.72"/>
</g>
<!-- Node14 -->
<g id="node16" class="node">
<title>Node14</title>
<g id="a_node16"><a xlink:href="group__CO__STACK__CONFIG__CRC16.html" target="_top" xlink:title="Helper object for CRC&#45;16 checksum.">
<polygon fill="white" stroke="black" points="352.5,-67.5 244.5,-67.5 244.5,-48.5 352.5,-48.5 352.5,-67.5"/>
<text text-anchor="middle" x="298.5" y="-55.5" font-family="Helvetica,sans-Serif" font-size="10.00">CRC 16 calculation</text>
</a>
</g>
</g>
<!-- Node1&#45;&gt;Node14 -->
<g id="edge13" class="edge">
<title>Node1&#45;&gt;Node14</title>
<path fill="none" stroke="black" d="M141.58,-284.07C147.25,-239.98 167.05,-133.66 230,-77 234.34,-73.09 239.43,-69.98 244.83,-67.5"/>
<polygon fill="black" stroke="black" points="138.09,-283.75 140.4,-294.09 145.04,-284.57 138.09,-283.75"/>
</g>
<!-- Node11 -->
<g id="node17" class="node">
<title>Node11</title>
<g id="a_node17"><a xlink:href="group__CO__STACK__CONFIG__SRDO.html" target="_top" xlink:title="Specified in standard EN 50325&#45;5 (CiA 304)">
<polygon fill="white" stroke="black" points="356,-30 241,-30 241,0 356,0 356,-30"/>
<text text-anchor="start" x="249" y="-18" font-family="Helvetica,sans-Serif" font-size="10.00">Safety Related Data</text>
<text text-anchor="middle" x="298.5" y="-7" font-family="Helvetica,sans-Serif" font-size="10.00"> Objects (SRDO)</text>
</a>
</g>
</g>
<!-- Node1&#45;&gt;Node11 -->
<g id="edge10" class="edge">
<title>Node1&#45;&gt;Node11</title>
<path fill="none" stroke="black" d="M140.58,-284.14C144.27,-235.54 160.42,-109.45 230,-39 233.41,-35.55 237.34,-32.59 241.57,-30.06"/>
<polygon fill="black" stroke="black" points="137.07,-284.06 139.91,-294.27 144.06,-284.52 137.07,-284.06"/>
</g>
</g>
</svg>
