<?xml version="1.0" encoding="UTF-8" standalone="no"?>
<!DOCTYPE svg PUBLIC "-//W3C//DTD SVG 1.1//EN"
 "http://www.w3.org/Graphics/SVG/1.1/DTD/svg11.dtd">
<!-- Generated by graphviz version 2.43.0 (0)
 -->
<!-- Title: Driver Pages: 1 -->
<svg width="367pt" height="261pt"
 viewBox="0.00 0.00 367.00 261.00" xmlns="http://www.w3.org/2000/svg" xmlns:xlink="http://www.w3.org/1999/xlink">

<svg id="main" version="1.1" xmlns="http://www.w3.org/2000/svg" xmlns:xlink="http://www.w3.org/1999/xlink" xml:space="preserve" onload="init(evt)">
<style type="text/css"><![CDATA[
.node, .edge {opacity: 0.7;}
.node.selected, .edge.selected {opacity: 1;}
.edge:hover path { stroke: red; }
.edge:hover polygon { stroke: red; fill: red; }
]]></style>
<script type="application/ecmascript" xlink:href="svg.min.js"/>
<svg id="graph" class="graph">
<g id="graph0" class="graph" transform="scale(1 1) rotate(0) translate(4 257)">
<title>Driver</title>
<!-- Node9 -->
<g id="Node000009" class="node">
<title>Node9</title>
<g id="a_Node000009"><a xlink:href="group__CO__CAN__ERR__status__t.html" target="_top" xlink:title=" ">
<polygon fill="white" stroke="#666666" points="354,-253 209,-253 209,-234 354,-234 354,-253"/>
<text text-anchor="middle" x="281.5" y="-241" font-family="Helvetica,sans-Serif" font-size="10.00">CAN error status bitmasks</text>
</a>
</g>
</g>
<!-- Node5 -->
<g id="Node000005" class="node">
<title>Node5</title>
<g id="a_Node000005"><a xlink:href="group__CO__CAN__Message__reception.html" target="_top" xlink:title=" ">
<polygon fill="white" stroke="#666666" points="359,-216 204,-216 204,-197 359,-197 359,-216"/>
<text text-anchor="middle" x="281.5" y="-204" font-family="Helvetica,sans-Serif" font-size="10.00">Reception of CAN messages</text>
</a>
</g>
</g>
<!-- Node6 -->
<g id="Node000006" class="node">
<title>Node6</title>
<g id="a_Node000006"><a xlink:href="group__CO__CAN__Message__transmission.html" target="_top" xlink:title=" ">
<polygon fill="white" stroke="#666666" points="340.5,-178.5 222.5,-178.5 222.5,-148.5 340.5,-148.5 340.5,-178.5"/>
<text text-anchor="start" x="230.5" y="-166.5" font-family="Helvetica,sans-Serif" font-size="10.00">Transmission of CAN</text>
<text text-anchor="middle" x="281.5" y="-155.5" font-family="Helvetica,sans-Serif" font-size="10.00"> messages</text>
</a>
</g>
</g>
<!-- Node2 -->
<g id="Node000002" class="node">
<title>Node2</title>
<g id="a_Node000002"><a xlink:href="group__CO__CANopen__301.html" target="_top" xlink:title=" ">
<polygon fill="white" stroke="#666666" points="85,-130 0,-130 0,-111 85,-111 85,-130"/>
<text text-anchor="middle" x="42.5" y="-118" font-family="Helvetica,sans-Serif" font-size="10.00">CANopen_301</text>
</a>
</g>
</g>
<!-- Node1 -->
<g id="Node000001" class="node">
<title>Node1</title>
<g id="a_Node000001"><a xlink:title="Interface between CAN hardware and CANopenNode.">
<polygon fill="#999999" stroke="#666666" points="168,-130 121,-130 121,-111 168,-111 168,-130"/>
<text text-anchor="middle" x="144.5" y="-118" font-family="Helvetica,sans-Serif" font-size="10.00">Driver</text>
</a>
</g>
</g>
<!-- Node2&#45;&gt;Node1 -->
<g id="edge1" class="edge">
<title>Node2&#45;&gt;Node1</title>
<path fill="none" stroke="black" d="M95.17,-120.5C104.17,-120.5 113.1,-120.5 120.79,-120.5"/>
<polygon fill="black" stroke="black" points="95.04,-117 85.04,-120.5 95.04,-124 95.04,-117"/>
</g>
<!-- Node8 -->
<g id="Node000008" class="node">
<title>Node8</title>
<g id="a_Node000008"><a xlink:href="group__CO__Default__CAN__ID__t.html" target="_top" xlink:title=" ">
<polygon fill="white" stroke="#666666" points="358,-130 205,-130 205,-111 358,-111 358,-130"/>
<text text-anchor="middle" x="281.5" y="-118" font-family="Helvetica,sans-Serif" font-size="10.00">Default CANopen identifiers</text>
</a>
</g>
</g>
<!-- Node3 -->
<g id="Node000003" class="node">
<title>Node3</title>
<g id="a_Node000003"><a xlink:href="group__CO__STACK__CONFIG.html" target="_top" xlink:title="Stack configuration and enabling macros.">
<polygon fill="white" stroke="#666666" points="337,-93 226,-93 226,-74 337,-74 337,-93"/>
<text text-anchor="middle" x="281.5" y="-81" font-family="Helvetica,sans-Serif" font-size="10.00">Stack configuration</text>
</a>
</g>
</g>
<!-- Node7 -->
<g id="Node000007" class="node">
<title>Node7</title>
<g id="a_Node000007"><a xlink:href="group__CO__critical__sections.html" target="_top" xlink:title=" ">
<polygon fill="white" stroke="#666666" points="329,-56 234,-56 234,-37 329,-37 329,-56"/>
<text text-anchor="middle" x="281.5" y="-44" font-family="Helvetica,sans-Serif" font-size="10.00">Critical sections</text>
</a>
</g>
</g>
<!-- Node4 -->
<g id="Node000004" class="node">
<title>Node4</title>
<g id="a_Node000004"><a xlink:href="group__CO__dataTypes.html" target="_top" xlink:title=" ">
<polygon fill="white" stroke="#666666" points="330.5,-19 232.5,-19 232.5,0 330.5,0 330.5,-19"/>
<text text-anchor="middle" x="281.5" y="-7" font-family="Helvetica,sans-Serif" font-size="10.00">Basic definitions</text>
</a>
</g>
</g>
<!-- Node1&#45;&gt;Node9 -->
<g id="edge8" class="edge">
<title>Node1&#45;&gt;Node9</title>
<path fill="none" stroke="black" d="M150.93,-139.77C158.69,-163.64 175.26,-203.8 204,-225.5 208.46,-228.87 213.46,-231.62 218.7,-233.87"/>
<polygon fill="black" stroke="black" points="154.24,-138.62 147.98,-130.08 147.55,-140.66 154.24,-138.62"/>
</g>
<!-- Node1&#45;&gt;Node5 -->
<g id="edge4" class="edge">
<title>Node1&#45;&gt;Node5</title>
<path fill="none" stroke="black" d="M156.97,-139.02C167.39,-154.3 184.14,-175.37 204,-187.5 210.31,-191.35 217.36,-194.42 224.56,-196.87"/>
<polygon fill="black" stroke="black" points="159.73,-136.84 151.33,-130.39 153.87,-140.67 159.73,-136.84"/>
</g>
<!-- Node1&#45;&gt;Node6 -->
<g id="edge5" class="edge">
<title>Node1&#45;&gt;Node6</title>
<path fill="none" stroke="black" d="M177.86,-131.07C186.36,-133.83 195.52,-136.79 204,-139.5 213.15,-142.42 222.92,-145.51 232.32,-148.47"/>
<polygon fill="black" stroke="black" points="178.86,-127.72 168.26,-127.95 176.69,-134.37 178.86,-127.72"/>
</g>
<!-- Node1&#45;&gt;Node8 -->
<g id="edge7" class="edge">
<title>Node1&#45;&gt;Node8</title>
<path fill="none" stroke="black" d="M178.22,-120.5C186.38,-120.5 195.47,-120.5 204.77,-120.5"/>
<polygon fill="black" stroke="black" points="178.1,-117 168.1,-120.5 178.1,-124 178.1,-117"/>
</g>
<!-- Node1&#45;&gt;Node3 -->
<g id="edge2" class="edge">
<title>Node1&#45;&gt;Node3</title>
<path fill="none" stroke="black" d="M177.73,-109.5C186.23,-106.75 195.43,-103.9 204,-101.5 214.64,-98.52 226.21,-95.63 237.05,-93.06"/>
<polygon fill="black" stroke="black" points="176.55,-106.21 168.15,-112.66 178.74,-112.85 176.55,-106.21"/>
</g>
<!-- Node1&#45;&gt;Node7 -->
<g id="edge6" class="edge">
<title>Node1&#45;&gt;Node7</title>
<path fill="none" stroke="black" d="M159.3,-103.01C170.15,-90.44 186.33,-74.09 204,-64.5 213.11,-59.55 223.56,-55.96 233.74,-53.35"/>
<polygon fill="black" stroke="black" points="156.39,-101.04 152.7,-110.97 161.78,-105.51 156.39,-101.04"/>
</g>
<!-- Node1&#45;&gt;Node4 -->
<g id="edge3" class="edge">
<title>Node1&#45;&gt;Node4</title>
<path fill="none" stroke="black" d="M152.43,-101.24C161.12,-79.87 178.11,-45.99 204,-27.5 212.33,-21.55 222.34,-17.55 232.34,-14.85"/>
<polygon fill="black" stroke="black" points="149.05,-100.27 148.73,-110.86 155.58,-102.78 149.05,-100.27"/>
</g>
</g>
</svg>
</svg>

<style type='text/css'>
<![CDATA[
[data-mouse-over-selected='false'] { opacity: 0.7; }
[data-mouse-over-selected='true']  { opacity: 1.0; }
]]>
</style>
<script type="application/ecmascript"><![CDATA[
document.addEventListener('DOMContentLoaded', (event) => {
  highlightEdges();
  highlightAdjacentNodes();
});
]]></script>
</svg>
