<?xml version="1.0" encoding="UTF-8" standalone="no"?>
<!DOCTYPE svg PUBLIC "-//W3C//DTD SVG 1.1//EN"
 "http://www.w3.org/Graphics/SVG/1.1/DTD/svg11.dtd">
<!-- Generated by graphviz version 2.43.0 (0)
 -->
<!-- Title: Gateway ASCII mapping Pages: 1 -->
<svg width="402pt" height="27pt"
 viewBox="0.00 0.00 402.00 27.00" xmlns="http://www.w3.org/2000/svg" xmlns:xlink="http://www.w3.org/1999/xlink">
<g id="graph0" class="graph" transform="scale(1 1) rotate(0) translate(4 23)">
<title>Gateway ASCII mapping</title>
<polygon fill="white" stroke="transparent" points="-4,4 -4,-23 398,-23 398,4 -4,4"/>
<!-- Node2 -->
<g id="node1" class="node">
<title>Node2</title>
<g id="a_node1"><a xlink:href="group__CO__CANopen__309.html" target="_top" xlink:title="CANopen access from other networks (CiA 309)">
<polygon fill="white" stroke="black" points="85,-19 0,-19 0,0 85,0 85,-19"/>
<text text-anchor="middle" x="42.5" y="-7" font-family="Helvetica,sans-Serif" font-size="10.00">CANopen_309</text>
</a>
</g>
</g>
<!-- Node1 -->
<g id="node3" class="node">
<title>Node1</title>
<g id="a_node3"><a xlink:title="CANopen access from other networks &#45; ASCII mapping (CiA 309&#45;3 DSP v3.0.0)">
<polygon fill="#bfbfbf" stroke="black" points="255,-19 121,-19 121,0 255,0 255,-19"/>
<text text-anchor="middle" x="188" y="-7" font-family="Helvetica,sans-Serif" font-size="10.00">Gateway ASCII mapping</text>
</a>
</g>
</g>
<!-- Node2&#45;&gt;Node1 -->
<g id="edge1" class="edge">
<title>Node2&#45;&gt;Node1</title>
<path fill="none" stroke="black" d="M95.04,-9.5C103.46,-9.5 112.28,-9.5 120.99,-9.5"/>
<polygon fill="black" stroke="black" points="95.01,-6 85.01,-9.5 95.01,-13 95.01,-6"/>
</g>
<!-- Node3 -->
<g id="node2" class="node">
<title>Node3</title>
<g id="a_node2"><a xlink:href="group__CO__CANopen__309__3__Syntax.html" target="_top" xlink:title="ASCII command syntax.">
<polygon fill="white" stroke="black" points="394,-19 291,-19 291,0 394,0 394,-19"/>
<text text-anchor="middle" x="342.5" y="-7" font-family="Helvetica,sans-Serif" font-size="10.00">Command syntax</text>
</a>
</g>
</g>
<!-- Node1&#45;&gt;Node3 -->
<g id="edge2" class="edge">
<title>Node1&#45;&gt;Node3</title>
<path fill="none" stroke="black" d="M265.11,-9.5C273.74,-9.5 282.38,-9.5 290.57,-9.5"/>
<polygon fill="black" stroke="black" points="265,-6 255,-9.5 265,-13 265,-6"/>
</g>
</g>
</svg>
