<?xml version="1.0" encoding="UTF-8" standalone="no"?>
<!DOCTYPE svg PUBLIC "-//W3C//DTD SVG 1.1//EN"
 "http://www.w3.org/Graphics/SVG/1.1/DTD/svg11.dtd">
<!-- Generated by graphviz version 2.43.0 (0)
 -->
<!-- Title: CANopen_storage Pages: 1 -->
<svg width="280pt" height="64pt"
 viewBox="0.00 0.00 280.00 64.00" xmlns="http://www.w3.org/2000/svg" xmlns:xlink="http://www.w3.org/1999/xlink">
<g id="graph0" class="graph" transform="scale(1 1) rotate(0) translate(4 60)">
<title>CANopen_storage</title>
<polygon fill="white" stroke="transparent" points="-4,4 -4,-60 276,-60 276,4 -4,4"/>
<!-- Node2 -->
<g id="node1" class="node">
<title>Node2</title>
<g id="a_node1"><a xlink:href="group__CO__storage.html" target="_top" xlink:title="Base module for Data storage.">
<polygon fill="white" stroke="black" points="259,-56 153,-56 153,-37 259,-37 259,-56"/>
<text text-anchor="middle" x="206" y="-44" font-family="Helvetica,sans-Serif" font-size="10.00">Data storage base</text>
</a>
</g>
</g>
<!-- Node3 -->
<g id="node2" class="node">
<title>Node3</title>
<g id="a_node2"><a xlink:href="group__CO__storage__eeprom.html" target="_top" xlink:title="Eeprom specific data storage functions.">
<polygon fill="white" stroke="black" points="272,-19 140,-19 140,0 272,0 272,-19"/>
<text text-anchor="middle" x="206" y="-7" font-family="Helvetica,sans-Serif" font-size="10.00">Data storage in eeprom</text>
</a>
</g>
</g>
<!-- Node1 -->
<g id="node3" class="node">
<title>Node1</title>
<g id="a_node3"><a xlink:title="CANopen Object Dictionary and other data storage.">
<polygon fill="#bfbfbf" stroke="black" points="104,-37 0,-37 0,-18 104,-18 104,-37"/>
<text text-anchor="middle" x="52" y="-25" font-family="Helvetica,sans-Serif" font-size="10.00">CANopen_storage</text>
</a>
</g>
</g>
<!-- Node1&#45;&gt;Node2 -->
<g id="edge1" class="edge">
<title>Node1&#45;&gt;Node2</title>
<path fill="none" stroke="black" d="M114.15,-35.14C126.96,-36.75 140.36,-38.42 152.8,-39.98"/>
<polygon fill="black" stroke="black" points="114.39,-31.65 104.04,-33.88 113.53,-38.59 114.39,-31.65"/>
</g>
<!-- Node1&#45;&gt;Node3 -->
<g id="edge2" class="edge">
<title>Node1&#45;&gt;Node3</title>
<path fill="none" stroke="black" d="M114.17,-20.26C122.6,-19.26 131.29,-18.23 139.79,-17.22"/>
<polygon fill="black" stroke="black" points="113.56,-16.8 104.04,-21.46 114.38,-23.76 113.56,-16.8"/>
</g>
</g>
</svg>
