<?xml version="1.0" encoding="UTF-8" standalone="no"?>
<!DOCTYPE svg PUBLIC "-//W3C//DTD SVG 1.1//EN"
 "http://www.w3.org/Graphics/SVG/1.1/DTD/svg11.dtd">
<!-- Generated by graphviz version 2.43.0 (0)
 -->
<!-- Title: CANopen_301 Pages: 1 -->
<svg width="285pt" height="527pt"
 viewBox="0.00 0.00 285.00 527.00" xmlns="http://www.w3.org/2000/svg" xmlns:xlink="http://www.w3.org/1999/xlink">
<g id="graph0" class="graph" transform="scale(1 1) rotate(0) translate(4 523)">
<title>CANopen_301</title>
<!-- Node1 -->
<g id="Node000001" class="node">
<title>Node1</title>
<g id="a_Node000001"><a xlink:title=" ">
<polygon fill="#999999" stroke="#666666" points="85,-241 0,-241 0,-222 85,-222 85,-241"/>
<text text-anchor="middle" x="42.5" y="-229" font-family="Helvetica,sans-Serif" font-size="10.00">CANopen_301</text>
</a>
</g>
</g>
<!-- Node4 -->
<g id="Node000004" class="node">
<title>Node4</title>
<g id="a_Node000004"><a xlink:href="group__CO__CANopen__301__fifo.html" target="_top" xlink:title=" ">
<polygon fill="white" stroke="#666666" points="269,-519 129,-519 129,-478 269,-478 269,-519"/>
<text text-anchor="start" x="137" y="-507" font-family="Helvetica,sans-Serif" font-size="10.00">FIFO circular buffer</text>
<text text-anchor="start" x="137" y="-496" font-family="Helvetica,sans-Serif" font-size="10.00"> FIFO circular buffer</text>
<text text-anchor="middle" x="199" y="-485" font-family="Helvetica,sans-Serif" font-size="10.00"> for continuous data flow.</text>
</a>
</g>
</g>
<!-- Node1&#45;&gt;Node4 -->
<g id="edge3" class="edge">
<title>Node1&#45;&gt;Node4</title>
<path fill="none" stroke="black" d="M44.36,-251.3C47.36,-296.15 60.79,-406.5 121,-469.5 123.96,-472.6 127.28,-475.37 130.85,-477.85"/>
<polygon fill="black" stroke="black" points="47.84,-250.94 43.79,-241.15 40.86,-251.33 47.84,-250.94"/>
</g>
<!-- Node3 -->
<g id="Node000003" class="node">
<title>Node3</title>
<g id="a_Node000003"><a xlink:href="group__CO__Emergency.html" target="_top" xlink:title="CANopen Emergency protocol.">
<polygon fill="white" stroke="#666666" points="234.5,-460 163.5,-460 163.5,-441 234.5,-441 234.5,-460"/>
<text text-anchor="middle" x="199" y="-448" font-family="Helvetica,sans-Serif" font-size="10.00">Emergency</text>
</a>
</g>
</g>
<!-- Node1&#45;&gt;Node3 -->
<g id="edge2" class="edge">
<title>Node1&#45;&gt;Node3</title>
<path fill="none" stroke="black" d="M45.16,-251.45C49.64,-292.02 65.68,-384.35 121,-432.5 132.6,-442.59 148.79,-447.3 163.33,-449.4"/>
<polygon fill="black" stroke="black" points="48.62,-250.87 44.16,-241.25 41.65,-251.55 48.62,-250.87"/>
</g>
<!-- Node5 -->
<g id="Node000005" class="node">
<title>Node5</title>
<g id="a_Node000005"><a xlink:href="group__CO__HBconsumer.html" target="_top" xlink:title="CANopen Heartbeat consumer protocol.">
<polygon fill="white" stroke="#666666" points="257,-423 141,-423 141,-404 257,-404 257,-423"/>
<text text-anchor="middle" x="199" y="-411" font-family="Helvetica,sans-Serif" font-size="10.00">Heartbeat consumer</text>
</a>
</g>
</g>
<!-- Node1&#45;&gt;Node5 -->
<g id="edge4" class="edge">
<title>Node1&#45;&gt;Node5</title>
<path fill="none" stroke="black" d="M46.97,-250.87C54.23,-285.48 74.36,-357.82 121,-395.5 126.87,-400.24 133.78,-403.78 141,-406.41"/>
<polygon fill="black" stroke="black" points="50.41,-250.19 45.05,-241.05 43.54,-251.54 50.41,-250.19"/>
</g>
<!-- Node6 -->
<g id="Node000006" class="node">
<title>Node6</title>
<g id="a_Node000006"><a xlink:href="group__CO__NMT__Heartbeat.html" target="_top" xlink:title="CANopen Network management and Heartbeat producer protocol.">
<polygon fill="white" stroke="#666666" points="255,-386 143,-386 143,-367 255,-367 255,-386"/>
<text text-anchor="middle" x="199" y="-374" font-family="Helvetica,sans-Serif" font-size="10.00">NMT and Heartbeat</text>
</a>
</g>
</g>
<!-- Node1&#45;&gt;Node6 -->
<g id="edge5" class="edge">
<title>Node1&#45;&gt;Node6</title>
<path fill="none" stroke="black" d="M49.91,-250.6C60.29,-278.52 83.48,-330.11 121,-357.5 127.45,-362.21 134.93,-365.76 142.64,-368.43"/>
<polygon fill="black" stroke="black" points="53.2,-249.41 46.56,-241.16 46.61,-251.76 53.2,-249.41"/>
</g>
<!-- Node7 -->
<g id="Node000007" class="node">
<title>Node7</title>
<g id="a_Node000007"><a xlink:href="group__CO__Node__Guarding.html" target="_top" xlink:title=" ">
<polygon fill="white" stroke="#666666" points="277,-348.5 121,-348.5 121,-296.5 277,-296.5 277,-348.5"/>
<text text-anchor="start" x="129" y="-336.5" font-family="Helvetica,sans-Serif" font-size="10.00">Node Guarding CANopen</text>
<text text-anchor="start" x="129" y="-325.5" font-family="Helvetica,sans-Serif" font-size="10.00"> Node Guarding, an older</text>
<text text-anchor="start" x="129" y="-314.5" font-family="Helvetica,sans-Serif" font-size="10.00"> alternative to the Heartbeat</text>
<text text-anchor="middle" x="199" y="-303.5" font-family="Helvetica,sans-Serif" font-size="10.00"> protocol.</text>
</a>
</g>
</g>
<!-- Node1&#45;&gt;Node7 -->
<g id="edge6" class="edge">
<title>Node1&#45;&gt;Node7</title>
<path fill="none" stroke="black" d="M63.49,-247.65C78.71,-259.51 100.48,-275.58 121,-287.5 126.21,-290.52 131.72,-293.48 137.31,-296.3"/>
<polygon fill="black" stroke="black" points="65.36,-244.66 55.34,-241.21 61.02,-250.15 65.36,-244.66"/>
</g>
<!-- Node8 -->
<g id="Node000008" class="node">
<title>Node8</title>
<g id="a_Node000008"><a xlink:href="group__CO__ODinterface.html" target="_top" xlink:title="CANopen Object Dictionary interface.">
<polygon fill="white" stroke="#666666" points="238,-278 160,-278 160,-259 238,-259 238,-278"/>
<text text-anchor="middle" x="199" y="-266" font-family="Helvetica,sans-Serif" font-size="10.00">OD interface</text>
</a>
</g>
</g>
<!-- Node1&#45;&gt;Node8 -->
<g id="edge7" class="edge">
<title>Node1&#45;&gt;Node8</title>
<path fill="none" stroke="black" d="M91.95,-243.46C101.57,-245.81 111.6,-248.25 121,-250.5 133.68,-253.54 147.56,-256.8 159.99,-259.7"/>
<polygon fill="black" stroke="black" points="92.66,-240.03 82.11,-241.05 90.99,-246.83 92.66,-240.03"/>
</g>
<!-- Node9 -->
<g id="Node000009" class="node">
<title>Node9</title>
<g id="a_Node000009"><a xlink:href="group__CO__PDO.html" target="_top" xlink:title="CANopen Process Data Object protocol.">
<polygon fill="white" stroke="#666666" points="218,-241 180,-241 180,-222 218,-222 218,-241"/>
<text text-anchor="middle" x="199" y="-229" font-family="Helvetica,sans-Serif" font-size="10.00">PDO</text>
</a>
</g>
</g>
<!-- Node1&#45;&gt;Node9 -->
<g id="edge8" class="edge">
<title>Node1&#45;&gt;Node9</title>
<path fill="none" stroke="black" d="M95.38,-231.5C124.6,-231.5 159.26,-231.5 179.9,-231.5"/>
<polygon fill="black" stroke="black" points="95.31,-228 85.31,-231.5 95.31,-235 95.31,-228"/>
</g>
<!-- Node10 -->
<g id="Node000010" class="node">
<title>Node10</title>
<g id="a_Node000010"><a xlink:href="group__CO__SDOclient.html" target="_top" xlink:title="CANopen Service Data Object &#45; client protocol.">
<polygon fill="white" stroke="#666666" points="233,-204 165,-204 165,-185 233,-185 233,-204"/>
<text text-anchor="middle" x="199" y="-192" font-family="Helvetica,sans-Serif" font-size="10.00">SDO client</text>
</a>
</g>
</g>
<!-- Node1&#45;&gt;Node10 -->
<g id="edge9" class="edge">
<title>Node1&#45;&gt;Node10</title>
<path fill="none" stroke="black" d="M93.08,-219.63C116.55,-214.01 143.96,-207.44 164.87,-202.43"/>
<polygon fill="black" stroke="black" points="92.2,-216.24 83.29,-221.97 93.83,-223.05 92.2,-216.24"/>
</g>
<!-- Node11 -->
<g id="Node000011" class="node">
<title>Node11</title>
<g id="a_Node000011"><a xlink:href="group__CO__SDOserver.html" target="_top" xlink:title="CANopen Service Data Object &#45; server protocol.">
<polygon fill="white" stroke="#666666" points="234.5,-167 163.5,-167 163.5,-148 234.5,-148 234.5,-167"/>
<text text-anchor="middle" x="199" y="-155" font-family="Helvetica,sans-Serif" font-size="10.00">SDO server</text>
</a>
</g>
</g>
<!-- Node1&#45;&gt;Node11 -->
<g id="edge10" class="edge">
<title>Node1&#45;&gt;Node11</title>
<path fill="none" stroke="black" d="M62.17,-215.18C77.14,-202.89 99.18,-186.49 121,-176.5 134.27,-170.42 149.75,-166.12 163.34,-163.16"/>
<polygon fill="black" stroke="black" points="59.62,-212.75 54.23,-221.87 64.13,-218.1 59.62,-212.75"/>
</g>
<!-- Node12 -->
<g id="Node000012" class="node">
<title>Node12</title>
<g id="a_Node000012"><a xlink:href="group__CO__SYNC.html" target="_top" xlink:title="CANopen Synchronisation protocol.">
<polygon fill="white" stroke="#666666" points="220.5,-130 177.5,-130 177.5,-111 220.5,-111 220.5,-130"/>
<text text-anchor="middle" x="199" y="-118" font-family="Helvetica,sans-Serif" font-size="10.00">SYNC</text>
</a>
</g>
</g>
<!-- Node1&#45;&gt;Node12 -->
<g id="edge11" class="edge">
<title>Node1&#45;&gt;Node12</title>
<path fill="none" stroke="black" d="M53.86,-213.34C66.82,-192.3 91.01,-158.15 121,-139.5 138.19,-128.81 161.03,-124.13 177.36,-122.09"/>
<polygon fill="black" stroke="black" points="50.82,-211.6 48.71,-221.98 56.84,-215.18 50.82,-211.6"/>
</g>
<!-- Node13 -->
<g id="Node000013" class="node">
<title>Node13</title>
<g id="a_Node000013"><a xlink:href="group__CO__TIME.html" target="_top" xlink:title="CANopen Time&#45;stamp protocol.">
<polygon fill="white" stroke="#666666" points="219.5,-93 178.5,-93 178.5,-74 219.5,-74 219.5,-93"/>
<text text-anchor="middle" x="199" y="-81" font-family="Helvetica,sans-Serif" font-size="10.00">TIME</text>
</a>
</g>
</g>
<!-- Node1&#45;&gt;Node13 -->
<g id="edge12" class="edge">
<title>Node1&#45;&gt;Node13</title>
<path fill="none" stroke="black" d="M49.63,-212.37C59.77,-183.9 82.79,-130.7 121,-102.5 137.73,-90.15 161.51,-85.76 178.21,-84.24"/>
<polygon fill="black" stroke="black" points="46.27,-211.37 46.37,-221.97 52.9,-213.62 46.27,-211.37"/>
</g>
<!-- Node14 -->
<g id="Node000014" class="node">
<title>Node14</title>
<g id="a_Node000014"><a xlink:href="group__CO__crc16__ccitt.html" target="_top" xlink:title="Calculation of CRC 16 CCITT polynomial.">
<polygon fill="white" stroke="#666666" points="240.5,-56 157.5,-56 157.5,-37 240.5,-37 240.5,-56"/>
<text text-anchor="middle" x="199" y="-44" font-family="Helvetica,sans-Serif" font-size="10.00">CRC 16 CCITT</text>
</a>
</g>
</g>
<!-- Node1&#45;&gt;Node14 -->
<g id="edge13" class="edge">
<title>Node1&#45;&gt;Node14</title>
<path fill="none" stroke="black" d="M46.94,-211.96C54.15,-177.03 74.22,-103.95 121,-65.5 131.21,-57.11 144.59,-52.34 157.33,-49.65"/>
<polygon fill="black" stroke="black" points="43.49,-211.38 45.04,-221.87 50.36,-212.71 43.49,-211.38"/>
</g>
<!-- Node2 -->
<g id="Node000002" class="node">
<title>Node2</title>
<g id="a_Node000002"><a xlink:href="group__CO__driver.html" target="_top" xlink:title="Interface between CAN hardware and CANopenNode.">
<polygon fill="white" stroke="#666666" points="222.5,-19 175.5,-19 175.5,0 222.5,0 222.5,-19"/>
<text text-anchor="middle" x="199" y="-7" font-family="Helvetica,sans-Serif" font-size="10.00">Driver</text>
</a>
</g>
</g>
<!-- Node1&#45;&gt;Node2 -->
<g id="edge1" class="edge">
<title>Node1&#45;&gt;Node2</title>
<path fill="none" stroke="black" d="M45.11,-211.67C49.52,-170.95 65.46,-77.61 121,-28.5 135.85,-15.37 158.36,-11 175.21,-9.69"/>
<polygon fill="black" stroke="black" points="41.62,-211.39 44.15,-221.68 48.59,-212.06 41.62,-211.39"/>
</g>
</g>
</svg>
