<?xml version="1.0" encoding="UTF-8" standalone="no"?>
<!DOCTYPE svg PUBLIC "-//W3C//DTD SVG 1.1//EN"
 "http://www.w3.org/Graphics/SVG/1.1/DTD/svg11.dtd">
<!-- Generated by graphviz version 2.43.0 (0)
 -->
<!-- Title: CANopen_305 Pages: 1 -->
<svg width="200pt" height="101pt"
 viewBox="0.00 0.00 200.00 101.00" xmlns="http://www.w3.org/2000/svg" xmlns:xlink="http://www.w3.org/1999/xlink">

<svg id="main" version="1.1" xmlns="http://www.w3.org/2000/svg" xmlns:xlink="http://www.w3.org/1999/xlink" xml:space="preserve" onload="init(evt)">
<style type="text/css"><![CDATA[
.node, .edge {opacity: 0.7;}
.node.selected, .edge.selected {opacity: 1;}
.edge:hover path { stroke: red; }
.edge:hover polygon { stroke: red; fill: red; }
]]></style>
<script type="application/ecmascript" xlink:href="svg.min.js"/>
<svg id="graph" class="graph">
<g id="graph0" class="graph" transform="scale(1 1) rotate(0) translate(4 97)">
<title>CANopen_305</title>
<!-- Node1 -->
<g id="Node000001" class="node">
<title>Node1</title>
<g id="a_Node000001"><a xlink:title=" ">
<polygon fill="#999999" stroke="#666666" points="85,-56 0,-56 0,-37 85,-37 85,-56"/>
<text text-anchor="middle" x="42.5" y="-44" font-family="Helvetica,sans-Serif" font-size="10.00">CANopen_305</text>
</a>
</g>
</g>
<!-- Node2 -->
<g id="Node000002" class="node">
<title>Node2</title>
<g id="a_Node000002"><a xlink:href="group__CO__LSS.html" target="_top" xlink:title="CANopen Layer Setting Services protocol (common).">
<polygon fill="white" stroke="#666666" points="173.5,-93 139.5,-93 139.5,-74 173.5,-74 173.5,-93"/>
<text text-anchor="middle" x="156.5" y="-81" font-family="Helvetica,sans-Serif" font-size="10.00">LSS</text>
</a>
</g>
</g>
<!-- Node1&#45;&gt;Node2 -->
<g id="edge1" class="edge">
<title>Node1&#45;&gt;Node2</title>
<path fill="none" stroke="black" d="M81.94,-59.2C101.52,-65.67 124.28,-73.19 139.24,-78.13"/>
<polygon fill="black" stroke="black" points="82.94,-55.84 72.34,-56.03 80.74,-62.49 82.94,-55.84"/>
</g>
<!-- Node3 -->
<g id="Node000003" class="node">
<title>Node3</title>
<g id="a_Node000003"><a xlink:href="group__CO__LSSmaster.html" target="_top" xlink:title="CANopen Layer Setting Service &#45; master protocol.">
<polygon fill="white" stroke="#666666" points="192,-56 121,-56 121,-37 192,-37 192,-56"/>
<text text-anchor="middle" x="156.5" y="-44" font-family="Helvetica,sans-Serif" font-size="10.00">LSS Master</text>
</a>
</g>
</g>
<!-- Node1&#45;&gt;Node3 -->
<g id="edge2" class="edge">
<title>Node1&#45;&gt;Node3</title>
<path fill="none" stroke="black" d="M95.23,-46.5C103.87,-46.5 112.64,-46.5 120.72,-46.5"/>
<polygon fill="black" stroke="black" points="95.2,-43 85.2,-46.5 95.2,-50 95.2,-43"/>
</g>
<!-- Node4 -->
<g id="Node000004" class="node">
<title>Node4</title>
<g id="a_Node000004"><a xlink:href="group__CO__LSSslave.html" target="_top" xlink:title="CANopen Layer Setting Service &#45; slave protocol.">
<polygon fill="white" stroke="#666666" points="188.5,-19 124.5,-19 124.5,0 188.5,0 188.5,-19"/>
<text text-anchor="middle" x="156.5" y="-7" font-family="Helvetica,sans-Serif" font-size="10.00">LSS Slave</text>
</a>
</g>
</g>
<!-- Node1&#45;&gt;Node4 -->
<g id="edge3" class="edge">
<title>Node1&#45;&gt;Node4</title>
<path fill="none" stroke="black" d="M82.06,-33.76C96.59,-28.96 112.84,-23.59 126.37,-19.12"/>
<polygon fill="black" stroke="black" points="80.74,-30.51 72.34,-36.97 82.94,-37.16 80.74,-30.51"/>
</g>
</g>
</svg>
</svg>

<style type='text/css'>
<![CDATA[
[data-mouse-over-selected='false'] { opacity: 0.7; }
[data-mouse-over-selected='true']  { opacity: 1.0; }
]]>
</style>
<script type="application/ecmascript"><![CDATA[
document.addEventListener('DOMContentLoaded', (event) => {
  highlightEdges();
  highlightAdjacentNodes();
});
]]></script>
</svg>
