<?xml version="1.0" encoding="UTF-8" standalone="no"?>
<!DOCTYPE svg PUBLIC "-//W3C//DTD SVG 1.1//EN"
 "http://www.w3.org/Graphics/SVG/1.1/DTD/svg11.dtd">
<!-- Generated by graphviz version 2.43.0 (0)
 -->
<!-- Title: CANopen_304 Pages: 1 -->
<svg width="173pt" height="64pt"
 viewBox="0.00 0.00 173.00 64.00" xmlns="http://www.w3.org/2000/svg" xmlns:xlink="http://www.w3.org/1999/xlink">
<g id="graph0" class="graph" transform="scale(1 1) rotate(0) translate(4 60)">
<title>CANopen_304</title>
<polygon fill="white" stroke="transparent" points="-4,4 -4,-60 169,-60 169,4 -4,4"/>
<!-- Node3 -->
<g id="node1" class="node">
<title>Node3</title>
<g id="a_node1"><a xlink:href="group__CO__SRDO.html" target="_top" xlink:title="CANopen Safety Related Data Object protocol.">
<polygon fill="white" stroke="black" points="165,-56 121,-56 121,-37 165,-37 165,-56"/>
<text text-anchor="middle" x="143" y="-44" font-family="Helvetica,sans-Serif" font-size="10.00">SRDO</text>
</a>
</g>
</g>
<!-- Node1 -->
<g id="node2" class="node">
<title>Node1</title>
<g id="a_node2"><a xlink:title="CANopen Safety (EN 50325­&#45;5:2010 (formerly CiA 304))">
<polygon fill="#bfbfbf" stroke="black" points="85,-37 0,-37 0,-18 85,-18 85,-37"/>
<text text-anchor="middle" x="42.5" y="-25" font-family="Helvetica,sans-Serif" font-size="10.00">CANopen_304</text>
</a>
</g>
</g>
<!-- Node1&#45;&gt;Node3 -->
<g id="edge2" class="edge">
<title>Node1&#45;&gt;Node3</title>
<path fill="none" stroke="black" d="M95.13,-37.46C104.22,-39.21 113.21,-40.95 120.84,-42.42"/>
<polygon fill="black" stroke="black" points="95.75,-34.02 85.27,-35.56 94.43,-40.89 95.75,-34.02"/>
</g>
<!-- Node2 -->
<g id="node3" class="node">
<title>Node2</title>
<g id="a_node3"><a xlink:href="group__CO__GFC.html" target="_top" xlink:title="Global fail&#45;safe command protocol.">
<polygon fill="white" stroke="black" points="161.5,-19 124.5,-19 124.5,0 161.5,0 161.5,-19"/>
<text text-anchor="middle" x="143" y="-7" font-family="Helvetica,sans-Serif" font-size="10.00">GFC</text>
</a>
</g>
</g>
<!-- Node1&#45;&gt;Node2 -->
<g id="edge1" class="edge">
<title>Node1&#45;&gt;Node2</title>
<path fill="none" stroke="black" d="M95.25,-18.04C105.68,-16.14 115.96,-14.26 124.21,-12.75"/>
<polygon fill="black" stroke="black" points="94.48,-14.63 85.27,-19.87 95.74,-21.51 94.48,-14.63"/>
</g>
</g>
</svg>
