<?xml version="1.0" encoding="UTF-8" standalone="no"?>
<!DOCTYPE svg PUBLIC "-//W3C//DTD SVG 1.1//EN"
 "http://www.w3.org/Graphics/SVG/1.1/DTD/svg11.dtd">
<!-- Generated by graphviz version 2.43.0 (0)
 -->
<!-- Title: CO_TPDO_t Pages: 1 -->
<svg width="806pt" height="355pt"
 viewBox="0.00 0.00 806.00 355.00" xmlns="http://www.w3.org/2000/svg" xmlns:xlink="http://www.w3.org/1999/xlink">
<g id="graph0" class="graph" transform="scale(1 1) rotate(0) translate(4 351)">
<title>CO_TPDO_t</title>
<polygon fill="white" stroke="transparent" points="-4,4 -4,-351 802,-351 802,4 -4,4"/>
<!-- Node1 -->
<g id="node1" class="node">
<title>Node1</title>
<g id="a_node1"><a xlink:title="TPDO object.">
<polygon fill="#bfbfbf" stroke="black" points="191,-0.5 191,-19.5 263,-19.5 263,-0.5 191,-0.5"/>
<text text-anchor="middle" x="227" y="-7.5" font-family="Helvetica,sans-Serif" font-size="10.00">CO_TPDO_t</text>
</a>
</g>
</g>
<!-- Node2 -->
<g id="node2" class="node">
<title>Node2</title>
<g id="a_node2"><a xlink:href="structCO__SYNC__t.html" target="_top" xlink:title="SYNC producer and consumer object.">
<polygon fill="white" stroke="black" points="191.5,-67.5 191.5,-86.5 262.5,-86.5 262.5,-67.5 191.5,-67.5"/>
<text text-anchor="middle" x="227" y="-74.5" font-family="Helvetica,sans-Serif" font-size="10.00">CO_SYNC_t</text>
</a>
</g>
</g>
<!-- Node2&#45;&gt;Node1 -->
<g id="edge1" class="edge">
<title>Node2&#45;&gt;Node1</title>
<path fill="none" stroke="#9a32cd" stroke-dasharray="5,2" d="M227,-57.04C227,-44.67 227,-29.12 227,-19.63"/>
<polygon fill="#9a32cd" stroke="#9a32cd" points="223.5,-57.23 227,-67.23 230.5,-57.23 223.5,-57.23"/>
<text text-anchor="middle" x="242" y="-41" font-family="Helvetica,sans-Serif" font-size="10.00"> SYNC</text>
</g>
<!-- Node3 -->
<g id="node3" class="node">
<title>Node3</title>
<g id="a_node3"><a xlink:href="structCO__EM__t.html" target="_top" xlink:title="Emergency object.">
<polygon fill="white" stroke="black" points="271,-135.5 271,-154.5 331,-154.5 331,-135.5 271,-135.5"/>
<text text-anchor="middle" x="301" y="-142.5" font-family="Helvetica,sans-Serif" font-size="10.00">CO_EM_t</text>
</a>
</g>
</g>
<!-- Node3&#45;&gt;Node2 -->
<g id="edge2" class="edge">
<title>Node3&#45;&gt;Node2</title>
<path fill="none" stroke="#9a32cd" stroke-dasharray="5,2" d="M283.52,-128.41C268.99,-115.45 248.81,-97.46 236.91,-86.84"/>
<polygon fill="#9a32cd" stroke="#9a32cd" points="281.53,-131.33 291.33,-135.37 286.19,-126.1 281.53,-131.33"/>
<text text-anchor="middle" x="278.5" y="-108" font-family="Helvetica,sans-Serif" font-size="10.00"> em</text>
</g>
<!-- Node8 -->
<g id="node8" class="node">
<title>Node8</title>
<g id="a_node8"><a xlink:href="structCO__PDO__common__t.html" target="_top" xlink:title="PDO object, common properties.">
<polygon fill="white" stroke="black" points="407,-67.5 407,-86.5 521,-86.5 521,-67.5 407,-67.5"/>
<text text-anchor="middle" x="464" y="-74.5" font-family="Helvetica,sans-Serif" font-size="10.00">CO_PDO_common_t</text>
</a>
</g>
</g>
<!-- Node3&#45;&gt;Node8 -->
<g id="edge13" class="edge">
<title>Node3&#45;&gt;Node8</title>
<path fill="none" stroke="#9a32cd" stroke-dasharray="5,2" d="M311.61,-126.86C317.31,-119.04 325.01,-110.35 334,-105 355.89,-91.98 383.1,-85.17 406.97,-81.63"/>
<polygon fill="#9a32cd" stroke="#9a32cd" points="308.55,-125.14 305.88,-135.39 314.36,-129.04 308.55,-125.14"/>
<text text-anchor="middle" x="343.5" y="-108" font-family="Helvetica,sans-Serif" font-size="10.00"> em</text>
</g>
<!-- Node4 -->
<g id="node4" class="node">
<title>Node4</title>
<g id="a_node4"><a xlink:href="structCO__CANtx__t.html" target="_top" xlink:title="Configuration object for CAN transmit message for specific CANopenNode Object.">
<polygon fill="white" stroke="black" points="68,-327.5 68,-346.5 144,-346.5 144,-327.5 68,-327.5"/>
<text text-anchor="middle" x="106" y="-334.5" font-family="Helvetica,sans-Serif" font-size="10.00">CO_CANtx_t</text>
</a>
</g>
</g>
<!-- Node4&#45;&gt;Node1 -->
<g id="edge11" class="edge">
<title>Node4&#45;&gt;Node1</title>
<path fill="none" stroke="#9a32cd" stroke-dasharray="5,2" d="M64.49,-324.11C34.78,-312.76 0,-292.35 0,-259 0,-259 0,-259 0,-76 0,-36.8 126.69,-19.89 190.78,-13.85"/>
<polygon fill="#9a32cd" stroke="#9a32cd" points="63.31,-327.41 73.91,-327.48 65.67,-320.81 63.31,-327.41"/>
<text text-anchor="middle" x="27.5" y="-142.5" font-family="Helvetica,sans-Serif" font-size="10.00"> CANtxBuff</text>
</g>
<!-- Node4&#45;&gt;Node2 -->
<g id="edge9" class="edge">
<title>Node4&#45;&gt;Node2</title>
<path fill="none" stroke="#9a32cd" stroke-dasharray="5,2" d="M99.36,-317.71C89.15,-286.38 73.16,-221.24 97,-174 119.69,-129.04 174.47,-99.93 205.19,-86.55"/>
<polygon fill="#9a32cd" stroke="#9a32cd" points="96.09,-318.98 102.65,-327.3 102.71,-316.71 96.09,-318.98"/>
<text text-anchor="middle" x="124.5" y="-193.5" font-family="Helvetica,sans-Serif" font-size="10.00"> CANtxBuff</text>
</g>
<!-- Node4&#45;&gt;Node3 -->
<g id="edge3" class="edge">
<title>Node4&#45;&gt;Node3</title>
<path fill="none" stroke="#9a32cd" stroke-dasharray="5,2" d="M107.86,-317C110.86,-295.26 118.57,-259.63 138,-236 173.61,-192.67 235.82,-166.74 272.22,-154.52"/>
<polygon fill="#9a32cd" stroke="#9a32cd" points="104.35,-316.88 106.65,-327.22 111.3,-317.7 104.35,-316.88"/>
<text text-anchor="middle" x="165.5" y="-255.5" font-family="Helvetica,sans-Serif" font-size="10.00"> CANtxBuff</text>
</g>
<!-- Node5 -->
<g id="node5" class="node">
<title>Node5</title>
<g id="a_node5"><a xlink:href="structCO__CANmodule__t.html" target="_top" xlink:title="Complete CAN module object.">
<polygon fill="white" stroke="black" points="202.5,-248.5 202.5,-267.5 305.5,-267.5 305.5,-248.5 202.5,-248.5"/>
<text text-anchor="middle" x="254" y="-255.5" font-family="Helvetica,sans-Serif" font-size="10.00">CO_CANmodule_t</text>
</a>
</g>
</g>
<!-- Node4&#45;&gt;Node5 -->
<g id="edge5" class="edge">
<title>Node4&#45;&gt;Node5</title>
<path fill="none" stroke="#9a32cd" stroke-dasharray="5,2" d="M131.53,-322.72C161.93,-306.9 211.81,-280.95 237.52,-267.57"/>
<polygon fill="#9a32cd" stroke="#9a32cd" points="129.66,-319.75 122.4,-327.47 132.89,-325.95 129.66,-319.75"/>
<text text-anchor="middle" x="196" y="-301" font-family="Helvetica,sans-Serif" font-size="10.00"> txArray</text>
</g>
<!-- Node5&#45;&gt;Node2 -->
<g id="edge8" class="edge">
<title>Node5&#45;&gt;Node2</title>
<path fill="none" stroke="#9a32cd" stroke-dasharray="5,2" d="M243.04,-239.64C231.45,-220.15 213.9,-187.18 207,-156 201.38,-130.61 214.49,-100.94 222.07,-86.61"/>
<polygon fill="#9a32cd" stroke="#9a32cd" points="240.13,-241.58 248.33,-248.28 246.1,-237.92 240.13,-241.58"/>
<text text-anchor="middle" x="234.5" y="-148" font-family="Helvetica,sans-Serif" font-size="10.00"> CANdevRx</text>
<text text-anchor="middle" x="234.5" y="-137" font-family="Helvetica,sans-Serif" font-size="10.00">CANdevTx</text>
</g>
<!-- Node5&#45;&gt;Node3 -->
<g id="edge4" class="edge">
<title>Node5&#45;&gt;Node3</title>
<path fill="none" stroke="#9a32cd" stroke-dasharray="5,2" d="M255.3,-238.37C257.18,-220.82 261.79,-194.27 273,-174 277.13,-166.54 283.82,-159.74 289.63,-154.71"/>
<polygon fill="#9a32cd" stroke="#9a32cd" points="251.8,-238.17 254.41,-248.44 258.77,-238.79 251.8,-238.17"/>
<text text-anchor="middle" x="300.5" y="-193.5" font-family="Helvetica,sans-Serif" font-size="10.00"> CANdevTx</text>
</g>
<!-- Node5&#45;&gt;Node8 -->
<g id="edge16" class="edge">
<title>Node5&#45;&gt;Node8</title>
<path fill="none" stroke="#9a32cd" stroke-dasharray="5,2" d="M285.33,-244.39C300.18,-237.67 317.75,-228.6 332,-218 387.76,-176.55 440.05,-110.03 457.7,-86.55"/>
<polygon fill="#9a32cd" stroke="#9a32cd" points="283.78,-241.25 276.02,-248.46 286.58,-247.66 283.78,-241.25"/>
<text text-anchor="middle" x="440.5" y="-142.5" font-family="Helvetica,sans-Serif" font-size="10.00"> CANdev</text>
</g>
<!-- Node6 -->
<g id="node6" class="node">
<title>Node6</title>
<g id="a_node6"><a xlink:href="structCO__CANrx__t.html" target="_top" xlink:title="Configuration object for CAN received message for specific CANopenNode Object.">
<polygon fill="white" stroke="black" points="216,-327.5 216,-346.5 292,-346.5 292,-327.5 216,-327.5"/>
<text text-anchor="middle" x="254" y="-334.5" font-family="Helvetica,sans-Serif" font-size="10.00">CO_CANrx_t</text>
</a>
</g>
</g>
<!-- Node6&#45;&gt;Node5 -->
<g id="edge6" class="edge">
<title>Node6&#45;&gt;Node5</title>
<path fill="none" stroke="#9a32cd" stroke-dasharray="5,2" d="M254,-317.31C254,-301.59 254,-279.81 254,-267.81"/>
<polygon fill="#9a32cd" stroke="#9a32cd" points="250.5,-317.47 254,-327.47 257.5,-317.47 250.5,-317.47"/>
<text text-anchor="middle" x="274" y="-301" font-family="Helvetica,sans-Serif" font-size="10.00"> rxArray</text>
</g>
<!-- Node7 -->
<g id="node7" class="node">
<title>Node7</title>
<g id="a_node7"><a xlink:href="structOD__extension__t.html" target="_top" xlink:title="Extension of OD object, which can optionally be specified by application in initialization phase with...">
<polygon fill="white" stroke="black" points="480,-327.5 480,-346.5 574,-346.5 574,-327.5 480,-327.5"/>
<text text-anchor="middle" x="527" y="-334.5" font-family="Helvetica,sans-Serif" font-size="10.00">OD_extension_t</text>
</a>
</g>
</g>
<!-- Node7&#45;&gt;Node2 -->
<g id="edge10" class="edge">
<title>Node7&#45;&gt;Node2</title>
<path fill="none" stroke="#9a32cd" stroke-dasharray="5,2" d="M522.48,-317.42C516.21,-295.29 502.86,-258.49 479,-236 463.62,-221.51 447.89,-234.74 435,-218 412.02,-188.17 446.67,-164.06 424,-134 404.62,-108.31 314.17,-90.95 262.83,-82.99"/>
<polygon fill="#9a32cd" stroke="#9a32cd" points="519.14,-318.47 525.07,-327.24 525.91,-316.68 519.14,-318.47"/>
<text text-anchor="middle" x="485.5" y="-199" font-family="Helvetica,sans-Serif" font-size="10.00"> OD_1019_extension</text>
<text text-anchor="middle" x="485.5" y="-188" font-family="Helvetica,sans-Serif" font-size="10.00">OD_1005_extension</text>
</g>
<!-- Node7&#45;&gt;Node3 -->
<g id="edge7" class="edge">
<title>Node7&#45;&gt;Node3</title>
<path fill="none" stroke="#9a32cd" stroke-dasharray="5,2" d="M469.63,-331.14C432.35,-325 385.39,-311.16 356,-280 322.56,-244.56 351.9,-216.46 328,-174 323.83,-166.59 317.22,-159.69 311.59,-154.59"/>
<polygon fill="#9a32cd" stroke="#9a32cd" points="469.46,-334.66 479.86,-332.68 470.49,-327.73 469.46,-334.66"/>
<text text-anchor="middle" x="417.5" y="-272" font-family="Helvetica,sans-Serif" font-size="10.00"> OD_1003_extension</text>
<text text-anchor="middle" x="417.5" y="-261" font-family="Helvetica,sans-Serif" font-size="10.00">OD_statusBits_extension</text>
<text text-anchor="middle" x="417.5" y="-250" font-family="Helvetica,sans-Serif" font-size="10.00">OD_1014_extension</text>
<text text-anchor="middle" x="417.5" y="-239" font-family="Helvetica,sans-Serif" font-size="10.00">OD_1015_extension</text>
</g>
<!-- Node7&#45;&gt;Node8 -->
<g id="edge20" class="edge">
<title>Node7&#45;&gt;Node8</title>
<path fill="none" stroke="#9a32cd" stroke-dasharray="5,2" d="M533.23,-317.47C542.55,-286.72 557.26,-223.6 540,-174 526.87,-136.26 492.04,-102.17 474.46,-86.73"/>
<polygon fill="#9a32cd" stroke="#9a32cd" points="529.82,-316.66 530.11,-327.26 536.49,-318.79 529.82,-316.66"/>
<text text-anchor="start" x="548" y="-210" font-family="Helvetica,sans-Serif" font-size="10.00"> OD_communicationParam</text>
<text text-anchor="middle" x="613.5" y="-199" font-family="Helvetica,sans-Serif" font-size="10.00">_ext</text>
<text text-anchor="start" x="548" y="-188" font-family="Helvetica,sans-Serif" font-size="10.00">OD_mappingParam</text>
<text text-anchor="middle" x="613.5" y="-177" font-family="Helvetica,sans-Serif" font-size="10.00">_extension</text>
</g>
<!-- Node12 -->
<g id="node12" class="node">
<title>Node12</title>
<g id="a_node12"><a xlink:href="structOD__entry__t.html" target="_top" xlink:title="Object Dictionary entry for one OD object.">
<polygon fill="white" stroke="black" points="611.5,-248.5 611.5,-267.5 682.5,-267.5 682.5,-248.5 611.5,-248.5"/>
<text text-anchor="middle" x="647" y="-255.5" font-family="Helvetica,sans-Serif" font-size="10.00">OD_entry_t</text>
</a>
</g>
</g>
<!-- Node7&#45;&gt;Node12 -->
<g id="edge19" class="edge">
<title>Node7&#45;&gt;Node12</title>
<path fill="none" stroke="#9a32cd" stroke-dasharray="5,2" d="M552.49,-322.65C560.15,-318.45 568.5,-313.68 576,-309 597.73,-295.42 621.91,-277.82 635.7,-267.54"/>
<polygon fill="#9a32cd" stroke="#9a32cd" points="550.73,-319.62 543.59,-327.44 554.06,-325.78 550.73,-319.62"/>
<text text-anchor="middle" x="618" y="-301" font-family="Helvetica,sans-Serif" font-size="10.00"> extension</text>
</g>
<!-- Node8&#45;&gt;Node1 -->
<g id="edge12" class="edge">
<title>Node8&#45;&gt;Node1</title>
<path fill="none" stroke="#9a32cd" stroke-dasharray="5,2" d="M422.7,-64.67C375.83,-51.82 300.44,-31.14 258.22,-19.56"/>
<polygon fill="#9a32cd" stroke="#9a32cd" points="421.96,-68.1 432.53,-67.37 423.81,-61.35 421.96,-68.1"/>
<text text-anchor="middle" x="396.5" y="-41" font-family="Helvetica,sans-Serif" font-size="10.00"> PDO_common</text>
</g>
<!-- Node9 -->
<g id="node9" class="node">
<title>Node9</title>
<g id="a_node9"><a xlink:href="structOD__IO__t.html" target="_top" xlink:title="Structure for input / output on the OD variable.">
<polygon fill="white" stroke="black" points="710,-135.5 710,-154.5 766,-154.5 766,-135.5 710,-135.5"/>
<text text-anchor="middle" x="738" y="-142.5" font-family="Helvetica,sans-Serif" font-size="10.00">OD_IO_t</text>
</a>
</g>
</g>
<!-- Node9&#45;&gt;Node8 -->
<g id="edge14" class="edge">
<title>Node9&#45;&gt;Node8</title>
<path fill="none" stroke="#9a32cd" stroke-dasharray="5,2" d="M706.73,-131.89C683.83,-123.39 651.84,-112.29 623,-105 589.61,-96.56 551.6,-90 521.12,-85.46"/>
<polygon fill="#9a32cd" stroke="#9a32cd" points="705.67,-135.23 716.26,-135.47 708.13,-128.68 705.67,-135.23"/>
<text text-anchor="middle" x="676" y="-108" font-family="Helvetica,sans-Serif" font-size="10.00"> OD_IO</text>
</g>
<!-- Node10 -->
<g id="node10" class="node">
<title>Node10</title>
<g id="a_node10"><a xlink:href="structOD__stream__t.html" target="_top" xlink:title="IO stream structure, used for read/write access to OD variable, part of OD_IO_t.">
<polygon fill="white" stroke="black" points="718,-248.5 718,-267.5 798,-267.5 798,-248.5 718,-248.5"/>
<text text-anchor="middle" x="758" y="-255.5" font-family="Helvetica,sans-Serif" font-size="10.00">OD_stream_t</text>
</a>
</g>
</g>
<!-- Node10&#45;&gt;Node9 -->
<g id="edge15" class="edge">
<title>Node10&#45;&gt;Node9</title>
<path fill="none" stroke="#9a32cd" stroke-dasharray="5,2" d="M754.61,-238.18C750.23,-213.87 742.78,-172.55 739.56,-154.67"/>
<polygon fill="#9a32cd" stroke="#9a32cd" points="751.21,-239.07 756.43,-248.29 758.1,-237.83 751.21,-239.07"/>
<text text-anchor="middle" x="769" y="-193.5" font-family="Helvetica,sans-Serif" font-size="10.00"> stream</text>
</g>
<!-- Node11 -->
<g id="node11" class="node">
<title>Node11</title>
<g id="a_node11"><a xlink:href="structOD__t.html" target="_top" xlink:title="Object Dictionary.">
<polygon fill="white" stroke="black" points="630.5,-135.5 630.5,-154.5 671.5,-154.5 671.5,-135.5 630.5,-135.5"/>
<text text-anchor="middle" x="651" y="-142.5" font-family="Helvetica,sans-Serif" font-size="10.00">OD_t</text>
</a>
</g>
</g>
<!-- Node11&#45;&gt;Node8 -->
<g id="edge17" class="edge">
<title>Node11&#45;&gt;Node8</title>
<path fill="none" stroke="#9a32cd" stroke-dasharray="5,2" d="M628.32,-130.36C613.78,-122.08 594.27,-111.83 576,-105 554.93,-97.11 530.74,-90.95 510.26,-86.51"/>
<polygon fill="#9a32cd" stroke="#9a32cd" points="626.69,-133.46 637.1,-135.46 630.21,-127.41 626.69,-133.46"/>
<text text-anchor="middle" x="609.5" y="-108" font-family="Helvetica,sans-Serif" font-size="10.00"> OD</text>
</g>
<!-- Node12&#45;&gt;Node11 -->
<g id="edge18" class="edge">
<title>Node12&#45;&gt;Node11</title>
<path fill="none" stroke="#9a32cd" stroke-dasharray="5,2" d="M672.2,-242.54C680.76,-236.21 689.33,-227.93 694,-218 702.31,-200.3 703.32,-191.19 694,-174 689.16,-165.07 680.1,-158.54 671.55,-154.05"/>
<polygon fill="#9a32cd" stroke="#9a32cd" points="670.12,-239.73 663.79,-248.22 674.03,-245.53 670.12,-239.73"/>
<text text-anchor="middle" x="709.5" y="-193.5" font-family="Helvetica,sans-Serif" font-size="10.00"> list</text>
</g>
</g>
</svg>
