<?xml version="1.0" encoding="UTF-8" standalone="no"?>
<!DOCTYPE svg PUBLIC "-//W3C//DTD SVG 1.1//EN"
 "http://www.w3.org/Graphics/SVG/1.1/DTD/svg11.dtd">
<!-- Generated by graphviz version 2.43.0 (0)
 -->
<!-- Title: CO_LSSslave_t Pages: 1 -->
<svg width="322pt" height="184pt"
 viewBox="0.00 0.00 322.00 184.00" xmlns="http://www.w3.org/2000/svg" xmlns:xlink="http://www.w3.org/1999/xlink">
<g id="graph0" class="graph" transform="scale(1 1) rotate(0) translate(4 180)">
<title>CO_LSSslave_t</title>
<polygon fill="white" stroke="transparent" points="-4,4 -4,-180 318,-180 318,4 -4,4"/>
<!-- Node1 -->
<g id="node1" class="node">
<title>Node1</title>
<g id="a_node1"><a xlink:title="LSS slave object.">
<polygon fill="#bfbfbf" stroke="black" points="93.5,-0.5 93.5,-19.5 182.5,-19.5 182.5,-0.5 93.5,-0.5"/>
<text text-anchor="middle" x="138" y="-7.5" font-family="Helvetica,sans-Serif" font-size="10.00">CO_LSSslave_t</text>
</a>
</g>
</g>
<!-- Node2 -->
<g id="node2" class="node">
<title>Node2</title>
<g id="a_node2"><a xlink:href="structCO__CANtx__t.html" target="_top" xlink:title="Configuration object for CAN transmit message for specific CANopenNode Object.">
<polygon fill="white" stroke="black" points="0,-156.5 0,-175.5 76,-175.5 76,-156.5 0,-156.5"/>
<text text-anchor="middle" x="38" y="-163.5" font-family="Helvetica,sans-Serif" font-size="10.00">CO_CANtx_t</text>
</a>
</g>
</g>
<!-- Node2&#45;&gt;Node1 -->
<g id="edge1" class="edge">
<title>Node2&#45;&gt;Node1</title>
<path fill="none" stroke="#9a32cd" stroke-dasharray="5,2" d="M34.59,-146.21C32.6,-130.14 32.02,-106.84 41,-89 57.91,-55.42 96.65,-31.45 119.72,-19.54"/>
<polygon fill="#9a32cd" stroke="#9a32cd" points="31.18,-147.1 36.16,-156.46 38.1,-146.04 31.18,-147.1"/>
<text text-anchor="middle" x="59" y="-96.5" font-family="Helvetica,sans-Serif" font-size="10.00"> TXbuff</text>
</g>
<!-- Node3 -->
<g id="node3" class="node">
<title>Node3</title>
<g id="a_node3"><a xlink:href="structCO__CANmodule__t.html" target="_top" xlink:title="Complete CAN module object.">
<polygon fill="white" stroke="black" points="86.5,-89.5 86.5,-108.5 189.5,-108.5 189.5,-89.5 86.5,-89.5"/>
<text text-anchor="middle" x="138" y="-96.5" font-family="Helvetica,sans-Serif" font-size="10.00">CO_CANmodule_t</text>
</a>
</g>
</g>
<!-- Node2&#45;&gt;Node3 -->
<g id="edge3" class="edge">
<title>Node2&#45;&gt;Node3</title>
<path fill="none" stroke="#9a32cd" stroke-dasharray="5,2" d="M58.83,-150.53C69.3,-143.34 82.24,-134.59 94,-127 103.79,-120.68 114.98,-113.82 123.63,-108.59"/>
<polygon fill="#9a32cd" stroke="#9a32cd" points="56.59,-147.82 50.35,-156.38 60.57,-153.59 56.59,-147.82"/>
<text text-anchor="middle" x="114" y="-130" font-family="Helvetica,sans-Serif" font-size="10.00"> txArray</text>
</g>
<!-- Node3&#45;&gt;Node1 -->
<g id="edge2" class="edge">
<title>Node3&#45;&gt;Node1</title>
<path fill="none" stroke="#9a32cd" stroke-dasharray="5,2" d="M138,-79.19C138,-60.74 138,-33.41 138,-19.62"/>
<polygon fill="#9a32cd" stroke="#9a32cd" points="134.5,-79.34 138,-89.34 141.5,-79.34 134.5,-79.34"/>
<text text-anchor="middle" x="165.5" y="-52" font-family="Helvetica,sans-Serif" font-size="10.00"> CANdevTx</text>
</g>
<!-- Node4 -->
<g id="node4" class="node">
<title>Node4</title>
<g id="a_node4"><a xlink:href="structCO__CANrx__t.html" target="_top" xlink:title="Configuration object for CAN received message for specific CANopenNode Object.">
<polygon fill="white" stroke="black" points="100,-156.5 100,-175.5 176,-175.5 176,-156.5 100,-156.5"/>
<text text-anchor="middle" x="138" y="-163.5" font-family="Helvetica,sans-Serif" font-size="10.00">CO_CANrx_t</text>
</a>
</g>
</g>
<!-- Node4&#45;&gt;Node3 -->
<g id="edge4" class="edge">
<title>Node4&#45;&gt;Node3</title>
<path fill="none" stroke="#9a32cd" stroke-dasharray="5,2" d="M138,-146.04C138,-133.67 138,-118.12 138,-108.63"/>
<polygon fill="#9a32cd" stroke="#9a32cd" points="134.5,-146.23 138,-156.23 141.5,-146.23 134.5,-146.23"/>
<text text-anchor="middle" x="158" y="-130" font-family="Helvetica,sans-Serif" font-size="10.00"> rxArray</text>
</g>
<!-- Node5 -->
<g id="node5" class="node">
<title>Node5</title>
<g id="a_node5"><a xlink:href="unionCO__LSS__address__t.html" target="_top" xlink:title="The LSS address is a 128 bit number, uniquely identifying each node.">
<polygon fill="white" stroke="black" points="208,-89.5 208,-108.5 314,-108.5 314,-89.5 208,-89.5"/>
<text text-anchor="middle" x="261" y="-96.5" font-family="Helvetica,sans-Serif" font-size="10.00">CO_LSS_address_t</text>
</a>
</g>
</g>
<!-- Node5&#45;&gt;Node1 -->
<g id="edge5" class="edge">
<title>Node5&#45;&gt;Node1</title>
<path fill="none" stroke="#9a32cd" stroke-dasharray="5,2" d="M246.35,-81.59C234.1,-68.57 215.67,-50.53 197,-38 185.87,-30.53 172.34,-24.17 161.04,-19.5"/>
<polygon fill="#9a32cd" stroke="#9a32cd" points="244.1,-84.32 253.45,-89.32 249.26,-79.58 244.1,-84.32"/>
<text text-anchor="middle" x="263.5" y="-63" font-family="Helvetica,sans-Serif" font-size="10.00"> lssAddress</text>
<text text-anchor="middle" x="263.5" y="-52" font-family="Helvetica,sans-Serif" font-size="10.00">lssFastscan</text>
<text text-anchor="middle" x="263.5" y="-41" font-family="Helvetica,sans-Serif" font-size="10.00">lssSelect</text>
</g>
</g>
</svg>
