<?xml version="1.0" encoding="UTF-8" standalone="no"?>
<!DOCTYPE svg PUBLIC "-//W3C//DTD SVG 1.1//EN"
 "http://www.w3.org/Graphics/SVG/1.1/DTD/svg11.dtd">
<!-- Generated by graphviz version 2.43.0 (0)
 -->
<!-- Title: CO_EM_t Pages: 1 -->
<svg width="376pt" height="195pt"
 viewBox="0.00 0.00 376.00 195.00" xmlns="http://www.w3.org/2000/svg" xmlns:xlink="http://www.w3.org/1999/xlink">
<g id="graph0" class="graph" transform="scale(1 1) rotate(0) translate(4 191)">
<title>CO_EM_t</title>
<polygon fill="white" stroke="transparent" points="-4,4 -4,-191 372,-191 372,4 -4,4"/>
<!-- Node1 -->
<g id="node1" class="node">
<title>Node1</title>
<g id="a_node1"><a xlink:title="Emergency object.">
<polygon fill="#bfbfbf" stroke="black" points="117,-0.5 117,-19.5 177,-19.5 177,-0.5 117,-0.5"/>
<text text-anchor="middle" x="147" y="-7.5" font-family="Helvetica,sans-Serif" font-size="10.00">CO_EM_t</text>
</a>
</g>
</g>
<!-- Node2 -->
<g id="node2" class="node">
<title>Node2</title>
<g id="a_node2"><a xlink:href="structCO__CANtx__t.html" target="_top" xlink:title="Configuration object for CAN transmit message for specific CANopenNode Object.">
<polygon fill="white" stroke="black" points="0,-167.5 0,-186.5 76,-186.5 76,-167.5 0,-167.5"/>
<text text-anchor="middle" x="38" y="-174.5" font-family="Helvetica,sans-Serif" font-size="10.00">CO_CANtx_t</text>
</a>
</g>
</g>
<!-- Node2&#45;&gt;Node1 -->
<g id="edge1" class="edge">
<title>Node2&#45;&gt;Node1</title>
<path fill="none" stroke="#9a32cd" stroke-dasharray="5,2" d="M31.13,-157.74C26.27,-141.7 22.05,-118.15 31,-100 50.87,-59.71 98.72,-32.58 126.36,-19.68"/>
<polygon fill="#9a32cd" stroke="#9a32cd" points="27.92,-159.15 34.45,-167.49 34.54,-156.9 27.92,-159.15"/>
<text text-anchor="middle" x="58.5" y="-107.5" font-family="Helvetica,sans-Serif" font-size="10.00"> CANtxBuff</text>
</g>
<!-- Node3 -->
<g id="node3" class="node">
<title>Node3</title>
<g id="a_node3"><a xlink:href="structCO__CANmodule__t.html" target="_top" xlink:title="Complete CAN module object.">
<polygon fill="white" stroke="black" points="95.5,-100.5 95.5,-119.5 198.5,-119.5 198.5,-100.5 95.5,-100.5"/>
<text text-anchor="middle" x="147" y="-107.5" font-family="Helvetica,sans-Serif" font-size="10.00">CO_CANmodule_t</text>
</a>
</g>
</g>
<!-- Node2&#45;&gt;Node3 -->
<g id="edge3" class="edge">
<title>Node2&#45;&gt;Node3</title>
<path fill="none" stroke="#9a32cd" stroke-dasharray="5,2" d="M61.57,-161.94C83.16,-149.07 114.42,-130.43 132.53,-119.63"/>
<polygon fill="#9a32cd" stroke="#9a32cd" points="59.5,-159.11 52.7,-167.23 63.08,-165.12 59.5,-159.11"/>
<text text-anchor="middle" x="120" y="-141" font-family="Helvetica,sans-Serif" font-size="10.00"> txArray</text>
</g>
<!-- Node3&#45;&gt;Node1 -->
<g id="edge2" class="edge">
<title>Node3&#45;&gt;Node1</title>
<path fill="none" stroke="#9a32cd" stroke-dasharray="5,2" d="M147,-90.22C147,-68.95 147,-35.22 147,-19.54"/>
<polygon fill="#9a32cd" stroke="#9a32cd" points="143.5,-90.3 147,-100.3 150.5,-90.3 143.5,-90.3"/>
<text text-anchor="middle" x="174.5" y="-57.5" font-family="Helvetica,sans-Serif" font-size="10.00"> CANdevTx</text>
</g>
<!-- Node4 -->
<g id="node4" class="node">
<title>Node4</title>
<g id="a_node4"><a xlink:href="structCO__CANrx__t.html" target="_top" xlink:title="Configuration object for CAN received message for specific CANopenNode Object.">
<polygon fill="white" stroke="black" points="109,-167.5 109,-186.5 185,-186.5 185,-167.5 109,-167.5"/>
<text text-anchor="middle" x="147" y="-174.5" font-family="Helvetica,sans-Serif" font-size="10.00">CO_CANrx_t</text>
</a>
</g>
</g>
<!-- Node4&#45;&gt;Node3 -->
<g id="edge4" class="edge">
<title>Node4&#45;&gt;Node3</title>
<path fill="none" stroke="#9a32cd" stroke-dasharray="5,2" d="M147,-157.04C147,-144.67 147,-129.12 147,-119.63"/>
<polygon fill="#9a32cd" stroke="#9a32cd" points="143.5,-157.23 147,-167.23 150.5,-157.23 143.5,-157.23"/>
<text text-anchor="middle" x="167" y="-141" font-family="Helvetica,sans-Serif" font-size="10.00"> rxArray</text>
</g>
<!-- Node5 -->
<g id="node5" class="node">
<title>Node5</title>
<g id="a_node5"><a xlink:href="structOD__extension__t.html" target="_top" xlink:title="Extension of OD object, which can optionally be specified by application in initialization phase with...">
<polygon fill="white" stroke="black" points="217,-100.5 217,-119.5 311,-119.5 311,-100.5 217,-100.5"/>
<text text-anchor="middle" x="264" y="-107.5" font-family="Helvetica,sans-Serif" font-size="10.00">OD_extension_t</text>
</a>
</g>
</g>
<!-- Node5&#45;&gt;Node1 -->
<g id="edge5" class="edge">
<title>Node5&#45;&gt;Node1</title>
<path fill="none" stroke="#9a32cd" stroke-dasharray="5,2" d="M252.96,-91.31C242.46,-75.64 225.41,-52.98 206,-38 195.92,-30.22 183.25,-24.05 172.23,-19.58"/>
<polygon fill="#9a32cd" stroke="#9a32cd" points="250.24,-93.55 258.62,-100.04 256.11,-89.74 250.24,-93.55"/>
<text text-anchor="middle" x="306.5" y="-74" font-family="Helvetica,sans-Serif" font-size="10.00"> OD_1003_extension</text>
<text text-anchor="middle" x="306.5" y="-63" font-family="Helvetica,sans-Serif" font-size="10.00">OD_statusBits_extension</text>
<text text-anchor="middle" x="306.5" y="-52" font-family="Helvetica,sans-Serif" font-size="10.00">OD_1014_extension</text>
<text text-anchor="middle" x="306.5" y="-41" font-family="Helvetica,sans-Serif" font-size="10.00">OD_1015_extension</text>
</g>
</g>
</svg>
