<?xml version="1.0" encoding="UTF-8" standalone="no"?>
<!DOCTYPE svg PUBLIC "-//W3C//DTD SVG 1.1//EN"
 "http://www.w3.org/Graphics/SVG/1.1/DTD/svg11.dtd">
<!-- Generated by graphviz version 2.43.0 (0)
 -->
<!-- Title: CO_TPDO_t Pages: 1 -->
<!--zoomable 352 -->

<svg id="main" version="1.1" xmlns="http://www.w3.org/2000/svg" xmlns:xlink="http://www.w3.org/1999/xlink" xml:space="preserve" onload="init(evt)">
<style type="text/css"><![CDATA[
.node, .edge {opacity: 0.7;}
.node.selected, .edge.selected {opacity: 1;}
.edge:hover path { stroke: red; }
.edge:hover polygon { stroke: red; fill: red; }
]]></style>

<defs>
  <circle id="rim" cx="0" cy="0" r="7"/>
  <circle id="rim2" cx="0" cy="0" r="3.5"/>
  <g id="zoomPlus">
    <use xlink:href="#rim" fill="#404040"><set attributeName="fill" to="#808080" begin="zoomplus.mouseover" end="zoomplus.mouseout"/></use>
    <path d="M-4,0h8M0,-4v8" fill="none" stroke="white" stroke-width="1.5" pointer-events="none"/>
  </g>
  <g id="zoomMin">
    <use xlink:href="#rim" fill="#404040"><set attributeName="fill" to="#808080" begin="zoomminus.mouseover" end="zoomminus.mouseout"/></use>
    <path d="M-4,0h8" fill="none" stroke="white" stroke-width="1.5" pointer-events="none"/>
  </g>
  <g id="arrowUp" transform="translate(30 24)">
    <use xlink:href="#rim"/>
    <path pointer-events="none" fill="none" stroke="white" stroke-width="1.5" d="M0,-3.0v7 M-2.5,-0.5L0,-3.0L2.5,-0.5"/>
  </g>
  <g id="arrowRight" transform="rotate(90) translate(36 -43)">
    <use xlink:href="#rim"/>
    <path pointer-events="none" fill="none" stroke="white" stroke-width="1.5" d="M0,-3.0v7 M-2.5,-0.5L0,-3.0L2.5,-0.5"/>
  </g>
  <g id="arrowDown" transform="rotate(180) translate(-30 -48)">
    <use xlink:href="#rim"/>
    <path pointer-events="none" fill="none" stroke="white" stroke-width="1.5" d="M0,-3.0v7 M-2.5,-0.5L0,-3.0L2.5,-0.5"/>
  </g>
  <g id="arrowLeft" transform="rotate(270) translate(-36 17)">
    <use xlink:href="#rim"/>
    <path pointer-events="none" fill="none" stroke="white" stroke-width="1.5" d="M0,-3.0v7 M-2.5,-0.5L0,-3.0L2.5,-0.5"/>
  </g>
  <g id="resetDef">
    <use xlink:href="#rim2" fill="#404040"><set attributeName="fill" to="#808080" begin="reset.mouseover" end="reset.mouseout"/></use>
  </g>
</defs>
<script type="application/ecmascript">
var viewWidth = 897;
var viewHeight = 352;
var sectionId = 'dynsection-0';
</script>
<script type="application/ecmascript" xlink:href="svg.min.js"/>
<svg id="graph" class="graph">
<g id="viewport">
<title>CO_TPDO_t</title>
<!-- Node1 -->
<g id="Node000001" class="node">
<title>Node1</title>
<g id="a_Node000001"><a xlink:title="TPDO object.">
<polygon fill="#999999" stroke="#666666" points="239,-19 167,-19 167,0 239,0 239,-19"/>
<text text-anchor="middle" x="203" y="-7" font-family="Helvetica,sans-Serif" font-size="10.00">CO_TPDO_t</text>
</a>
</g>
</g>
<!-- Node2 -->
<g id="Node000002" class="node">
<title>Node2</title>
<g id="a_Node000002"><a xlink:href="structCO__PDO__common__t.html" target="_top" xlink:title="PDO object, common properties.">
<polygon fill="white" stroke="#666666" points="570,-85 456,-85 456,-66 570,-66 570,-85"/>
<text text-anchor="middle" x="513" y="-73" font-family="Helvetica,sans-Serif" font-size="10.00">CO_PDO_common_t</text>
</a>
</g>
</g>
<!-- Node2&#45;&gt;Node1 -->
<g id="edge1_Node000001_Node000002" class="edge">
<title>Node2&#45;&gt;Node1</title>
<g id="a_edge1_Node000001_Node000002"><a xlink:title=" ">
<path fill="none" stroke="#9a32cd" stroke-dasharray="5,2" d="M461.44,-63.85C398.7,-50.9 294.37,-29.36 239.42,-18.02"/>
<polygon fill="#9a32cd" stroke="#9a32cd" points="461.01,-67.34 471.51,-65.94 462.43,-60.49 461.01,-67.34"/>
</a>
</g>
<text text-anchor="middle" x="413.5" y="-40" font-family="Helvetica,sans-Serif" font-size="10.00" fill="grey"> PDO_common</text>
</g>
<!-- Node3 -->
<g id="Node000003" class="node">
<title>Node3</title>
<g id="a_Node000003"><a xlink:href="structCO__EM__t.html" target="_top" xlink:title="Emergency object.">
<polygon fill="white" stroke="#666666" points="380,-152.5 320,-152.5 320,-133.5 380,-133.5 380,-152.5"/>
<text text-anchor="middle" x="350" y="-140.5" font-family="Helvetica,sans-Serif" font-size="10.00">CO_EM_t</text>
</a>
</g>
</g>
<!-- Node3&#45;&gt;Node2 -->
<g id="edge2_Node000002_Node000003" class="edge">
<title>Node3&#45;&gt;Node2</title>
<g id="a_edge2_Node000002_Node000003"><a xlink:title=" ">
<path fill="none" stroke="#9a32cd" stroke-dasharray="5,2" d="M380.75,-129.64C413.17,-116.62 463.37,-96.44 491.69,-85.07"/>
<polygon fill="#9a32cd" stroke="#9a32cd" points="379.28,-126.46 371.31,-133.44 381.89,-132.96 379.28,-126.46"/>
</a>
</g>
<text text-anchor="middle" x="456.5" y="-106" font-family="Helvetica,sans-Serif" font-size="10.00" fill="grey"> em</text>
</g>
<!-- Node13 -->
<g id="Node000013" class="node">
<title>Node13</title>
<g id="a_Node000013"><a xlink:href="structCO__SYNC__t.html" target="_top" xlink:title="SYNC producer and consumer object.">
<polygon fill="white" stroke="#666666" points="238.5,-85 167.5,-85 167.5,-66 238.5,-66 238.5,-85"/>
<text text-anchor="middle" x="203" y="-73" font-family="Helvetica,sans-Serif" font-size="10.00">CO_SYNC_t</text>
</a>
</g>
</g>
<!-- Node3&#45;&gt;Node13 -->
<g id="edge18_Node000013_Node000003" class="edge">
<title>Node3&#45;&gt;Node13</title>
<g id="a_edge18_Node000013_Node000003"><a xlink:title=" ">
<path fill="none" stroke="#9a32cd" stroke-dasharray="5,2" d="M321.5,-129.3C292.25,-116.27 247.54,-96.34 222.22,-85.07"/>
<polygon fill="#9a32cd" stroke="#9a32cd" points="320.22,-132.56 330.78,-133.44 323.07,-126.17 320.22,-132.56"/>
</a>
</g>
<text text-anchor="middle" x="295.5" y="-106" font-family="Helvetica,sans-Serif" font-size="10.00" fill="grey"> em</text>
</g>
<!-- Node4 -->
<g id="Node000004" class="node">
<title>Node4</title>
<g id="a_Node000004"><a xlink:href="structCO__CANmodule__t.html" target="_top" xlink:title="Complete CAN module object.">
<polygon fill="white" stroke="#666666" points="214.5,-265.5 111.5,-265.5 111.5,-246.5 214.5,-246.5 214.5,-265.5"/>
<text text-anchor="middle" x="163" y="-253.5" font-family="Helvetica,sans-Serif" font-size="10.00">CO_CANmodule_t</text>
</a>
</g>
</g>
<!-- Node4&#45;&gt;Node2 -->
<g id="edge9_Node000002_Node000004" class="edge">
<title>Node4&#45;&gt;Node2</title>
<g id="a_edge9_Node000002_Node000004"><a xlink:title=" ">
<path fill="none" stroke="#9a32cd" stroke-dasharray="5,2" d="M173.25,-237.08C195.38,-198.67 246.74,-111.2 260,-103 291.7,-83.41 391.54,-78.13 455.91,-76.81"/>
<polygon fill="#9a32cd" stroke="#9a32cd" points="170.01,-235.7 168.06,-246.11 176.08,-239.18 170.01,-235.7"/>
</a>
</g>
<text text-anchor="middle" x="258.5" y="-140.5" font-family="Helvetica,sans-Serif" font-size="10.00" fill="grey"> CANdev</text>
</g>
<!-- Node4&#45;&gt;Node3 -->
<g id="edge3_Node000003_Node000004" class="edge">
<title>Node4&#45;&gt;Node3</title>
<g id="a_edge3_Node000003_Node000004"><a xlink:title=" ">
<path fill="none" stroke="#9a32cd" stroke-dasharray="5,2" d="M186.54,-240.69C196.18,-234.03 206.94,-225.48 215,-216 229.29,-199.19 220.66,-185.65 238,-172 250.6,-162.08 291.2,-153.62 319.88,-148.67"/>
<polygon fill="#9a32cd" stroke="#9a32cd" points="184.53,-237.82 178.11,-246.25 188.38,-243.66 184.53,-237.82"/>
</a>
</g>
<text text-anchor="middle" x="265.5" y="-191.5" font-family="Helvetica,sans-Serif" font-size="10.00" fill="grey"> CANdevTx</text>
</g>
<!-- Node4&#45;&gt;Node13 -->
<g id="edge19_Node000013_Node000004" class="edge">
<title>Node4&#45;&gt;Node13</title>
<g id="a_edge19_Node000013_Node000004"><a xlink:title=" ">
<path fill="none" stroke="#9a32cd" stroke-dasharray="5,2" d="M160.56,-236.31C158.03,-211.74 155.85,-167.55 167,-132 172.78,-113.59 186.47,-95.44 195.21,-85.14"/>
<polygon fill="#9a32cd" stroke="#9a32cd" points="157.1,-236.86 161.73,-246.39 164.05,-236.05 157.1,-236.86"/>
</a>
</g>
<text text-anchor="middle" x="194.5" y="-146" font-family="Helvetica,sans-Serif" font-size="10.00" fill="grey"> CANdevRx</text>
<text text-anchor="middle" x="194.5" y="-135" font-family="Helvetica,sans-Serif" font-size="10.00" fill="grey">CANdevTx</text>
</g>
<!-- Node5 -->
<g id="Node000005" class="node">
<title>Node5</title>
<g id="a_Node000005"><a xlink:href="structCO__CANrx__t.html" target="_top" xlink:title="Configuration object for CAN received message for specific CANopenNode Object.">
<polygon fill="white" stroke="#666666" points="322,-344 246,-344 246,-325 322,-325 322,-344"/>
<text text-anchor="middle" x="284" y="-332" font-family="Helvetica,sans-Serif" font-size="10.00">CO_CANrx_t</text>
</a>
</g>
</g>
<!-- Node5&#45;&gt;Node4 -->
<g id="edge4_Node000004_Node000005" class="edge">
<title>Node5&#45;&gt;Node4</title>
<g id="a_edge4_Node000004_Node000005"><a xlink:title=" ">
<path fill="none" stroke="#9a32cd" stroke-dasharray="5,2" d="M261.35,-319.18C236.47,-303.45 197.32,-278.7 176.72,-265.67"/>
<polygon fill="#9a32cd" stroke="#9a32cd" points="259.8,-322.34 270.12,-324.72 263.54,-316.42 259.8,-322.34"/>
</a>
</g>
<text text-anchor="middle" x="262" y="-299" font-family="Helvetica,sans-Serif" font-size="10.00" fill="grey"> rxArray</text>
</g>
<!-- Node6 -->
<g id="Node000006" class="node">
<title>Node6</title>
<g id="a_Node000006"><a xlink:href="structCO__CANtx__t.html" target="_top" xlink:title="Configuration object for CAN transmit message for specific CANopenNode Object.">
<polygon fill="white" stroke="#666666" points="150,-344 74,-344 74,-325 150,-325 150,-344"/>
<text text-anchor="middle" x="112" y="-332" font-family="Helvetica,sans-Serif" font-size="10.00">CO_CANtx_t</text>
</a>
</g>
</g>
<!-- Node6&#45;&gt;Node1 -->
<g id="edge16_Node000001_Node000006" class="edge">
<title>Node6&#45;&gt;Node1</title>
<g id="a_edge16_Node000001_Node000006"><a xlink:title=" ">
<path fill="none" stroke="#9a32cd" stroke-dasharray="5,2" d="M66.1,-321.73C35.18,-310.73 0,-290.78 0,-257 0,-257 0,-257 0,-74.5 0,-39.95 108.32,-21.73 166.71,-14.41"/>
<polygon fill="#9a32cd" stroke="#9a32cd" points="65.35,-325.17 75.95,-325 67.56,-318.53 65.35,-325.17"/>
</a>
</g>
<text text-anchor="middle" x="27.5" y="-140.5" font-family="Helvetica,sans-Serif" font-size="10.00" fill="grey"> CANtxBuff</text>
</g>
<!-- Node6&#45;&gt;Node3 -->
<g id="edge7_Node000003_Node000006" class="edge">
<title>Node6&#45;&gt;Node3</title>
<g id="a_edge7_Node000003_Node000006"><a xlink:title=" ">
<path fill="none" stroke="#9a32cd" stroke-dasharray="5,2" d="M147.3,-321.45C158.02,-317.34 169.69,-312.4 180,-307 200.42,-296.3 205.86,-293.41 223,-278 242,-260.91 240.22,-250.17 260,-234 272.93,-223.42 280.22,-226.77 293,-216 315.68,-196.89 335.49,-167.54 344.63,-152.92"/>
<polygon fill="#9a32cd" stroke="#9a32cd" points="145.94,-318.22 137.78,-324.98 148.37,-324.78 145.94,-318.22"/>
</a>
</g>
<text text-anchor="middle" x="287.5" y="-253.5" font-family="Helvetica,sans-Serif" font-size="10.00" fill="grey"> CANtxBuff</text>
</g>
<!-- Node6&#45;&gt;Node4 -->
<g id="edge5_Node000004_Node000006" class="edge">
<title>Node6&#45;&gt;Node4</title>
<g id="a_edge5_Node000004_Node000006"><a xlink:title=" ">
<path fill="none" stroke="#9a32cd" stroke-dasharray="5,2" d="M123.4,-316.39C133.9,-300.65 149.03,-277.95 157.22,-265.67"/>
<polygon fill="#9a32cd" stroke="#9a32cd" points="120.49,-314.46 117.85,-324.72 126.31,-318.35 120.49,-314.46"/>
</a>
</g>
<text text-anchor="middle" x="156" y="-299" font-family="Helvetica,sans-Serif" font-size="10.00" fill="grey"> txArray</text>
</g>
<!-- Node6&#45;&gt;Node13 -->
<g id="edge20_Node000013_Node000006" class="edge">
<title>Node6&#45;&gt;Node13</title>
<g id="a_edge20_Node000013_Node000006"><a xlink:title=" ">
<path fill="none" stroke="#9a32cd" stroke-dasharray="5,2" d="M105.36,-315.18C95.28,-284.26 79.36,-220.37 100,-172 117.61,-130.73 163.12,-99.45 187.32,-85.12"/>
<polygon fill="#9a32cd" stroke="#9a32cd" points="102.17,-316.67 108.73,-324.99 108.79,-314.4 102.17,-316.67"/>
</a>
</g>
<text text-anchor="middle" x="127.5" y="-191.5" font-family="Helvetica,sans-Serif" font-size="10.00" fill="grey"> CANtxBuff</text>
</g>
<!-- Node7 -->
<g id="Node000007" class="node">
<title>Node7</title>
<g id="a_Node000007"><a xlink:href="structCO__EM__fifo__t.html" target="_top" xlink:title="Fifo buffer for emergency producer and error history.">
<polygon fill="white" stroke="#666666" points="406,-265.5 324,-265.5 324,-246.5 406,-246.5 406,-265.5"/>
<text text-anchor="middle" x="365" y="-253.5" font-family="Helvetica,sans-Serif" font-size="10.00">CO_EM_fifo_t</text>
</a>
</g>
</g>
<!-- Node7&#45;&gt;Node3 -->
<g id="edge6_Node000003_Node000007" class="edge">
<title>Node7&#45;&gt;Node3</title>
<g id="a_edge6_Node000003_Node000007"><a xlink:title=" ">
<path fill="none" stroke="#9a32cd" stroke-dasharray="5,2" d="M362.46,-236.18C359.17,-211.87 353.59,-170.55 351.17,-152.67"/>
<polygon fill="#9a32cd" stroke="#9a32cd" points="359.02,-236.85 363.82,-246.29 365.95,-235.91 359.02,-236.85"/>
</a>
</g>
<text text-anchor="middle" x="370" y="-191.5" font-family="Helvetica,sans-Serif" font-size="10.00" fill="grey"> fifo</text>
</g>
<!-- Node8 -->
<g id="Node000008" class="node">
<title>Node8</title>
<g id="a_Node000008"><a xlink:href="structOD__extension__t.html" target="_top" xlink:title="Extension of OD object, which can optionally be specified by application in initialization phase with...">
<polygon fill="white" stroke="#666666" points="708,-344 614,-344 614,-325 708,-325 708,-344"/>
<text text-anchor="middle" x="661" y="-332" font-family="Helvetica,sans-Serif" font-size="10.00">OD_extension_t</text>
</a>
</g>
</g>
<!-- Node8&#45;&gt;Node2 -->
<g id="edge15_Node000002_Node000008" class="edge">
<title>Node8&#45;&gt;Node2</title>
<g id="a_edge15_Node000002_Node000008"><a xlink:title=" ">
<path fill="none" stroke="#9a32cd" stroke-dasharray="5,2" d="M680.13,-318.21C691.16,-308.12 704,-293.87 710,-278 726.83,-233.5 714.58,-215.37 695,-172 675.96,-129.82 659.85,-120.49 617,-103 598.11,-95.29 576.35,-89.33 557.64,-85.03"/>
<polygon fill="#9a32cd" stroke="#9a32cd" points="677.81,-315.59 672.55,-324.79 682.4,-320.88 677.81,-315.59"/>
</a>
</g>
<text text-anchor="start" x="713" y="-208" font-family="Helvetica,sans-Serif" font-size="10.00" fill="grey"> OD_communicationParam</text>
<text text-anchor="middle" x="778.5" y="-197" font-family="Helvetica,sans-Serif" font-size="10.00" fill="grey">_ext</text>
<text text-anchor="start" x="713" y="-186" font-family="Helvetica,sans-Serif" font-size="10.00" fill="grey">OD_mappingParam</text>
<text text-anchor="middle" x="778.5" y="-175" font-family="Helvetica,sans-Serif" font-size="10.00" fill="grey">_extension</text>
</g>
<!-- Node8&#45;&gt;Node3 -->
<g id="edge8_Node000003_Node000008" class="edge">
<title>Node8&#45;&gt;Node3</title>
<g id="a_edge8_Node000003_Node000008"><a xlink:title=" ">
<path fill="none" stroke="#9a32cd" stroke-dasharray="5,2" d="M603.95,-328.83C560.06,-322.84 499.73,-309.17 456,-278 409.62,-244.94 422.37,-214.08 384,-172 377.41,-164.77 368.91,-157.77 362.05,-152.58"/>
<polygon fill="#9a32cd" stroke="#9a32cd" points="603.53,-332.3 613.89,-330.09 604.41,-325.36 603.53,-332.3"/>
</a>
</g>
<text text-anchor="middle" x="517.5" y="-270" font-family="Helvetica,sans-Serif" font-size="10.00" fill="grey"> OD_1003_extension</text>
<text text-anchor="middle" x="517.5" y="-259" font-family="Helvetica,sans-Serif" font-size="10.00" fill="grey">OD_1014_extension</text>
<text text-anchor="middle" x="517.5" y="-248" font-family="Helvetica,sans-Serif" font-size="10.00" fill="grey">OD_1015_extension</text>
<text text-anchor="middle" x="517.5" y="-237" font-family="Helvetica,sans-Serif" font-size="10.00" fill="grey">OD_statusBits_extension</text>
</g>
<!-- Node12 -->
<g id="Node000012" class="node">
<title>Node12</title>
<g id="a_Node000012"><a xlink:href="structOD__entry__t.html" target="_top" xlink:title="Object Dictionary entry for one OD object.">
<polygon fill="white" stroke="#666666" points="888.5,-265.5 817.5,-265.5 817.5,-246.5 888.5,-246.5 888.5,-265.5"/>
<text text-anchor="middle" x="853" y="-253.5" font-family="Helvetica,sans-Serif" font-size="10.00">OD_entry_t</text>
</a>
</g>
</g>
<!-- Node8&#45;&gt;Node12 -->
<g id="edge14_Node000012_Node000008" class="edge">
<title>Node8&#45;&gt;Node12</title>
<g id="a_edge14_Node000012_Node000008"><a xlink:title=" ">
<path fill="none" stroke="#9a32cd" stroke-dasharray="5,2" d="M699.79,-321.96C713.55,-317.61 729.08,-312.39 743,-307 776.45,-294.04 814.29,-276.09 835.74,-265.59"/>
<polygon fill="#9a32cd" stroke="#9a32cd" points="698.63,-318.66 690.12,-324.97 700.71,-325.34 698.63,-318.66"/>
</a>
</g>
<text text-anchor="middle" x="793" y="-299" font-family="Helvetica,sans-Serif" font-size="10.00" fill="grey"> extension</text>
</g>
<!-- Node8&#45;&gt;Node13 -->
<g id="edge21_Node000013_Node000008" class="edge">
<title>Node8&#45;&gt;Node13</title>
<g id="a_edge21_Node000013_Node000008"><a xlink:title=" ">
<path fill="none" stroke="#9a32cd" stroke-dasharray="5,2" d="M645.95,-317.16C636.07,-306.26 622.99,-291.5 612,-278 596.57,-259.04 598.22,-249.1 579,-234 563.03,-221.45 552.26,-229.4 537,-216 493.11,-177.49 519.24,-134.37 470,-103 432.48,-79.1 302.32,-76.11 238.64,-76.13"/>
<polygon fill="#9a32cd" stroke="#9a32cd" points="643.47,-319.63 652.8,-324.65 648.64,-314.91 643.47,-319.63"/>
</a>
</g>
<text text-anchor="middle" x="587.5" y="-197" font-family="Helvetica,sans-Serif" font-size="10.00" fill="grey"> OD_1005_extension</text>
<text text-anchor="middle" x="587.5" y="-186" font-family="Helvetica,sans-Serif" font-size="10.00" fill="grey">OD_1019_extension</text>
</g>
<!-- Node9 -->
<g id="Node000009" class="node">
<title>Node9</title>
<g id="a_Node000009"><a xlink:href="structOD__IO__t.html" target="_top" xlink:title="Structure for input / output on the OD variable.">
<polygon fill="white" stroke="#666666" points="658,-152.5 602,-152.5 602,-133.5 658,-133.5 658,-152.5"/>
<text text-anchor="middle" x="630" y="-140.5" font-family="Helvetica,sans-Serif" font-size="10.00">OD_IO_t</text>
</a>
</g>
</g>
<!-- Node9&#45;&gt;Node2 -->
<g id="edge10_Node000002_Node000009" class="edge">
<title>Node9&#45;&gt;Node2</title>
<g id="a_edge10_Node000002_Node000009"><a xlink:title=" ">
<path fill="none" stroke="#9a32cd" stroke-dasharray="5,2" d="M605.78,-128.44C582.5,-115.41 548.01,-96.1 528.3,-85.07"/>
<polygon fill="#9a32cd" stroke="#9a32cd" points="604.27,-131.61 614.7,-133.44 607.69,-125.5 604.27,-131.61"/>
</a>
</g>
<text text-anchor="middle" x="596" y="-106" font-family="Helvetica,sans-Serif" font-size="10.00" fill="grey"> OD_IO</text>
</g>
<!-- Node10 -->
<g id="Node000010" class="node">
<title>Node10</title>
<g id="a_Node000010"><a xlink:href="structOD__stream__t.html" target="_top" xlink:title="IO stream structure, used for read/write access to OD variable, part of OD_IO_t.">
<polygon fill="white" stroke="#666666" points="701,-265.5 621,-265.5 621,-246.5 701,-246.5 701,-265.5"/>
<text text-anchor="middle" x="661" y="-253.5" font-family="Helvetica,sans-Serif" font-size="10.00">OD_stream_t</text>
</a>
</g>
</g>
<!-- Node10&#45;&gt;Node9 -->
<g id="edge11_Node000009_Node000010" class="edge">
<title>Node10&#45;&gt;Node9</title>
<g id="a_edge11_Node000009_Node000010"><a xlink:title=" ">
<path fill="none" stroke="#9a32cd" stroke-dasharray="5,2" d="M657.63,-235.86C654.41,-218.87 648.99,-193.47 642,-172 639.84,-165.36 636.71,-158.13 634.2,-152.67"/>
<polygon fill="#9a32cd" stroke="#9a32cd" points="654.27,-236.93 659.51,-246.14 661.16,-235.67 654.27,-236.93"/>
</a>
</g>
<text text-anchor="middle" x="672" y="-191.5" font-family="Helvetica,sans-Serif" font-size="10.00" fill="grey"> stream</text>
</g>
<!-- Node11 -->
<g id="Node000011" class="node">
<title>Node11</title>
<g id="a_Node000011"><a xlink:href="structOD__t.html" target="_top" xlink:title="Object Dictionary.">
<polygon fill="white" stroke="#666666" points="850.5,-152.5 809.5,-152.5 809.5,-133.5 850.5,-133.5 850.5,-152.5"/>
<text text-anchor="middle" x="830" y="-140.5" font-family="Helvetica,sans-Serif" font-size="10.00">OD_t</text>
</a>
</g>
</g>
<!-- Node11&#45;&gt;Node2 -->
<g id="edge12_Node000002_Node000011" class="edge">
<title>Node11&#45;&gt;Node2</title>
<g id="a_edge12_Node000002_Node000011"><a xlink:title=" ">
<path fill="none" stroke="#9a32cd" stroke-dasharray="5,2" d="M805.6,-128.62C788.56,-119.9 765.02,-109.05 743,-103 685.44,-87.19 617.27,-80.81 570.16,-78.23"/>
<polygon fill="#9a32cd" stroke="#9a32cd" points="804.34,-131.91 814.82,-133.46 807.59,-125.72 804.34,-131.91"/>
</a>
</g>
<text text-anchor="middle" x="781.5" y="-106" font-family="Helvetica,sans-Serif" font-size="10.00" fill="grey"> OD</text>
</g>
<!-- Node12&#45;&gt;Node11 -->
<g id="edge13_Node000011_Node000012" class="edge">
<title>Node12&#45;&gt;Node11</title>
<g id="a_edge13_Node000011_Node000012"><a xlink:title=" ">
<path fill="none" stroke="#9a32cd" stroke-dasharray="5,2" d="M859.77,-236.8C865.11,-219.4 870.25,-192.82 861,-172 857.47,-164.05 850.43,-157.4 843.96,-152.58"/>
<polygon fill="#9a32cd" stroke="#9a32cd" points="856.44,-235.71 856.55,-246.31 863.07,-237.96 856.44,-235.71"/>
</a>
</g>
<text text-anchor="middle" x="875.5" y="-191.5" font-family="Helvetica,sans-Serif" font-size="10.00" fill="grey"> list</text>
</g>
<!-- Node13&#45;&gt;Node1 -->
<g id="edge17_Node000001_Node000013" class="edge">
<title>Node13&#45;&gt;Node1</title>
<g id="a_edge17_Node000001_Node000013"><a xlink:title=" ">
<path fill="none" stroke="#9a32cd" stroke-dasharray="5,2" d="M203,-55.58C203,-43.63 203,-28.72 203,-19.41"/>
<polygon fill="#9a32cd" stroke="#9a32cd" points="199.5,-55.87 203,-65.87 206.5,-55.87 199.5,-55.87"/>
</a>
</g>
<text text-anchor="middle" x="218" y="-40" font-family="Helvetica,sans-Serif" font-size="10.00" fill="grey"> SYNC</text>
</g>
</g>
</svg>

<g id="navigator" transform="translate(0 0)" fill="#404254">
  <rect fill="#f2f5e9" fill-opacity="0.5" stroke="#606060" stroke-width=".5" x="0" y="0" width="60" height="60"/>
  <use id="zoomplus" xlink:href="#zoomPlus" x="17" y="9" onmousedown="handleZoom(evt,'in')"/>
  <use id="zoomminus" xlink:href="#zoomMin" x="42" y="9" onmousedown="handleZoom(evt,'out')"/>
  <use id="reset" xlink:href="#resetDef" x="30" y="36" onmousedown="handleReset()"/>
   <use id="arrowup" xlink:href="#arrowUp" x="0" y="0" onmousedown="handlePan(0,-1)"/>
  <use id="arrowright" xlink:href="#arrowRight" x="0" y="0" onmousedown="handlePan(1,0)"/>
  <use id="arrowdown" xlink:href="#arrowDown" x="0" y="0" onmousedown="handlePan(0,1)"/>
  <use id="arrowleft" xlink:href="#arrowLeft" x="0" y="0" onmousedown="handlePan(-1,0)"/>
</g>
<svg viewBox="0 0 15 15" width="100%" height="30px" preserveAspectRatio="xMaxYMin meet">
 <g id="arrow_out" transform="scale(0.3 0.3)">
  <a xlink:href="structCO__TPDO__t__coll__graph_org.svg" target="_base">
   <rect id="button" ry="5" rx="5" y="6" x="6" height="38" width="38"
        fill="#f2f5e9" fill-opacity="0.5" stroke="#606060" stroke-width="1.0"/>
   <path id="arrow"
     d="M 11.500037,31.436501 C 11.940474,20.09759 22.043105,11.32322 32.158766,21.979434 L 37.068811,17.246167 C 37.068811,17.246167 37.088388,32 37.088388,32 L 22.160133,31.978069 C 22.160133,31.978069 26.997745,27.140456 26.997745,27.140456 C 18.528582,18.264221 13.291696,25.230495 11.500037,31.436501 z"
     style="fill:#404040;"/>
  </a>
 </g>
</svg>

<style type='text/css'>
<![CDATA[
[data-mouse-over-selected='false'] { opacity: 0.7; }
[data-mouse-over-selected='true']  { opacity: 1.0; }
]]>
</style>
<script type="application/ecmascript"><![CDATA[
document.addEventListener('DOMContentLoaded', (event) => {
  highlightEdges();
  highlightAdjacentNodes();
});
]]></script>
</svg>
