<?xml version="1.0" encoding="UTF-8" standalone="no"?>
<!DOCTYPE svg PUBLIC "-//W3C//DTD SVG 1.1//EN"
 "http://www.w3.org/Graphics/SVG/1.1/DTD/svg11.dtd">
<!-- Generated by graphviz version 2.43.0 (0)
 -->
<!-- Title: CO_EM_t Pages: 1 -->
<svg width="465pt" height="195pt"
 viewBox="0.00 0.00 465.00 195.00" xmlns="http://www.w3.org/2000/svg" xmlns:xlink="http://www.w3.org/1999/xlink">
<g id="graph0" class="graph" transform="scale(1 1) rotate(0) translate(4 191)">
<title>CO_EM_t</title>
<polygon fill="white" stroke="transparent" points="-4,4 -4,-191 461,-191 461,4 -4,4"/>
<!-- Node1 -->
<g id="node1" class="node">
<title>Node1</title>
<g id="a_node1"><a xlink:title="Emergency object.">
<polygon fill="#bfbfbf" stroke="black" points="127,-0.5 127,-19.5 187,-19.5 187,-0.5 127,-0.5"/>
<text text-anchor="middle" x="157" y="-7.5" font-family="Helvetica,sans-Serif" font-size="10.00">CO_EM_t</text>
</a>
</g>
</g>
<!-- Node2 -->
<g id="node2" class="node">
<title>Node2</title>
<g id="a_node2"><a xlink:href="structCO__EM__fifo__t.html" target="_top" xlink:title="Fifo buffer for emergency producer and error history.">
<polygon fill="white" stroke="black" points="0,-100.5 0,-119.5 82,-119.5 82,-100.5 0,-100.5"/>
<text text-anchor="middle" x="41" y="-107.5" font-family="Helvetica,sans-Serif" font-size="10.00">CO_EM_fifo_t</text>
</a>
</g>
</g>
<!-- Node2&#45;&gt;Node1 -->
<g id="edge1" class="edge">
<title>Node2&#45;&gt;Node1</title>
<path fill="none" stroke="#9a32cd" stroke-dasharray="5,2" d="M47.86,-90.97C54.77,-75.02 66.86,-52.15 84,-38 96.29,-27.85 112.77,-21.32 126.95,-17.23"/>
<polygon fill="#9a32cd" stroke="#9a32cd" points="44.6,-89.7 44.07,-100.28 51.08,-92.34 44.6,-89.7"/>
<text text-anchor="middle" x="94" y="-57.5" font-family="Helvetica,sans-Serif" font-size="10.00"> fifo</text>
</g>
<!-- Node3 -->
<g id="node3" class="node">
<title>Node3</title>
<g id="a_node3"><a xlink:href="structCO__CANtx__t.html" target="_top" xlink:title="Configuration object for CAN transmit message for specific CANopenNode Object.">
<polygon fill="white" stroke="black" points="96,-167.5 96,-186.5 172,-186.5 172,-167.5 96,-167.5"/>
<text text-anchor="middle" x="134" y="-174.5" font-family="Helvetica,sans-Serif" font-size="10.00">CO_CANtx_t</text>
</a>
</g>
</g>
<!-- Node3&#45;&gt;Node1 -->
<g id="edge2" class="edge">
<title>Node3&#45;&gt;Node1</title>
<path fill="none" stroke="#9a32cd" stroke-dasharray="5,2" d="M131.07,-157.3C129.52,-146.44 127.78,-132.48 127,-120 126.45,-111.13 125.56,-108.77 127,-100 132.01,-69.43 146.11,-35.21 153.05,-19.6"/>
<polygon fill="#9a32cd" stroke="#9a32cd" points="127.63,-157.93 132.57,-167.3 134.55,-156.89 127.63,-157.93"/>
<text text-anchor="middle" x="154.5" y="-107.5" font-family="Helvetica,sans-Serif" font-size="10.00"> CANtxBuff</text>
</g>
<!-- Node4 -->
<g id="node4" class="node">
<title>Node4</title>
<g id="a_node4"><a xlink:href="structCO__CANmodule__t.html" target="_top" xlink:title="Complete CAN module object.">
<polygon fill="white" stroke="black" points="191.5,-100.5 191.5,-119.5 294.5,-119.5 294.5,-100.5 191.5,-100.5"/>
<text text-anchor="middle" x="243" y="-107.5" font-family="Helvetica,sans-Serif" font-size="10.00">CO_CANmodule_t</text>
</a>
</g>
</g>
<!-- Node3&#45;&gt;Node4 -->
<g id="edge4" class="edge">
<title>Node3&#45;&gt;Node4</title>
<path fill="none" stroke="#9a32cd" stroke-dasharray="5,2" d="M157.57,-161.94C179.16,-149.07 210.42,-130.43 228.53,-119.63"/>
<polygon fill="#9a32cd" stroke="#9a32cd" points="155.5,-159.11 148.7,-167.23 159.08,-165.12 155.5,-159.11"/>
<text text-anchor="middle" x="216" y="-141" font-family="Helvetica,sans-Serif" font-size="10.00"> txArray</text>
</g>
<!-- Node4&#45;&gt;Node1 -->
<g id="edge3" class="edge">
<title>Node4&#45;&gt;Node1</title>
<path fill="none" stroke="#9a32cd" stroke-dasharray="5,2" d="M228.54,-92.52C210.06,-71.46 178.76,-35.8 164.49,-19.54"/>
<polygon fill="#9a32cd" stroke="#9a32cd" points="226.14,-95.1 235.37,-100.3 231.4,-90.48 226.14,-95.1"/>
<text text-anchor="middle" x="244.5" y="-57.5" font-family="Helvetica,sans-Serif" font-size="10.00"> CANdevTx</text>
</g>
<!-- Node5 -->
<g id="node5" class="node">
<title>Node5</title>
<g id="a_node5"><a xlink:href="structCO__CANrx__t.html" target="_top" xlink:title="Configuration object for CAN received message for specific CANopenNode Object.">
<polygon fill="white" stroke="black" points="205,-167.5 205,-186.5 281,-186.5 281,-167.5 205,-167.5"/>
<text text-anchor="middle" x="243" y="-174.5" font-family="Helvetica,sans-Serif" font-size="10.00">CO_CANrx_t</text>
</a>
</g>
</g>
<!-- Node5&#45;&gt;Node4 -->
<g id="edge5" class="edge">
<title>Node5&#45;&gt;Node4</title>
<path fill="none" stroke="#9a32cd" stroke-dasharray="5,2" d="M243,-157.04C243,-144.67 243,-129.12 243,-119.63"/>
<polygon fill="#9a32cd" stroke="#9a32cd" points="239.5,-157.23 243,-167.23 246.5,-157.23 239.5,-157.23"/>
<text text-anchor="middle" x="263" y="-141" font-family="Helvetica,sans-Serif" font-size="10.00"> rxArray</text>
</g>
<!-- Node6 -->
<g id="node6" class="node">
<title>Node6</title>
<g id="a_node6"><a xlink:href="structOD__extension__t.html" target="_top" xlink:title="Extension of OD object, which can optionally be specified by application in initialization phase with...">
<polygon fill="white" stroke="black" points="313,-100.5 313,-119.5 407,-119.5 407,-100.5 313,-100.5"/>
<text text-anchor="middle" x="360" y="-107.5" font-family="Helvetica,sans-Serif" font-size="10.00">OD_extension_t</text>
</a>
</g>
</g>
<!-- Node6&#45;&gt;Node1 -->
<g id="edge6" class="edge">
<title>Node6&#45;&gt;Node1</title>
<path fill="none" stroke="#9a32cd" stroke-dasharray="5,2" d="M344.98,-92.31C329.35,-75.99 303.36,-51.64 276,-38 247.75,-23.92 212.07,-17.08 187.18,-13.83"/>
<polygon fill="#9a32cd" stroke="#9a32cd" points="342.79,-95.09 352.17,-100.02 347.91,-90.32 342.79,-95.09"/>
<text text-anchor="middle" x="395.5" y="-74" font-family="Helvetica,sans-Serif" font-size="10.00"> OD_1003_extension</text>
<text text-anchor="middle" x="395.5" y="-63" font-family="Helvetica,sans-Serif" font-size="10.00">OD_1014_extension</text>
<text text-anchor="middle" x="395.5" y="-52" font-family="Helvetica,sans-Serif" font-size="10.00">OD_1015_extension</text>
<text text-anchor="middle" x="395.5" y="-41" font-family="Helvetica,sans-Serif" font-size="10.00">OD_statusBits_extension</text>
</g>
</g>
</svg>
