<?xml version="1.0" encoding="UTF-8" standalone="no"?>
<!DOCTYPE svg PUBLIC "-//W3C//DTD SVG 1.1//EN"
 "http://www.w3.org/Graphics/SVG/1.1/DTD/svg11.dtd">
<!-- Generated by graphviz version 2.43.0 (0)
 -->
<!-- Title: CO_SYNC_t Pages: 1 -->
<svg width="475pt" height="264pt"
 viewBox="0.00 0.00 475.00 264.00" xmlns="http://www.w3.org/2000/svg" xmlns:xlink="http://www.w3.org/1999/xlink">
<g id="graph0" class="graph" transform="scale(1 1) rotate(0) translate(4 260)">
<title>CO_SYNC_t</title>
<polygon fill="white" stroke="transparent" points="-4,4 -4,-260 471,-260 471,4 -4,4"/>
<!-- Node1 -->
<g id="node1" class="node">
<title>Node1</title>
<g id="a_node1"><a xlink:title="SYNC producer and consumer object.">
<polygon fill="#bfbfbf" stroke="black" points="256.5,-0.5 256.5,-19.5 327.5,-19.5 327.5,-0.5 256.5,-0.5"/>
<text text-anchor="middle" x="292" y="-7.5" font-family="Helvetica,sans-Serif" font-size="10.00">CO_SYNC_t</text>
</a>
</g>
</g>
<!-- Node2 -->
<g id="node2" class="node">
<title>Node2</title>
<g id="a_node2"><a xlink:href="structCO__EM__t.html" target="_top" xlink:title="Emergency object.">
<polygon fill="white" stroke="black" points="142,-68.5 142,-87.5 202,-87.5 202,-68.5 142,-68.5"/>
<text text-anchor="middle" x="172" y="-75.5" font-family="Helvetica,sans-Serif" font-size="10.00">CO_EM_t</text>
</a>
</g>
</g>
<!-- Node2&#45;&gt;Node1 -->
<g id="edge1" class="edge">
<title>Node2&#45;&gt;Node1</title>
<path fill="none" stroke="#9a32cd" stroke-dasharray="5,2" d="M196.52,-63.51C220.41,-50.38 256,-30.8 276.31,-19.63"/>
<polygon fill="#9a32cd" stroke="#9a32cd" points="194.76,-60.49 187.69,-68.37 198.14,-66.62 194.76,-60.49"/>
<text text-anchor="middle" x="252.5" y="-41" font-family="Helvetica,sans-Serif" font-size="10.00"> em</text>
</g>
<!-- Node3 -->
<g id="node3" class="node">
<title>Node3</title>
<g id="a_node3"><a xlink:href="structCO__CANtx__t.html" target="_top" xlink:title="Configuration object for CAN transmit message for specific CANopenNode Object.">
<polygon fill="white" stroke="black" points="118,-236.5 118,-255.5 194,-255.5 194,-236.5 118,-236.5"/>
<text text-anchor="middle" x="156" y="-243.5" font-family="Helvetica,sans-Serif" font-size="10.00">CO_CANtx_t</text>
</a>
</g>
</g>
<!-- Node3&#45;&gt;Node1 -->
<g id="edge8" class="edge">
<title>Node3&#45;&gt;Node1</title>
<path fill="none" stroke="#9a32cd" stroke-dasharray="5,2" d="M204.5,-241.68C248.47,-236.49 313.09,-223.17 358,-189 399.25,-157.62 404.16,-138.95 418,-89 420.61,-79.58 423.33,-75.2 418,-67 398.17,-36.49 357.47,-22.47 327.67,-16.11"/>
<polygon fill="#9a32cd" stroke="#9a32cd" points="203.9,-238.23 194.34,-242.78 204.66,-245.19 203.9,-238.23"/>
<text text-anchor="middle" x="439.5" y="-126.5" font-family="Helvetica,sans-Serif" font-size="10.00"> CANtxBuff</text>
</g>
<!-- Node3&#45;&gt;Node2 -->
<g id="edge2" class="edge">
<title>Node3&#45;&gt;Node2</title>
<path fill="none" stroke="#9a32cd" stroke-dasharray="5,2" d="M157.84,-225.93C161.31,-189.92 168.7,-113.23 171.17,-87.57"/>
<polygon fill="#9a32cd" stroke="#9a32cd" points="154.34,-225.79 156.86,-236.08 161.3,-226.46 154.34,-225.79"/>
<text text-anchor="middle" x="191.5" y="-176.5" font-family="Helvetica,sans-Serif" font-size="10.00"> CANtxBuff</text>
</g>
<!-- Node4 -->
<g id="node4" class="node">
<title>Node4</title>
<g id="a_node4"><a xlink:href="structCO__CANmodule__t.html" target="_top" xlink:title="Complete CAN module object.">
<polygon fill="white" stroke="black" points="9.5,-169.5 9.5,-188.5 112.5,-188.5 112.5,-169.5 9.5,-169.5"/>
<text text-anchor="middle" x="61" y="-176.5" font-family="Helvetica,sans-Serif" font-size="10.00">CO_CANmodule_t</text>
</a>
</g>
</g>
<!-- Node3&#45;&gt;Node4 -->
<g id="edge4" class="edge">
<title>Node3&#45;&gt;Node4</title>
<path fill="none" stroke="#9a32cd" stroke-dasharray="5,2" d="M126.26,-232.02C118.13,-227.97 109.49,-223.19 102,-218 89.39,-209.27 76.73,-196.84 68.88,-188.61"/>
<polygon fill="#9a32cd" stroke="#9a32cd" points="124.95,-235.27 135.49,-236.42 127.97,-228.95 124.95,-235.27"/>
<text text-anchor="middle" x="122" y="-210" font-family="Helvetica,sans-Serif" font-size="10.00"> txArray</text>
</g>
<!-- Node4&#45;&gt;Node1 -->
<g id="edge7" class="edge">
<title>Node4&#45;&gt;Node1</title>
<path fill="none" stroke="#9a32cd" stroke-dasharray="5,2" d="M57.79,-159.34C54.71,-134.55 53.58,-91.12 78,-67 126.09,-19.5 209.2,-10.85 256.46,-10.07"/>
<polygon fill="#9a32cd" stroke="#9a32cd" points="54.34,-159.89 59.26,-169.27 61.26,-158.87 54.34,-159.89"/>
<text text-anchor="middle" x="105.5" y="-81" font-family="Helvetica,sans-Serif" font-size="10.00"> CANdevRx</text>
<text text-anchor="middle" x="105.5" y="-70" font-family="Helvetica,sans-Serif" font-size="10.00">CANdevTx</text>
</g>
<!-- Node4&#45;&gt;Node2 -->
<g id="edge3" class="edge">
<title>Node4&#45;&gt;Node2</title>
<path fill="none" stroke="#9a32cd" stroke-dasharray="5,2" d="M63.33,-159.01C66.25,-143.09 72.73,-120.81 87,-107 101.74,-92.74 123.88,-85.74 141.86,-82.31"/>
<polygon fill="#9a32cd" stroke="#9a32cd" points="59.81,-158.85 61.78,-169.27 66.73,-159.9 59.81,-158.85"/>
<text text-anchor="middle" x="114.5" y="-126.5" font-family="Helvetica,sans-Serif" font-size="10.00"> CANdevTx</text>
</g>
<!-- Node5 -->
<g id="node5" class="node">
<title>Node5</title>
<g id="a_node5"><a xlink:href="structCO__CANrx__t.html" target="_top" xlink:title="Configuration object for CAN received message for specific CANopenNode Object.">
<polygon fill="white" stroke="black" points="0,-236.5 0,-255.5 76,-255.5 76,-236.5 0,-236.5"/>
<text text-anchor="middle" x="38" y="-243.5" font-family="Helvetica,sans-Serif" font-size="10.00">CO_CANrx_t</text>
</a>
</g>
</g>
<!-- Node5&#45;&gt;Node4 -->
<g id="edge5" class="edge">
<title>Node5&#45;&gt;Node4</title>
<path fill="none" stroke="#9a32cd" stroke-dasharray="5,2" d="M36.1,-226.03C36.1,-219.8 36.79,-212.96 39,-207 41.61,-199.97 46.85,-193.42 51.56,-188.53"/>
<polygon fill="#9a32cd" stroke="#9a32cd" points="32.62,-226.46 36.67,-236.25 39.61,-226.07 32.62,-226.46"/>
<text text-anchor="middle" x="59" y="-210" font-family="Helvetica,sans-Serif" font-size="10.00"> rxArray</text>
</g>
<!-- Node6 -->
<g id="node6" class="node">
<title>Node6</title>
<g id="a_node6"><a xlink:href="structOD__extension__t.html" target="_top" xlink:title="Extension of OD object, which can optionally be specified by application in initialization phase with...">
<polygon fill="white" stroke="black" points="255,-169.5 255,-188.5 349,-188.5 349,-169.5 255,-169.5"/>
<text text-anchor="middle" x="302" y="-176.5" font-family="Helvetica,sans-Serif" font-size="10.00">OD_extension_t</text>
</a>
</g>
</g>
<!-- Node6&#45;&gt;Node1 -->
<g id="edge9" class="edge">
<title>Node6&#45;&gt;Node1</title>
<path fill="none" stroke="#9a32cd" stroke-dasharray="5,2" d="M310.44,-160C311.5,-157.05 312.42,-153.98 313,-151 322.69,-101.56 303.39,-41.52 295.32,-19.57"/>
<polygon fill="#9a32cd" stroke="#9a32cd" points="307.2,-158.69 306.57,-169.27 313.65,-161.39 307.2,-158.69"/>
<text text-anchor="middle" x="363.5" y="-81" font-family="Helvetica,sans-Serif" font-size="10.00"> OD_1019_extension</text>
<text text-anchor="middle" x="363.5" y="-70" font-family="Helvetica,sans-Serif" font-size="10.00">OD_1005_extension</text>
</g>
<!-- Node6&#45;&gt;Node2 -->
<g id="edge6" class="edge">
<title>Node6&#45;&gt;Node2</title>
<path fill="none" stroke="#9a32cd" stroke-dasharray="5,2" d="M244.97,-169.83C221.62,-165.38 198.17,-159.1 190,-151 172.8,-133.94 171.15,-103.11 171.49,-87.93"/>
<polygon fill="#9a32cd" stroke="#9a32cd" points="244.46,-173.29 254.92,-171.62 245.7,-166.4 244.46,-173.29"/>
<text text-anchor="middle" x="251.5" y="-143" font-family="Helvetica,sans-Serif" font-size="10.00"> OD_1003_extension</text>
<text text-anchor="middle" x="251.5" y="-132" font-family="Helvetica,sans-Serif" font-size="10.00">OD_statusBits_extension</text>
<text text-anchor="middle" x="251.5" y="-121" font-family="Helvetica,sans-Serif" font-size="10.00">OD_1014_extension</text>
<text text-anchor="middle" x="251.5" y="-110" font-family="Helvetica,sans-Serif" font-size="10.00">OD_1015_extension</text>
</g>
</g>
</svg>
