<?xml version="1.0" encoding="UTF-8" standalone="no"?>
<!DOCTYPE svg PUBLIC "-//W3C//DTD SVG 1.1//EN"
 "http://www.w3.org/Graphics/SVG/1.1/DTD/svg11.dtd">
<!-- Generated by graphviz version 2.43.0 (0)
 -->
<!-- Title: CO_SDOclient_t Pages: 1 -->
<svg width="467pt" height="240pt"
 viewBox="0.00 0.00 467.00 240.00" xmlns="http://www.w3.org/2000/svg" xmlns:xlink="http://www.w3.org/1999/xlink">
<g id="graph0" class="graph" transform="scale(1 1) rotate(0) translate(4 236)">
<title>CO_SDOclient_t</title>
<polygon fill="white" stroke="transparent" points="-4,4 -4,-236 463,-236 463,4 -4,4"/>
<!-- Node1 -->
<g id="node1" class="node">
<title>Node1</title>
<g id="a_node1"><a xlink:title="SDO client object.">
<polygon fill="#bfbfbf" stroke="black" points="227.5,-0.5 227.5,-19.5 320.5,-19.5 320.5,-0.5 227.5,-0.5"/>
<text text-anchor="middle" x="274" y="-7.5" font-family="Helvetica,sans-Serif" font-size="10.00">CO_SDOclient_t</text>
</a>
</g>
</g>
<!-- Node2 -->
<g id="node2" class="node">
<title>Node2</title>
<g id="a_node2"><a xlink:href="structOD__IO__t.html" target="_top" xlink:title="Structure for input / output on the OD variable.">
<polygon fill="white" stroke="black" points="12,-78.5 12,-97.5 68,-97.5 68,-78.5 12,-78.5"/>
<text text-anchor="middle" x="40" y="-85.5" font-family="Helvetica,sans-Serif" font-size="10.00">OD_IO_t</text>
</a>
</g>
</g>
<!-- Node2&#45;&gt;Node1 -->
<g id="edge1" class="edge">
<title>Node2&#45;&gt;Node1</title>
<path fill="none" stroke="#9a32cd" stroke-dasharray="5,2" d="M41.32,-68.24C43.09,-57.75 47.08,-45.35 56,-38 81.31,-17.14 171.02,-12.12 227.16,-11.08"/>
<polygon fill="#9a32cd" stroke="#9a32cd" points="37.84,-67.85 40.17,-78.19 44.8,-68.65 37.84,-67.85"/>
<text text-anchor="middle" x="73" y="-46.5" font-family="Helvetica,sans-Serif" font-size="10.00"> OD_IO</text>
</g>
<!-- Node3 -->
<g id="node3" class="node">
<title>Node3</title>
<g id="a_node3"><a xlink:href="structOD__stream__t.html" target="_top" xlink:title="IO stream structure, used for read/write access to OD variable, part of OD_IO_t.">
<polygon fill="white" stroke="black" points="0,-145.5 0,-164.5 80,-164.5 80,-145.5 0,-145.5"/>
<text text-anchor="middle" x="40" y="-152.5" font-family="Helvetica,sans-Serif" font-size="10.00">OD_stream_t</text>
</a>
</g>
</g>
<!-- Node3&#45;&gt;Node2 -->
<g id="edge2" class="edge">
<title>Node3&#45;&gt;Node2</title>
<path fill="none" stroke="#9a32cd" stroke-dasharray="5,2" d="M40,-135.04C40,-122.67 40,-107.12 40,-97.63"/>
<polygon fill="#9a32cd" stroke="#9a32cd" points="36.5,-135.23 40,-145.23 43.5,-135.23 36.5,-135.23"/>
<text text-anchor="middle" x="59" y="-119" font-family="Helvetica,sans-Serif" font-size="10.00"> stream</text>
</g>
<!-- Node4 -->
<g id="node4" class="node">
<title>Node4</title>
<g id="a_node4"><a xlink:href="structCO__CANtx__t.html" target="_top" xlink:title="Configuration object for CAN transmit message for specific CANopenNode Object.">
<polygon fill="white" stroke="black" points="98,-145.5 98,-164.5 174,-164.5 174,-145.5 98,-145.5"/>
<text text-anchor="middle" x="136" y="-152.5" font-family="Helvetica,sans-Serif" font-size="10.00">CO_CANtx_t</text>
</a>
</g>
</g>
<!-- Node4&#45;&gt;Node1 -->
<g id="edge3" class="edge">
<title>Node4&#45;&gt;Node1</title>
<path fill="none" stroke="#9a32cd" stroke-dasharray="5,2" d="M122.98,-136.82C112.38,-120.56 100.98,-96.02 113,-78 138.28,-40.09 189.48,-23.6 227.39,-16.44"/>
<polygon fill="#9a32cd" stroke="#9a32cd" points="120.34,-139.15 128.95,-145.33 126.07,-135.13 120.34,-139.15"/>
<text text-anchor="middle" x="140.5" y="-85.5" font-family="Helvetica,sans-Serif" font-size="10.00"> CANtxBuff</text>
</g>
<!-- Node5 -->
<g id="node5" class="node">
<title>Node5</title>
<g id="a_node5"><a xlink:href="structCO__CANmodule__t.html" target="_top" xlink:title="Complete CAN module object.">
<polygon fill="white" stroke="black" points="177.5,-78.5 177.5,-97.5 280.5,-97.5 280.5,-78.5 177.5,-78.5"/>
<text text-anchor="middle" x="229" y="-85.5" font-family="Helvetica,sans-Serif" font-size="10.00">CO_CANmodule_t</text>
</a>
</g>
</g>
<!-- Node4&#45;&gt;Node5 -->
<g id="edge5" class="edge">
<title>Node4&#45;&gt;Node5</title>
<path fill="none" stroke="#9a32cd" stroke-dasharray="5,2" d="M154.56,-138.84C163.57,-131.67 174.67,-123.15 185,-116 194.44,-109.48 205.44,-102.73 214.08,-97.61"/>
<polygon fill="#9a32cd" stroke="#9a32cd" points="152.24,-136.21 146.64,-145.2 156.63,-141.66 152.24,-136.21"/>
<text text-anchor="middle" x="205" y="-119" font-family="Helvetica,sans-Serif" font-size="10.00"> txArray</text>
</g>
<!-- Node5&#45;&gt;Node1 -->
<g id="edge4" class="edge">
<title>Node5&#45;&gt;Node1</title>
<path fill="none" stroke="#9a32cd" stroke-dasharray="5,2" d="M230.23,-68.23C231.58,-58.6 234.34,-47.02 240,-38 244.73,-30.47 252.32,-24.14 259.13,-19.51"/>
<polygon fill="#9a32cd" stroke="#9a32cd" points="226.73,-68.08 229.22,-78.38 233.7,-68.77 226.73,-68.08"/>
<text text-anchor="middle" x="267.5" y="-52" font-family="Helvetica,sans-Serif" font-size="10.00"> CANdevRx</text>
<text text-anchor="middle" x="267.5" y="-41" font-family="Helvetica,sans-Serif" font-size="10.00">CANdevTx</text>
</g>
<!-- Node6 -->
<g id="node6" class="node">
<title>Node6</title>
<g id="a_node6"><a xlink:href="structCO__CANrx__t.html" target="_top" xlink:title="Configuration object for CAN received message for specific CANopenNode Object.">
<polygon fill="white" stroke="black" points="192,-145.5 192,-164.5 268,-164.5 268,-145.5 192,-145.5"/>
<text text-anchor="middle" x="230" y="-152.5" font-family="Helvetica,sans-Serif" font-size="10.00">CO_CANrx_t</text>
</a>
</g>
</g>
<!-- Node6&#45;&gt;Node5 -->
<g id="edge6" class="edge">
<title>Node6&#45;&gt;Node5</title>
<path fill="none" stroke="#9a32cd" stroke-dasharray="5,2" d="M229.71,-135.04C229.52,-122.67 229.28,-107.12 229.13,-97.63"/>
<polygon fill="#9a32cd" stroke="#9a32cd" points="226.21,-135.29 229.87,-145.23 233.21,-135.18 226.21,-135.29"/>
<text text-anchor="middle" x="249" y="-119" font-family="Helvetica,sans-Serif" font-size="10.00"> rxArray</text>
</g>
<!-- Node7 -->
<g id="node7" class="node">
<title>Node7</title>
<g id="a_node7"><a xlink:href="structOD__t.html" target="_top" xlink:title="Object Dictionary.">
<polygon fill="white" stroke="black" points="337.5,-78.5 337.5,-97.5 378.5,-97.5 378.5,-78.5 337.5,-78.5"/>
<text text-anchor="middle" x="358" y="-85.5" font-family="Helvetica,sans-Serif" font-size="10.00">OD_t</text>
</a>
</g>
</g>
<!-- Node7&#45;&gt;Node1 -->
<g id="edge7" class="edge">
<title>Node7&#45;&gt;Node1</title>
<path fill="none" stroke="#9a32cd" stroke-dasharray="5,2" d="M348.34,-69.72C342.07,-59.59 333.18,-47.06 323,-38 314.58,-30.51 303.73,-24.27 294.38,-19.67"/>
<polygon fill="#9a32cd" stroke="#9a32cd" points="345.42,-71.65 353.51,-78.5 351.45,-68.1 345.42,-71.65"/>
<text text-anchor="middle" x="350.5" y="-46.5" font-family="Helvetica,sans-Serif" font-size="10.00"> OD</text>
</g>
<!-- Node8 -->
<g id="node8" class="node">
<title>Node8</title>
<g id="a_node8"><a xlink:href="structOD__entry__t.html" target="_top" xlink:title="Object Dictionary entry for one OD object.">
<polygon fill="white" stroke="black" points="367.5,-145.5 367.5,-164.5 438.5,-164.5 438.5,-145.5 367.5,-145.5"/>
<text text-anchor="middle" x="403" y="-152.5" font-family="Helvetica,sans-Serif" font-size="10.00">OD_entry_t</text>
</a>
</g>
</g>
<!-- Node8&#45;&gt;Node7 -->
<g id="edge8" class="edge">
<title>Node8&#45;&gt;Node7</title>
<path fill="none" stroke="#9a32cd" stroke-dasharray="5,2" d="M412.08,-135.73C414.05,-129.14 414.61,-121.88 411,-116 407.25,-109.88 391.95,-102.45 378.74,-96.93"/>
<polygon fill="#9a32cd" stroke="#9a32cd" points="408.74,-134.66 408.22,-145.24 415.23,-137.29 408.74,-134.66"/>
<text text-anchor="middle" x="422.5" y="-119" font-family="Helvetica,sans-Serif" font-size="10.00"> list</text>
</g>
<!-- Node9 -->
<g id="node9" class="node">
<title>Node9</title>
<g id="a_node9"><a xlink:href="structOD__extension__t.html" target="_top" xlink:title="Extension of OD object, which can optionally be specified by application in initialization phase with...">
<polygon fill="white" stroke="black" points="278,-212.5 278,-231.5 372,-231.5 372,-212.5 278,-212.5"/>
<text text-anchor="middle" x="325" y="-219.5" font-family="Helvetica,sans-Serif" font-size="10.00">OD_extension_t</text>
</a>
</g>
</g>
<!-- Node9&#45;&gt;Node1 -->
<g id="edge11" class="edge">
<title>Node9&#45;&gt;Node1</title>
<path fill="none" stroke="#9a32cd" stroke-dasharray="5,2" d="M320.77,-202.26C316.61,-183.34 310.27,-153.25 306,-127 299.6,-87.66 310.23,-74.83 295,-38 292.19,-31.19 287.17,-24.65 282.75,-19.7"/>
<polygon fill="#9a32cd" stroke="#9a32cd" points="317.4,-203.23 322.99,-212.23 324.23,-201.71 317.4,-203.23"/>
<text text-anchor="middle" x="356.5" y="-119" font-family="Helvetica,sans-Serif" font-size="10.00"> OD_1280_extension</text>
</g>
<!-- Node9&#45;&gt;Node8 -->
<g id="edge9" class="edge">
<title>Node9&#45;&gt;Node8</title>
<path fill="none" stroke="#9a32cd" stroke-dasharray="5,2" d="M343.34,-205.71C358.71,-192.91 380.09,-175.09 392.65,-164.63"/>
<polygon fill="#9a32cd" stroke="#9a32cd" points="340.96,-203.14 335.52,-212.23 345.44,-208.52 340.96,-203.14"/>
<text text-anchor="middle" x="394" y="-186" font-family="Helvetica,sans-Serif" font-size="10.00"> extension</text>
</g>
<!-- Node10 -->
<g id="node10" class="node">
<title>Node10</title>
<g id="a_node10"><a xlink:href="structCO__fifo__t.html" target="_top" xlink:title="Fifo object.">
<polygon fill="white" stroke="black" points="397,-78.5 397,-97.5 459,-97.5 459,-78.5 397,-78.5"/>
<text text-anchor="middle" x="428" y="-85.5" font-family="Helvetica,sans-Serif" font-size="10.00">CO_fifo_t</text>
</a>
</g>
</g>
<!-- Node10&#45;&gt;Node1 -->
<g id="edge10" class="edge">
<title>Node10&#45;&gt;Node1</title>
<path fill="none" stroke="#9a32cd" stroke-dasharray="5,2" d="M411.17,-71.37C398.89,-60.68 381.41,-46.9 364,-38 348.31,-29.98 329.84,-23.92 313.73,-19.6"/>
<polygon fill="#9a32cd" stroke="#9a32cd" points="408.99,-74.11 418.77,-78.17 413.65,-68.9 408.99,-74.11"/>
<text text-anchor="middle" x="415.5" y="-46.5" font-family="Helvetica,sans-Serif" font-size="10.00"> bufFifo</text>
</g>
</g>
</svg>
