<?xml version="1.0" encoding="UTF-8" standalone="no"?>
<!DOCTYPE svg PUBLIC "-//W3C//DTD SVG 1.1//EN"
 "http://www.w3.org/Graphics/SVG/1.1/DTD/svg11.dtd">
<!-- Generated by graphviz version 2.43.0 (0)
 -->
<!-- Title: CO_PDO_common_t Pages: 1 -->
<svg width="642pt" height="286pt"
 viewBox="0.00 0.00 642.00 286.00" xmlns="http://www.w3.org/2000/svg" xmlns:xlink="http://www.w3.org/1999/xlink">
<g id="graph0" class="graph" transform="scale(1 1) rotate(0) translate(4 282)">
<title>CO_PDO_common_t</title>
<polygon fill="white" stroke="transparent" points="-4,4 -4,-282 638,-282 638,4 -4,4"/>
<!-- Node1 -->
<g id="node1" class="node">
<title>Node1</title>
<g id="a_node1"><a xlink:title="PDO object, common properties.">
<polygon fill="#bfbfbf" stroke="black" points="341,-0.5 341,-19.5 455,-19.5 455,-0.5 341,-0.5"/>
<text text-anchor="middle" x="398" y="-7.5" font-family="Helvetica,sans-Serif" font-size="10.00">CO_PDO_common_t</text>
</a>
</g>
</g>
<!-- Node2 -->
<g id="node2" class="node">
<title>Node2</title>
<g id="a_node2"><a xlink:href="structCO__EM__t.html" target="_top" xlink:title="Emergency object.">
<polygon fill="white" stroke="black" points="172,-67.5 172,-86.5 232,-86.5 232,-67.5 172,-67.5"/>
<text text-anchor="middle" x="202" y="-74.5" font-family="Helvetica,sans-Serif" font-size="10.00">CO_EM_t</text>
</a>
</g>
</g>
<!-- Node2&#45;&gt;Node1 -->
<g id="edge1" class="edge">
<title>Node2&#45;&gt;Node1</title>
<path fill="none" stroke="#9a32cd" stroke-dasharray="5,2" d="M237.88,-64.1C276.74,-51.21 337.77,-30.97 372.18,-19.56"/>
<polygon fill="#9a32cd" stroke="#9a32cd" points="236.42,-60.9 228.03,-67.37 238.62,-67.54 236.42,-60.9"/>
<text text-anchor="middle" x="321.5" y="-41" font-family="Helvetica,sans-Serif" font-size="10.00"> em</text>
</g>
<!-- Node3 -->
<g id="node3" class="node">
<title>Node3</title>
<g id="a_node3"><a xlink:href="structCO__CANtx__t.html" target="_top" xlink:title="Configuration object for CAN transmit message for specific CANopenNode Object.">
<polygon fill="white" stroke="black" points="106,-258.5 106,-277.5 182,-277.5 182,-258.5 106,-258.5"/>
<text text-anchor="middle" x="144" y="-265.5" font-family="Helvetica,sans-Serif" font-size="10.00">CO_CANtx_t</text>
</a>
</g>
</g>
<!-- Node3&#45;&gt;Node2 -->
<g id="edge2" class="edge">
<title>Node3&#45;&gt;Node2</title>
<path fill="none" stroke="#9a32cd" stroke-dasharray="5,2" d="M148.25,-248.62C153.03,-228.46 161.28,-195.2 170,-167 179.26,-137.04 192.52,-102.24 198.65,-86.5"/>
<polygon fill="#9a32cd" stroke="#9a32cd" points="144.84,-247.83 145.97,-258.36 151.65,-249.43 144.84,-247.83"/>
<text text-anchor="middle" x="197.5" y="-186.5" font-family="Helvetica,sans-Serif" font-size="10.00"> CANtxBuff</text>
</g>
<!-- Node4 -->
<g id="node4" class="node">
<title>Node4</title>
<g id="a_node4"><a xlink:href="structCO__CANmodule__t.html" target="_top" xlink:title="Complete CAN module object.">
<polygon fill="white" stroke="black" points="9.5,-179.5 9.5,-198.5 112.5,-198.5 112.5,-179.5 9.5,-179.5"/>
<text text-anchor="middle" x="61" y="-186.5" font-family="Helvetica,sans-Serif" font-size="10.00">CO_CANmodule_t</text>
</a>
</g>
</g>
<!-- Node3&#45;&gt;Node4 -->
<g id="edge4" class="edge">
<title>Node3&#45;&gt;Node4</title>
<path fill="none" stroke="#9a32cd" stroke-dasharray="5,2" d="M119.1,-252.81C113.23,-248.99 107.18,-244.62 102,-240 87.75,-227.31 74.35,-209.42 66.95,-198.84"/>
<polygon fill="#9a32cd" stroke="#9a32cd" points="117.67,-256.04 128.02,-258.33 121.36,-250.09 117.67,-256.04"/>
<text text-anchor="middle" x="122" y="-232" font-family="Helvetica,sans-Serif" font-size="10.00"> txArray</text>
</g>
<!-- Node4&#45;&gt;Node1 -->
<g id="edge9" class="edge">
<title>Node4&#45;&gt;Node1</title>
<path fill="none" stroke="#9a32cd" stroke-dasharray="5,2" d="M58.04,-169.39C56.17,-151.67 55.89,-124.84 67,-105 81.16,-79.71 93.42,-78.56 120,-67 192.34,-35.52 283.05,-21.51 340.78,-15.43"/>
<polygon fill="#9a32cd" stroke="#9a32cd" points="54.57,-169.87 59.36,-179.32 61.51,-168.95 54.57,-169.87"/>
<text text-anchor="middle" x="141.5" y="-74.5" font-family="Helvetica,sans-Serif" font-size="10.00"> CANdev</text>
</g>
<!-- Node4&#45;&gt;Node2 -->
<g id="edge3" class="edge">
<title>Node4&#45;&gt;Node2</title>
<path fill="none" stroke="#9a32cd" stroke-dasharray="5,2" d="M61.71,-169.18C63.47,-150.26 69.15,-121.59 87,-105 109.83,-83.78 146.09,-78.24 171.79,-77.24"/>
<polygon fill="#9a32cd" stroke="#9a32cd" points="58.21,-169.06 61.06,-179.26 65.2,-169.51 58.21,-169.06"/>
<text text-anchor="middle" x="114.5" y="-124.5" font-family="Helvetica,sans-Serif" font-size="10.00"> CANdevTx</text>
</g>
<!-- Node5 -->
<g id="node5" class="node">
<title>Node5</title>
<g id="a_node5"><a xlink:href="structCO__CANrx__t.html" target="_top" xlink:title="Configuration object for CAN received message for specific CANopenNode Object.">
<polygon fill="white" stroke="black" points="0,-258.5 0,-277.5 76,-277.5 76,-258.5 0,-258.5"/>
<text text-anchor="middle" x="38" y="-265.5" font-family="Helvetica,sans-Serif" font-size="10.00">CO_CANrx_t</text>
</a>
</g>
</g>
<!-- Node5&#45;&gt;Node4 -->
<g id="edge5" class="edge">
<title>Node5&#45;&gt;Node4</title>
<path fill="none" stroke="#9a32cd" stroke-dasharray="5,2" d="M36.7,-248.23C36.74,-242.01 37.31,-235.12 39,-229 42.11,-217.76 49.13,-206.3 54.41,-198.74"/>
<polygon fill="#9a32cd" stroke="#9a32cd" points="33.21,-248.5 37.06,-258.37 40.21,-248.26 33.21,-248.5"/>
<text text-anchor="middle" x="59" y="-232" font-family="Helvetica,sans-Serif" font-size="10.00"> rxArray</text>
</g>
<!-- Node6 -->
<g id="node6" class="node">
<title>Node6</title>
<g id="a_node6"><a xlink:href="structOD__extension__t.html" target="_top" xlink:title="Extension of OD object, which can optionally be specified by application in initialization phase with...">
<polygon fill="white" stroke="black" points="351,-258.5 351,-277.5 445,-277.5 445,-258.5 351,-258.5"/>
<text text-anchor="middle" x="398" y="-265.5" font-family="Helvetica,sans-Serif" font-size="10.00">OD_extension_t</text>
</a>
</g>
</g>
<!-- Node6&#45;&gt;Node1 -->
<g id="edge13" class="edge">
<title>Node6&#45;&gt;Node1</title>
<path fill="none" stroke="#9a32cd" stroke-dasharray="5,2" d="M397.22,-247.86C396.08,-217.55 394.18,-156.65 395,-105 395.5,-73.65 396.94,-36.45 397.63,-19.81"/>
<polygon fill="#9a32cd" stroke="#9a32cd" points="393.74,-248.36 397.62,-258.22 400.73,-248.09 393.74,-248.36"/>
<text text-anchor="start" x="395" y="-141" font-family="Helvetica,sans-Serif" font-size="10.00"> OD_communicationParam</text>
<text text-anchor="middle" x="460.5" y="-130" font-family="Helvetica,sans-Serif" font-size="10.00">_ext</text>
<text text-anchor="start" x="395" y="-119" font-family="Helvetica,sans-Serif" font-size="10.00">OD_mappingParam</text>
<text text-anchor="middle" x="460.5" y="-108" font-family="Helvetica,sans-Serif" font-size="10.00">_extension</text>
</g>
<!-- Node6&#45;&gt;Node2 -->
<g id="edge6" class="edge">
<title>Node6&#45;&gt;Node2</title>
<path fill="none" stroke="#9a32cd" stroke-dasharray="5,2" d="M345.65,-255.73C317.61,-247.4 284.17,-233.5 261,-211 223.49,-174.58 208.06,-110.1 203.53,-86.75"/>
<polygon fill="#9a32cd" stroke="#9a32cd" points="344.75,-259.11 355.32,-258.45 346.64,-252.37 344.75,-259.11"/>
<text text-anchor="middle" x="322.5" y="-203" font-family="Helvetica,sans-Serif" font-size="10.00"> OD_1003_extension</text>
<text text-anchor="middle" x="322.5" y="-192" font-family="Helvetica,sans-Serif" font-size="10.00">OD_statusBits_extension</text>
<text text-anchor="middle" x="322.5" y="-181" font-family="Helvetica,sans-Serif" font-size="10.00">OD_1014_extension</text>
<text text-anchor="middle" x="322.5" y="-170" font-family="Helvetica,sans-Serif" font-size="10.00">OD_1015_extension</text>
</g>
<!-- Node10 -->
<g id="node10" class="node">
<title>Node10</title>
<g id="a_node10"><a xlink:href="structOD__entry__t.html" target="_top" xlink:title="Object Dictionary entry for one OD object.">
<polygon fill="white" stroke="black" points="447.5,-179.5 447.5,-198.5 518.5,-198.5 518.5,-179.5 447.5,-179.5"/>
<text text-anchor="middle" x="483" y="-186.5" font-family="Helvetica,sans-Serif" font-size="10.00">OD_entry_t</text>
</a>
</g>
</g>
<!-- Node6&#45;&gt;Node10 -->
<g id="edge12" class="edge">
<title>Node6&#45;&gt;Node10</title>
<path fill="none" stroke="#9a32cd" stroke-dasharray="5,2" d="M415.23,-251.39C432.82,-235.46 459.47,-211.32 473.54,-198.57"/>
<polygon fill="#9a32cd" stroke="#9a32cd" points="412.48,-249.16 407.42,-258.47 417.18,-254.35 412.48,-249.16"/>
<text text-anchor="middle" x="464" y="-232" font-family="Helvetica,sans-Serif" font-size="10.00"> extension</text>
</g>
<!-- Node7 -->
<g id="node7" class="node">
<title>Node7</title>
<g id="a_node7"><a xlink:href="structOD__IO__t.html" target="_top" xlink:title="Structure for input / output on the OD variable.">
<polygon fill="white" stroke="black" points="546,-67.5 546,-86.5 602,-86.5 602,-67.5 546,-67.5"/>
<text text-anchor="middle" x="574" y="-74.5" font-family="Helvetica,sans-Serif" font-size="10.00">OD_IO_t</text>
</a>
</g>
</g>
<!-- Node7&#45;&gt;Node1 -->
<g id="edge7" class="edge">
<title>Node7&#45;&gt;Node1</title>
<path fill="none" stroke="#9a32cd" stroke-dasharray="5,2" d="M540.89,-63.77C505.96,-50.87 451.82,-30.88 421.19,-19.56"/>
<polygon fill="#9a32cd" stroke="#9a32cd" points="540.04,-67.19 550.63,-67.37 542.46,-60.62 540.04,-67.19"/>
<text text-anchor="middle" x="514" y="-41" font-family="Helvetica,sans-Serif" font-size="10.00"> OD_IO</text>
</g>
<!-- Node8 -->
<g id="node8" class="node">
<title>Node8</title>
<g id="a_node8"><a xlink:href="structOD__stream__t.html" target="_top" xlink:title="IO stream structure, used for read/write access to OD variable, part of OD_IO_t.">
<polygon fill="white" stroke="black" points="554,-179.5 554,-198.5 634,-198.5 634,-179.5 554,-179.5"/>
<text text-anchor="middle" x="594" y="-186.5" font-family="Helvetica,sans-Serif" font-size="10.00">OD_stream_t</text>
</a>
</g>
</g>
<!-- Node8&#45;&gt;Node7 -->
<g id="edge8" class="edge">
<title>Node8&#45;&gt;Node7</title>
<path fill="none" stroke="#9a32cd" stroke-dasharray="5,2" d="M590.61,-169.35C586.23,-145.25 578.78,-104.31 575.56,-86.59"/>
<polygon fill="#9a32cd" stroke="#9a32cd" points="587.2,-170.16 592.43,-179.37 594.09,-168.9 587.2,-170.16"/>
<text text-anchor="middle" x="605" y="-124.5" font-family="Helvetica,sans-Serif" font-size="10.00"> stream</text>
</g>
<!-- Node9 -->
<g id="node9" class="node">
<title>Node9</title>
<g id="a_node9"><a xlink:href="structOD__t.html" target="_top" xlink:title="Object Dictionary.">
<polygon fill="white" stroke="black" points="466.5,-67.5 466.5,-86.5 507.5,-86.5 507.5,-67.5 466.5,-67.5"/>
<text text-anchor="middle" x="487" y="-74.5" font-family="Helvetica,sans-Serif" font-size="10.00">OD_t</text>
</a>
</g>
</g>
<!-- Node9&#45;&gt;Node1 -->
<g id="edge10" class="edge">
<title>Node9&#45;&gt;Node1</title>
<path fill="none" stroke="#9a32cd" stroke-dasharray="5,2" d="M466.55,-61.07C448.99,-48.24 424.27,-30.19 409.81,-19.63"/>
<polygon fill="#9a32cd" stroke="#9a32cd" points="464.86,-64.16 475,-67.23 468.99,-58.51 464.86,-64.16"/>
<text text-anchor="middle" x="457.5" y="-41" font-family="Helvetica,sans-Serif" font-size="10.00"> OD</text>
</g>
<!-- Node10&#45;&gt;Node9 -->
<g id="edge11" class="edge">
<title>Node10&#45;&gt;Node9</title>
<path fill="none" stroke="#9a32cd" stroke-dasharray="5,2" d="M508.2,-173.54C516.76,-167.21 525.33,-158.93 530,-149 538.31,-131.3 539.46,-122.11 530,-105 525.14,-96.21 516.08,-89.89 507.53,-85.59"/>
<polygon fill="#9a32cd" stroke="#9a32cd" points="506.12,-170.73 499.79,-179.22 510.03,-176.53 506.12,-170.73"/>
<text text-anchor="middle" x="545.5" y="-124.5" font-family="Helvetica,sans-Serif" font-size="10.00"> list</text>
</g>
</g>
</svg>
