<?xml version="1.0" encoding="UTF-8" standalone="no"?>
<!DOCTYPE svg PUBLIC "-//W3C//DTD SVG 1.1//EN"
 "http://www.w3.org/Graphics/SVG/1.1/DTD/svg11.dtd">
<!-- Generated by graphviz version 2.43.0 (0)
 -->
<!-- Title: CO_GTWA_t Pages: 1 -->
<svg width="943pt" height="643pt"
 viewBox="0.00 0.00 943.00 643.00" xmlns="http://www.w3.org/2000/svg" xmlns:xlink="http://www.w3.org/1999/xlink">
<g id="graph0" class="graph" transform="scale(1 1) rotate(0) translate(4 639)">
<title>CO_GTWA_t</title>
<polygon fill="white" stroke="transparent" points="-4,4 -4,-639 939,-639 939,4 -4,4"/>
<!-- Node1 -->
<g id="node1" class="node">
<title>Node1</title>
<g id="a_node1"><a xlink:title="CANopen Gateway&#45;ascii object.">
<polygon fill="#bfbfbf" stroke="black" points="860,-202.5 860,-221.5 935,-221.5 935,-202.5 860,-202.5"/>
<text text-anchor="middle" x="897.5" y="-209.5" font-family="Helvetica,sans-Serif" font-size="10.00">CO_GTWA_t</text>
</a>
</g>
</g>
<!-- Node2 -->
<g id="node2" class="node">
<title>Node2</title>
<g id="a_node2"><a xlink:href="structCO__LEDs__t.html" target="_top" xlink:title="LEDs object, initialized by CO_LEDs_init()">
<polygon fill="white" stroke="black" points="658,-586.5 658,-605.5 727,-605.5 727,-586.5 658,-586.5"/>
<text text-anchor="middle" x="692.5" y="-593.5" font-family="Helvetica,sans-Serif" font-size="10.00">CO_LEDs_t</text>
</a>
</g>
</g>
<!-- Node2&#45;&gt;Node1 -->
<g id="edge1" class="edge">
<title>Node2&#45;&gt;Node1</title>
<path fill="none" stroke="#9a32cd" stroke-dasharray="5,2" d="M737.55,-601.2C770.86,-602.5 815.28,-598.16 842,-571 892.52,-519.66 896.27,-273.96 896.5,-221.76"/>
<polygon fill="#9a32cd" stroke="#9a32cd" points="737.35,-597.68 727.16,-600.6 736.94,-604.67 737.35,-597.68"/>
<text text-anchor="middle" x="812" y="-601" font-family="Helvetica,sans-Serif" font-size="10.00"> LEDs</text>
</g>
<!-- Node3 -->
<g id="node3" class="node">
<title>Node3</title>
<g id="a_node3"><a xlink:href="structCO__NMT__t.html" target="_top" xlink:title="NMT consumer and Heartbeat producer object.">
<polygon fill="white" stroke="black" points="658.5,-345.5 658.5,-364.5 726.5,-364.5 726.5,-345.5 658.5,-345.5"/>
<text text-anchor="middle" x="692.5" y="-352.5" font-family="Helvetica,sans-Serif" font-size="10.00">CO_NMT_t</text>
</a>
</g>
</g>
<!-- Node3&#45;&gt;Node1 -->
<g id="edge2" class="edge">
<title>Node3&#45;&gt;Node1</title>
<path fill="none" stroke="#9a32cd" stroke-dasharray="5,2" d="M715.32,-339.63C757.36,-310.01 848.46,-245.84 882.92,-221.56"/>
<polygon fill="#9a32cd" stroke="#9a32cd" points="713.29,-336.78 707.13,-345.4 717.33,-342.5 713.29,-336.78"/>
<text text-anchor="middle" x="812" y="-295" font-family="Helvetica,sans-Serif" font-size="10.00"> NMT</text>
</g>
<!-- Node4 -->
<g id="node4" class="node">
<title>Node4</title>
<g id="a_node4"><a xlink:href="structCO__EM__t.html" target="_top" xlink:title="Emergency object.">
<polygon fill="white" stroke="black" points="465,-404.5 465,-423.5 525,-423.5 525,-404.5 465,-404.5"/>
<text text-anchor="middle" x="495" y="-411.5" font-family="Helvetica,sans-Serif" font-size="10.00">CO_EM_t</text>
</a>
</g>
</g>
<!-- Node4&#45;&gt;Node3 -->
<g id="edge3" class="edge">
<title>Node4&#45;&gt;Node3</title>
<path fill="none" stroke="#9a32cd" stroke-dasharray="5,2" d="M535.1,-402.2C571.71,-391.15 625.74,-374.84 659.76,-364.58"/>
<polygon fill="#9a32cd" stroke="#9a32cd" points="533.83,-398.93 525.27,-405.17 535.85,-405.63 533.83,-398.93"/>
<text text-anchor="middle" x="584.5" y="-394" font-family="Helvetica,sans-Serif" font-size="10.00"> em</text>
</g>
<!-- Node5 -->
<g id="node5" class="node">
<title>Node5</title>
<g id="a_node5"><a xlink:href="structCO__EM__fifo__t.html" target="_top" xlink:title="Fifo buffer for emergency producer and error history.">
<polygon fill="white" stroke="black" points="202.5,-498.5 202.5,-517.5 284.5,-517.5 284.5,-498.5 202.5,-498.5"/>
<text text-anchor="middle" x="243.5" y="-505.5" font-family="Helvetica,sans-Serif" font-size="10.00">CO_EM_fifo_t</text>
</a>
</g>
</g>
<!-- Node5&#45;&gt;Node4 -->
<g id="edge4" class="edge">
<title>Node5&#45;&gt;Node4</title>
<path fill="none" stroke="#9a32cd" stroke-dasharray="5,2" d="M290.11,-494.22C295.5,-491.39 300.63,-488.01 305,-484 318.18,-471.91 308.78,-458.85 323,-448 328.63,-443.71 417.28,-427.54 464.65,-419.14"/>
<polygon fill="#9a32cd" stroke="#9a32cd" points="288.5,-491.11 280.89,-498.49 291.44,-497.47 288.5,-491.11"/>
<text text-anchor="middle" x="373.5" y="-451" font-family="Helvetica,sans-Serif" font-size="10.00"> fifo</text>
</g>
<!-- Node6 -->
<g id="node6" class="node">
<title>Node6</title>
<g id="a_node6"><a xlink:href="structCO__CANtx__t.html" target="_top" xlink:title="Configuration object for CAN transmit message for specific CANopenNode Object.">
<polygon fill="white" stroke="black" points="9,-459.5 9,-478.5 85,-478.5 85,-459.5 9,-459.5"/>
<text text-anchor="middle" x="47" y="-466.5" font-family="Helvetica,sans-Serif" font-size="10.00">CO_CANtx_t</text>
</a>
</g>
</g>
<!-- Node6&#45;&gt;Node3 -->
<g id="edge10" class="edge">
<title>Node6&#45;&gt;Node3</title>
<path fill="none" stroke="#9a32cd" stroke-dasharray="5,2" d="M62.5,-451.34C84.99,-425.38 131.04,-377.77 182,-357 268.52,-321.74 559.19,-343.31 658.17,-351.93"/>
<polygon fill="#9a32cd" stroke="#9a32cd" points="59.6,-449.35 55.8,-459.24 64.94,-453.87 59.6,-449.35"/>
<text text-anchor="middle" x="373.5" y="-352" font-family="Helvetica,sans-Serif" font-size="10.00"> HB_TXbuff</text>
<text text-anchor="middle" x="373.5" y="-341" font-family="Helvetica,sans-Serif" font-size="10.00">NMT_TXbuff</text>
</g>
<!-- Node6&#45;&gt;Node4 -->
<g id="edge5" class="edge">
<title>Node6&#45;&gt;Node4</title>
<path fill="none" stroke="#9a32cd" stroke-dasharray="5,2" d="M95.42,-467.89C147.75,-465.57 233.99,-458.48 305,-437 313.56,-434.41 314.39,-430.41 323,-428 371.48,-414.44 430.47,-412.68 464.97,-413.05"/>
<polygon fill="#9a32cd" stroke="#9a32cd" points="95.27,-464.39 85.42,-468.29 95.55,-471.38 95.27,-464.39"/>
<text text-anchor="middle" x="243.5" y="-463" font-family="Helvetica,sans-Serif" font-size="10.00"> CANtxBuff</text>
</g>
<!-- Node7 -->
<g id="node7" class="node">
<title>Node7</title>
<g id="a_node7"><a xlink:href="structCO__CANmodule__t.html" target="_top" xlink:title="Complete CAN module object.">
<polygon fill="white" stroke="black" points="192,-536.5 192,-555.5 295,-555.5 295,-536.5 192,-536.5"/>
<text text-anchor="middle" x="243.5" y="-543.5" font-family="Helvetica,sans-Serif" font-size="10.00">CO_CANmodule_t</text>
</a>
</g>
</g>
<!-- Node6&#45;&gt;Node7 -->
<g id="edge7" class="edge">
<title>Node6&#45;&gt;Node7</title>
<path fill="none" stroke="#9a32cd" stroke-dasharray="5,2" d="M77.4,-482.78C104.31,-495.14 145.4,-513.37 182,-527 190.98,-530.34 200.84,-533.61 209.95,-536.46"/>
<polygon fill="#9a32cd" stroke="#9a32cd" points="78.71,-479.53 68.16,-478.51 75.77,-485.88 78.71,-479.53"/>
<text text-anchor="middle" x="138" y="-522" font-family="Helvetica,sans-Serif" font-size="10.00"> txArray</text>
</g>
<!-- Node10 -->
<g id="node10" class="node">
<title>Node10</title>
<g id="a_node10"><a xlink:href="structCO__SDOclient__t.html" target="_top" xlink:title="SDO client object.">
<polygon fill="white" stroke="black" points="646,-202.5 646,-221.5 739,-221.5 739,-202.5 646,-202.5"/>
<text text-anchor="middle" x="692.5" y="-209.5" font-family="Helvetica,sans-Serif" font-size="10.00">CO_SDOclient_t</text>
</a>
</g>
</g>
<!-- Node6&#45;&gt;Node10 -->
<g id="edge16" class="edge">
<title>Node6&#45;&gt;Node10</title>
<path fill="none" stroke="#9a32cd" stroke-dasharray="5,2" d="M54.81,-449.8C64.2,-425.91 83.28,-385.29 112,-361 137.46,-339.47 150.03,-343.47 182,-334 287.39,-302.79 316.97,-308.02 424,-283 503.98,-264.3 523.69,-258.39 603,-237 621.34,-232.05 641.76,-226.3 658.35,-221.57"/>
<polygon fill="#9a32cd" stroke="#9a32cd" points="51.41,-448.89 51.18,-459.49 57.97,-451.35 51.41,-448.89"/>
<text text-anchor="middle" x="373.5" y="-305" font-family="Helvetica,sans-Serif" font-size="10.00"> CANtxBuff</text>
</g>
<!-- Node16 -->
<g id="node16" class="node">
<title>Node16</title>
<g id="a_node16"><a xlink:href="structCO__LSSmaster__t.html" target="_top" xlink:title="LSS master object.">
<polygon fill="white" stroke="black" points="446.5,-572.5 446.5,-591.5 543.5,-591.5 543.5,-572.5 446.5,-572.5"/>
<text text-anchor="middle" x="495" y="-579.5" font-family="Helvetica,sans-Serif" font-size="10.00">CO_LSSmaster_t</text>
</a>
</g>
</g>
<!-- Node6&#45;&gt;Node16 -->
<g id="edge24" class="edge">
<title>Node6&#45;&gt;Node16</title>
<path fill="none" stroke="#9a32cd" stroke-dasharray="5,2" d="M62.41,-487C74.49,-501.18 92.8,-520.72 112,-534 139.99,-553.35 149.07,-556.44 182,-565 273.22,-588.72 384.34,-588.07 446.32,-585.21"/>
<polygon fill="#9a32cd" stroke="#9a32cd" points="64.82,-484.42 55.75,-478.96 59.44,-488.89 64.82,-484.42"/>
<text text-anchor="middle" x="243.5" y="-586" font-family="Helvetica,sans-Serif" font-size="10.00"> TXbuff</text>
</g>
<!-- Node7&#45;&gt;Node3 -->
<g id="edge11" class="edge">
<title>Node7&#45;&gt;Node3</title>
<path fill="none" stroke="#9a32cd" stroke-dasharray="5,2" d="M305.34,-546.1C369.22,-543.83 470.91,-533.37 548,-493 611.38,-459.81 666.09,-390.07 684.71,-364.58"/>
<polygon fill="#9a32cd" stroke="#9a32cd" points="304.93,-542.61 295.04,-546.4 305.13,-549.61 304.93,-542.61"/>
<text text-anchor="middle" x="495" y="-543" font-family="Helvetica,sans-Serif" font-size="10.00"> HB_CANdevTx</text>
<text text-anchor="middle" x="495" y="-532" font-family="Helvetica,sans-Serif" font-size="10.00">NMT_CANdevTx</text>
</g>
<!-- Node7&#45;&gt;Node4 -->
<g id="edge6" class="edge">
<title>Node7&#45;&gt;Node4</title>
<path fill="none" stroke="#9a32cd" stroke-dasharray="5,2" d="M299.52,-531.36C301.46,-530.03 303.29,-528.58 305,-527 320.8,-512.36 306.62,-495.99 323,-482 358,-452.09 382.4,-478.71 424,-459 433.16,-454.66 433.63,-450.72 442,-445 453.28,-437.29 466.52,-429.42 476.81,-423.54"/>
<polygon fill="#9a32cd" stroke="#9a32cd" points="297.51,-528.48 290.53,-536.45 300.95,-534.57 297.51,-528.48"/>
<text text-anchor="middle" x="373.5" y="-485" font-family="Helvetica,sans-Serif" font-size="10.00"> CANdevTx</text>
</g>
<!-- Node7&#45;&gt;Node10 -->
<g id="edge17" class="edge">
<title>Node7&#45;&gt;Node10</title>
<path fill="none" stroke="#9a32cd" stroke-dasharray="5,2" d="M298.98,-534.13C344.09,-523.54 403.93,-507.52 424,-493 435.39,-484.76 430.71,-475.37 442,-467 481.75,-437.54 512.91,-467.88 548,-433 566.24,-414.87 554.08,-400.79 566,-378 600.15,-312.69 659.57,-246.06 682.3,-221.68"/>
<polygon fill="#9a32cd" stroke="#9a32cd" points="297.97,-530.77 289.02,-536.43 299.55,-537.59 297.97,-530.77"/>
<text text-anchor="middle" x="495" y="-481" font-family="Helvetica,sans-Serif" font-size="10.00"> CANdevRx</text>
<text text-anchor="middle" x="495" y="-470" font-family="Helvetica,sans-Serif" font-size="10.00">CANdevTx</text>
</g>
<!-- Node7&#45;&gt;Node16 -->
<g id="edge25" class="edge">
<title>Node7&#45;&gt;Node16</title>
<path fill="none" stroke="#9a32cd" stroke-dasharray="5,2" d="M305.38,-551.68C340.23,-555.29 384.7,-560.5 424,-567 433.32,-568.54 443.27,-570.49 452.67,-572.47"/>
<polygon fill="#9a32cd" stroke="#9a32cd" points="305.66,-548.19 295.36,-550.65 304.95,-555.15 305.66,-548.19"/>
<text text-anchor="middle" x="373.5" y="-570" font-family="Helvetica,sans-Serif" font-size="10.00"> CANdevTx</text>
</g>
<!-- Node8 -->
<g id="node8" class="node">
<title>Node8</title>
<g id="a_node8"><a xlink:href="structCO__CANrx__t.html" target="_top" xlink:title="Configuration object for CAN received message for specific CANopenNode Object.">
<polygon fill="white" stroke="black" points="9,-615.5 9,-634.5 85,-634.5 85,-615.5 9,-615.5"/>
<text text-anchor="middle" x="47" y="-622.5" font-family="Helvetica,sans-Serif" font-size="10.00">CO_CANrx_t</text>
</a>
</g>
</g>
<!-- Node8&#45;&gt;Node7 -->
<g id="edge8" class="edge">
<title>Node8&#45;&gt;Node7</title>
<path fill="none" stroke="#9a32cd" stroke-dasharray="5,2" d="M80.59,-611.5C107.7,-600.3 147.32,-584 182,-570 193.95,-565.18 207.25,-559.89 218.33,-555.51"/>
<polygon fill="#9a32cd" stroke="#9a32cd" points="79.11,-608.32 71.21,-615.38 81.78,-614.79 79.11,-608.32"/>
<text text-anchor="middle" x="138" y="-601" font-family="Helvetica,sans-Serif" font-size="10.00"> rxArray</text>
</g>
<!-- Node9 -->
<g id="node9" class="node">
<title>Node9</title>
<g id="a_node9"><a xlink:href="structOD__extension__t.html" target="_top" xlink:title="Extension of OD object, which can optionally be specified by application in initialization phase with...">
<polygon fill="white" stroke="black" points="0,-241.5 0,-260.5 94,-260.5 94,-241.5 0,-241.5"/>
<text text-anchor="middle" x="47" y="-248.5" font-family="Helvetica,sans-Serif" font-size="10.00">OD_extension_t</text>
</a>
</g>
</g>
<!-- Node9&#45;&gt;Node3 -->
<g id="edge12" class="edge">
<title>Node9&#45;&gt;Node3</title>
<path fill="none" stroke="#9a32cd" stroke-dasharray="5,2" d="M104.25,-253.38C201.46,-257.61 393.46,-266.5 424,-272 516.36,-288.65 621.5,-327.37 667.65,-345.42"/>
<polygon fill="#9a32cd" stroke="#9a32cd" points="104.16,-249.87 94.01,-252.94 103.85,-256.87 104.16,-249.87"/>
<text text-anchor="middle" x="373.5" y="-275" font-family="Helvetica,sans-Serif" font-size="10.00"> OD_1017_extension</text>
</g>
<!-- Node9&#45;&gt;Node4 -->
<g id="edge9" class="edge">
<title>Node9&#45;&gt;Node4</title>
<path fill="none" stroke="#9a32cd" stroke-dasharray="5,2" d="M77.19,-264.92C88.08,-270.05 100.57,-275.86 112,-281 205.14,-322.9 226.19,-339.49 323,-372 371.83,-388.4 430.46,-401.41 464.84,-408.38"/>
<polygon fill="#9a32cd" stroke="#9a32cd" points="78.64,-261.73 68.1,-260.62 75.65,-268.06 78.64,-261.73"/>
<text text-anchor="middle" x="243.5" y="-401" font-family="Helvetica,sans-Serif" font-size="10.00"> OD_1003_extension</text>
<text text-anchor="middle" x="243.5" y="-390" font-family="Helvetica,sans-Serif" font-size="10.00">OD_1014_extension</text>
<text text-anchor="middle" x="243.5" y="-379" font-family="Helvetica,sans-Serif" font-size="10.00">OD_1015_extension</text>
<text text-anchor="middle" x="243.5" y="-368" font-family="Helvetica,sans-Serif" font-size="10.00">OD_statusBits_extension</text>
</g>
<!-- Node9&#45;&gt;Node10 -->
<g id="edge22" class="edge">
<title>Node9&#45;&gt;Node10</title>
<path fill="none" stroke="#9a32cd" stroke-dasharray="5,2" d="M81.33,-237.77C108.06,-227.9 146.8,-215.27 182,-210 351.5,-184.65 556.27,-198.82 645.84,-207.21"/>
<polygon fill="#9a32cd" stroke="#9a32cd" points="79.83,-234.59 71.71,-241.39 82.3,-241.14 79.83,-234.59"/>
<text text-anchor="middle" x="373.5" y="-200" font-family="Helvetica,sans-Serif" font-size="10.00"> OD_1280_extension</text>
</g>
<!-- Node14 -->
<g id="node14" class="node">
<title>Node14</title>
<g id="a_node14"><a xlink:href="structOD__entry__t.html" target="_top" xlink:title="Object Dictionary entry for one OD object.">
<polygon fill="white" stroke="black" points="208,-219.5 208,-238.5 279,-238.5 279,-219.5 208,-219.5"/>
<text text-anchor="middle" x="243.5" y="-226.5" font-family="Helvetica,sans-Serif" font-size="10.00">OD_entry_t</text>
</a>
</g>
</g>
<!-- Node9&#45;&gt;Node14 -->
<g id="edge20" class="edge">
<title>Node9&#45;&gt;Node14</title>
<path fill="none" stroke="#9a32cd" stroke-dasharray="5,2" d="M104.26,-242.96C106.88,-242.63 109.47,-242.3 112,-242 144.44,-238.1 181.52,-234.49 207.84,-232.07"/>
<polygon fill="#9a32cd" stroke="#9a32cd" points="103.58,-239.52 94.12,-244.29 104.49,-246.46 103.58,-239.52"/>
<text text-anchor="middle" x="138" y="-245" font-family="Helvetica,sans-Serif" font-size="10.00"> extension</text>
</g>
<!-- Node10&#45;&gt;Node1 -->
<g id="edge13" class="edge">
<title>Node10&#45;&gt;Node1</title>
<path fill="none" stroke="#9a32cd" stroke-dasharray="5,2" d="M749.2,-212C784.47,-212 829.06,-212 859.89,-212"/>
<polygon fill="#9a32cd" stroke="#9a32cd" points="749.06,-208.5 739.06,-212 749.06,-215.5 749.06,-208.5"/>
<text text-anchor="middle" x="812" y="-215" font-family="Helvetica,sans-Serif" font-size="10.00"> SDO_C</text>
</g>
<!-- Node11 -->
<g id="node11" class="node">
<title>Node11</title>
<g id="a_node11"><a xlink:href="structOD__IO__t.html" target="_top" xlink:title="Structure for input / output on the OD variable.">
<polygon fill="white" stroke="black" points="467,-143.5 467,-162.5 523,-162.5 523,-143.5 467,-143.5"/>
<text text-anchor="middle" x="495" y="-150.5" font-family="Helvetica,sans-Serif" font-size="10.00">OD_IO_t</text>
</a>
</g>
</g>
<!-- Node11&#45;&gt;Node10 -->
<g id="edge14" class="edge">
<title>Node11&#45;&gt;Node10</title>
<path fill="none" stroke="#9a32cd" stroke-dasharray="5,2" d="M533.34,-156.8C554.15,-159.53 580.37,-163.99 603,-171 628.88,-179.01 656.98,-193.03 674.42,-202.41"/>
<polygon fill="#9a32cd" stroke="#9a32cd" points="533.64,-153.31 523.29,-155.56 532.78,-160.25 533.64,-153.31"/>
<text text-anchor="middle" x="584.5" y="-174" font-family="Helvetica,sans-Serif" font-size="10.00"> OD_IO</text>
</g>
<!-- Node12 -->
<g id="node12" class="node">
<title>Node12</title>
<g id="a_node12"><a xlink:href="structOD__stream__t.html" target="_top" xlink:title="IO stream structure, used for read/write access to OD variable, part of OD_IO_t.">
<polygon fill="white" stroke="black" points="203.5,-143.5 203.5,-162.5 283.5,-162.5 283.5,-143.5 203.5,-143.5"/>
<text text-anchor="middle" x="243.5" y="-150.5" font-family="Helvetica,sans-Serif" font-size="10.00">OD_stream_t</text>
</a>
</g>
</g>
<!-- Node12&#45;&gt;Node11 -->
<g id="edge15" class="edge">
<title>Node12&#45;&gt;Node11</title>
<path fill="none" stroke="#9a32cd" stroke-dasharray="5,2" d="M294.07,-153C345.95,-153 425.51,-153 466.89,-153"/>
<polygon fill="#9a32cd" stroke="#9a32cd" points="293.76,-149.5 283.76,-153 293.76,-156.5 293.76,-149.5"/>
<text text-anchor="middle" x="373.5" y="-156" font-family="Helvetica,sans-Serif" font-size="10.00"> stream</text>
</g>
<!-- Node13 -->
<g id="node13" class="node">
<title>Node13</title>
<g id="a_node13"><a xlink:href="structOD__t.html" target="_top" xlink:title="Object Dictionary.">
<polygon fill="white" stroke="black" points="474.5,-219.5 474.5,-238.5 515.5,-238.5 515.5,-219.5 474.5,-219.5"/>
<text text-anchor="middle" x="495" y="-226.5" font-family="Helvetica,sans-Serif" font-size="10.00">OD_t</text>
</a>
</g>
</g>
<!-- Node13&#45;&gt;Node10 -->
<g id="edge18" class="edge">
<title>Node13&#45;&gt;Node10</title>
<path fill="none" stroke="#9a32cd" stroke-dasharray="5,2" d="M525.88,-226.4C557.83,-223.62 608.9,-219.18 645.89,-215.97"/>
<polygon fill="#9a32cd" stroke="#9a32cd" points="525.48,-222.92 515.82,-227.28 526.09,-229.9 525.48,-222.92"/>
<text text-anchor="middle" x="584.5" y="-225" font-family="Helvetica,sans-Serif" font-size="10.00"> OD</text>
</g>
<!-- Node14&#45;&gt;Node13 -->
<g id="edge19" class="edge">
<title>Node14&#45;&gt;Node13</title>
<path fill="none" stroke="#9a32cd" stroke-dasharray="5,2" d="M289.34,-229C344.23,-229 434.77,-229 474.4,-229"/>
<polygon fill="#9a32cd" stroke="#9a32cd" points="289.19,-225.5 279.19,-229 289.19,-232.5 289.19,-225.5"/>
<text text-anchor="middle" x="373.5" y="-232" font-family="Helvetica,sans-Serif" font-size="10.00"> list</text>
</g>
<!-- Node15 -->
<g id="node15" class="node">
<title>Node15</title>
<g id="a_node15"><a xlink:href="structCO__fifo__t.html" target="_top" xlink:title="Fifo object.">
<polygon fill="white" stroke="black" points="464,-99.5 464,-118.5 526,-118.5 526,-99.5 464,-99.5"/>
<text text-anchor="middle" x="495" y="-106.5" font-family="Helvetica,sans-Serif" font-size="10.00">CO_fifo_t</text>
</a>
</g>
</g>
<!-- Node15&#45;&gt;Node1 -->
<g id="edge27" class="edge">
<title>Node15&#45;&gt;Node1</title>
<path fill="none" stroke="#9a32cd" stroke-dasharray="5,2" d="M536.23,-114.27C556.38,-117.2 581.09,-121.21 603,-126 702.08,-147.64 816.69,-184.86 868.51,-202.37"/>
<polygon fill="#9a32cd" stroke="#9a32cd" points="536.54,-110.78 526.15,-112.85 535.56,-117.71 536.54,-110.78"/>
<text text-anchor="middle" x="692.5" y="-182" font-family="Helvetica,sans-Serif" font-size="10.00"> commFifo</text>
<text text-anchor="middle" x="692.5" y="-171" font-family="Helvetica,sans-Serif" font-size="10.00">logFifo</text>
</g>
<!-- Node15&#45;&gt;Node10 -->
<g id="edge21" class="edge">
<title>Node15&#45;&gt;Node10</title>
<path fill="none" stroke="#9a32cd" stroke-dasharray="5,2" d="M535.78,-120.07C556.44,-126.57 581.74,-135.73 603,-147 633.32,-163.07 664.75,-188.68 680.75,-202.46"/>
<polygon fill="#9a32cd" stroke="#9a32cd" points="536.63,-116.67 526.04,-117.1 534.58,-123.37 536.63,-116.67"/>
<text text-anchor="middle" x="584.5" y="-150" font-family="Helvetica,sans-Serif" font-size="10.00"> bufFifo</text>
</g>
<!-- Node16&#45;&gt;Node1 -->
<g id="edge23" class="edge">
<title>Node16&#45;&gt;Node1</title>
<path fill="none" stroke="#9a32cd" stroke-dasharray="5,2" d="M525.91,-567.89C533.32,-564.01 541.1,-559.6 548,-555 690.22,-460.15 733.06,-438.74 842,-307 865.27,-278.87 884.29,-239.5 892.35,-221.57"/>
<polygon fill="#9a32cd" stroke="#9a32cd" points="524.18,-564.84 516.84,-572.48 527.34,-571.09 524.18,-564.84"/>
<text text-anchor="middle" x="692.5" y="-508" font-family="Helvetica,sans-Serif" font-size="10.00"> LSSmaster</text>
</g>
<!-- Node17 -->
<g id="node17" class="node">
<title>Node17</title>
<g id="a_node17"><a xlink:href="unionCO__LSS__address__t.html" target="_top" xlink:title="The LSS address is a 128 bit number, uniquely identifying each node.">
<polygon fill="white" stroke="black" points="442,-26.5 442,-45.5 548,-45.5 548,-26.5 442,-26.5"/>
<text text-anchor="middle" x="495" y="-33.5" font-family="Helvetica,sans-Serif" font-size="10.00">CO_LSS_address_t</text>
</a>
</g>
</g>
<!-- Node17&#45;&gt;Node1 -->
<g id="edge26" class="edge">
<title>Node17&#45;&gt;Node1</title>
<path fill="none" stroke="#9a32cd" stroke-dasharray="5,2" d="M554.75,-47.76C610.44,-60.23 695.54,-82.75 764,-116 813.83,-140.2 864.62,-183.23 886,-202.37"/>
<polygon fill="#9a32cd" stroke="#9a32cd" points="555.22,-44.28 544.7,-45.55 553.71,-51.11 555.22,-44.28"/>
<text text-anchor="middle" x="692.5" y="-119" font-family="Helvetica,sans-Serif" font-size="10.00"> lssAddress</text>
</g>
<!-- Node18 -->
<g id="node18" class="node">
<title>Node18</title>
<g id="a_node18"><a xlink:href="structCO__LSSmaster__fastscan__t.html" target="_top" xlink:title="Parameters for LSS fastscan CO_LSSmaster_IdentifyFastscan.">
<polygon fill="white" stroke="black" points="621,-0.5 621,-19.5 764,-19.5 764,-0.5 621,-0.5"/>
<text text-anchor="middle" x="692.5" y="-7.5" font-family="Helvetica,sans-Serif" font-size="10.00">CO_LSSmaster_fastscan_t</text>
</a>
</g>
</g>
<!-- Node17&#45;&gt;Node18 -->
<g id="edge29" class="edge">
<title>Node17&#45;&gt;Node18</title>
<path fill="none" stroke="#9a32cd" stroke-dasharray="5,2" d="M543.08,-24.26C550.71,-22.64 558.55,-21.14 566,-20 583.72,-17.28 602.96,-15.28 620.93,-13.82"/>
<polygon fill="#9a32cd" stroke="#9a32cd" points="542.23,-20.86 533.23,-26.44 543.75,-27.69 542.23,-20.86"/>
<text text-anchor="middle" x="584.5" y="-34" font-family="Helvetica,sans-Serif" font-size="10.00"> found</text>
<text text-anchor="middle" x="584.5" y="-23" font-family="Helvetica,sans-Serif" font-size="10.00">match</text>
</g>
<!-- Node18&#45;&gt;Node1 -->
<g id="edge28" class="edge">
<title>Node18&#45;&gt;Node1</title>
<path fill="none" stroke="#9a32cd" stroke-dasharray="5,2" d="M774.62,-5.46C798.67,-8.05 823.5,-15.12 842,-31 895.04,-76.53 897.55,-171.6 896.89,-202.25"/>
<polygon fill="#9a32cd" stroke="#9a32cd" points="774.63,-1.95 764.38,-4.62 774.05,-8.93 774.63,-1.95"/>
<text text-anchor="middle" x="812" y="-34" font-family="Helvetica,sans-Serif" font-size="10.00"> lssFastscan</text>
</g>
</g>
</svg>
