<?xml version="1.0" encoding="UTF-8" standalone="no"?>
<!DOCTYPE svg PUBLIC "-//W3C//DTD SVG 1.1//EN"
 "http://www.w3.org/Graphics/SVG/1.1/DTD/svg11.dtd">
<!-- Generated by graphviz version 2.43.0 (0)
 -->
<!-- Title: CO_PDO_common_t Pages: 1 -->
<!--zoomable 286 -->
<svg id="main" version="1.1" xmlns="http://www.w3.org/2000/svg" xmlns:xlink="http://www.w3.org/1999/xlink" xml:space="preserve" onload="init(evt)">
<style type="text/css"><![CDATA[
.edge:hover path { stroke: red; }
.edge:hover polygon { stroke: red; fill: red; }
]]></style>
<script type="text/javascript"><![CDATA[
var edges = document.getElementsByTagName('g');
if (edges && edges.length) {
  for (var i=0;i<edges.length;i++) {
    if (edges[i].id.substr(0,4)=='edge') {
      edges[i].setAttribute('class','edge');
    }
  }
}
]]></script>
        <defs>
                <circle id="rim" cx="0" cy="0" r="7"/>
                <circle id="rim2" cx="0" cy="0" r="3.5"/>
                <g id="zoomPlus">
                        <use xlink:href="#rim" fill="#404040">
                                <set attributeName="fill" to="#808080" begin="zoomplus.mouseover" end="zoomplus.mouseout"/>
                        </use>
                        <path d="M-4,0h8M0,-4v8" fill="none" stroke="white" stroke-width="1.5" pointer-events="none"/>
                </g>
                <g id="zoomMin">
                        <use xlink:href="#rim" fill="#404040">
                                <set attributeName="fill" to="#808080" begin="zoomminus.mouseover" end="zoomminus.mouseout"/>
                        </use>
                        <path d="M-4,0h8" fill="none" stroke="white" stroke-width="1.5" pointer-events="none"/>
                </g>
                <g id="dirArrow">
                        <path fill="none" stroke="white" stroke-width="1.5" d="M0,-3.0v7 M-2.5,-0.5L0,-3.0L2.5,-0.5"/>
                </g>
               <g id="resetDef">
                       <use xlink:href="#rim2" fill="#404040">
                               <set attributeName="fill" to="#808080" begin="reset.mouseover" end="reset.mouseout"/>
                       </use>
               </g>
        </defs>

<script type="text/javascript">
var viewWidth = 765;
var viewHeight = 286;
var sectionId = 'dynsection-0';
</script>
<script xlink:href="svgpan.js"/>
<svg id="graph" class="graph">
<g id="viewport">
<title>CO_PDO_common_t</title>
<polygon fill="white" stroke="transparent" points="-4,4 -4,-282 761,-282 761,4 -4,4"/>
<!-- Node1 -->
<g id="node1" class="node">
<title>Node1</title>
<g id="a_node1"><a xlink:title="PDO object, common properties.">
<polygon fill="#bfbfbf" stroke="black" points="424.5,-0.5 424.5,-19.5 538.5,-19.5 538.5,-0.5 424.5,-0.5"/>
<text text-anchor="middle" x="481.5" y="-7.5" font-family="Helvetica,sans-Serif" font-size="10.00">CO_PDO_common_t</text>
</a>
</g>
</g>
<!-- Node2 -->
<g id="node2" class="node">
<title>Node2</title>
<g id="a_node2"><a xlink:href="structCO__EM__t.html" target="_top" xlink:title="Emergency object.">
<polygon fill="white" stroke="black" points="209.5,-67.5 209.5,-86.5 269.5,-86.5 269.5,-67.5 209.5,-67.5"/>
<text text-anchor="middle" x="239.5" y="-74.5" font-family="Helvetica,sans-Serif" font-size="10.00">CO_EM_t</text>
</a>
</g>
</g>
<!-- Node2&#45;&gt;Node1 -->
<g id="edge1" class="edge">
<title>Node2&#45;&gt;Node1</title>
<path fill="none" stroke="#9a32cd" stroke-dasharray="5,2" d="M279.34,-65.3C327.06,-52.48 406.03,-31.27 449.81,-19.51"/>
<polygon fill="#9a32cd" stroke="#9a32cd" points="278.41,-61.92 269.66,-67.9 280.23,-68.69 278.41,-61.92"/>
<text text-anchor="middle" x="385" y="-41" font-family="Helvetica,sans-Serif" font-size="10.00"> em</text>
</g>
<!-- Node3 -->
<g id="node3" class="node">
<title>Node3</title>
<g id="a_node3"><a xlink:href="structCO__EM__fifo__t.html" target="_top" xlink:title="Fifo buffer for emergency producer and error history.">
<polygon fill="white" stroke="black" points="121.5,-179.5 121.5,-198.5 203.5,-198.5 203.5,-179.5 121.5,-179.5"/>
<text text-anchor="middle" x="162.5" y="-186.5" font-family="Helvetica,sans-Serif" font-size="10.00">CO_EM_fifo_t</text>
</a>
</g>
</g>
<!-- Node3&#45;&gt;Node2 -->
<g id="edge2" class="edge">
<title>Node3&#45;&gt;Node2</title>
<path fill="none" stroke="#9a32cd" stroke-dasharray="5,2" d="M169.39,-169.58C176.61,-151.83 189.18,-124.82 205.5,-105 211.35,-97.9 219.34,-91.44 226.11,-86.61"/>
<polygon fill="#9a32cd" stroke="#9a32cd" points="165.98,-168.7 165.6,-179.29 172.5,-171.25 165.98,-168.7"/>
<text text-anchor="middle" x="215.5" y="-124.5" font-family="Helvetica,sans-Serif" font-size="10.00"> fifo</text>
</g>
<!-- Node4 -->
<g id="node4" class="node">
<title>Node4</title>
<g id="a_node4"><a xlink:href="structCO__CANtx__t.html" target="_top" xlink:title="Configuration object for CAN transmit message for specific CANopenNode Object.">
<polygon fill="white" stroke="black" points="156.5,-258.5 156.5,-277.5 232.5,-277.5 232.5,-258.5 156.5,-258.5"/>
<text text-anchor="middle" x="194.5" y="-265.5" font-family="Helvetica,sans-Serif" font-size="10.00">CO_CANtx_t</text>
</a>
</g>
</g>
<!-- Node4&#45;&gt;Node2 -->
<g id="edge3" class="edge">
<title>Node4&#45;&gt;Node2</title>
<path fill="none" stroke="#9a32cd" stroke-dasharray="5,2" d="M200.9,-248.73C204.58,-237.85 209.13,-223.73 212.5,-211 224.74,-164.76 234.55,-108.23 238.08,-86.8"/>
<polygon fill="#9a32cd" stroke="#9a32cd" points="197.54,-247.76 197.59,-258.35 204.16,-250.04 197.54,-247.76"/>
<text text-anchor="middle" x="251" y="-186.5" font-family="Helvetica,sans-Serif" font-size="10.00"> CANtxBuff</text>
</g>
<!-- Node5 -->
<g id="node5" class="node">
<title>Node5</title>
<g id="a_node5"><a xlink:href="structCO__CANmodule__t.html" target="_top" xlink:title="Complete CAN module object.">
<polygon fill="white" stroke="black" points="0,-179.5 0,-198.5 103,-198.5 103,-179.5 0,-179.5"/>
<text text-anchor="middle" x="51.5" y="-186.5" font-family="Helvetica,sans-Serif" font-size="10.00">CO_CANmodule_t</text>
</a>
</g>
</g>
<!-- Node4&#45;&gt;Node5 -->
<g id="edge5" class="edge">
<title>Node4&#45;&gt;Node5</title>
<path fill="none" stroke="#9a32cd" stroke-dasharray="5,2" d="M169.83,-253.72C140.46,-237.9 92.27,-211.95 67.42,-198.57"/>
<polygon fill="#9a32cd" stroke="#9a32cd" points="168.19,-256.81 178.65,-258.47 171.5,-250.64 168.19,-256.81"/>
<text text-anchor="middle" x="164.5" y="-232" font-family="Helvetica,sans-Serif" font-size="10.00"> txArray</text>
</g>
<!-- Node5&#45;&gt;Node1 -->
<g id="edge10" class="edge">
<title>Node5&#45;&gt;Node1</title>
<path fill="none" stroke="#9a32cd" stroke-dasharray="5,2" d="M51.99,-169.07C53.41,-150.73 58.18,-123.09 73.5,-105 99.98,-73.73 118.33,-79.03 157.5,-67 248.63,-39.01 358.74,-23.71 424.29,-16.45"/>
<polygon fill="#9a32cd" stroke="#9a32cd" points="48.49,-168.96 51.47,-179.13 55.48,-169.32 48.49,-168.96"/>
<text text-anchor="middle" x="179" y="-74.5" font-family="Helvetica,sans-Serif" font-size="10.00"> CANdev</text>
</g>
<!-- Node5&#45;&gt;Node2 -->
<g id="edge4" class="edge">
<title>Node5&#45;&gt;Node2</title>
<path fill="none" stroke="#9a32cd" stroke-dasharray="5,2" d="M61.24,-170.49C72.83,-151.35 93.98,-121.27 120.5,-105 147.68,-88.33 184.03,-81.93 209.37,-79.48"/>
<polygon fill="#9a32cd" stroke="#9a32cd" points="58.08,-168.96 56.08,-179.36 64.13,-172.48 58.08,-168.96"/>
<text text-anchor="middle" x="148" y="-124.5" font-family="Helvetica,sans-Serif" font-size="10.00"> CANdevTx</text>
</g>
<!-- Node6 -->
<g id="node6" class="node">
<title>Node6</title>
<g id="a_node6"><a xlink:href="structCO__CANrx__t.html" target="_top" xlink:title="Configuration object for CAN received message for specific CANopenNode Object.">
<polygon fill="white" stroke="black" points="13.5,-258.5 13.5,-277.5 89.5,-277.5 89.5,-258.5 13.5,-258.5"/>
<text text-anchor="middle" x="51.5" y="-265.5" font-family="Helvetica,sans-Serif" font-size="10.00">CO_CANrx_t</text>
</a>
</g>
</g>
<!-- Node6&#45;&gt;Node5 -->
<g id="edge6" class="edge">
<title>Node6&#45;&gt;Node5</title>
<path fill="none" stroke="#9a32cd" stroke-dasharray="5,2" d="M51.5,-248.31C51.5,-232.59 51.5,-210.81 51.5,-198.81"/>
<polygon fill="#9a32cd" stroke="#9a32cd" points="48,-248.47 51.5,-258.47 55,-248.47 48,-248.47"/>
<text text-anchor="middle" x="71.5" y="-232" font-family="Helvetica,sans-Serif" font-size="10.00"> rxArray</text>
</g>
<!-- Node7 -->
<g id="node7" class="node">
<title>Node7</title>
<g id="a_node7"><a xlink:href="structOD__extension__t.html" target="_top" xlink:title="Extension of OD object, which can optionally be specified by application in initialization phase with...">
<polygon fill="white" stroke="black" points="434.5,-258.5 434.5,-277.5 528.5,-277.5 528.5,-258.5 434.5,-258.5"/>
<text text-anchor="middle" x="481.5" y="-265.5" font-family="Helvetica,sans-Serif" font-size="10.00">OD_extension_t</text>
</a>
</g>
</g>
<!-- Node7&#45;&gt;Node1 -->
<g id="edge14" class="edge">
<title>Node7&#45;&gt;Node1</title>
<path fill="none" stroke="#9a32cd" stroke-dasharray="5,2" d="M480.72,-247.86C479.58,-217.55 477.68,-156.65 478.5,-105 479,-73.65 480.44,-36.45 481.13,-19.81"/>
<polygon fill="#9a32cd" stroke="#9a32cd" points="477.24,-248.36 481.12,-258.22 484.23,-248.09 477.24,-248.36"/>
<text text-anchor="start" x="478.5" y="-141" font-family="Helvetica,sans-Serif" font-size="10.00"> OD_communicationParam</text>
<text text-anchor="middle" x="544" y="-130" font-family="Helvetica,sans-Serif" font-size="10.00">_ext</text>
<text text-anchor="start" x="478.5" y="-119" font-family="Helvetica,sans-Serif" font-size="10.00">OD_mappingParam</text>
<text text-anchor="middle" x="544" y="-108" font-family="Helvetica,sans-Serif" font-size="10.00">_extension</text>
</g>
<!-- Node7&#45;&gt;Node2 -->
<g id="edge7" class="edge">
<title>Node7&#45;&gt;Node2</title>
<path fill="none" stroke="#9a32cd" stroke-dasharray="5,2" d="M438.08,-255.56C409.57,-246.6 372.5,-232.08 344.5,-211 295.85,-174.38 257.22,-110.02 244.22,-86.73"/>
<polygon fill="#9a32cd" stroke="#9a32cd" points="437.19,-258.95 447.78,-258.5 439.22,-252.25 437.19,-258.95"/>
<text text-anchor="middle" x="406" y="-203" font-family="Helvetica,sans-Serif" font-size="10.00"> OD_1003_extension</text>
<text text-anchor="middle" x="406" y="-192" font-family="Helvetica,sans-Serif" font-size="10.00">OD_1014_extension</text>
<text text-anchor="middle" x="406" y="-181" font-family="Helvetica,sans-Serif" font-size="10.00">OD_1015_extension</text>
<text text-anchor="middle" x="406" y="-170" font-family="Helvetica,sans-Serif" font-size="10.00">OD_statusBits_extension</text>
</g>
<!-- Node11 -->
<g id="node11" class="node">
<title>Node11</title>
<g id="a_node11"><a xlink:href="structOD__entry__t.html" target="_top" xlink:title="Object Dictionary entry for one OD object.">
<polygon fill="white" stroke="black" points="686,-179.5 686,-198.5 757,-198.5 757,-179.5 686,-179.5"/>
<text text-anchor="middle" x="721.5" y="-186.5" font-family="Helvetica,sans-Serif" font-size="10.00">OD_entry_t</text>
</a>
</g>
</g>
<!-- Node7&#45;&gt;Node11 -->
<g id="edge13" class="edge">
<title>Node7&#45;&gt;Node11</title>
<path fill="none" stroke="#9a32cd" stroke-dasharray="5,2" d="M527.35,-256C567.29,-245.92 626.47,-229.72 676.5,-211 686.03,-207.43 696.33,-202.69 704.67,-198.62"/>
<polygon fill="#9a32cd" stroke="#9a32cd" points="526.48,-252.61 517.63,-258.44 528.18,-259.4 526.48,-252.61"/>
<text text-anchor="middle" x="643.5" y="-232" font-family="Helvetica,sans-Serif" font-size="10.00"> extension</text>
</g>
<!-- Node8 -->
<g id="node8" class="node">
<title>Node8</title>
<g id="a_node8"><a xlink:href="structOD__IO__t.html" target="_top" xlink:title="Structure for input / output on the OD variable.">
<polygon fill="white" stroke="black" points="558.5,-67.5 558.5,-86.5 614.5,-86.5 614.5,-67.5 558.5,-67.5"/>
<text text-anchor="middle" x="586.5" y="-74.5" font-family="Helvetica,sans-Serif" font-size="10.00">OD_IO_t</text>
</a>
</g>
</g>
<!-- Node8&#45;&gt;Node1 -->
<g id="edge8" class="edge">
<title>Node8&#45;&gt;Node1</title>
<path fill="none" stroke="#9a32cd" stroke-dasharray="5,2" d="M563.79,-61.94C543,-49.07 512.88,-30.43 495.44,-19.63"/>
<polygon fill="#9a32cd" stroke="#9a32cd" points="561.99,-64.95 572.34,-67.23 565.68,-58.99 561.99,-64.95"/>
<text text-anchor="middle" x="556.5" y="-41" font-family="Helvetica,sans-Serif" font-size="10.00"> OD_IO</text>
</g>
<!-- Node9 -->
<g id="node9" class="node">
<title>Node9</title>
<g id="a_node9"><a xlink:href="structOD__stream__t.html" target="_top" xlink:title="IO stream structure, used for read/write access to OD variable, part of OD_IO_t.">
<polygon fill="white" stroke="black" points="587.5,-179.5 587.5,-198.5 667.5,-198.5 667.5,-179.5 587.5,-179.5"/>
<text text-anchor="middle" x="627.5" y="-186.5" font-family="Helvetica,sans-Serif" font-size="10.00">OD_stream_t</text>
</a>
</g>
</g>
<!-- Node9&#45;&gt;Node8 -->
<g id="edge9" class="edge">
<title>Node9&#45;&gt;Node8</title>
<path fill="none" stroke="#9a32cd" stroke-dasharray="5,2" d="M627.55,-169.4C626.89,-151.88 624,-125.35 613.5,-105 609.79,-97.81 603.49,-91.34 597.9,-86.54"/>
<polygon fill="#9a32cd" stroke="#9a32cd" points="624.05,-169.52 627.73,-179.46 631.05,-169.4 624.05,-169.52"/>
<text text-anchor="middle" x="644.5" y="-124.5" font-family="Helvetica,sans-Serif" font-size="10.00"> stream</text>
</g>
<!-- Node10 -->
<g id="node10" class="node">
<title>Node10</title>
<g id="a_node10"><a xlink:href="structOD__t.html" target="_top" xlink:title="Object Dictionary.">
<polygon fill="white" stroke="black" points="662,-67.5 662,-86.5 703,-86.5 703,-67.5 662,-67.5"/>
<text text-anchor="middle" x="682.5" y="-74.5" font-family="Helvetica,sans-Serif" font-size="10.00">OD_t</text>
</a>
</g>
</g>
<!-- Node10&#45;&gt;Node1 -->
<g id="edge11" class="edge">
<title>Node10&#45;&gt;Node1</title>
<path fill="none" stroke="#9a32cd" stroke-dasharray="5,2" d="M652.15,-64.35C631.29,-56.51 602.88,-46.15 577.5,-38 556.56,-31.28 532.77,-24.58 514.11,-19.54"/>
<polygon fill="#9a32cd" stroke="#9a32cd" points="651.14,-67.71 661.74,-67.98 653.62,-61.17 651.14,-67.71"/>
<text text-anchor="middle" x="618" y="-41" font-family="Helvetica,sans-Serif" font-size="10.00"> OD</text>
</g>
<!-- Node11&#45;&gt;Node10 -->
<g id="edge12" class="edge">
<title>Node11&#45;&gt;Node10</title>
<path fill="none" stroke="#9a32cd" stroke-dasharray="5,2" d="M715,-169.67C706.48,-145.62 691.86,-104.39 685.55,-86.59"/>
<polygon fill="#9a32cd" stroke="#9a32cd" points="711.8,-171.11 718.44,-179.37 718.4,-168.77 711.8,-171.11"/>
<text text-anchor="middle" x="716" y="-124.5" font-family="Helvetica,sans-Serif" font-size="10.00"> list</text>
</g>
</g>
</svg>
        <g id="navigator" transform="translate(0 0)" fill="#404254">
                <rect fill="#f2f5e9" fill-opacity="0.5" stroke="#606060" stroke-width=".5" x="0" y="0" width="60" height="60"/>
                <use id="zoomplus" xlink:href="#zoomPlus" x="17" y="9" onmousedown="handleZoom(evt,'in')"/>
                <use id="zoomminus" xlink:href="#zoomMin" x="42" y="9" onmousedown="handleZoom(evt,'out')"/>
                <use id="reset" xlink:href="#resetDef" x="30" y="36" onmousedown="handleReset()"/>
                <g id="arrowUp" xlink:href="#dirArrow" transform="translate(30 24)" onmousedown="handlePan(0,-1)">
                  <use xlink:href="#rim" fill="#404040">
                        <set attributeName="fill" to="#808080" begin="arrowUp.mouseover" end="arrowUp.mouseout"/>
                  </use>
                  <path fill="none" stroke="white" stroke-width="1.5" d="M0,-3.0v7 M-2.5,-0.5L0,-3.0L2.5,-0.5"/>
                </g>
                <g id="arrowRight" xlink:href="#dirArrow" transform="rotate(90) translate(36 -43)" onmousedown="handlePan(1,0)">
                  <use xlink:href="#rim" fill="#404040">
                        <set attributeName="fill" to="#808080" begin="arrowRight.mouseover" end="arrowRight.mouseout"/>
                  </use>
                  <path fill="none" stroke="white" stroke-width="1.5" d="M0,-3.0v7 M-2.5,-0.5L0,-3.0L2.5,-0.5"/>
                </g>
                <g id="arrowDown" xlink:href="#dirArrow" transform="rotate(180) translate(-30 -48)" onmousedown="handlePan(0,1)">
                  <use xlink:href="#rim" fill="#404040">
                        <set attributeName="fill" to="#808080" begin="arrowDown.mouseover" end="arrowDown.mouseout"/>
                  </use>
                  <path fill="none" stroke="white" stroke-width="1.5" d="M0,-3.0v7 M-2.5,-0.5L0,-3.0L2.5,-0.5"/>
                </g>
                <g id="arrowLeft" xlink:href="#dirArrow" transform="rotate(270) translate(-36 17)" onmousedown="handlePan(-1,0)">
                  <use xlink:href="#rim" fill="#404040">
                        <set attributeName="fill" to="#808080" begin="arrowLeft.mouseover" end="arrowLeft.mouseout"/>
                  </use>
                  <path fill="none" stroke="white" stroke-width="1.5" d="M0,-3.0v7 M-2.5,-0.5L0,-3.0L2.5,-0.5"/>
                </g>
        </g>
        <svg viewBox="0 0 15 15" width="100%" height="30px" preserveAspectRatio="xMaxYMin meet">
         <g id="arrow_out" transform="scale(0.3 0.3)">
          <a xlink:href="structCO__PDO__common__t__coll__graph_org.svg" target="_base">
           <rect id="button" ry="5" rx="5" y="6" x="6" height="38" width="38"
                fill="#f2f5e9" fill-opacity="0.5" stroke="#606060" stroke-width="1.0"/>
           <path id="arrow"
             d="M 11.500037,31.436501 C 11.940474,20.09759 22.043105,11.32322 32.158766,21.979434 L 37.068811,17.246167 C 37.068811,17.246167 37.088388,32 37.088388,32 L 22.160133,31.978069 C 22.160133,31.978069 26.997745,27.140456 26.997745,27.140456 C 18.528582,18.264221 13.291696,25.230495 11.500037,31.436501 z"
             style="fill:#404040;"/>
          </a>
         </g>
        </svg>
</svg>
