<?xml version="1.0" encoding="UTF-8" standalone="no"?>
<!DOCTYPE svg PUBLIC "-//W3C//DTD SVG 1.1//EN"
 "http://www.w3.org/Graphics/SVG/1.1/DTD/svg11.dtd">
<!-- Generated by graphviz version 2.43.0 (0)
 -->
<!-- Title: CO_nodeGuardingMaster_t Pages: 1 -->
<!--zoomable 258 -->

<svg id="main" version="1.1" xmlns="http://www.w3.org/2000/svg" xmlns:xlink="http://www.w3.org/1999/xlink" xml:space="preserve" onload="init(evt)">
<style type="text/css"><![CDATA[
.node, .edge {opacity: 0.7;}
.node.selected, .edge.selected {opacity: 1;}
.edge:hover path { stroke: red; }
.edge:hover polygon { stroke: red; fill: red; }
]]></style>

<defs>
  <circle id="rim" cx="0" cy="0" r="7"/>
  <circle id="rim2" cx="0" cy="0" r="3.5"/>
  <g id="zoomPlus">
    <use xlink:href="#rim" fill="#404040"><set attributeName="fill" to="#808080" begin="zoomplus.mouseover" end="zoomplus.mouseout"/></use>
    <path d="M-4,0h8M0,-4v8" fill="none" stroke="white" stroke-width="1.5" pointer-events="none"/>
  </g>
  <g id="zoomMin">
    <use xlink:href="#rim" fill="#404040"><set attributeName="fill" to="#808080" begin="zoomminus.mouseover" end="zoomminus.mouseout"/></use>
    <path d="M-4,0h8" fill="none" stroke="white" stroke-width="1.5" pointer-events="none"/>
  </g>
  <g id="arrowUp" transform="translate(30 24)">
    <use xlink:href="#rim"/>
    <path pointer-events="none" fill="none" stroke="white" stroke-width="1.5" d="M0,-3.0v7 M-2.5,-0.5L0,-3.0L2.5,-0.5"/>
  </g>
  <g id="arrowRight" transform="rotate(90) translate(36 -43)">
    <use xlink:href="#rim"/>
    <path pointer-events="none" fill="none" stroke="white" stroke-width="1.5" d="M0,-3.0v7 M-2.5,-0.5L0,-3.0L2.5,-0.5"/>
  </g>
  <g id="arrowDown" transform="rotate(180) translate(-30 -48)">
    <use xlink:href="#rim"/>
    <path pointer-events="none" fill="none" stroke="white" stroke-width="1.5" d="M0,-3.0v7 M-2.5,-0.5L0,-3.0L2.5,-0.5"/>
  </g>
  <g id="arrowLeft" transform="rotate(270) translate(-36 17)">
    <use xlink:href="#rim"/>
    <path pointer-events="none" fill="none" stroke="white" stroke-width="1.5" d="M0,-3.0v7 M-2.5,-0.5L0,-3.0L2.5,-0.5"/>
  </g>
  <g id="resetDef">
    <use xlink:href="#rim2" fill="#404040"><set attributeName="fill" to="#808080" begin="reset.mouseover" end="reset.mouseout"/></use>
  </g>
</defs>
<script type="application/ecmascript">
var viewWidth = 668;
var viewHeight = 258;
var sectionId = 'dynsection-0';
</script>
<script type="application/ecmascript" xlink:href="svg.min.js"/>
<svg id="graph" class="graph">
<g id="viewport">
<title>CO_nodeGuardingMaster_t</title>
<!-- Node1 -->
<g id="Node000001" class="node">
<title>Node1</title>
<g id="a_Node000001"><a xlink:title="Node Guarding master object.">
<polygon fill="#999999" stroke="#666666" points="486,-19 339,-19 339,0 486,0 486,-19"/>
<text text-anchor="middle" x="412.5" y="-7" font-family="Helvetica,sans-Serif" font-size="10.00">CO_nodeGuardingMaster_t</text>
</a>
</g>
</g>
<!-- Node2 -->
<g id="Node000002" class="node">
<title>Node2</title>
<g id="a_Node000002"><a xlink:href="structCO__EM__t.html" target="_top" xlink:title="Emergency object.">
<polygon fill="white" stroke="#666666" points="330.5,-85 270.5,-85 270.5,-66 330.5,-66 330.5,-85"/>
<text text-anchor="middle" x="300.5" y="-73" font-family="Helvetica,sans-Serif" font-size="10.00">CO_EM_t</text>
</a>
</g>
</g>
<!-- Node2&#45;&gt;Node1 -->
<g id="edge1_Node000001_Node000002" class="edge">
<title>Node2&#45;&gt;Node1</title>
<g id="a_edge1_Node000001_Node000002"><a xlink:title=" ">
<path fill="none" stroke="#9a32cd" stroke-dasharray="5,2" d="M324.37,-60.86C346.42,-48.26 378.52,-29.92 397.28,-19.2"/>
<polygon fill="#9a32cd" stroke="#9a32cd" points="322.55,-57.87 315.6,-65.87 326.02,-63.95 322.55,-57.87"/>
</a>
</g>
<text text-anchor="middle" x="373" y="-40" font-family="Helvetica,sans-Serif" font-size="10.00" fill="grey"> em</text>
</g>
<!-- Node3 -->
<g id="Node000003" class="node">
<title>Node3</title>
<g id="a_Node000003"><a xlink:href="structCO__CANmodule__t.html" target="_top" xlink:title="Complete CAN module object.">
<polygon fill="white" stroke="#666666" points="103,-184 0,-184 0,-165 103,-165 103,-184"/>
<text text-anchor="middle" x="51.5" y="-172" font-family="Helvetica,sans-Serif" font-size="10.00">CO_CANmodule_t</text>
</a>
</g>
</g>
<!-- Node3&#45;&gt;Node1 -->
<g id="edge8_Node000001_Node000003" class="edge">
<title>Node3&#45;&gt;Node1</title>
<g id="a_edge8_Node000001_Node000003"><a xlink:title=" ">
<path fill="none" stroke="#9a32cd" stroke-dasharray="5,2" d="M50.13,-154.67C50.05,-138.89 52.59,-116.77 65.5,-103 104.14,-61.78 262.01,-32.56 350.91,-19.01"/>
<polygon fill="#9a32cd" stroke="#9a32cd" points="46.64,-154.99 50.54,-164.84 53.63,-154.71 46.64,-154.99"/>
</a>
</g>
<text text-anchor="middle" x="164" y="-73" font-family="Helvetica,sans-Serif" font-size="10.00" fill="grey"> CANdevTx</text>
</g>
<!-- Node3&#45;&gt;Node2 -->
<g id="edge2_Node000002_Node000003" class="edge">
<title>Node3&#45;&gt;Node2</title>
<g id="a_edge2_Node000002_Node000003"><a xlink:title=" ">
<path fill="none" stroke="#9a32cd" stroke-dasharray="5,2" d="M60.73,-155.93C70.91,-137.23 87.22,-109.46 97.5,-103 125.63,-85.31 220.98,-79.33 270.34,-77.38"/>
<polygon fill="#9a32cd" stroke="#9a32cd" points="57.53,-154.48 55.9,-164.95 63.7,-157.79 57.53,-154.48"/>
</a>
</g>
<text text-anchor="middle" x="125" y="-122.5" font-family="Helvetica,sans-Serif" font-size="10.00" fill="grey"> CANdevTx</text>
</g>
<!-- Node4 -->
<g id="Node000004" class="node">
<title>Node4</title>
<g id="a_Node000004"><a xlink:href="structCO__CANrx__t.html" target="_top" xlink:title="Configuration object for CAN received message for specific CANopenNode Object.">
<polygon fill="white" stroke="#666666" points="89.5,-250 13.5,-250 13.5,-231 89.5,-231 89.5,-250"/>
<text text-anchor="middle" x="51.5" y="-238" font-family="Helvetica,sans-Serif" font-size="10.00">CO_CANrx_t</text>
</a>
</g>
</g>
<!-- Node4&#45;&gt;Node3 -->
<g id="edge3_Node000003_Node000004" class="edge">
<title>Node4&#45;&gt;Node3</title>
<g id="a_edge3_Node000003_Node000004"><a xlink:title=" ">
<path fill="none" stroke="#9a32cd" stroke-dasharray="5,2" d="M51.5,-220.58C51.5,-208.63 51.5,-193.72 51.5,-184.41"/>
<polygon fill="#9a32cd" stroke="#9a32cd" points="48,-220.87 51.5,-230.87 55,-220.87 48,-220.87"/>
</a>
</g>
<text text-anchor="middle" x="71.5" y="-205" font-family="Helvetica,sans-Serif" font-size="10.00" fill="grey"> rxArray</text>
</g>
<!-- Node5 -->
<g id="Node000005" class="node">
<title>Node5</title>
<g id="a_Node000005"><a xlink:href="structCO__CANtx__t.html" target="_top" xlink:title="Configuration object for CAN transmit message for specific CANopenNode Object.">
<polygon fill="white" stroke="#666666" points="313.5,-250 237.5,-250 237.5,-231 313.5,-231 313.5,-250"/>
<text text-anchor="middle" x="275.5" y="-238" font-family="Helvetica,sans-Serif" font-size="10.00">CO_CANtx_t</text>
</a>
</g>
</g>
<!-- Node5&#45;&gt;Node1 -->
<g id="edge9_Node000001_Node000005" class="edge">
<title>Node5&#45;&gt;Node1</title>
<g id="a_edge9_Node000001_Node000005"><a xlink:title=" ">
<path fill="none" stroke="#9a32cd" stroke-dasharray="5,2" d="M324.18,-237.55C362.44,-233.14 413.48,-220.28 439.5,-184 477.35,-131.24 433.52,-46.17 417.73,-19.07"/>
<polygon fill="#9a32cd" stroke="#9a32cd" points="323.36,-234.11 313.76,-238.58 324.05,-241.08 323.36,-234.11"/>
</a>
</g>
<text text-anchor="middle" x="482" y="-122.5" font-family="Helvetica,sans-Serif" font-size="10.00" fill="grey"> CANtxBuff</text>
</g>
<!-- Node5&#45;&gt;Node2 -->
<g id="edge6_Node000002_Node000005" class="edge">
<title>Node5&#45;&gt;Node2</title>
<g id="a_edge6_Node000002_Node000005"><a xlink:title=" ">
<path fill="none" stroke="#9a32cd" stroke-dasharray="5,2" d="M277.47,-220.67C279.12,-205.58 281.65,-183.89 284.5,-165 288.94,-135.51 295.66,-100.76 298.79,-85.02"/>
<polygon fill="#9a32cd" stroke="#9a32cd" points="273.97,-220.45 276.39,-230.76 280.93,-221.19 273.97,-220.45"/>
</a>
</g>
<text text-anchor="middle" x="312" y="-172" font-family="Helvetica,sans-Serif" font-size="10.00" fill="grey"> CANtxBuff</text>
</g>
<!-- Node5&#45;&gt;Node3 -->
<g id="edge4_Node000003_Node000005" class="edge">
<title>Node5&#45;&gt;Node3</title>
<g id="a_edge4_Node000003_Node000005"><a xlink:title=" ">
<path fill="none" stroke="#9a32cd" stroke-dasharray="5,2" d="M235.47,-228.06C191.33,-215.45 121.3,-195.44 81.59,-184.1"/>
<polygon fill="#9a32cd" stroke="#9a32cd" points="234.71,-231.49 245.29,-230.87 236.64,-224.76 234.71,-231.49"/>
</a>
</g>
<text text-anchor="middle" x="197.5" y="-205" font-family="Helvetica,sans-Serif" font-size="10.00" fill="grey"> txArray</text>
</g>
<!-- Node6 -->
<g id="Node000006" class="node">
<title>Node6</title>
<g id="a_Node000006"><a xlink:href="structCO__EM__fifo__t.html" target="_top" xlink:title="Fifo buffer for emergency producer and error history.">
<polygon fill="white" stroke="#666666" points="430.5,-184 348.5,-184 348.5,-165 430.5,-165 430.5,-184"/>
<text text-anchor="middle" x="389.5" y="-172" font-family="Helvetica,sans-Serif" font-size="10.00">CO_EM_fifo_t</text>
</a>
</g>
</g>
<!-- Node6&#45;&gt;Node2 -->
<g id="edge5_Node000002_Node000006" class="edge">
<title>Node6&#45;&gt;Node2</title>
<g id="a_edge5_Node000002_Node000006"><a xlink:title=" ">
<path fill="none" stroke="#9a32cd" stroke-dasharray="5,2" d="M374.83,-157.51C355.85,-136.83 323.47,-101.53 308.51,-85.23"/>
<polygon fill="#9a32cd" stroke="#9a32cd" points="372.26,-159.89 381.6,-164.89 377.42,-155.16 372.26,-159.89"/>
</a>
</g>
<text text-anchor="middle" x="373.5" y="-122.5" font-family="Helvetica,sans-Serif" font-size="10.00" fill="grey"> fifo</text>
</g>
<!-- Node7 -->
<g id="Node000007" class="node">
<title>Node7</title>
<g id="a_Node000007"><a xlink:href="structOD__extension__t.html" target="_top" xlink:title="Extension of OD object, which can optionally be specified by application in initialization phase with...">
<polygon fill="white" stroke="#666666" points="215.5,-184 121.5,-184 121.5,-165 215.5,-165 215.5,-184"/>
<text text-anchor="middle" x="168.5" y="-172" font-family="Helvetica,sans-Serif" font-size="10.00">OD_extension_t</text>
</a>
</g>
</g>
<!-- Node7&#45;&gt;Node2 -->
<g id="edge7_Node000002_Node000007" class="edge">
<title>Node7&#45;&gt;Node2</title>
<g id="a_edge7_Node000002_Node000007"><a xlink:title=" ">
<path fill="none" stroke="#9a32cd" stroke-dasharray="5,2" d="M160.89,-155.4C155.66,-139.76 151.57,-117.46 163.5,-103 176.76,-86.93 234.05,-80.49 270.21,-78"/>
<polygon fill="#9a32cd" stroke="#9a32cd" points="157.71,-156.87 164.52,-164.99 164.26,-154.39 157.71,-156.87"/>
</a>
</g>
<text text-anchor="middle" x="225" y="-139" font-family="Helvetica,sans-Serif" font-size="10.00" fill="grey"> OD_1003_extension</text>
<text text-anchor="middle" x="225" y="-128" font-family="Helvetica,sans-Serif" font-size="10.00" fill="grey">OD_1014_extension</text>
<text text-anchor="middle" x="225" y="-117" font-family="Helvetica,sans-Serif" font-size="10.00" fill="grey">OD_1015_extension</text>
<text text-anchor="middle" x="225" y="-106" font-family="Helvetica,sans-Serif" font-size="10.00" fill="grey">OD_statusBits_extension</text>
</g>
<!-- Node8 -->
<g id="Node000008" class="node">
<title>Node8</title>
<g id="a_Node000008"><a xlink:href="structCO__nodeGuardingMasterNode__t.html" target="_top" xlink:title="Node Guarding master &#45; monitored node.">
<polygon fill="white" stroke="#666666" points="660,-85 487,-85 487,-66 660,-66 660,-85"/>
<text text-anchor="middle" x="573.5" y="-73" font-family="Helvetica,sans-Serif" font-size="10.00">CO_nodeGuardingMasterNode_t</text>
</a>
</g>
</g>
<!-- Node8&#45;&gt;Node1 -->
<g id="edge10_Node000001_Node000008" class="edge">
<title>Node8&#45;&gt;Node1</title>
<g id="a_edge10_Node000001_Node000008"><a xlink:title=" ">
<path fill="none" stroke="#9a32cd" stroke-dasharray="5,2" d="M542.08,-62.01C510.26,-49.36 461.89,-30.13 434.13,-19.1"/>
<polygon fill="#9a32cd" stroke="#9a32cd" points="541.2,-65.43 551.79,-65.87 543.79,-58.92 541.2,-65.43"/>
</a>
</g>
<text text-anchor="middle" x="519" y="-40" font-family="Helvetica,sans-Serif" font-size="10.00" fill="grey"> nodes</text>
</g>
</g>
</svg>

<g id="navigator" transform="translate(0 0)" fill="#404254">
  <rect fill="#f2f5e9" fill-opacity="0.5" stroke="#606060" stroke-width=".5" x="0" y="0" width="60" height="60"/>
  <use id="zoomplus" xlink:href="#zoomPlus" x="17" y="9" onmousedown="handleZoom(evt,'in')"/>
  <use id="zoomminus" xlink:href="#zoomMin" x="42" y="9" onmousedown="handleZoom(evt,'out')"/>
  <use id="reset" xlink:href="#resetDef" x="30" y="36" onmousedown="handleReset()"/>
   <use id="arrowup" xlink:href="#arrowUp" x="0" y="0" onmousedown="handlePan(0,-1)"/>
  <use id="arrowright" xlink:href="#arrowRight" x="0" y="0" onmousedown="handlePan(1,0)"/>
  <use id="arrowdown" xlink:href="#arrowDown" x="0" y="0" onmousedown="handlePan(0,1)"/>
  <use id="arrowleft" xlink:href="#arrowLeft" x="0" y="0" onmousedown="handlePan(-1,0)"/>
</g>
<svg viewBox="0 0 15 15" width="100%" height="30px" preserveAspectRatio="xMaxYMin meet">
 <g id="arrow_out" transform="scale(0.3 0.3)">
  <a xlink:href="structCO__nodeGuardingMaster__t__coll__graph_org.svg" target="_base">
   <rect id="button" ry="5" rx="5" y="6" x="6" height="38" width="38"
        fill="#f2f5e9" fill-opacity="0.5" stroke="#606060" stroke-width="1.0"/>
   <path id="arrow"
     d="M 11.500037,31.436501 C 11.940474,20.09759 22.043105,11.32322 32.158766,21.979434 L 37.068811,17.246167 C 37.068811,17.246167 37.088388,32 37.088388,32 L 22.160133,31.978069 C 22.160133,31.978069 26.997745,27.140456 26.997745,27.140456 C 18.528582,18.264221 13.291696,25.230495 11.500037,31.436501 z"
     style="fill:#404040;"/>
  </a>
 </g>
</svg>

<style type='text/css'>
<![CDATA[
[data-mouse-over-selected='false'] { opacity: 0.7; }
[data-mouse-over-selected='true']  { opacity: 1.0; }
]]>
</style>
<script type="application/ecmascript"><![CDATA[
document.addEventListener('DOMContentLoaded', (event) => {
  highlightEdges();
  highlightAdjacentNodes();
});
]]></script>
</svg>
