<?xml version="1.0" encoding="UTF-8" standalone="no"?>
<!DOCTYPE svg PUBLIC "-//W3C//DTD SVG 1.1//EN"
 "http://www.w3.org/Graphics/SVG/1.1/DTD/svg11.dtd">
<!-- Generated by graphviz version 2.43.0 (0)
 -->
<!-- Title: CO_LSSslave_t Pages: 1 -->
<svg width="301pt" height="181pt"
 viewBox="0.00 0.00 301.00 181.00" xmlns="http://www.w3.org/2000/svg" xmlns:xlink="http://www.w3.org/1999/xlink">
<g id="graph0" class="graph" transform="scale(1 1) rotate(0) translate(4 177)">
<title>CO_LSSslave_t</title>
<!-- Node1 -->
<g id="Node000001" class="node">
<title>Node1</title>
<g id="a_Node000001"><a xlink:title="LSS slave object.">
<polygon fill="#999999" stroke="#666666" points="220.5,-19 131.5,-19 131.5,0 220.5,0 220.5,-19"/>
<text text-anchor="middle" x="176" y="-7" font-family="Helvetica,sans-Serif" font-size="10.00">CO_LSSslave_t</text>
</a>
</g>
</g>
<!-- Node2 -->
<g id="Node000002" class="node">
<title>Node2</title>
<g id="a_Node000002"><a xlink:href="unionCO__LSS__address__t.html" target="_top" xlink:title="The LSS address is a 128 bit number, uniquely identifying each node.">
<polygon fill="white" stroke="#666666" points="106,-107 0,-107 0,-88 106,-88 106,-107"/>
<text text-anchor="middle" x="53" y="-95" font-family="Helvetica,sans-Serif" font-size="10.00">CO_LSS_address_t</text>
</a>
</g>
</g>
<!-- Node2&#45;&gt;Node1 -->
<g id="edge1_Node000001_Node000002" class="edge">
<title>Node2&#45;&gt;Node1</title>
<g id="a_edge1_Node000001_Node000002"><a xlink:title=" ">
<path fill="none" stroke="#9a32cd" stroke-dasharray="5,2" d="M67.06,-80.11C78.85,-67.13 96.66,-49.21 115,-37 126.05,-29.64 139.49,-23.55 150.93,-19.07"/>
<polygon fill="#9a32cd" stroke="#9a32cd" points="64.25,-78.01 60.24,-87.82 69.49,-82.65 64.25,-78.01"/>
</a>
</g>
<text text-anchor="middle" x="143.5" y="-62" font-family="Helvetica,sans-Serif" font-size="10.00" fill="grey"> lssAddress</text>
<text text-anchor="middle" x="143.5" y="-51" font-family="Helvetica,sans-Serif" font-size="10.00" fill="grey">lssFastscan</text>
<text text-anchor="middle" x="143.5" y="-40" font-family="Helvetica,sans-Serif" font-size="10.00" fill="grey">lssSelect</text>
</g>
<!-- Node3 -->
<g id="Node000003" class="node">
<title>Node3</title>
<g id="a_Node000003"><a xlink:href="structCO__CANmodule__t.html" target="_top" xlink:title="Complete CAN module object.">
<polygon fill="white" stroke="#666666" points="227.5,-107 124.5,-107 124.5,-88 227.5,-88 227.5,-107"/>
<text text-anchor="middle" x="176" y="-95" font-family="Helvetica,sans-Serif" font-size="10.00">CO_CANmodule_t</text>
</a>
</g>
</g>
<!-- Node3&#45;&gt;Node1 -->
<g id="edge2_Node000001_Node000003" class="edge">
<title>Node3&#45;&gt;Node1</title>
<g id="a_edge2_Node000001_Node000003"><a xlink:title=" ">
<path fill="none" stroke="#9a32cd" stroke-dasharray="5,2" d="M176,-77.91C176,-59.67 176,-32.65 176,-19.03"/>
<polygon fill="#9a32cd" stroke="#9a32cd" points="172.5,-77.94 176,-87.94 179.5,-77.94 172.5,-77.94"/>
</a>
</g>
<text text-anchor="middle" x="203.5" y="-51" font-family="Helvetica,sans-Serif" font-size="10.00" fill="grey"> CANdevTx</text>
</g>
<!-- Node4 -->
<g id="Node000004" class="node">
<title>Node4</title>
<g id="a_Node000004"><a xlink:href="structCO__CANrx__t.html" target="_top" xlink:title="Configuration object for CAN received message for specific CANopenNode Object.">
<polygon fill="white" stroke="#666666" points="184,-173 108,-173 108,-154 184,-154 184,-173"/>
<text text-anchor="middle" x="146" y="-161" font-family="Helvetica,sans-Serif" font-size="10.00">CO_CANrx_t</text>
</a>
</g>
</g>
<!-- Node4&#45;&gt;Node3 -->
<g id="edge3_Node000003_Node000004" class="edge">
<title>Node4&#45;&gt;Node3</title>
<g id="a_edge3_Node000003_Node000004"><a xlink:title=" ">
<path fill="none" stroke="#9a32cd" stroke-dasharray="5,2" d="M143.64,-143.58C143.61,-137.42 144.4,-130.7 147,-125 150.29,-117.8 156.55,-111.69 162.42,-107.15"/>
<polygon fill="#9a32cd" stroke="#9a32cd" points="140.16,-144 144.36,-153.73 147.14,-143.5 140.16,-144"/>
</a>
</g>
<text text-anchor="middle" x="167" y="-128" font-family="Helvetica,sans-Serif" font-size="10.00" fill="grey"> rxArray</text>
</g>
<!-- Node5 -->
<g id="Node000005" class="node">
<title>Node5</title>
<g id="a_Node000005"><a xlink:href="structCO__CANtx__t.html" target="_top" xlink:title="Configuration object for CAN transmit message for specific CANopenNode Object.">
<polygon fill="white" stroke="#666666" points="290,-173 214,-173 214,-154 290,-154 290,-173"/>
<text text-anchor="middle" x="252" y="-161" font-family="Helvetica,sans-Serif" font-size="10.00">CO_CANtx_t</text>
</a>
</g>
</g>
<!-- Node5&#45;&gt;Node1 -->
<g id="edge5_Node000001_Node000005" class="edge">
<title>Node5&#45;&gt;Node1</title>
<g id="a_edge5_Node000001_Node000005"><a xlink:title=" ">
<path fill="none" stroke="#9a32cd" stroke-dasharray="5,2" d="M254.87,-143.52C257.81,-116.85 259.03,-68.05 235,-37 228.61,-28.74 219.07,-22.99 209.52,-19.01"/>
<polygon fill="#9a32cd" stroke="#9a32cd" points="251.36,-143.42 253.53,-153.79 258.3,-144.32 251.36,-143.42"/>
</a>
</g>
<text text-anchor="middle" x="275" y="-95" font-family="Helvetica,sans-Serif" font-size="10.00" fill="grey"> TXbuff</text>
</g>
<!-- Node5&#45;&gt;Node3 -->
<g id="edge4_Node000003_Node000005" class="edge">
<title>Node5&#45;&gt;Node3</title>
<g id="a_edge4_Node000003_Node000005"><a xlink:title=" ">
<path fill="none" stroke="#9a32cd" stroke-dasharray="5,2" d="M227.24,-148.45C221.37,-144.69 215.29,-140.44 210,-136 199.5,-127.18 189.17,-115.19 182.71,-107.16"/>
<polygon fill="#9a32cd" stroke="#9a32cd" points="225.79,-151.66 236.15,-153.88 229.43,-145.68 225.79,-151.66"/>
</a>
</g>
<text text-anchor="middle" x="230" y="-128" font-family="Helvetica,sans-Serif" font-size="10.00" fill="grey"> txArray</text>
</g>
</g>
</svg>
