<?xml version="1.0" encoding="UTF-8" standalone="no"?>
<!DOCTYPE svg PUBLIC "-//W3C//DTD SVG 1.1//EN"
 "http://www.w3.org/Graphics/SVG/1.1/DTD/svg11.dtd">
<!-- Generated by graphviz version 2.43.0 (0)
 -->
<!-- Title: CO_GTWA_t Pages: 1 -->
<!--zoomable 630 -->

<svg id="main" version="1.1" xmlns="http://www.w3.org/2000/svg" xmlns:xlink="http://www.w3.org/1999/xlink" xml:space="preserve" onload="init(evt)">
<style type="text/css"><![CDATA[
.node, .edge {opacity: 0.7;}
.node.selected, .edge.selected {opacity: 1;}
.edge:hover path { stroke: red; }
.edge:hover polygon { stroke: red; fill: red; }
]]></style>

<defs>
  <circle id="rim" cx="0" cy="0" r="7"/>
  <circle id="rim2" cx="0" cy="0" r="3.5"/>
  <g id="zoomPlus">
    <use xlink:href="#rim" fill="#404040"><set attributeName="fill" to="#808080" begin="zoomplus.mouseover" end="zoomplus.mouseout"/></use>
    <path d="M-4,0h8M0,-4v8" fill="none" stroke="white" stroke-width="1.5" pointer-events="none"/>
  </g>
  <g id="zoomMin">
    <use xlink:href="#rim" fill="#404040"><set attributeName="fill" to="#808080" begin="zoomminus.mouseover" end="zoomminus.mouseout"/></use>
    <path d="M-4,0h8" fill="none" stroke="white" stroke-width="1.5" pointer-events="none"/>
  </g>
  <g id="arrowUp" transform="translate(30 24)">
    <use xlink:href="#rim"/>
    <path pointer-events="none" fill="none" stroke="white" stroke-width="1.5" d="M0,-3.0v7 M-2.5,-0.5L0,-3.0L2.5,-0.5"/>
  </g>
  <g id="arrowRight" transform="rotate(90) translate(36 -43)">
    <use xlink:href="#rim"/>
    <path pointer-events="none" fill="none" stroke="white" stroke-width="1.5" d="M0,-3.0v7 M-2.5,-0.5L0,-3.0L2.5,-0.5"/>
  </g>
  <g id="arrowDown" transform="rotate(180) translate(-30 -48)">
    <use xlink:href="#rim"/>
    <path pointer-events="none" fill="none" stroke="white" stroke-width="1.5" d="M0,-3.0v7 M-2.5,-0.5L0,-3.0L2.5,-0.5"/>
  </g>
  <g id="arrowLeft" transform="rotate(270) translate(-36 17)">
    <use xlink:href="#rim"/>
    <path pointer-events="none" fill="none" stroke="white" stroke-width="1.5" d="M0,-3.0v7 M-2.5,-0.5L0,-3.0L2.5,-0.5"/>
  </g>
  <g id="resetDef">
    <use xlink:href="#rim2" fill="#404040"><set attributeName="fill" to="#808080" begin="reset.mouseover" end="reset.mouseout"/></use>
  </g>
</defs>
<script type="application/ecmascript">
var viewWidth = 943;
var viewHeight = 630;
var sectionId = 'dynsection-0';
</script>
<script type="application/ecmascript" xlink:href="svg.min.js"/>
<svg id="graph" class="graph">
<g id="viewport">
<title>CO_GTWA_t</title>
<!-- Node1 -->
<g id="Node000001" class="node">
<title>Node1</title>
<g id="a_Node000001"><a xlink:title="CANopen Gateway&#45;ascii object.">
<polygon fill="#999999" stroke="#666666" points="935,-149 860,-149 860,-130 935,-130 935,-149"/>
<text text-anchor="middle" x="897.5" y="-137" font-family="Helvetica,sans-Serif" font-size="10.00">CO_GTWA_t</text>
</a>
</g>
</g>
<!-- Node2 -->
<g id="Node000002" class="node">
<title>Node2</title>
<g id="a_Node000002"><a xlink:href="structCO__fifo__t.html" target="_top" xlink:title="Fifo object.">
<polygon fill="white" stroke="#666666" points="526,-622 464,-622 464,-603 526,-603 526,-622"/>
<text text-anchor="middle" x="495" y="-610" font-family="Helvetica,sans-Serif" font-size="10.00">CO_fifo_t</text>
</a>
</g>
</g>
<!-- Node2&#45;&gt;Node1 -->
<g id="edge1_Node000001_Node000002" class="edge">
<title>Node2&#45;&gt;Node1</title>
<g id="a_edge1_Node000001_Node000002"><a xlink:title=" ">
<path fill="none" stroke="#9a32cd" stroke-dasharray="5,2" d="M536.41,-608.08C594.44,-599.65 701.26,-576.04 764,-512.5 873.13,-401.99 892.84,-195.9 895.96,-149.11"/>
<polygon fill="#9a32cd" stroke="#9a32cd" points="535.6,-604.66 526.17,-609.49 536.55,-611.6 535.6,-604.66"/>
</a>
</g>
<text text-anchor="middle" x="692.5" y="-602.5" font-family="Helvetica,sans-Serif" font-size="10.00" fill="grey"> commFifo</text>
<text text-anchor="middle" x="692.5" y="-591.5" font-family="Helvetica,sans-Serif" font-size="10.00" fill="grey">logFifo</text>
</g>
<!-- Node3 -->
<g id="Node000003" class="node">
<title>Node3</title>
<g id="a_Node000003"><a xlink:href="structCO__SDOclient__t.html" target="_top" xlink:title="SDO client object.">
<polygon fill="white" stroke="#666666" points="739,-503 646,-503 646,-484 739,-484 739,-503"/>
<text text-anchor="middle" x="692.5" y="-491" font-family="Helvetica,sans-Serif" font-size="10.00">CO_SDOclient_t</text>
</a>
</g>
</g>
<!-- Node2&#45;&gt;Node3 -->
<g id="edge13_Node000003_Node000002" class="edge">
<title>Node2&#45;&gt;Node3</title>
<g id="a_edge13_Node000003_Node000002"><a xlink:title=" ">
<path fill="none" stroke="#9a32cd" stroke-dasharray="5,2" d="M525.37,-598.62C532.78,-595.05 540.7,-591.18 548,-587.5 572.68,-575.07 579.58,-573.16 603,-558.5 631.6,-540.59 662.96,-516.38 679.59,-503.13"/>
<polygon fill="#9a32cd" stroke="#9a32cd" points="523.84,-595.46 516.34,-602.94 526.87,-601.78 523.84,-595.46"/>
</a>
</g>
<text text-anchor="middle" x="584.5" y="-581.5" font-family="Helvetica,sans-Serif" font-size="10.00" fill="grey"> bufFifo</text>
</g>
<!-- Node3&#45;&gt;Node1 -->
<g id="edge2_Node000001_Node000003" class="edge">
<title>Node3&#45;&gt;Node1</title>
<g id="a_edge2_Node000001_Node000003"><a xlink:title=" ">
<path fill="none" stroke="#9a32cd" stroke-dasharray="5,2" d="M704.14,-474.94C741.15,-410.4 863.49,-197.07 890.98,-149.12"/>
<polygon fill="#9a32cd" stroke="#9a32cd" points="701.08,-473.25 699.14,-483.66 707.15,-476.73 701.08,-473.25"/>
</a>
</g>
<text text-anchor="middle" x="812" y="-340.5" font-family="Helvetica,sans-Serif" font-size="10.00" fill="grey"> SDO_C</text>
</g>
<!-- Node4 -->
<g id="Node000004" class="node">
<title>Node4</title>
<g id="a_Node000004"><a xlink:href="structOD__t.html" target="_top" xlink:title="Object Dictionary.">
<polygon fill="white" stroke="#666666" points="515.5,-578 474.5,-578 474.5,-559 515.5,-559 515.5,-578"/>
<text text-anchor="middle" x="495" y="-566" font-family="Helvetica,sans-Serif" font-size="10.00">OD_t</text>
</a>
</g>
</g>
<!-- Node4&#45;&gt;Node3 -->
<g id="edge3_Node000003_Node000004" class="edge">
<title>Node4&#45;&gt;Node3</title>
<g id="a_edge3_Node000003_Node000004"><a xlink:title=" ">
<path fill="none" stroke="#9a32cd" stroke-dasharray="5,2" d="M525.47,-558.95C547.07,-551.79 577.05,-541.54 603,-531.5 626.24,-522.51 652.4,-511.11 670.22,-503.15"/>
<polygon fill="#9a32cd" stroke="#9a32cd" points="524.28,-555.66 515.88,-562.11 526.47,-562.31 524.28,-555.66"/>
</a>
</g>
<text text-anchor="middle" x="584.5" y="-546.5" font-family="Helvetica,sans-Serif" font-size="10.00" fill="grey"> OD</text>
</g>
<!-- Node5 -->
<g id="Node000005" class="node">
<title>Node5</title>
<g id="a_Node000005"><a xlink:href="structOD__entry__t.html" target="_top" xlink:title="Object Dictionary entry for one OD object.">
<polygon fill="white" stroke="#666666" points="279,-578 208,-578 208,-559 279,-559 279,-578"/>
<text text-anchor="middle" x="243.5" y="-566" font-family="Helvetica,sans-Serif" font-size="10.00">OD_entry_t</text>
</a>
</g>
</g>
<!-- Node5&#45;&gt;Node4 -->
<g id="edge4_Node000004_Node000005" class="edge">
<title>Node5&#45;&gt;Node4</title>
<g id="a_edge4_Node000004_Node000005"><a xlink:title=" ">
<path fill="none" stroke="#9a32cd" stroke-dasharray="5,2" d="M289.34,-568.5C344.23,-568.5 434.77,-568.5 474.4,-568.5"/>
<polygon fill="#9a32cd" stroke="#9a32cd" points="289.19,-565 279.19,-568.5 289.19,-572 289.19,-565"/>
</a>
</g>
<text text-anchor="middle" x="373.5" y="-571.5" font-family="Helvetica,sans-Serif" font-size="10.00" fill="grey"> list</text>
</g>
<!-- Node6 -->
<g id="Node000006" class="node">
<title>Node6</title>
<g id="a_Node000006"><a xlink:href="structOD__extension__t.html" target="_top" xlink:title="Extension of OD object, which can optionally be specified by application in initialization phase with...">
<polygon fill="white" stroke="#666666" points="94,-484 0,-484 0,-465 94,-465 94,-484"/>
<text text-anchor="middle" x="47" y="-472" font-family="Helvetica,sans-Serif" font-size="10.00">OD_extension_t</text>
</a>
</g>
</g>
<!-- Node6&#45;&gt;Node3 -->
<g id="edge12_Node000003_Node000006" class="edge">
<title>Node6&#45;&gt;Node3</title>
<g id="a_edge12_Node000003_Node000006"><a xlink:title=" ">
<path fill="none" stroke="#9a32cd" stroke-dasharray="5,2" d="M104.17,-476.16C229.6,-479.86 530.43,-488.74 645.59,-492.14"/>
<polygon fill="#9a32cd" stroke="#9a32cd" points="104.12,-472.66 94.02,-475.86 103.91,-479.65 104.12,-472.66"/>
</a>
</g>
<text text-anchor="middle" x="373.5" y="-488.5" font-family="Helvetica,sans-Serif" font-size="10.00" fill="grey"> OD_1280_extension</text>
</g>
<!-- Node6&#45;&gt;Node5 -->
<g id="edge5_Node000005_Node000006" class="edge">
<title>Node6&#45;&gt;Node5</title>
<g id="a_edge5_Node000005_Node000006"><a xlink:title=" ">
<path fill="none" stroke="#9a32cd" stroke-dasharray="5,2" d="M70.71,-489.51C96.73,-506.19 141.06,-533.07 182,-550.5 190.17,-553.98 199.22,-557.06 207.79,-559.64"/>
<polygon fill="#9a32cd" stroke="#9a32cd" points="72.61,-486.57 62.31,-484.07 68.8,-492.44 72.61,-486.57"/>
</a>
</g>
<text text-anchor="middle" x="138" y="-544.5" font-family="Helvetica,sans-Serif" font-size="10.00" fill="grey"> extension</text>
</g>
<!-- Node12 -->
<g id="Node000012" class="node">
<title>Node12</title>
<g id="a_Node000012"><a xlink:href="structCO__NMT__t.html" target="_top" xlink:title="NMT consumer and Heartbeat producer object.">
<polygon fill="white" stroke="#666666" points="726.5,-287 658.5,-287 658.5,-268 726.5,-268 726.5,-287"/>
<text text-anchor="middle" x="692.5" y="-275" font-family="Helvetica,sans-Serif" font-size="10.00">CO_NMT_t</text>
</a>
</g>
</g>
<!-- Node6&#45;&gt;Node12 -->
<g id="edge15_Node000012_Node000006" class="edge">
<title>Node6&#45;&gt;Node12</title>
<g id="a_edge15_Node000012_Node000006"><a xlink:title=" ">
<path fill="none" stroke="#9a32cd" stroke-dasharray="5,2" d="M104.28,-464.4C178.34,-450.54 312.2,-423.56 424,-390.5 480.37,-373.83 493.32,-366.07 548,-344.5 572.65,-334.78 578.9,-332.51 603,-321.5 627.5,-310.3 655.24,-296.29 673.02,-287.13"/>
<polygon fill="#9a32cd" stroke="#9a32cd" points="103.43,-460.99 94.24,-466.26 104.71,-467.88 103.43,-460.99"/>
</a>
</g>
<text text-anchor="middle" x="373.5" y="-419.5" font-family="Helvetica,sans-Serif" font-size="10.00" fill="grey"> OD_1017_extension</text>
</g>
<!-- Node13 -->
<g id="Node000013" class="node">
<title>Node13</title>
<g id="a_Node000013"><a xlink:href="structCO__EM__t.html" target="_top" xlink:title="Emergency object.">
<polygon fill="white" stroke="#666666" points="525,-287 465,-287 465,-268 525,-268 525,-287"/>
<text text-anchor="middle" x="495" y="-275" font-family="Helvetica,sans-Serif" font-size="10.00">CO_EM_t</text>
</a>
</g>
</g>
<!-- Node6&#45;&gt;Node13 -->
<g id="edge20_Node000013_Node000006" class="edge">
<title>Node6&#45;&gt;Node13</title>
<g id="a_edge20_Node000013_Node000006"><a xlink:title=" ">
<path fill="none" stroke="#9a32cd" stroke-dasharray="5,2" d="M71.37,-459.59C97.65,-443.17 141.91,-416.59 182,-397.5 283.13,-349.35 409.11,-305.6 464.99,-286.98"/>
<polygon fill="#9a32cd" stroke="#9a32cd" points="69.46,-456.65 62.86,-464.94 73.19,-462.58 69.46,-456.65"/>
</a>
</g>
<text text-anchor="middle" x="243.5" y="-433.5" font-family="Helvetica,sans-Serif" font-size="10.00" fill="grey"> OD_1003_extension</text>
<text text-anchor="middle" x="243.5" y="-422.5" font-family="Helvetica,sans-Serif" font-size="10.00" fill="grey">OD_1014_extension</text>
<text text-anchor="middle" x="243.5" y="-411.5" font-family="Helvetica,sans-Serif" font-size="10.00" fill="grey">OD_1015_extension</text>
<text text-anchor="middle" x="243.5" y="-400.5" font-family="Helvetica,sans-Serif" font-size="10.00" fill="grey">OD_statusBits_extension</text>
</g>
<!-- Node7 -->
<g id="Node000007" class="node">
<title>Node7</title>
<g id="a_Node000007"><a xlink:href="structOD__IO__t.html" target="_top" xlink:title="Structure for input / output on the OD variable.">
<polygon fill="white" stroke="#666666" points="523,-541 467,-541 467,-522 523,-522 523,-541"/>
<text text-anchor="middle" x="495" y="-529" font-family="Helvetica,sans-Serif" font-size="10.00">OD_IO_t</text>
</a>
</g>
</g>
<!-- Node7&#45;&gt;Node3 -->
<g id="edge6_Node000003_Node000007" class="edge">
<title>Node7&#45;&gt;Node3</title>
<g id="a_edge6_Node000003_Node000007"><a xlink:title=" ">
<path fill="none" stroke="#9a32cd" stroke-dasharray="5,2" d="M533.04,-524.3C565.05,-518.08 611.45,-509.06 645.77,-502.39"/>
<polygon fill="#9a32cd" stroke="#9a32cd" points="532.33,-520.87 523.18,-526.22 533.67,-527.74 532.33,-520.87"/>
</a>
</g>
<text text-anchor="middle" x="584.5" y="-519.5" font-family="Helvetica,sans-Serif" font-size="10.00" fill="grey"> OD_IO</text>
</g>
<!-- Node8 -->
<g id="Node000008" class="node">
<title>Node8</title>
<g id="a_Node000008"><a xlink:href="structOD__stream__t.html" target="_top" xlink:title="IO stream structure, used for read/write access to OD variable, part of OD_IO_t.">
<polygon fill="white" stroke="#666666" points="283.5,-541 203.5,-541 203.5,-522 283.5,-522 283.5,-541"/>
<text text-anchor="middle" x="243.5" y="-529" font-family="Helvetica,sans-Serif" font-size="10.00">OD_stream_t</text>
</a>
</g>
</g>
<!-- Node8&#45;&gt;Node7 -->
<g id="edge7_Node000007_Node000008" class="edge">
<title>Node8&#45;&gt;Node7</title>
<g id="a_edge7_Node000007_Node000008"><a xlink:title=" ">
<path fill="none" stroke="#9a32cd" stroke-dasharray="5,2" d="M294.07,-531.5C345.95,-531.5 425.51,-531.5 466.89,-531.5"/>
<polygon fill="#9a32cd" stroke="#9a32cd" points="293.76,-528 283.76,-531.5 293.76,-535 293.76,-528"/>
</a>
</g>
<text text-anchor="middle" x="373.5" y="-534.5" font-family="Helvetica,sans-Serif" font-size="10.00" fill="grey"> stream</text>
</g>
<!-- Node9 -->
<g id="Node000009" class="node">
<title>Node9</title>
<g id="a_Node000009"><a xlink:href="structCO__CANmodule__t.html" target="_top" xlink:title="Complete CAN module object.">
<polygon fill="white" stroke="#666666" points="295,-187 192,-187 192,-168 295,-168 295,-187"/>
<text text-anchor="middle" x="243.5" y="-175" font-family="Helvetica,sans-Serif" font-size="10.00">CO_CANmodule_t</text>
</a>
</g>
</g>
<!-- Node9&#45;&gt;Node3 -->
<g id="edge8_Node000003_Node000009" class="edge">
<title>Node9&#45;&gt;Node3</title>
<g id="a_edge8_Node000003_Node000009"><a xlink:title=" ">
<path fill="none" stroke="#9a32cd" stroke-dasharray="5,2" d="M305.42,-181.39C368.53,-187.25 468.8,-201.79 548,-237.5 574.63,-249.51 584.47,-250.91 603,-273.5 659.13,-341.94 683.4,-450.6 689.74,-483.65"/>
<polygon fill="#9a32cd" stroke="#9a32cd" points="305.51,-177.88 295.24,-180.49 304.89,-184.86 305.51,-177.88"/>
</a>
</g>
<text text-anchor="middle" x="495" y="-251.5" font-family="Helvetica,sans-Serif" font-size="10.00" fill="grey"> CANdevRx</text>
<text text-anchor="middle" x="495" y="-240.5" font-family="Helvetica,sans-Serif" font-size="10.00" fill="grey">CANdevTx</text>
</g>
<!-- Node9&#45;&gt;Node12 -->
<g id="edge21_Node000012_Node000009" class="edge">
<title>Node9&#45;&gt;Node12</title>
<g id="a_edge21_Node000012_Node000009"><a xlink:title=" ">
<path fill="none" stroke="#9a32cd" stroke-dasharray="5,2" d="M305.15,-169.07C367.22,-162.43 465.94,-157.43 548,-178.5 606.93,-193.63 661.78,-246.03 682.63,-267.85"/>
<polygon fill="#9a32cd" stroke="#9a32cd" points="304.69,-165.6 295.14,-170.19 305.46,-172.56 304.69,-165.6"/>
</a>
</g>
<text text-anchor="middle" x="495" y="-192.5" font-family="Helvetica,sans-Serif" font-size="10.00" fill="grey"> HB_CANdevTx</text>
<text text-anchor="middle" x="495" y="-181.5" font-family="Helvetica,sans-Serif" font-size="10.00" fill="grey">NMT_CANdevTx</text>
</g>
<!-- Node9&#45;&gt;Node13 -->
<g id="edge17_Node000013_Node000009" class="edge">
<title>Node9&#45;&gt;Node13</title>
<g id="a_edge17_Node000013_Node000009"><a xlink:title=" ">
<path fill="none" stroke="#9a32cd" stroke-dasharray="5,2" d="M284.82,-189.99C297.03,-193.58 310.51,-197.38 323,-200.5 367.48,-211.62 386,-195.84 424,-221.5 435.95,-229.57 431.41,-238.71 442,-248.5 450.58,-256.43 461.72,-263 471.48,-267.88"/>
<polygon fill="#9a32cd" stroke="#9a32cd" points="285.5,-186.53 274.91,-187.03 283.49,-193.24 285.5,-186.53"/>
</a>
</g>
<text text-anchor="middle" x="373.5" y="-224.5" font-family="Helvetica,sans-Serif" font-size="10.00" fill="grey"> CANdevTx</text>
</g>
<!-- Node15 -->
<g id="Node000015" class="node">
<title>Node15</title>
<g id="a_Node000015"><a xlink:href="structCO__LSSmaster__t.html" target="_top" xlink:title="LSS master object.">
<polygon fill="white" stroke="#666666" points="543.5,-128 446.5,-128 446.5,-109 543.5,-109 543.5,-128"/>
<text text-anchor="middle" x="495" y="-116" font-family="Helvetica,sans-Serif" font-size="10.00">CO_LSSmaster_t</text>
</a>
</g>
</g>
<!-- Node9&#45;&gt;Node15 -->
<g id="edge24_Node000015_Node000009" class="edge">
<title>Node9&#45;&gt;Node15</title>
<g id="a_edge24_Node000015_Node000009"><a xlink:title=" ">
<path fill="none" stroke="#9a32cd" stroke-dasharray="5,2" d="M269.53,-162.76C284.54,-154.59 304.29,-145.01 323,-139.5 363.6,-127.54 411.56,-122.38 446.34,-120.17"/>
<polygon fill="#9a32cd" stroke="#9a32cd" points="267.43,-159.92 260.41,-167.86 270.84,-166.03 267.43,-159.92"/>
</a>
</g>
<text text-anchor="middle" x="373.5" y="-142.5" font-family="Helvetica,sans-Serif" font-size="10.00" fill="grey"> CANdevTx</text>
</g>
<!-- Node10 -->
<g id="Node000010" class="node">
<title>Node10</title>
<g id="a_Node000010"><a xlink:href="structCO__CANrx__t.html" target="_top" xlink:title="Configuration object for CAN received message for specific CANopenNode Object.">
<polygon fill="white" stroke="#666666" points="85,-187 9,-187 9,-168 85,-168 85,-187"/>
<text text-anchor="middle" x="47" y="-175" font-family="Helvetica,sans-Serif" font-size="10.00">CO_CANrx_t</text>
</a>
</g>
</g>
<!-- Node10&#45;&gt;Node9 -->
<g id="edge9_Node000009_Node000010" class="edge">
<title>Node10&#45;&gt;Node9</title>
<g id="a_edge9_Node000009_Node000010"><a xlink:title=" ">
<path fill="none" stroke="#9a32cd" stroke-dasharray="5,2" d="M95.38,-177.5C124.53,-177.5 161.87,-177.5 191.64,-177.5"/>
<polygon fill="#9a32cd" stroke="#9a32cd" points="95.04,-174 85.04,-177.5 95.04,-181 95.04,-174"/>
</a>
</g>
<text text-anchor="middle" x="138" y="-180.5" font-family="Helvetica,sans-Serif" font-size="10.00" fill="grey"> rxArray</text>
</g>
<!-- Node11 -->
<g id="Node000011" class="node">
<title>Node11</title>
<g id="a_Node000011"><a xlink:href="structCO__CANtx__t.html" target="_top" xlink:title="Configuration object for CAN transmit message for specific CANopenNode Object.">
<polygon fill="white" stroke="#666666" points="85,-270 9,-270 9,-251 85,-251 85,-270"/>
<text text-anchor="middle" x="47" y="-258" font-family="Helvetica,sans-Serif" font-size="10.00">CO_CANtx_t</text>
</a>
</g>
</g>
<!-- Node11&#45;&gt;Node3 -->
<g id="edge11_Node000003_Node000011" class="edge">
<title>Node11&#45;&gt;Node3</title>
<g id="a_edge11_Node000003_Node000011"><a xlink:title=" ">
<path fill="none" stroke="#9a32cd" stroke-dasharray="5,2" d="M56.56,-279.3C66.96,-300.25 86.34,-333.89 112,-354.5 138.12,-375.49 150.61,-370.78 182,-382.5 244.15,-405.71 258.73,-415.05 323,-431.5 437.54,-460.82 575.76,-479.81 645.89,-488.33"/>
<polygon fill="#9a32cd" stroke="#9a32cd" points="59.66,-277.67 52.19,-270.15 53.34,-280.68 59.66,-277.67"/>
</a>
</g>
<text text-anchor="middle" x="373.5" y="-456.5" font-family="Helvetica,sans-Serif" font-size="10.00" fill="grey"> CANtxBuff</text>
</g>
<!-- Node11&#45;&gt;Node9 -->
<g id="edge10_Node000009_Node000011" class="edge">
<title>Node11&#45;&gt;Node9</title>
<g id="a_edge10_Node000009_Node000011"><a xlink:title=" ">
<path fill="none" stroke="#9a32cd" stroke-dasharray="5,2" d="M74.94,-246.24C101.65,-232.44 143.97,-211.47 182,-196.5 190.71,-193.07 200.3,-189.83 209.24,-187.02"/>
<polygon fill="#9a32cd" stroke="#9a32cd" points="73.1,-243.25 65.85,-250.98 76.33,-249.46 73.1,-243.25"/>
</a>
</g>
<text text-anchor="middle" x="138" y="-228.5" font-family="Helvetica,sans-Serif" font-size="10.00" fill="grey"> txArray</text>
</g>
<!-- Node11&#45;&gt;Node12 -->
<g id="edge22_Node000012_Node000011" class="edge">
<title>Node11&#45;&gt;Node12</title>
<g id="a_edge22_Node000012_Node000011"><a xlink:title=" ">
<path fill="none" stroke="#9a32cd" stroke-dasharray="5,2" d="M62.9,-277.93C85.6,-302.99 131.55,-348.09 182,-365.5 272.05,-396.58 563.01,-315.63 659.83,-287.06"/>
<polygon fill="#9a32cd" stroke="#9a32cd" points="65.37,-275.44 56.12,-270.27 60.13,-280.08 65.37,-275.44"/>
</a>
</g>
<text text-anchor="middle" x="373.5" y="-378.5" font-family="Helvetica,sans-Serif" font-size="10.00" fill="grey"> HB_TXbuff</text>
<text text-anchor="middle" x="373.5" y="-367.5" font-family="Helvetica,sans-Serif" font-size="10.00" fill="grey">NMT_TXbuff</text>
</g>
<!-- Node11&#45;&gt;Node13 -->
<g id="edge19_Node000013_Node000011" class="edge">
<title>Node11&#45;&gt;Node13</title>
<g id="a_edge19_Node000013_Node000011"><a xlink:title=" ">
<path fill="none" stroke="#9a32cd" stroke-dasharray="5,2" d="M95.45,-262.31C187.88,-265.83 389.62,-273.52 464.9,-276.39"/>
<polygon fill="#9a32cd" stroke="#9a32cd" points="95.38,-258.8 85.26,-261.92 95.12,-265.8 95.38,-258.8"/>
</a>
</g>
<text text-anchor="middle" x="243.5" y="-272.5" font-family="Helvetica,sans-Serif" font-size="10.00" fill="grey"> CANtxBuff</text>
</g>
<!-- Node11&#45;&gt;Node15 -->
<g id="edge25_Node000015_Node000011" class="edge">
<title>Node11&#45;&gt;Node15</title>
<g id="a_edge25_Node000015_Node000011"><a xlink:title=" ">
<path fill="none" stroke="#9a32cd" stroke-dasharray="5,2" d="M60.71,-242.68C78.38,-217.96 108.62,-176.02 112,-173.5 211.98,-99.09 368.33,-103.78 446.36,-111.9"/>
<polygon fill="#9a32cd" stroke="#9a32cd" points="57.8,-240.73 54.83,-250.9 63.49,-244.79 57.8,-240.73"/>
</a>
</g>
<text text-anchor="middle" x="243.5" y="-138.5" font-family="Helvetica,sans-Serif" font-size="10.00" fill="grey"> TXbuff</text>
</g>
<!-- Node12&#45;&gt;Node1 -->
<g id="edge14_Node000001_Node000012" class="edge">
<title>Node12&#45;&gt;Node1</title>
<g id="a_edge14_Node000001_Node000012"><a xlink:title=" ">
<path fill="none" stroke="#9a32cd" stroke-dasharray="5,2" d="M716.28,-262.01C758.56,-233.27 848,-172.47 882.51,-149.01"/>
<polygon fill="#9a32cd" stroke="#9a32cd" points="714.08,-259.28 707.77,-267.8 718.01,-265.07 714.08,-259.28"/>
</a>
</g>
<text text-anchor="middle" x="812" y="-219.5" font-family="Helvetica,sans-Serif" font-size="10.00" fill="grey"> NMT</text>
</g>
<!-- Node13&#45;&gt;Node12 -->
<g id="edge16_Node000012_Node000013" class="edge">
<title>Node13&#45;&gt;Node12</title>
<g id="a_edge16_Node000012_Node000013"><a xlink:title=" ">
<path fill="none" stroke="#9a32cd" stroke-dasharray="5,2" d="M535.44,-277.5C571.58,-277.5 624.46,-277.5 658.43,-277.5"/>
<polygon fill="#9a32cd" stroke="#9a32cd" points="535.27,-274 525.27,-277.5 535.27,-281 535.27,-274"/>
</a>
</g>
<text text-anchor="middle" x="584.5" y="-280.5" font-family="Helvetica,sans-Serif" font-size="10.00" fill="grey"> em</text>
</g>
<!-- Node14 -->
<g id="Node000014" class="node">
<title>Node14</title>
<g id="a_Node000014"><a xlink:href="structCO__EM__fifo__t.html" target="_top" xlink:title="Fifo buffer for emergency producer and error history.">
<polygon fill="white" stroke="#666666" points="284.5,-224 202.5,-224 202.5,-205 284.5,-205 284.5,-224"/>
<text text-anchor="middle" x="243.5" y="-212" font-family="Helvetica,sans-Serif" font-size="10.00">CO_EM_fifo_t</text>
</a>
</g>
</g>
<!-- Node14&#45;&gt;Node13 -->
<g id="edge18_Node000013_Node000014" class="edge">
<title>Node14&#45;&gt;Node13</title>
<g id="a_edge18_Node000013_Node000014"><a xlink:title=" ">
<path fill="none" stroke="#9a32cd" stroke-dasharray="5,2" d="M291.03,-226.56C301.53,-229.23 312.64,-232 323,-234.5 367.75,-245.3 379.41,-246.06 424,-257.5 437.47,-260.95 452.28,-265.13 464.81,-268.78"/>
<polygon fill="#9a32cd" stroke="#9a32cd" points="291.75,-223.13 281.19,-224.06 290.02,-229.92 291.75,-223.13"/>
</a>
</g>
<text text-anchor="middle" x="373.5" y="-260.5" font-family="Helvetica,sans-Serif" font-size="10.00" fill="grey"> fifo</text>
</g>
<!-- Node15&#45;&gt;Node1 -->
<g id="edge23_Node000001_Node000015" class="edge">
<title>Node15&#45;&gt;Node1</title>
<g id="a_edge23_Node000001_Node000015"><a xlink:title=" ">
<path fill="none" stroke="#9a32cd" stroke-dasharray="5,2" d="M553.62,-121.52C637.32,-125.91 790.16,-133.92 859.97,-137.58"/>
<polygon fill="#9a32cd" stroke="#9a32cd" points="553.68,-118.02 543.52,-120.99 553.32,-125.01 553.68,-118.02"/>
</a>
</g>
<text text-anchor="middle" x="692.5" y="-134.5" font-family="Helvetica,sans-Serif" font-size="10.00" fill="grey"> LSSmaster</text>
</g>
<!-- Node16 -->
<g id="Node000016" class="node">
<title>Node16</title>
<g id="a_Node000016"><a xlink:href="unionCO__LSS__address__t.html" target="_top" xlink:title="The LSS address is a 128 bit number, uniquely identifying each node.">
<polygon fill="white" stroke="#666666" points="548,-76 442,-76 442,-57 548,-57 548,-76"/>
<text text-anchor="middle" x="495" y="-64" font-family="Helvetica,sans-Serif" font-size="10.00">CO_LSS_address_t</text>
</a>
</g>
</g>
<!-- Node16&#45;&gt;Node1 -->
<g id="edge26_Node000001_Node000016" class="edge">
<title>Node16&#45;&gt;Node1</title>
<g id="a_edge26_Node000001_Node000016"><a xlink:title=" ">
<path fill="none" stroke="#9a32cd" stroke-dasharray="5,2" d="M558.37,-77.24C560.95,-77.67 563.5,-78.09 566,-78.5 653.9,-92.91 676.51,-92.77 764,-109.5 796.55,-115.73 833.28,-124.15 859.8,-130.49"/>
<polygon fill="#9a32cd" stroke="#9a32cd" points="558.79,-73.76 548.35,-75.56 557.64,-80.67 558.79,-73.76"/>
</a>
</g>
<text text-anchor="middle" x="692.5" y="-112.5" font-family="Helvetica,sans-Serif" font-size="10.00" fill="grey"> lssAddress</text>
</g>
<!-- Node17 -->
<g id="Node000017" class="node">
<title>Node17</title>
<g id="a_Node000017"><a xlink:href="structCO__LSSmaster__fastscan__t.html" target="_top" xlink:title="Parameters for LSS fastscan CO_LSSmaster_IdentifyFastscan.">
<polygon fill="white" stroke="#666666" points="764,-56 621,-56 621,-37 764,-37 764,-56"/>
<text text-anchor="middle" x="692.5" y="-44" font-family="Helvetica,sans-Serif" font-size="10.00">CO_LSSmaster_fastscan_t</text>
</a>
</g>
</g>
<!-- Node16&#45;&gt;Node17 -->
<g id="edge28_Node000017_Node000016" class="edge">
<title>Node16&#45;&gt;Node17</title>
<g id="a_edge28_Node000017_Node000016"><a xlink:title=" ">
<path fill="none" stroke="#9a32cd" stroke-dasharray="5,2" d="M558.35,-57.39C560.93,-57.08 563.49,-56.78 566,-56.5 583.7,-54.53 602.86,-52.8 620.74,-51.36"/>
<polygon fill="#9a32cd" stroke="#9a32cd" points="557.8,-53.93 548.32,-58.66 558.68,-60.88 557.8,-53.93"/>
</a>
</g>
<text text-anchor="middle" x="584.5" y="-70.5" font-family="Helvetica,sans-Serif" font-size="10.00" fill="grey"> found</text>
<text text-anchor="middle" x="584.5" y="-59.5" font-family="Helvetica,sans-Serif" font-size="10.00" fill="grey">match</text>
</g>
<!-- Node17&#45;&gt;Node1 -->
<g id="edge27_Node000001_Node000017" class="edge">
<title>Node17&#45;&gt;Node1</title>
<g id="a_edge27_Node000001_Node000017"><a xlink:title=" ">
<path fill="none" stroke="#9a32cd" stroke-dasharray="5,2" d="M774.24,-46.54C797.36,-49.48 821.77,-55.6 842,-67.5 867.27,-82.36 884.7,-113.93 892.26,-129.87"/>
<polygon fill="#9a32cd" stroke="#9a32cd" points="774.4,-43.03 764.08,-45.43 773.64,-49.99 774.4,-43.03"/>
</a>
</g>
<text text-anchor="middle" x="812" y="-70.5" font-family="Helvetica,sans-Serif" font-size="10.00" fill="grey"> lssFastscan</text>
</g>
<!-- Node18 -->
<g id="Node000018" class="node">
<title>Node18</title>
<g id="a_Node000018"><a xlink:href="structCO__LEDs__t.html" target="_top" xlink:title="LEDs object, initialized by CO_LEDs_init()">
<polygon fill="white" stroke="#666666" points="727,-19 658,-19 658,0 727,0 727,-19"/>
<text text-anchor="middle" x="692.5" y="-7" font-family="Helvetica,sans-Serif" font-size="10.00">CO_LEDs_t</text>
</a>
</g>
</g>
<!-- Node18&#45;&gt;Node1 -->
<g id="edge29_Node000001_Node000018" class="edge">
<title>Node18&#45;&gt;Node1</title>
<g id="a_edge29_Node000001_Node000018"><a xlink:title=" ">
<path fill="none" stroke="#9a32cd" stroke-dasharray="5,2" d="M737.5,-6.2C769.34,-6.05 811.91,-10.71 842,-32.5 875.77,-56.95 890.04,-108.51 894.67,-129.89"/>
<polygon fill="#9a32cd" stroke="#9a32cd" points="737.06,-2.71 727.14,-6.41 737.21,-9.7 737.06,-2.71"/>
</a>
</g>
<text text-anchor="middle" x="812" y="-35.5" font-family="Helvetica,sans-Serif" font-size="10.00" fill="grey"> LEDs</text>
</g>
</g>
</svg>

<g id="navigator" transform="translate(0 0)" fill="#404254">
  <rect fill="#f2f5e9" fill-opacity="0.5" stroke="#606060" stroke-width=".5" x="0" y="0" width="60" height="60"/>
  <use id="zoomplus" xlink:href="#zoomPlus" x="17" y="9" onmousedown="handleZoom(evt,'in')"/>
  <use id="zoomminus" xlink:href="#zoomMin" x="42" y="9" onmousedown="handleZoom(evt,'out')"/>
  <use id="reset" xlink:href="#resetDef" x="30" y="36" onmousedown="handleReset()"/>
   <use id="arrowup" xlink:href="#arrowUp" x="0" y="0" onmousedown="handlePan(0,-1)"/>
  <use id="arrowright" xlink:href="#arrowRight" x="0" y="0" onmousedown="handlePan(1,0)"/>
  <use id="arrowdown" xlink:href="#arrowDown" x="0" y="0" onmousedown="handlePan(0,1)"/>
  <use id="arrowleft" xlink:href="#arrowLeft" x="0" y="0" onmousedown="handlePan(-1,0)"/>
</g>
<svg viewBox="0 0 15 15" width="100%" height="30px" preserveAspectRatio="xMaxYMin meet">
 <g id="arrow_out" transform="scale(0.3 0.3)">
  <a xlink:href="structCO__GTWA__t__coll__graph_org.svg" target="_base">
   <rect id="button" ry="5" rx="5" y="6" x="6" height="38" width="38"
        fill="#f2f5e9" fill-opacity="0.5" stroke="#606060" stroke-width="1.0"/>
   <path id="arrow"
     d="M 11.500037,31.436501 C 11.940474,20.09759 22.043105,11.32322 32.158766,21.979434 L 37.068811,17.246167 C 37.068811,17.246167 37.088388,32 37.088388,32 L 22.160133,31.978069 C 22.160133,31.978069 26.997745,27.140456 26.997745,27.140456 C 18.528582,18.264221 13.291696,25.230495 11.500037,31.436501 z"
     style="fill:#404040;"/>
  </a>
 </g>
</svg>

<style type='text/css'>
<![CDATA[
[data-mouse-over-selected='false'] { opacity: 0.7; }
[data-mouse-over-selected='true']  { opacity: 1.0; }
]]>
</style>
<script type="application/ecmascript"><![CDATA[
document.addEventListener('DOMContentLoaded', (event) => {
  highlightEdges();
  highlightAdjacentNodes();
});
]]></script>
</svg>
