<?xml version="1.0" encoding="UTF-8" standalone="no"?>
<!DOCTYPE svg PUBLIC "-//W3C//DTD SVG 1.1//EN"
 "http://www.w3.org/Graphics/SVG/1.1/DTD/svg11.dtd">
<!-- Generated by graphviz version 2.43.0 (0)
 -->
<!-- Title: CO_SRDO_t Pages: 1 -->
<svg width="630pt" height="264pt"
 viewBox="0.00 0.00 629.50 264.00" xmlns="http://www.w3.org/2000/svg" xmlns:xlink="http://www.w3.org/1999/xlink">
<g id="graph0" class="graph" transform="scale(1 1) rotate(0) translate(4 260)">
<title>CO_SRDO_t</title>
<polygon fill="white" stroke="transparent" points="-4,4 -4,-260 625.5,-260 625.5,4 -4,4"/>
<!-- Node1 -->
<g id="node1" class="node">
<title>Node1</title>
<g id="a_node1"><a xlink:title="SRDO object.">
<polygon fill="#bfbfbf" stroke="black" points="315,-0.5 315,-19.5 388,-19.5 388,-0.5 315,-0.5"/>
<text text-anchor="middle" x="351.5" y="-7.5" font-family="Helvetica,sans-Serif" font-size="10.00">CO_SRDO_t</text>
</a>
</g>
</g>
<!-- Node2 -->
<g id="node2" class="node">
<title>Node2</title>
<g id="a_node2"><a xlink:href="structCO__EM__t.html" target="_top" xlink:title="Emergency object.">
<polygon fill="white" stroke="black" points="263.5,-68.5 263.5,-87.5 323.5,-87.5 323.5,-68.5 263.5,-68.5"/>
<text text-anchor="middle" x="293.5" y="-75.5" font-family="Helvetica,sans-Serif" font-size="10.00">CO_EM_t</text>
</a>
</g>
</g>
<!-- Node2&#45;&gt;Node1 -->
<g id="edge1" class="edge">
<title>Node2&#45;&gt;Node1</title>
<path fill="none" stroke="#9a32cd" stroke-dasharray="5,2" d="M303.04,-59.59C307.31,-52.53 312.69,-44.52 318.5,-38 324.6,-31.15 332.54,-24.6 339.1,-19.67"/>
<polygon fill="#9a32cd" stroke="#9a32cd" points="299.92,-57.99 297.97,-68.4 305.99,-61.48 299.92,-57.99"/>
<text text-anchor="middle" x="328" y="-41" font-family="Helvetica,sans-Serif" font-size="10.00"> em</text>
</g>
<!-- Node3 -->
<g id="node3" class="node">
<title>Node3</title>
<g id="a_node3"><a xlink:href="structCO__EM__fifo__t.html" target="_top" xlink:title="Fifo buffer for emergency producer and error history.">
<polygon fill="white" stroke="black" points="241.5,-169.5 241.5,-188.5 323.5,-188.5 323.5,-169.5 241.5,-169.5"/>
<text text-anchor="middle" x="282.5" y="-176.5" font-family="Helvetica,sans-Serif" font-size="10.00">CO_EM_fifo_t</text>
</a>
</g>
</g>
<!-- Node3&#45;&gt;Node2 -->
<g id="edge2" class="edge">
<title>Node3&#45;&gt;Node2</title>
<path fill="none" stroke="#9a32cd" stroke-dasharray="5,2" d="M285.46,-158.84C285.83,-156.21 286.19,-153.54 286.5,-151 289.28,-128.31 291.65,-101.49 292.78,-87.88"/>
<polygon fill="#9a32cd" stroke="#9a32cd" points="281.96,-158.61 283.95,-169.02 288.88,-159.64 281.96,-158.61"/>
<text text-anchor="middle" x="301.5" y="-126.5" font-family="Helvetica,sans-Serif" font-size="10.00"> fifo</text>
</g>
<!-- Node4 -->
<g id="node4" class="node">
<title>Node4</title>
<g id="a_node4"><a xlink:href="structCO__CANtx__t.html" target="_top" xlink:title="Configuration object for CAN transmit message for specific CANopenNode Object.">
<polygon fill="white" stroke="black" points="313.5,-236.5 313.5,-255.5 389.5,-255.5 389.5,-236.5 313.5,-236.5"/>
<text text-anchor="middle" x="351.5" y="-243.5" font-family="Helvetica,sans-Serif" font-size="10.00">CO_CANtx_t</text>
</a>
</g>
</g>
<!-- Node4&#45;&gt;Node1 -->
<g id="edge8" class="edge">
<title>Node4&#45;&gt;Node1</title>
<path fill="none" stroke="#9a32cd" stroke-dasharray="5,2" d="M351.5,-226.28C351.5,-178.67 351.5,-54.33 351.5,-19.93"/>
<polygon fill="#9a32cd" stroke="#9a32cd" points="348,-226.39 351.5,-236.39 355,-226.39 348,-226.39"/>
<text text-anchor="middle" x="379" y="-126.5" font-family="Helvetica,sans-Serif" font-size="10.00"> CANtxBuff</text>
</g>
<!-- Node4&#45;&gt;Node2 -->
<g id="edge3" class="edge">
<title>Node4&#45;&gt;Node2</title>
<path fill="none" stroke="#9a32cd" stroke-dasharray="5,2" d="M367.77,-228.88C393.42,-201.5 437.43,-145.17 407.5,-107 397.25,-93.93 353.84,-86.15 323.65,-82.23"/>
<polygon fill="#9a32cd" stroke="#9a32cd" points="364.94,-226.78 360.5,-236.4 369.97,-231.64 364.94,-226.78"/>
<text text-anchor="middle" x="436" y="-176.5" font-family="Helvetica,sans-Serif" font-size="10.00"> CANtxBuff</text>
</g>
<!-- Node5 -->
<g id="node5" class="node">
<title>Node5</title>
<g id="a_node5"><a xlink:href="structCO__CANmodule__t.html" target="_top" xlink:title="Complete CAN module object.">
<polygon fill="white" stroke="black" points="0,-169.5 0,-188.5 103,-188.5 103,-169.5 0,-169.5"/>
<text text-anchor="middle" x="51.5" y="-176.5" font-family="Helvetica,sans-Serif" font-size="10.00">CO_CANmodule_t</text>
</a>
</g>
</g>
<!-- Node4&#45;&gt;Node5 -->
<g id="edge5" class="edge">
<title>Node4&#45;&gt;Node5</title>
<path fill="none" stroke="#9a32cd" stroke-dasharray="5,2" d="M303.39,-234.58C244.45,-221.81 145.71,-200.41 91,-188.56"/>
<polygon fill="#9a32cd" stroke="#9a32cd" points="302.69,-238 313.2,-236.7 304.17,-231.16 302.69,-238"/>
<text text-anchor="middle" x="239.5" y="-210" font-family="Helvetica,sans-Serif" font-size="10.00"> txArray</text>
</g>
<!-- Node5&#45;&gt;Node1 -->
<g id="edge9" class="edge">
<title>Node5&#45;&gt;Node1</title>
<path fill="none" stroke="#9a32cd" stroke-dasharray="5,2" d="M50.31,-159.25C50.35,-143.48 52.96,-121.28 65.5,-107 130.31,-33.22 253.61,-16.02 314.95,-12.09"/>
<polygon fill="#9a32cd" stroke="#9a32cd" points="46.82,-159.51 50.64,-169.39 53.82,-159.28 46.82,-159.51"/>
<text text-anchor="middle" x="142" y="-81" font-family="Helvetica,sans-Serif" font-size="10.00"> CANdevRx</text>
<text text-anchor="middle" x="142" y="-70" font-family="Helvetica,sans-Serif" font-size="10.00">CANdevTx</text>
</g>
<!-- Node5&#45;&gt;Node2 -->
<g id="edge4" class="edge">
<title>Node5&#45;&gt;Node2</title>
<path fill="none" stroke="#9a32cd" stroke-dasharray="5,2" d="M59.73,-160.34C68.86,-141.54 83.6,-113.6 93.5,-107 120.71,-88.87 214.42,-82.29 263.3,-80.06"/>
<polygon fill="#9a32cd" stroke="#9a32cd" points="56.55,-158.88 55.42,-169.41 62.87,-161.88 56.55,-158.88"/>
<text text-anchor="middle" x="121" y="-126.5" font-family="Helvetica,sans-Serif" font-size="10.00"> CANdevTx</text>
</g>
<!-- Node6 -->
<g id="node6" class="node">
<title>Node6</title>
<g id="a_node6"><a xlink:href="structCO__CANrx__t.html" target="_top" xlink:title="Configuration object for CAN received message for specific CANopenNode Object.">
<polygon fill="white" stroke="black" points="13.5,-236.5 13.5,-255.5 89.5,-255.5 89.5,-236.5 13.5,-236.5"/>
<text text-anchor="middle" x="51.5" y="-243.5" font-family="Helvetica,sans-Serif" font-size="10.00">CO_CANrx_t</text>
</a>
</g>
</g>
<!-- Node6&#45;&gt;Node5 -->
<g id="edge6" class="edge">
<title>Node6&#45;&gt;Node5</title>
<path fill="none" stroke="#9a32cd" stroke-dasharray="5,2" d="M51.5,-226.04C51.5,-213.67 51.5,-198.12 51.5,-188.63"/>
<polygon fill="#9a32cd" stroke="#9a32cd" points="48,-226.23 51.5,-236.23 55,-226.23 48,-226.23"/>
<text text-anchor="middle" x="71.5" y="-210" font-family="Helvetica,sans-Serif" font-size="10.00"> rxArray</text>
</g>
<!-- Node7 -->
<g id="node7" class="node">
<title>Node7</title>
<g id="a_node7"><a xlink:href="structOD__extension__t.html" target="_top" xlink:title="Extension of OD object, which can optionally be specified by application in initialization phase with...">
<polygon fill="white" stroke="black" points="121.5,-169.5 121.5,-188.5 215.5,-188.5 215.5,-169.5 121.5,-169.5"/>
<text text-anchor="middle" x="168.5" y="-176.5" font-family="Helvetica,sans-Serif" font-size="10.00">OD_extension_t</text>
</a>
</g>
</g>
<!-- Node7&#45;&gt;Node2 -->
<g id="edge7" class="edge">
<title>Node7&#45;&gt;Node2</title>
<path fill="none" stroke="#9a32cd" stroke-dasharray="5,2" d="M159.63,-160.31C153.16,-144.59 147.42,-121.87 159.5,-107 172.32,-91.23 227.8,-84.03 263.23,-81"/>
<polygon fill="#9a32cd" stroke="#9a32cd" points="156.48,-161.83 163.81,-169.47 162.85,-158.92 156.48,-161.83"/>
<text text-anchor="middle" x="221" y="-143" font-family="Helvetica,sans-Serif" font-size="10.00"> OD_1003_extension</text>
<text text-anchor="middle" x="221" y="-132" font-family="Helvetica,sans-Serif" font-size="10.00">OD_1014_extension</text>
<text text-anchor="middle" x="221" y="-121" font-family="Helvetica,sans-Serif" font-size="10.00">OD_1015_extension</text>
<text text-anchor="middle" x="221" y="-110" font-family="Helvetica,sans-Serif" font-size="10.00">OD_statusBits_extension</text>
</g>
<!-- Node8 -->
<g id="node8" class="node">
<title>Node8</title>
<g id="a_node8"><a xlink:href="structCO__SRDOCommPar__t.html" target="_top" xlink:title="SRDO communication parameter.">
<polygon fill="white" stroke="black" points="380,-68.5 380,-87.5 501,-87.5 501,-68.5 380,-68.5"/>
<text text-anchor="middle" x="440.5" y="-75.5" font-family="Helvetica,sans-Serif" font-size="10.00">CO_SRDOCommPar_t</text>
</a>
</g>
</g>
<!-- Node8&#45;&gt;Node1 -->
<g id="edge10" class="edge">
<title>Node8&#45;&gt;Node1</title>
<path fill="none" stroke="#9a32cd" stroke-dasharray="5,2" d="M420.4,-62.1C402.74,-49 377.66,-30.4 363.14,-19.63"/>
<polygon fill="#9a32cd" stroke="#9a32cd" points="418.75,-65.23 428.86,-68.37 422.92,-59.6 418.75,-65.23"/>
<text text-anchor="middle" x="440" y="-41" font-family="Helvetica,sans-Serif" font-size="10.00"> SRDOCommPar</text>
</g>
<!-- Node9 -->
<g id="node9" class="node">
<title>Node9</title>
<g id="a_node9"><a xlink:href="structCO__SRDOGuard__t.html" target="_top" xlink:title="Gurad Object for SRDO monitors:">
<polygon fill="white" stroke="black" points="519.5,-68.5 519.5,-87.5 621.5,-87.5 621.5,-68.5 519.5,-68.5"/>
<text text-anchor="middle" x="570.5" y="-75.5" font-family="Helvetica,sans-Serif" font-size="10.00">CO_SRDOGuard_t</text>
</a>
</g>
</g>
<!-- Node9&#45;&gt;Node1 -->
<g id="edge11" class="edge">
<title>Node9&#45;&gt;Node1</title>
<path fill="none" stroke="#9a32cd" stroke-dasharray="5,2" d="M544.98,-63.77C527.94,-55.39 504.84,-44.87 483.5,-38 452,-27.85 414.99,-20.67 388.19,-16.28"/>
<polygon fill="#9a32cd" stroke="#9a32cd" points="543.74,-67.06 554.25,-68.41 546.88,-60.8 543.74,-67.06"/>
<text text-anchor="middle" x="540" y="-41" font-family="Helvetica,sans-Serif" font-size="10.00"> SRDOGuard</text>
</g>
</g>
</svg>
