<?xml version="1.0" encoding="UTF-8" standalone="no"?>
<!DOCTYPE svg PUBLIC "-//W3C//DTD SVG 1.1//EN"
 "http://www.w3.org/Graphics/SVG/1.1/DTD/svg11.dtd">
<!-- Generated by graphviz version 2.43.0 (0)
 -->
<!-- Title: OD_t Pages: 1 -->
<svg width="107pt" height="162pt"
 viewBox="0.00 0.00 107.00 162.00" xmlns="http://www.w3.org/2000/svg" xmlns:xlink="http://www.w3.org/1999/xlink">
<g id="graph0" class="graph" transform="scale(1 1) rotate(0) translate(4 158)">
<title>OD_t</title>
<polygon fill="white" stroke="transparent" points="-4,4 -4,-158 103,-158 103,4 -4,4"/>
<!-- Node1 -->
<g id="node1" class="node">
<title>Node1</title>
<g id="a_node1"><a xlink:title="Object Dictionary.">
<polygon fill="#bfbfbf" stroke="black" points="26.5,-0.5 26.5,-19.5 67.5,-19.5 67.5,-0.5 26.5,-0.5"/>
<text text-anchor="middle" x="47" y="-7.5" font-family="Helvetica,sans-Serif" font-size="10.00">OD_t</text>
</a>
</g>
</g>
<!-- Node2 -->
<g id="node2" class="node">
<title>Node2</title>
<g id="a_node2"><a xlink:href="structOD__entry__t.html" target="_top" xlink:title="Object Dictionary entry for one OD object.">
<polygon fill="white" stroke="black" points="11.5,-67.5 11.5,-86.5 82.5,-86.5 82.5,-67.5 11.5,-67.5"/>
<text text-anchor="middle" x="47" y="-74.5" font-family="Helvetica,sans-Serif" font-size="10.00">OD_entry_t</text>
</a>
</g>
</g>
<!-- Node2&#45;&gt;Node1 -->
<g id="edge1" class="edge">
<title>Node2&#45;&gt;Node1</title>
<path fill="none" stroke="#9a32cd" stroke-dasharray="5,2" d="M47,-57.04C47,-44.67 47,-29.12 47,-19.63"/>
<polygon fill="#9a32cd" stroke="#9a32cd" points="43.5,-57.23 47,-67.23 50.5,-57.23 43.5,-57.23"/>
<text text-anchor="middle" x="56.5" y="-41" font-family="Helvetica,sans-Serif" font-size="10.00"> list</text>
</g>
<!-- Node3 -->
<g id="node3" class="node">
<title>Node3</title>
<g id="a_node3"><a xlink:href="structOD__extension__t.html" target="_top" xlink:title="Extension of OD object, which can optionally be specified by application in initialization phase with...">
<polygon fill="white" stroke="black" points="0,-134.5 0,-153.5 94,-153.5 94,-134.5 0,-134.5"/>
<text text-anchor="middle" x="47" y="-141.5" font-family="Helvetica,sans-Serif" font-size="10.00">OD_extension_t</text>
</a>
</g>
</g>
<!-- Node3&#45;&gt;Node2 -->
<g id="edge2" class="edge">
<title>Node3&#45;&gt;Node2</title>
<path fill="none" stroke="#9a32cd" stroke-dasharray="5,2" d="M47,-124.04C47,-111.67 47,-96.12 47,-86.63"/>
<polygon fill="#9a32cd" stroke="#9a32cd" points="43.5,-124.23 47,-134.23 50.5,-124.23 43.5,-124.23"/>
<text text-anchor="middle" x="73" y="-108" font-family="Helvetica,sans-Serif" font-size="10.00"> extension</text>
</g>
</g>
</svg>
