<?xml version="1.0" encoding="UTF-8" standalone="no"?>
<!DOCTYPE svg PUBLIC "-//W3C//DTD SVG 1.1//EN"
 "http://www.w3.org/Graphics/SVG/1.1/DTD/svg11.dtd">
<!-- Generated by graphviz version 2.43.0 (0)
 -->
<!-- Title: CO_nodeGuardingSlave_t Pages: 1 -->
<svg width="538pt" height="261pt"
 viewBox="0.00 0.00 538.00 261.00" xmlns="http://www.w3.org/2000/svg" xmlns:xlink="http://www.w3.org/1999/xlink">
<g id="graph0" class="graph" transform="scale(1 1) rotate(0) translate(4 257)">
<title>CO_nodeGuardingSlave_t</title>
<!-- Node1 -->
<g id="Node000001" class="node">
<title>Node1</title>
<g id="a_Node000001"><a xlink:title="Node Guarding slave object.">
<polygon fill="#999999" stroke="#666666" points="397,-19 257,-19 257,0 397,0 397,-19"/>
<text text-anchor="middle" x="327" y="-7" font-family="Helvetica,sans-Serif" font-size="10.00">CO_nodeGuardingSlave_t</text>
</a>
</g>
</g>
<!-- Node2 -->
<g id="Node000002" class="node">
<title>Node2</title>
<g id="a_Node000002"><a xlink:href="structCO__EM__t.html" target="_top" xlink:title="Emergency object.">
<polygon fill="white" stroke="#666666" points="222,-86.5 162,-86.5 162,-67.5 222,-67.5 222,-86.5"/>
<text text-anchor="middle" x="192" y="-74.5" font-family="Helvetica,sans-Serif" font-size="10.00">CO_EM_t</text>
</a>
</g>
</g>
<!-- Node2&#45;&gt;Node1 -->
<g id="edge1_Node000001_Node000002" class="edge">
<title>Node2&#45;&gt;Node1</title>
<g id="a_edge1_Node000001_Node000002"><a xlink:title=" ">
<path fill="none" stroke="#9a32cd" stroke-dasharray="5,2" d="M218.87,-62.96C245.75,-49.92 286.3,-30.25 309.35,-19.07"/>
<polygon fill="#9a32cd" stroke="#9a32cd" points="217.12,-59.92 209.65,-67.44 220.17,-66.22 217.12,-59.92"/>
</a>
</g>
<text text-anchor="middle" x="281.5" y="-40" font-family="Helvetica,sans-Serif" font-size="10.00" fill="grey"> em</text>
</g>
<!-- Node3 -->
<g id="Node000003" class="node">
<title>Node3</title>
<g id="a_Node000003"><a xlink:href="structCO__CANmodule__t.html" target="_top" xlink:title="Complete CAN module object.">
<polygon fill="white" stroke="#666666" points="112.5,-187 9.5,-187 9.5,-168 112.5,-168 112.5,-187"/>
<text text-anchor="middle" x="61" y="-175" font-family="Helvetica,sans-Serif" font-size="10.00">CO_CANmodule_t</text>
</a>
</g>
</g>
<!-- Node3&#45;&gt;Node1 -->
<g id="edge9_Node000001_Node000003" class="edge">
<title>Node3&#45;&gt;Node1</title>
<g id="a_edge9_Node000001_Node000003"><a xlink:title=" ">
<path fill="none" stroke="#9a32cd" stroke-dasharray="5,2" d="M59.75,-157.65C59.46,-143.06 60.52,-122.61 67,-106 75.18,-85.05 79.12,-78.22 98,-66 145.64,-35.15 208.91,-21.44 256.87,-15.35"/>
<polygon fill="#9a32cd" stroke="#9a32cd" points="56.27,-158.07 60.21,-167.9 63.26,-157.76 56.27,-158.07"/>
</a>
</g>
<text text-anchor="middle" x="125.5" y="-74.5" font-family="Helvetica,sans-Serif" font-size="10.00" fill="grey"> CANdevTx</text>
</g>
<!-- Node3&#45;&gt;Node2 -->
<g id="edge2_Node000002_Node000003" class="edge">
<title>Node3&#45;&gt;Node2</title>
<g id="a_edge2_Node000002_Node000003"><a xlink:title=" ">
<path fill="none" stroke="#9a32cd" stroke-dasharray="5,2" d="M63.17,-157.43C65.99,-141.49 72.41,-119.29 87,-106 107.36,-87.45 138.65,-80.95 161.78,-78.79"/>
<polygon fill="#9a32cd" stroke="#9a32cd" points="59.65,-157.32 61.69,-167.72 66.58,-158.32 59.65,-157.32"/>
</a>
</g>
<text text-anchor="middle" x="114.5" y="-125.5" font-family="Helvetica,sans-Serif" font-size="10.00" fill="grey"> CANdevTx</text>
</g>
<!-- Node4 -->
<g id="Node000004" class="node">
<title>Node4</title>
<g id="a_Node000004"><a xlink:href="structCO__CANrx__t.html" target="_top" xlink:title="Configuration object for CAN received message for specific CANopenNode Object.">
<polygon fill="white" stroke="#666666" points="76,-253 0,-253 0,-234 76,-234 76,-253"/>
<text text-anchor="middle" x="38" y="-241" font-family="Helvetica,sans-Serif" font-size="10.00">CO_CANrx_t</text>
</a>
</g>
</g>
<!-- Node4&#45;&gt;Node3 -->
<g id="edge3_Node000003_Node000004" class="edge">
<title>Node4&#45;&gt;Node3</title>
<g id="a_edge3_Node000003_Node000004"><a xlink:title=" ">
<path fill="none" stroke="#9a32cd" stroke-dasharray="5,2" d="M36.1,-223.77C36.1,-217.62 36.79,-210.87 39,-205 41.53,-198.28 46.52,-192.04 51.11,-187.3"/>
<polygon fill="#9a32cd" stroke="#9a32cd" points="32.62,-224.07 36.67,-233.86 39.6,-223.68 32.62,-224.07"/>
</a>
</g>
<text text-anchor="middle" x="59" y="-208" font-family="Helvetica,sans-Serif" font-size="10.00" fill="grey"> rxArray</text>
</g>
<!-- Node5 -->
<g id="Node000005" class="node">
<title>Node5</title>
<g id="a_Node000005"><a xlink:href="structCO__CANtx__t.html" target="_top" xlink:title="Configuration object for CAN transmit message for specific CANopenNode Object.">
<polygon fill="white" stroke="#666666" points="194,-253 118,-253 118,-234 194,-234 194,-253"/>
<text text-anchor="middle" x="156" y="-241" font-family="Helvetica,sans-Serif" font-size="10.00">CO_CANtx_t</text>
</a>
</g>
</g>
<!-- Node5&#45;&gt;Node1 -->
<g id="edge10_Node000001_Node000005" class="edge">
<title>Node5&#45;&gt;Node1</title>
<g id="a_edge10_Node000001_Node000005"><a xlink:title=" ">
<path fill="none" stroke="#9a32cd" stroke-dasharray="5,2" d="M204.6,-238.76C274.74,-232.38 399.5,-217.08 432,-187 472.51,-149.5 490.61,-111.94 460,-66 442.87,-40.29 411.31,-26.46 383.24,-19.05"/>
<polygon fill="#9a32cd" stroke="#9a32cd" points="203.9,-235.31 194.25,-239.67 204.52,-242.28 203.9,-235.31"/>
</a>
</g>
<text text-anchor="middle" x="502.5" y="-125.5" font-family="Helvetica,sans-Serif" font-size="10.00" fill="grey"> CANtxBuff</text>
</g>
<!-- Node5&#45;&gt;Node2 -->
<g id="edge6_Node000002_Node000005" class="edge">
<title>Node5&#45;&gt;Node2</title>
<g id="a_edge6_Node000002_Node000005"><a xlink:title=" ">
<path fill="none" stroke="#9a32cd" stroke-dasharray="5,2" d="M157.59,-223.6C159.02,-208.48 161.46,-186.77 165,-168 170.27,-140.03 172.23,-133.07 181,-106 183.13,-99.44 185.98,-92.2 188.25,-86.73"/>
<polygon fill="#9a32cd" stroke="#9a32cd" points="154.09,-223.45 156.68,-233.73 161.06,-224.08 154.09,-223.45"/>
</a>
</g>
<text text-anchor="middle" x="192.5" y="-175" font-family="Helvetica,sans-Serif" font-size="10.00" fill="grey"> CANtxBuff</text>
</g>
<!-- Node5&#45;&gt;Node3 -->
<g id="edge4_Node000003_Node000005" class="edge">
<title>Node5&#45;&gt;Node3</title>
<g id="a_edge4_Node000003_Node000005"><a xlink:title=" ">
<path fill="none" stroke="#9a32cd" stroke-dasharray="5,2" d="M126.07,-229.69C118,-225.74 109.44,-221.07 102,-216 89.41,-207.41 76.74,-195.14 68.89,-187"/>
<polygon fill="#9a32cd" stroke="#9a32cd" points="124.7,-232.91 135.24,-233.99 127.67,-226.57 124.7,-232.91"/>
</a>
</g>
<text text-anchor="middle" x="122" y="-208" font-family="Helvetica,sans-Serif" font-size="10.00" fill="grey"> txArray</text>
</g>
<!-- Node6 -->
<g id="Node000006" class="node">
<title>Node6</title>
<g id="a_Node000006"><a xlink:href="structCO__EM__fifo__t.html" target="_top" xlink:title="Fifo buffer for emergency producer and error history.">
<polygon fill="white" stroke="#666666" points="311,-187 229,-187 229,-168 311,-168 311,-187"/>
<text text-anchor="middle" x="270" y="-175" font-family="Helvetica,sans-Serif" font-size="10.00">CO_EM_fifo_t</text>
</a>
</g>
</g>
<!-- Node6&#45;&gt;Node2 -->
<g id="edge5_Node000002_Node000006" class="edge">
<title>Node6&#45;&gt;Node2</title>
<g id="a_edge5_Node000002_Node000006"><a xlink:title=" ">
<path fill="none" stroke="#9a32cd" stroke-dasharray="5,2" d="M219.2,-168.73C208.97,-164.78 199.41,-158.86 193,-150 179.22,-130.96 185.14,-101.06 189.26,-86.51"/>
<polygon fill="#9a32cd" stroke="#9a32cd" points="218.12,-172.06 228.71,-171.84 220.29,-165.41 218.12,-172.06"/>
</a>
</g>
<text text-anchor="middle" x="203" y="-125.5" font-family="Helvetica,sans-Serif" font-size="10.00" fill="grey"> fifo</text>
</g>
<!-- Node7 -->
<g id="Node000007" class="node">
<title>Node7</title>
<g id="a_Node000007"><a xlink:href="structOD__extension__t.html" target="_top" xlink:title="Extension of OD object, which can optionally be specified by application in initialization phase with...">
<polygon fill="white" stroke="#666666" points="423,-187 329,-187 329,-168 423,-168 423,-187"/>
<text text-anchor="middle" x="376" y="-175" font-family="Helvetica,sans-Serif" font-size="10.00">OD_extension_t</text>
</a>
</g>
</g>
<!-- Node7&#45;&gt;Node1 -->
<g id="edge8_Node000001_Node000007" class="edge">
<title>Node7&#45;&gt;Node1</title>
<g id="a_edge8_Node000001_Node000007"><a xlink:title=" ">
<path fill="none" stroke="#9a32cd" stroke-dasharray="5,2" d="M371.94,-157.71C368.74,-143.44 364,-123.38 359,-106 349.67,-73.57 336.22,-35.76 330.17,-19.11"/>
<polygon fill="#9a32cd" stroke="#9a32cd" points="368.58,-158.74 374.15,-167.75 375.41,-157.23 368.58,-158.74"/>
</a>
</g>
<text text-anchor="middle" x="405" y="-80" font-family="Helvetica,sans-Serif" font-size="10.00" fill="grey"> OD_100C_extension</text>
<text text-anchor="middle" x="405" y="-69" font-family="Helvetica,sans-Serif" font-size="10.00" fill="grey">OD_100D_extension</text>
</g>
<!-- Node7&#45;&gt;Node2 -->
<g id="edge7_Node000002_Node000007" class="edge">
<title>Node7&#45;&gt;Node2</title>
<g id="a_edge7_Node000002_Node000007"><a xlink:title=" ">
<path fill="none" stroke="#9a32cd" stroke-dasharray="5,2" d="M318.56,-166.8C281.48,-160.35 239.5,-152.59 236,-150 218.28,-136.86 224.77,-124.67 213,-106 208.72,-99.22 203.27,-91.98 199,-86.57"/>
<polygon fill="#9a32cd" stroke="#9a32cd" points="318.41,-170.33 328.86,-168.58 319.6,-163.43 318.41,-170.33"/>
</a>
</g>
<text text-anchor="middle" x="297.5" y="-142" font-family="Helvetica,sans-Serif" font-size="10.00" fill="grey"> OD_1003_extension</text>
<text text-anchor="middle" x="297.5" y="-131" font-family="Helvetica,sans-Serif" font-size="10.00" fill="grey">OD_1014_extension</text>
<text text-anchor="middle" x="297.5" y="-120" font-family="Helvetica,sans-Serif" font-size="10.00" fill="grey">OD_1015_extension</text>
<text text-anchor="middle" x="297.5" y="-109" font-family="Helvetica,sans-Serif" font-size="10.00" fill="grey">OD_statusBits_extension</text>
</g>
</g>
</svg>
