<?xml version="1.0" encoding="UTF-8" standalone="no"?>
<!DOCTYPE svg PUBLIC "-//W3C//DTD SVG 1.1//EN"
 "http://www.w3.org/Graphics/SVG/1.1/DTD/svg11.dtd">
<!-- Generated by graphviz version 2.43.0 (0)
 -->
<!-- Title: CO_SDOserver_t Pages: 1 -->
<svg width="453pt" height="236pt"
 viewBox="0.00 0.00 453.00 236.00" xmlns="http://www.w3.org/2000/svg" xmlns:xlink="http://www.w3.org/1999/xlink">

<svg id="main" version="1.1" xmlns="http://www.w3.org/2000/svg" xmlns:xlink="http://www.w3.org/1999/xlink" xml:space="preserve" onload="init(evt)">
<style type="text/css"><![CDATA[
.node, .edge {opacity: 0.7;}
.node.selected, .edge.selected {opacity: 1;}
.edge:hover path { stroke: red; }
.edge:hover polygon { stroke: red; fill: red; }
]]></style>
<script type="application/ecmascript" xlink:href="svg.min.js"/>
<svg id="graph" class="graph">
<g id="graph0" class="graph" transform="scale(1 1) rotate(0) translate(4 232)">
<title>CO_SDOserver_t</title>
<!-- Node1 -->
<g id="Node000001" class="node">
<title>Node1</title>
<g id="a_Node000001"><a xlink:title="SDO server object.">
<polygon fill="#999999" stroke="#666666" points="287.5,-19 190.5,-19 190.5,0 287.5,0 287.5,-19"/>
<text text-anchor="middle" x="239" y="-7" font-family="Helvetica,sans-Serif" font-size="10.00">CO_SDOserver_t</text>
</a>
</g>
</g>
<!-- Node2 -->
<g id="Node000002" class="node">
<title>Node2</title>
<g id="a_Node000002"><a xlink:href="structCO__CANmodule__t.html" target="_top" xlink:title="Complete CAN module object.">
<polygon fill="white" stroke="#666666" points="119.5,-96 16.5,-96 16.5,-77 119.5,-77 119.5,-96"/>
<text text-anchor="middle" x="68" y="-84" font-family="Helvetica,sans-Serif" font-size="10.00">CO_CANmodule_t</text>
</a>
</g>
</g>
<!-- Node2&#45;&gt;Node1 -->
<g id="edge1_Node000001_Node000002" class="edge">
<title>Node2&#45;&gt;Node1</title>
<g id="a_edge1_Node000001_Node000002"><a xlink:title=" ">
<path fill="none" stroke="#9a32cd" stroke-dasharray="5,2" d="M70.79,-66.69C73.3,-56.41 78.05,-44.31 87,-37 102.56,-24.29 152.07,-17.38 190.4,-13.83"/>
<polygon fill="#9a32cd" stroke="#9a32cd" points="67.29,-66.34 68.85,-76.82 74.17,-67.66 67.29,-66.34"/>
</a>
</g>
<text text-anchor="middle" x="114.5" y="-51" font-family="Helvetica,sans-Serif" font-size="10.00" fill="grey"> CANdevRx</text>
<text text-anchor="middle" x="114.5" y="-40" font-family="Helvetica,sans-Serif" font-size="10.00" fill="grey">CANdevTx</text>
</g>
<!-- Node3 -->
<g id="Node000003" class="node">
<title>Node3</title>
<g id="a_Node000003"><a xlink:href="structCO__CANrx__t.html" target="_top" xlink:title="Configuration object for CAN received message for specific CANopenNode Object.">
<polygon fill="white" stroke="#666666" points="76,-162 0,-162 0,-143 76,-143 76,-162"/>
<text text-anchor="middle" x="38" y="-150" font-family="Helvetica,sans-Serif" font-size="10.00">CO_CANrx_t</text>
</a>
</g>
</g>
<!-- Node3&#45;&gt;Node2 -->
<g id="edge2_Node000002_Node000003" class="edge">
<title>Node3&#45;&gt;Node2</title>
<g id="a_edge2_Node000002_Node000003"><a xlink:title=" ">
<path fill="none" stroke="#9a32cd" stroke-dasharray="5,2" d="M35.64,-132.58C35.61,-126.42 36.4,-119.7 39,-114 42.29,-106.8 48.55,-100.69 54.42,-96.15"/>
<polygon fill="#9a32cd" stroke="#9a32cd" points="32.16,-133 36.36,-142.73 39.14,-132.5 32.16,-133"/>
</a>
</g>
<text text-anchor="middle" x="59" y="-117" font-family="Helvetica,sans-Serif" font-size="10.00" fill="grey"> rxArray</text>
</g>
<!-- Node4 -->
<g id="Node000004" class="node">
<title>Node4</title>
<g id="a_Node000004"><a xlink:href="structCO__CANtx__t.html" target="_top" xlink:title="Configuration object for CAN transmit message for specific CANopenNode Object.">
<polygon fill="white" stroke="#666666" points="182,-162 106,-162 106,-143 182,-143 182,-162"/>
<text text-anchor="middle" x="144" y="-150" font-family="Helvetica,sans-Serif" font-size="10.00">CO_CANtx_t</text>
</a>
</g>
</g>
<!-- Node4&#45;&gt;Node1 -->
<g id="edge4_Node000001_Node000004" class="edge">
<title>Node4&#45;&gt;Node1</title>
<g id="a_edge4_Node000001_Node000004"><a xlink:title=" ">
<path fill="none" stroke="#9a32cd" stroke-dasharray="5,2" d="M148.01,-132.55C151.92,-116.81 158.94,-94.26 170,-77 185.62,-52.63 211.88,-30.66 227.1,-19.1"/>
<polygon fill="#9a32cd" stroke="#9a32cd" points="144.51,-132.12 145.69,-142.65 151.34,-133.69 144.51,-132.12"/>
</a>
</g>
<text text-anchor="middle" x="197.5" y="-84" font-family="Helvetica,sans-Serif" font-size="10.00" fill="grey"> CANtxBuff</text>
</g>
<!-- Node4&#45;&gt;Node2 -->
<g id="edge3_Node000002_Node000004" class="edge">
<title>Node4&#45;&gt;Node2</title>
<g id="a_edge3_Node000002_Node000004"><a xlink:title=" ">
<path fill="none" stroke="#9a32cd" stroke-dasharray="5,2" d="M119.24,-137.45C113.37,-133.69 107.29,-129.44 102,-125 91.5,-116.18 81.17,-104.19 74.71,-96.16"/>
<polygon fill="#9a32cd" stroke="#9a32cd" points="117.79,-140.66 128.15,-142.88 121.43,-134.68 117.79,-140.66"/>
</a>
</g>
<text text-anchor="middle" x="122" y="-117" font-family="Helvetica,sans-Serif" font-size="10.00" fill="grey"> txArray</text>
</g>
<!-- Node5 -->
<g id="Node000005" class="node">
<title>Node5</title>
<g id="a_Node000005"><a xlink:href="structOD__t.html" target="_top" xlink:title="Object Dictionary.">
<polygon fill="white" stroke="#666666" points="333.5,-96 292.5,-96 292.5,-77 333.5,-77 333.5,-96"/>
<text text-anchor="middle" x="313" y="-84" font-family="Helvetica,sans-Serif" font-size="10.00">OD_t</text>
</a>
</g>
</g>
<!-- Node5&#45;&gt;Node1 -->
<g id="edge5_Node000001_Node000005" class="edge">
<title>Node5&#45;&gt;Node1</title>
<g id="a_edge5_Node000001_Node000005"><a xlink:title=" ">
<path fill="none" stroke="#9a32cd" stroke-dasharray="5,2" d="M297.3,-69.59C282.05,-54.13 259.49,-31.27 247.39,-19"/>
<polygon fill="#9a32cd" stroke="#9a32cd" points="295,-72.24 304.51,-76.9 299.98,-67.32 295,-72.24"/>
</a>
</g>
<text text-anchor="middle" x="294.5" y="-45.5" font-family="Helvetica,sans-Serif" font-size="10.00" fill="grey"> OD</text>
</g>
<!-- Node6 -->
<g id="Node000006" class="node">
<title>Node6</title>
<g id="a_Node000006"><a xlink:href="structOD__entry__t.html" target="_top" xlink:title="Object Dictionary entry for one OD object.">
<polygon fill="white" stroke="#666666" points="342.5,-162 271.5,-162 271.5,-143 342.5,-143 342.5,-162"/>
<text text-anchor="middle" x="307" y="-150" font-family="Helvetica,sans-Serif" font-size="10.00">OD_entry_t</text>
</a>
</g>
</g>
<!-- Node6&#45;&gt;Node5 -->
<g id="edge6_Node000005_Node000006" class="edge">
<title>Node6&#45;&gt;Node5</title>
<g id="a_edge6_Node000005_Node000006"><a xlink:title=" ">
<path fill="none" stroke="#9a32cd" stroke-dasharray="5,2" d="M331.72,-136.79C335.47,-133.41 338.82,-129.47 341,-125 346.28,-114.2 336.09,-103.35 326.56,-96.12"/>
<polygon fill="#9a32cd" stroke="#9a32cd" points="329.5,-134.08 323.68,-142.93 333.75,-139.64 329.5,-134.08"/>
</a>
</g>
<text text-anchor="middle" x="352.5" y="-117" font-family="Helvetica,sans-Serif" font-size="10.00" fill="grey"> list</text>
</g>
<!-- Node7 -->
<g id="Node000007" class="node">
<title>Node7</title>
<g id="a_Node000007"><a xlink:href="structOD__extension__t.html" target="_top" xlink:title="Extension of OD object, which can optionally be specified by application in initialization phase with...">
<polygon fill="white" stroke="#666666" points="302,-228 208,-228 208,-209 302,-209 302,-228"/>
<text text-anchor="middle" x="255" y="-216" font-family="Helvetica,sans-Serif" font-size="10.00">OD_extension_t</text>
</a>
</g>
</g>
<!-- Node7&#45;&gt;Node1 -->
<g id="edge10_Node000001_Node000007" class="edge">
<title>Node7&#45;&gt;Node1</title>
<g id="a_edge10_Node000001_Node000007"><a xlink:title=" ">
<path fill="none" stroke="#9a32cd" stroke-dasharray="5,2" d="M250.09,-199.15C245.39,-180.61 238.65,-151.06 236,-125 232,-85.63 236.03,-38.28 238.02,-19.15"/>
<polygon fill="#9a32cd" stroke="#9a32cd" points="246.72,-200.12 252.63,-208.92 253.49,-198.36 246.72,-200.12"/>
</a>
</g>
<text text-anchor="middle" x="286.5" y="-117" font-family="Helvetica,sans-Serif" font-size="10.00" fill="grey"> OD_1200_extension</text>
</g>
<!-- Node7&#45;&gt;Node6 -->
<g id="edge7_Node000006_Node000007" class="edge">
<title>Node7&#45;&gt;Node6</title>
<g id="a_edge7_Node000006_Node000007"><a xlink:title=" ">
<path fill="none" stroke="#9a32cd" stroke-dasharray="5,2" d="M268.6,-200.77C278.57,-188.49 291.73,-172.3 299.76,-162.41"/>
<polygon fill="#9a32cd" stroke="#9a32cd" points="265.6,-198.9 262.01,-208.87 271.04,-203.31 265.6,-198.9"/>
</a>
</g>
<text text-anchor="middle" x="311" y="-183" font-family="Helvetica,sans-Serif" font-size="10.00" fill="grey"> extension</text>
</g>
<!-- Node8 -->
<g id="Node000008" class="node">
<title>Node8</title>
<g id="a_Node000008"><a xlink:href="structOD__IO__t.html" target="_top" xlink:title="Structure for input / output on the OD variable.">
<polygon fill="white" stroke="#666666" points="420,-96 364,-96 364,-77 420,-77 420,-96"/>
<text text-anchor="middle" x="392" y="-84" font-family="Helvetica,sans-Serif" font-size="10.00">OD_IO_t</text>
</a>
</g>
</g>
<!-- Node8&#45;&gt;Node1 -->
<g id="edge8_Node000001_Node000008" class="edge">
<title>Node8&#45;&gt;Node1</title>
<g id="a_edge8_Node000001_Node000008"><a xlink:title=" ">
<path fill="none" stroke="#9a32cd" stroke-dasharray="5,2" d="M369.74,-71.36C353.1,-61.11 329.6,-47.3 308,-37 293.75,-30.2 277.27,-23.82 263.99,-19.02"/>
<polygon fill="#9a32cd" stroke="#9a32cd" points="368.34,-74.61 378.68,-76.93 372.04,-68.67 368.34,-74.61"/>
</a>
</g>
<text text-anchor="middle" x="365" y="-45.5" font-family="Helvetica,sans-Serif" font-size="10.00" fill="grey"> OD_IO</text>
</g>
<!-- Node9 -->
<g id="Node000009" class="node">
<title>Node9</title>
<g id="a_Node000009"><a xlink:href="structOD__stream__t.html" target="_top" xlink:title="IO stream structure, used for read/write access to OD variable, part of OD_IO_t.">
<polygon fill="white" stroke="#666666" points="445,-162 365,-162 365,-143 445,-143 445,-162"/>
<text text-anchor="middle" x="405" y="-150" font-family="Helvetica,sans-Serif" font-size="10.00">OD_stream_t</text>
</a>
</g>
</g>
<!-- Node9&#45;&gt;Node8 -->
<g id="edge9_Node000008_Node000009" class="edge">
<title>Node9&#45;&gt;Node8</title>
<g id="a_edge9_Node000008_Node000009"><a xlink:title=" ">
<path fill="none" stroke="#9a32cd" stroke-dasharray="5,2" d="M401.23,-132.95C398.79,-120.93 395.72,-105.82 393.81,-96.41"/>
<polygon fill="#9a32cd" stroke="#9a32cd" points="397.83,-133.77 403.25,-142.87 404.69,-132.37 397.83,-133.77"/>
</a>
</g>
<text text-anchor="middle" x="418" y="-117" font-family="Helvetica,sans-Serif" font-size="10.00" fill="grey"> stream</text>
</g>
</g>
</svg>
</svg>

<style type='text/css'>
<![CDATA[
[data-mouse-over-selected='false'] { opacity: 0.7; }
[data-mouse-over-selected='true']  { opacity: 1.0; }
]]>
</style>
<script type="application/ecmascript"><![CDATA[
document.addEventListener('DOMContentLoaded', (event) => {
  highlightEdges();
  highlightAdjacentNodes();
});
]]></script>
</svg>
