<?xml version="1.0" encoding="UTF-8" standalone="no"?>
<!DOCTYPE svg PUBLIC "-//W3C//DTD SVG 1.1//EN"
 "http://www.w3.org/Graphics/SVG/1.1/DTD/svg11.dtd">
<!-- Generated by graphviz version 2.43.0 (0)
 -->
<!-- Title: OD_t Pages: 1 -->
<svg width="107pt" height="159pt"
 viewBox="0.00 0.00 107.00 159.00" xmlns="http://www.w3.org/2000/svg" xmlns:xlink="http://www.w3.org/1999/xlink">
<g id="graph0" class="graph" transform="scale(1 1) rotate(0) translate(4 155)">
<title>OD_t</title>
<!-- Node1 -->
<g id="Node000001" class="node">
<title>Node1</title>
<g id="a_Node000001"><a xlink:title="Object Dictionary.">
<polygon fill="#999999" stroke="#666666" points="67.5,-19 26.5,-19 26.5,0 67.5,0 67.5,-19"/>
<text text-anchor="middle" x="47" y="-7" font-family="Helvetica,sans-Serif" font-size="10.00">OD_t</text>
</a>
</g>
</g>
<!-- Node2 -->
<g id="Node000002" class="node">
<title>Node2</title>
<g id="a_Node000002"><a xlink:href="structOD__entry__t.html" target="_top" xlink:title="Object Dictionary entry for one OD object.">
<polygon fill="white" stroke="#666666" points="82.5,-85 11.5,-85 11.5,-66 82.5,-66 82.5,-85"/>
<text text-anchor="middle" x="47" y="-73" font-family="Helvetica,sans-Serif" font-size="10.00">OD_entry_t</text>
</a>
</g>
</g>
<!-- Node2&#45;&gt;Node1 -->
<g id="edge1_Node000001_Node000002" class="edge">
<title>Node2&#45;&gt;Node1</title>
<g id="a_edge1_Node000001_Node000002"><a xlink:title=" ">
<path fill="none" stroke="#9a32cd" stroke-dasharray="5,2" d="M47,-55.58C47,-43.63 47,-28.72 47,-19.41"/>
<polygon fill="#9a32cd" stroke="#9a32cd" points="43.5,-55.87 47,-65.87 50.5,-55.87 43.5,-55.87"/>
</a>
</g>
<text text-anchor="middle" x="56.5" y="-40" font-family="Helvetica,sans-Serif" font-size="10.00" fill="grey"> list</text>
</g>
<!-- Node3 -->
<g id="Node000003" class="node">
<title>Node3</title>
<g id="a_Node000003"><a xlink:href="structOD__extension__t.html" target="_top" xlink:title="Extension of OD object, which can optionally be specified by application in initialization phase with...">
<polygon fill="white" stroke="#666666" points="94,-151 0,-151 0,-132 94,-132 94,-151"/>
<text text-anchor="middle" x="47" y="-139" font-family="Helvetica,sans-Serif" font-size="10.00">OD_extension_t</text>
</a>
</g>
</g>
<!-- Node3&#45;&gt;Node2 -->
<g id="edge2_Node000002_Node000003" class="edge">
<title>Node3&#45;&gt;Node2</title>
<g id="a_edge2_Node000002_Node000003"><a xlink:title=" ">
<path fill="none" stroke="#9a32cd" stroke-dasharray="5,2" d="M47,-121.58C47,-109.63 47,-94.72 47,-85.41"/>
<polygon fill="#9a32cd" stroke="#9a32cd" points="43.5,-121.87 47,-131.87 50.5,-121.87 43.5,-121.87"/>
</a>
</g>
<text text-anchor="middle" x="73" y="-106" font-family="Helvetica,sans-Serif" font-size="10.00" fill="grey"> extension</text>
</g>
</g>
</svg>
