<?xml version="1.0" encoding="UTF-8" standalone="no"?>
<!DOCTYPE svg PUBLIC "-//W3C//DTD SVG 1.1//EN"
 "http://www.w3.org/Graphics/SVG/1.1/DTD/svg11.dtd">
<!-- Generated by graphviz version 2.43.0 (0)
 -->
<!-- Title: CO_nodeGuardingMaster_t Pages: 1 -->
<svg width="668pt" height="258pt"
 viewBox="0.00 0.00 668.00 258.00" xmlns="http://www.w3.org/2000/svg" xmlns:xlink="http://www.w3.org/1999/xlink">
<g id="graph0" class="graph" transform="scale(1 1) rotate(0) translate(4 254)">
<title>CO_nodeGuardingMaster_t</title>
<!-- Node1 -->
<g id="Node000001" class="node">
<title>Node1</title>
<g id="a_Node000001"><a xlink:title="Node Guarding master object.">
<polygon fill="#999999" stroke="#666666" points="486,-19 339,-19 339,0 486,0 486,-19"/>
<text text-anchor="middle" x="412.5" y="-7" font-family="Helvetica,sans-Serif" font-size="10.00">CO_nodeGuardingMaster_t</text>
</a>
</g>
</g>
<!-- Node2 -->
<g id="Node000002" class="node">
<title>Node2</title>
<g id="a_Node000002"><a xlink:href="structCO__EM__t.html" target="_top" xlink:title="Emergency object.">
<polygon fill="white" stroke="#666666" points="330.5,-85 270.5,-85 270.5,-66 330.5,-66 330.5,-85"/>
<text text-anchor="middle" x="300.5" y="-73" font-family="Helvetica,sans-Serif" font-size="10.00">CO_EM_t</text>
</a>
</g>
</g>
<!-- Node2&#45;&gt;Node1 -->
<g id="edge1_Node000001_Node000002" class="edge">
<title>Node2&#45;&gt;Node1</title>
<g id="a_edge1_Node000001_Node000002"><a xlink:title=" ">
<path fill="none" stroke="#9a32cd" stroke-dasharray="5,2" d="M324.37,-60.86C346.42,-48.26 378.52,-29.92 397.28,-19.2"/>
<polygon fill="#9a32cd" stroke="#9a32cd" points="322.55,-57.87 315.6,-65.87 326.02,-63.95 322.55,-57.87"/>
</a>
</g>
<text text-anchor="middle" x="373" y="-40" font-family="Helvetica,sans-Serif" font-size="10.00" fill="grey"> em</text>
</g>
<!-- Node3 -->
<g id="Node000003" class="node">
<title>Node3</title>
<g id="a_Node000003"><a xlink:href="structCO__CANmodule__t.html" target="_top" xlink:title="Complete CAN module object.">
<polygon fill="white" stroke="#666666" points="103,-184 0,-184 0,-165 103,-165 103,-184"/>
<text text-anchor="middle" x="51.5" y="-172" font-family="Helvetica,sans-Serif" font-size="10.00">CO_CANmodule_t</text>
</a>
</g>
</g>
<!-- Node3&#45;&gt;Node1 -->
<g id="edge8_Node000001_Node000003" class="edge">
<title>Node3&#45;&gt;Node1</title>
<g id="a_edge8_Node000001_Node000003"><a xlink:title=" ">
<path fill="none" stroke="#9a32cd" stroke-dasharray="5,2" d="M50.13,-154.67C50.05,-138.89 52.59,-116.77 65.5,-103 104.14,-61.78 262.01,-32.56 350.91,-19.01"/>
<polygon fill="#9a32cd" stroke="#9a32cd" points="46.64,-154.99 50.54,-164.84 53.63,-154.71 46.64,-154.99"/>
</a>
</g>
<text text-anchor="middle" x="164" y="-73" font-family="Helvetica,sans-Serif" font-size="10.00" fill="grey"> CANdevTx</text>
</g>
<!-- Node3&#45;&gt;Node2 -->
<g id="edge2_Node000002_Node000003" class="edge">
<title>Node3&#45;&gt;Node2</title>
<g id="a_edge2_Node000002_Node000003"><a xlink:title=" ">
<path fill="none" stroke="#9a32cd" stroke-dasharray="5,2" d="M60.73,-155.93C70.91,-137.23 87.22,-109.46 97.5,-103 125.63,-85.31 220.98,-79.33 270.34,-77.38"/>
<polygon fill="#9a32cd" stroke="#9a32cd" points="57.53,-154.48 55.9,-164.95 63.7,-157.79 57.53,-154.48"/>
</a>
</g>
<text text-anchor="middle" x="125" y="-122.5" font-family="Helvetica,sans-Serif" font-size="10.00" fill="grey"> CANdevTx</text>
</g>
<!-- Node4 -->
<g id="Node000004" class="node">
<title>Node4</title>
<g id="a_Node000004"><a xlink:href="structCO__CANrx__t.html" target="_top" xlink:title="Configuration object for CAN received message for specific CANopenNode Object.">
<polygon fill="white" stroke="#666666" points="89.5,-250 13.5,-250 13.5,-231 89.5,-231 89.5,-250"/>
<text text-anchor="middle" x="51.5" y="-238" font-family="Helvetica,sans-Serif" font-size="10.00">CO_CANrx_t</text>
</a>
</g>
</g>
<!-- Node4&#45;&gt;Node3 -->
<g id="edge3_Node000003_Node000004" class="edge">
<title>Node4&#45;&gt;Node3</title>
<g id="a_edge3_Node000003_Node000004"><a xlink:title=" ">
<path fill="none" stroke="#9a32cd" stroke-dasharray="5,2" d="M51.5,-220.58C51.5,-208.63 51.5,-193.72 51.5,-184.41"/>
<polygon fill="#9a32cd" stroke="#9a32cd" points="48,-220.87 51.5,-230.87 55,-220.87 48,-220.87"/>
</a>
</g>
<text text-anchor="middle" x="71.5" y="-205" font-family="Helvetica,sans-Serif" font-size="10.00" fill="grey"> rxArray</text>
</g>
<!-- Node5 -->
<g id="Node000005" class="node">
<title>Node5</title>
<g id="a_Node000005"><a xlink:href="structCO__CANtx__t.html" target="_top" xlink:title="Configuration object for CAN transmit message for specific CANopenNode Object.">
<polygon fill="white" stroke="#666666" points="313.5,-250 237.5,-250 237.5,-231 313.5,-231 313.5,-250"/>
<text text-anchor="middle" x="275.5" y="-238" font-family="Helvetica,sans-Serif" font-size="10.00">CO_CANtx_t</text>
</a>
</g>
</g>
<!-- Node5&#45;&gt;Node1 -->
<g id="edge9_Node000001_Node000005" class="edge">
<title>Node5&#45;&gt;Node1</title>
<g id="a_edge9_Node000001_Node000005"><a xlink:title=" ">
<path fill="none" stroke="#9a32cd" stroke-dasharray="5,2" d="M324.18,-237.55C362.44,-233.14 413.48,-220.28 439.5,-184 477.35,-131.24 433.52,-46.17 417.73,-19.07"/>
<polygon fill="#9a32cd" stroke="#9a32cd" points="323.36,-234.11 313.76,-238.58 324.05,-241.08 323.36,-234.11"/>
</a>
</g>
<text text-anchor="middle" x="482" y="-122.5" font-family="Helvetica,sans-Serif" font-size="10.00" fill="grey"> CANtxBuff</text>
</g>
<!-- Node5&#45;&gt;Node2 -->
<g id="edge6_Node000002_Node000005" class="edge">
<title>Node5&#45;&gt;Node2</title>
<g id="a_edge6_Node000002_Node000005"><a xlink:title=" ">
<path fill="none" stroke="#9a32cd" stroke-dasharray="5,2" d="M277.47,-220.67C279.12,-205.58 281.65,-183.89 284.5,-165 288.94,-135.51 295.66,-100.76 298.79,-85.02"/>
<polygon fill="#9a32cd" stroke="#9a32cd" points="273.97,-220.45 276.39,-230.76 280.93,-221.19 273.97,-220.45"/>
</a>
</g>
<text text-anchor="middle" x="312" y="-172" font-family="Helvetica,sans-Serif" font-size="10.00" fill="grey"> CANtxBuff</text>
</g>
<!-- Node5&#45;&gt;Node3 -->
<g id="edge4_Node000003_Node000005" class="edge">
<title>Node5&#45;&gt;Node3</title>
<g id="a_edge4_Node000003_Node000005"><a xlink:title=" ">
<path fill="none" stroke="#9a32cd" stroke-dasharray="5,2" d="M235.47,-228.06C191.33,-215.45 121.3,-195.44 81.59,-184.1"/>
<polygon fill="#9a32cd" stroke="#9a32cd" points="234.71,-231.49 245.29,-230.87 236.64,-224.76 234.71,-231.49"/>
</a>
</g>
<text text-anchor="middle" x="197.5" y="-205" font-family="Helvetica,sans-Serif" font-size="10.00" fill="grey"> txArray</text>
</g>
<!-- Node6 -->
<g id="Node000006" class="node">
<title>Node6</title>
<g id="a_Node000006"><a xlink:href="structCO__EM__fifo__t.html" target="_top" xlink:title="Fifo buffer for emergency producer and error history.">
<polygon fill="white" stroke="#666666" points="430.5,-184 348.5,-184 348.5,-165 430.5,-165 430.5,-184"/>
<text text-anchor="middle" x="389.5" y="-172" font-family="Helvetica,sans-Serif" font-size="10.00">CO_EM_fifo_t</text>
</a>
</g>
</g>
<!-- Node6&#45;&gt;Node2 -->
<g id="edge5_Node000002_Node000006" class="edge">
<title>Node6&#45;&gt;Node2</title>
<g id="a_edge5_Node000002_Node000006"><a xlink:title=" ">
<path fill="none" stroke="#9a32cd" stroke-dasharray="5,2" d="M374.83,-157.51C355.85,-136.83 323.47,-101.53 308.51,-85.23"/>
<polygon fill="#9a32cd" stroke="#9a32cd" points="372.26,-159.89 381.6,-164.89 377.42,-155.16 372.26,-159.89"/>
</a>
</g>
<text text-anchor="middle" x="373.5" y="-122.5" font-family="Helvetica,sans-Serif" font-size="10.00" fill="grey"> fifo</text>
</g>
<!-- Node7 -->
<g id="Node000007" class="node">
<title>Node7</title>
<g id="a_Node000007"><a xlink:href="structOD__extension__t.html" target="_top" xlink:title="Extension of OD object, which can optionally be specified by application in initialization phase with...">
<polygon fill="white" stroke="#666666" points="215.5,-184 121.5,-184 121.5,-165 215.5,-165 215.5,-184"/>
<text text-anchor="middle" x="168.5" y="-172" font-family="Helvetica,sans-Serif" font-size="10.00">OD_extension_t</text>
</a>
</g>
</g>
<!-- Node7&#45;&gt;Node2 -->
<g id="edge7_Node000002_Node000007" class="edge">
<title>Node7&#45;&gt;Node2</title>
<g id="a_edge7_Node000002_Node000007"><a xlink:title=" ">
<path fill="none" stroke="#9a32cd" stroke-dasharray="5,2" d="M160.89,-155.4C155.66,-139.76 151.57,-117.46 163.5,-103 176.76,-86.93 234.05,-80.49 270.21,-78"/>
<polygon fill="#9a32cd" stroke="#9a32cd" points="157.71,-156.87 164.52,-164.99 164.26,-154.39 157.71,-156.87"/>
</a>
</g>
<text text-anchor="middle" x="225" y="-139" font-family="Helvetica,sans-Serif" font-size="10.00" fill="grey"> OD_1003_extension</text>
<text text-anchor="middle" x="225" y="-128" font-family="Helvetica,sans-Serif" font-size="10.00" fill="grey">OD_1014_extension</text>
<text text-anchor="middle" x="225" y="-117" font-family="Helvetica,sans-Serif" font-size="10.00" fill="grey">OD_1015_extension</text>
<text text-anchor="middle" x="225" y="-106" font-family="Helvetica,sans-Serif" font-size="10.00" fill="grey">OD_statusBits_extension</text>
</g>
<!-- Node8 -->
<g id="Node000008" class="node">
<title>Node8</title>
<g id="a_Node000008"><a xlink:href="structCO__nodeGuardingMasterNode__t.html" target="_top" xlink:title="Node Guarding master &#45; monitored node.">
<polygon fill="white" stroke="#666666" points="660,-85 487,-85 487,-66 660,-66 660,-85"/>
<text text-anchor="middle" x="573.5" y="-73" font-family="Helvetica,sans-Serif" font-size="10.00">CO_nodeGuardingMasterNode_t</text>
</a>
</g>
</g>
<!-- Node8&#45;&gt;Node1 -->
<g id="edge10_Node000001_Node000008" class="edge">
<title>Node8&#45;&gt;Node1</title>
<g id="a_edge10_Node000001_Node000008"><a xlink:title=" ">
<path fill="none" stroke="#9a32cd" stroke-dasharray="5,2" d="M542.08,-62.01C510.26,-49.36 461.89,-30.13 434.13,-19.1"/>
<polygon fill="#9a32cd" stroke="#9a32cd" points="541.2,-65.43 551.79,-65.87 543.79,-58.92 541.2,-65.43"/>
</a>
</g>
<text text-anchor="middle" x="519" y="-40" font-family="Helvetica,sans-Serif" font-size="10.00" fill="grey"> nodes</text>
</g>
</g>
</svg>
