<?xml version="1.0" encoding="UTF-8" standalone="no"?>
<!DOCTYPE svg PUBLIC "-//W3C//DTD SVG 1.1//EN"
 "http://www.w3.org/Graphics/SVG/1.1/DTD/svg11.dtd">
<!-- Generated by graphviz version 2.43.0 (0)
 -->
<!-- Title: CO_NMT_t Pages: 1 -->
<svg width="481pt" height="264pt"
 viewBox="0.00 0.00 481.00 264.00" xmlns="http://www.w3.org/2000/svg" xmlns:xlink="http://www.w3.org/1999/xlink">
<g id="graph0" class="graph" transform="scale(1 1) rotate(0) translate(4 260)">
<title>CO_NMT_t</title>
<polygon fill="white" stroke="transparent" points="-4,4 -4,-260 477,-260 477,4 -4,4"/>
<!-- Node1 -->
<g id="node1" class="node">
<title>Node1</title>
<g id="a_node1"><a xlink:title="NMT consumer and Heartbeat producer object.">
<polygon fill="#bfbfbf" stroke="black" points="257,-0.5 257,-19.5 325,-19.5 325,-0.5 257,-0.5"/>
<text text-anchor="middle" x="291" y="-7.5" font-family="Helvetica,sans-Serif" font-size="10.00">CO_NMT_t</text>
</a>
</g>
</g>
<!-- Node2 -->
<g id="node2" class="node">
<title>Node2</title>
<g id="a_node2"><a xlink:href="structCO__EM__t.html" target="_top" xlink:title="Emergency object.">
<polygon fill="white" stroke="black" points="156,-68.5 156,-87.5 216,-87.5 216,-68.5 156,-68.5"/>
<text text-anchor="middle" x="186" y="-75.5" font-family="Helvetica,sans-Serif" font-size="10.00">CO_EM_t</text>
</a>
</g>
</g>
<!-- Node2&#45;&gt;Node1 -->
<g id="edge1" class="edge">
<title>Node2&#45;&gt;Node1</title>
<path fill="none" stroke="#9a32cd" stroke-dasharray="5,2" d="M208.29,-62.99C229.18,-49.86 259.74,-30.65 277.27,-19.63"/>
<polygon fill="#9a32cd" stroke="#9a32cd" points="206.33,-60.09 199.73,-68.37 210.06,-66.01 206.33,-60.09"/>
<text text-anchor="middle" x="257.5" y="-41" font-family="Helvetica,sans-Serif" font-size="10.00"> em</text>
</g>
<!-- Node3 -->
<g id="node3" class="node">
<title>Node3</title>
<g id="a_node3"><a xlink:href="structCO__CANtx__t.html" target="_top" xlink:title="Configuration object for CAN transmit message for specific CANopenNode Object.">
<polygon fill="white" stroke="black" points="118,-236.5 118,-255.5 194,-255.5 194,-236.5 118,-236.5"/>
<text text-anchor="middle" x="156" y="-243.5" font-family="Helvetica,sans-Serif" font-size="10.00">CO_CANtx_t</text>
</a>
</g>
</g>
<!-- Node3&#45;&gt;Node1 -->
<g id="edge7" class="edge">
<title>Node3&#45;&gt;Node1</title>
<path fill="none" stroke="#9a32cd" stroke-dasharray="5,2" d="M204.5,-241.68C248.47,-236.49 313.09,-223.17 358,-189 399.25,-157.62 404.16,-138.95 418,-89 420.61,-79.58 423.34,-75.19 418,-67 397.6,-35.71 355.35,-21.78 325.18,-15.66"/>
<polygon fill="#9a32cd" stroke="#9a32cd" points="203.9,-238.23 194.34,-242.78 204.66,-245.19 203.9,-238.23"/>
<text text-anchor="middle" x="442.5" y="-132" font-family="Helvetica,sans-Serif" font-size="10.00"> HB_TXbuff</text>
<text text-anchor="middle" x="442.5" y="-121" font-family="Helvetica,sans-Serif" font-size="10.00">NMT_TXbuff</text>
</g>
<!-- Node3&#45;&gt;Node2 -->
<g id="edge2" class="edge">
<title>Node3&#45;&gt;Node2</title>
<path fill="none" stroke="#9a32cd" stroke-dasharray="5,2" d="M157.52,-226.28C159.96,-199.53 165.58,-148.96 176,-107 177.64,-100.39 180.25,-93.15 182.39,-87.69"/>
<polygon fill="#9a32cd" stroke="#9a32cd" points="154.01,-226.22 156.64,-236.49 160.99,-226.82 154.01,-226.22"/>
<text text-anchor="middle" x="192.5" y="-176.5" font-family="Helvetica,sans-Serif" font-size="10.00"> CANtxBuff</text>
</g>
<!-- Node4 -->
<g id="node4" class="node">
<title>Node4</title>
<g id="a_node4"><a xlink:href="structCO__CANmodule__t.html" target="_top" xlink:title="Complete CAN module object.">
<polygon fill="white" stroke="black" points="9.5,-169.5 9.5,-188.5 112.5,-188.5 112.5,-169.5 9.5,-169.5"/>
<text text-anchor="middle" x="61" y="-176.5" font-family="Helvetica,sans-Serif" font-size="10.00">CO_CANmodule_t</text>
</a>
</g>
</g>
<!-- Node3&#45;&gt;Node4 -->
<g id="edge4" class="edge">
<title>Node3&#45;&gt;Node4</title>
<path fill="none" stroke="#9a32cd" stroke-dasharray="5,2" d="M126.26,-232.02C118.13,-227.97 109.49,-223.19 102,-218 89.39,-209.27 76.73,-196.84 68.88,-188.61"/>
<polygon fill="#9a32cd" stroke="#9a32cd" points="124.95,-235.27 135.49,-236.42 127.97,-228.95 124.95,-235.27"/>
<text text-anchor="middle" x="122" y="-210" font-family="Helvetica,sans-Serif" font-size="10.00"> txArray</text>
</g>
<!-- Node4&#45;&gt;Node1 -->
<g id="edge8" class="edge">
<title>Node4&#45;&gt;Node1</title>
<path fill="none" stroke="#9a32cd" stroke-dasharray="5,2" d="M55.58,-159.63C49.68,-135.53 43.71,-93.22 65,-67 88.95,-37.5 199.61,-21.13 256.7,-14.51"/>
<polygon fill="#9a32cd" stroke="#9a32cd" points="52.2,-160.56 58.18,-169.3 58.96,-158.74 52.2,-160.56"/>
<text text-anchor="middle" x="106" y="-81" font-family="Helvetica,sans-Serif" font-size="10.00"> NMT_CANdevTx</text>
<text text-anchor="middle" x="106" y="-70" font-family="Helvetica,sans-Serif" font-size="10.00">HB_CANdevTx</text>
</g>
<!-- Node4&#45;&gt;Node2 -->
<g id="edge3" class="edge">
<title>Node4&#45;&gt;Node2</title>
<path fill="none" stroke="#9a32cd" stroke-dasharray="5,2" d="M63.18,-158.86C66.01,-142.84 72.44,-120.5 87,-107 92.17,-102.2 128.67,-92.66 155.86,-86.06"/>
<polygon fill="#9a32cd" stroke="#9a32cd" points="59.66,-158.79 61.7,-169.18 66.59,-159.78 59.66,-158.79"/>
<text text-anchor="middle" x="114.5" y="-126.5" font-family="Helvetica,sans-Serif" font-size="10.00"> CANdevTx</text>
</g>
<!-- Node5 -->
<g id="node5" class="node">
<title>Node5</title>
<g id="a_node5"><a xlink:href="structCO__CANrx__t.html" target="_top" xlink:title="Configuration object for CAN received message for specific CANopenNode Object.">
<polygon fill="white" stroke="black" points="0,-236.5 0,-255.5 76,-255.5 76,-236.5 0,-236.5"/>
<text text-anchor="middle" x="38" y="-243.5" font-family="Helvetica,sans-Serif" font-size="10.00">CO_CANrx_t</text>
</a>
</g>
</g>
<!-- Node5&#45;&gt;Node4 -->
<g id="edge5" class="edge">
<title>Node5&#45;&gt;Node4</title>
<path fill="none" stroke="#9a32cd" stroke-dasharray="5,2" d="M36.1,-226.03C36.1,-219.8 36.79,-212.96 39,-207 41.61,-199.97 46.85,-193.42 51.56,-188.53"/>
<polygon fill="#9a32cd" stroke="#9a32cd" points="32.62,-226.46 36.67,-236.25 39.61,-226.07 32.62,-226.46"/>
<text text-anchor="middle" x="59" y="-210" font-family="Helvetica,sans-Serif" font-size="10.00"> rxArray</text>
</g>
<!-- Node6 -->
<g id="node6" class="node">
<title>Node6</title>
<g id="a_node6"><a xlink:href="structOD__extension__t.html" target="_top" xlink:title="Extension of OD object, which can optionally be specified by application in initialization phase with...">
<polygon fill="white" stroke="black" points="255,-169.5 255,-188.5 349,-188.5 349,-169.5 255,-169.5"/>
<text text-anchor="middle" x="302" y="-176.5" font-family="Helvetica,sans-Serif" font-size="10.00">OD_extension_t</text>
</a>
</g>
</g>
<!-- Node6&#45;&gt;Node1 -->
<g id="edge9" class="edge">
<title>Node6&#45;&gt;Node1</title>
<path fill="none" stroke="#9a32cd" stroke-dasharray="5,2" d="M310.44,-160C311.5,-157.05 312.42,-153.98 313,-151 322.7,-101.5 302.76,-41.5 294.43,-19.56"/>
<polygon fill="#9a32cd" stroke="#9a32cd" points="307.2,-158.69 306.57,-169.27 313.65,-161.39 307.2,-158.69"/>
<text text-anchor="middle" x="363.5" y="-75.5" font-family="Helvetica,sans-Serif" font-size="10.00"> OD_1017_extension</text>
</g>
<!-- Node6&#45;&gt;Node2 -->
<g id="edge6" class="edge">
<title>Node6&#45;&gt;Node2</title>
<path fill="none" stroke="#9a32cd" stroke-dasharray="5,2" d="M244.77,-170.6C221.09,-166.28 197.42,-159.91 190,-151 174.93,-132.92 179.84,-102.57 183.51,-87.71"/>
<polygon fill="#9a32cd" stroke="#9a32cd" points="244.43,-174.09 254.88,-172.32 245.61,-167.19 244.43,-174.09"/>
<text text-anchor="middle" x="251.5" y="-143" font-family="Helvetica,sans-Serif" font-size="10.00"> OD_1003_extension</text>
<text text-anchor="middle" x="251.5" y="-132" font-family="Helvetica,sans-Serif" font-size="10.00">OD_statusBits_extension</text>
<text text-anchor="middle" x="251.5" y="-121" font-family="Helvetica,sans-Serif" font-size="10.00">OD_1014_extension</text>
<text text-anchor="middle" x="251.5" y="-110" font-family="Helvetica,sans-Serif" font-size="10.00">OD_1015_extension</text>
</g>
</g>
</svg>
