<?xml version="1.0" encoding="UTF-8" standalone="no"?>
<!DOCTYPE svg PUBLIC "-//W3C//DTD SVG 1.1//EN"
 "http://www.w3.org/Graphics/SVG/1.1/DTD/svg11.dtd">
<!-- Generated by graphviz version 2.43.0 (0)
 -->
<!-- Title: CO_NMT_t Pages: 1 -->
<svg width="517pt" height="261pt"
 viewBox="0.00 0.00 517.00 261.00" xmlns="http://www.w3.org/2000/svg" xmlns:xlink="http://www.w3.org/1999/xlink">
<g id="graph0" class="graph" transform="scale(1 1) rotate(0) translate(4 257)">
<title>CO_NMT_t</title>
<!-- Node1 -->
<g id="Node000001" class="node">
<title>Node1</title>
<g id="a_Node000001"><a xlink:title="NMT consumer and Heartbeat producer object.">
<polygon fill="#999999" stroke="#666666" points="356,-19 288,-19 288,0 356,0 356,-19"/>
<text text-anchor="middle" x="322" y="-7" font-family="Helvetica,sans-Serif" font-size="10.00">CO_NMT_t</text>
</a>
</g>
</g>
<!-- Node2 -->
<g id="Node000002" class="node">
<title>Node2</title>
<g id="a_Node000002"><a xlink:href="structOD__extension__t.html" target="_top" xlink:title="Extension of OD object, which can optionally be specified by application in initialization phase with...">
<polygon fill="white" stroke="#666666" points="94,-187 0,-187 0,-168 94,-168 94,-187"/>
<text text-anchor="middle" x="47" y="-175" font-family="Helvetica,sans-Serif" font-size="10.00">OD_extension_t</text>
</a>
</g>
</g>
<!-- Node2&#45;&gt;Node1 -->
<g id="edge1_Node000001_Node000002" class="edge">
<title>Node2&#45;&gt;Node1</title>
<g id="a_edge1_Node000001_Node000002"><a xlink:title=" ">
<path fill="none" stroke="#9a32cd" stroke-dasharray="5,2" d="M41.58,-157.56C38.42,-142.65 36.53,-121.83 45,-106 60.12,-77.74 75.73,-79.04 105,-66 166.45,-38.62 243.95,-22.9 287.74,-15.58"/>
<polygon fill="#9a32cd" stroke="#9a32cd" points="38.27,-158.77 44.09,-167.62 45.06,-157.07 38.27,-158.77"/>
</a>
</g>
<text text-anchor="middle" x="155.5" y="-74.5" font-family="Helvetica,sans-Serif" font-size="10.00" fill="grey"> OD_1017_extension</text>
</g>
<!-- Node3 -->
<g id="Node000003" class="node">
<title>Node3</title>
<g id="a_Node000003"><a xlink:href="structCO__EM__t.html" target="_top" xlink:title="Emergency object.">
<polygon fill="white" stroke="#666666" points="275,-86.5 215,-86.5 215,-67.5 275,-67.5 275,-86.5"/>
<text text-anchor="middle" x="245" y="-74.5" font-family="Helvetica,sans-Serif" font-size="10.00">CO_EM_t</text>
</a>
</g>
</g>
<!-- Node2&#45;&gt;Node3 -->
<g id="edge8_Node000003_Node000002" class="edge">
<title>Node2&#45;&gt;Node3</title>
<g id="a_edge8_Node000003_Node000002"><a xlink:title=" ">
<path fill="none" stroke="#9a32cd" stroke-dasharray="5,2" d="M45.26,-157.31C44.95,-141.29 47.35,-119.04 61,-106 71.95,-95.53 165.56,-85.38 214.88,-80.69"/>
<polygon fill="#9a32cd" stroke="#9a32cd" points="41.79,-157.87 45.85,-167.65 48.78,-157.47 41.79,-157.87"/>
</a>
</g>
<text text-anchor="middle" x="122.5" y="-142" font-family="Helvetica,sans-Serif" font-size="10.00" fill="grey"> OD_1003_extension</text>
<text text-anchor="middle" x="122.5" y="-131" font-family="Helvetica,sans-Serif" font-size="10.00" fill="grey">OD_1014_extension</text>
<text text-anchor="middle" x="122.5" y="-120" font-family="Helvetica,sans-Serif" font-size="10.00" fill="grey">OD_1015_extension</text>
<text text-anchor="middle" x="122.5" y="-109" font-family="Helvetica,sans-Serif" font-size="10.00" fill="grey">OD_statusBits_extension</text>
</g>
<!-- Node3&#45;&gt;Node1 -->
<g id="edge2_Node000001_Node000003" class="edge">
<title>Node3&#45;&gt;Node1</title>
<g id="a_edge2_Node000001_Node000003"><a xlink:title=" ">
<path fill="none" stroke="#9a32cd" stroke-dasharray="5,2" d="M262.76,-60.89C277.92,-48 299.19,-29.91 311.69,-19.27"/>
<polygon fill="#9a32cd" stroke="#9a32cd" points="260.42,-58.29 255.07,-67.44 264.95,-63.62 260.42,-58.29"/>
</a>
</g>
<text text-anchor="middle" x="299.5" y="-40" font-family="Helvetica,sans-Serif" font-size="10.00" fill="grey"> em</text>
</g>
<!-- Node4 -->
<g id="Node000004" class="node">
<title>Node4</title>
<g id="a_Node000004"><a xlink:href="structCO__CANmodule__t.html" target="_top" xlink:title="Complete CAN module object.">
<polygon fill="white" stroke="#666666" points="421.5,-187 318.5,-187 318.5,-168 421.5,-168 421.5,-187"/>
<text text-anchor="middle" x="370" y="-175" font-family="Helvetica,sans-Serif" font-size="10.00">CO_CANmodule_t</text>
</a>
</g>
</g>
<!-- Node4&#45;&gt;Node1 -->
<g id="edge9_Node000001_Node000004" class="edge">
<title>Node4&#45;&gt;Node1</title>
<g id="a_edge9_Node000001_Node000004"><a xlink:title=" ">
<path fill="none" stroke="#9a32cd" stroke-dasharray="5,2" d="M364.62,-157.89C354.27,-122.09 331.93,-44.84 324.48,-19.07"/>
<polygon fill="#9a32cd" stroke="#9a32cd" points="361.28,-158.94 367.42,-167.58 368,-157 361.28,-158.94"/>
</a>
</g>
<text text-anchor="middle" x="383.5" y="-80" font-family="Helvetica,sans-Serif" font-size="10.00" fill="grey"> HB_CANdevTx</text>
<text text-anchor="middle" x="383.5" y="-69" font-family="Helvetica,sans-Serif" font-size="10.00" fill="grey">NMT_CANdevTx</text>
</g>
<!-- Node4&#45;&gt;Node3 -->
<g id="edge3_Node000003_Node000004" class="edge">
<title>Node4&#45;&gt;Node3</title>
<g id="a_edge3_Node000003_Node000004"><a xlink:title=" ">
<path fill="none" stroke="#9a32cd" stroke-dasharray="5,2" d="M308.33,-166.26C297.73,-162.44 287.43,-157.2 279,-150 273.8,-145.56 256.3,-104.92 248.64,-86.73"/>
<polygon fill="#9a32cd" stroke="#9a32cd" points="307.51,-169.67 318.1,-169.39 309.64,-163.01 307.51,-169.67"/>
</a>
</g>
<text text-anchor="middle" x="306.5" y="-125.5" font-family="Helvetica,sans-Serif" font-size="10.00" fill="grey"> CANdevTx</text>
</g>
<!-- Node5 -->
<g id="Node000005" class="node">
<title>Node5</title>
<g id="a_Node000005"><a xlink:href="structCO__CANrx__t.html" target="_top" xlink:title="Configuration object for CAN received message for specific CANopenNode Object.">
<polygon fill="white" stroke="#666666" points="228,-253 152,-253 152,-234 228,-234 228,-253"/>
<text text-anchor="middle" x="190" y="-241" font-family="Helvetica,sans-Serif" font-size="10.00">CO_CANrx_t</text>
</a>
</g>
</g>
<!-- Node5&#45;&gt;Node4 -->
<g id="edge4_Node000004_Node000005" class="edge">
<title>Node5&#45;&gt;Node4</title>
<g id="a_edge4_Node000004_Node000005"><a xlink:title=" ">
<path fill="none" stroke="#9a32cd" stroke-dasharray="5,2" d="M223.75,-230.5C259.29,-217.86 314.38,-198.28 345.82,-187.1"/>
<polygon fill="#9a32cd" stroke="#9a32cd" points="222.53,-227.22 214.28,-233.87 224.87,-233.82 222.53,-227.22"/>
</a>
</g>
<text text-anchor="middle" x="310" y="-208" font-family="Helvetica,sans-Serif" font-size="10.00" fill="grey"> rxArray</text>
</g>
<!-- Node6 -->
<g id="Node000006" class="node">
<title>Node6</title>
<g id="a_Node000006"><a xlink:href="structCO__CANtx__t.html" target="_top" xlink:title="Configuration object for CAN transmit message for specific CANopenNode Object.">
<polygon fill="white" stroke="#666666" points="408,-253 332,-253 332,-234 408,-234 408,-253"/>
<text text-anchor="middle" x="370" y="-241" font-family="Helvetica,sans-Serif" font-size="10.00">CO_CANtx_t</text>
</a>
</g>
</g>
<!-- Node6&#45;&gt;Node1 -->
<g id="edge10_Node000001_Node000006" class="edge">
<title>Node6&#45;&gt;Node1</title>
<g id="a_edge10_Node000001_Node000006"><a xlink:title=" ">
<path fill="none" stroke="#9a32cd" stroke-dasharray="5,2" d="M397.57,-228.79C403.4,-225.13 409.23,-220.83 414,-216 424.5,-205.37 427.09,-201.42 431,-187 439.63,-155.22 467.7,-130.64 427,-66 411.29,-41.05 380.37,-26.65 356.13,-18.81"/>
<polygon fill="#9a32cd" stroke="#9a32cd" points="395.47,-225.96 388.56,-233.99 398.97,-232.02 395.47,-225.96"/>
</a>
</g>
<text text-anchor="middle" x="478.5" y="-131" font-family="Helvetica,sans-Serif" font-size="10.00" fill="grey"> HB_TXbuff</text>
<text text-anchor="middle" x="478.5" y="-120" font-family="Helvetica,sans-Serif" font-size="10.00" fill="grey">NMT_TXbuff</text>
</g>
<!-- Node6&#45;&gt;Node3 -->
<g id="edge7_Node000003_Node000006" class="edge">
<title>Node6&#45;&gt;Node3</title>
<g id="a_edge7_Node000003_Node000006"><a xlink:title=" ">
<path fill="none" stroke="#9a32cd" stroke-dasharray="5,2" d="M322,-231.37C297.91,-223.2 270.6,-209.5 255,-187 233.23,-155.61 239.48,-106.32 243.17,-86.59"/>
<polygon fill="#9a32cd" stroke="#9a32cd" points="321.15,-234.77 331.73,-234.43 323.25,-228.09 321.15,-234.77"/>
</a>
</g>
<text text-anchor="middle" x="282.5" y="-175" font-family="Helvetica,sans-Serif" font-size="10.00" fill="grey"> CANtxBuff</text>
</g>
<!-- Node6&#45;&gt;Node4 -->
<g id="edge5_Node000004_Node000006" class="edge">
<title>Node6&#45;&gt;Node4</title>
<g id="a_edge5_Node000004_Node000006"><a xlink:title=" ">
<path fill="none" stroke="#9a32cd" stroke-dasharray="5,2" d="M370,-223.58C370,-211.63 370,-196.72 370,-187.41"/>
<polygon fill="#9a32cd" stroke="#9a32cd" points="366.5,-223.87 370,-233.87 373.5,-223.87 366.5,-223.87"/>
</a>
</g>
<text text-anchor="middle" x="390" y="-208" font-family="Helvetica,sans-Serif" font-size="10.00" fill="grey"> txArray</text>
</g>
<!-- Node7 -->
<g id="Node000007" class="node">
<title>Node7</title>
<g id="a_Node000007"><a xlink:href="structCO__EM__fifo__t.html" target="_top" xlink:title="Fifo buffer for emergency producer and error history.">
<polygon fill="white" stroke="#666666" points="209,-187 127,-187 127,-168 209,-168 209,-187"/>
<text text-anchor="middle" x="168" y="-175" font-family="Helvetica,sans-Serif" font-size="10.00">CO_EM_fifo_t</text>
</a>
</g>
</g>
<!-- Node7&#45;&gt;Node3 -->
<g id="edge6_Node000003_Node000007" class="edge">
<title>Node7&#45;&gt;Node3</title>
<g id="a_edge6_Node000003_Node000007"><a xlink:title=" ">
<path fill="none" stroke="#9a32cd" stroke-dasharray="5,2" d="M181.13,-159.97C183.51,-156.73 185.9,-153.31 188,-150 199.8,-131.35 197.09,-123.13 211,-106 217.07,-98.52 225.4,-91.62 232.3,-86.54"/>
<polygon fill="#9a32cd" stroke="#9a32cd" points="178.34,-157.86 175.04,-167.93 183.9,-162.11 178.34,-157.86"/>
</a>
</g>
<text text-anchor="middle" x="221" y="-125.5" font-family="Helvetica,sans-Serif" font-size="10.00" fill="grey"> fifo</text>
</g>
</g>
</svg>
