<?xml version="1.0" encoding="UTF-8" standalone="no"?>
<!DOCTYPE svg PUBLIC "-//W3C//DTD SVG 1.1//EN"
 "http://www.w3.org/Graphics/SVG/1.1/DTD/svg11.dtd">
<!-- Generated by graphviz version 2.43.0 (0)
 -->
<!-- Title: CO_CANmodule_t Pages: 1 -->
<svg width="178pt" height="95pt"
 viewBox="0.00 0.00 178.00 95.00" xmlns="http://www.w3.org/2000/svg" xmlns:xlink="http://www.w3.org/1999/xlink">
<g id="graph0" class="graph" transform="scale(1 1) rotate(0) translate(4 91)">
<title>CO_CANmodule_t</title>
<polygon fill="white" stroke="transparent" points="-4,4 -4,-91 174,-91 174,4 -4,4"/>
<!-- Node1 -->
<g id="node1" class="node">
<title>Node1</title>
<g id="a_node1"><a xlink:title="Complete CAN module object.">
<polygon fill="#bfbfbf" stroke="black" points="33.5,-0.5 33.5,-19.5 136.5,-19.5 136.5,-0.5 33.5,-0.5"/>
<text text-anchor="middle" x="85" y="-7.5" font-family="Helvetica,sans-Serif" font-size="10.00">CO_CANmodule_t</text>
</a>
</g>
</g>
<!-- Node2 -->
<g id="node2" class="node">
<title>Node2</title>
<g id="a_node2"><a xlink:href="structCO__CANtx__t.html" target="_top" xlink:title="Configuration object for CAN transmit message for specific CANopenNode Object.">
<polygon fill="white" stroke="black" points="0,-67.5 0,-86.5 76,-86.5 76,-67.5 0,-67.5"/>
<text text-anchor="middle" x="38" y="-74.5" font-family="Helvetica,sans-Serif" font-size="10.00">CO_CANtx_t</text>
</a>
</g>
</g>
<!-- Node2&#45;&gt;Node1 -->
<g id="edge1" class="edge">
<title>Node2&#45;&gt;Node1</title>
<path fill="none" stroke="#9a32cd" stroke-dasharray="5,2" d="M50.36,-58.9C59.49,-46.27 71.55,-29.6 78.76,-19.63"/>
<polygon fill="#9a32cd" stroke="#9a32cd" points="47.36,-57.08 44.34,-67.23 53.03,-61.18 47.36,-57.08"/>
<text text-anchor="middle" x="85" y="-41" font-family="Helvetica,sans-Serif" font-size="10.00"> txArray</text>
</g>
<!-- Node3 -->
<g id="node3" class="node">
<title>Node3</title>
<g id="a_node3"><a xlink:href="structCO__CANrx__t.html" target="_top" xlink:title="Configuration object for CAN received message for specific CANopenNode Object.">
<polygon fill="white" stroke="black" points="94,-67.5 94,-86.5 170,-86.5 170,-67.5 94,-67.5"/>
<text text-anchor="middle" x="132" y="-74.5" font-family="Helvetica,sans-Serif" font-size="10.00">CO_CANrx_t</text>
</a>
</g>
</g>
<!-- Node3&#45;&gt;Node1 -->
<g id="edge2" class="edge">
<title>Node3&#45;&gt;Node1</title>
<path fill="none" stroke="#9a32cd" stroke-dasharray="5,2" d="M122.28,-58.44C118.4,-51.86 113.74,-44.42 109,-38 104.24,-31.54 98.24,-24.79 93.43,-19.65"/>
<polygon fill="#9a32cd" stroke="#9a32cd" points="119.31,-60.31 127.31,-67.26 125.39,-56.84 119.31,-60.31"/>
<text text-anchor="middle" x="135" y="-41" font-family="Helvetica,sans-Serif" font-size="10.00"> rxArray</text>
</g>
</g>
</svg>
