<?xml version="1.0" encoding="UTF-8" standalone="no"?>
<!DOCTYPE svg PUBLIC "-//W3C//DTD SVG 1.1//EN"
 "http://www.w3.org/Graphics/SVG/1.1/DTD/svg11.dtd">
<!-- Generated by graphviz version 2.43.0 (0)
 -->
<!-- Title: CO_storage_t Pages: 1 -->
<svg width="382pt" height="173pt"
 viewBox="0.00 0.00 381.50 173.00" xmlns="http://www.w3.org/2000/svg" xmlns:xlink="http://www.w3.org/1999/xlink">
<g id="graph0" class="graph" transform="scale(1 1) rotate(0) translate(4 169)">
<title>CO_storage_t</title>
<polygon fill="white" stroke="transparent" points="-4,4 -4,-169 377.5,-169 377.5,4 -4,4"/>
<!-- Node1 -->
<g id="node1" class="node">
<title>Node1</title>
<g id="a_node1"><a xlink:title="Data storage object.">
<polygon fill="#bfbfbf" stroke="black" points="141.5,-0.5 141.5,-19.5 223.5,-19.5 223.5,-0.5 141.5,-0.5"/>
<text text-anchor="middle" x="182.5" y="-7.5" font-family="Helvetica,sans-Serif" font-size="10.00">CO_storage_t</text>
</a>
</g>
</g>
<!-- Node2 -->
<g id="node2" class="node">
<title>Node2</title>
<g id="a_node2"><a xlink:href="structCO__storage__entry__t.html" target="_top" xlink:title="Data storage object for one entry.">
<polygon fill="white" stroke="black" points="0,-78.5 0,-97.5 113,-97.5 113,-78.5 0,-78.5"/>
<text text-anchor="middle" x="56.5" y="-85.5" font-family="Helvetica,sans-Serif" font-size="10.00">CO_storage_entry_t</text>
</a>
</g>
</g>
<!-- Node2&#45;&gt;Node1 -->
<g id="edge1" class="edge">
<title>Node2&#45;&gt;Node1</title>
<path fill="none" stroke="#9a32cd" stroke-dasharray="5,2" d="M79.74,-72.98C105.63,-57.36 146.67,-32.61 168.21,-19.62"/>
<polygon fill="#9a32cd" stroke="#9a32cd" points="77.71,-70.12 70.95,-78.28 81.32,-76.11 77.71,-70.12"/>
<text text-anchor="middle" x="153" y="-46.5" font-family="Helvetica,sans-Serif" font-size="10.00"> entries</text>
</g>
<!-- Node3 -->
<g id="node3" class="node">
<title>Node3</title>
<g id="a_node3"><a xlink:href="structCO__CANmodule__t.html" target="_top" xlink:title="Complete CAN module object.">
<polygon fill="white" stroke="black" points="131,-78.5 131,-97.5 234,-97.5 234,-78.5 131,-78.5"/>
<text text-anchor="middle" x="182.5" y="-85.5" font-family="Helvetica,sans-Serif" font-size="10.00">CO_CANmodule_t</text>
</a>
</g>
</g>
<!-- Node3&#45;&gt;Node1 -->
<g id="edge2" class="edge">
<title>Node3&#45;&gt;Node1</title>
<path fill="none" stroke="#9a32cd" stroke-dasharray="5,2" d="M182.5,-68.22C182.5,-52.7 182.5,-31.36 182.5,-19.62"/>
<polygon fill="#9a32cd" stroke="#9a32cd" points="179,-68.28 182.5,-78.28 186,-68.28 179,-68.28"/>
<text text-anchor="middle" x="213" y="-46.5" font-family="Helvetica,sans-Serif" font-size="10.00"> CANmodule</text>
</g>
<!-- Node4 -->
<g id="node4" class="node">
<title>Node4</title>
<g id="a_node4"><a xlink:href="structCO__CANtx__t.html" target="_top" xlink:title="Configuration object for CAN transmit message for specific CANopenNode Object.">
<polygon fill="white" stroke="black" points="97.5,-145.5 97.5,-164.5 173.5,-164.5 173.5,-145.5 97.5,-145.5"/>
<text text-anchor="middle" x="135.5" y="-152.5" font-family="Helvetica,sans-Serif" font-size="10.00">CO_CANtx_t</text>
</a>
</g>
</g>
<!-- Node4&#45;&gt;Node3 -->
<g id="edge3" class="edge">
<title>Node4&#45;&gt;Node3</title>
<path fill="none" stroke="#9a32cd" stroke-dasharray="5,2" d="M147.86,-136.9C156.99,-124.27 169.05,-107.6 176.26,-97.63"/>
<polygon fill="#9a32cd" stroke="#9a32cd" points="144.86,-135.08 141.84,-145.23 150.53,-139.18 144.86,-135.08"/>
<text text-anchor="middle" x="181.5" y="-119" font-family="Helvetica,sans-Serif" font-size="10.00"> txArray</text>
</g>
<!-- Node5 -->
<g id="node5" class="node">
<title>Node5</title>
<g id="a_node5"><a xlink:href="structCO__CANrx__t.html" target="_top" xlink:title="Configuration object for CAN received message for specific CANopenNode Object.">
<polygon fill="white" stroke="black" points="191.5,-145.5 191.5,-164.5 267.5,-164.5 267.5,-145.5 191.5,-145.5"/>
<text text-anchor="middle" x="229.5" y="-152.5" font-family="Helvetica,sans-Serif" font-size="10.00">CO_CANrx_t</text>
</a>
</g>
</g>
<!-- Node5&#45;&gt;Node3 -->
<g id="edge4" class="edge">
<title>Node5&#45;&gt;Node3</title>
<path fill="none" stroke="#9a32cd" stroke-dasharray="5,2" d="M219.19,-136.53C215.12,-129.96 210.29,-122.5 205.5,-116 200.83,-109.65 195.08,-102.9 190.5,-97.74"/>
<polygon fill="#9a32cd" stroke="#9a32cd" points="216.33,-138.57 224.5,-145.32 222.32,-134.95 216.33,-138.57"/>
<text text-anchor="middle" x="232.5" y="-119" font-family="Helvetica,sans-Serif" font-size="10.00"> rxArray</text>
</g>
<!-- Node6 -->
<g id="node6" class="node">
<title>Node6</title>
<g id="a_node6"><a xlink:href="structOD__extension__t.html" target="_top" xlink:title="Extension of OD object, which can optionally be specified by application in initialization phase with...">
<polygon fill="white" stroke="black" points="252.5,-78.5 252.5,-97.5 346.5,-97.5 346.5,-78.5 252.5,-78.5"/>
<text text-anchor="middle" x="299.5" y="-85.5" font-family="Helvetica,sans-Serif" font-size="10.00">OD_extension_t</text>
</a>
</g>
</g>
<!-- Node6&#45;&gt;Node1 -->
<g id="edge5" class="edge">
<title>Node6&#45;&gt;Node1</title>
<path fill="none" stroke="#9a32cd" stroke-dasharray="5,2" d="M285.21,-70.77C275.39,-60.37 261.63,-47.15 247.5,-38 235.7,-30.36 221.39,-24.14 209.2,-19.6"/>
<polygon fill="#9a32cd" stroke="#9a32cd" points="282.83,-73.36 292.16,-78.38 288,-68.64 282.83,-73.36"/>
<text text-anchor="middle" x="323" y="-52" font-family="Helvetica,sans-Serif" font-size="10.00"> OD_1010_extension</text>
<text text-anchor="middle" x="323" y="-41" font-family="Helvetica,sans-Serif" font-size="10.00">OD_1011_extension</text>
</g>
</g>
</svg>
