<?xml version="1.0" encoding="UTF-8" standalone="no"?>
<!DOCTYPE svg PUBLIC "-//W3C//DTD SVG 1.1//EN"
 "http://www.w3.org/Graphics/SVG/1.1/DTD/svg11.dtd">
<!-- Generated by graphviz version 2.43.0 (0)
 -->
<!-- Title: CO_config_t Pages: 1 -->
<svg width="128pt" height="272pt"
 viewBox="0.00 0.00 128.00 272.00" xmlns="http://www.w3.org/2000/svg" xmlns:xlink="http://www.w3.org/1999/xlink">
<g id="graph0" class="graph" transform="scale(1 1) rotate(0) translate(4 268)">
<title>CO_config_t</title>
<polygon fill="white" stroke="transparent" points="-4,4 -4,-268 124,-268 124,4 -4,4"/>
<!-- Node1 -->
<g id="node1" class="node">
<title>Node1</title>
<g id="a_node1"><a xlink:title="CANopen configuration, used with CO_new()">
<polygon fill="#bfbfbf" stroke="black" points="9.5,-0.5 9.5,-19.5 84.5,-19.5 84.5,-0.5 9.5,-0.5"/>
<text text-anchor="middle" x="47" y="-7.5" font-family="Helvetica,sans-Serif" font-size="10.00">CO_config_t</text>
</a>
</g>
</g>
<!-- Node2 -->
<g id="node2" class="node">
<title>Node2</title>
<g id="a_node2"><a xlink:href="structOD__entry__t.html" target="_top" xlink:title="Object Dictionary entry for one OD object.">
<polygon fill="white" stroke="black" points="11.5,-177.5 11.5,-196.5 82.5,-196.5 82.5,-177.5 11.5,-177.5"/>
<text text-anchor="middle" x="47" y="-184.5" font-family="Helvetica,sans-Serif" font-size="10.00">OD_entry_t</text>
</a>
</g>
</g>
<!-- Node2&#45;&gt;Node1 -->
<g id="edge1" class="edge">
<title>Node2&#45;&gt;Node1</title>
<path fill="none" stroke="#9a32cd" stroke-dasharray="5,2" d="M47,-166.95C47,-129.3 47,-46.65 47,-19.69"/>
<polygon fill="#9a32cd" stroke="#9a32cd" points="43.5,-167.08 47,-177.08 50.5,-167.08 43.5,-167.08"/>
<text text-anchor="middle" x="83.5" y="-151" font-family="Helvetica,sans-Serif" font-size="10.00"> ENTRY_H1001</text>
<text text-anchor="middle" x="83.5" y="-140" font-family="Helvetica,sans-Serif" font-size="10.00">ENTRY_H1003</text>
<text text-anchor="middle" x="83.5" y="-129" font-family="Helvetica,sans-Serif" font-size="10.00">ENTRY_H1005</text>
<text text-anchor="middle" x="83.5" y="-118" font-family="Helvetica,sans-Serif" font-size="10.00">ENTRY_H1006</text>
<text text-anchor="middle" x="83.5" y="-107" font-family="Helvetica,sans-Serif" font-size="10.00">ENTRY_H1007</text>
<text text-anchor="middle" x="83.5" y="-96" font-family="Helvetica,sans-Serif" font-size="10.00">ENTRY_H1012</text>
<text text-anchor="middle" x="83.5" y="-85" font-family="Helvetica,sans-Serif" font-size="10.00">ENTRY_H1014</text>
<text text-anchor="middle" x="83.5" y="-74" font-family="Helvetica,sans-Serif" font-size="10.00">ENTRY_H1015</text>
<text text-anchor="middle" x="83.5" y="-63" font-family="Helvetica,sans-Serif" font-size="10.00">ENTRY_H1016</text>
<text text-anchor="middle" x="83.5" y="-52" font-family="Helvetica,sans-Serif" font-size="10.00">ENTRY_H1017</text>
<text text-anchor="middle" x="83.5" y="-41" font-family="Helvetica,sans-Serif" font-size="10.00">...</text>
</g>
<!-- Node3 -->
<g id="node3" class="node">
<title>Node3</title>
<g id="a_node3"><a xlink:href="structOD__extension__t.html" target="_top" xlink:title="Extension of OD object, which can optionally be specified by application in initialization phase with...">
<polygon fill="white" stroke="black" points="0,-244.5 0,-263.5 94,-263.5 94,-244.5 0,-244.5"/>
<text text-anchor="middle" x="47" y="-251.5" font-family="Helvetica,sans-Serif" font-size="10.00">OD_extension_t</text>
</a>
</g>
</g>
<!-- Node3&#45;&gt;Node2 -->
<g id="edge2" class="edge">
<title>Node3&#45;&gt;Node2</title>
<path fill="none" stroke="#9a32cd" stroke-dasharray="5,2" d="M47,-234.04C47,-221.67 47,-206.12 47,-196.63"/>
<polygon fill="#9a32cd" stroke="#9a32cd" points="43.5,-234.23 47,-244.23 50.5,-234.23 43.5,-234.23"/>
<text text-anchor="middle" x="73" y="-218" font-family="Helvetica,sans-Serif" font-size="10.00"> extension</text>
</g>
</g>
</svg>
