<?xml version="1.0" encoding="UTF-8" standalone="no"?>
<!DOCTYPE svg PUBLIC "-//W3C//DTD SVG 1.1//EN"
 "http://www.w3.org/Graphics/SVG/1.1/DTD/svg11.dtd">
<!-- Generated by graphviz version 2.43.0 (0)
 -->
<!-- Title: CO_storage_t Pages: 1 -->
<svg width="358pt" height="170pt"
 viewBox="0.00 0.00 357.50 170.00" xmlns="http://www.w3.org/2000/svg" xmlns:xlink="http://www.w3.org/1999/xlink">

<svg id="main" version="1.1" xmlns="http://www.w3.org/2000/svg" xmlns:xlink="http://www.w3.org/1999/xlink" xml:space="preserve" onload="init(evt)">
<style type="text/css"><![CDATA[
.node, .edge {opacity: 0.7;}
.node.selected, .edge.selected {opacity: 1;}
.edge:hover path { stroke: red; }
.edge:hover polygon { stroke: red; fill: red; }
]]></style>
<script type="application/ecmascript" xlink:href="svg.min.js"/>
<svg id="graph" class="graph">
<g id="graph0" class="graph" transform="scale(1 1) rotate(0) translate(4 166)">
<title>CO_storage_t</title>
<!-- Node1 -->
<g id="Node000001" class="node">
<title>Node1</title>
<g id="a_Node000001"><a xlink:title="Data storage object.">
<polygon fill="#999999" stroke="#666666" points="212,-19 130,-19 130,0 212,0 212,-19"/>
<text text-anchor="middle" x="171" y="-7" font-family="Helvetica,sans-Serif" font-size="10.00">CO_storage_t</text>
</a>
</g>
</g>
<!-- Node2 -->
<g id="Node000002" class="node">
<title>Node2</title>
<g id="a_Node000002"><a xlink:href="structOD__extension__t.html" target="_top" xlink:title="Extension of OD object, which can optionally be specified by application in initialization phase with...">
<polygon fill="white" stroke="#666666" points="94,-96 0,-96 0,-77 94,-77 94,-96"/>
<text text-anchor="middle" x="47" y="-84" font-family="Helvetica,sans-Serif" font-size="10.00">OD_extension_t</text>
</a>
</g>
</g>
<!-- Node2&#45;&gt;Node1 -->
<g id="edge1_Node000001_Node000002" class="edge">
<title>Node2&#45;&gt;Node1</title>
<g id="a_edge1_Node000001_Node000002"><a xlink:title=" ">
<path fill="none" stroke="#9a32cd" stroke-dasharray="5,2" d="M48.76,-66.98C50.68,-56.79 54.68,-44.69 63,-37 80.93,-20.42 107.51,-13.75 129.82,-11.25"/>
<polygon fill="#9a32cd" stroke="#9a32cd" points="45.28,-66.6 47.39,-76.98 52.21,-67.55 45.28,-66.6"/>
</a>
</g>
<text text-anchor="middle" x="113.5" y="-51" font-family="Helvetica,sans-Serif" font-size="10.00" fill="grey"> OD_1010_extension</text>
<text text-anchor="middle" x="113.5" y="-40" font-family="Helvetica,sans-Serif" font-size="10.00" fill="grey">OD_1011_extension</text>
</g>
<!-- Node3 -->
<g id="Node000003" class="node">
<title>Node3</title>
<g id="a_Node000003"><a xlink:href="structCO__CANmodule__t.html" target="_top" xlink:title="Complete CAN module object.">
<polygon fill="white" stroke="#666666" points="218.5,-96 115.5,-96 115.5,-77 218.5,-77 218.5,-96"/>
<text text-anchor="middle" x="167" y="-84" font-family="Helvetica,sans-Serif" font-size="10.00">CO_CANmodule_t</text>
</a>
</g>
</g>
<!-- Node3&#45;&gt;Node1 -->
<g id="edge2_Node000001_Node000003" class="edge">
<title>Node3&#45;&gt;Node1</title>
<g id="a_edge2_Node000001_Node000003"><a xlink:title=" ">
<path fill="none" stroke="#9a32cd" stroke-dasharray="5,2" d="M168.01,-66.52C168.83,-51.24 169.93,-30.48 170.55,-19"/>
<polygon fill="#9a32cd" stroke="#9a32cd" points="164.5,-66.72 167.46,-76.9 171.49,-67.1 164.5,-66.72"/>
</a>
</g>
<text text-anchor="middle" x="199.5" y="-45.5" font-family="Helvetica,sans-Serif" font-size="10.00" fill="grey"> CANmodule</text>
</g>
<!-- Node4 -->
<g id="Node000004" class="node">
<title>Node4</title>
<g id="a_Node000004"><a xlink:href="structCO__CANrx__t.html" target="_top" xlink:title="Configuration object for CAN received message for specific CANopenNode Object.">
<polygon fill="white" stroke="#666666" points="158,-162 82,-162 82,-143 158,-143 158,-162"/>
<text text-anchor="middle" x="120" y="-150" font-family="Helvetica,sans-Serif" font-size="10.00">CO_CANrx_t</text>
</a>
</g>
</g>
<!-- Node4&#45;&gt;Node3 -->
<g id="edge3_Node000003_Node000004" class="edge">
<title>Node4&#45;&gt;Node3</title>
<g id="a_edge3_Node000003_Node000004"><a xlink:title=" ">
<path fill="none" stroke="#9a32cd" stroke-dasharray="5,2" d="M132.29,-134.77C141.3,-122.49 153.2,-106.3 160.46,-96.41"/>
<polygon fill="#9a32cd" stroke="#9a32cd" points="129.44,-132.74 126.34,-142.87 135.08,-136.88 129.44,-132.74"/>
</a>
</g>
<text text-anchor="middle" x="166" y="-117" font-family="Helvetica,sans-Serif" font-size="10.00" fill="grey"> rxArray</text>
</g>
<!-- Node5 -->
<g id="Node000005" class="node">
<title>Node5</title>
<g id="a_Node000005"><a xlink:href="structCO__CANtx__t.html" target="_top" xlink:title="Configuration object for CAN transmit message for specific CANopenNode Object.">
<polygon fill="white" stroke="#666666" points="252,-162 176,-162 176,-143 252,-143 252,-162"/>
<text text-anchor="middle" x="214" y="-150" font-family="Helvetica,sans-Serif" font-size="10.00">CO_CANtx_t</text>
</a>
</g>
</g>
<!-- Node5&#45;&gt;Node3 -->
<g id="edge4_Node000003_Node000005" class="edge">
<title>Node5&#45;&gt;Node3</title>
<g id="a_edge4_Node000003_Node000005"><a xlink:title=" ">
<path fill="none" stroke="#9a32cd" stroke-dasharray="5,2" d="M203.69,-134.25C199.63,-127.76 194.79,-120.41 190,-114 185.33,-107.76 179.58,-101.13 175,-96.07"/>
<polygon fill="#9a32cd" stroke="#9a32cd" points="200.8,-136.22 209,-142.92 206.77,-132.57 200.8,-136.22"/>
</a>
</g>
<text text-anchor="middle" x="217" y="-117" font-family="Helvetica,sans-Serif" font-size="10.00" fill="grey"> txArray</text>
</g>
<!-- Node6 -->
<g id="Node000006" class="node">
<title>Node6</title>
<g id="a_Node000006"><a xlink:href="structCO__storage__entry__t.html" target="_top" xlink:title="Data storage object for one entry.">
<polygon fill="white" stroke="#666666" points="349.5,-96 236.5,-96 236.5,-77 349.5,-77 349.5,-96"/>
<text text-anchor="middle" x="293" y="-84" font-family="Helvetica,sans-Serif" font-size="10.00">CO_storage_entry_t</text>
</a>
</g>
</g>
<!-- Node6&#45;&gt;Node1 -->
<g id="edge5_Node000001_Node000006" class="edge">
<title>Node6&#45;&gt;Node1</title>
<g id="a_edge5_Node000001_Node000006"><a xlink:title=" ">
<path fill="none" stroke="#9a32cd" stroke-dasharray="5,2" d="M276.64,-69.84C265.31,-59.58 249.53,-46.37 234,-37 222.11,-29.83 207.93,-23.67 196.04,-19.11"/>
<polygon fill="#9a32cd" stroke="#9a32cd" points="274.32,-72.47 284.03,-76.7 279.08,-67.34 274.32,-72.47"/>
</a>
</g>
<text text-anchor="middle" x="280.5" y="-45.5" font-family="Helvetica,sans-Serif" font-size="10.00" fill="grey"> entries</text>
</g>
</g>
</svg>
</svg>

<style type='text/css'>
<![CDATA[
[data-mouse-over-selected='false'] { opacity: 0.7; }
[data-mouse-over-selected='true']  { opacity: 1.0; }
]]>
</style>
<script type="application/ecmascript"><![CDATA[
document.addEventListener('DOMContentLoaded', (event) => {
  highlightEdges();
  highlightAdjacentNodes();
});
]]></script>
</svg>
