<?xml version="1.0" encoding="UTF-8" standalone="no"?>
<!DOCTYPE svg PUBLIC "-//W3C//DTD SVG 1.1//EN"
 "http://www.w3.org/Graphics/SVG/1.1/DTD/svg11.dtd">
<!-- Generated by graphviz version 2.43.0 (0)
 -->
<!-- Title: CO_SDOclient_t Pages: 1 -->
<svg width="552pt" height="236pt"
 viewBox="0.00 0.00 552.00 236.00" xmlns="http://www.w3.org/2000/svg" xmlns:xlink="http://www.w3.org/1999/xlink">
<g id="graph0" class="graph" transform="scale(1 1) rotate(0) translate(4 232)">
<title>CO_SDOclient_t</title>
<!-- Node1 -->
<g id="Node000001" class="node">
<title>Node1</title>
<g id="a_Node000001"><a xlink:title="SDO client object.">
<polygon fill="#999999" stroke="#666666" points="317.5,-19 224.5,-19 224.5,0 317.5,0 317.5,-19"/>
<text text-anchor="middle" x="271" y="-7" font-family="Helvetica,sans-Serif" font-size="10.00">CO_SDOclient_t</text>
</a>
</g>
</g>
<!-- Node2 -->
<g id="Node000002" class="node">
<title>Node2</title>
<g id="a_Node000002"><a xlink:href="structOD__t.html" target="_top" xlink:title="Object Dictionary.">
<polygon fill="white" stroke="#666666" points="175.5,-96 134.5,-96 134.5,-77 175.5,-77 175.5,-96"/>
<text text-anchor="middle" x="155" y="-84" font-family="Helvetica,sans-Serif" font-size="10.00">OD_t</text>
</a>
</g>
</g>
<!-- Node2&#45;&gt;Node1 -->
<g id="edge1_Node000001_Node000002" class="edge">
<title>Node2&#45;&gt;Node1</title>
<g id="a_edge1_Node000001_Node000002"><a xlink:title=" ">
<path fill="none" stroke="#9a32cd" stroke-dasharray="5,2" d="M170.42,-69.52C180.89,-59.29 195.45,-46.25 210,-37 221.4,-29.75 235.12,-23.59 246.66,-19.04"/>
<polygon fill="#9a32cd" stroke="#9a32cd" points="167.85,-67.14 163.27,-76.69 172.81,-72.08 167.85,-67.14"/>
</a>
</g>
<text text-anchor="middle" x="219.5" y="-45.5" font-family="Helvetica,sans-Serif" font-size="10.00" fill="grey"> OD</text>
</g>
<!-- Node3 -->
<g id="Node000003" class="node">
<title>Node3</title>
<g id="a_Node000003"><a xlink:href="structOD__entry__t.html" target="_top" xlink:title="Object Dictionary entry for one OD object.">
<polygon fill="white" stroke="#666666" points="133.5,-162 62.5,-162 62.5,-143 133.5,-143 133.5,-162"/>
<text text-anchor="middle" x="98" y="-150" font-family="Helvetica,sans-Serif" font-size="10.00">OD_entry_t</text>
</a>
</g>
</g>
<!-- Node3&#45;&gt;Node2 -->
<g id="edge2_Node000002_Node000003" class="edge">
<title>Node3&#45;&gt;Node2</title>
<g id="a_edge2_Node000002_Node000003"><a xlink:title=" ">
<path fill="none" stroke="#9a32cd" stroke-dasharray="5,2" d="M120.4,-136.63C124.85,-133.11 129.3,-129.17 133,-125 140.82,-116.2 147.28,-104.2 151.13,-96.17"/>
<polygon fill="#9a32cd" stroke="#9a32cd" points="117.98,-134.06 111.99,-142.8 122.13,-139.7 117.98,-134.06"/>
</a>
</g>
<text text-anchor="middle" x="150.5" y="-117" font-family="Helvetica,sans-Serif" font-size="10.00" fill="grey"> list</text>
</g>
<!-- Node4 -->
<g id="Node000004" class="node">
<title>Node4</title>
<g id="a_Node000004"><a xlink:href="structOD__extension__t.html" target="_top" xlink:title="Extension of OD object, which can optionally be specified by application in initialization phase with...">
<polygon fill="white" stroke="#666666" points="94,-228 0,-228 0,-209 94,-209 94,-228"/>
<text text-anchor="middle" x="47" y="-216" font-family="Helvetica,sans-Serif" font-size="10.00">OD_extension_t</text>
</a>
</g>
</g>
<!-- Node4&#45;&gt;Node1 -->
<g id="edge10_Node000001_Node000004" class="edge">
<title>Node4&#45;&gt;Node1</title>
<g id="a_edge10_Node000001_Node000004"><a xlink:title=" ">
<path fill="none" stroke="#9a32cd" stroke-dasharray="5,2" d="M36.85,-199.95C25.75,-178.2 11.57,-140.74 28,-114 69.59,-46.31 166.18,-22.84 224.28,-14.73"/>
<polygon fill="#9a32cd" stroke="#9a32cd" points="33.92,-201.88 41.76,-209 40.07,-198.54 33.92,-201.88"/>
</a>
</g>
<text text-anchor="middle" x="78.5" y="-117" font-family="Helvetica,sans-Serif" font-size="10.00" fill="grey"> OD_1280_extension</text>
</g>
<!-- Node4&#45;&gt;Node3 -->
<g id="edge3_Node000003_Node000004" class="edge">
<title>Node4&#45;&gt;Node3</title>
<g id="a_edge3_Node000003_Node000004"><a xlink:title=" ">
<path fill="none" stroke="#9a32cd" stroke-dasharray="5,2" d="M60.33,-200.77C70.12,-188.49 83.02,-172.3 90.9,-162.41"/>
<polygon fill="#9a32cd" stroke="#9a32cd" points="57.37,-198.87 53.88,-208.87 62.85,-203.23 57.37,-198.87"/>
</a>
</g>
<text text-anchor="middle" x="102" y="-183" font-family="Helvetica,sans-Serif" font-size="10.00" fill="grey"> extension</text>
</g>
<!-- Node5 -->
<g id="Node000005" class="node">
<title>Node5</title>
<g id="a_Node000005"><a xlink:href="structOD__IO__t.html" target="_top" xlink:title="Structure for input / output on the OD variable.">
<polygon fill="white" stroke="#666666" points="250,-96 194,-96 194,-77 250,-77 250,-96"/>
<text text-anchor="middle" x="222" y="-84" font-family="Helvetica,sans-Serif" font-size="10.00">OD_IO_t</text>
</a>
</g>
</g>
<!-- Node5&#45;&gt;Node1 -->
<g id="edge4_Node000001_Node000005" class="edge">
<title>Node5&#45;&gt;Node1</title>
<g id="a_edge4_Node000001_Node000005"><a xlink:title=" ">
<path fill="none" stroke="#9a32cd" stroke-dasharray="5,2" d="M228.45,-67.16C232.23,-57.7 237.53,-46.25 244,-37 248.67,-30.33 255.15,-23.9 260.59,-19.05"/>
<polygon fill="#9a32cd" stroke="#9a32cd" points="225.09,-66.17 224.86,-76.76 231.64,-68.62 225.09,-66.17"/>
</a>
</g>
<text text-anchor="middle" x="261" y="-45.5" font-family="Helvetica,sans-Serif" font-size="10.00" fill="grey"> OD_IO</text>
</g>
<!-- Node6 -->
<g id="Node000006" class="node">
<title>Node6</title>
<g id="a_Node000006"><a xlink:href="structOD__stream__t.html" target="_top" xlink:title="IO stream structure, used for read/write access to OD variable, part of OD_IO_t.">
<polygon fill="white" stroke="#666666" points="236,-162 156,-162 156,-143 236,-143 236,-162"/>
<text text-anchor="middle" x="196" y="-150" font-family="Helvetica,sans-Serif" font-size="10.00">OD_stream_t</text>
</a>
</g>
</g>
<!-- Node6&#45;&gt;Node5 -->
<g id="edge5_Node000005_Node000006" class="edge">
<title>Node6&#45;&gt;Node5</title>
<g id="a_edge5_Node000005_Node000006"><a xlink:title=" ">
<path fill="none" stroke="#9a32cd" stroke-dasharray="5,2" d="M203.39,-133.32C208.29,-121.24 214.52,-105.91 218.38,-96.41"/>
<polygon fill="#9a32cd" stroke="#9a32cd" points="200.03,-132.29 199.51,-142.87 206.51,-134.92 200.03,-132.29"/>
</a>
</g>
<text text-anchor="middle" x="230" y="-117" font-family="Helvetica,sans-Serif" font-size="10.00" fill="grey"> stream</text>
</g>
<!-- Node7 -->
<g id="Node000007" class="node">
<title>Node7</title>
<g id="a_Node000007"><a xlink:href="structCO__CANmodule__t.html" target="_top" xlink:title="Complete CAN module object.">
<polygon fill="white" stroke="#666666" points="371.5,-96 268.5,-96 268.5,-77 371.5,-77 371.5,-96"/>
<text text-anchor="middle" x="320" y="-84" font-family="Helvetica,sans-Serif" font-size="10.00">CO_CANmodule_t</text>
</a>
</g>
</g>
<!-- Node7&#45;&gt;Node1 -->
<g id="edge6_Node000001_Node000007" class="edge">
<title>Node7&#45;&gt;Node1</title>
<g id="a_edge6_Node000001_Node000007"><a xlink:title=" ">
<path fill="none" stroke="#9a32cd" stroke-dasharray="5,2" d="M308.76,-68.29C298.69,-52.88 284.35,-30.93 276.56,-19"/>
<polygon fill="#9a32cd" stroke="#9a32cd" points="305.98,-70.44 314.38,-76.9 311.84,-66.61 305.98,-70.44"/>
</a>
</g>
<text text-anchor="middle" x="328.5" y="-51" font-family="Helvetica,sans-Serif" font-size="10.00" fill="grey"> CANdevRx</text>
<text text-anchor="middle" x="328.5" y="-40" font-family="Helvetica,sans-Serif" font-size="10.00" fill="grey">CANdevTx</text>
</g>
<!-- Node8 -->
<g id="Node000008" class="node">
<title>Node8</title>
<g id="a_Node000008"><a xlink:href="structCO__CANrx__t.html" target="_top" xlink:title="Configuration object for CAN received message for specific CANopenNode Object.">
<polygon fill="white" stroke="#666666" points="330,-162 254,-162 254,-143 330,-143 330,-162"/>
<text text-anchor="middle" x="292" y="-150" font-family="Helvetica,sans-Serif" font-size="10.00">CO_CANrx_t</text>
</a>
</g>
</g>
<!-- Node8&#45;&gt;Node7 -->
<g id="edge7_Node000007_Node000008" class="edge">
<title>Node8&#45;&gt;Node7</title>
<g id="a_edge7_Node000007_Node000008"><a xlink:title=" ">
<path fill="none" stroke="#9a32cd" stroke-dasharray="5,2" d="M289.11,-132.64C288.91,-126.48 289.52,-119.76 292,-114 295.07,-106.87 301.11,-100.76 306.79,-96.21"/>
<polygon fill="#9a32cd" stroke="#9a32cd" points="285.64,-133.17 290.11,-142.77 292.61,-132.47 285.64,-133.17"/>
</a>
</g>
<text text-anchor="middle" x="312" y="-117" font-family="Helvetica,sans-Serif" font-size="10.00" fill="grey"> rxArray</text>
</g>
<!-- Node9 -->
<g id="Node000009" class="node">
<title>Node9</title>
<g id="a_Node000009"><a xlink:href="structCO__CANtx__t.html" target="_top" xlink:title="Configuration object for CAN transmit message for specific CANopenNode Object.">
<polygon fill="white" stroke="#666666" points="436,-162 360,-162 360,-143 436,-143 436,-162"/>
<text text-anchor="middle" x="398" y="-150" font-family="Helvetica,sans-Serif" font-size="10.00">CO_CANtx_t</text>
</a>
</g>
</g>
<!-- Node9&#45;&gt;Node1 -->
<g id="edge9_Node000001_Node000009" class="edge">
<title>Node9&#45;&gt;Node1</title>
<g id="a_edge9_Node000001_Node000009"><a xlink:title=" ">
<path fill="none" stroke="#9a32cd" stroke-dasharray="5,2" d="M397.58,-132.59C395.9,-106.67 388.76,-60.65 360,-37 348.05,-27.17 332.54,-20.98 317.83,-17.09"/>
<polygon fill="#9a32cd" stroke="#9a32cd" points="394.1,-133.09 398.02,-142.93 401.09,-132.78 394.1,-133.09"/>
</a>
</g>
<text text-anchor="middle" x="419.5" y="-84" font-family="Helvetica,sans-Serif" font-size="10.00" fill="grey"> CANtxBuff</text>
</g>
<!-- Node9&#45;&gt;Node7 -->
<g id="edge8_Node000007_Node000009" class="edge">
<title>Node9&#45;&gt;Node7</title>
<g id="a_edge8_Node000007_Node000009"><a xlink:title=" ">
<path fill="none" stroke="#9a32cd" stroke-dasharray="5,2" d="M373.11,-137.72C366.97,-133.91 360.56,-129.55 355,-125 344.25,-116.2 333.61,-104.2 326.93,-96.17"/>
<polygon fill="#9a32cd" stroke="#9a32cd" points="371.41,-140.78 381.79,-142.89 374.99,-134.77 371.41,-140.78"/>
</a>
</g>
<text text-anchor="middle" x="375" y="-117" font-family="Helvetica,sans-Serif" font-size="10.00" fill="grey"> txArray</text>
</g>
<!-- Node10 -->
<g id="Node000010" class="node">
<title>Node10</title>
<g id="a_Node000010"><a xlink:href="structCO__fifo__t.html" target="_top" xlink:title="Fifo object.">
<polygon fill="white" stroke="#666666" points="544,-96 482,-96 482,-77 544,-77 544,-96"/>
<text text-anchor="middle" x="513" y="-84" font-family="Helvetica,sans-Serif" font-size="10.00">CO_fifo_t</text>
</a>
</g>
</g>
<!-- Node10&#45;&gt;Node1 -->
<g id="edge11_Node000001_Node000010" class="edge">
<title>Node10&#45;&gt;Node1</title>
<g id="a_edge11_Node000001_Node000010"><a xlink:title=" ">
<path fill="none" stroke="#9a32cd" stroke-dasharray="5,2" d="M491.29,-71.21C473.6,-60.23 447.62,-45.53 423,-37 388.7,-25.12 348.13,-18.39 317.53,-14.69"/>
<polygon fill="#9a32cd" stroke="#9a32cd" points="489.88,-74.46 500.2,-76.87 493.63,-68.55 489.88,-74.46"/>
</a>
</g>
<text text-anchor="middle" x="486.5" y="-45.5" font-family="Helvetica,sans-Serif" font-size="10.00" fill="grey"> bufFifo</text>
</g>
</g>
</svg>
