<?xml version="1.0" encoding="UTF-8" standalone="no"?>
<!DOCTYPE svg PUBLIC "-//W3C//DTD SVG 1.1//EN"
 "http://www.w3.org/Graphics/SVG/1.1/DTD/svg11.dtd">
<!-- Generated by graphviz version 2.43.0 (0)
 -->
<!-- Title: CO_SRDOGuard_t Pages: 1 -->
<svg width="383pt" height="173pt"
 viewBox="0.00 0.00 382.50 173.00" xmlns="http://www.w3.org/2000/svg" xmlns:xlink="http://www.w3.org/1999/xlink">
<g id="graph0" class="graph" transform="scale(1 1) rotate(0) translate(4 169)">
<title>CO_SRDOGuard_t</title>
<!-- Node1 -->
<g id="Node000001" class="node">
<title>Node1</title>
<g id="a_Node000001"><a xlink:title="Guard Object for SRDO.">
<polygon fill="#999999" stroke="#666666" points="235,-19 133,-19 133,0 235,0 235,-19"/>
<text text-anchor="middle" x="184" y="-7" font-family="Helvetica,sans-Serif" font-size="10.00">CO_SRDOGuard_t</text>
</a>
</g>
</g>
<!-- Node2 -->
<g id="Node000002" class="node">
<title>Node2</title>
<g id="a_Node000002"><a xlink:href="structOD__IO__t.html" target="_top" xlink:title="Structure for input / output on the OD variable.">
<polygon fill="white" stroke="#666666" points="68,-97.5 12,-97.5 12,-78.5 68,-78.5 68,-97.5"/>
<text text-anchor="middle" x="40" y="-85.5" font-family="Helvetica,sans-Serif" font-size="10.00">OD_IO_t</text>
</a>
</g>
</g>
<!-- Node2&#45;&gt;Node1 -->
<g id="edge1_Node000001_Node000002" class="edge">
<title>Node2&#45;&gt;Node1</title>
<g id="a_edge1_Node000001_Node000002"><a xlink:title=" ">
<path fill="none" stroke="#9a32cd" stroke-dasharray="5,2" d="M35.15,-68.63C33.55,-58.2 33.74,-45.55 41,-37 52.8,-23.09 96.84,-16.44 132.97,-13.29"/>
<polygon fill="#9a32cd" stroke="#9a32cd" points="31.73,-69.39 37.23,-78.44 38.58,-67.93 31.73,-69.39"/>
</a>
</g>
<text text-anchor="middle" x="105.5" y="-45.5" font-family="Helvetica,sans-Serif" font-size="10.00" fill="grey"> OD_IO_configurationValid</text>
</g>
<!-- Node3 -->
<g id="Node000003" class="node">
<title>Node3</title>
<g id="a_Node000003"><a xlink:href="structOD__stream__t.html" target="_top" xlink:title="IO stream structure, used for read/write access to OD variable, part of OD_IO_t.">
<polygon fill="white" stroke="#666666" points="80,-165 0,-165 0,-146 80,-146 80,-165"/>
<text text-anchor="middle" x="40" y="-153" font-family="Helvetica,sans-Serif" font-size="10.00">OD_stream_t</text>
</a>
</g>
</g>
<!-- Node3&#45;&gt;Node2 -->
<g id="edge2_Node000002_Node000003" class="edge">
<title>Node3&#45;&gt;Node2</title>
<g id="a_edge2_Node000002_Node000003"><a xlink:title=" ">
<path fill="none" stroke="#9a32cd" stroke-dasharray="5,2" d="M40,-135.68C40,-123.21 40,-107.42 40,-97.77"/>
<polygon fill="#9a32cd" stroke="#9a32cd" points="36.5,-135.94 40,-145.94 43.5,-135.94 36.5,-135.94"/>
</a>
</g>
<text text-anchor="middle" x="59" y="-120" font-family="Helvetica,sans-Serif" font-size="10.00" fill="grey"> stream</text>
</g>
<!-- Node4 -->
<g id="Node000004" class="node">
<title>Node4</title>
<g id="a_Node000004"><a xlink:href="structOD__entry__t.html" target="_top" xlink:title="Object Dictionary entry for one OD object.">
<polygon fill="white" stroke="#666666" points="374.5,-97.5 303.5,-97.5 303.5,-78.5 374.5,-78.5 374.5,-97.5"/>
<text text-anchor="middle" x="339" y="-85.5" font-family="Helvetica,sans-Serif" font-size="10.00">OD_entry_t</text>
</a>
</g>
</g>
<!-- Node4&#45;&gt;Node1 -->
<g id="edge3_Node000001_Node000004" class="edge">
<title>Node4&#45;&gt;Node1</title>
<g id="a_edge3_Node000001_Node000004"><a xlink:title=" ">
<path fill="none" stroke="#9a32cd" stroke-dasharray="5,2" d="M312.4,-73.87C280.73,-58.24 228.74,-32.58 201.65,-19.21"/>
<polygon fill="#9a32cd" stroke="#9a32cd" points="311,-77.09 321.52,-78.37 314.1,-70.81 311,-77.09"/>
</a>
</g>
<text text-anchor="middle" x="318.5" y="-51" font-family="Helvetica,sans-Serif" font-size="10.00" fill="grey"> OD_13FE_entry</text>
<text text-anchor="middle" x="318.5" y="-40" font-family="Helvetica,sans-Serif" font-size="10.00" fill="grey">OD_13FF_entry</text>
</g>
<!-- Node5 -->
<g id="Node000005" class="node">
<title>Node5</title>
<g id="a_Node000005"><a xlink:href="structOD__extension__t.html" target="_top" xlink:title="Extension of OD object, which can optionally be specified by application in initialization phase with...">
<polygon fill="white" stroke="#666666" points="278,-165 184,-165 184,-146 278,-146 278,-165"/>
<text text-anchor="middle" x="231" y="-153" font-family="Helvetica,sans-Serif" font-size="10.00">OD_extension_t</text>
</a>
</g>
</g>
<!-- Node5&#45;&gt;Node1 -->
<g id="edge5_Node000001_Node000005" class="edge">
<title>Node5&#45;&gt;Node1</title>
<g id="a_edge5_Node000001_Node000005"><a xlink:title=" ">
<path fill="none" stroke="#9a32cd" stroke-dasharray="5,2" d="M216.92,-137.98C208.81,-127.5 199.22,-113.28 194,-99 183.81,-71.11 183.28,-35.28 183.65,-19.1"/>
<polygon fill="#9a32cd" stroke="#9a32cd" points="214.25,-140.24 223.26,-145.81 219.69,-135.84 214.25,-140.24"/>
</a>
</g>
<text text-anchor="middle" x="244.5" y="-91" font-family="Helvetica,sans-Serif" font-size="10.00" fill="grey"> OD_13FE_extension</text>
<text text-anchor="middle" x="244.5" y="-80" font-family="Helvetica,sans-Serif" font-size="10.00" fill="grey">OD_13FF_extension</text>
</g>
<!-- Node5&#45;&gt;Node4 -->
<g id="edge4_Node000004_Node000005" class="edge">
<title>Node5&#45;&gt;Node4</title>
<g id="a_edge4_Node000004_Node000005"><a xlink:title=" ">
<path fill="none" stroke="#9a32cd" stroke-dasharray="5,2" d="M253.93,-140.59C275.41,-127.56 306.85,-108.5 324.88,-97.57"/>
<polygon fill="#9a32cd" stroke="#9a32cd" points="251.85,-137.76 245.12,-145.94 255.48,-143.74 251.85,-137.76"/>
</a>
</g>
<text text-anchor="middle" x="317" y="-120" font-family="Helvetica,sans-Serif" font-size="10.00" fill="grey"> extension</text>
</g>
</g>
</svg>
