<?xml version="1.0" encoding="UTF-8" standalone="no"?>
<!DOCTYPE svg PUBLIC "-//W3C//DTD SVG 1.1//EN"
 "http://www.w3.org/Graphics/SVG/1.1/DTD/svg11.dtd">
<!-- Generated by graphviz version 2.43.0 (0)
 -->
<!-- Title: CO_TIME_t Pages: 1 -->
<svg width="333pt" height="162pt"
 viewBox="0.00 0.00 333.00 162.00" xmlns="http://www.w3.org/2000/svg" xmlns:xlink="http://www.w3.org/1999/xlink">
<g id="graph0" class="graph" transform="scale(1 1) rotate(0) translate(4 158)">
<title>CO_TIME_t</title>
<polygon fill="white" stroke="transparent" points="-4,4 -4,-158 329,-158 329,4 -4,4"/>
<!-- Node1 -->
<g id="node1" class="node">
<title>Node1</title>
<g id="a_node1"><a xlink:title="TIME producer and consumer object.">
<polygon fill="#bfbfbf" stroke="black" points="112.5,-0.5 112.5,-19.5 181.5,-19.5 181.5,-0.5 112.5,-0.5"/>
<text text-anchor="middle" x="147" y="-7.5" font-family="Helvetica,sans-Serif" font-size="10.00">CO_TIME_t</text>
</a>
</g>
</g>
<!-- Node2 -->
<g id="node2" class="node">
<title>Node2</title>
<g id="a_node2"><a xlink:href="structCO__CANtx__t.html" target="_top" xlink:title="Configuration object for CAN transmit message for specific CANopenNode Object.">
<polygon fill="white" stroke="black" points="0,-134.5 0,-153.5 76,-153.5 76,-134.5 0,-134.5"/>
<text text-anchor="middle" x="38" y="-141.5" font-family="Helvetica,sans-Serif" font-size="10.00">CO_CANtx_t</text>
</a>
</g>
</g>
<!-- Node2&#45;&gt;Node1 -->
<g id="edge1" class="edge">
<title>Node2&#45;&gt;Node1</title>
<path fill="none" stroke="#9a32cd" stroke-dasharray="5,2" d="M30.41,-124.72C24.9,-108.34 20.14,-84.31 31,-67 48.71,-38.78 85.1,-24.44 112.43,-17.38"/>
<polygon fill="#9a32cd" stroke="#9a32cd" points="27.19,-126.1 33.98,-134.23 33.74,-123.64 27.19,-126.1"/>
<text text-anchor="middle" x="58.5" y="-74.5" font-family="Helvetica,sans-Serif" font-size="10.00"> CANtxBuff</text>
</g>
<!-- Node3 -->
<g id="node3" class="node">
<title>Node3</title>
<g id="a_node3"><a xlink:href="structCO__CANmodule__t.html" target="_top" xlink:title="Complete CAN module object.">
<polygon fill="white" stroke="black" points="95.5,-67.5 95.5,-86.5 198.5,-86.5 198.5,-67.5 95.5,-67.5"/>
<text text-anchor="middle" x="147" y="-74.5" font-family="Helvetica,sans-Serif" font-size="10.00">CO_CANmodule_t</text>
</a>
</g>
</g>
<!-- Node2&#45;&gt;Node3 -->
<g id="edge3" class="edge">
<title>Node2&#45;&gt;Node3</title>
<path fill="none" stroke="#9a32cd" stroke-dasharray="5,2" d="M61.57,-128.94C83.16,-116.07 114.42,-97.43 132.53,-86.63"/>
<polygon fill="#9a32cd" stroke="#9a32cd" points="59.5,-126.11 52.7,-134.23 63.08,-132.12 59.5,-126.11"/>
<text text-anchor="middle" x="120" y="-108" font-family="Helvetica,sans-Serif" font-size="10.00"> txArray</text>
</g>
<!-- Node3&#45;&gt;Node1 -->
<g id="edge2" class="edge">
<title>Node3&#45;&gt;Node1</title>
<path fill="none" stroke="#9a32cd" stroke-dasharray="5,2" d="M147,-57.04C147,-44.67 147,-29.12 147,-19.63"/>
<polygon fill="#9a32cd" stroke="#9a32cd" points="143.5,-57.23 147,-67.23 150.5,-57.23 143.5,-57.23"/>
<text text-anchor="middle" x="174.5" y="-41" font-family="Helvetica,sans-Serif" font-size="10.00"> CANdevTx</text>
</g>
<!-- Node4 -->
<g id="node4" class="node">
<title>Node4</title>
<g id="a_node4"><a xlink:href="structCO__CANrx__t.html" target="_top" xlink:title="Configuration object for CAN received message for specific CANopenNode Object.">
<polygon fill="white" stroke="black" points="109,-134.5 109,-153.5 185,-153.5 185,-134.5 109,-134.5"/>
<text text-anchor="middle" x="147" y="-141.5" font-family="Helvetica,sans-Serif" font-size="10.00">CO_CANrx_t</text>
</a>
</g>
</g>
<!-- Node4&#45;&gt;Node3 -->
<g id="edge4" class="edge">
<title>Node4&#45;&gt;Node3</title>
<path fill="none" stroke="#9a32cd" stroke-dasharray="5,2" d="M147,-124.04C147,-111.67 147,-96.12 147,-86.63"/>
<polygon fill="#9a32cd" stroke="#9a32cd" points="143.5,-124.23 147,-134.23 150.5,-124.23 143.5,-124.23"/>
<text text-anchor="middle" x="167" y="-108" font-family="Helvetica,sans-Serif" font-size="10.00"> rxArray</text>
</g>
<!-- Node5 -->
<g id="node5" class="node">
<title>Node5</title>
<g id="a_node5"><a xlink:href="structOD__extension__t.html" target="_top" xlink:title="Extension of OD object, which can optionally be specified by application in initialization phase with...">
<polygon fill="white" stroke="black" points="217,-67.5 217,-86.5 311,-86.5 311,-67.5 217,-67.5"/>
<text text-anchor="middle" x="264" y="-74.5" font-family="Helvetica,sans-Serif" font-size="10.00">OD_extension_t</text>
</a>
</g>
</g>
<!-- Node5&#45;&gt;Node1 -->
<g id="edge5" class="edge">
<title>Node5&#45;&gt;Node1</title>
<path fill="none" stroke="#9a32cd" stroke-dasharray="5,2" d="M243.5,-61.48C232.6,-54.04 218.84,-45.09 206,-38 193.58,-31.14 179.09,-24.49 167.58,-19.51"/>
<polygon fill="#9a32cd" stroke="#9a32cd" points="241.68,-64.47 251.89,-67.29 245.66,-58.72 241.68,-64.47"/>
<text text-anchor="middle" x="274.5" y="-41" font-family="Helvetica,sans-Serif" font-size="10.00"> OD_1012_extension</text>
</g>
</g>
</svg>
