<?xml version="1.0" encoding="UTF-8" standalone="no"?>
<!DOCTYPE svg PUBLIC "-//W3C//DTD SVG 1.1//EN"
 "http://www.w3.org/Graphics/SVG/1.1/DTD/svg11.dtd">
<!-- Generated by graphviz version 2.43.0 (0)
 -->
<!-- Title: CO_TPDO_t Pages: 1 -->
<svg width="875pt" height="355pt"
 viewBox="0.00 0.00 875.00 355.00" xmlns="http://www.w3.org/2000/svg" xmlns:xlink="http://www.w3.org/1999/xlink">
<g id="graph0" class="graph" transform="scale(1 1) rotate(0) translate(4 351)">
<title>CO_TPDO_t</title>
<polygon fill="white" stroke="transparent" points="-4,4 -4,-351 871,-351 871,4 -4,4"/>
<!-- Node1 -->
<g id="node1" class="node">
<title>Node1</title>
<g id="a_node1"><a xlink:title="TPDO object.">
<polygon fill="#bfbfbf" stroke="black" points="167,-0.5 167,-19.5 239,-19.5 239,-0.5 167,-0.5"/>
<text text-anchor="middle" x="203" y="-7.5" font-family="Helvetica,sans-Serif" font-size="10.00">CO_TPDO_t</text>
</a>
</g>
</g>
<!-- Node2 -->
<g id="node2" class="node">
<title>Node2</title>
<g id="a_node2"><a xlink:href="structCO__SYNC__t.html" target="_top" xlink:title="SYNC producer and consumer object.">
<polygon fill="white" stroke="black" points="167.5,-67.5 167.5,-86.5 238.5,-86.5 238.5,-67.5 167.5,-67.5"/>
<text text-anchor="middle" x="203" y="-74.5" font-family="Helvetica,sans-Serif" font-size="10.00">CO_SYNC_t</text>
</a>
</g>
</g>
<!-- Node2&#45;&gt;Node1 -->
<g id="edge1" class="edge">
<title>Node2&#45;&gt;Node1</title>
<path fill="none" stroke="#9a32cd" stroke-dasharray="5,2" d="M203,-57.04C203,-44.67 203,-29.12 203,-19.63"/>
<polygon fill="#9a32cd" stroke="#9a32cd" points="199.5,-57.23 203,-67.23 206.5,-57.23 199.5,-57.23"/>
<text text-anchor="middle" x="218" y="-41" font-family="Helvetica,sans-Serif" font-size="10.00"> SYNC</text>
</g>
<!-- Node3 -->
<g id="node3" class="node">
<title>Node3</title>
<g id="a_node3"><a xlink:href="structCO__EM__t.html" target="_top" xlink:title="Emergency object.">
<polygon fill="white" stroke="black" points="320,-135.5 320,-154.5 380,-154.5 380,-135.5 320,-135.5"/>
<text text-anchor="middle" x="350" y="-142.5" font-family="Helvetica,sans-Serif" font-size="10.00">CO_EM_t</text>
</a>
</g>
</g>
<!-- Node3&#45;&gt;Node2 -->
<g id="edge2" class="edge">
<title>Node3&#45;&gt;Node2</title>
<path fill="none" stroke="#9a32cd" stroke-dasharray="5,2" d="M321.5,-131.21C292.25,-118.07 247.54,-98 222.22,-86.63"/>
<polygon fill="#9a32cd" stroke="#9a32cd" points="320.23,-134.47 330.78,-135.37 323.09,-128.08 320.23,-134.47"/>
<text text-anchor="middle" x="295.5" y="-108" font-family="Helvetica,sans-Serif" font-size="10.00"> em</text>
</g>
<!-- Node9 -->
<g id="node9" class="node">
<title>Node9</title>
<g id="a_node9"><a xlink:href="structCO__PDO__common__t.html" target="_top" xlink:title="PDO object, common properties.">
<polygon fill="white" stroke="black" points="458,-67.5 458,-86.5 572,-86.5 572,-67.5 458,-67.5"/>
<text text-anchor="middle" x="515" y="-74.5" font-family="Helvetica,sans-Serif" font-size="10.00">CO_PDO_common_t</text>
</a>
</g>
</g>
<!-- Node3&#45;&gt;Node9 -->
<g id="edge14" class="edge">
<title>Node3&#45;&gt;Node9</title>
<path fill="none" stroke="#9a32cd" stroke-dasharray="5,2" d="M381.16,-131.54C414.07,-118.37 465.08,-97.97 493.69,-86.53"/>
<polygon fill="#9a32cd" stroke="#9a32cd" points="379.56,-128.41 371.57,-135.37 382.16,-134.91 379.56,-128.41"/>
<text text-anchor="middle" x="456.5" y="-108" font-family="Helvetica,sans-Serif" font-size="10.00"> em</text>
</g>
<!-- Node4 -->
<g id="node4" class="node">
<title>Node4</title>
<g id="a_node4"><a xlink:href="structCO__EM__fifo__t.html" target="_top" xlink:title="Fifo buffer for emergency producer and error history.">
<polygon fill="white" stroke="black" points="324,-248.5 324,-267.5 406,-267.5 406,-248.5 324,-248.5"/>
<text text-anchor="middle" x="365" y="-255.5" font-family="Helvetica,sans-Serif" font-size="10.00">CO_EM_fifo_t</text>
</a>
</g>
</g>
<!-- Node4&#45;&gt;Node3 -->
<g id="edge3" class="edge">
<title>Node4&#45;&gt;Node3</title>
<path fill="none" stroke="#9a32cd" stroke-dasharray="5,2" d="M362.46,-238.18C359.17,-213.87 353.59,-172.55 351.17,-154.67"/>
<polygon fill="#9a32cd" stroke="#9a32cd" points="359.02,-238.85 363.82,-248.29 365.95,-237.91 359.02,-238.85"/>
<text text-anchor="middle" x="370" y="-193.5" font-family="Helvetica,sans-Serif" font-size="10.00"> fifo</text>
</g>
<!-- Node5 -->
<g id="node5" class="node">
<title>Node5</title>
<g id="a_node5"><a xlink:href="structCO__CANtx__t.html" target="_top" xlink:title="Configuration object for CAN transmit message for specific CANopenNode Object.">
<polygon fill="white" stroke="black" points="85,-327.5 85,-346.5 161,-346.5 161,-327.5 85,-327.5"/>
<text text-anchor="middle" x="123" y="-334.5" font-family="Helvetica,sans-Serif" font-size="10.00">CO_CANtx_t</text>
</a>
</g>
</g>
<!-- Node5&#45;&gt;Node1 -->
<g id="edge12" class="edge">
<title>Node5&#45;&gt;Node1</title>
<path fill="none" stroke="#9a32cd" stroke-dasharray="5,2" d="M74.76,-326.05C40.3,-315.8 0,-295.92 0,-259 0,-259 0,-259 0,-76 0,-41.4 108.32,-22.67 166.71,-15.08"/>
<polygon fill="#9a32cd" stroke="#9a32cd" points="74.19,-329.52 84.76,-328.82 76.05,-322.78 74.19,-329.52"/>
<text text-anchor="middle" x="27.5" y="-142.5" font-family="Helvetica,sans-Serif" font-size="10.00"> CANtxBuff</text>
</g>
<!-- Node5&#45;&gt;Node2 -->
<g id="edge10" class="edge">
<title>Node5&#45;&gt;Node2</title>
<path fill="none" stroke="#9a32cd" stroke-dasharray="5,2" d="M114.33,-317.66C101.02,-286.75 79.16,-222.85 100,-174 117.65,-132.63 163.14,-101.14 187.33,-86.69"/>
<polygon fill="#9a32cd" stroke="#9a32cd" points="111.31,-319.46 118.6,-327.15 117.69,-316.59 111.31,-319.46"/>
<text text-anchor="middle" x="127.5" y="-193.5" font-family="Helvetica,sans-Serif" font-size="10.00"> CANtxBuff</text>
</g>
<!-- Node5&#45;&gt;Node3 -->
<g id="edge4" class="edge">
<title>Node5&#45;&gt;Node3</title>
<path fill="none" stroke="#9a32cd" stroke-dasharray="5,2" d="M156.49,-323.55C166.26,-319.42 176.79,-314.46 186,-309 203.98,-298.35 207.97,-294.52 223,-280 241.38,-262.25 240.22,-252.17 260,-236 272.93,-225.42 280.22,-228.77 293,-218 315.68,-198.89 335.49,-169.54 344.63,-154.92"/>
<polygon fill="#9a32cd" stroke="#9a32cd" points="154.99,-320.38 147.05,-327.4 157.63,-326.87 154.99,-320.38"/>
<text text-anchor="middle" x="287.5" y="-255.5" font-family="Helvetica,sans-Serif" font-size="10.00"> CANtxBuff</text>
</g>
<!-- Node6 -->
<g id="node6" class="node">
<title>Node6</title>
<g id="a_node6"><a xlink:href="structCO__CANmodule__t.html" target="_top" xlink:title="Complete CAN module object.">
<polygon fill="white" stroke="black" points="111.5,-248.5 111.5,-267.5 214.5,-267.5 214.5,-248.5 111.5,-248.5"/>
<text text-anchor="middle" x="163" y="-255.5" font-family="Helvetica,sans-Serif" font-size="10.00">CO_CANmodule_t</text>
</a>
</g>
</g>
<!-- Node5&#45;&gt;Node6 -->
<g id="edge6" class="edge">
<title>Node5&#45;&gt;Node6</title>
<path fill="none" stroke="#9a32cd" stroke-dasharray="5,2" d="M132.23,-318.22C140.43,-302.44 152.07,-280.04 158.42,-267.81"/>
<polygon fill="#9a32cd" stroke="#9a32cd" points="128.94,-316.98 127.43,-327.47 135.15,-320.2 128.94,-316.98"/>
<text text-anchor="middle" x="162" y="-301" font-family="Helvetica,sans-Serif" font-size="10.00"> txArray</text>
</g>
<!-- Node6&#45;&gt;Node2 -->
<g id="edge9" class="edge">
<title>Node6&#45;&gt;Node2</title>
<path fill="none" stroke="#9a32cd" stroke-dasharray="5,2" d="M160.58,-238.31C158.08,-213.76 155.92,-169.57 167,-134 172.77,-115.46 186.47,-97.14 195.21,-86.73"/>
<polygon fill="#9a32cd" stroke="#9a32cd" points="157.12,-238.86 161.75,-248.39 164.08,-238.06 157.12,-238.86"/>
<text text-anchor="middle" x="194.5" y="-148" font-family="Helvetica,sans-Serif" font-size="10.00"> CANdevRx</text>
<text text-anchor="middle" x="194.5" y="-137" font-family="Helvetica,sans-Serif" font-size="10.00">CANdevTx</text>
</g>
<!-- Node6&#45;&gt;Node3 -->
<g id="edge5" class="edge">
<title>Node6&#45;&gt;Node3</title>
<path fill="none" stroke="#9a32cd" stroke-dasharray="5,2" d="M186.54,-242.69C196.18,-236.03 206.94,-227.48 215,-218 229.29,-201.19 220.66,-187.65 238,-174 250.6,-164.08 291.2,-155.62 319.88,-150.67"/>
<polygon fill="#9a32cd" stroke="#9a32cd" points="184.53,-239.82 178.11,-248.25 188.38,-245.66 184.53,-239.82"/>
<text text-anchor="middle" x="265.5" y="-193.5" font-family="Helvetica,sans-Serif" font-size="10.00"> CANdevTx</text>
</g>
<!-- Node6&#45;&gt;Node9 -->
<g id="edge17" class="edge">
<title>Node6&#45;&gt;Node9</title>
<path fill="none" stroke="#9a32cd" stroke-dasharray="5,2" d="M173.25,-239.08C195.39,-200.67 246.74,-113.2 260,-105 291.99,-85.2 392.87,-79.78 457.75,-78.38"/>
<polygon fill="#9a32cd" stroke="#9a32cd" points="170.01,-237.7 168.06,-248.11 176.08,-241.19 170.01,-237.7"/>
<text text-anchor="middle" x="258.5" y="-142.5" font-family="Helvetica,sans-Serif" font-size="10.00"> CANdev</text>
</g>
<!-- Node7 -->
<g id="node7" class="node">
<title>Node7</title>
<g id="a_node7"><a xlink:href="structCO__CANrx__t.html" target="_top" xlink:title="Configuration object for CAN received message for specific CANopenNode Object.">
<polygon fill="white" stroke="black" points="246,-327.5 246,-346.5 322,-346.5 322,-327.5 246,-327.5"/>
<text text-anchor="middle" x="284" y="-334.5" font-family="Helvetica,sans-Serif" font-size="10.00">CO_CANrx_t</text>
</a>
</g>
</g>
<!-- Node7&#45;&gt;Node6 -->
<g id="edge7" class="edge">
<title>Node7&#45;&gt;Node6</title>
<path fill="none" stroke="#9a32cd" stroke-dasharray="5,2" d="M262.15,-322.09C237.22,-306.23 197.22,-280.78 176.47,-267.57"/>
<polygon fill="#9a32cd" stroke="#9a32cd" points="260.27,-325.05 270.59,-327.47 264.03,-319.14 260.27,-325.05"/>
<text text-anchor="middle" x="262" y="-301" font-family="Helvetica,sans-Serif" font-size="10.00"> rxArray</text>
</g>
<!-- Node8 -->
<g id="node8" class="node">
<title>Node8</title>
<g id="a_node8"><a xlink:href="structOD__extension__t.html" target="_top" xlink:title="Extension of OD object, which can optionally be specified by application in initialization phase with...">
<polygon fill="white" stroke="black" points="565,-327.5 565,-346.5 659,-346.5 659,-327.5 565,-327.5"/>
<text text-anchor="middle" x="612" y="-334.5" font-family="Helvetica,sans-Serif" font-size="10.00">OD_extension_t</text>
</a>
</g>
</g>
<!-- Node8&#45;&gt;Node2 -->
<g id="edge11" class="edge">
<title>Node8&#45;&gt;Node2</title>
<path fill="none" stroke="#9a32cd" stroke-dasharray="5,2" d="M611.11,-317.29C609.01,-294.72 602.02,-257.18 579,-236 553.77,-212.79 528.92,-241.54 504,-218 465.88,-181.98 510.46,-138.37 470,-105 452.5,-90.57 307.11,-82.47 238.53,-79.42"/>
<polygon fill="#9a32cd" stroke="#9a32cd" points="607.62,-317.56 611.82,-327.29 614.61,-317.07 607.62,-317.56"/>
<text text-anchor="middle" x="554.5" y="-199" font-family="Helvetica,sans-Serif" font-size="10.00"> OD_1005_extension</text>
<text text-anchor="middle" x="554.5" y="-188" font-family="Helvetica,sans-Serif" font-size="10.00">OD_1019_extension</text>
</g>
<!-- Node8&#45;&gt;Node3 -->
<g id="edge8" class="edge">
<title>Node8&#45;&gt;Node3</title>
<path fill="none" stroke="#9a32cd" stroke-dasharray="5,2" d="M555.93,-324.95C524.19,-316.59 485.14,-302.59 456,-280 410.99,-245.11 422.37,-216.08 384,-174 377.41,-166.77 368.91,-159.77 362.05,-154.58"/>
<polygon fill="#9a32cd" stroke="#9a32cd" points="555.41,-328.43 565.96,-327.47 557.11,-321.64 555.41,-328.43"/>
<text text-anchor="middle" x="517.5" y="-272" font-family="Helvetica,sans-Serif" font-size="10.00"> OD_1003_extension</text>
<text text-anchor="middle" x="517.5" y="-261" font-family="Helvetica,sans-Serif" font-size="10.00">OD_1014_extension</text>
<text text-anchor="middle" x="517.5" y="-250" font-family="Helvetica,sans-Serif" font-size="10.00">OD_1015_extension</text>
<text text-anchor="middle" x="517.5" y="-239" font-family="Helvetica,sans-Serif" font-size="10.00">OD_statusBits_extension</text>
</g>
<!-- Node8&#45;&gt;Node9 -->
<g id="edge21" class="edge">
<title>Node8&#45;&gt;Node9</title>
<path fill="none" stroke="#9a32cd" stroke-dasharray="5,2" d="M615.89,-317.63C621.55,-286.62 629.33,-222.53 609,-174 592.24,-133.98 550.21,-101.44 528.48,-86.63"/>
<polygon fill="#9a32cd" stroke="#9a32cd" points="612.45,-316.98 613.96,-327.47 619.32,-318.33 612.45,-316.98"/>
<text text-anchor="start" x="619" y="-210" font-family="Helvetica,sans-Serif" font-size="10.00"> OD_communicationParam</text>
<text text-anchor="middle" x="684.5" y="-199" font-family="Helvetica,sans-Serif" font-size="10.00">_ext</text>
<text text-anchor="start" x="619" y="-188" font-family="Helvetica,sans-Serif" font-size="10.00">OD_mappingParam</text>
<text text-anchor="middle" x="684.5" y="-177" font-family="Helvetica,sans-Serif" font-size="10.00">_extension</text>
</g>
<!-- Node13 -->
<g id="node13" class="node">
<title>Node13</title>
<g id="a_node13"><a xlink:href="structOD__entry__t.html" target="_top" xlink:title="Object Dictionary entry for one OD object.">
<polygon fill="white" stroke="black" points="680.5,-248.5 680.5,-267.5 751.5,-267.5 751.5,-248.5 680.5,-248.5"/>
<text text-anchor="middle" x="716" y="-255.5" font-family="Helvetica,sans-Serif" font-size="10.00">OD_entry_t</text>
</a>
</g>
</g>
<!-- Node8&#45;&gt;Node13 -->
<g id="edge20" class="edge">
<title>Node8&#45;&gt;Node13</title>
<path fill="none" stroke="#9a32cd" stroke-dasharray="5,2" d="M631.63,-321.46C653.11,-305.56 686.82,-280.6 704.42,-267.57"/>
<polygon fill="#9a32cd" stroke="#9a32cd" points="629.48,-318.7 623.53,-327.47 633.65,-324.33 629.48,-318.7"/>
<text text-anchor="middle" x="686" y="-301" font-family="Helvetica,sans-Serif" font-size="10.00"> extension</text>
</g>
<!-- Node9&#45;&gt;Node1 -->
<g id="edge13" class="edge">
<title>Node9&#45;&gt;Node1</title>
<path fill="none" stroke="#9a32cd" stroke-dasharray="5,2" d="M463.75,-65.32C400.56,-52.16 294.76,-30.12 239.35,-18.57"/>
<polygon fill="#9a32cd" stroke="#9a32cd" points="463.39,-68.82 473.89,-67.44 464.81,-61.97 463.39,-68.82"/>
<text text-anchor="middle" x="413.5" y="-41" font-family="Helvetica,sans-Serif" font-size="10.00"> PDO_common</text>
</g>
<!-- Node10 -->
<g id="node10" class="node">
<title>Node10</title>
<g id="a_node10"><a xlink:href="structOD__IO__t.html" target="_top" xlink:title="Structure for input / output on the OD variable.">
<polygon fill="white" stroke="black" points="779,-135.5 779,-154.5 835,-154.5 835,-135.5 779,-135.5"/>
<text text-anchor="middle" x="807" y="-142.5" font-family="Helvetica,sans-Serif" font-size="10.00">OD_IO_t</text>
</a>
</g>
</g>
<!-- Node10&#45;&gt;Node9 -->
<g id="edge15" class="edge">
<title>Node10&#45;&gt;Node9</title>
<path fill="none" stroke="#9a32cd" stroke-dasharray="5,2" d="M776.05,-131.73C753.37,-123.15 721.67,-112.02 693,-105 653.08,-95.23 607.2,-88.37 572.02,-84.01"/>
<polygon fill="#9a32cd" stroke="#9a32cd" points="774.9,-135.03 785.49,-135.35 777.41,-128.5 774.9,-135.03"/>
<text text-anchor="middle" x="748" y="-108" font-family="Helvetica,sans-Serif" font-size="10.00"> OD_IO</text>
</g>
<!-- Node11 -->
<g id="node11" class="node">
<title>Node11</title>
<g id="a_node11"><a xlink:href="structOD__stream__t.html" target="_top" xlink:title="IO stream structure, used for read/write access to OD variable, part of OD_IO_t.">
<polygon fill="white" stroke="black" points="787,-248.5 787,-267.5 867,-267.5 867,-248.5 787,-248.5"/>
<text text-anchor="middle" x="827" y="-255.5" font-family="Helvetica,sans-Serif" font-size="10.00">OD_stream_t</text>
</a>
</g>
</g>
<!-- Node11&#45;&gt;Node10 -->
<g id="edge16" class="edge">
<title>Node11&#45;&gt;Node10</title>
<path fill="none" stroke="#9a32cd" stroke-dasharray="5,2" d="M823.61,-238.18C819.23,-213.87 811.78,-172.55 808.56,-154.67"/>
<polygon fill="#9a32cd" stroke="#9a32cd" points="820.21,-239.07 825.43,-248.29 827.1,-237.83 820.21,-239.07"/>
<text text-anchor="middle" x="838" y="-193.5" font-family="Helvetica,sans-Serif" font-size="10.00"> stream</text>
</g>
<!-- Node12 -->
<g id="node12" class="node">
<title>Node12</title>
<g id="a_node12"><a xlink:href="structOD__t.html" target="_top" xlink:title="Object Dictionary.">
<polygon fill="white" stroke="black" points="699.5,-135.5 699.5,-154.5 740.5,-154.5 740.5,-135.5 699.5,-135.5"/>
<text text-anchor="middle" x="720" y="-142.5" font-family="Helvetica,sans-Serif" font-size="10.00">OD_t</text>
</a>
</g>
</g>
<!-- Node12&#45;&gt;Node9 -->
<g id="edge18" class="edge">
<title>Node12&#45;&gt;Node9</title>
<path fill="none" stroke="#9a32cd" stroke-dasharray="5,2" d="M697.66,-130.31C683.12,-121.93 663.49,-111.58 645,-105 621.77,-96.72 595.24,-90.65 572.24,-86.38"/>
<polygon fill="#9a32cd" stroke="#9a32cd" points="696.03,-133.41 706.42,-135.48 699.58,-127.38 696.03,-133.41"/>
<text text-anchor="middle" x="679.5" y="-108" font-family="Helvetica,sans-Serif" font-size="10.00"> OD</text>
</g>
<!-- Node13&#45;&gt;Node12 -->
<g id="edge19" class="edge">
<title>Node13&#45;&gt;Node12</title>
<path fill="none" stroke="#9a32cd" stroke-dasharray="5,2" d="M741.2,-242.54C749.76,-236.21 758.33,-227.93 763,-218 771.31,-200.3 772.32,-191.19 763,-174 758.16,-165.07 749.1,-158.54 740.55,-154.05"/>
<polygon fill="#9a32cd" stroke="#9a32cd" points="739.12,-239.73 732.79,-248.22 743.03,-245.53 739.12,-239.73"/>
<text text-anchor="middle" x="778.5" y="-193.5" font-family="Helvetica,sans-Serif" font-size="10.00"> list</text>
</g>
</g>
</svg>
