<?xml version="1.0" encoding="UTF-8" standalone="no"?>
<!DOCTYPE svg PUBLIC "-//W3C//DTD SVG 1.1//EN"
 "http://www.w3.org/Graphics/SVG/1.1/DTD/svg11.dtd">
<!-- Generated by graphviz version 2.43.0 (0)
 -->
<!-- Title: CO_RPDO_t Pages: 1 -->
<svg width="925pt" height="355pt"
 viewBox="0.00 0.00 924.50 355.00" xmlns="http://www.w3.org/2000/svg" xmlns:xlink="http://www.w3.org/1999/xlink">
<g id="graph0" class="graph" transform="scale(1 1) rotate(0) translate(4 351)">
<title>CO_RPDO_t</title>
<polygon fill="white" stroke="transparent" points="-4,4 -4,-351 920.5,-351 920.5,4 -4,4"/>
<!-- Node1 -->
<g id="node1" class="node">
<title>Node1</title>
<g id="a_node1"><a xlink:title="RPDO object.">
<polygon fill="#bfbfbf" stroke="black" points="393.5,-0.5 393.5,-19.5 466.5,-19.5 466.5,-0.5 393.5,-0.5"/>
<text text-anchor="middle" x="430" y="-7.5" font-family="Helvetica,sans-Serif" font-size="10.00">CO_RPDO_t</text>
</a>
</g>
</g>
<!-- Node2 -->
<g id="node2" class="node">
<title>Node2</title>
<g id="a_node2"><a xlink:href="structCO__SYNC__t.html" target="_top" xlink:title="SYNC producer and consumer object.">
<polygon fill="white" stroke="black" points="339.5,-67.5 339.5,-86.5 410.5,-86.5 410.5,-67.5 339.5,-67.5"/>
<text text-anchor="middle" x="375" y="-74.5" font-family="Helvetica,sans-Serif" font-size="10.00">CO_SYNC_t</text>
</a>
</g>
</g>
<!-- Node2&#45;&gt;Node1 -->
<g id="edge1" class="edge">
<title>Node2&#45;&gt;Node1</title>
<path fill="none" stroke="#9a32cd" stroke-dasharray="5,2" d="M389.16,-59.27C399.88,-46.6 414.18,-29.7 422.7,-19.63"/>
<polygon fill="#9a32cd" stroke="#9a32cd" points="386.21,-57.34 382.42,-67.23 391.55,-61.86 386.21,-57.34"/>
<text text-anchor="middle" x="420" y="-41" font-family="Helvetica,sans-Serif" font-size="10.00"> SYNC</text>
</g>
<!-- Node3 -->
<g id="node3" class="node">
<title>Node3</title>
<g id="a_node3"><a xlink:href="structCO__EM__t.html" target="_top" xlink:title="Emergency object.">
<polygon fill="white" stroke="black" points="345,-135.5 345,-154.5 405,-154.5 405,-135.5 345,-135.5"/>
<text text-anchor="middle" x="375" y="-142.5" font-family="Helvetica,sans-Serif" font-size="10.00">CO_EM_t</text>
</a>
</g>
</g>
<!-- Node3&#45;&gt;Node2 -->
<g id="edge2" class="edge">
<title>Node3&#45;&gt;Node2</title>
<path fill="none" stroke="#9a32cd" stroke-dasharray="5,2" d="M375,-125.04C375,-112.47 375,-96.56 375,-86.84"/>
<polygon fill="#9a32cd" stroke="#9a32cd" points="371.5,-125.37 375,-135.37 378.5,-125.37 371.5,-125.37"/>
<text text-anchor="middle" x="384.5" y="-108" font-family="Helvetica,sans-Serif" font-size="10.00"> em</text>
</g>
<!-- Node9 -->
<g id="node9" class="node">
<title>Node9</title>
<g id="a_node9"><a xlink:href="structCO__PDO__common__t.html" target="_top" xlink:title="PDO object, common properties.">
<polygon fill="white" stroke="black" points="506,-67.5 506,-86.5 620,-86.5 620,-67.5 506,-67.5"/>
<text text-anchor="middle" x="563" y="-74.5" font-family="Helvetica,sans-Serif" font-size="10.00">CO_PDO_common_t</text>
</a>
</g>
</g>
<!-- Node3&#45;&gt;Node9 -->
<g id="edge13" class="edge">
<title>Node3&#45;&gt;Node9</title>
<path fill="none" stroke="#9a32cd" stroke-dasharray="5,2" d="M409.06,-132.04C446.5,-118.9 505.7,-98.12 538.71,-86.53"/>
<polygon fill="#9a32cd" stroke="#9a32cd" points="407.85,-128.76 399.58,-135.37 410.17,-135.36 407.85,-128.76"/>
<text text-anchor="middle" x="494.5" y="-108" font-family="Helvetica,sans-Serif" font-size="10.00"> em</text>
</g>
<!-- Node4 -->
<g id="node4" class="node">
<title>Node4</title>
<g id="a_node4"><a xlink:href="structCO__EM__fifo__t.html" target="_top" xlink:title="Fifo buffer for emergency producer and error history.">
<polygon fill="white" stroke="black" points="334,-248.5 334,-267.5 416,-267.5 416,-248.5 334,-248.5"/>
<text text-anchor="middle" x="375" y="-255.5" font-family="Helvetica,sans-Serif" font-size="10.00">CO_EM_fifo_t</text>
</a>
</g>
</g>
<!-- Node4&#45;&gt;Node3 -->
<g id="edge3" class="edge">
<title>Node4&#45;&gt;Node3</title>
<path fill="none" stroke="#9a32cd" stroke-dasharray="5,2" d="M375,-238.18C375,-213.87 375,-172.55 375,-154.67"/>
<polygon fill="#9a32cd" stroke="#9a32cd" points="371.5,-238.29 375,-248.29 378.5,-238.29 371.5,-238.29"/>
<text text-anchor="middle" x="385" y="-193.5" font-family="Helvetica,sans-Serif" font-size="10.00"> fifo</text>
</g>
<!-- Node5 -->
<g id="node5" class="node">
<title>Node5</title>
<g id="a_node5"><a xlink:href="structCO__CANtx__t.html" target="_top" xlink:title="Configuration object for CAN transmit message for specific CANopenNode Object.">
<polygon fill="white" stroke="black" points="135,-327.5 135,-346.5 211,-346.5 211,-327.5 135,-327.5"/>
<text text-anchor="middle" x="173" y="-334.5" font-family="Helvetica,sans-Serif" font-size="10.00">CO_CANtx_t</text>
</a>
</g>
</g>
<!-- Node5&#45;&gt;Node2 -->
<g id="edge10" class="edge">
<title>Node5&#45;&gt;Node2</title>
<path fill="none" stroke="#9a32cd" stroke-dasharray="5,2" d="M150.6,-321.56C137.09,-311.58 120.85,-297.07 112,-280 90.26,-238.05 82.55,-216.09 104,-174 127.69,-127.51 150.74,-124.85 199,-105 245.03,-86.07 302.77,-80.27 339.29,-78.57"/>
<polygon fill="#9a32cd" stroke="#9a32cd" points="148.77,-324.55 158.97,-327.44 152.8,-318.82 148.77,-324.55"/>
<text text-anchor="middle" x="131.5" y="-193.5" font-family="Helvetica,sans-Serif" font-size="10.00"> CANtxBuff</text>
</g>
<!-- Node5&#45;&gt;Node3 -->
<g id="edge4" class="edge">
<title>Node5&#45;&gt;Node3</title>
<path fill="none" stroke="#9a32cd" stroke-dasharray="5,2" d="M199.19,-322.26C205.37,-318.4 211.7,-313.91 217,-309 246.43,-281.77 239.89,-262.47 270,-236 282.55,-224.97 289.62,-228.01 303,-218 329.33,-198.3 355.41,-169.22 367.7,-154.79"/>
<polygon fill="#9a32cd" stroke="#9a32cd" points="197.23,-319.35 190.38,-327.42 200.77,-325.38 197.23,-319.35"/>
<text text-anchor="middle" x="297.5" y="-255.5" font-family="Helvetica,sans-Serif" font-size="10.00"> CANtxBuff</text>
</g>
<!-- Node6 -->
<g id="node6" class="node">
<title>Node6</title>
<g id="a_node6"><a xlink:href="structCO__CANmodule__t.html" target="_top" xlink:title="Complete CAN module object.">
<polygon fill="white" stroke="black" points="121.5,-248.5 121.5,-267.5 224.5,-267.5 224.5,-248.5 121.5,-248.5"/>
<text text-anchor="middle" x="173" y="-255.5" font-family="Helvetica,sans-Serif" font-size="10.00">CO_CANmodule_t</text>
</a>
</g>
</g>
<!-- Node5&#45;&gt;Node6 -->
<g id="edge6" class="edge">
<title>Node5&#45;&gt;Node6</title>
<path fill="none" stroke="#9a32cd" stroke-dasharray="5,2" d="M173,-317.31C173,-301.59 173,-279.81 173,-267.81"/>
<polygon fill="#9a32cd" stroke="#9a32cd" points="169.5,-317.47 173,-327.47 176.5,-317.47 169.5,-317.47"/>
<text text-anchor="middle" x="193" y="-301" font-family="Helvetica,sans-Serif" font-size="10.00"> txArray</text>
</g>
<!-- Node6&#45;&gt;Node2 -->
<g id="edge9" class="edge">
<title>Node6&#45;&gt;Node2</title>
<path fill="none" stroke="#9a32cd" stroke-dasharray="5,2" d="M168,-238.4C162.23,-212.62 156,-165.63 177,-134 194.98,-106.91 287.47,-90.04 339.44,-82.54"/>
<polygon fill="#9a32cd" stroke="#9a32cd" points="164.66,-239.46 170.44,-248.33 171.46,-237.79 164.66,-239.46"/>
<text text-anchor="middle" x="204.5" y="-148" font-family="Helvetica,sans-Serif" font-size="10.00"> CANdevRx</text>
<text text-anchor="middle" x="204.5" y="-137" font-family="Helvetica,sans-Serif" font-size="10.00">CANdevTx</text>
</g>
<!-- Node6&#45;&gt;Node3 -->
<g id="edge5" class="edge">
<title>Node6&#45;&gt;Node3</title>
<path fill="none" stroke="#9a32cd" stroke-dasharray="5,2" d="M196.54,-242.69C206.18,-236.03 216.94,-227.48 225,-218 239.29,-201.19 230.47,-187.41 248,-174 262.93,-162.58 312.16,-154.17 344.76,-149.69"/>
<polygon fill="#9a32cd" stroke="#9a32cd" points="194.53,-239.82 188.11,-248.25 198.38,-245.66 194.53,-239.82"/>
<text text-anchor="middle" x="275.5" y="-193.5" font-family="Helvetica,sans-Serif" font-size="10.00"> CANdevTx</text>
</g>
<!-- Node6&#45;&gt;Node9 -->
<g id="edge16" class="edge">
<title>Node6&#45;&gt;Node9</title>
<path fill="none" stroke="#9a32cd" stroke-dasharray="5,2" d="M181.79,-239.27C191.35,-221.27 207.96,-193.38 228,-174 252.38,-150.42 262.51,-148.87 293,-134 326.24,-117.79 335.14,-114.07 371,-105 415.54,-93.73 467.17,-86.8 505.67,-82.79"/>
<polygon fill="#9a32cd" stroke="#9a32cd" points="178.58,-237.86 177.12,-248.36 184.8,-241.06 178.58,-237.86"/>
<text text-anchor="middle" x="314.5" y="-142.5" font-family="Helvetica,sans-Serif" font-size="10.00"> CANdev</text>
</g>
<!-- Node7 -->
<g id="node7" class="node">
<title>Node7</title>
<g id="a_node7"><a xlink:href="structCO__CANrx__t.html" target="_top" xlink:title="Configuration object for CAN received message for specific CANopenNode Object.">
<polygon fill="white" stroke="black" points="0,-327.5 0,-346.5 76,-346.5 76,-327.5 0,-327.5"/>
<text text-anchor="middle" x="38" y="-334.5" font-family="Helvetica,sans-Serif" font-size="10.00">CO_CANrx_t</text>
</a>
</g>
</g>
<!-- Node7&#45;&gt;Node6 -->
<g id="edge7" class="edge">
<title>Node7&#45;&gt;Node6</title>
<path fill="none" stroke="#9a32cd" stroke-dasharray="5,2" d="M61.65,-322.51C89.41,-306.68 134.61,-280.89 157.97,-267.57"/>
<polygon fill="#9a32cd" stroke="#9a32cd" points="59.92,-319.47 52.96,-327.47 63.38,-325.55 59.92,-319.47"/>
<text text-anchor="middle" x="122" y="-301" font-family="Helvetica,sans-Serif" font-size="10.00"> rxArray</text>
</g>
<!-- Node8 -->
<g id="node8" class="node">
<title>Node8</title>
<g id="a_node8"><a xlink:href="structOD__extension__t.html" target="_top" xlink:title="Extension of OD object, which can optionally be specified by application in initialization phase with...">
<polygon fill="white" stroke="black" points="575,-327.5 575,-346.5 669,-346.5 669,-327.5 575,-327.5"/>
<text text-anchor="middle" x="622" y="-334.5" font-family="Helvetica,sans-Serif" font-size="10.00">OD_extension_t</text>
</a>
</g>
</g>
<!-- Node8&#45;&gt;Node2 -->
<g id="edge11" class="edge">
<title>Node8&#45;&gt;Node2</title>
<path fill="none" stroke="#9a32cd" stroke-dasharray="5,2" d="M621.11,-317.29C619.01,-294.72 612.02,-257.18 589,-236 563.77,-212.79 536.5,-243.86 514,-218 480.87,-179.94 536.65,-142.6 503,-105 490.92,-91.5 444.21,-84.34 410.7,-80.86"/>
<polygon fill="#9a32cd" stroke="#9a32cd" points="617.62,-317.56 621.82,-327.29 624.61,-317.07 617.62,-317.56"/>
<text text-anchor="middle" x="564.5" y="-199" font-family="Helvetica,sans-Serif" font-size="10.00"> OD_1005_extension</text>
<text text-anchor="middle" x="564.5" y="-188" font-family="Helvetica,sans-Serif" font-size="10.00">OD_1019_extension</text>
</g>
<!-- Node8&#45;&gt;Node3 -->
<g id="edge8" class="edge">
<title>Node8&#45;&gt;Node3</title>
<path fill="none" stroke="#9a32cd" stroke-dasharray="5,2" d="M564.64,-325.04C532.99,-316.77 494.46,-302.82 466,-280 422.52,-245.13 432.11,-218.83 399,-174 393.98,-167.2 387.76,-159.97 382.9,-154.56"/>
<polygon fill="#9a32cd" stroke="#9a32cd" points="564.1,-328.52 574.65,-327.53 565.79,-321.72 564.1,-328.52"/>
<text text-anchor="middle" x="527.5" y="-272" font-family="Helvetica,sans-Serif" font-size="10.00"> OD_1003_extension</text>
<text text-anchor="middle" x="527.5" y="-261" font-family="Helvetica,sans-Serif" font-size="10.00">OD_1014_extension</text>
<text text-anchor="middle" x="527.5" y="-250" font-family="Helvetica,sans-Serif" font-size="10.00">OD_1015_extension</text>
<text text-anchor="middle" x="527.5" y="-239" font-family="Helvetica,sans-Serif" font-size="10.00">OD_statusBits_extension</text>
</g>
<!-- Node8&#45;&gt;Node9 -->
<g id="edge20" class="edge">
<title>Node8&#45;&gt;Node9</title>
<path fill="none" stroke="#9a32cd" stroke-dasharray="5,2" d="M624.66,-317.25C628.34,-286.61 633.07,-224.2 619,-174 609.05,-138.51 582.78,-102.54 570.07,-86.56"/>
<polygon fill="#9a32cd" stroke="#9a32cd" points="621.16,-316.98 623.34,-327.35 628.1,-317.89 621.16,-316.98"/>
<text text-anchor="start" x="626" y="-210" font-family="Helvetica,sans-Serif" font-size="10.00"> OD_communicationParam</text>
<text text-anchor="middle" x="691.5" y="-199" font-family="Helvetica,sans-Serif" font-size="10.00">_ext</text>
<text text-anchor="start" x="626" y="-188" font-family="Helvetica,sans-Serif" font-size="10.00">OD_mappingParam</text>
<text text-anchor="middle" x="691.5" y="-177" font-family="Helvetica,sans-Serif" font-size="10.00">_extension</text>
</g>
<!-- Node13 -->
<g id="node13" class="node">
<title>Node13</title>
<g id="a_node13"><a xlink:href="structOD__entry__t.html" target="_top" xlink:title="Object Dictionary entry for one OD object.">
<polygon fill="white" stroke="black" points="845.5,-248.5 845.5,-267.5 916.5,-267.5 916.5,-248.5 845.5,-248.5"/>
<text text-anchor="middle" x="881" y="-255.5" font-family="Helvetica,sans-Serif" font-size="10.00">OD_entry_t</text>
</a>
</g>
</g>
<!-- Node8&#45;&gt;Node13 -->
<g id="edge19" class="edge">
<title>Node8&#45;&gt;Node13</title>
<path fill="none" stroke="#9a32cd" stroke-dasharray="5,2" d="M673.56,-325.26C717.41,-315.48 781.71,-299.59 836,-280 845.73,-276.49 856.23,-271.65 864.63,-267.51"/>
<polygon fill="#9a32cd" stroke="#9a32cd" points="672.71,-321.86 663.7,-327.43 674.22,-328.7 672.71,-321.86"/>
<text text-anchor="middle" x="804" y="-301" font-family="Helvetica,sans-Serif" font-size="10.00"> extension</text>
</g>
<!-- Node9&#45;&gt;Node1 -->
<g id="edge12" class="edge">
<title>Node9&#45;&gt;Node1</title>
<path fill="none" stroke="#9a32cd" stroke-dasharray="5,2" d="M536.28,-62.94C509.94,-50.07 470.43,-30.76 447.73,-19.67"/>
<polygon fill="#9a32cd" stroke="#9a32cd" points="534.82,-66.12 545.34,-67.37 537.89,-59.83 534.82,-66.12"/>
<text text-anchor="middle" x="540.5" y="-41" font-family="Helvetica,sans-Serif" font-size="10.00"> PDO_common</text>
</g>
<!-- Node10 -->
<g id="node10" class="node">
<title>Node10</title>
<g id="a_node10"><a xlink:href="structOD__IO__t.html" target="_top" xlink:title="Structure for input / output on the OD variable.">
<polygon fill="white" stroke="black" points="718,-135.5 718,-154.5 774,-154.5 774,-135.5 718,-135.5"/>
<text text-anchor="middle" x="746" y="-142.5" font-family="Helvetica,sans-Serif" font-size="10.00">OD_IO_t</text>
</a>
</g>
</g>
<!-- Node10&#45;&gt;Node9 -->
<g id="edge14" class="edge">
<title>Node10&#45;&gt;Node9</title>
<path fill="none" stroke="#9a32cd" stroke-dasharray="5,2" d="M718.53,-131.21C700.65,-123.14 676.7,-112.8 655,-105 635.58,-98.02 613.38,-91.46 595.66,-86.56"/>
<polygon fill="#9a32cd" stroke="#9a32cd" points="717.23,-134.46 727.78,-135.43 720.14,-128.1 717.23,-134.46"/>
<text text-anchor="middle" x="699" y="-108" font-family="Helvetica,sans-Serif" font-size="10.00"> OD_IO</text>
</g>
<!-- Node11 -->
<g id="node11" class="node">
<title>Node11</title>
<g id="a_node11"><a xlink:href="structOD__stream__t.html" target="_top" xlink:title="IO stream structure, used for read/write access to OD variable, part of OD_IO_t.">
<polygon fill="white" stroke="black" points="747,-248.5 747,-267.5 827,-267.5 827,-248.5 747,-248.5"/>
<text text-anchor="middle" x="787" y="-255.5" font-family="Helvetica,sans-Serif" font-size="10.00">OD_stream_t</text>
</a>
</g>
</g>
<!-- Node11&#45;&gt;Node10 -->
<g id="edge15" class="edge">
<title>Node11&#45;&gt;Node10</title>
<path fill="none" stroke="#9a32cd" stroke-dasharray="5,2" d="M786.97,-238.45C786.25,-220.95 783.31,-194.44 773,-174 769.23,-166.52 762.78,-159.72 757.12,-154.69"/>
<polygon fill="#9a32cd" stroke="#9a32cd" points="783.47,-238.56 787.18,-248.48 790.47,-238.41 783.47,-238.56"/>
<text text-anchor="middle" x="804" y="-193.5" font-family="Helvetica,sans-Serif" font-size="10.00"> stream</text>
</g>
<!-- Node12 -->
<g id="node12" class="node">
<title>Node12</title>
<g id="a_node12"><a xlink:href="structOD__t.html" target="_top" xlink:title="Object Dictionary.">
<polygon fill="white" stroke="black" points="821.5,-135.5 821.5,-154.5 862.5,-154.5 862.5,-135.5 821.5,-135.5"/>
<text text-anchor="middle" x="842" y="-142.5" font-family="Helvetica,sans-Serif" font-size="10.00">OD_t</text>
</a>
</g>
</g>
<!-- Node12&#45;&gt;Node9 -->
<g id="edge17" class="edge">
<title>Node12&#45;&gt;Node9</title>
<path fill="none" stroke="#9a32cd" stroke-dasharray="5,2" d="M811.64,-132.99C787.16,-124.44 751.7,-112.75 720,-105 687.22,-96.98 650.03,-90.48 620.08,-85.86"/>
<polygon fill="#9a32cd" stroke="#9a32cd" points="810.5,-136.3 821.1,-136.34 812.83,-129.7 810.5,-136.3"/>
<text text-anchor="middle" x="766.5" y="-108" font-family="Helvetica,sans-Serif" font-size="10.00"> OD</text>
</g>
<!-- Node13&#45;&gt;Node12 -->
<g id="edge18" class="edge">
<title>Node13&#45;&gt;Node12</title>
<path fill="none" stroke="#9a32cd" stroke-dasharray="5,2" d="M874.62,-238.83C866.11,-214.61 851.38,-172.71 845.05,-154.67"/>
<polygon fill="#9a32cd" stroke="#9a32cd" points="871.32,-240.02 877.94,-248.29 877.93,-237.7 871.32,-240.02"/>
<text text-anchor="middle" x="876.5" y="-193.5" font-family="Helvetica,sans-Serif" font-size="10.00"> list</text>
</g>
</g>
</svg>
