<?xml version="1.0" encoding="UTF-8" standalone="no"?>
<!DOCTYPE svg PUBLIC "-//W3C//DTD SVG 1.1//EN"
 "http://www.w3.org/Graphics/SVG/1.1/DTD/svg11.dtd">
<!-- Generated by graphviz version 2.43.0 (0)
 -->
<!-- Title: CO_EM_t Pages: 1 -->
<svg width="472pt" height="192pt"
 viewBox="0.00 0.00 472.00 192.00" xmlns="http://www.w3.org/2000/svg" xmlns:xlink="http://www.w3.org/1999/xlink">
<g id="graph0" class="graph" transform="scale(1 1) rotate(0) translate(4 188)">
<title>CO_EM_t</title>
<!-- Node1 -->
<g id="Node000001" class="node">
<title>Node1</title>
<g id="a_Node000001"><a xlink:title="Emergency object.">
<polygon fill="#999999" stroke="#666666" points="243,-19 183,-19 183,0 243,0 243,-19"/>
<text text-anchor="middle" x="213" y="-7" font-family="Helvetica,sans-Serif" font-size="10.00">CO_EM_t</text>
</a>
</g>
</g>
<!-- Node2 -->
<g id="Node000002" class="node">
<title>Node2</title>
<g id="a_Node000002"><a xlink:href="structCO__CANmodule__t.html" target="_top" xlink:title="Complete CAN module object.">
<polygon fill="white" stroke="#666666" points="119.5,-118 16.5,-118 16.5,-99 119.5,-99 119.5,-118"/>
<text text-anchor="middle" x="68" y="-106" font-family="Helvetica,sans-Serif" font-size="10.00">CO_CANmodule_t</text>
</a>
</g>
</g>
<!-- Node2&#45;&gt;Node1 -->
<g id="edge1_Node000001_Node000002" class="edge">
<title>Node2&#45;&gt;Node1</title>
<g id="a_edge1_Node000001_Node000002"><a xlink:title=" ">
<path fill="none" stroke="#9a32cd" stroke-dasharray="5,2" d="M67.94,-88.37C68.97,-72.4 73.07,-50.18 87,-37 100.56,-24.18 150.05,-16.81 182.82,-13.23"/>
<polygon fill="#9a32cd" stroke="#9a32cd" points="64.43,-88.59 67.64,-98.69 71.43,-88.79 64.43,-88.59"/>
</a>
</g>
<text text-anchor="middle" x="114.5" y="-56.5" font-family="Helvetica,sans-Serif" font-size="10.00" fill="grey"> CANdevTx</text>
</g>
<!-- Node3 -->
<g id="Node000003" class="node">
<title>Node3</title>
<g id="a_Node000003"><a xlink:href="structCO__CANrx__t.html" target="_top" xlink:title="Configuration object for CAN received message for specific CANopenNode Object.">
<polygon fill="white" stroke="#666666" points="76,-184 0,-184 0,-165 76,-165 76,-184"/>
<text text-anchor="middle" x="38" y="-172" font-family="Helvetica,sans-Serif" font-size="10.00">CO_CANrx_t</text>
</a>
</g>
</g>
<!-- Node3&#45;&gt;Node2 -->
<g id="edge2_Node000002_Node000003" class="edge">
<title>Node3&#45;&gt;Node2</title>
<g id="a_edge2_Node000002_Node000003"><a xlink:title=" ">
<path fill="none" stroke="#9a32cd" stroke-dasharray="5,2" d="M35.64,-154.58C35.61,-148.42 36.4,-141.7 39,-136 42.29,-128.8 48.55,-122.69 54.42,-118.15"/>
<polygon fill="#9a32cd" stroke="#9a32cd" points="32.16,-155 36.36,-164.73 39.14,-154.5 32.16,-155"/>
</a>
</g>
<text text-anchor="middle" x="59" y="-139" font-family="Helvetica,sans-Serif" font-size="10.00" fill="grey"> rxArray</text>
</g>
<!-- Node4 -->
<g id="Node000004" class="node">
<title>Node4</title>
<g id="a_Node000004"><a xlink:href="structCO__CANtx__t.html" target="_top" xlink:title="Configuration object for CAN transmit message for specific CANopenNode Object.">
<polygon fill="white" stroke="#666666" points="182,-184 106,-184 106,-165 182,-165 182,-184"/>
<text text-anchor="middle" x="144" y="-172" font-family="Helvetica,sans-Serif" font-size="10.00">CO_CANtx_t</text>
</a>
</g>
</g>
<!-- Node4&#45;&gt;Node1 -->
<g id="edge5_Node000001_Node000004" class="edge">
<title>Node4&#45;&gt;Node1</title>
<g id="a_edge5_Node000001_Node000004"><a xlink:title=" ">
<path fill="none" stroke="#9a32cd" stroke-dasharray="5,2" d="M148.06,-154.77C151.66,-139.47 157.51,-117.43 165,-99 177.37,-68.56 197.46,-35.1 207.26,-19.47"/>
<polygon fill="#9a32cd" stroke="#9a32cd" points="144.63,-154.05 145.84,-164.57 151.46,-155.59 144.63,-154.05"/>
</a>
</g>
<text text-anchor="middle" x="192.5" y="-106" font-family="Helvetica,sans-Serif" font-size="10.00" fill="grey"> CANtxBuff</text>
</g>
<!-- Node4&#45;&gt;Node2 -->
<g id="edge3_Node000002_Node000004" class="edge">
<title>Node4&#45;&gt;Node2</title>
<g id="a_edge3_Node000002_Node000004"><a xlink:title=" ">
<path fill="none" stroke="#9a32cd" stroke-dasharray="5,2" d="M119.24,-159.45C113.37,-155.69 107.29,-151.44 102,-147 91.5,-138.18 81.17,-126.19 74.71,-118.16"/>
<polygon fill="#9a32cd" stroke="#9a32cd" points="117.79,-162.66 128.15,-164.88 121.43,-156.68 117.79,-162.66"/>
</a>
</g>
<text text-anchor="middle" x="122" y="-139" font-family="Helvetica,sans-Serif" font-size="10.00" fill="grey"> txArray</text>
</g>
<!-- Node5 -->
<g id="Node000005" class="node">
<title>Node5</title>
<g id="a_Node000005"><a xlink:href="structCO__EM__fifo__t.html" target="_top" xlink:title="Fifo buffer for emergency producer and error history.">
<polygon fill="white" stroke="#666666" points="311,-118 229,-118 229,-99 311,-99 311,-118"/>
<text text-anchor="middle" x="270" y="-106" font-family="Helvetica,sans-Serif" font-size="10.00">CO_EM_fifo_t</text>
</a>
</g>
</g>
<!-- Node5&#45;&gt;Node1 -->
<g id="edge4_Node000001_Node000005" class="edge">
<title>Node5&#45;&gt;Node1</title>
<g id="a_edge4_Node000001_Node000005"><a xlink:title=" ">
<path fill="none" stroke="#9a32cd" stroke-dasharray="5,2" d="M259.78,-90.11C247.54,-69.27 227.5,-35.17 218.13,-19.23"/>
<polygon fill="#9a32cd" stroke="#9a32cd" points="256.86,-92.04 264.94,-98.89 262.89,-88.5 256.86,-92.04"/>
</a>
</g>
<text text-anchor="middle" x="263" y="-56.5" font-family="Helvetica,sans-Serif" font-size="10.00" fill="grey"> fifo</text>
</g>
<!-- Node6 -->
<g id="Node000006" class="node">
<title>Node6</title>
<g id="a_Node000006"><a xlink:href="structOD__extension__t.html" target="_top" xlink:title="Extension of OD object, which can optionally be specified by application in initialization phase with...">
<polygon fill="white" stroke="#666666" points="423,-118 329,-118 329,-99 423,-99 423,-118"/>
<text text-anchor="middle" x="376" y="-106" font-family="Helvetica,sans-Serif" font-size="10.00">OD_extension_t</text>
</a>
</g>
</g>
<!-- Node6&#45;&gt;Node1 -->
<g id="edge6_Node000001_Node000006" class="edge">
<title>Node6&#45;&gt;Node1</title>
<g id="a_edge6_Node000001_Node000006"><a xlink:title=" ">
<path fill="none" stroke="#9a32cd" stroke-dasharray="5,2" d="M357.6,-92.46C338.33,-77.19 306.77,-53.49 277,-37 264.38,-30.01 249.52,-23.75 237.31,-19.07"/>
<polygon fill="#9a32cd" stroke="#9a32cd" points="355.55,-95.31 365.54,-98.83 359.93,-89.85 355.55,-95.31"/>
</a>
</g>
<text text-anchor="middle" x="402.5" y="-73" font-family="Helvetica,sans-Serif" font-size="10.00" fill="grey"> OD_1003_extension</text>
<text text-anchor="middle" x="402.5" y="-62" font-family="Helvetica,sans-Serif" font-size="10.00" fill="grey">OD_1014_extension</text>
<text text-anchor="middle" x="402.5" y="-51" font-family="Helvetica,sans-Serif" font-size="10.00" fill="grey">OD_1015_extension</text>
<text text-anchor="middle" x="402.5" y="-40" font-family="Helvetica,sans-Serif" font-size="10.00" fill="grey">OD_statusBits_extension</text>
</g>
</g>
</svg>
