<?xml version="1.0" encoding="UTF-8" standalone="no"?>
<!DOCTYPE svg PUBLIC "-//W3C//DTD SVG 1.1//EN"
 "http://www.w3.org/Graphics/SVG/1.1/DTD/svg11.dtd">
<!-- Generated by graphviz version 2.43.0 (0)
 -->
<!-- Title: CO_SDOserver_t Pages: 1 -->
<svg width="447pt" height="240pt"
 viewBox="0.00 0.00 446.50 240.00" xmlns="http://www.w3.org/2000/svg" xmlns:xlink="http://www.w3.org/1999/xlink">
<g id="graph0" class="graph" transform="scale(1 1) rotate(0) translate(4 236)">
<title>CO_SDOserver_t</title>
<polygon fill="white" stroke="transparent" points="-4,4 -4,-236 442.5,-236 442.5,4 -4,4"/>
<!-- Node1 -->
<g id="node1" class="node">
<title>Node1</title>
<g id="a_node1"><a xlink:title="SDO server object.">
<polygon fill="#bfbfbf" stroke="black" points="180.5,-0.5 180.5,-19.5 277.5,-19.5 277.5,-0.5 180.5,-0.5"/>
<text text-anchor="middle" x="229" y="-7.5" font-family="Helvetica,sans-Serif" font-size="10.00">CO_SDOserver_t</text>
</a>
</g>
</g>
<!-- Node2 -->
<g id="node2" class="node">
<title>Node2</title>
<g id="a_node2"><a xlink:href="structOD__IO__t.html" target="_top" xlink:title="Structure for input / output on the OD variable.">
<polygon fill="white" stroke="black" points="12,-78.5 12,-97.5 68,-97.5 68,-78.5 12,-78.5"/>
<text text-anchor="middle" x="40" y="-85.5" font-family="Helvetica,sans-Serif" font-size="10.00">OD_IO_t</text>
</a>
</g>
</g>
<!-- Node2&#45;&gt;Node1 -->
<g id="edge1" class="edge">
<title>Node2&#45;&gt;Node1</title>
<path fill="none" stroke="#9a32cd" stroke-dasharray="5,2" d="M41.47,-68.01C43.29,-57.63 47.29,-45.41 56,-38 74.29,-22.44 135.9,-15.8 180.39,-13"/>
<polygon fill="#9a32cd" stroke="#9a32cd" points="37.96,-67.9 40.22,-78.24 44.9,-68.74 37.96,-67.9"/>
<text text-anchor="middle" x="73" y="-46.5" font-family="Helvetica,sans-Serif" font-size="10.00"> OD_IO</text>
</g>
<!-- Node3 -->
<g id="node3" class="node">
<title>Node3</title>
<g id="a_node3"><a xlink:href="structOD__stream__t.html" target="_top" xlink:title="IO stream structure, used for read/write access to OD variable, part of OD_IO_t.">
<polygon fill="white" stroke="black" points="0,-145.5 0,-164.5 80,-164.5 80,-145.5 0,-145.5"/>
<text text-anchor="middle" x="40" y="-152.5" font-family="Helvetica,sans-Serif" font-size="10.00">OD_stream_t</text>
</a>
</g>
</g>
<!-- Node3&#45;&gt;Node2 -->
<g id="edge2" class="edge">
<title>Node3&#45;&gt;Node2</title>
<path fill="none" stroke="#9a32cd" stroke-dasharray="5,2" d="M40,-135.04C40,-122.67 40,-107.12 40,-97.63"/>
<polygon fill="#9a32cd" stroke="#9a32cd" points="36.5,-135.23 40,-145.23 43.5,-135.23 36.5,-135.23"/>
<text text-anchor="middle" x="59" y="-119" font-family="Helvetica,sans-Serif" font-size="10.00"> stream</text>
</g>
<!-- Node4 -->
<g id="node4" class="node">
<title>Node4</title>
<g id="a_node4"><a xlink:href="structCO__CANtx__t.html" target="_top" xlink:title="Configuration object for CAN transmit message for specific CANopenNode Object.">
<polygon fill="white" stroke="black" points="98,-145.5 98,-164.5 174,-164.5 174,-145.5 98,-145.5"/>
<text text-anchor="middle" x="136" y="-152.5" font-family="Helvetica,sans-Serif" font-size="10.00">CO_CANtx_t</text>
</a>
</g>
</g>
<!-- Node4&#45;&gt;Node1 -->
<g id="edge3" class="edge">
<title>Node4&#45;&gt;Node1</title>
<path fill="none" stroke="#9a32cd" stroke-dasharray="5,2" d="M123.19,-136.64C113.07,-120.61 102.28,-96.56 113,-78 130.96,-46.88 169.49,-28.92 197.23,-19.57"/>
<polygon fill="#9a32cd" stroke="#9a32cd" points="120.39,-138.74 128.91,-145.04 126.18,-134.8 120.39,-138.74"/>
<text text-anchor="middle" x="140.5" y="-85.5" font-family="Helvetica,sans-Serif" font-size="10.00"> CANtxBuff</text>
</g>
<!-- Node5 -->
<g id="node5" class="node">
<title>Node5</title>
<g id="a_node5"><a xlink:href="structCO__CANmodule__t.html" target="_top" xlink:title="Complete CAN module object.">
<polygon fill="white" stroke="black" points="177.5,-78.5 177.5,-97.5 280.5,-97.5 280.5,-78.5 177.5,-78.5"/>
<text text-anchor="middle" x="229" y="-85.5" font-family="Helvetica,sans-Serif" font-size="10.00">CO_CANmodule_t</text>
</a>
</g>
</g>
<!-- Node4&#45;&gt;Node5 -->
<g id="edge5" class="edge">
<title>Node4&#45;&gt;Node5</title>
<path fill="none" stroke="#9a32cd" stroke-dasharray="5,2" d="M155.01,-138.92C164.22,-131.78 175.54,-123.24 186,-116 195.28,-109.58 206.03,-102.83 214.46,-97.69"/>
<polygon fill="#9a32cd" stroke="#9a32cd" points="152.63,-136.34 146.91,-145.26 156.94,-141.85 152.63,-136.34"/>
<text text-anchor="middle" x="206" y="-119" font-family="Helvetica,sans-Serif" font-size="10.00"> txArray</text>
</g>
<!-- Node5&#45;&gt;Node1 -->
<g id="edge4" class="edge">
<title>Node5&#45;&gt;Node1</title>
<path fill="none" stroke="#9a32cd" stroke-dasharray="5,2" d="M229,-68.22C229,-52.7 229,-31.36 229,-19.62"/>
<polygon fill="#9a32cd" stroke="#9a32cd" points="225.5,-68.28 229,-78.28 232.5,-68.28 225.5,-68.28"/>
<text text-anchor="middle" x="256.5" y="-52" font-family="Helvetica,sans-Serif" font-size="10.00"> CANdevRx</text>
<text text-anchor="middle" x="256.5" y="-41" font-family="Helvetica,sans-Serif" font-size="10.00">CANdevTx</text>
</g>
<!-- Node6 -->
<g id="node6" class="node">
<title>Node6</title>
<g id="a_node6"><a xlink:href="structCO__CANrx__t.html" target="_top" xlink:title="Configuration object for CAN received message for specific CANopenNode Object.">
<polygon fill="white" stroke="black" points="192,-145.5 192,-164.5 268,-164.5 268,-145.5 192,-145.5"/>
<text text-anchor="middle" x="230" y="-152.5" font-family="Helvetica,sans-Serif" font-size="10.00">CO_CANrx_t</text>
</a>
</g>
</g>
<!-- Node6&#45;&gt;Node5 -->
<g id="edge6" class="edge">
<title>Node6&#45;&gt;Node5</title>
<path fill="none" stroke="#9a32cd" stroke-dasharray="5,2" d="M229.71,-135.04C229.52,-122.67 229.28,-107.12 229.13,-97.63"/>
<polygon fill="#9a32cd" stroke="#9a32cd" points="226.21,-135.29 229.87,-145.23 233.21,-135.18 226.21,-135.29"/>
<text text-anchor="middle" x="250" y="-119" font-family="Helvetica,sans-Serif" font-size="10.00"> rxArray</text>
</g>
<!-- Node7 -->
<g id="node7" class="node">
<title>Node7</title>
<g id="a_node7"><a xlink:href="structOD__t.html" target="_top" xlink:title="Object Dictionary.">
<polygon fill="white" stroke="black" points="374.5,-78.5 374.5,-97.5 415.5,-97.5 415.5,-78.5 374.5,-78.5"/>
<text text-anchor="middle" x="395" y="-85.5" font-family="Helvetica,sans-Serif" font-size="10.00">OD_t</text>
</a>
</g>
</g>
<!-- Node7&#45;&gt;Node1 -->
<g id="edge7" class="edge">
<title>Node7&#45;&gt;Node1</title>
<path fill="none" stroke="#9a32cd" stroke-dasharray="5,2" d="M376.18,-71.72C362.21,-61.02 342.31,-47.06 323,-38 306.09,-30.07 286.36,-23.97 269.35,-19.59"/>
<polygon fill="#9a32cd" stroke="#9a32cd" points="374.41,-74.78 384.44,-78.2 378.73,-69.28 374.41,-74.78"/>
<text text-anchor="middle" x="369.5" y="-46.5" font-family="Helvetica,sans-Serif" font-size="10.00"> OD</text>
</g>
<!-- Node8 -->
<g id="node8" class="node">
<title>Node8</title>
<g id="a_node8"><a xlink:href="structOD__entry__t.html" target="_top" xlink:title="Object Dictionary entry for one OD object.">
<polygon fill="white" stroke="black" points="367.5,-145.5 367.5,-164.5 438.5,-164.5 438.5,-145.5 367.5,-145.5"/>
<text text-anchor="middle" x="403" y="-152.5" font-family="Helvetica,sans-Serif" font-size="10.00">OD_entry_t</text>
</a>
</g>
</g>
<!-- Node8&#45;&gt;Node7 -->
<g id="edge8" class="edge">
<title>Node8&#45;&gt;Node7</title>
<path fill="none" stroke="#9a32cd" stroke-dasharray="5,2" d="M410.34,-135.85C411.97,-129.53 412.76,-122.41 411,-116 409.21,-109.48 405.4,-102.95 401.95,-97.94"/>
<polygon fill="#9a32cd" stroke="#9a32cd" points="406.98,-134.88 407.1,-145.48 413.61,-137.12 406.98,-134.88"/>
<text text-anchor="middle" x="420.5" y="-119" font-family="Helvetica,sans-Serif" font-size="10.00"> list</text>
</g>
<!-- Node9 -->
<g id="node9" class="node">
<title>Node9</title>
<g id="a_node9"><a xlink:href="structOD__extension__t.html" target="_top" xlink:title="Extension of OD object, which can optionally be specified by application in initialization phase with...">
<polygon fill="white" stroke="black" points="278,-212.5 278,-231.5 372,-231.5 372,-212.5 278,-212.5"/>
<text text-anchor="middle" x="325" y="-219.5" font-family="Helvetica,sans-Serif" font-size="10.00">OD_extension_t</text>
</a>
</g>
</g>
<!-- Node9&#45;&gt;Node1 -->
<g id="edge10" class="edge">
<title>Node9&#45;&gt;Node1</title>
<path fill="none" stroke="#9a32cd" stroke-dasharray="5,2" d="M321.19,-202.17C311.75,-155.45 288,-38 288,-38 281.28,-29.53 271.3,-23.61 261.46,-19.53"/>
<polygon fill="#9a32cd" stroke="#9a32cd" points="317.8,-203.07 323.22,-212.17 324.66,-201.68 317.8,-203.07"/>
<text text-anchor="middle" x="356.5" y="-119" font-family="Helvetica,sans-Serif" font-size="10.00"> OD_1200_extension</text>
</g>
<!-- Node9&#45;&gt;Node8 -->
<g id="edge9" class="edge">
<title>Node9&#45;&gt;Node8</title>
<path fill="none" stroke="#9a32cd" stroke-dasharray="5,2" d="M343.34,-205.71C358.71,-192.91 380.09,-175.09 392.65,-164.63"/>
<polygon fill="#9a32cd" stroke="#9a32cd" points="340.96,-203.14 335.52,-212.23 345.44,-208.52 340.96,-203.14"/>
<text text-anchor="middle" x="395" y="-186" font-family="Helvetica,sans-Serif" font-size="10.00"> extension</text>
</g>
</g>
</svg>
