<?xml version="1.0" encoding="UTF-8" standalone="no"?>
<!DOCTYPE svg PUBLIC "-//W3C//DTD SVG 1.1//EN"
 "http://www.w3.org/Graphics/SVG/1.1/DTD/svg11.dtd">
<!-- Generated by graphviz version 2.43.0 (0)
 -->
<!-- Title: CO_HBconsumer_t Pages: 1 -->
<svg width="693pt" height="262pt"
 viewBox="0.00 0.00 692.50 262.00" xmlns="http://www.w3.org/2000/svg" xmlns:xlink="http://www.w3.org/1999/xlink">
<g id="graph0" class="graph" transform="scale(1 1) rotate(0) translate(4 258)">
<title>CO_HBconsumer_t</title>
<polygon fill="white" stroke="transparent" points="-4,4 -4,-258 688.5,-258 688.5,4 -4,4"/>
<!-- Node1 -->
<g id="node1" class="node">
<title>Node1</title>
<g id="a_node1"><a xlink:title="Heartbeat consumer object.">
<polygon fill="#bfbfbf" stroke="black" points="358.5,-0.5 358.5,-19.5 465.5,-19.5 465.5,-0.5 358.5,-0.5"/>
<text text-anchor="middle" x="412" y="-7.5" font-family="Helvetica,sans-Serif" font-size="10.00">CO_HBconsumer_t</text>
</a>
</g>
</g>
<!-- Node2 -->
<g id="node2" class="node">
<title>Node2</title>
<g id="a_node2"><a xlink:href="structCO__EM__t.html" target="_top" xlink:title="Emergency object.">
<polygon fill="white" stroke="black" points="121,-67.5 121,-86.5 181,-86.5 181,-67.5 121,-67.5"/>
<text text-anchor="middle" x="151" y="-74.5" font-family="Helvetica,sans-Serif" font-size="10.00">CO_EM_t</text>
</a>
</g>
</g>
<!-- Node2&#45;&gt;Node1 -->
<g id="edge1" class="edge">
<title>Node2&#45;&gt;Node1</title>
<path fill="none" stroke="#9a32cd" stroke-dasharray="5,2" d="M191.2,-65.99C242.23,-53.28 329.41,-31.57 377.54,-19.58"/>
<polygon fill="#9a32cd" stroke="#9a32cd" points="190.05,-62.67 181.19,-68.48 191.74,-69.46 190.05,-62.67"/>
<text text-anchor="middle" x="307.5" y="-41" font-family="Helvetica,sans-Serif" font-size="10.00"> em</text>
</g>
<!-- Node3 -->
<g id="node3" class="node">
<title>Node3</title>
<g id="a_node3"><a xlink:href="structCO__EM__fifo__t.html" target="_top" xlink:title="Fifo buffer for emergency producer and error history.">
<polygon fill="white" stroke="black" points="0,-167.5 0,-186.5 82,-186.5 82,-167.5 0,-167.5"/>
<text text-anchor="middle" x="41" y="-174.5" font-family="Helvetica,sans-Serif" font-size="10.00">CO_EM_fifo_t</text>
</a>
</g>
</g>
<!-- Node3&#45;&gt;Node2 -->
<g id="edge2" class="edge">
<title>Node3&#45;&gt;Node2</title>
<path fill="none" stroke="#9a32cd" stroke-dasharray="5,2" d="M47.96,-158.08C54.93,-142.21 67.07,-119.4 84,-105 94.51,-96.06 108.36,-89.82 120.73,-85.61"/>
<polygon fill="#9a32cd" stroke="#9a32cd" points="44.71,-156.77 44.12,-167.35 51.18,-159.45 44.71,-156.77"/>
<text text-anchor="middle" x="94" y="-124.5" font-family="Helvetica,sans-Serif" font-size="10.00"> fifo</text>
</g>
<!-- Node4 -->
<g id="node4" class="node">
<title>Node4</title>
<g id="a_node4"><a xlink:href="structCO__CANtx__t.html" target="_top" xlink:title="Configuration object for CAN transmit message for specific CANopenNode Object.">
<polygon fill="white" stroke="black" points="96,-234.5 96,-253.5 172,-253.5 172,-234.5 96,-234.5"/>
<text text-anchor="middle" x="134" y="-241.5" font-family="Helvetica,sans-Serif" font-size="10.00">CO_CANtx_t</text>
</a>
</g>
</g>
<!-- Node4&#45;&gt;Node2 -->
<g id="edge3" class="edge">
<title>Node4&#45;&gt;Node2</title>
<path fill="none" stroke="#9a32cd" stroke-dasharray="5,2" d="M131.07,-224.3C129.52,-213.44 127.78,-199.48 127,-187 124.71,-150.17 129.21,-140.29 140,-105 141.89,-98.8 144.64,-92.05 146.92,-86.85"/>
<polygon fill="#9a32cd" stroke="#9a32cd" points="127.63,-224.93 132.57,-234.3 134.55,-223.89 127.63,-224.93"/>
<text text-anchor="middle" x="154.5" y="-174.5" font-family="Helvetica,sans-Serif" font-size="10.00"> CANtxBuff</text>
</g>
<!-- Node5 -->
<g id="node5" class="node">
<title>Node5</title>
<g id="a_node5"><a xlink:href="structCO__CANmodule__t.html" target="_top" xlink:title="Complete CAN module object.">
<polygon fill="white" stroke="black" points="191.5,-167.5 191.5,-186.5 294.5,-186.5 294.5,-167.5 191.5,-167.5"/>
<text text-anchor="middle" x="243" y="-174.5" font-family="Helvetica,sans-Serif" font-size="10.00">CO_CANmodule_t</text>
</a>
</g>
</g>
<!-- Node4&#45;&gt;Node5 -->
<g id="edge5" class="edge">
<title>Node4&#45;&gt;Node5</title>
<path fill="none" stroke="#9a32cd" stroke-dasharray="5,2" d="M157.57,-228.94C179.16,-216.07 210.42,-197.43 228.53,-186.63"/>
<polygon fill="#9a32cd" stroke="#9a32cd" points="155.5,-226.11 148.7,-234.23 159.08,-232.12 155.5,-226.11"/>
<text text-anchor="middle" x="216" y="-208" font-family="Helvetica,sans-Serif" font-size="10.00"> txArray</text>
</g>
<!-- Node5&#45;&gt;Node1 -->
<g id="edge8" class="edge">
<title>Node5&#45;&gt;Node1</title>
<path fill="none" stroke="#9a32cd" stroke-dasharray="5,2" d="M304.62,-166.93C325.75,-162.59 345.89,-156.64 353,-149 378.19,-121.94 351.82,-100.71 367,-67 375.6,-47.89 392.29,-29.75 402.75,-19.53"/>
<polygon fill="#9a32cd" stroke="#9a32cd" points="303.7,-163.54 294.55,-168.88 305.03,-170.42 303.7,-163.54"/>
<text text-anchor="middle" x="394.5" y="-74.5" font-family="Helvetica,sans-Serif" font-size="10.00"> CANdevRx</text>
</g>
<!-- Node5&#45;&gt;Node2 -->
<g id="edge4" class="edge">
<title>Node5&#45;&gt;Node2</title>
<path fill="none" stroke="#9a32cd" stroke-dasharray="5,2" d="M186.42,-164.94C170.78,-160.69 156.78,-155.31 152,-149 138.16,-130.72 143.9,-101.52 148.08,-86.92"/>
<polygon fill="#9a32cd" stroke="#9a32cd" points="185.74,-168.38 196.3,-167.44 187.46,-161.59 185.74,-168.38"/>
<text text-anchor="middle" x="179.5" y="-124.5" font-family="Helvetica,sans-Serif" font-size="10.00"> CANdevTx</text>
</g>
<!-- Node6 -->
<g id="node6" class="node">
<title>Node6</title>
<g id="a_node6"><a xlink:href="structCO__CANrx__t.html" target="_top" xlink:title="Configuration object for CAN received message for specific CANopenNode Object.">
<polygon fill="white" stroke="black" points="205,-234.5 205,-253.5 281,-253.5 281,-234.5 205,-234.5"/>
<text text-anchor="middle" x="243" y="-241.5" font-family="Helvetica,sans-Serif" font-size="10.00">CO_CANrx_t</text>
</a>
</g>
</g>
<!-- Node6&#45;&gt;Node5 -->
<g id="edge6" class="edge">
<title>Node6&#45;&gt;Node5</title>
<path fill="none" stroke="#9a32cd" stroke-dasharray="5,2" d="M243,-224.04C243,-211.67 243,-196.12 243,-186.63"/>
<polygon fill="#9a32cd" stroke="#9a32cd" points="239.5,-224.23 243,-234.23 246.5,-224.23 239.5,-224.23"/>
<text text-anchor="middle" x="263" y="-208" font-family="Helvetica,sans-Serif" font-size="10.00"> rxArray</text>
</g>
<!-- Node7 -->
<g id="node7" class="node">
<title>Node7</title>
<g id="a_node7"><a xlink:href="structOD__extension__t.html" target="_top" xlink:title="Extension of OD object, which can optionally be specified by application in initialization phase with...">
<polygon fill="white" stroke="black" points="362,-167.5 362,-186.5 456,-186.5 456,-167.5 362,-167.5"/>
<text text-anchor="middle" x="409" y="-174.5" font-family="Helvetica,sans-Serif" font-size="10.00">OD_extension_t</text>
</a>
</g>
</g>
<!-- Node7&#45;&gt;Node1 -->
<g id="edge10" class="edge">
<title>Node7&#45;&gt;Node1</title>
<path fill="none" stroke="#9a32cd" stroke-dasharray="5,2" d="M415.07,-157.44C421.41,-135.79 429.93,-98.89 426,-67 423.89,-49.89 418.3,-30.49 414.85,-19.61"/>
<polygon fill="#9a32cd" stroke="#9a32cd" points="411.64,-156.68 412.03,-167.27 418.33,-158.75 411.64,-156.68"/>
<text text-anchor="middle" x="477.5" y="-74.5" font-family="Helvetica,sans-Serif" font-size="10.00"> OD_1016_extension</text>
</g>
<!-- Node7&#45;&gt;Node2 -->
<g id="edge7" class="edge">
<title>Node7&#45;&gt;Node2</title>
<path fill="none" stroke="#9a32cd" stroke-dasharray="5,2" d="M369.02,-164.64C353.87,-160.09 336.53,-154.61 321,-149 265.2,-128.84 201.01,-100.62 169.88,-86.6"/>
<polygon fill="#9a32cd" stroke="#9a32cd" points="368.04,-167.99 378.62,-167.48 370.02,-161.28 368.04,-167.99"/>
<text text-anchor="middle" x="382.5" y="-141" font-family="Helvetica,sans-Serif" font-size="10.00"> OD_1003_extension</text>
<text text-anchor="middle" x="382.5" y="-130" font-family="Helvetica,sans-Serif" font-size="10.00">OD_1014_extension</text>
<text text-anchor="middle" x="382.5" y="-119" font-family="Helvetica,sans-Serif" font-size="10.00">OD_1015_extension</text>
<text text-anchor="middle" x="382.5" y="-108" font-family="Helvetica,sans-Serif" font-size="10.00">OD_statusBits_extension</text>
</g>
<!-- Node8 -->
<g id="node8" class="node">
<title>Node8</title>
<g id="a_node8"><a xlink:href="structCO__HBconsNode__t.html" target="_top" xlink:title="One monitored node inside CO_HBconsumer_t.">
<polygon fill="white" stroke="black" points="577.5,-67.5 577.5,-86.5 684.5,-86.5 684.5,-67.5 577.5,-67.5"/>
<text text-anchor="middle" x="631" y="-74.5" font-family="Helvetica,sans-Serif" font-size="10.00">CO_HBconsNode_t</text>
</a>
</g>
</g>
<!-- Node8&#45;&gt;Node1 -->
<g id="edge9" class="edge">
<title>Node8&#45;&gt;Node1</title>
<path fill="none" stroke="#9a32cd" stroke-dasharray="5,2" d="M592.29,-64.51C548.94,-51.65 479.7,-31.09 440.85,-19.56"/>
<polygon fill="#9a32cd" stroke="#9a32cd" points="591.34,-67.88 601.92,-67.37 593.33,-61.17 591.34,-67.88"/>
<text text-anchor="middle" x="577.5" y="-41" font-family="Helvetica,sans-Serif" font-size="10.00"> monitoredNodes</text>
</g>
</g>
</svg>
