<?xml version="1.0" encoding="UTF-8" standalone="no"?>
<!DOCTYPE svg PUBLIC "-//W3C//DTD SVG 1.1//EN"
 "http://www.w3.org/Graphics/SVG/1.1/DTD/svg11.dtd">
<!-- Generated by graphviz version 2.43.0 (0)
 -->
<!-- Title: CO_RPDO_t Pages: 1 -->
<svg width="855pt" height="352pt"
 viewBox="0.00 0.00 855.32 352.00" xmlns="http://www.w3.org/2000/svg" xmlns:xlink="http://www.w3.org/1999/xlink">
<g id="graph0" class="graph" transform="scale(1 1) rotate(0) translate(4 348)">
<title>CO_RPDO_t</title>
<!-- Node1 -->
<g id="Node000001" class="node">
<title>Node1</title>
<g id="a_Node000001"><a xlink:title="RPDO object.">
<polygon fill="#999999" stroke="#666666" points="278.82,-19 205.82,-19 205.82,0 278.82,0 278.82,-19"/>
<text text-anchor="middle" x="242.32" y="-7" font-family="Helvetica,sans-Serif" font-size="10.00">CO_RPDO_t</text>
</a>
</g>
</g>
<!-- Node2 -->
<g id="Node000002" class="node">
<title>Node2</title>
<g id="a_Node000002"><a xlink:href="structCO__PDO__common__t.html" target="_top" xlink:title="PDO object, common properties.">
<polygon fill="white" stroke="#666666" points="489.32,-85 375.32,-85 375.32,-66 489.32,-66 489.32,-85"/>
<text text-anchor="middle" x="432.32" y="-73" font-family="Helvetica,sans-Serif" font-size="10.00">CO_PDO_common_t</text>
</a>
</g>
</g>
<!-- Node2&#45;&gt;Node1 -->
<g id="edge1_Node000001_Node000002" class="edge">
<title>Node2&#45;&gt;Node1</title>
<g id="a_edge1_Node000001_Node000002"><a xlink:title=" ">
<path fill="none" stroke="#9a32cd" stroke-dasharray="5,2" d="M397.18,-62.66C359.68,-50.03 301.17,-30.32 267.85,-19.1"/>
<polygon fill="#9a32cd" stroke="#9a32cd" points="396.11,-65.99 406.7,-65.87 398.34,-59.36 396.11,-65.99"/>
</a>
</g>
<text text-anchor="middle" x="385.82" y="-40" font-family="Helvetica,sans-Serif" font-size="10.00" fill="grey"> PDO_common</text>
</g>
<!-- Node3 -->
<g id="Node000003" class="node">
<title>Node3</title>
<g id="a_Node000003"><a xlink:href="structCO__EM__t.html" target="_top" xlink:title="Emergency object.">
<polygon fill="white" stroke="#666666" points="387.32,-152.5 327.32,-152.5 327.32,-133.5 387.32,-133.5 387.32,-152.5"/>
<text text-anchor="middle" x="357.32" y="-140.5" font-family="Helvetica,sans-Serif" font-size="10.00">CO_EM_t</text>
</a>
</g>
</g>
<!-- Node3&#45;&gt;Node2 -->
<g id="edge2_Node000002_Node000003" class="edge">
<title>Node3&#45;&gt;Node2</title>
<g id="a_edge2_Node000002_Node000003"><a xlink:title=" ">
<path fill="none" stroke="#9a32cd" stroke-dasharray="5,2" d="M375.04,-126.53C389.77,-113.66 410.22,-95.81 422.28,-85.27"/>
<polygon fill="#9a32cd" stroke="#9a32cd" points="372.36,-124.22 367.13,-133.44 376.96,-129.5 372.36,-124.22"/>
</a>
</g>
<text text-anchor="middle" x="411.82" y="-106" font-family="Helvetica,sans-Serif" font-size="10.00" fill="grey"> em</text>
</g>
<!-- Node13 -->
<g id="Node000013" class="node">
<title>Node13</title>
<g id="a_Node000013"><a xlink:href="structCO__SYNC__t.html" target="_top" xlink:title="SYNC producer and consumer object.">
<polygon fill="white" stroke="#666666" points="177.82,-85 106.82,-85 106.82,-66 177.82,-66 177.82,-85"/>
<text text-anchor="middle" x="142.32" y="-73" font-family="Helvetica,sans-Serif" font-size="10.00">CO_SYNC_t</text>
</a>
</g>
</g>
<!-- Node3&#45;&gt;Node13 -->
<g id="edge17_Node000013_Node000003" class="edge">
<title>Node3&#45;&gt;Node13</title>
<g id="a_edge17_Node000013_Node000003"><a xlink:title=" ">
<path fill="none" stroke="#9a32cd" stroke-dasharray="5,2" d="M319.49,-130.47C276.87,-117.49 208.59,-96.69 170.44,-85.07"/>
<polygon fill="#9a32cd" stroke="#9a32cd" points="318.63,-133.87 329.22,-133.44 320.67,-127.17 318.63,-133.87"/>
</a>
</g>
<text text-anchor="middle" x="272.82" y="-106" font-family="Helvetica,sans-Serif" font-size="10.00" fill="grey"> em</text>
</g>
<!-- Node4 -->
<g id="Node000004" class="node">
<title>Node4</title>
<g id="a_Node000004"><a xlink:href="structCO__CANmodule__t.html" target="_top" xlink:title="Complete CAN module object.">
<polygon fill="white" stroke="#666666" points="138.82,-265.5 35.82,-265.5 35.82,-246.5 138.82,-246.5 138.82,-265.5"/>
<text text-anchor="middle" x="87.32" y="-253.5" font-family="Helvetica,sans-Serif" font-size="10.00">CO_CANmodule_t</text>
</a>
</g>
</g>
<!-- Node4&#45;&gt;Node2 -->
<g id="edge9_Node000002_Node000004" class="edge">
<title>Node4&#45;&gt;Node2</title>
<g id="a_edge9_Node000002_Node000004"><a xlink:title=" ">
<path fill="none" stroke="#9a32cd" stroke-dasharray="5,2" d="M90.7,-236.31C95.06,-217.5 104.44,-188.92 123.32,-172 194.41,-108.3 307.35,-87.09 375.21,-80.02"/>
<polygon fill="#9a32cd" stroke="#9a32cd" points="87.23,-235.83 88.64,-246.33 94.09,-237.24 87.23,-235.83"/>
</a>
</g>
<text text-anchor="middle" x="200.82" y="-140.5" font-family="Helvetica,sans-Serif" font-size="10.00" fill="grey"> CANdev</text>
</g>
<!-- Node4&#45;&gt;Node3 -->
<g id="edge3_Node000003_Node000004" class="edge">
<title>Node4&#45;&gt;Node3</title>
<g id="a_edge3_Node000003_Node000004"><a xlink:title=" ">
<path fill="none" stroke="#9a32cd" stroke-dasharray="5,2" d="M139.73,-244.39C182.16,-235.4 236.17,-222.92 244.32,-216 260.57,-202.22 247.4,-186.15 263.32,-172 280.89,-156.39 306.84,-149.48 327.02,-146.42"/>
<polygon fill="#9a32cd" stroke="#9a32cd" points="138.85,-241 129.78,-246.48 140.29,-247.85 138.85,-241"/>
</a>
</g>
<text text-anchor="middle" x="290.82" y="-191.5" font-family="Helvetica,sans-Serif" font-size="10.00" fill="grey"> CANdevTx</text>
</g>
<!-- Node4&#45;&gt;Node13 -->
<g id="edge18_Node000013_Node000004" class="edge">
<title>Node4&#45;&gt;Node13</title>
<g id="a_edge18_Node000013_Node000004"><a xlink:title=" ">
<path fill="none" stroke="#9a32cd" stroke-dasharray="5,2" d="M79.55,-237.15C69.97,-212.3 56.83,-166.43 73.32,-132 83.82,-110.09 107.64,-94.09 124.34,-85.04"/>
<polygon fill="#9a32cd" stroke="#9a32cd" points="76.32,-238.5 83.35,-246.43 82.8,-235.85 76.32,-238.5"/>
</a>
</g>
<text text-anchor="middle" x="100.82" y="-146" font-family="Helvetica,sans-Serif" font-size="10.00" fill="grey"> CANdevRx</text>
<text text-anchor="middle" x="100.82" y="-135" font-family="Helvetica,sans-Serif" font-size="10.00" fill="grey">CANdevTx</text>
</g>
<!-- Node5 -->
<g id="Node000005" class="node">
<title>Node5</title>
<g id="a_Node000005"><a xlink:href="structCO__CANrx__t.html" target="_top" xlink:title="Configuration object for CAN received message for specific CANopenNode Object.">
<polygon fill="white" stroke="#666666" points="182.32,-344 106.32,-344 106.32,-325 182.32,-325 182.32,-344"/>
<text text-anchor="middle" x="144.32" y="-332" font-family="Helvetica,sans-Serif" font-size="10.00">CO_CANrx_t</text>
</a>
</g>
</g>
<!-- Node5&#45;&gt;Node4 -->
<g id="edge4_Node000004_Node000005" class="edge">
<title>Node5&#45;&gt;Node4</title>
<g id="a_edge4_Node000004_Node000005"><a xlink:title=" ">
<path fill="none" stroke="#9a32cd" stroke-dasharray="5,2" d="M131.58,-316.39C119.85,-300.65 102.93,-277.95 93.79,-265.67"/>
<polygon fill="#9a32cd" stroke="#9a32cd" points="129,-318.8 137.79,-324.72 134.62,-314.61 129,-318.8"/>
</a>
</g>
<text text-anchor="middle" x="144.32" y="-299" font-family="Helvetica,sans-Serif" font-size="10.00" fill="grey"> rxArray</text>
</g>
<!-- Node6 -->
<g id="Node000006" class="node">
<title>Node6</title>
<g id="a_Node000006"><a xlink:href="structCO__CANtx__t.html" target="_top" xlink:title="Configuration object for CAN transmit message for specific CANopenNode Object.">
<polygon fill="white" stroke="#666666" points="88.32,-344 12.32,-344 12.32,-325 88.32,-325 88.32,-344"/>
<text text-anchor="middle" x="50.32" y="-332" font-family="Helvetica,sans-Serif" font-size="10.00">CO_CANtx_t</text>
</a>
</g>
</g>
<!-- Node6&#45;&gt;Node3 -->
<g id="edge7_Node000003_Node000006" class="edge">
<title>Node6&#45;&gt;Node3</title>
<g id="a_edge7_Node000003_Node000006"><a xlink:title=" ">
<path fill="none" stroke="#9a32cd" stroke-dasharray="5,2" d="M75.27,-319.84C92.97,-310.38 115.31,-298.96 125.32,-296 194.37,-275.58 219.69,-305.27 286.32,-278 287.62,-277.47 364.71,-217.25 365.32,-216 375.45,-195.19 366.89,-167.1 361.27,-152.94"/>
<polygon fill="#9a32cd" stroke="#9a32cd" points="73.15,-317.01 66.01,-324.84 76.48,-323.17 73.15,-317.01"/>
</a>
</g>
<text text-anchor="middle" x="370.82" y="-253.5" font-family="Helvetica,sans-Serif" font-size="10.00" fill="grey"> CANtxBuff</text>
</g>
<!-- Node6&#45;&gt;Node4 -->
<g id="edge5_Node000004_Node000006" class="edge">
<title>Node6&#45;&gt;Node4</title>
<g id="a_edge5_Node000004_Node000006"><a xlink:title=" ">
<path fill="none" stroke="#9a32cd" stroke-dasharray="5,2" d="M52.06,-314.72C53.09,-308.56 54.72,-301.82 57.32,-296 62.55,-284.3 71.95,-272.92 78.84,-265.5"/>
<polygon fill="#9a32cd" stroke="#9a32cd" points="48.57,-314.46 50.79,-324.82 55.51,-315.33 48.57,-314.46"/>
</a>
</g>
<text text-anchor="middle" x="77.32" y="-299" font-family="Helvetica,sans-Serif" font-size="10.00" fill="grey"> txArray</text>
</g>
<!-- Node6&#45;&gt;Node13 -->
<g id="edge19_Node000013_Node000006" class="edge">
<title>Node6&#45;&gt;Node13</title>
<g id="a_edge19_Node000013_Node000006"><a xlink:title=" ">
<path fill="none" stroke="#9a32cd" stroke-dasharray="5,2" d="M38.38,-316.23C19.08,-286.03 -14.66,-222.11 7.32,-172 27.63,-125.73 83.82,-97.94 116.96,-85.09"/>
<polygon fill="#9a32cd" stroke="#9a32cd" points="35.6,-318.38 44.04,-324.78 41.44,-314.51 35.6,-318.38"/>
</a>
</g>
<text text-anchor="middle" x="34.82" y="-191.5" font-family="Helvetica,sans-Serif" font-size="10.00" fill="grey"> CANtxBuff</text>
</g>
<!-- Node7 -->
<g id="Node000007" class="node">
<title>Node7</title>
<g id="a_Node000007"><a xlink:href="structCO__EM__fifo__t.html" target="_top" xlink:title="Fifo buffer for emergency producer and error history.">
<polygon fill="white" stroke="#666666" points="277.32,-265.5 195.32,-265.5 195.32,-246.5 277.32,-246.5 277.32,-265.5"/>
<text text-anchor="middle" x="236.32" y="-253.5" font-family="Helvetica,sans-Serif" font-size="10.00">CO_EM_fifo_t</text>
</a>
</g>
</g>
<!-- Node7&#45;&gt;Node3 -->
<g id="edge6_Node000003_Node000007" class="edge">
<title>Node7&#45;&gt;Node3</title>
<g id="a_edge6_Node000003_Node000007"><a xlink:title=" ">
<path fill="none" stroke="#9a32cd" stroke-dasharray="5,2" d="M269.46,-242.68C290.12,-234.49 314.26,-223.85 322.32,-216 327.25,-211.2 345.5,-170.75 353.51,-152.67"/>
<polygon fill="#9a32cd" stroke="#9a32cd" points="268.04,-239.48 259.99,-246.36 270.58,-246 268.04,-239.48"/>
</a>
</g>
<text text-anchor="middle" x="354.32" y="-191.5" font-family="Helvetica,sans-Serif" font-size="10.00" fill="grey"> fifo</text>
</g>
<!-- Node8 -->
<g id="Node000008" class="node">
<title>Node8</title>
<g id="a_Node000008"><a xlink:href="structOD__extension__t.html" target="_top" xlink:title="Extension of OD object, which can optionally be specified by application in initialization phase with...">
<polygon fill="white" stroke="#666666" points="527.32,-344 433.32,-344 433.32,-325 527.32,-325 527.32,-344"/>
<text text-anchor="middle" x="480.32" y="-332" font-family="Helvetica,sans-Serif" font-size="10.00">OD_extension_t</text>
</a>
</g>
</g>
<!-- Node8&#45;&gt;Node2 -->
<g id="edge15_Node000002_Node000008" class="edge">
<title>Node8&#45;&gt;Node2</title>
<g id="a_edge15_Node000002_Node000008"><a xlink:title=" ">
<path fill="none" stroke="#9a32cd" stroke-dasharray="5,2" d="M537.61,-329.1C602.83,-322.7 703.11,-308.13 724.32,-278 735.58,-262.01 730.56,-252.54 724.32,-234 694.6,-145.58 650.03,-128.6 560.32,-103 534.79,-95.71 505.86,-89.55 481.97,-85.01"/>
<polygon fill="#9a32cd" stroke="#9a32cd" points="537.09,-325.64 527.46,-330.06 537.75,-332.61 537.09,-325.64"/>
</a>
</g>
<text text-anchor="start" x="716.32" y="-208" font-family="Helvetica,sans-Serif" font-size="10.00" fill="grey"> OD_communicationParam</text>
<text text-anchor="middle" x="781.82" y="-197" font-family="Helvetica,sans-Serif" font-size="10.00" fill="grey">_ext</text>
<text text-anchor="start" x="716.32" y="-186" font-family="Helvetica,sans-Serif" font-size="10.00" fill="grey">OD_mappingParam</text>
<text text-anchor="middle" x="781.82" y="-175" font-family="Helvetica,sans-Serif" font-size="10.00" fill="grey">_extension</text>
</g>
<!-- Node8&#45;&gt;Node3 -->
<g id="edge8_Node000003_Node000008" class="edge">
<title>Node8&#45;&gt;Node3</title>
<g id="a_edge8_Node000003_Node000008"><a xlink:title=" ">
<path fill="none" stroke="#9a32cd" stroke-dasharray="5,2" d="M456.12,-319.33C441.53,-309.54 423.79,-295.21 413.32,-278 388.28,-236.81 415.13,-213.34 390.32,-172 385.61,-164.14 377.89,-157.41 371.11,-152.52"/>
<polygon fill="#9a32cd" stroke="#9a32cd" points="454.4,-322.39 464.71,-324.83 458.17,-316.49 454.4,-322.39"/>
</a>
</g>
<text text-anchor="middle" x="474.82" y="-270" font-family="Helvetica,sans-Serif" font-size="10.00" fill="grey"> OD_1003_extension</text>
<text text-anchor="middle" x="474.82" y="-259" font-family="Helvetica,sans-Serif" font-size="10.00" fill="grey">OD_1014_extension</text>
<text text-anchor="middle" x="474.82" y="-248" font-family="Helvetica,sans-Serif" font-size="10.00" fill="grey">OD_1015_extension</text>
<text text-anchor="middle" x="474.82" y="-237" font-family="Helvetica,sans-Serif" font-size="10.00" fill="grey">OD_statusBits_extension</text>
</g>
<!-- Node12 -->
<g id="Node000012" class="node">
<title>Node12</title>
<g id="a_Node000012"><a xlink:href="structOD__entry__t.html" target="_top" xlink:title="Object Dictionary entry for one OD object.">
<polygon fill="white" stroke="#666666" points="714.82,-265.5 643.82,-265.5 643.82,-246.5 714.82,-246.5 714.82,-265.5"/>
<text text-anchor="middle" x="679.32" y="-253.5" font-family="Helvetica,sans-Serif" font-size="10.00">OD_entry_t</text>
</a>
</g>
</g>
<!-- Node8&#45;&gt;Node12 -->
<g id="edge14_Node000012_Node000008" class="edge">
<title>Node8&#45;&gt;Node12</title>
<g id="a_edge14_Node000012_Node000008"><a xlink:title=" ">
<path fill="none" stroke="#9a32cd" stroke-dasharray="5,2" d="M515.84,-321.72C547.28,-311.06 594.26,-294.53 634.32,-278 643.57,-274.19 653.68,-269.52 661.96,-265.55"/>
<polygon fill="#9a32cd" stroke="#9a32cd" points="514.57,-318.46 506.21,-324.97 516.8,-325.09 514.57,-318.46"/>
</a>
</g>
<text text-anchor="middle" x="613.32" y="-299" font-family="Helvetica,sans-Serif" font-size="10.00" fill="grey"> extension</text>
</g>
<!-- Node8&#45;&gt;Node13 -->
<g id="edge20_Node000013_Node000008" class="edge">
<title>Node8&#45;&gt;Node13</title>
<g id="a_edge20_Node000013_Node000008"><a xlink:title=" ">
<path fill="none" stroke="#9a32cd" stroke-dasharray="5,2" d="M423.19,-327.64C349.2,-319.22 225.13,-302.03 186.32,-278 171.62,-268.9 144.83,-232.39 139.32,-216 123.5,-168.93 134.94,-107.79 140.13,-85.3"/>
<polygon fill="#9a32cd" stroke="#9a32cd" points="422.95,-331.13 433.28,-328.77 423.73,-324.18 422.95,-331.13"/>
</a>
</g>
<text text-anchor="middle" x="189.82" y="-197" font-family="Helvetica,sans-Serif" font-size="10.00" fill="grey"> OD_1005_extension</text>
<text text-anchor="middle" x="189.82" y="-186" font-family="Helvetica,sans-Serif" font-size="10.00" fill="grey">OD_1019_extension</text>
</g>
<!-- Node9 -->
<g id="Node000009" class="node">
<title>Node9</title>
<g id="a_Node000009"><a xlink:href="structOD__IO__t.html" target="_top" xlink:title="Structure for input / output on the OD variable.">
<polygon fill="white" stroke="#666666" points="531.32,-152.5 475.32,-152.5 475.32,-133.5 531.32,-133.5 531.32,-152.5"/>
<text text-anchor="middle" x="503.32" y="-140.5" font-family="Helvetica,sans-Serif" font-size="10.00">OD_IO_t</text>
</a>
</g>
</g>
<!-- Node9&#45;&gt;Node2 -->
<g id="edge10_Node000002_Node000009" class="edge">
<title>Node9&#45;&gt;Node2</title>
<g id="a_edge10_Node000002_Node000009"><a xlink:title=" ">
<path fill="none" stroke="#9a32cd" stroke-dasharray="5,2" d="M486.56,-126.53C472.61,-113.66 453.25,-95.81 441.84,-85.27"/>
<polygon fill="#9a32cd" stroke="#9a32cd" points="484.32,-129.23 494.04,-133.44 489.07,-124.08 484.32,-129.23"/>
</a>
</g>
<text text-anchor="middle" x="489.32" y="-106" font-family="Helvetica,sans-Serif" font-size="10.00" fill="grey"> OD_IO</text>
</g>
<!-- Node10 -->
<g id="Node000010" class="node">
<title>Node10</title>
<g id="a_Node000010"><a xlink:href="structOD__stream__t.html" target="_top" xlink:title="IO stream structure, used for read/write access to OD variable, part of OD_IO_t.">
<polygon fill="white" stroke="#666666" points="625.32,-265.5 545.32,-265.5 545.32,-246.5 625.32,-246.5 625.32,-265.5"/>
<text text-anchor="middle" x="585.32" y="-253.5" font-family="Helvetica,sans-Serif" font-size="10.00">OD_stream_t</text>
</a>
</g>
</g>
<!-- Node10&#45;&gt;Node9 -->
<g id="edge11_Node000009_Node000010" class="edge">
<title>Node10&#45;&gt;Node9</title>
<g id="a_edge11_Node000009_Node000010"><a xlink:title=" ">
<path fill="none" stroke="#9a32cd" stroke-dasharray="5,2" d="M572.85,-238.12C555.13,-214.13 523.29,-171.03 509.73,-152.67"/>
<polygon fill="#9a32cd" stroke="#9a32cd" points="570.13,-240.33 578.89,-246.29 575.76,-236.17 570.13,-240.33"/>
</a>
</g>
<text text-anchor="middle" x="575.32" y="-191.5" font-family="Helvetica,sans-Serif" font-size="10.00" fill="grey"> stream</text>
</g>
<!-- Node11 -->
<g id="Node000011" class="node">
<title>Node11</title>
<g id="a_Node000011"><a xlink:href="structOD__t.html" target="_top" xlink:title="Object Dictionary.">
<polygon fill="white" stroke="#666666" points="629.82,-152.5 588.82,-152.5 588.82,-133.5 629.82,-133.5 629.82,-152.5"/>
<text text-anchor="middle" x="609.32" y="-140.5" font-family="Helvetica,sans-Serif" font-size="10.00">OD_t</text>
</a>
</g>
</g>
<!-- Node11&#45;&gt;Node2 -->
<g id="edge12_Node000002_Node000011" class="edge">
<title>Node11&#45;&gt;Node2</title>
<g id="a_edge12_Node000002_Node000011"><a xlink:title=" ">
<path fill="none" stroke="#9a32cd" stroke-dasharray="5,2" d="M579.27,-129.73C559.72,-121.85 533.62,-111.54 510.32,-103 493.14,-96.7 473.64,-90.07 458.43,-85.02"/>
<polygon fill="#9a32cd" stroke="#9a32cd" points="577.99,-132.99 588.58,-133.49 580.62,-126.5 577.99,-132.99"/>
</a>
</g>
<text text-anchor="middle" x="546.82" y="-106" font-family="Helvetica,sans-Serif" font-size="10.00" fill="grey"> OD</text>
</g>
<!-- Node12&#45;&gt;Node11 -->
<g id="edge13_Node000011_Node000012" class="edge">
<title>Node12&#45;&gt;Node11</title>
<g id="a_edge13_Node000011_Node000012"><a xlink:title=" ">
<path fill="none" stroke="#9a32cd" stroke-dasharray="5,2" d="M668.46,-237.53C657.98,-220.7 641.64,-194.56 627.32,-172 623.24,-165.56 618.58,-158.32 615.03,-152.81"/>
<polygon fill="#9a32cd" stroke="#9a32cd" points="665.64,-239.62 673.89,-246.26 671.58,-235.92 665.64,-239.62"/>
</a>
</g>
<text text-anchor="middle" x="663.82" y="-191.5" font-family="Helvetica,sans-Serif" font-size="10.00" fill="grey"> list</text>
</g>
<!-- Node13&#45;&gt;Node1 -->
<g id="edge16_Node000001_Node000013" class="edge">
<title>Node13&#45;&gt;Node1</title>
<g id="a_edge16_Node000001_Node000013"><a xlink:title=" ">
<path fill="none" stroke="#9a32cd" stroke-dasharray="5,2" d="M164.43,-60.35C184.09,-47.77 212.21,-29.78 228.73,-19.2"/>
<polygon fill="#9a32cd" stroke="#9a32cd" points="162.35,-57.53 155.81,-65.87 166.12,-63.43 162.35,-57.53"/>
</a>
</g>
<text text-anchor="middle" x="213.32" y="-40" font-family="Helvetica,sans-Serif" font-size="10.00" fill="grey"> SYNC</text>
</g>
</g>
</svg>
