<?xml version="1.0" encoding="UTF-8" standalone="no"?>
<!DOCTYPE svg PUBLIC "-//W3C//DTD SVG 1.1//EN"
 "http://www.w3.org/Graphics/SVG/1.1/DTD/svg11.dtd">
<!-- Generated by graphviz version 2.43.0 (0)
 -->
<!-- Title: CO_GTWA_t Pages: 1 -->
<!--zoomable 630 -->
<svg id="main" version="1.1" xmlns="http://www.w3.org/2000/svg" xmlns:xlink="http://www.w3.org/1999/xlink" xml:space="preserve" onload="init(evt)">
<style type="text/css"><![CDATA[
.edge:hover path { stroke: red; }
.edge:hover polygon { stroke: red; fill: red; }
]]></style>
<script type="text/javascript"><![CDATA[
var edges = document.getElementsByTagName('g');
if (edges && edges.length) {
  for (var i=0;i<edges.length;i++) {
    if (edges[i].id.substr(0,4)=='edge') {
      edges[i].setAttribute('class','edge');
    }
  }
}
]]></script>
        <defs>
                <circle id="rim" cx="0" cy="0" r="7"/>
                <circle id="rim2" cx="0" cy="0" r="3.5"/>
                <g id="zoomPlus">
                        <use xlink:href="#rim" fill="#404040">
                                <set attributeName="fill" to="#808080" begin="zoomplus.mouseover" end="zoomplus.mouseout"/>
                        </use>
                        <path d="M-4,0h8M0,-4v8" fill="none" stroke="white" stroke-width="1.5" pointer-events="none"/>
                </g>
                <g id="zoomMin">
                        <use xlink:href="#rim" fill="#404040">
                                <set attributeName="fill" to="#808080" begin="zoomminus.mouseover" end="zoomminus.mouseout"/>
                        </use>
                        <path d="M-4,0h8" fill="none" stroke="white" stroke-width="1.5" pointer-events="none"/>
                </g>
                <g id="dirArrow">
                        <path fill="none" stroke="white" stroke-width="1.5" d="M0,-3.0v7 M-2.5,-0.5L0,-3.0L2.5,-0.5"/>
                </g>
               <g id="resetDef">
                       <use xlink:href="#rim2" fill="#404040">
                               <set attributeName="fill" to="#808080" begin="reset.mouseover" end="reset.mouseout"/>
                       </use>
               </g>
        </defs>

<script type="text/javascript">
var viewWidth = 943;
var viewHeight = 630;
var sectionId = 'dynsection-0';
</script>
<script xlink:href="svgpan.js"/>
<svg id="graph" class="graph">
<g id="viewport">
<title>CO_GTWA_t</title>
<polygon fill="white" stroke="transparent" points="-4,4 -4,-626 939,-626 939,4 -4,4"/>
<!-- Node1 -->
<g id="node1" class="node">
<title>Node1</title>
<g id="a_node1"><a xlink:title="CANopen Gateway&#45;ascii object.">
<polygon fill="#bfbfbf" stroke="black" points="860,-202.5 860,-221.5 935,-221.5 935,-202.5 860,-202.5"/>
<text text-anchor="middle" x="897.5" y="-209.5" font-family="Helvetica,sans-Serif" font-size="10.00">CO_GTWA_t</text>
</a>
</g>
</g>
<!-- Node2 -->
<g id="node2" class="node">
<title>Node2</title>
<g id="a_node2"><a xlink:href="structCO__LEDs__t.html" target="_top" xlink:title="LEDs object, initialized by CO_LEDs_init()">
<polygon fill="white" stroke="black" points="658,-574.5 658,-593.5 727,-593.5 727,-574.5 658,-574.5"/>
<text text-anchor="middle" x="692.5" y="-581.5" font-family="Helvetica,sans-Serif" font-size="10.00">CO_LEDs_t</text>
</a>
</g>
</g>
<!-- Node2&#45;&gt;Node1 -->
<g id="edge1" class="edge">
<title>Node2&#45;&gt;Node1</title>
<path fill="none" stroke="#9a32cd" stroke-dasharray="5,2" d="M737.51,-589.16C770.8,-590.44 815.21,-586.09 842,-559 890.89,-509.57 895.92,-272.94 896.44,-221.77"/>
<polygon fill="#9a32cd" stroke="#9a32cd" points="737.31,-585.64 727.13,-588.57 736.91,-592.63 737.31,-585.64"/>
<text text-anchor="middle" x="812" y="-589" font-family="Helvetica,sans-Serif" font-size="10.00"> LEDs</text>
</g>
<!-- Node3 -->
<g id="node3" class="node">
<title>Node3</title>
<g id="a_node3"><a xlink:href="structCO__NMT__t.html" target="_top" xlink:title="NMT consumer and Heartbeat producer object.">
<polygon fill="white" stroke="black" points="658.5,-352.5 658.5,-371.5 726.5,-371.5 726.5,-352.5 658.5,-352.5"/>
<text text-anchor="middle" x="692.5" y="-359.5" font-family="Helvetica,sans-Serif" font-size="10.00">CO_NMT_t</text>
</a>
</g>
</g>
<!-- Node3&#45;&gt;Node1 -->
<g id="edge2" class="edge">
<title>Node3&#45;&gt;Node1</title>
<path fill="none" stroke="#9a32cd" stroke-dasharray="5,2" d="M714.66,-346.36C756.67,-315.32 849.49,-246.73 883.6,-221.53"/>
<polygon fill="#9a32cd" stroke="#9a32cd" points="712.47,-343.63 706.51,-352.39 716.63,-349.26 712.47,-343.63"/>
<text text-anchor="middle" x="812" y="-298" font-family="Helvetica,sans-Serif" font-size="10.00"> NMT</text>
</g>
<!-- Node4 -->
<g id="node4" class="node">
<title>Node4</title>
<g id="a_node4"><a xlink:href="structCO__EM__t.html" target="_top" xlink:title="Emergency object.">
<polygon fill="white" stroke="black" points="465,-352.5 465,-371.5 525,-371.5 525,-352.5 465,-352.5"/>
<text text-anchor="middle" x="495" y="-359.5" font-family="Helvetica,sans-Serif" font-size="10.00">CO_EM_t</text>
</a>
</g>
</g>
<!-- Node4&#45;&gt;Node3 -->
<g id="edge3" class="edge">
<title>Node4&#45;&gt;Node3</title>
<path fill="none" stroke="#9a32cd" stroke-dasharray="5,2" d="M535.44,-362C571.58,-362 624.46,-362 658.43,-362"/>
<polygon fill="#9a32cd" stroke="#9a32cd" points="535.27,-358.5 525.27,-362 535.27,-365.5 535.27,-358.5"/>
<text text-anchor="middle" x="584.5" y="-365" font-family="Helvetica,sans-Serif" font-size="10.00"> em</text>
</g>
<!-- Node5 -->
<g id="node5" class="node">
<title>Node5</title>
<g id="a_node5"><a xlink:href="structCO__CANtx__t.html" target="_top" xlink:title="Configuration object for CAN transmit message for specific CANopenNode Object.">
<polygon fill="white" stroke="black" points="9,-460.5 9,-479.5 85,-479.5 85,-460.5 9,-460.5"/>
<text text-anchor="middle" x="47" y="-467.5" font-family="Helvetica,sans-Serif" font-size="10.00">CO_CANtx_t</text>
</a>
</g>
</g>
<!-- Node5&#45;&gt;Node3 -->
<g id="edge9" class="edge">
<title>Node5&#45;&gt;Node3</title>
<path fill="none" stroke="#9a32cd" stroke-dasharray="5,2" d="M95.28,-475.71C185.86,-484.9 388.99,-496.97 548,-444 585.07,-431.65 586.98,-414.23 621,-395 636.53,-386.22 654.79,-377.72 668.83,-371.55"/>
<polygon fill="#9a32cd" stroke="#9a32cd" points="95.62,-472.23 85.31,-474.66 94.89,-479.19 95.62,-472.23"/>
<text text-anchor="middle" x="373.5" y="-495" font-family="Helvetica,sans-Serif" font-size="10.00"> HB_TXbuff</text>
<text text-anchor="middle" x="373.5" y="-484" font-family="Helvetica,sans-Serif" font-size="10.00">NMT_TXbuff</text>
</g>
<!-- Node5&#45;&gt;Node4 -->
<g id="edge4" class="edge">
<title>Node5&#45;&gt;Node4</title>
<path fill="none" stroke="#9a32cd" stroke-dasharray="5,2" d="M95.16,-458.58C187.47,-436.23 389.54,-387.29 464.9,-369.05"/>
<polygon fill="#9a32cd" stroke="#9a32cd" points="94.15,-455.22 85.26,-460.98 95.8,-462.03 94.15,-455.22"/>
<text text-anchor="middle" x="243.5" y="-440" font-family="Helvetica,sans-Serif" font-size="10.00"> CANtxBuff</text>
</g>
<!-- Node6 -->
<g id="node6" class="node">
<title>Node6</title>
<g id="a_node6"><a xlink:href="structCO__CANmodule__t.html" target="_top" xlink:title="Complete CAN module object.">
<polygon fill="white" stroke="black" points="192,-504.5 192,-523.5 295,-523.5 295,-504.5 192,-504.5"/>
<text text-anchor="middle" x="243.5" y="-511.5" font-family="Helvetica,sans-Serif" font-size="10.00">CO_CANmodule_t</text>
</a>
</g>
</g>
<!-- Node5&#45;&gt;Node6 -->
<g id="edge6" class="edge">
<title>Node5&#45;&gt;Node6</title>
<path fill="none" stroke="#9a32cd" stroke-dasharray="5,2" d="M95.07,-480.65C127.12,-487.9 169.19,-497.42 200.19,-504.43"/>
<polygon fill="#9a32cd" stroke="#9a32cd" points="95.57,-477.17 85.04,-478.38 94.02,-484 95.57,-477.17"/>
<text text-anchor="middle" x="138" y="-498" font-family="Helvetica,sans-Serif" font-size="10.00"> txArray</text>
</g>
<!-- Node9 -->
<g id="node9" class="node">
<title>Node9</title>
<g id="a_node9"><a xlink:href="structCO__SDOclient__t.html" target="_top" xlink:title="SDO client object.">
<polygon fill="white" stroke="black" points="646,-202.5 646,-221.5 739,-221.5 739,-202.5 646,-202.5"/>
<text text-anchor="middle" x="692.5" y="-209.5" font-family="Helvetica,sans-Serif" font-size="10.00">CO_SDOclient_t</text>
</a>
</g>
</g>
<!-- Node5&#45;&gt;Node9 -->
<g id="edge15" class="edge">
<title>Node5&#45;&gt;Node9</title>
<path fill="none" stroke="#9a32cd" stroke-dasharray="5,2" d="M60.6,-451.85C82.03,-422.42 128.47,-364.51 182,-334 238.1,-302.03 260.14,-313.76 323,-299 447.08,-269.87 479.4,-268.12 603,-237 621.73,-232.28 642.53,-226.44 659.25,-221.59"/>
<polygon fill="#9a32cd" stroke="#9a32cd" points="57.51,-450.16 54.55,-460.33 63.21,-454.23 57.51,-450.16"/>
<text text-anchor="middle" x="373.5" y="-302" font-family="Helvetica,sans-Serif" font-size="10.00"> CANtxBuff</text>
</g>
<!-- Node15 -->
<g id="node15" class="node">
<title>Node15</title>
<g id="a_node15"><a xlink:href="structCO__LSSmaster__t.html" target="_top" xlink:title="LSS master object.">
<polygon fill="white" stroke="black" points="446.5,-560.5 446.5,-579.5 543.5,-579.5 543.5,-560.5 446.5,-560.5"/>
<text text-anchor="middle" x="495" y="-567.5" font-family="Helvetica,sans-Serif" font-size="10.00">CO_LSSmaster_t</text>
</a>
</g>
</g>
<!-- Node5&#45;&gt;Node15 -->
<g id="edge23" class="edge">
<title>Node5&#45;&gt;Node15</title>
<path fill="none" stroke="#9a32cd" stroke-dasharray="5,2" d="M69.67,-485.38C81.73,-493.46 97.25,-503.09 112,-510 141.66,-523.89 150.44,-524.26 182,-533 243.93,-550.16 259.25,-556.91 323,-565 364.4,-570.25 411.86,-571.25 446.26,-571.07"/>
<polygon fill="#9a32cd" stroke="#9a32cd" points="71.42,-482.34 61.19,-479.57 67.47,-488.11 71.42,-482.34"/>
<text text-anchor="middle" x="243.5" y="-565" font-family="Helvetica,sans-Serif" font-size="10.00"> TXbuff</text>
</g>
<!-- Node6&#45;&gt;Node3 -->
<g id="edge10" class="edge">
<title>Node6&#45;&gt;Node3</title>
<path fill="none" stroke="#9a32cd" stroke-dasharray="5,2" d="M305.54,-521.35C381.01,-527.36 510.75,-527.36 603,-472 645.24,-446.65 675.71,-393.3 686.85,-371.54"/>
<polygon fill="#9a32cd" stroke="#9a32cd" points="305.52,-517.84 295.26,-520.47 304.93,-524.81 305.52,-517.84"/>
<text text-anchor="middle" x="495" y="-534" font-family="Helvetica,sans-Serif" font-size="10.00"> NMT_CANdevTx</text>
<text text-anchor="middle" x="495" y="-523" font-family="Helvetica,sans-Serif" font-size="10.00">HB_CANdevTx</text>
</g>
<!-- Node6&#45;&gt;Node4 -->
<g id="edge5" class="edge">
<title>Node6&#45;&gt;Node4</title>
<path fill="none" stroke="#9a32cd" stroke-dasharray="5,2" d="M260.07,-496.68C272.34,-482.98 289.85,-463.35 305,-446 313.09,-436.74 312.48,-431.35 323,-425 362.42,-401.21 383.06,-423.07 424,-402 433.52,-397.1 433.04,-391.86 442,-386 450.49,-380.45 460.46,-375.51 469.4,-371.58"/>
<polygon fill="#9a32cd" stroke="#9a32cd" points="257.25,-494.58 253.17,-504.37 262.46,-499.26 257.25,-494.58"/>
<text text-anchor="middle" x="373.5" y="-428" font-family="Helvetica,sans-Serif" font-size="10.00"> CANdevTx</text>
</g>
<!-- Node6&#45;&gt;Node9 -->
<g id="edge16" class="edge">
<title>Node6&#45;&gt;Node9</title>
<path fill="none" stroke="#9a32cd" stroke-dasharray="5,2" d="M305.44,-508.08C340.85,-503.35 385.86,-495.1 424,-481 434.79,-477.01 595.03,-385.29 603,-377 614.85,-364.67 612.95,-358.08 621,-343 645.32,-297.43 674.67,-243.11 686.35,-221.52"/>
<polygon fill="#9a32cd" stroke="#9a32cd" points="304.73,-504.65 295.26,-509.38 305.62,-511.59 304.73,-504.65"/>
<text text-anchor="middle" x="495" y="-485" font-family="Helvetica,sans-Serif" font-size="10.00"> CANdevRx</text>
<text text-anchor="middle" x="495" y="-474" font-family="Helvetica,sans-Serif" font-size="10.00">CANdevTx</text>
</g>
<!-- Node6&#45;&gt;Node15 -->
<g id="edge24" class="edge">
<title>Node6&#45;&gt;Node15</title>
<path fill="none" stroke="#9a32cd" stroke-dasharray="5,2" d="M297.87,-525.81C333.58,-533.74 381.62,-544.44 424,-554 433.24,-556.09 443.17,-558.34 452.55,-560.49"/>
<polygon fill="#9a32cd" stroke="#9a32cd" points="298.2,-522.3 287.68,-523.55 296.68,-529.13 298.2,-522.3"/>
<text text-anchor="middle" x="373.5" y="-557" font-family="Helvetica,sans-Serif" font-size="10.00"> CANdevTx</text>
</g>
<!-- Node7 -->
<g id="node7" class="node">
<title>Node7</title>
<g id="a_node7"><a xlink:href="structCO__CANrx__t.html" target="_top" xlink:title="Configuration object for CAN received message for specific CANopenNode Object.">
<polygon fill="white" stroke="black" points="9,-602.5 9,-621.5 85,-621.5 85,-602.5 9,-602.5"/>
<text text-anchor="middle" x="47" y="-609.5" font-family="Helvetica,sans-Serif" font-size="10.00">CO_CANrx_t</text>
</a>
</g>
</g>
<!-- Node7&#45;&gt;Node6 -->
<g id="edge7" class="edge">
<title>Node7&#45;&gt;Node6</title>
<path fill="none" stroke="#9a32cd" stroke-dasharray="5,2" d="M75.99,-597.9C116.11,-577.68 188.94,-540.99 223.42,-523.61"/>
<polygon fill="#9a32cd" stroke="#9a32cd" points="74.36,-594.8 67,-602.42 77.51,-601.05 74.36,-594.8"/>
<text text-anchor="middle" x="138" y="-580" font-family="Helvetica,sans-Serif" font-size="10.00"> rxArray</text>
</g>
<!-- Node8 -->
<g id="node8" class="node">
<title>Node8</title>
<g id="a_node8"><a xlink:href="structOD__extension__t.html" target="_top" xlink:title="Extension of OD object, which can optionally be specified by application in initialization phase with...">
<polygon fill="white" stroke="black" points="0,-270.5 0,-289.5 94,-289.5 94,-270.5 0,-270.5"/>
<text text-anchor="middle" x="47" y="-277.5" font-family="Helvetica,sans-Serif" font-size="10.00">OD_extension_t</text>
</a>
</g>
</g>
<!-- Node8&#45;&gt;Node3 -->
<g id="edge11" class="edge">
<title>Node8&#45;&gt;Node3</title>
<path fill="none" stroke="#9a32cd" stroke-dasharray="5,2" d="M104.19,-286.96C196.73,-298.46 387,-322.2 548,-343 585.88,-347.89 629.37,-353.68 658.45,-357.56"/>
<polygon fill="#9a32cd" stroke="#9a32cd" points="104.55,-283.48 94.2,-285.72 103.69,-290.43 104.55,-283.48"/>
<text text-anchor="middle" x="373.5" y="-329" font-family="Helvetica,sans-Serif" font-size="10.00"> OD_1017_extension</text>
</g>
<!-- Node8&#45;&gt;Node4 -->
<g id="edge8" class="edge">
<title>Node8&#45;&gt;Node4</title>
<path fill="none" stroke="#9a32cd" stroke-dasharray="5,2" d="M68.78,-295.87C80.77,-304.18 96.5,-313.7 112,-319 237.97,-362.1 399.59,-364.14 464.8,-362.94"/>
<polygon fill="#9a32cd" stroke="#9a32cd" points="70.57,-292.84 60.4,-289.84 66.48,-298.53 70.57,-292.84"/>
<text text-anchor="middle" x="243.5" y="-392" font-family="Helvetica,sans-Serif" font-size="10.00"> OD_1003_extension</text>
<text text-anchor="middle" x="243.5" y="-381" font-family="Helvetica,sans-Serif" font-size="10.00">OD_statusBits_extension</text>
<text text-anchor="middle" x="243.5" y="-370" font-family="Helvetica,sans-Serif" font-size="10.00">OD_1014_extension</text>
<text text-anchor="middle" x="243.5" y="-359" font-family="Helvetica,sans-Serif" font-size="10.00">OD_1015_extension</text>
</g>
<!-- Node8&#45;&gt;Node9 -->
<g id="edge21" class="edge">
<title>Node8&#45;&gt;Node9</title>
<path fill="none" stroke="#9a32cd" stroke-dasharray="5,2" d="M69.25,-264.57C94.61,-247.22 139,-220.15 182,-210 349.01,-170.57 555.49,-192.05 645.71,-204.77"/>
<polygon fill="#9a32cd" stroke="#9a32cd" points="67,-261.87 60.81,-270.47 71.01,-267.61 67,-261.87"/>
<text text-anchor="middle" x="373.5" y="-192" font-family="Helvetica,sans-Serif" font-size="10.00"> OD_1280_extension</text>
</g>
<!-- Node13 -->
<g id="node13" class="node">
<title>Node13</title>
<g id="a_node13"><a xlink:href="structOD__entry__t.html" target="_top" xlink:title="Object Dictionary entry for one OD object.">
<polygon fill="white" stroke="black" points="208,-219.5 208,-238.5 279,-238.5 279,-219.5 208,-219.5"/>
<text text-anchor="middle" x="243.5" y="-226.5" font-family="Helvetica,sans-Serif" font-size="10.00">OD_entry_t</text>
</a>
</g>
</g>
<!-- Node8&#45;&gt;Node13 -->
<g id="edge19" class="edge">
<title>Node8&#45;&gt;Node13</title>
<path fill="none" stroke="#9a32cd" stroke-dasharray="5,2" d="M94.51,-267.8C129.3,-258.68 176.13,-246.4 207.72,-238.12"/>
<polygon fill="#9a32cd" stroke="#9a32cd" points="93.37,-264.49 84.58,-270.41 95.14,-271.26 93.37,-264.49"/>
<text text-anchor="middle" x="138" y="-265" font-family="Helvetica,sans-Serif" font-size="10.00"> extension</text>
</g>
<!-- Node9&#45;&gt;Node1 -->
<g id="edge12" class="edge">
<title>Node9&#45;&gt;Node1</title>
<path fill="none" stroke="#9a32cd" stroke-dasharray="5,2" d="M749.2,-212C784.47,-212 829.06,-212 859.89,-212"/>
<polygon fill="#9a32cd" stroke="#9a32cd" points="749.06,-208.5 739.06,-212 749.06,-215.5 749.06,-208.5"/>
<text text-anchor="middle" x="812" y="-215" font-family="Helvetica,sans-Serif" font-size="10.00"> SDO_C</text>
</g>
<!-- Node10 -->
<g id="node10" class="node">
<title>Node10</title>
<g id="a_node10"><a xlink:href="structOD__IO__t.html" target="_top" xlink:title="Structure for input / output on the OD variable.">
<polygon fill="white" stroke="black" points="467,-143.5 467,-162.5 523,-162.5 523,-143.5 467,-143.5"/>
<text text-anchor="middle" x="495" y="-150.5" font-family="Helvetica,sans-Serif" font-size="10.00">OD_IO_t</text>
</a>
</g>
</g>
<!-- Node10&#45;&gt;Node9 -->
<g id="edge13" class="edge">
<title>Node10&#45;&gt;Node9</title>
<path fill="none" stroke="#9a32cd" stroke-dasharray="5,2" d="M533.34,-156.8C554.15,-159.53 580.37,-163.99 603,-171 628.88,-179.01 656.98,-193.03 674.42,-202.41"/>
<polygon fill="#9a32cd" stroke="#9a32cd" points="533.64,-153.31 523.29,-155.56 532.78,-160.25 533.64,-153.31"/>
<text text-anchor="middle" x="584.5" y="-174" font-family="Helvetica,sans-Serif" font-size="10.00"> OD_IO</text>
</g>
<!-- Node11 -->
<g id="node11" class="node">
<title>Node11</title>
<g id="a_node11"><a xlink:href="structOD__stream__t.html" target="_top" xlink:title="IO stream structure, used for read/write access to OD variable, part of OD_IO_t.">
<polygon fill="white" stroke="black" points="203.5,-143.5 203.5,-162.5 283.5,-162.5 283.5,-143.5 203.5,-143.5"/>
<text text-anchor="middle" x="243.5" y="-150.5" font-family="Helvetica,sans-Serif" font-size="10.00">OD_stream_t</text>
</a>
</g>
</g>
<!-- Node11&#45;&gt;Node10 -->
<g id="edge14" class="edge">
<title>Node11&#45;&gt;Node10</title>
<path fill="none" stroke="#9a32cd" stroke-dasharray="5,2" d="M294.07,-153C345.95,-153 425.51,-153 466.89,-153"/>
<polygon fill="#9a32cd" stroke="#9a32cd" points="293.76,-149.5 283.76,-153 293.76,-156.5 293.76,-149.5"/>
<text text-anchor="middle" x="373.5" y="-156" font-family="Helvetica,sans-Serif" font-size="10.00"> stream</text>
</g>
<!-- Node12 -->
<g id="node12" class="node">
<title>Node12</title>
<g id="a_node12"><a xlink:href="structOD__t.html" target="_top" xlink:title="Object Dictionary.">
<polygon fill="white" stroke="black" points="474.5,-219.5 474.5,-238.5 515.5,-238.5 515.5,-219.5 474.5,-219.5"/>
<text text-anchor="middle" x="495" y="-226.5" font-family="Helvetica,sans-Serif" font-size="10.00">OD_t</text>
</a>
</g>
</g>
<!-- Node12&#45;&gt;Node9 -->
<g id="edge17" class="edge">
<title>Node12&#45;&gt;Node9</title>
<path fill="none" stroke="#9a32cd" stroke-dasharray="5,2" d="M525.88,-226.4C557.83,-223.62 608.9,-219.18 645.89,-215.97"/>
<polygon fill="#9a32cd" stroke="#9a32cd" points="525.48,-222.92 515.82,-227.28 526.09,-229.9 525.48,-222.92"/>
<text text-anchor="middle" x="584.5" y="-225" font-family="Helvetica,sans-Serif" font-size="10.00"> OD</text>
</g>
<!-- Node13&#45;&gt;Node12 -->
<g id="edge18" class="edge">
<title>Node13&#45;&gt;Node12</title>
<path fill="none" stroke="#9a32cd" stroke-dasharray="5,2" d="M289.34,-229C344.23,-229 434.77,-229 474.4,-229"/>
<polygon fill="#9a32cd" stroke="#9a32cd" points="289.19,-225.5 279.19,-229 289.19,-232.5 289.19,-225.5"/>
<text text-anchor="middle" x="373.5" y="-232" font-family="Helvetica,sans-Serif" font-size="10.00"> list</text>
</g>
<!-- Node14 -->
<g id="node14" class="node">
<title>Node14</title>
<g id="a_node14"><a xlink:href="structCO__fifo__t.html" target="_top" xlink:title="Fifo object.">
<polygon fill="white" stroke="black" points="464,-99.5 464,-118.5 526,-118.5 526,-99.5 464,-99.5"/>
<text text-anchor="middle" x="495" y="-106.5" font-family="Helvetica,sans-Serif" font-size="10.00">CO_fifo_t</text>
</a>
</g>
</g>
<!-- Node14&#45;&gt;Node1 -->
<g id="edge26" class="edge">
<title>Node14&#45;&gt;Node1</title>
<path fill="none" stroke="#9a32cd" stroke-dasharray="5,2" d="M536.23,-114.27C556.38,-117.2 581.09,-121.21 603,-126 702.08,-147.64 816.69,-184.86 868.51,-202.37"/>
<polygon fill="#9a32cd" stroke="#9a32cd" points="536.54,-110.78 526.15,-112.85 535.56,-117.71 536.54,-110.78"/>
<text text-anchor="middle" x="692.5" y="-182" font-family="Helvetica,sans-Serif" font-size="10.00"> commFifo</text>
<text text-anchor="middle" x="692.5" y="-171" font-family="Helvetica,sans-Serif" font-size="10.00">logFifo</text>
</g>
<!-- Node14&#45;&gt;Node9 -->
<g id="edge20" class="edge">
<title>Node14&#45;&gt;Node9</title>
<path fill="none" stroke="#9a32cd" stroke-dasharray="5,2" d="M535.78,-120.07C556.44,-126.57 581.74,-135.73 603,-147 633.32,-163.07 664.75,-188.68 680.75,-202.46"/>
<polygon fill="#9a32cd" stroke="#9a32cd" points="536.63,-116.67 526.04,-117.1 534.58,-123.37 536.63,-116.67"/>
<text text-anchor="middle" x="584.5" y="-150" font-family="Helvetica,sans-Serif" font-size="10.00"> bufFifo</text>
</g>
<!-- Node15&#45;&gt;Node1 -->
<g id="edge22" class="edge">
<title>Node15&#45;&gt;Node1</title>
<path fill="none" stroke="#9a32cd" stroke-dasharray="5,2" d="M528.87,-556.16C535.35,-553.07 541.99,-549.62 548,-546 691.51,-459.51 737.96,-441.34 842,-310 865.33,-280.55 884.46,-239.8 892.46,-221.53"/>
<polygon fill="#9a32cd" stroke="#9a32cd" points="527.22,-553.07 519.6,-560.43 530.15,-559.43 527.22,-553.07"/>
<text text-anchor="middle" x="692.5" y="-503" font-family="Helvetica,sans-Serif" font-size="10.00"> LSSmaster</text>
</g>
<!-- Node16 -->
<g id="node16" class="node">
<title>Node16</title>
<g id="a_node16"><a xlink:href="unionCO__LSS__address__t.html" target="_top" xlink:title="The LSS address is a 128 bit number, uniquely identifying each node.">
<polygon fill="white" stroke="black" points="442,-26.5 442,-45.5 548,-45.5 548,-26.5 442,-26.5"/>
<text text-anchor="middle" x="495" y="-33.5" font-family="Helvetica,sans-Serif" font-size="10.00">CO_LSS_address_t</text>
</a>
</g>
</g>
<!-- Node16&#45;&gt;Node1 -->
<g id="edge25" class="edge">
<title>Node16&#45;&gt;Node1</title>
<path fill="none" stroke="#9a32cd" stroke-dasharray="5,2" d="M554.75,-47.76C610.44,-60.23 695.54,-82.75 764,-116 813.83,-140.2 864.62,-183.23 886,-202.37"/>
<polygon fill="#9a32cd" stroke="#9a32cd" points="555.22,-44.28 544.7,-45.55 553.71,-51.11 555.22,-44.28"/>
<text text-anchor="middle" x="692.5" y="-119" font-family="Helvetica,sans-Serif" font-size="10.00"> lssAddress</text>
</g>
<!-- Node17 -->
<g id="node17" class="node">
<title>Node17</title>
<g id="a_node17"><a xlink:href="structCO__LSSmaster__fastscan__t.html" target="_top" xlink:title="Parameters for LSS fastscan CO_LSSmaster_IdentifyFastscan.">
<polygon fill="white" stroke="black" points="621,-0.5 621,-19.5 764,-19.5 764,-0.5 621,-0.5"/>
<text text-anchor="middle" x="692.5" y="-7.5" font-family="Helvetica,sans-Serif" font-size="10.00">CO_LSSmaster_fastscan_t</text>
</a>
</g>
</g>
<!-- Node16&#45;&gt;Node17 -->
<g id="edge28" class="edge">
<title>Node16&#45;&gt;Node17</title>
<path fill="none" stroke="#9a32cd" stroke-dasharray="5,2" d="M543.08,-24.26C550.71,-22.64 558.55,-21.14 566,-20 583.72,-17.28 602.96,-15.28 620.93,-13.82"/>
<polygon fill="#9a32cd" stroke="#9a32cd" points="542.23,-20.86 533.23,-26.44 543.75,-27.69 542.23,-20.86"/>
<text text-anchor="middle" x="584.5" y="-34" font-family="Helvetica,sans-Serif" font-size="10.00"> found</text>
<text text-anchor="middle" x="584.5" y="-23" font-family="Helvetica,sans-Serif" font-size="10.00">match</text>
</g>
<!-- Node17&#45;&gt;Node1 -->
<g id="edge27" class="edge">
<title>Node17&#45;&gt;Node1</title>
<path fill="none" stroke="#9a32cd" stroke-dasharray="5,2" d="M774.62,-5.46C798.67,-8.05 823.5,-15.12 842,-31 895.04,-76.53 897.55,-171.6 896.89,-202.25"/>
<polygon fill="#9a32cd" stroke="#9a32cd" points="774.63,-1.95 764.38,-4.62 774.05,-8.93 774.63,-1.95"/>
<text text-anchor="middle" x="812" y="-34" font-family="Helvetica,sans-Serif" font-size="10.00"> lssFastscan</text>
</g>
</g>
</svg>
        <g id="navigator" transform="translate(0 0)" fill="#404254">
                <rect fill="#f2f5e9" fill-opacity="0.5" stroke="#606060" stroke-width=".5" x="0" y="0" width="60" height="60"/>
                <use id="zoomplus" xlink:href="#zoomPlus" x="17" y="9" onmousedown="handleZoom(evt,'in')"/>
                <use id="zoomminus" xlink:href="#zoomMin" x="42" y="9" onmousedown="handleZoom(evt,'out')"/>
                <use id="reset" xlink:href="#resetDef" x="30" y="36" onmousedown="handleReset()"/>
                <g id="arrowUp" xlink:href="#dirArrow" transform="translate(30 24)" onmousedown="handlePan(0,-1)">
                  <use xlink:href="#rim" fill="#404040">
                        <set attributeName="fill" to="#808080" begin="arrowUp.mouseover" end="arrowUp.mouseout"/>
                  </use>
                  <path fill="none" stroke="white" stroke-width="1.5" d="M0,-3.0v7 M-2.5,-0.5L0,-3.0L2.5,-0.5"/>
                </g>
                <g id="arrowRight" xlink:href="#dirArrow" transform="rotate(90) translate(36 -43)" onmousedown="handlePan(1,0)">
                  <use xlink:href="#rim" fill="#404040">
                        <set attributeName="fill" to="#808080" begin="arrowRight.mouseover" end="arrowRight.mouseout"/>
                  </use>
                  <path fill="none" stroke="white" stroke-width="1.5" d="M0,-3.0v7 M-2.5,-0.5L0,-3.0L2.5,-0.5"/>
                </g>
                <g id="arrowDown" xlink:href="#dirArrow" transform="rotate(180) translate(-30 -48)" onmousedown="handlePan(0,1)">
                  <use xlink:href="#rim" fill="#404040">
                        <set attributeName="fill" to="#808080" begin="arrowDown.mouseover" end="arrowDown.mouseout"/>
                  </use>
                  <path fill="none" stroke="white" stroke-width="1.5" d="M0,-3.0v7 M-2.5,-0.5L0,-3.0L2.5,-0.5"/>
                </g>
                <g id="arrowLeft" xlink:href="#dirArrow" transform="rotate(270) translate(-36 17)" onmousedown="handlePan(-1,0)">
                  <use xlink:href="#rim" fill="#404040">
                        <set attributeName="fill" to="#808080" begin="arrowLeft.mouseover" end="arrowLeft.mouseout"/>
                  </use>
                  <path fill="none" stroke="white" stroke-width="1.5" d="M0,-3.0v7 M-2.5,-0.5L0,-3.0L2.5,-0.5"/>
                </g>
        </g>
        <svg viewBox="0 0 15 15" width="100%" height="30px" preserveAspectRatio="xMaxYMin meet">
         <g id="arrow_out" transform="scale(0.3 0.3)">
          <a xlink:href="structCO__GTWA__t__coll__graph_org.svg" target="_base">
           <rect id="button" ry="5" rx="5" y="6" x="6" height="38" width="38"
                fill="#f2f5e9" fill-opacity="0.5" stroke="#606060" stroke-width="1.0"/>
           <path id="arrow"
             d="M 11.500037,31.436501 C 11.940474,20.09759 22.043105,11.32322 32.158766,21.979434 L 37.068811,17.246167 C 37.068811,17.246167 37.088388,32 37.088388,32 L 22.160133,31.978069 C 22.160133,31.978069 26.997745,27.140456 26.997745,27.140456 C 18.528582,18.264221 13.291696,25.230495 11.500037,31.436501 z"
             style="fill:#404040;"/>
          </a>
         </g>
        </svg>
</svg>
