<?xml version="1.0" encoding="UTF-8" standalone="no"?>
<!DOCTYPE svg PUBLIC "-//W3C//DTD SVG 1.1//EN"
 "http://www.w3.org/Graphics/SVG/1.1/DTD/svg11.dtd">
<!-- Generated by graphviz version 2.43.0 (0)
 -->
<!-- Title: CO_RPDO_t Pages: 1 -->
<svg width="754pt" height="355pt"
 viewBox="0.00 0.00 754.29 355.00" xmlns="http://www.w3.org/2000/svg" xmlns:xlink="http://www.w3.org/1999/xlink">
<g id="graph0" class="graph" transform="scale(1 1) rotate(0) translate(4 351)">
<title>CO_RPDO_t</title>
<polygon fill="white" stroke="transparent" points="-4,4 -4,-351 750.29,-351 750.29,4 -4,4"/>
<!-- Node1 -->
<g id="node1" class="node">
<title>Node1</title>
<g id="a_node1"><a xlink:title="RPDO object.">
<polygon fill="#bfbfbf" stroke="black" points="274.79,-0.5 274.79,-19.5 347.79,-19.5 347.79,-0.5 274.79,-0.5"/>
<text text-anchor="middle" x="311.29" y="-7.5" font-family="Helvetica,sans-Serif" font-size="10.00">CO_RPDO_t</text>
</a>
</g>
</g>
<!-- Node2 -->
<g id="node2" class="node">
<title>Node2</title>
<g id="a_node2"><a xlink:href="structCO__SYNC__t.html" target="_top" xlink:title="SYNC producer and consumer object.">
<polygon fill="white" stroke="black" points="220.79,-67.5 220.79,-86.5 291.79,-86.5 291.79,-67.5 220.79,-67.5"/>
<text text-anchor="middle" x="256.29" y="-74.5" font-family="Helvetica,sans-Serif" font-size="10.00">CO_SYNC_t</text>
</a>
</g>
</g>
<!-- Node2&#45;&gt;Node1 -->
<g id="edge1" class="edge">
<title>Node2&#45;&gt;Node1</title>
<path fill="none" stroke="#9a32cd" stroke-dasharray="5,2" d="M270.45,-59.27C281.17,-46.6 295.47,-29.7 303.99,-19.63"/>
<polygon fill="#9a32cd" stroke="#9a32cd" points="267.49,-57.34 263.71,-67.23 272.84,-61.86 267.49,-57.34"/>
<text text-anchor="middle" x="302.29" y="-41" font-family="Helvetica,sans-Serif" font-size="10.00"> SYNC</text>
</g>
<!-- Node3 -->
<g id="node3" class="node">
<title>Node3</title>
<g id="a_node3"><a xlink:href="structCO__EM__t.html" target="_top" xlink:title="Emergency object.">
<polygon fill="white" stroke="black" points="230.29,-135.5 230.29,-154.5 290.29,-154.5 290.29,-135.5 230.29,-135.5"/>
<text text-anchor="middle" x="260.29" y="-142.5" font-family="Helvetica,sans-Serif" font-size="10.00">CO_EM_t</text>
</a>
</g>
</g>
<!-- Node3&#45;&gt;Node2 -->
<g id="edge2" class="edge">
<title>Node3&#45;&gt;Node2</title>
<path fill="none" stroke="#9a32cd" stroke-dasharray="5,2" d="M258.05,-125.01C257.75,-122 257.48,-118.92 257.29,-116 256.62,-105.99 256.4,-94.47 256.32,-86.76"/>
<polygon fill="#9a32cd" stroke="#9a32cd" points="254.59,-125.63 259.16,-135.19 261.55,-124.87 254.59,-125.63"/>
<text text-anchor="middle" x="266.79" y="-108" font-family="Helvetica,sans-Serif" font-size="10.00"> em</text>
</g>
<!-- Node8 -->
<g id="node8" class="node">
<title>Node8</title>
<g id="a_node8"><a xlink:href="structCO__PDO__common__t.html" target="_top" xlink:title="PDO object, common properties.">
<polygon fill="white" stroke="black" points="352.29,-67.5 352.29,-86.5 466.29,-86.5 466.29,-67.5 352.29,-67.5"/>
<text text-anchor="middle" x="409.29" y="-74.5" font-family="Helvetica,sans-Serif" font-size="10.00">CO_PDO_common_t</text>
</a>
</g>
</g>
<!-- Node3&#45;&gt;Node8 -->
<g id="edge12" class="edge">
<title>Node3&#45;&gt;Node8</title>
<path fill="none" stroke="#9a32cd" stroke-dasharray="5,2" d="M273.06,-127.54C280.02,-119.63 289.24,-110.66 299.29,-105 315.39,-95.93 334.5,-89.88 352.24,-85.85"/>
<polygon fill="#9a32cd" stroke="#9a32cd" points="270.16,-125.56 266.48,-135.5 275.55,-130.02 270.16,-125.56"/>
<text text-anchor="middle" x="308.79" y="-108" font-family="Helvetica,sans-Serif" font-size="10.00"> em</text>
</g>
<!-- Node4 -->
<g id="node4" class="node">
<title>Node4</title>
<g id="a_node4"><a xlink:href="structCO__CANtx__t.html" target="_top" xlink:title="Configuration object for CAN transmit message for specific CANopenNode Object.">
<polygon fill="white" stroke="black" points="9.29,-327.5 9.29,-346.5 85.29,-346.5 85.29,-327.5 9.29,-327.5"/>
<text text-anchor="middle" x="47.29" y="-334.5" font-family="Helvetica,sans-Serif" font-size="10.00">CO_CANtx_t</text>
</a>
</g>
</g>
<!-- Node4&#45;&gt;Node2 -->
<g id="edge9" class="edge">
<title>Node4&#45;&gt;Node2</title>
<path fill="none" stroke="#9a32cd" stroke-dasharray="5,2" d="M35.84,-318.93C16.39,-287.56 -18.2,-219.8 12.29,-174 58.83,-104.09 165.03,-85.08 220.71,-79.92"/>
<polygon fill="#9a32cd" stroke="#9a32cd" points="32.96,-320.91 41.31,-327.43 38.84,-317.12 32.96,-320.91"/>
<text text-anchor="middle" x="39.79" y="-193.5" font-family="Helvetica,sans-Serif" font-size="10.00"> CANtxBuff</text>
</g>
<!-- Node4&#45;&gt;Node3 -->
<g id="edge3" class="edge">
<title>Node4&#45;&gt;Node3</title>
<path fill="none" stroke="#9a32cd" stroke-dasharray="5,2" d="M44.04,-317.29C41.36,-295.82 40.23,-260.45 56.29,-236 87.96,-187.8 117.16,-196.45 170.29,-174 181.22,-169.38 208.64,-161.01 230.37,-154.62"/>
<polygon fill="#9a32cd" stroke="#9a32cd" points="40.61,-318 45.55,-327.37 47.53,-316.96 40.61,-318"/>
<text text-anchor="middle" x="83.79" y="-255.5" font-family="Helvetica,sans-Serif" font-size="10.00"> CANtxBuff</text>
</g>
<!-- Node5 -->
<g id="node5" class="node">
<title>Node5</title>
<g id="a_node5"><a xlink:href="structCO__CANmodule__t.html" target="_top" xlink:title="Complete CAN module object.">
<polygon fill="white" stroke="black" points="120.79,-248.5 120.79,-267.5 223.79,-267.5 223.79,-248.5 120.79,-248.5"/>
<text text-anchor="middle" x="172.29" y="-255.5" font-family="Helvetica,sans-Serif" font-size="10.00">CO_CANmodule_t</text>
</a>
</g>
</g>
<!-- Node4&#45;&gt;Node5 -->
<g id="edge5" class="edge">
<title>Node4&#45;&gt;Node5</title>
<path fill="none" stroke="#9a32cd" stroke-dasharray="5,2" d="M69.86,-322.09C95.62,-306.23 136.94,-280.78 158.37,-267.57"/>
<polygon fill="#9a32cd" stroke="#9a32cd" points="67.82,-319.24 61.14,-327.47 71.49,-325.2 67.82,-319.24"/>
<text text-anchor="middle" x="126.29" y="-301" font-family="Helvetica,sans-Serif" font-size="10.00"> txArray</text>
</g>
<!-- Node5&#45;&gt;Node2 -->
<g id="edge8" class="edge">
<title>Node5&#45;&gt;Node2</title>
<path fill="none" stroke="#9a32cd" stroke-dasharray="5,2" d="M165.66,-238.47C157.8,-213.13 147.93,-167.05 166.29,-134 179.61,-110.03 207.91,-94.99 229.24,-86.61"/>
<polygon fill="#9a32cd" stroke="#9a32cd" points="162.43,-239.87 168.91,-248.25 169.07,-237.65 162.43,-239.87"/>
<text text-anchor="middle" x="193.79" y="-148" font-family="Helvetica,sans-Serif" font-size="10.00"> CANdevRx</text>
<text text-anchor="middle" x="193.79" y="-137" font-family="Helvetica,sans-Serif" font-size="10.00">CANdevTx</text>
</g>
<!-- Node5&#45;&gt;Node3 -->
<g id="edge4" class="edge">
<title>Node5&#45;&gt;Node3</title>
<path fill="none" stroke="#9a32cd" stroke-dasharray="5,2" d="M171.84,-237.99C172.42,-219.58 176.06,-191.9 191.29,-174 201.09,-162.48 216.35,-155.64 230.02,-151.61"/>
<polygon fill="#9a32cd" stroke="#9a32cd" points="168.34,-238.07 171.81,-248.08 175.34,-238.1 168.34,-238.07"/>
<text text-anchor="middle" x="218.79" y="-193.5" font-family="Helvetica,sans-Serif" font-size="10.00"> CANdevTx</text>
</g>
<!-- Node5&#45;&gt;Node8 -->
<g id="edge15" class="edge">
<title>Node5&#45;&gt;Node8</title>
<path fill="none" stroke="#9a32cd" stroke-dasharray="5,2" d="M202.27,-244.23C217.21,-237.32 235.25,-228.13 250.29,-218 313.43,-175.47 378.42,-110.18 400.98,-86.75"/>
<polygon fill="#9a32cd" stroke="#9a32cd" points="200.64,-241.12 192.96,-248.43 203.52,-247.5 200.64,-241.12"/>
<text text-anchor="middle" x="374.79" y="-142.5" font-family="Helvetica,sans-Serif" font-size="10.00"> CANdev</text>
</g>
<!-- Node6 -->
<g id="node6" class="node">
<title>Node6</title>
<g id="a_node6"><a xlink:href="structCO__CANrx__t.html" target="_top" xlink:title="Configuration object for CAN received message for specific CANopenNode Object.">
<polygon fill="white" stroke="black" points="134.29,-327.5 134.29,-346.5 210.29,-346.5 210.29,-327.5 134.29,-327.5"/>
<text text-anchor="middle" x="172.29" y="-334.5" font-family="Helvetica,sans-Serif" font-size="10.00">CO_CANrx_t</text>
</a>
</g>
</g>
<!-- Node6&#45;&gt;Node5 -->
<g id="edge6" class="edge">
<title>Node6&#45;&gt;Node5</title>
<path fill="none" stroke="#9a32cd" stroke-dasharray="5,2" d="M172.29,-317.31C172.29,-301.59 172.29,-279.81 172.29,-267.81"/>
<polygon fill="#9a32cd" stroke="#9a32cd" points="168.79,-317.47 172.29,-327.47 175.79,-317.47 168.79,-317.47"/>
<text text-anchor="middle" x="192.29" y="-301" font-family="Helvetica,sans-Serif" font-size="10.00"> rxArray</text>
</g>
<!-- Node7 -->
<g id="node7" class="node">
<title>Node7</title>
<g id="a_node7"><a xlink:href="structOD__extension__t.html" target="_top" xlink:title="Extension of OD object, which can optionally be specified by application in initialization phase with...">
<polygon fill="white" stroke="black" points="388.29,-327.5 388.29,-346.5 482.29,-346.5 482.29,-327.5 388.29,-327.5"/>
<text text-anchor="middle" x="435.29" y="-334.5" font-family="Helvetica,sans-Serif" font-size="10.00">OD_extension_t</text>
</a>
</g>
</g>
<!-- Node7&#45;&gt;Node2 -->
<g id="edge10" class="edge">
<title>Node7&#45;&gt;Node2</title>
<path fill="none" stroke="#9a32cd" stroke-dasharray="5,2" d="M428.9,-317.75C421.07,-294.76 407.92,-253.91 400.29,-218 396.38,-199.58 400.63,-149.03 389.29,-134 366.13,-103.3 322.93,-89.28 292.04,-82.98"/>
<polygon fill="#9a32cd" stroke="#9a32cd" points="425.6,-318.93 432.17,-327.24 432.22,-316.65 425.6,-318.93"/>
<text text-anchor="middle" x="450.79" y="-199" font-family="Helvetica,sans-Serif" font-size="10.00"> OD_1019_extension</text>
<text text-anchor="middle" x="450.79" y="-188" font-family="Helvetica,sans-Serif" font-size="10.00">OD_1005_extension</text>
</g>
<!-- Node7&#45;&gt;Node3 -->
<g id="edge7" class="edge">
<title>Node7&#45;&gt;Node3</title>
<path fill="none" stroke="#9a32cd" stroke-dasharray="5,2" d="M377.78,-331.24C342.33,-325.11 299.05,-311.24 274.29,-280 244.22,-242.05 253.63,-177.86 258.33,-154.68"/>
<polygon fill="#9a32cd" stroke="#9a32cd" points="377.61,-334.76 388.03,-332.84 378.69,-327.84 377.61,-334.76"/>
<text text-anchor="middle" x="335.79" y="-272" font-family="Helvetica,sans-Serif" font-size="10.00"> OD_1003_extension</text>
<text text-anchor="middle" x="335.79" y="-261" font-family="Helvetica,sans-Serif" font-size="10.00">OD_statusBits_extension</text>
<text text-anchor="middle" x="335.79" y="-250" font-family="Helvetica,sans-Serif" font-size="10.00">OD_1014_extension</text>
<text text-anchor="middle" x="335.79" y="-239" font-family="Helvetica,sans-Serif" font-size="10.00">OD_1015_extension</text>
</g>
<!-- Node7&#45;&gt;Node8 -->
<g id="edge19" class="edge">
<title>Node7&#45;&gt;Node8</title>
<path fill="none" stroke="#9a32cd" stroke-dasharray="5,2" d="M492.47,-335.39C534.7,-331.56 589.63,-318.74 618.29,-280 629.92,-264.28 620.75,-255.4 618.29,-236 612.22,-188.16 615.73,-167.76 581.29,-134 550.57,-103.88 503.47,-89.96 466.32,-83.53"/>
<polygon fill="#9a32cd" stroke="#9a32cd" points="492.01,-331.92 482.31,-336.17 492.54,-338.9 492.01,-331.92"/>
<text text-anchor="start" x="615.29" y="-210" font-family="Helvetica,sans-Serif" font-size="10.00"> OD_communicationParam</text>
<text text-anchor="middle" x="680.79" y="-199" font-family="Helvetica,sans-Serif" font-size="10.00">_ext</text>
<text text-anchor="start" x="615.29" y="-188" font-family="Helvetica,sans-Serif" font-size="10.00">OD_mappingParam</text>
<text text-anchor="middle" x="680.79" y="-177" font-family="Helvetica,sans-Serif" font-size="10.00">_extension</text>
</g>
<!-- Node12 -->
<g id="node12" class="node">
<title>Node12</title>
<g id="a_node12"><a xlink:href="structOD__entry__t.html" target="_top" xlink:title="Object Dictionary entry for one OD object.">
<polygon fill="white" stroke="black" points="439.79,-248.5 439.79,-267.5 510.79,-267.5 510.79,-248.5 439.79,-248.5"/>
<text text-anchor="middle" x="475.29" y="-255.5" font-family="Helvetica,sans-Serif" font-size="10.00">OD_entry_t</text>
</a>
</g>
</g>
<!-- Node7&#45;&gt;Node12 -->
<g id="edge18" class="edge">
<title>Node7&#45;&gt;Node12</title>
<path fill="none" stroke="#9a32cd" stroke-dasharray="5,2" d="M444.52,-318.22C452.72,-302.44 464.36,-280.04 470.71,-267.81"/>
<polygon fill="#9a32cd" stroke="#9a32cd" points="441.23,-316.98 439.72,-327.47 447.44,-320.2 441.23,-316.98"/>
<text text-anchor="middle" x="480.29" y="-301" font-family="Helvetica,sans-Serif" font-size="10.00"> extension</text>
</g>
<!-- Node8&#45;&gt;Node1 -->
<g id="edge11" class="edge">
<title>Node8&#45;&gt;Node1</title>
<path fill="none" stroke="#9a32cd" stroke-dasharray="5,2" d="M387.57,-61.59C368.18,-48.74 340.43,-30.33 324.3,-19.63"/>
<polygon fill="#9a32cd" stroke="#9a32cd" points="385.8,-64.62 396.07,-67.23 389.67,-58.79 385.8,-64.62"/>
<text text-anchor="middle" x="402.79" y="-41" font-family="Helvetica,sans-Serif" font-size="10.00"> PDO_common</text>
</g>
<!-- Node9 -->
<g id="node9" class="node">
<title>Node9</title>
<g id="a_node9"><a xlink:href="structOD__IO__t.html" target="_top" xlink:title="Structure for input / output on the OD variable.">
<polygon fill="white" stroke="black" points="516.29,-135.5 516.29,-154.5 572.29,-154.5 572.29,-135.5 516.29,-135.5"/>
<text text-anchor="middle" x="544.29" y="-142.5" font-family="Helvetica,sans-Serif" font-size="10.00">OD_IO_t</text>
</a>
</g>
</g>
<!-- Node9&#45;&gt;Node8 -->
<g id="edge13" class="edge">
<title>Node9&#45;&gt;Node8</title>
<path fill="none" stroke="#9a32cd" stroke-dasharray="5,2" d="M517.42,-130.86C490.54,-117.72 449.99,-97.9 426.94,-86.63"/>
<polygon fill="#9a32cd" stroke="#9a32cd" points="516.12,-134.12 526.64,-135.37 519.19,-127.84 516.12,-134.12"/>
<text text-anchor="middle" x="502.29" y="-108" font-family="Helvetica,sans-Serif" font-size="10.00"> OD_IO</text>
</g>
<!-- Node10 -->
<g id="node10" class="node">
<title>Node10</title>
<g id="a_node10"><a xlink:href="structOD__stream__t.html" target="_top" xlink:title="IO stream structure, used for read/write access to OD variable, part of OD_IO_t.">
<polygon fill="white" stroke="black" points="529.29,-248.5 529.29,-267.5 609.29,-267.5 609.29,-248.5 529.29,-248.5"/>
<text text-anchor="middle" x="569.29" y="-255.5" font-family="Helvetica,sans-Serif" font-size="10.00">OD_stream_t</text>
</a>
</g>
</g>
<!-- Node10&#45;&gt;Node9 -->
<g id="edge14" class="edge">
<title>Node10&#45;&gt;Node9</title>
<path fill="none" stroke="#9a32cd" stroke-dasharray="5,2" d="M565.12,-238.51C559.66,-214.24 550.29,-172.63 546.24,-154.67"/>
<polygon fill="#9a32cd" stroke="#9a32cd" points="561.72,-239.3 567.33,-248.29 568.55,-237.77 561.72,-239.3"/>
<text text-anchor="middle" x="579.29" y="-193.5" font-family="Helvetica,sans-Serif" font-size="10.00"> stream</text>
</g>
<!-- Node11 -->
<g id="node11" class="node">
<title>Node11</title>
<g id="a_node11"><a xlink:href="structOD__t.html" target="_top" xlink:title="Object Dictionary.">
<polygon fill="white" stroke="black" points="444.79,-135.5 444.79,-154.5 485.79,-154.5 485.79,-135.5 444.79,-135.5"/>
<text text-anchor="middle" x="465.29" y="-142.5" font-family="Helvetica,sans-Serif" font-size="10.00">OD_t</text>
</a>
</g>
</g>
<!-- Node11&#45;&gt;Node8 -->
<g id="edge16" class="edge">
<title>Node11&#45;&gt;Node8</title>
<path fill="none" stroke="#9a32cd" stroke-dasharray="5,2" d="M451.44,-127.68C440.49,-114.78 425.63,-97.26 416.79,-86.84"/>
<polygon fill="#9a32cd" stroke="#9a32cd" points="448.83,-130.01 457.97,-135.37 454.17,-125.48 448.83,-130.01"/>
<text text-anchor="middle" x="450.79" y="-108" font-family="Helvetica,sans-Serif" font-size="10.00"> OD</text>
</g>
<!-- Node12&#45;&gt;Node11 -->
<g id="edge17" class="edge">
<title>Node12&#45;&gt;Node11</title>
<path fill="none" stroke="#9a32cd" stroke-dasharray="5,2" d="M491.42,-240.99C496.93,-234.43 502.43,-226.42 505.29,-218 511.59,-199.49 514.32,-191.35 505.29,-174 500.91,-165.58 492.7,-159.17 484.86,-154.62"/>
<polygon fill="#9a32cd" stroke="#9a32cd" points="488.79,-238.68 484.63,-248.42 493.96,-243.4 488.79,-238.68"/>
<text text-anchor="middle" x="520.79" y="-193.5" font-family="Helvetica,sans-Serif" font-size="10.00"> list</text>
</g>
</g>
</svg>
