<?xml version="1.0" encoding="UTF-8" standalone="no"?>
<!DOCTYPE svg PUBLIC "-//W3C//DTD SVG 1.1//EN"
 "http://www.w3.org/Graphics/SVG/1.1/DTD/svg11.dtd">
<!-- Generated by graphviz version 2.43.0 (0)
 -->
<!-- Title: CO_SYNC_t Pages: 1 -->
<!--zoomable 264 -->
<svg id="main" version="1.1" xmlns="http://www.w3.org/2000/svg" xmlns:xlink="http://www.w3.org/1999/xlink" xml:space="preserve" onload="init(evt)">
<style type="text/css"><![CDATA[
.edge:hover path { stroke: red; }
.edge:hover polygon { stroke: red; fill: red; }
]]></style>
<script type="text/javascript"><![CDATA[
var edges = document.getElementsByTagName('g');
if (edges && edges.length) {
  for (var i=0;i<edges.length;i++) {
    if (edges[i].id.substr(0,4)=='edge') {
      edges[i].setAttribute('class','edge');
    }
  }
}
]]></script>
        <defs>
                <circle id="rim" cx="0" cy="0" r="7"/>
                <circle id="rim2" cx="0" cy="0" r="3.5"/>
                <g id="zoomPlus">
                        <use xlink:href="#rim" fill="#404040">
                                <set attributeName="fill" to="#808080" begin="zoomplus.mouseover" end="zoomplus.mouseout"/>
                        </use>
                        <path d="M-4,0h8M0,-4v8" fill="none" stroke="white" stroke-width="1.5" pointer-events="none"/>
                </g>
                <g id="zoomMin">
                        <use xlink:href="#rim" fill="#404040">
                                <set attributeName="fill" to="#808080" begin="zoomminus.mouseover" end="zoomminus.mouseout"/>
                        </use>
                        <path d="M-4,0h8" fill="none" stroke="white" stroke-width="1.5" pointer-events="none"/>
                </g>
                <g id="dirArrow">
                        <path fill="none" stroke="white" stroke-width="1.5" d="M0,-3.0v7 M-2.5,-0.5L0,-3.0L2.5,-0.5"/>
                </g>
               <g id="resetDef">
                       <use xlink:href="#rim2" fill="#404040">
                               <set attributeName="fill" to="#808080" begin="reset.mouseover" end="reset.mouseout"/>
                       </use>
               </g>
        </defs>

<script type="text/javascript">
var viewWidth = 553;
var viewHeight = 264;
var sectionId = 'dynsection-0';
</script>
<script xlink:href="svgpan.js"/>
<svg id="graph" class="graph">
<g id="viewport">
<title>CO_SYNC_t</title>
<polygon fill="white" stroke="transparent" points="-4,4 -4,-260 548.5,-260 548.5,4 -4,4"/>
<!-- Node1 -->
<g id="node1" class="node">
<title>Node1</title>
<g id="a_node1"><a xlink:title="SYNC producer and consumer object.">
<polygon fill="#bfbfbf" stroke="black" points="311,-0.5 311,-19.5 382,-19.5 382,-0.5 311,-0.5"/>
<text text-anchor="middle" x="346.5" y="-7.5" font-family="Helvetica,sans-Serif" font-size="10.00">CO_SYNC_t</text>
</a>
</g>
</g>
<!-- Node2 -->
<g id="node2" class="node">
<title>Node2</title>
<g id="a_node2"><a xlink:href="structCO__EM__t.html" target="_top" xlink:title="Emergency object.">
<polygon fill="white" stroke="black" points="188.5,-68.5 188.5,-87.5 248.5,-87.5 248.5,-68.5 188.5,-68.5"/>
<text text-anchor="middle" x="218.5" y="-75.5" font-family="Helvetica,sans-Serif" font-size="10.00">CO_EM_t</text>
</a>
</g>
</g>
<!-- Node2&#45;&gt;Node1 -->
<g id="edge1" class="edge">
<title>Node2&#45;&gt;Node1</title>
<path fill="none" stroke="#9a32cd" stroke-dasharray="5,2" d="M244.32,-63.69C269.8,-50.55 308.01,-30.85 329.76,-19.63"/>
<polygon fill="#9a32cd" stroke="#9a32cd" points="242.52,-60.68 235.23,-68.37 245.73,-66.9 242.52,-60.68"/>
<text text-anchor="middle" x="304" y="-41" font-family="Helvetica,sans-Serif" font-size="10.00"> em</text>
</g>
<!-- Node3 -->
<g id="node3" class="node">
<title>Node3</title>
<g id="a_node3"><a xlink:href="structCO__EM__fifo__t.html" target="_top" xlink:title="Fifo buffer for emergency producer and error history.">
<polygon fill="white" stroke="black" points="121.5,-169.5 121.5,-188.5 203.5,-188.5 203.5,-169.5 121.5,-169.5"/>
<text text-anchor="middle" x="162.5" y="-176.5" font-family="Helvetica,sans-Serif" font-size="10.00">CO_EM_fifo_t</text>
</a>
</g>
</g>
<!-- Node3&#45;&gt;Node2 -->
<g id="edge2" class="edge">
<title>Node3&#45;&gt;Node2</title>
<path fill="none" stroke="#9a32cd" stroke-dasharray="5,2" d="M165.25,-159.29C168.15,-144.17 173.84,-122.88 184.5,-107 189.7,-99.25 197.66,-92.53 204.58,-87.62"/>
<polygon fill="#9a32cd" stroke="#9a32cd" points="161.74,-159.01 163.53,-169.45 168.65,-160.17 161.74,-159.01"/>
<text text-anchor="middle" x="194.5" y="-126.5" font-family="Helvetica,sans-Serif" font-size="10.00"> fifo</text>
</g>
<!-- Node4 -->
<g id="node4" class="node">
<title>Node4</title>
<g id="a_node4"><a xlink:href="structCO__CANtx__t.html" target="_top" xlink:title="Configuration object for CAN transmit message for specific CANopenNode Object.">
<polygon fill="white" stroke="black" points="201.5,-236.5 201.5,-255.5 277.5,-255.5 277.5,-236.5 201.5,-236.5"/>
<text text-anchor="middle" x="239.5" y="-243.5" font-family="Helvetica,sans-Serif" font-size="10.00">CO_CANtx_t</text>
</a>
</g>
</g>
<!-- Node4&#45;&gt;Node1 -->
<g id="edge9" class="edge">
<title>Node4&#45;&gt;Node1</title>
<path fill="none" stroke="#9a32cd" stroke-dasharray="5,2" d="M287.83,-243.89C333.05,-240.3 399.72,-228.1 441.5,-189 482.69,-150.46 507.51,-114.12 476.5,-67 455.7,-35.39 412.88,-21.54 382.06,-15.53"/>
<polygon fill="#9a32cd" stroke="#9a32cd" points="287.42,-240.41 277.68,-244.58 287.89,-247.39 287.42,-240.41"/>
<text text-anchor="middle" x="517" y="-126.5" font-family="Helvetica,sans-Serif" font-size="10.00"> CANtxBuff</text>
</g>
<!-- Node4&#45;&gt;Node2 -->
<g id="edge3" class="edge">
<title>Node4&#45;&gt;Node2</title>
<path fill="none" stroke="#9a32cd" stroke-dasharray="5,2" d="M237.09,-225.93C232.53,-189.92 222.83,-113.23 219.58,-87.57"/>
<polygon fill="#9a32cd" stroke="#9a32cd" points="233.64,-226.59 238.37,-236.08 240.59,-225.71 233.64,-226.59"/>
<text text-anchor="middle" x="260" y="-176.5" font-family="Helvetica,sans-Serif" font-size="10.00"> CANtxBuff</text>
</g>
<!-- Node5 -->
<g id="node5" class="node">
<title>Node5</title>
<g id="a_node5"><a xlink:href="structCO__CANmodule__t.html" target="_top" xlink:title="Complete CAN module object.">
<polygon fill="white" stroke="black" points="0,-169.5 0,-188.5 103,-188.5 103,-169.5 0,-169.5"/>
<text text-anchor="middle" x="51.5" y="-176.5" font-family="Helvetica,sans-Serif" font-size="10.00">CO_CANmodule_t</text>
</a>
</g>
</g>
<!-- Node4&#45;&gt;Node5 -->
<g id="edge5" class="edge">
<title>Node4&#45;&gt;Node5</title>
<path fill="none" stroke="#9a32cd" stroke-dasharray="5,2" d="M204.61,-232.94C167.31,-220.04 109.13,-199.92 76.27,-188.56"/>
<polygon fill="#9a32cd" stroke="#9a32cd" points="203.94,-236.41 214.54,-236.37 206.23,-229.79 203.94,-236.41"/>
<text text-anchor="middle" x="177.5" y="-210" font-family="Helvetica,sans-Serif" font-size="10.00"> txArray</text>
</g>
<!-- Node5&#45;&gt;Node1 -->
<g id="edge8" class="edge">
<title>Node5&#45;&gt;Node1</title>
<path fill="none" stroke="#9a32cd" stroke-dasharray="5,2" d="M51.39,-159.1C52.15,-143.87 55.22,-122.53 65.5,-107 82.99,-80.58 95.59,-79.96 124.5,-67 186.89,-39.03 265.66,-23.37 310.63,-16.1"/>
<polygon fill="#9a32cd" stroke="#9a32cd" points="47.88,-159.28 51.17,-169.35 54.88,-159.42 47.88,-159.28"/>
<text text-anchor="middle" x="152" y="-81" font-family="Helvetica,sans-Serif" font-size="10.00"> CANdevRx</text>
<text text-anchor="middle" x="152" y="-70" font-family="Helvetica,sans-Serif" font-size="10.00">CANdevTx</text>
</g>
<!-- Node5&#45;&gt;Node2 -->
<g id="edge4" class="edge">
<title>Node5&#45;&gt;Node2</title>
<path fill="none" stroke="#9a32cd" stroke-dasharray="5,2" d="M61.36,-159.97C71.2,-143.7 87.8,-120.32 108.5,-107 132.69,-91.43 165.07,-84.51 188.43,-81.44"/>
<polygon fill="#9a32cd" stroke="#9a32cd" points="58.1,-158.63 56.14,-169.04 64.17,-162.12 58.1,-158.63"/>
<text text-anchor="middle" x="136" y="-126.5" font-family="Helvetica,sans-Serif" font-size="10.00"> CANdevTx</text>
</g>
<!-- Node6 -->
<g id="node6" class="node">
<title>Node6</title>
<g id="a_node6"><a xlink:href="structCO__CANrx__t.html" target="_top" xlink:title="Configuration object for CAN received message for specific CANopenNode Object.">
<polygon fill="white" stroke="black" points="13.5,-236.5 13.5,-255.5 89.5,-255.5 89.5,-236.5 13.5,-236.5"/>
<text text-anchor="middle" x="51.5" y="-243.5" font-family="Helvetica,sans-Serif" font-size="10.00">CO_CANrx_t</text>
</a>
</g>
</g>
<!-- Node6&#45;&gt;Node5 -->
<g id="edge6" class="edge">
<title>Node6&#45;&gt;Node5</title>
<path fill="none" stroke="#9a32cd" stroke-dasharray="5,2" d="M51.5,-226.04C51.5,-213.67 51.5,-198.12 51.5,-188.63"/>
<polygon fill="#9a32cd" stroke="#9a32cd" points="48,-226.23 51.5,-236.23 55,-226.23 48,-226.23"/>
<text text-anchor="middle" x="71.5" y="-210" font-family="Helvetica,sans-Serif" font-size="10.00"> rxArray</text>
</g>
<!-- Node7 -->
<g id="node7" class="node">
<title>Node7</title>
<g id="a_node7"><a xlink:href="structOD__extension__t.html" target="_top" xlink:title="Extension of OD object, which can optionally be specified by application in initialization phase with...">
<polygon fill="white" stroke="black" points="338.5,-169.5 338.5,-188.5 432.5,-188.5 432.5,-169.5 338.5,-169.5"/>
<text text-anchor="middle" x="385.5" y="-176.5" font-family="Helvetica,sans-Serif" font-size="10.00">OD_extension_t</text>
</a>
</g>
</g>
<!-- Node7&#45;&gt;Node1 -->
<g id="edge10" class="edge">
<title>Node7&#45;&gt;Node1</title>
<path fill="none" stroke="#9a32cd" stroke-dasharray="5,2" d="M383.63,-159.06C382.02,-144.67 379.34,-124.46 375.5,-107 368.28,-74.18 355.46,-36.28 349.59,-19.62"/>
<polygon fill="#9a32cd" stroke="#9a32cd" points="380.17,-159.6 384.7,-169.18 387.13,-158.87 380.17,-159.6"/>
<text text-anchor="middle" x="422" y="-81" font-family="Helvetica,sans-Serif" font-size="10.00"> OD_1005_extension</text>
<text text-anchor="middle" x="422" y="-70" font-family="Helvetica,sans-Serif" font-size="10.00">OD_1019_extension</text>
</g>
<!-- Node7&#45;&gt;Node2 -->
<g id="edge7" class="edge">
<title>Node7&#45;&gt;Node2</title>
<path fill="none" stroke="#9a32cd" stroke-dasharray="5,2" d="M328.24,-171.53C297.86,-167.1 264.41,-160.34 252.5,-151 247.12,-146.78 229.72,-106.02 222.12,-87.76"/>
<polygon fill="#9a32cd" stroke="#9a32cd" points="328,-175.03 338.38,-172.94 328.96,-168.09 328,-175.03"/>
<text text-anchor="middle" x="314" y="-143" font-family="Helvetica,sans-Serif" font-size="10.00"> OD_1003_extension</text>
<text text-anchor="middle" x="314" y="-132" font-family="Helvetica,sans-Serif" font-size="10.00">OD_1014_extension</text>
<text text-anchor="middle" x="314" y="-121" font-family="Helvetica,sans-Serif" font-size="10.00">OD_1015_extension</text>
<text text-anchor="middle" x="314" y="-110" font-family="Helvetica,sans-Serif" font-size="10.00">OD_statusBits_extension</text>
</g>
</g>
</svg>
        <g id="navigator" transform="translate(0 0)" fill="#404254">
                <rect fill="#f2f5e9" fill-opacity="0.5" stroke="#606060" stroke-width=".5" x="0" y="0" width="60" height="60"/>
                <use id="zoomplus" xlink:href="#zoomPlus" x="17" y="9" onmousedown="handleZoom(evt,'in')"/>
                <use id="zoomminus" xlink:href="#zoomMin" x="42" y="9" onmousedown="handleZoom(evt,'out')"/>
                <use id="reset" xlink:href="#resetDef" x="30" y="36" onmousedown="handleReset()"/>
                <g id="arrowUp" xlink:href="#dirArrow" transform="translate(30 24)" onmousedown="handlePan(0,-1)">
                  <use xlink:href="#rim" fill="#404040">
                        <set attributeName="fill" to="#808080" begin="arrowUp.mouseover" end="arrowUp.mouseout"/>
                  </use>
                  <path fill="none" stroke="white" stroke-width="1.5" d="M0,-3.0v7 M-2.5,-0.5L0,-3.0L2.5,-0.5"/>
                </g>
                <g id="arrowRight" xlink:href="#dirArrow" transform="rotate(90) translate(36 -43)" onmousedown="handlePan(1,0)">
                  <use xlink:href="#rim" fill="#404040">
                        <set attributeName="fill" to="#808080" begin="arrowRight.mouseover" end="arrowRight.mouseout"/>
                  </use>
                  <path fill="none" stroke="white" stroke-width="1.5" d="M0,-3.0v7 M-2.5,-0.5L0,-3.0L2.5,-0.5"/>
                </g>
                <g id="arrowDown" xlink:href="#dirArrow" transform="rotate(180) translate(-30 -48)" onmousedown="handlePan(0,1)">
                  <use xlink:href="#rim" fill="#404040">
                        <set attributeName="fill" to="#808080" begin="arrowDown.mouseover" end="arrowDown.mouseout"/>
                  </use>
                  <path fill="none" stroke="white" stroke-width="1.5" d="M0,-3.0v7 M-2.5,-0.5L0,-3.0L2.5,-0.5"/>
                </g>
                <g id="arrowLeft" xlink:href="#dirArrow" transform="rotate(270) translate(-36 17)" onmousedown="handlePan(-1,0)">
                  <use xlink:href="#rim" fill="#404040">
                        <set attributeName="fill" to="#808080" begin="arrowLeft.mouseover" end="arrowLeft.mouseout"/>
                  </use>
                  <path fill="none" stroke="white" stroke-width="1.5" d="M0,-3.0v7 M-2.5,-0.5L0,-3.0L2.5,-0.5"/>
                </g>
        </g>
        <svg viewBox="0 0 15 15" width="100%" height="30px" preserveAspectRatio="xMaxYMin meet">
         <g id="arrow_out" transform="scale(0.3 0.3)">
          <a xlink:href="structCO__SYNC__t__coll__graph_org.svg" target="_base">
           <rect id="button" ry="5" rx="5" y="6" x="6" height="38" width="38"
                fill="#f2f5e9" fill-opacity="0.5" stroke="#606060" stroke-width="1.0"/>
           <path id="arrow"
             d="M 11.500037,31.436501 C 11.940474,20.09759 22.043105,11.32322 32.158766,21.979434 L 37.068811,17.246167 C 37.068811,17.246167 37.088388,32 37.088388,32 L 22.160133,31.978069 C 22.160133,31.978069 26.997745,27.140456 26.997745,27.140456 C 18.528582,18.264221 13.291696,25.230495 11.500037,31.436501 z"
             style="fill:#404040;"/>
          </a>
         </g>
        </svg>
</svg>
