<?xml version="1.0" encoding="UTF-8" standalone="no"?>
<!DOCTYPE svg PUBLIC "-//W3C//DTD SVG 1.1//EN"
 "http://www.w3.org/Graphics/SVG/1.1/DTD/svg11.dtd">
<!-- Generated by graphviz version 2.43.0 (0)
 -->
<!-- Title: CO_HBconsumer_t Pages: 1 -->
<svg width="562pt" height="262pt"
 viewBox="0.00 0.00 561.50 262.00" xmlns="http://www.w3.org/2000/svg" xmlns:xlink="http://www.w3.org/1999/xlink">
<g id="graph0" class="graph" transform="scale(1 1) rotate(0) translate(4 258)">
<title>CO_HBconsumer_t</title>
<polygon fill="white" stroke="transparent" points="-4,4 -4,-258 557.5,-258 557.5,4 -4,4"/>
<!-- Node1 -->
<g id="node1" class="node">
<title>Node1</title>
<g id="a_node1"><a xlink:title="Heartbeat consumer object.">
<polygon fill="#bfbfbf" stroke="black" points="230.5,-0.5 230.5,-19.5 337.5,-19.5 337.5,-0.5 230.5,-0.5"/>
<text text-anchor="middle" x="284" y="-7.5" font-family="Helvetica,sans-Serif" font-size="10.00">CO_HBconsumer_t</text>
</a>
</g>
</g>
<!-- Node2 -->
<g id="node2" class="node">
<title>Node2</title>
<g id="a_node2"><a xlink:href="structCO__EM__t.html" target="_top" xlink:title="Emergency object.">
<polygon fill="white" stroke="black" points="143,-67.5 143,-86.5 203,-86.5 203,-67.5 143,-67.5"/>
<text text-anchor="middle" x="173" y="-74.5" font-family="Helvetica,sans-Serif" font-size="10.00">CO_EM_t</text>
</a>
</g>
</g>
<!-- Node2&#45;&gt;Node1 -->
<g id="edge1" class="edge">
<title>Node2&#45;&gt;Node1</title>
<path fill="none" stroke="#9a32cd" stroke-dasharray="5,2" d="M196.71,-62.12C218.7,-49.24 250.74,-30.48 269.27,-19.63"/>
<polygon fill="#9a32cd" stroke="#9a32cd" points="194.83,-59.16 187.97,-67.23 198.37,-65.2 194.83,-59.16"/>
<text text-anchor="middle" x="245.5" y="-41" font-family="Helvetica,sans-Serif" font-size="10.00"> em</text>
</g>
<!-- Node3 -->
<g id="node3" class="node">
<title>Node3</title>
<g id="a_node3"><a xlink:href="structCO__CANtx__t.html" target="_top" xlink:title="Configuration object for CAN transmit message for specific CANopenNode Object.">
<polygon fill="white" stroke="black" points="106,-234.5 106,-253.5 182,-253.5 182,-234.5 106,-234.5"/>
<text text-anchor="middle" x="144" y="-241.5" font-family="Helvetica,sans-Serif" font-size="10.00">CO_CANtx_t</text>
</a>
</g>
</g>
<!-- Node3&#45;&gt;Node2 -->
<g id="edge2" class="edge">
<title>Node3&#45;&gt;Node2</title>
<path fill="none" stroke="#9a32cd" stroke-dasharray="5,2" d="M147.33,-224.04C153.62,-188.25 167.02,-112.03 171.5,-86.52"/>
<polygon fill="#9a32cd" stroke="#9a32cd" points="143.84,-223.67 145.56,-234.13 150.74,-224.89 143.84,-223.67"/>
<text text-anchor="middle" x="185.5" y="-174.5" font-family="Helvetica,sans-Serif" font-size="10.00"> CANtxBuff</text>
</g>
<!-- Node4 -->
<g id="node4" class="node">
<title>Node4</title>
<g id="a_node4"><a xlink:href="structCO__CANmodule__t.html" target="_top" xlink:title="Complete CAN module object.">
<polygon fill="white" stroke="black" points="8.5,-167.5 8.5,-186.5 111.5,-186.5 111.5,-167.5 8.5,-167.5"/>
<text text-anchor="middle" x="60" y="-174.5" font-family="Helvetica,sans-Serif" font-size="10.00">CO_CANmodule_t</text>
</a>
</g>
</g>
<!-- Node3&#45;&gt;Node4 -->
<g id="edge4" class="edge">
<title>Node3&#45;&gt;Node4</title>
<path fill="none" stroke="#9a32cd" stroke-dasharray="5,2" d="M120.57,-228.9C114.39,-224.92 107.83,-220.46 102,-216 89.82,-206.68 76.89,-194.6 68.64,-186.6"/>
<polygon fill="#9a32cd" stroke="#9a32cd" points="118.89,-231.97 129.22,-234.32 122.6,-226.04 118.89,-231.97"/>
<text text-anchor="middle" x="122" y="-208" font-family="Helvetica,sans-Serif" font-size="10.00"> txArray</text>
</g>
<!-- Node4&#45;&gt;Node1 -->
<g id="edge7" class="edge">
<title>Node4&#45;&gt;Node1</title>
<path fill="none" stroke="#9a32cd" stroke-dasharray="5,2" d="M57.24,-157.27C54.79,-132.8 54.73,-90.33 79,-67 119.56,-28 184.54,-15.6 230.46,-11.94"/>
<polygon fill="#9a32cd" stroke="#9a32cd" points="53.79,-157.9 58.49,-167.39 60.73,-157.04 53.79,-157.9"/>
<text text-anchor="middle" x="106.5" y="-74.5" font-family="Helvetica,sans-Serif" font-size="10.00"> CANdevRx</text>
</g>
<!-- Node4&#45;&gt;Node2 -->
<g id="edge3" class="edge">
<title>Node4&#45;&gt;Node2</title>
<path fill="none" stroke="#9a32cd" stroke-dasharray="5,2" d="M62.57,-156.95C65.69,-140.99 72.48,-118.68 87,-105 102.03,-90.83 124.43,-84.1 142.6,-80.9"/>
<polygon fill="#9a32cd" stroke="#9a32cd" points="59.05,-156.8 60.88,-167.23 65.96,-157.93 59.05,-156.8"/>
<text text-anchor="middle" x="114.5" y="-124.5" font-family="Helvetica,sans-Serif" font-size="10.00"> CANdevTx</text>
</g>
<!-- Node5 -->
<g id="node5" class="node">
<title>Node5</title>
<g id="a_node5"><a xlink:href="structCO__CANrx__t.html" target="_top" xlink:title="Configuration object for CAN received message for specific CANopenNode Object.">
<polygon fill="white" stroke="black" points="0,-234.5 0,-253.5 76,-253.5 76,-234.5 0,-234.5"/>
<text text-anchor="middle" x="38" y="-241.5" font-family="Helvetica,sans-Serif" font-size="10.00">CO_CANrx_t</text>
</a>
</g>
</g>
<!-- Node5&#45;&gt;Node4 -->
<g id="edge5" class="edge">
<title>Node5&#45;&gt;Node4</title>
<path fill="none" stroke="#9a32cd" stroke-dasharray="5,2" d="M36.18,-224.06C36.19,-217.84 36.86,-210.98 39,-205 41.48,-198.07 46.49,-191.52 50.99,-186.6"/>
<polygon fill="#9a32cd" stroke="#9a32cd" points="32.7,-224.46 36.72,-234.27 39.69,-224.1 32.7,-224.46"/>
<text text-anchor="middle" x="59" y="-208" font-family="Helvetica,sans-Serif" font-size="10.00"> rxArray</text>
</g>
<!-- Node6 -->
<g id="node6" class="node">
<title>Node6</title>
<g id="a_node6"><a xlink:href="structOD__extension__t.html" target="_top" xlink:title="Extension of OD object, which can optionally be specified by application in initialization phase with...">
<polygon fill="white" stroke="black" points="254,-167.5 254,-186.5 348,-186.5 348,-167.5 254,-167.5"/>
<text text-anchor="middle" x="301" y="-174.5" font-family="Helvetica,sans-Serif" font-size="10.00">OD_extension_t</text>
</a>
</g>
</g>
<!-- Node6&#45;&gt;Node1 -->
<g id="edge9" class="edge">
<title>Node6&#45;&gt;Node1</title>
<path fill="none" stroke="#9a32cd" stroke-dasharray="5,2" d="M310.21,-158.05C311.36,-155.09 312.36,-152.01 313,-149 317.06,-129.87 315.92,-124.34 313,-105 308.11,-72.58 294.24,-35.91 287.61,-19.61"/>
<polygon fill="#9a32cd" stroke="#9a32cd" points="306.95,-156.77 305.98,-167.32 313.31,-159.67 306.95,-156.77"/>
<text text-anchor="middle" x="360.5" y="-74.5" font-family="Helvetica,sans-Serif" font-size="10.00"> OD_1016_extension</text>
</g>
<!-- Node6&#45;&gt;Node2 -->
<g id="edge6" class="edge">
<title>Node6&#45;&gt;Node2</title>
<path fill="none" stroke="#9a32cd" stroke-dasharray="5,2" d="M243.94,-173.93C224.53,-170.43 204.19,-163.24 190,-149 173.18,-132.12 171.9,-101.74 172.4,-86.79"/>
<polygon fill="#9a32cd" stroke="#9a32cd" points="243.56,-177.41 253.97,-175.44 244.6,-170.49 243.56,-177.41"/>
<text text-anchor="middle" x="251.5" y="-141" font-family="Helvetica,sans-Serif" font-size="10.00"> OD_1003_extension</text>
<text text-anchor="middle" x="251.5" y="-130" font-family="Helvetica,sans-Serif" font-size="10.00">OD_statusBits_extension</text>
<text text-anchor="middle" x="251.5" y="-119" font-family="Helvetica,sans-Serif" font-size="10.00">OD_1014_extension</text>
<text text-anchor="middle" x="251.5" y="-108" font-family="Helvetica,sans-Serif" font-size="10.00">OD_1015_extension</text>
</g>
<!-- Node7 -->
<g id="node7" class="node">
<title>Node7</title>
<g id="a_node7"><a xlink:href="structCO__HBconsNode__t.html" target="_top" xlink:title="One monitored node inside CO_HBconsumer_t.">
<polygon fill="white" stroke="black" points="446.5,-67.5 446.5,-86.5 553.5,-86.5 553.5,-67.5 446.5,-67.5"/>
<text text-anchor="middle" x="500" y="-74.5" font-family="Helvetica,sans-Serif" font-size="10.00">CO_HBconsNode_t</text>
</a>
</g>
</g>
<!-- Node7&#45;&gt;Node1 -->
<g id="edge8" class="edge">
<title>Node7&#45;&gt;Node1</title>
<path fill="none" stroke="#9a32cd" stroke-dasharray="5,2" d="M461.55,-64.43C418.78,-51.56 350.69,-31.07 312.46,-19.56"/>
<polygon fill="#9a32cd" stroke="#9a32cd" points="460.73,-67.84 471.32,-67.37 462.75,-61.14 460.73,-67.84"/>
<text text-anchor="middle" x="446.5" y="-41" font-family="Helvetica,sans-Serif" font-size="10.00"> monitoredNodes</text>
</g>
</g>
</svg>
