<?xml version="1.0" encoding="UTF-8" standalone="no"?>
<!DOCTYPE svg PUBLIC "-//W3C//DTD SVG 1.1//EN"
 "http://www.w3.org/Graphics/SVG/1.1/DTD/svg11.dtd">
<!-- Generated by graphviz version 2.43.0 (0)
 -->
<!-- Title: CO_HBconsumer_t Pages: 1 -->
<svg width="611pt" height="258pt"
 viewBox="0.00 0.00 610.50 258.00" xmlns="http://www.w3.org/2000/svg" xmlns:xlink="http://www.w3.org/1999/xlink">
<g id="graph0" class="graph" transform="scale(1 1) rotate(0) translate(4 254)">
<title>CO_HBconsumer_t</title>
<!-- Node1 -->
<g id="Node000001" class="node">
<title>Node1</title>
<g id="a_Node000001"><a xlink:title="Heartbeat consumer object.">
<polygon fill="#999999" stroke="#666666" points="383.5,-19 276.5,-19 276.5,0 383.5,0 383.5,-19"/>
<text text-anchor="middle" x="330" y="-7" font-family="Helvetica,sans-Serif" font-size="10.00">CO_HBconsumer_t</text>
</a>
</g>
</g>
<!-- Node2 -->
<g id="Node000002" class="node">
<title>Node2</title>
<g id="a_Node000002"><a xlink:href="structCO__EM__t.html" target="_top" xlink:title="Emergency object.">
<polygon fill="white" stroke="#666666" points="225,-85 165,-85 165,-66 225,-66 225,-85"/>
<text text-anchor="middle" x="195" y="-73" font-family="Helvetica,sans-Serif" font-size="10.00">CO_EM_t</text>
</a>
</g>
</g>
<!-- Node2&#45;&gt;Node1 -->
<g id="edge1_Node000001_Node000002" class="edge">
<title>Node2&#45;&gt;Node1</title>
<g id="a_edge1_Node000001_Node000002"><a xlink:title=" ">
<path fill="none" stroke="#9a32cd" stroke-dasharray="5,2" d="M222.36,-61.53C248.97,-48.92 288.63,-30.11 311.65,-19.2"/>
<polygon fill="#9a32cd" stroke="#9a32cd" points="220.74,-58.42 213.21,-65.87 223.74,-64.75 220.74,-58.42"/>
</a>
</g>
<text text-anchor="middle" x="280.5" y="-40" font-family="Helvetica,sans-Serif" font-size="10.00" fill="grey"> em</text>
</g>
<!-- Node3 -->
<g id="Node000003" class="node">
<title>Node3</title>
<g id="a_Node000003"><a xlink:href="structCO__CANmodule__t.html" target="_top" xlink:title="Complete CAN module object.">
<polygon fill="white" stroke="#666666" points="111.5,-184 8.5,-184 8.5,-165 111.5,-165 111.5,-184"/>
<text text-anchor="middle" x="60" y="-172" font-family="Helvetica,sans-Serif" font-size="10.00">CO_CANmodule_t</text>
</a>
</g>
</g>
<!-- Node3&#45;&gt;Node1 -->
<g id="edge9_Node000001_Node000003" class="edge">
<title>Node3&#45;&gt;Node1</title>
<g id="a_edge9_Node000001_Node000003"><a xlink:title=" ">
<path fill="none" stroke="#9a32cd" stroke-dasharray="5,2" d="M58.7,-154.47C58.43,-139.79 59.7,-119.3 67,-103 76.13,-82.62 81.76,-77.34 101,-66 155.45,-33.9 227.58,-20.33 276.23,-14.62"/>
<polygon fill="#9a32cd" stroke="#9a32cd" points="55.22,-154.97 59.15,-164.81 62.21,-154.66 55.22,-154.97"/>
</a>
</g>
<text text-anchor="middle" x="128.5" y="-73" font-family="Helvetica,sans-Serif" font-size="10.00" fill="grey"> CANdevRx</text>
</g>
<!-- Node3&#45;&gt;Node2 -->
<g id="edge2_Node000002_Node000003" class="edge">
<title>Node3&#45;&gt;Node2</title>
<g id="a_edge2_Node000002_Node000003"><a xlink:title=" ">
<path fill="none" stroke="#9a32cd" stroke-dasharray="5,2" d="M64.93,-155.15C70.23,-136.72 78.99,-110.07 87,-103 108.43,-84.1 141.18,-78.19 164.99,-76.58"/>
<polygon fill="#9a32cd" stroke="#9a32cd" points="61.54,-154.27 62.24,-164.84 68.29,-156.14 61.54,-154.27"/>
</a>
</g>
<text text-anchor="middle" x="114.5" y="-122.5" font-family="Helvetica,sans-Serif" font-size="10.00" fill="grey"> CANdevTx</text>
</g>
<!-- Node4 -->
<g id="Node000004" class="node">
<title>Node4</title>
<g id="a_Node000004"><a xlink:href="structCO__CANrx__t.html" target="_top" xlink:title="Configuration object for CAN received message for specific CANopenNode Object.">
<polygon fill="white" stroke="#666666" points="76,-250 0,-250 0,-231 76,-231 76,-250"/>
<text text-anchor="middle" x="38" y="-238" font-family="Helvetica,sans-Serif" font-size="10.00">CO_CANrx_t</text>
</a>
</g>
</g>
<!-- Node4&#45;&gt;Node3 -->
<g id="edge3_Node000003_Node000004" class="edge">
<title>Node4&#45;&gt;Node3</title>
<g id="a_edge3_Node000003_Node000004"><a xlink:title=" ">
<path fill="none" stroke="#9a32cd" stroke-dasharray="5,2" d="M36.18,-220.8C36.19,-214.65 36.86,-207.89 39,-202 41.4,-195.38 46.17,-189.14 50.55,-184.38"/>
<polygon fill="#9a32cd" stroke="#9a32cd" points="32.69,-221.07 36.72,-230.87 39.68,-220.7 32.69,-221.07"/>
</a>
</g>
<text text-anchor="middle" x="59" y="-205" font-family="Helvetica,sans-Serif" font-size="10.00" fill="grey"> rxArray</text>
</g>
<!-- Node5 -->
<g id="Node000005" class="node">
<title>Node5</title>
<g id="a_Node000005"><a xlink:href="structCO__CANtx__t.html" target="_top" xlink:title="Configuration object for CAN transmit message for specific CANopenNode Object.">
<polygon fill="white" stroke="#666666" points="182,-250 106,-250 106,-231 182,-231 182,-250"/>
<text text-anchor="middle" x="144" y="-238" font-family="Helvetica,sans-Serif" font-size="10.00">CO_CANtx_t</text>
</a>
</g>
</g>
<!-- Node5&#45;&gt;Node2 -->
<g id="edge6_Node000002_Node000005" class="edge">
<title>Node5&#45;&gt;Node2</title>
<g id="a_edge6_Node000002_Node000005"><a xlink:title=" ">
<path fill="none" stroke="#9a32cd" stroke-dasharray="5,2" d="M148.67,-220.95C155.52,-194.48 169.08,-144.48 184,-103 186.16,-97 188.91,-90.38 191.12,-85.25"/>
<polygon fill="#9a32cd" stroke="#9a32cd" points="145.25,-220.2 146.17,-230.76 152.03,-221.94 145.25,-220.2"/>
</a>
</g>
<text text-anchor="middle" x="191.5" y="-172" font-family="Helvetica,sans-Serif" font-size="10.00" fill="grey"> CANtxBuff</text>
</g>
<!-- Node5&#45;&gt;Node3 -->
<g id="edge4_Node000003_Node000005" class="edge">
<title>Node5&#45;&gt;Node3</title>
<g id="a_edge4_Node000003_Node000005"><a xlink:title=" ">
<path fill="none" stroke="#9a32cd" stroke-dasharray="5,2" d="M120.57,-225.68C114.4,-221.78 107.83,-217.39 102,-213 89.98,-203.94 77.22,-192.21 68.96,-184.3"/>
<polygon fill="#9a32cd" stroke="#9a32cd" points="118.87,-228.74 129.22,-231 122.53,-222.78 118.87,-228.74"/>
</a>
</g>
<text text-anchor="middle" x="122" y="-205" font-family="Helvetica,sans-Serif" font-size="10.00" fill="grey"> txArray</text>
</g>
<!-- Node6 -->
<g id="Node000006" class="node">
<title>Node6</title>
<g id="a_Node000006"><a xlink:href="structCO__EM__fifo__t.html" target="_top" xlink:title="Fifo buffer for emergency producer and error history.">
<polygon fill="white" stroke="#666666" points="311,-184 229,-184 229,-165 311,-165 311,-184"/>
<text text-anchor="middle" x="270" y="-172" font-family="Helvetica,sans-Serif" font-size="10.00">CO_EM_fifo_t</text>
</a>
</g>
</g>
<!-- Node6&#45;&gt;Node2 -->
<g id="edge5_Node000002_Node000006" class="edge">
<title>Node6&#45;&gt;Node2</title>
<g id="a_edge5_Node000002_Node000006"><a xlink:title=" ">
<path fill="none" stroke="#9a32cd" stroke-dasharray="5,2" d="M219.12,-164.5C210.06,-160.59 201.71,-154.99 196,-147 182.76,-128.48 188.23,-99.65 192.21,-85.28"/>
<polygon fill="#9a32cd" stroke="#9a32cd" points="218.13,-167.86 228.73,-167.99 220.53,-161.28 218.13,-167.86"/>
</a>
</g>
<text text-anchor="middle" x="206" y="-122.5" font-family="Helvetica,sans-Serif" font-size="10.00" fill="grey"> fifo</text>
</g>
<!-- Node7 -->
<g id="Node000007" class="node">
<title>Node7</title>
<g id="a_Node000007"><a xlink:href="structOD__extension__t.html" target="_top" xlink:title="Extension of OD object, which can optionally be specified by application in initialization phase with...">
<polygon fill="white" stroke="#666666" points="423,-184 329,-184 329,-165 423,-165 423,-184"/>
<text text-anchor="middle" x="376" y="-172" font-family="Helvetica,sans-Serif" font-size="10.00">OD_extension_t</text>
</a>
</g>
</g>
<!-- Node7&#45;&gt;Node1 -->
<g id="edge10_Node000001_Node000007" class="edge">
<title>Node7&#45;&gt;Node1</title>
<g id="a_edge10_Node000001_Node000007"><a xlink:title=" ">
<path fill="none" stroke="#9a32cd" stroke-dasharray="5,2" d="M372.98,-154.67C370.52,-140.37 366.69,-120.3 362,-103 353.47,-71.51 339.73,-35.22 333.4,-19.05"/>
<polygon fill="#9a32cd" stroke="#9a32cd" points="369.56,-155.44 374.66,-164.73 376.47,-154.29 369.56,-155.44"/>
</a>
</g>
<text text-anchor="middle" x="407.5" y="-73" font-family="Helvetica,sans-Serif" font-size="10.00" fill="grey"> OD_1016_extension</text>
</g>
<!-- Node7&#45;&gt;Node2 -->
<g id="edge7_Node000002_Node000007" class="edge">
<title>Node7&#45;&gt;Node2</title>
<g id="a_edge7_Node000002_Node000007"><a xlink:title=" ">
<path fill="none" stroke="#9a32cd" stroke-dasharray="5,2" d="M318.73,-163.58C282.7,-157.15 242.39,-149.52 239,-147 221.3,-133.82 228.02,-121.51 216,-103 211.91,-96.7 206.66,-90.07 202.43,-85.02"/>
<polygon fill="#9a32cd" stroke="#9a32cd" points="318.29,-167.06 328.74,-165.36 319.51,-160.17 318.29,-167.06"/>
</a>
</g>
<text text-anchor="middle" x="300.5" y="-139" font-family="Helvetica,sans-Serif" font-size="10.00" fill="grey"> OD_1003_extension</text>
<text text-anchor="middle" x="300.5" y="-128" font-family="Helvetica,sans-Serif" font-size="10.00" fill="grey">OD_1014_extension</text>
<text text-anchor="middle" x="300.5" y="-117" font-family="Helvetica,sans-Serif" font-size="10.00" fill="grey">OD_1015_extension</text>
<text text-anchor="middle" x="300.5" y="-106" font-family="Helvetica,sans-Serif" font-size="10.00" fill="grey">OD_statusBits_extension</text>
</g>
<!-- Node8 -->
<g id="Node000008" class="node">
<title>Node8</title>
<g id="a_Node000008"><a xlink:href="structCO__HBconsNode__t.html" target="_top" xlink:title="One monitored node inside CO_HBconsumer_t.">
<polygon fill="white" stroke="#666666" points="602.5,-85 495.5,-85 495.5,-66 602.5,-66 602.5,-85"/>
<text text-anchor="middle" x="549" y="-73" font-family="Helvetica,sans-Serif" font-size="10.00">CO_HBconsNode_t</text>
</a>
</g>
</g>
<!-- Node8&#45;&gt;Node1 -->
<g id="edge8_Node000001_Node000008" class="edge">
<title>Node8&#45;&gt;Node1</title>
<g id="a_edge8_Node000001_Node000008"><a xlink:title=" ">
<path fill="none" stroke="#9a32cd" stroke-dasharray="5,2" d="M509.87,-63.06C466.7,-50.45 398.24,-30.44 359.42,-19.1"/>
<polygon fill="#9a32cd" stroke="#9a32cd" points="508.88,-66.42 519.46,-65.87 510.85,-59.7 508.88,-66.42"/>
</a>
</g>
<text text-anchor="middle" x="494.5" y="-40" font-family="Helvetica,sans-Serif" font-size="10.00" fill="grey"> monitoredNodes</text>
</g>
</g>
</svg>
