<?xml version="1.0" encoding="UTF-8" standalone="no"?>
<!DOCTYPE svg PUBLIC "-//W3C//DTD SVG 1.1//EN"
 "http://www.w3.org/Graphics/SVG/1.1/DTD/svg11.dtd">
<!-- Generated by graphviz version 2.43.0 (0)
 -->
<!-- Title: CO_NMT_t Pages: 1 -->
<svg width="559pt" height="264pt"
 viewBox="0.00 0.00 558.50 264.00" xmlns="http://www.w3.org/2000/svg" xmlns:xlink="http://www.w3.org/1999/xlink">
<g id="graph0" class="graph" transform="scale(1 1) rotate(0) translate(4 260)">
<title>CO_NMT_t</title>
<polygon fill="white" stroke="transparent" points="-4,4 -4,-260 554.5,-260 554.5,4 -4,4"/>
<!-- Node1 -->
<g id="node1" class="node">
<title>Node1</title>
<g id="a_node1"><a xlink:title="NMT consumer and Heartbeat producer object.">
<polygon fill="#bfbfbf" stroke="black" points="312.5,-0.5 312.5,-19.5 380.5,-19.5 380.5,-0.5 312.5,-0.5"/>
<text text-anchor="middle" x="346.5" y="-7.5" font-family="Helvetica,sans-Serif" font-size="10.00">CO_NMT_t</text>
</a>
</g>
</g>
<!-- Node2 -->
<g id="node2" class="node">
<title>Node2</title>
<g id="a_node2"><a xlink:href="structCO__EM__t.html" target="_top" xlink:title="Emergency object.">
<polygon fill="white" stroke="black" points="188.5,-68.5 188.5,-87.5 248.5,-87.5 248.5,-68.5 188.5,-68.5"/>
<text text-anchor="middle" x="218.5" y="-75.5" font-family="Helvetica,sans-Serif" font-size="10.00">CO_EM_t</text>
</a>
</g>
</g>
<!-- Node2&#45;&gt;Node1 -->
<g id="edge1" class="edge">
<title>Node2&#45;&gt;Node1</title>
<path fill="none" stroke="#9a32cd" stroke-dasharray="5,2" d="M244.32,-63.69C269.8,-50.55 308.01,-30.85 329.76,-19.63"/>
<polygon fill="#9a32cd" stroke="#9a32cd" points="242.52,-60.68 235.23,-68.37 245.73,-66.9 242.52,-60.68"/>
<text text-anchor="middle" x="304" y="-41" font-family="Helvetica,sans-Serif" font-size="10.00"> em</text>
</g>
<!-- Node3 -->
<g id="node3" class="node">
<title>Node3</title>
<g id="a_node3"><a xlink:href="structCO__EM__fifo__t.html" target="_top" xlink:title="Fifo buffer for emergency producer and error history.">
<polygon fill="white" stroke="black" points="121.5,-169.5 121.5,-188.5 203.5,-188.5 203.5,-169.5 121.5,-169.5"/>
<text text-anchor="middle" x="162.5" y="-176.5" font-family="Helvetica,sans-Serif" font-size="10.00">CO_EM_fifo_t</text>
</a>
</g>
</g>
<!-- Node3&#45;&gt;Node2 -->
<g id="edge2" class="edge">
<title>Node3&#45;&gt;Node2</title>
<path fill="none" stroke="#9a32cd" stroke-dasharray="5,2" d="M165.25,-159.29C168.15,-144.17 173.84,-122.88 184.5,-107 189.7,-99.25 197.66,-92.53 204.58,-87.62"/>
<polygon fill="#9a32cd" stroke="#9a32cd" points="161.74,-159.01 163.53,-169.45 168.65,-160.17 161.74,-159.01"/>
<text text-anchor="middle" x="194.5" y="-126.5" font-family="Helvetica,sans-Serif" font-size="10.00"> fifo</text>
</g>
<!-- Node4 -->
<g id="node4" class="node">
<title>Node4</title>
<g id="a_node4"><a xlink:href="structCO__CANtx__t.html" target="_top" xlink:title="Configuration object for CAN transmit message for specific CANopenNode Object.">
<polygon fill="white" stroke="black" points="201.5,-236.5 201.5,-255.5 277.5,-255.5 277.5,-236.5 201.5,-236.5"/>
<text text-anchor="middle" x="239.5" y="-243.5" font-family="Helvetica,sans-Serif" font-size="10.00">CO_CANtx_t</text>
</a>
</g>
</g>
<!-- Node4&#45;&gt;Node1 -->
<g id="edge8" class="edge">
<title>Node4&#45;&gt;Node1</title>
<path fill="none" stroke="#9a32cd" stroke-dasharray="5,2" d="M287.83,-243.89C333.05,-240.3 399.72,-228.1 441.5,-189 482.69,-150.46 507.51,-114.12 476.5,-67 455.36,-34.87 411.48,-21.1 380.57,-15.24"/>
<polygon fill="#9a32cd" stroke="#9a32cd" points="287.42,-240.41 277.68,-244.58 287.89,-247.39 287.42,-240.41"/>
<text text-anchor="middle" x="520" y="-132" font-family="Helvetica,sans-Serif" font-size="10.00"> HB_TXbuff</text>
<text text-anchor="middle" x="520" y="-121" font-family="Helvetica,sans-Serif" font-size="10.00">NMT_TXbuff</text>
</g>
<!-- Node4&#45;&gt;Node2 -->
<g id="edge3" class="edge">
<title>Node4&#45;&gt;Node2</title>
<path fill="none" stroke="#9a32cd" stroke-dasharray="5,2" d="M237.09,-225.93C232.53,-189.92 222.83,-113.23 219.58,-87.57"/>
<polygon fill="#9a32cd" stroke="#9a32cd" points="233.64,-226.59 238.37,-236.08 240.59,-225.71 233.64,-226.59"/>
<text text-anchor="middle" x="260" y="-176.5" font-family="Helvetica,sans-Serif" font-size="10.00"> CANtxBuff</text>
</g>
<!-- Node5 -->
<g id="node5" class="node">
<title>Node5</title>
<g id="a_node5"><a xlink:href="structCO__CANmodule__t.html" target="_top" xlink:title="Complete CAN module object.">
<polygon fill="white" stroke="black" points="0,-169.5 0,-188.5 103,-188.5 103,-169.5 0,-169.5"/>
<text text-anchor="middle" x="51.5" y="-176.5" font-family="Helvetica,sans-Serif" font-size="10.00">CO_CANmodule_t</text>
</a>
</g>
</g>
<!-- Node4&#45;&gt;Node5 -->
<g id="edge5" class="edge">
<title>Node4&#45;&gt;Node5</title>
<path fill="none" stroke="#9a32cd" stroke-dasharray="5,2" d="M204.61,-232.94C167.31,-220.04 109.13,-199.92 76.27,-188.56"/>
<polygon fill="#9a32cd" stroke="#9a32cd" points="203.94,-236.41 214.54,-236.37 206.23,-229.79 203.94,-236.41"/>
<text text-anchor="middle" x="177.5" y="-210" font-family="Helvetica,sans-Serif" font-size="10.00"> txArray</text>
</g>
<!-- Node5&#45;&gt;Node1 -->
<g id="edge9" class="edge">
<title>Node5&#45;&gt;Node1</title>
<path fill="none" stroke="#9a32cd" stroke-dasharray="5,2" d="M52.53,-159.25C53.96,-144.42 57.38,-123.53 65.5,-107 75.92,-85.8 80.21,-79.1 100.5,-67 168.21,-26.61 262.32,-15.33 312.23,-12.2"/>
<polygon fill="#9a32cd" stroke="#9a32cd" points="49.04,-159 51.78,-169.23 56.02,-159.53 49.04,-159"/>
<text text-anchor="middle" x="140" y="-81" font-family="Helvetica,sans-Serif" font-size="10.00"> HB_CANdevTx</text>
<text text-anchor="middle" x="140" y="-70" font-family="Helvetica,sans-Serif" font-size="10.00">NMT_CANdevTx</text>
</g>
<!-- Node5&#45;&gt;Node2 -->
<g id="edge4" class="edge">
<title>Node5&#45;&gt;Node2</title>
<path fill="none" stroke="#9a32cd" stroke-dasharray="5,2" d="M61.36,-159.97C71.2,-143.7 87.8,-120.32 108.5,-107 132.69,-91.43 165.07,-84.51 188.43,-81.44"/>
<polygon fill="#9a32cd" stroke="#9a32cd" points="58.1,-158.63 56.14,-169.04 64.17,-162.12 58.1,-158.63"/>
<text text-anchor="middle" x="136" y="-126.5" font-family="Helvetica,sans-Serif" font-size="10.00"> CANdevTx</text>
</g>
<!-- Node6 -->
<g id="node6" class="node">
<title>Node6</title>
<g id="a_node6"><a xlink:href="structCO__CANrx__t.html" target="_top" xlink:title="Configuration object for CAN received message for specific CANopenNode Object.">
<polygon fill="white" stroke="black" points="13.5,-236.5 13.5,-255.5 89.5,-255.5 89.5,-236.5 13.5,-236.5"/>
<text text-anchor="middle" x="51.5" y="-243.5" font-family="Helvetica,sans-Serif" font-size="10.00">CO_CANrx_t</text>
</a>
</g>
</g>
<!-- Node6&#45;&gt;Node5 -->
<g id="edge6" class="edge">
<title>Node6&#45;&gt;Node5</title>
<path fill="none" stroke="#9a32cd" stroke-dasharray="5,2" d="M51.5,-226.04C51.5,-213.67 51.5,-198.12 51.5,-188.63"/>
<polygon fill="#9a32cd" stroke="#9a32cd" points="48,-226.23 51.5,-236.23 55,-226.23 48,-226.23"/>
<text text-anchor="middle" x="71.5" y="-210" font-family="Helvetica,sans-Serif" font-size="10.00"> rxArray</text>
</g>
<!-- Node7 -->
<g id="node7" class="node">
<title>Node7</title>
<g id="a_node7"><a xlink:href="structOD__extension__t.html" target="_top" xlink:title="Extension of OD object, which can optionally be specified by application in initialization phase with...">
<polygon fill="white" stroke="black" points="338.5,-169.5 338.5,-188.5 432.5,-188.5 432.5,-169.5 338.5,-169.5"/>
<text text-anchor="middle" x="385.5" y="-176.5" font-family="Helvetica,sans-Serif" font-size="10.00">OD_extension_t</text>
</a>
</g>
</g>
<!-- Node7&#45;&gt;Node1 -->
<g id="edge10" class="edge">
<title>Node7&#45;&gt;Node1</title>
<path fill="none" stroke="#9a32cd" stroke-dasharray="5,2" d="M383.63,-159.06C382.02,-144.67 379.34,-124.46 375.5,-107 368.28,-74.18 355.46,-36.28 349.59,-19.62"/>
<polygon fill="#9a32cd" stroke="#9a32cd" points="380.17,-159.6 384.7,-169.18 387.13,-158.87 380.17,-159.6"/>
<text text-anchor="middle" x="422" y="-75.5" font-family="Helvetica,sans-Serif" font-size="10.00"> OD_1017_extension</text>
</g>
<!-- Node7&#45;&gt;Node2 -->
<g id="edge7" class="edge">
<title>Node7&#45;&gt;Node2</title>
<path fill="none" stroke="#9a32cd" stroke-dasharray="5,2" d="M328.24,-171.53C297.86,-167.1 264.41,-160.34 252.5,-151 247.12,-146.78 229.72,-106.02 222.12,-87.76"/>
<polygon fill="#9a32cd" stroke="#9a32cd" points="328,-175.03 338.38,-172.94 328.96,-168.09 328,-175.03"/>
<text text-anchor="middle" x="314" y="-143" font-family="Helvetica,sans-Serif" font-size="10.00"> OD_1003_extension</text>
<text text-anchor="middle" x="314" y="-132" font-family="Helvetica,sans-Serif" font-size="10.00">OD_1014_extension</text>
<text text-anchor="middle" x="314" y="-121" font-family="Helvetica,sans-Serif" font-size="10.00">OD_1015_extension</text>
<text text-anchor="middle" x="314" y="-110" font-family="Helvetica,sans-Serif" font-size="10.00">OD_statusBits_extension</text>
</g>
</g>
</svg>
