<?xml version="1.0" encoding="UTF-8" standalone="no"?>
<!DOCTYPE svg PUBLIC "-//W3C//DTD SVG 1.1//EN"
 "http://www.w3.org/Graphics/SVG/1.1/DTD/svg11.dtd">
<!-- Generated by graphviz version 2.43.0 (0)
 -->
<!-- Title: CO_SRDO_t Pages: 1 -->
<svg width="996pt" height="297pt"
 viewBox="0.00 0.00 996.00 297.00" xmlns="http://www.w3.org/2000/svg" xmlns:xlink="http://www.w3.org/1999/xlink">
<g id="graph0" class="graph" transform="scale(1 1) rotate(0) translate(4 293)">
<title>CO_SRDO_t</title>
<!-- Node1 -->
<g id="Node000001" class="node">
<title>Node1</title>
<g id="a_Node000001"><a xlink:title="SRDO object.">
<polygon fill="#999999" stroke="#666666" points="558.5,-19 485.5,-19 485.5,0 558.5,0 558.5,-19"/>
<text text-anchor="middle" x="522" y="-7" font-family="Helvetica,sans-Serif" font-size="10.00">CO_SRDO_t</text>
</a>
</g>
</g>
<!-- Node2 -->
<g id="Node000002" class="node">
<title>Node2</title>
<g id="a_Node000002"><a xlink:href="structCO__SRDOGuard__t.html" target="_top" xlink:title="Guard Object for SRDO.">
<polygon fill="white" stroke="#666666" points="264,-92 162,-92 162,-73 264,-73 264,-92"/>
<text text-anchor="middle" x="213" y="-80" font-family="Helvetica,sans-Serif" font-size="10.00">CO_SRDOGuard_t</text>
</a>
</g>
</g>
<!-- Node2&#45;&gt;Node1 -->
<g id="edge1_Node000001_Node000002" class="edge">
<title>Node2&#45;&gt;Node1</title>
<g id="a_edge1_Node000001_Node000002"><a xlink:title=" ">
<path fill="none" stroke="#9a32cd" stroke-dasharray="5,2" d="M221.33,-64.02C226.9,-54.35 235.2,-43.1 246,-37 286.03,-14.39 419.96,-10.77 485.4,-10.38"/>
<polygon fill="#9a32cd" stroke="#9a32cd" points="218.22,-62.42 216.67,-72.9 224.42,-65.67 218.22,-62.42"/>
</a>
</g>
<text text-anchor="middle" x="276.5" y="-40" font-family="Helvetica,sans-Serif" font-size="10.00" fill="grey"> SRDOGuard</text>
</g>
<!-- Node3 -->
<g id="Node000003" class="node">
<title>Node3</title>
<g id="a_Node000003"><a xlink:href="structOD__IO__t.html" target="_top" xlink:title="Structure for input / output on the OD variable.">
<polygon fill="white" stroke="#666666" points="68,-210.5 12,-210.5 12,-191.5 68,-191.5 68,-210.5"/>
<text text-anchor="middle" x="40" y="-198.5" font-family="Helvetica,sans-Serif" font-size="10.00">OD_IO_t</text>
</a>
</g>
</g>
<!-- Node3&#45;&gt;Node1 -->
<g id="edge17_Node000001_Node000003" class="edge">
<title>Node3&#45;&gt;Node1</title>
<g id="a_edge17_Node000001_Node000003"><a xlink:title=" ">
<path fill="none" stroke="#9a32cd" stroke-dasharray="5,2" d="M34.17,-181.64C29.68,-163.92 25.92,-136.94 37,-117 57.85,-79.48 79.57,-82.95 119,-66 165.84,-45.86 179.77,-45.78 230,-37 321.01,-21.09 429.75,-14.42 485.33,-11.89"/>
<polygon fill="#9a32cd" stroke="#9a32cd" points="30.82,-182.66 36.93,-191.32 37.55,-180.74 30.82,-182.66"/>
</a>
</g>
<text text-anchor="middle" x="136" y="-80" font-family="Helvetica,sans-Serif" font-size="10.00" fill="grey"> OD_IO</text>
</g>
<!-- Node3&#45;&gt;Node2 -->
<g id="edge2_Node000002_Node000003" class="edge">
<title>Node3&#45;&gt;Node2</title>
<g id="a_edge2_Node000002_Node000003"><a xlink:title=" ">
<path fill="none" stroke="#9a32cd" stroke-dasharray="5,2" d="M38.4,-181.29C37.89,-162.46 40.29,-133.87 57,-117 71.52,-102.34 121.99,-93.4 161.63,-88.48"/>
<polygon fill="#9a32cd" stroke="#9a32cd" points="34.91,-181.54 38.97,-191.32 41.9,-181.14 34.91,-181.54"/>
</a>
</g>
<text text-anchor="middle" x="121.5" y="-136.5" font-family="Helvetica,sans-Serif" font-size="10.00" fill="grey"> OD_IO_configurationValid</text>
</g>
<!-- Node4 -->
<g id="Node000004" class="node">
<title>Node4</title>
<g id="a_Node000004"><a xlink:href="structOD__stream__t.html" target="_top" xlink:title="IO stream structure, used for read/write access to OD variable, part of OD_IO_t.">
<polygon fill="white" stroke="#666666" points="80,-289 0,-289 0,-270 80,-270 80,-289"/>
<text text-anchor="middle" x="40" y="-277" font-family="Helvetica,sans-Serif" font-size="10.00">OD_stream_t</text>
</a>
</g>
</g>
<!-- Node4&#45;&gt;Node3 -->
<g id="edge3_Node000003_Node000004" class="edge">
<title>Node4&#45;&gt;Node3</title>
<g id="a_edge3_Node000003_Node000004"><a xlink:title=" ">
<path fill="none" stroke="#9a32cd" stroke-dasharray="5,2" d="M40,-259.6C40,-243.97 40,-222.49 40,-210.67"/>
<polygon fill="#9a32cd" stroke="#9a32cd" points="36.5,-259.72 40,-269.72 43.5,-259.72 36.5,-259.72"/>
</a>
</g>
<text text-anchor="middle" x="59" y="-244" font-family="Helvetica,sans-Serif" font-size="10.00" fill="grey"> stream</text>
</g>
<!-- Node5 -->
<g id="Node000005" class="node">
<title>Node5</title>
<g id="a_Node000005"><a xlink:href="structOD__entry__t.html" target="_top" xlink:title="Object Dictionary entry for one OD object.">
<polygon fill="white" stroke="#666666" points="390.5,-210.5 319.5,-210.5 319.5,-191.5 390.5,-191.5 390.5,-210.5"/>
<text text-anchor="middle" x="355" y="-198.5" font-family="Helvetica,sans-Serif" font-size="10.00">OD_entry_t</text>
</a>
</g>
</g>
<!-- Node5&#45;&gt;Node1 -->
<g id="edge19_Node000001_Node000005" class="edge">
<title>Node5&#45;&gt;Node1</title>
<g id="a_edge19_Node000001_Node000005"><a xlink:title=" ">
<path fill="none" stroke="#9a32cd" stroke-dasharray="5,2" d="M344.06,-182.58C328.29,-155.01 303.78,-100.87 330,-66 348.66,-41.18 435.1,-23.93 485.4,-15.81"/>
<polygon fill="#9a32cd" stroke="#9a32cd" points="341.23,-184.67 349.37,-191.45 347.24,-181.08 341.23,-184.67"/>
</a>
</g>
<text text-anchor="start" x="330" y="-91" font-family="Helvetica,sans-Serif" font-size="10.00" fill="grey"> OD_communicationParam</text>
<text text-anchor="middle" x="395.5" y="-80" font-family="Helvetica,sans-Serif" font-size="10.00" fill="grey">_entry</text>
<text text-anchor="middle" x="395.5" y="-69" font-family="Helvetica,sans-Serif" font-size="10.00" fill="grey">OD_mappingParam_entry</text>
</g>
<!-- Node5&#45;&gt;Node2 -->
<g id="edge4_Node000002_Node000005" class="edge">
<title>Node5&#45;&gt;Node2</title>
<g id="a_edge4_Node000002_Node000005"><a xlink:title=" ">
<path fill="none" stroke="#9a32cd" stroke-dasharray="5,2" d="M327.02,-187.38C319.92,-184.42 312.24,-181.42 305,-179 274.13,-168.67 257.21,-183.83 234,-161 214.92,-142.23 212.65,-108.02 212.7,-92.09"/>
<polygon fill="#9a32cd" stroke="#9a32cd" points="325.69,-190.62 336.26,-191.35 328.45,-184.19 325.69,-190.62"/>
</a>
</g>
<text text-anchor="middle" x="273.5" y="-142" font-family="Helvetica,sans-Serif" font-size="10.00" fill="grey"> OD_13FE_entry</text>
<text text-anchor="middle" x="273.5" y="-131" font-family="Helvetica,sans-Serif" font-size="10.00" fill="grey">OD_13FF_entry</text>
</g>
<!-- Node7 -->
<g id="Node000007" class="node">
<title>Node7</title>
<g id="a_Node000007"><a xlink:href="structOD__t.html" target="_top" xlink:title="Object Dictionary.">
<polygon fill="white" stroke="#666666" points="511.5,-92 470.5,-92 470.5,-73 511.5,-73 511.5,-92"/>
<text text-anchor="middle" x="491" y="-80" font-family="Helvetica,sans-Serif" font-size="10.00">OD_t</text>
</a>
</g>
</g>
<!-- Node5&#45;&gt;Node7 -->
<g id="edge8_Node000007_Node000005" class="edge">
<title>Node5&#45;&gt;Node7</title>
<g id="a_edge8_Node000007_Node000005"><a xlink:title=" ">
<path fill="none" stroke="#9a32cd" stroke-dasharray="5,2" d="M355.73,-181.2C357.5,-162.29 363.19,-133.64 381,-117 406.05,-93.6 423.53,-109.99 456,-99 461.79,-97.04 467.94,-94.49 473.44,-92.02"/>
<polygon fill="#9a32cd" stroke="#9a32cd" points="352.23,-181.06 355.07,-191.27 359.22,-181.52 352.23,-181.06"/>
</a>
</g>
<text text-anchor="middle" x="390.5" y="-136.5" font-family="Helvetica,sans-Serif" font-size="10.00" fill="grey"> list</text>
</g>
<!-- Node6 -->
<g id="Node000006" class="node">
<title>Node6</title>
<g id="a_Node000006"><a xlink:href="structOD__extension__t.html" target="_top" xlink:title="Extension of OD object, which can optionally be specified by application in initialization phase with...">
<polygon fill="white" stroke="#666666" points="435,-289 341,-289 341,-270 435,-270 435,-289"/>
<text text-anchor="middle" x="388" y="-277" font-family="Helvetica,sans-Serif" font-size="10.00">OD_extension_t</text>
</a>
</g>
</g>
<!-- Node6&#45;&gt;Node1 -->
<g id="edge20_Node000001_Node000006" class="edge">
<title>Node6&#45;&gt;Node1</title>
<g id="a_edge20_Node000001_Node000006"><a xlink:title=" ">
<path fill="none" stroke="#9a32cd" stroke-dasharray="5,2" d="M402.64,-261.94C404.77,-258.81 406.68,-255.44 408,-252 429.65,-195.79 379.35,-161.46 420,-117 450.47,-83.67 489.06,-131.89 520,-99 540.64,-77.06 530.85,-36.84 525.12,-19.19"/>
<polygon fill="#9a32cd" stroke="#9a32cd" points="399.79,-259.91 396.42,-269.95 405.32,-264.2 399.79,-259.91"/>
</a>
</g>
<text text-anchor="start" x="420" y="-153" font-family="Helvetica,sans-Serif" font-size="10.00" fill="grey"> OD_communicationParam</text>
<text text-anchor="middle" x="485.5" y="-142" font-family="Helvetica,sans-Serif" font-size="10.00" fill="grey">_ext</text>
<text text-anchor="start" x="420" y="-131" font-family="Helvetica,sans-Serif" font-size="10.00" fill="grey">OD_mappingParam</text>
<text text-anchor="middle" x="485.5" y="-120" font-family="Helvetica,sans-Serif" font-size="10.00" fill="grey">_extension</text>
</g>
<!-- Node6&#45;&gt;Node2 -->
<g id="edge6_Node000002_Node000006" class="edge">
<title>Node6&#45;&gt;Node2</title>
<g id="a_edge6_Node000002_Node000006"><a xlink:title=" ">
<path fill="none" stroke="#9a32cd" stroke-dasharray="5,2" d="M330.6,-277.53C289.48,-273.45 236.67,-260.55 209,-223 179.1,-182.43 200.43,-115.69 209.48,-92.09"/>
<polygon fill="#9a32cd" stroke="#9a32cd" points="330.52,-281.03 340.78,-278.39 331.11,-274.06 330.52,-281.03"/>
</a>
</g>
<text text-anchor="middle" x="259.5" y="-204" font-family="Helvetica,sans-Serif" font-size="10.00" fill="grey"> OD_13FE_extension</text>
<text text-anchor="middle" x="259.5" y="-193" font-family="Helvetica,sans-Serif" font-size="10.00" fill="grey">OD_13FF_extension</text>
</g>
<!-- Node6&#45;&gt;Node5 -->
<g id="edge5_Node000005_Node000006" class="edge">
<title>Node6&#45;&gt;Node5</title>
<g id="a_edge5_Node000005_Node000006"><a xlink:title=" ">
<path fill="none" stroke="#9a32cd" stroke-dasharray="5,2" d="M364.69,-263.45C361.19,-260.11 358.07,-256.28 356,-252 349.59,-238.71 351.25,-221.02 353.09,-210.64"/>
<polygon fill="#9a32cd" stroke="#9a32cd" points="362.71,-266.35 372.68,-269.92 367.11,-260.91 362.71,-266.35"/>
</a>
</g>
<text text-anchor="middle" x="382" y="-244" font-family="Helvetica,sans-Serif" font-size="10.00" fill="grey"> extension</text>
</g>
<!-- Node8 -->
<g id="Node000008" class="node">
<title>Node8</title>
<g id="a_Node000008"><a xlink:href="structCO__EM__t.html" target="_top" xlink:title="Emergency object.">
<polygon fill="white" stroke="#666666" points="641,-92 581,-92 581,-73 641,-73 641,-92"/>
<text text-anchor="middle" x="611" y="-80" font-family="Helvetica,sans-Serif" font-size="10.00">CO_EM_t</text>
</a>
</g>
</g>
<!-- Node6&#45;&gt;Node8 -->
<g id="edge15_Node000008_Node000006" class="edge">
<title>Node6&#45;&gt;Node8</title>
<g id="a_edge15_Node000008_Node000006"><a xlink:title=" ">
<path fill="none" stroke="#9a32cd" stroke-dasharray="5,2" d="M445.43,-277.52C489.51,-273.6 548.63,-260.9 584,-223 619.17,-185.3 614.91,-116.18 612.16,-92.07"/>
<polygon fill="#9a32cd" stroke="#9a32cd" points="445.12,-274.04 435.42,-278.29 445.66,-281.02 445.12,-274.04"/>
</a>
</g>
<text text-anchor="middle" x="668.5" y="-215" font-family="Helvetica,sans-Serif" font-size="10.00" fill="grey"> OD_1003_extension</text>
<text text-anchor="middle" x="668.5" y="-204" font-family="Helvetica,sans-Serif" font-size="10.00" fill="grey">OD_1014_extension</text>
<text text-anchor="middle" x="668.5" y="-193" font-family="Helvetica,sans-Serif" font-size="10.00" fill="grey">OD_1015_extension</text>
<text text-anchor="middle" x="668.5" y="-182" font-family="Helvetica,sans-Serif" font-size="10.00" fill="grey">OD_statusBits_extension</text>
</g>
<!-- Node7&#45;&gt;Node1 -->
<g id="edge7_Node000001_Node000007" class="edge">
<title>Node7&#45;&gt;Node1</title>
<g id="a_edge7_Node000001_Node000007"><a xlink:title=" ">
<path fill="none" stroke="#9a32cd" stroke-dasharray="5,2" d="M496.81,-63.17C499.58,-55.03 503.14,-45.41 507,-37 509.82,-30.85 513.57,-24.22 516.62,-19.14"/>
<polygon fill="#9a32cd" stroke="#9a32cd" points="493.44,-62.2 493.64,-72.8 500.09,-64.39 493.44,-62.2"/>
</a>
</g>
<text text-anchor="middle" x="516.5" y="-40" font-family="Helvetica,sans-Serif" font-size="10.00" fill="grey"> OD</text>
</g>
<!-- Node8&#45;&gt;Node1 -->
<g id="edge9_Node000001_Node000008" class="edge">
<title>Node8&#45;&gt;Node1</title>
<g id="a_edge9_Node000001_Node000008"><a xlink:title=" ">
<path fill="none" stroke="#9a32cd" stroke-dasharray="5,2" d="M591.98,-66.33C573.91,-51.91 547.38,-30.75 532.72,-19.06"/>
<polygon fill="#9a32cd" stroke="#9a32cd" points="590.09,-69.29 600.09,-72.79 594.45,-63.82 590.09,-69.29"/>
</a>
</g>
<text text-anchor="middle" x="576.5" y="-40" font-family="Helvetica,sans-Serif" font-size="10.00" fill="grey"> em</text>
</g>
<!-- Node9 -->
<g id="Node000009" class="node">
<title>Node9</title>
<g id="a_Node000009"><a xlink:href="structCO__CANmodule__t.html" target="_top" xlink:title="Complete CAN module object.">
<polygon fill="white" stroke="#666666" points="855.5,-210.5 752.5,-210.5 752.5,-191.5 855.5,-191.5 855.5,-210.5"/>
<text text-anchor="middle" x="804" y="-198.5" font-family="Helvetica,sans-Serif" font-size="10.00">CO_CANmodule_t</text>
</a>
</g>
</g>
<!-- Node9&#45;&gt;Node1 -->
<g id="edge16_Node000001_Node000009" class="edge">
<title>Node9&#45;&gt;Node1</title>
<g id="a_edge16_Node000001_Node000009"><a xlink:title=" ">
<path fill="none" stroke="#9a32cd" stroke-dasharray="5,2" d="M807.14,-181.16C809.09,-162.89 809.01,-135.3 795,-117 737.32,-41.66 618.79,-19.57 558.69,-13.13"/>
<polygon fill="#9a32cd" stroke="#9a32cd" points="803.65,-180.79 805.77,-191.17 810.59,-181.74 803.65,-180.79"/>
</a>
</g>
<text text-anchor="middle" x="804.5" y="-85.5" font-family="Helvetica,sans-Serif" font-size="10.00" fill="grey"> CANdevRx</text>
<text text-anchor="middle" x="804.5" y="-74.5" font-family="Helvetica,sans-Serif" font-size="10.00" fill="grey">CANdevTx</text>
</g>
<!-- Node9&#45;&gt;Node8 -->
<g id="edge10_Node000008_Node000009" class="edge">
<title>Node9&#45;&gt;Node8</title>
<g id="a_edge10_Node000008_Node000009"><a xlink:title=" ">
<path fill="none" stroke="#9a32cd" stroke-dasharray="5,2" d="M781.21,-186.25C740.95,-161.94 658.35,-112.08 625.21,-92.08"/>
<polygon fill="#9a32cd" stroke="#9a32cd" points="779.44,-189.26 789.81,-191.43 783.06,-183.27 779.44,-189.26"/>
</a>
</g>
<text text-anchor="middle" x="763.5" y="-136.5" font-family="Helvetica,sans-Serif" font-size="10.00" fill="grey"> CANdevTx</text>
</g>
<!-- Node10 -->
<g id="Node000010" class="node">
<title>Node10</title>
<g id="a_Node000010"><a xlink:href="structCO__CANrx__t.html" target="_top" xlink:title="Configuration object for CAN received message for specific CANopenNode Object.">
<polygon fill="white" stroke="#666666" points="812,-289 736,-289 736,-270 812,-270 812,-289"/>
<text text-anchor="middle" x="774" y="-277" font-family="Helvetica,sans-Serif" font-size="10.00">CO_CANrx_t</text>
</a>
</g>
</g>
<!-- Node10&#45;&gt;Node9 -->
<g id="edge11_Node000009_Node000010" class="edge">
<title>Node10&#45;&gt;Node9</title>
<g id="a_edge11_Node000009_Node000010"><a xlink:title=" ">
<path fill="none" stroke="#9a32cd" stroke-dasharray="5,2" d="M772.29,-259.84C772.3,-253.69 772.95,-246.92 775,-241 779.08,-229.2 788.14,-218.01 795.05,-210.67"/>
<polygon fill="#9a32cd" stroke="#9a32cd" points="768.8,-260.08 772.79,-269.9 775.79,-259.74 768.8,-260.08"/>
</a>
</g>
<text text-anchor="middle" x="795" y="-244" font-family="Helvetica,sans-Serif" font-size="10.00" fill="grey"> rxArray</text>
</g>
<!-- Node11 -->
<g id="Node000011" class="node">
<title>Node11</title>
<g id="a_Node000011"><a xlink:href="structCO__CANtx__t.html" target="_top" xlink:title="Configuration object for CAN transmit message for specific CANopenNode Object.">
<polygon fill="white" stroke="#666666" points="930,-289 854,-289 854,-270 930,-270 930,-289"/>
<text text-anchor="middle" x="892" y="-277" font-family="Helvetica,sans-Serif" font-size="10.00">CO_CANtx_t</text>
</a>
</g>
</g>
<!-- Node11&#45;&gt;Node1 -->
<g id="edge18_Node000001_Node000011" class="edge">
<title>Node11&#45;&gt;Node1</title>
<g id="a_edge18_Node000001_Node000011"><a xlink:title=" ">
<path fill="none" stroke="#9a32cd" stroke-dasharray="5,2" d="M911.13,-263.21C922.16,-253.12 935,-238.87 941,-223 947.92,-204.71 948.15,-197.2 941,-179 915.93,-115.19 895.68,-99.74 836,-66 788.96,-39.4 631.02,-21.09 558.71,-13.9"/>
<polygon fill="#9a32cd" stroke="#9a32cd" points="908.81,-260.59 903.55,-269.79 913.4,-265.88 908.81,-260.59"/>
</a>
</g>
<text text-anchor="middle" x="960.5" y="-136.5" font-family="Helvetica,sans-Serif" font-size="10.00" fill="grey"> CANtxBuff</text>
</g>
<!-- Node11&#45;&gt;Node8 -->
<g id="edge14_Node000008_Node000011" class="edge">
<title>Node11&#45;&gt;Node8</title>
<g id="a_edge14_Node000008_Node000011"><a xlink:title=" ">
<path fill="none" stroke="#9a32cd" stroke-dasharray="5,2" d="M890.16,-259.7C887.39,-238.68 880.69,-204.28 865,-179 843.08,-143.69 832.38,-135.17 795,-117 744.77,-92.58 678.98,-85.85 641.21,-84.07"/>
<polygon fill="#9a32cd" stroke="#9a32cd" points="886.7,-260.32 891.32,-269.86 893.66,-259.52 886.7,-260.32"/>
</a>
</g>
<text text-anchor="middle" x="909.5" y="-198.5" font-family="Helvetica,sans-Serif" font-size="10.00" fill="grey"> CANtxBuff</text>
</g>
<!-- Node11&#45;&gt;Node9 -->
<g id="edge12_Node000009_Node000011" class="edge">
<title>Node11&#45;&gt;Node9</title>
<g id="a_edge12_Node000009_Node000011"><a xlink:title=" ">
<path fill="none" stroke="#9a32cd" stroke-dasharray="5,2" d="M858.92,-265.63C851.58,-261.89 844.15,-257.34 838,-252 824.37,-240.16 813.7,-221.66 808.18,-210.79"/>
<polygon fill="#9a32cd" stroke="#9a32cd" points="857.54,-268.85 868.08,-269.94 860.52,-262.52 857.54,-268.85"/>
</a>
</g>
<text text-anchor="middle" x="858" y="-244" font-family="Helvetica,sans-Serif" font-size="10.00" fill="grey"> txArray</text>
</g>
<!-- Node12 -->
<g id="Node000012" class="node">
<title>Node12</title>
<g id="a_Node000012"><a xlink:href="structCO__EM__fifo__t.html" target="_top" xlink:title="Fifo buffer for emergency producer and error history.">
<polygon fill="white" stroke="#666666" points="575,-210.5 493,-210.5 493,-191.5 575,-191.5 575,-210.5"/>
<text text-anchor="middle" x="534" y="-198.5" font-family="Helvetica,sans-Serif" font-size="10.00">CO_EM_fifo_t</text>
</a>
</g>
</g>
<!-- Node12&#45;&gt;Node8 -->
<g id="edge13_Node000008_Node000012" class="edge">
<title>Node12&#45;&gt;Node8</title>
<g id="a_edge13_Node000008_Node000012"><a xlink:title=" ">
<path fill="none" stroke="#9a32cd" stroke-dasharray="5,2" d="M543.14,-182.19C555.44,-158.24 575.93,-118.46 577,-117 583.89,-107.66 593.41,-98.52 600.62,-92.15"/>
<polygon fill="#9a32cd" stroke="#9a32cd" points="539.9,-180.83 538.45,-191.32 546.13,-184.03 539.9,-180.83"/>
</a>
</g>
<text text-anchor="middle" x="587" y="-136.5" font-family="Helvetica,sans-Serif" font-size="10.00" fill="grey"> fifo</text>
</g>
</g>
</svg>
