<?xml version="1.0" encoding="UTF-8" standalone="no"?>
<!DOCTYPE svg PUBLIC "-//W3C//DTD SVG 1.1//EN"
 "http://www.w3.org/Graphics/SVG/1.1/DTD/svg11.dtd">
<!-- Generated by graphviz version 2.43.0 (0)
 -->
<!-- Title: CO_LSSmaster_t Pages: 1 -->
<svg width="198pt" height="162pt"
 viewBox="0.00 0.00 198.00 162.00" xmlns="http://www.w3.org/2000/svg" xmlns:xlink="http://www.w3.org/1999/xlink">
<g id="graph0" class="graph" transform="scale(1 1) rotate(0) translate(4 158)">
<title>CO_LSSmaster_t</title>
<polygon fill="white" stroke="transparent" points="-4,4 -4,-158 194,-158 194,4 -4,4"/>
<!-- Node1 -->
<g id="node1" class="node">
<title>Node1</title>
<g id="a_node1"><a xlink:title="LSS master object.">
<polygon fill="#bfbfbf" stroke="black" points="0,-0.5 0,-19.5 97,-19.5 97,-0.5 0,-0.5"/>
<text text-anchor="middle" x="48.5" y="-7.5" font-family="Helvetica,sans-Serif" font-size="10.00">CO_LSSmaster_t</text>
</a>
</g>
</g>
<!-- Node2 -->
<g id="node2" class="node">
<title>Node2</title>
<g id="a_node2"><a xlink:href="structCO__CANtx__t.html" target="_top" xlink:title="Configuration object for CAN transmit message for specific CANopenNode Object.">
<polygon fill="white" stroke="black" points="0.5,-134.5 0.5,-153.5 76.5,-153.5 76.5,-134.5 0.5,-134.5"/>
<text text-anchor="middle" x="38.5" y="-141.5" font-family="Helvetica,sans-Serif" font-size="10.00">CO_CANtx_t</text>
</a>
</g>
</g>
<!-- Node2&#45;&gt;Node1 -->
<g id="edge1" class="edge">
<title>Node2&#45;&gt;Node1</title>
<path fill="none" stroke="#9a32cd" stroke-dasharray="5,2" d="M38.81,-123.8C39.16,-108.42 39.92,-86.3 41.5,-67 42.88,-50.2 45.56,-30.7 47.18,-19.71"/>
<polygon fill="#9a32cd" stroke="#9a32cd" points="35.3,-124.03 38.61,-134.09 42.3,-124.16 35.3,-124.03"/>
<text text-anchor="middle" x="59.5" y="-74.5" font-family="Helvetica,sans-Serif" font-size="10.00"> TXbuff</text>
</g>
<!-- Node3 -->
<g id="node3" class="node">
<title>Node3</title>
<g id="a_node3"><a xlink:href="structCO__CANmodule__t.html" target="_top" xlink:title="Complete CAN module object.">
<polygon fill="white" stroke="black" points="87,-67.5 87,-86.5 190,-86.5 190,-67.5 87,-67.5"/>
<text text-anchor="middle" x="138.5" y="-74.5" font-family="Helvetica,sans-Serif" font-size="10.00">CO_CANmodule_t</text>
</a>
</g>
</g>
<!-- Node2&#45;&gt;Node3 -->
<g id="edge3" class="edge">
<title>Node2&#45;&gt;Node3</title>
<path fill="none" stroke="#9a32cd" stroke-dasharray="5,2" d="M59.33,-128.53C69.8,-121.34 82.74,-112.59 94.5,-105 104.29,-98.68 115.48,-91.82 124.13,-86.59"/>
<polygon fill="#9a32cd" stroke="#9a32cd" points="57.09,-125.82 50.85,-134.38 61.07,-131.59 57.09,-125.82"/>
<text text-anchor="middle" x="114.5" y="-108" font-family="Helvetica,sans-Serif" font-size="10.00"> txArray</text>
</g>
<!-- Node3&#45;&gt;Node1 -->
<g id="edge2" class="edge">
<title>Node3&#45;&gt;Node1</title>
<path fill="none" stroke="#9a32cd" stroke-dasharray="5,2" d="M117.82,-61.07C100.06,-48.24 75.06,-30.19 60.45,-19.63"/>
<polygon fill="#9a32cd" stroke="#9a32cd" points="116.21,-64.22 126.36,-67.23 120.3,-58.54 116.21,-64.22"/>
<text text-anchor="middle" x="127" y="-41" font-family="Helvetica,sans-Serif" font-size="10.00"> CANdevTx</text>
</g>
<!-- Node4 -->
<g id="node4" class="node">
<title>Node4</title>
<g id="a_node4"><a xlink:href="structCO__CANrx__t.html" target="_top" xlink:title="Configuration object for CAN received message for specific CANopenNode Object.">
<polygon fill="white" stroke="black" points="100.5,-134.5 100.5,-153.5 176.5,-153.5 176.5,-134.5 100.5,-134.5"/>
<text text-anchor="middle" x="138.5" y="-141.5" font-family="Helvetica,sans-Serif" font-size="10.00">CO_CANrx_t</text>
</a>
</g>
</g>
<!-- Node4&#45;&gt;Node3 -->
<g id="edge4" class="edge">
<title>Node4&#45;&gt;Node3</title>
<path fill="none" stroke="#9a32cd" stroke-dasharray="5,2" d="M138.5,-124.04C138.5,-111.67 138.5,-96.12 138.5,-86.63"/>
<polygon fill="#9a32cd" stroke="#9a32cd" points="135,-124.23 138.5,-134.23 142,-124.23 135,-124.23"/>
<text text-anchor="middle" x="158.5" y="-108" font-family="Helvetica,sans-Serif" font-size="10.00"> rxArray</text>
</g>
</g>
</svg>
