<?xml version="1.0" encoding="UTF-8" standalone="no"?>
<!DOCTYPE svg PUBLIC "-//W3C//DTD SVG 1.1//EN"
 "http://www.w3.org/Graphics/SVG/1.1/DTD/svg11.dtd">
<!-- Generated by graphviz version 2.43.0 (0)
 -->
<!-- Title: CO_SRDO_t Pages: 1 -->
<svg width="662pt" height="264pt"
 viewBox="0.00 0.00 661.50 264.00" xmlns="http://www.w3.org/2000/svg" xmlns:xlink="http://www.w3.org/1999/xlink">
<g id="graph0" class="graph" transform="scale(1 1) rotate(0) translate(4 260)">
<title>CO_SRDO_t</title>
<polygon fill="white" stroke="transparent" points="-4,4 -4,-260 657.5,-260 657.5,4 -4,4"/>
<!-- Node1 -->
<g id="node1" class="node">
<title>Node1</title>
<g id="a_node1"><a xlink:title="SRDO object.">
<polygon fill="#bfbfbf" stroke="black" points="347,-0.5 347,-19.5 420,-19.5 420,-0.5 347,-0.5"/>
<text text-anchor="middle" x="383.5" y="-7.5" font-family="Helvetica,sans-Serif" font-size="10.00">CO_SRDO_t</text>
</a>
</g>
</g>
<!-- Node2 -->
<g id="node2" class="node">
<title>Node2</title>
<g id="a_node2"><a xlink:href="structCO__EM__t.html" target="_top" xlink:title="Emergency object.">
<polygon fill="white" stroke="black" points="201.5,-68.5 201.5,-87.5 261.5,-87.5 261.5,-68.5 201.5,-68.5"/>
<text text-anchor="middle" x="231.5" y="-75.5" font-family="Helvetica,sans-Serif" font-size="10.00">CO_EM_t</text>
</a>
</g>
</g>
<!-- Node2&#45;&gt;Node1 -->
<g id="edge1" class="edge">
<title>Node2&#45;&gt;Node1</title>
<path fill="none" stroke="#9a32cd" stroke-dasharray="5,2" d="M260.57,-64.38C290.81,-51.25 337.34,-31.05 363.62,-19.63"/>
<polygon fill="#9a32cd" stroke="#9a32cd" points="259.15,-61.18 251.37,-68.37 261.94,-67.6 259.15,-61.18"/>
<text text-anchor="middle" x="331" y="-41" font-family="Helvetica,sans-Serif" font-size="10.00"> em</text>
</g>
<!-- Node3 -->
<g id="node3" class="node">
<title>Node3</title>
<g id="a_node3"><a xlink:href="structCO__CANtx__t.html" target="_top" xlink:title="Configuration object for CAN transmit message for specific CANopenNode Object.">
<polygon fill="white" stroke="black" points="262.5,-236.5 262.5,-255.5 338.5,-255.5 338.5,-236.5 262.5,-236.5"/>
<text text-anchor="middle" x="300.5" y="-243.5" font-family="Helvetica,sans-Serif" font-size="10.00">CO_CANtx_t</text>
</a>
</g>
</g>
<!-- Node3&#45;&gt;Node1 -->
<g id="edge7" class="edge">
<title>Node3&#45;&gt;Node1</title>
<path fill="none" stroke="#9a32cd" stroke-dasharray="5,2" d="M325.05,-230.98C339.71,-221.21 357.23,-206.76 366.5,-189 396.96,-130.66 388.63,-46.88 384.87,-19.8"/>
<polygon fill="#9a32cd" stroke="#9a32cd" points="322.98,-228.15 316.39,-236.45 326.72,-234.07 322.98,-228.15"/>
<text text-anchor="middle" x="416" y="-126.5" font-family="Helvetica,sans-Serif" font-size="10.00"> CANtxBuff</text>
</g>
<!-- Node3&#45;&gt;Node2 -->
<g id="edge2" class="edge">
<title>Node3&#45;&gt;Node2</title>
<path fill="none" stroke="#9a32cd" stroke-dasharray="5,2" d="M303.88,-226.11C307.9,-197.62 311.26,-143.15 286.5,-107 280.38,-98.07 270.53,-91.83 260.85,-87.54"/>
<polygon fill="#9a32cd" stroke="#9a32cd" points="300.37,-225.86 302.25,-236.29 307.29,-226.97 300.37,-225.86"/>
<text text-anchor="middle" x="335" y="-176.5" font-family="Helvetica,sans-Serif" font-size="10.00"> CANtxBuff</text>
</g>
<!-- Node4 -->
<g id="node4" class="node">
<title>Node4</title>
<g id="a_node4"><a xlink:href="structCO__CANmodule__t.html" target="_top" xlink:title="Complete CAN module object.">
<polygon fill="white" stroke="black" points="0,-169.5 0,-188.5 103,-188.5 103,-169.5 0,-169.5"/>
<text text-anchor="middle" x="51.5" y="-176.5" font-family="Helvetica,sans-Serif" font-size="10.00">CO_CANmodule_t</text>
</a>
</g>
</g>
<!-- Node3&#45;&gt;Node4 -->
<g id="edge4" class="edge">
<title>Node3&#45;&gt;Node4</title>
<path fill="none" stroke="#9a32cd" stroke-dasharray="5,2" d="M257.99,-233.9C208.85,-221.08 129.02,-200.24 84.38,-188.58"/>
<polygon fill="#9a32cd" stroke="#9a32cd" points="257.13,-237.3 267.69,-236.44 258.9,-230.52 257.13,-237.3"/>
<text text-anchor="middle" x="211.5" y="-210" font-family="Helvetica,sans-Serif" font-size="10.00"> txArray</text>
</g>
<!-- Node4&#45;&gt;Node1 -->
<g id="edge8" class="edge">
<title>Node4&#45;&gt;Node1</title>
<path fill="none" stroke="#9a32cd" stroke-dasharray="5,2" d="M51.03,-158.85C51.58,-143.48 54.54,-122.06 65.5,-107 87.04,-77.4 103.31,-80.08 137.5,-67 209.09,-39.61 297.76,-23.5 346.7,-16.04"/>
<polygon fill="#9a32cd" stroke="#9a32cd" points="47.53,-159.2 50.98,-169.22 54.53,-159.23 47.53,-159.2"/>
<text text-anchor="middle" x="165" y="-81" font-family="Helvetica,sans-Serif" font-size="10.00"> CANdevRx</text>
<text text-anchor="middle" x="165" y="-70" font-family="Helvetica,sans-Serif" font-size="10.00">CANdevTx</text>
</g>
<!-- Node4&#45;&gt;Node2 -->
<g id="edge3" class="edge">
<title>Node4&#45;&gt;Node2</title>
<path fill="none" stroke="#9a32cd" stroke-dasharray="5,2" d="M58.7,-159.85C66.17,-143.45 79.44,-119.95 98.5,-107 129.24,-86.11 172.5,-80.33 201.24,-78.97"/>
<polygon fill="#9a32cd" stroke="#9a32cd" points="55.32,-158.85 54.63,-169.42 61.76,-161.59 55.32,-158.85"/>
<text text-anchor="middle" x="126" y="-126.5" font-family="Helvetica,sans-Serif" font-size="10.00"> CANdevTx</text>
</g>
<!-- Node5 -->
<g id="node5" class="node">
<title>Node5</title>
<g id="a_node5"><a xlink:href="structCO__CANrx__t.html" target="_top" xlink:title="Configuration object for CAN received message for specific CANopenNode Object.">
<polygon fill="white" stroke="black" points="13.5,-236.5 13.5,-255.5 89.5,-255.5 89.5,-236.5 13.5,-236.5"/>
<text text-anchor="middle" x="51.5" y="-243.5" font-family="Helvetica,sans-Serif" font-size="10.00">CO_CANrx_t</text>
</a>
</g>
</g>
<!-- Node5&#45;&gt;Node4 -->
<g id="edge5" class="edge">
<title>Node5&#45;&gt;Node4</title>
<path fill="none" stroke="#9a32cd" stroke-dasharray="5,2" d="M51.5,-226.04C51.5,-213.67 51.5,-198.12 51.5,-188.63"/>
<polygon fill="#9a32cd" stroke="#9a32cd" points="48,-226.23 51.5,-236.23 55,-226.23 48,-226.23"/>
<text text-anchor="middle" x="71.5" y="-210" font-family="Helvetica,sans-Serif" font-size="10.00"> rxArray</text>
</g>
<!-- Node6 -->
<g id="node6" class="node">
<title>Node6</title>
<g id="a_node6"><a xlink:href="structOD__extension__t.html" target="_top" xlink:title="Extension of OD object, which can optionally be specified by application in initialization phase with...">
<polygon fill="white" stroke="black" points="121.5,-169.5 121.5,-188.5 215.5,-188.5 215.5,-169.5 121.5,-169.5"/>
<text text-anchor="middle" x="168.5" y="-176.5" font-family="Helvetica,sans-Serif" font-size="10.00">OD_extension_t</text>
</a>
</g>
</g>
<!-- Node6&#45;&gt;Node2 -->
<g id="edge6" class="edge">
<title>Node6&#45;&gt;Node2</title>
<path fill="none" stroke="#9a32cd" stroke-dasharray="5,2" d="M161.3,-159.38C156.66,-144.03 153.21,-122.37 163.5,-107 171.95,-94.38 187.24,-87.44 201.18,-83.63"/>
<polygon fill="#9a32cd" stroke="#9a32cd" points="158.14,-160.95 164.71,-169.26 164.76,-158.67 158.14,-160.95"/>
<text text-anchor="middle" x="225" y="-143" font-family="Helvetica,sans-Serif" font-size="10.00"> OD_1003_extension</text>
<text text-anchor="middle" x="225" y="-132" font-family="Helvetica,sans-Serif" font-size="10.00">OD_statusBits_extension</text>
<text text-anchor="middle" x="225" y="-121" font-family="Helvetica,sans-Serif" font-size="10.00">OD_1014_extension</text>
<text text-anchor="middle" x="225" y="-110" font-family="Helvetica,sans-Serif" font-size="10.00">OD_1015_extension</text>
</g>
<!-- Node7 -->
<g id="node7" class="node">
<title>Node7</title>
<g id="a_node7"><a xlink:href="structCO__SRDOCommPar__t.html" target="_top" xlink:title="SRDO communication parameter.">
<polygon fill="white" stroke="black" points="412,-68.5 412,-87.5 533,-87.5 533,-68.5 412,-68.5"/>
<text text-anchor="middle" x="472.5" y="-75.5" font-family="Helvetica,sans-Serif" font-size="10.00">CO_SRDOCommPar_t</text>
</a>
</g>
</g>
<!-- Node7&#45;&gt;Node1 -->
<g id="edge9" class="edge">
<title>Node7&#45;&gt;Node1</title>
<path fill="none" stroke="#9a32cd" stroke-dasharray="5,2" d="M452.4,-62.1C434.74,-49 409.66,-30.4 395.14,-19.63"/>
<polygon fill="#9a32cd" stroke="#9a32cd" points="450.75,-65.23 460.86,-68.37 454.92,-59.6 450.75,-65.23"/>
<text text-anchor="middle" x="472" y="-41" font-family="Helvetica,sans-Serif" font-size="10.00"> SRDOCommPar</text>
</g>
<!-- Node8 -->
<g id="node8" class="node">
<title>Node8</title>
<g id="a_node8"><a xlink:href="structCO__SRDOGuard__t.html" target="_top" xlink:title="Gurad Object for SRDO monitors:">
<polygon fill="white" stroke="black" points="551.5,-68.5 551.5,-87.5 653.5,-87.5 653.5,-68.5 551.5,-68.5"/>
<text text-anchor="middle" x="602.5" y="-75.5" font-family="Helvetica,sans-Serif" font-size="10.00">CO_SRDOGuard_t</text>
</a>
</g>
</g>
<!-- Node8&#45;&gt;Node1 -->
<g id="edge10" class="edge">
<title>Node8&#45;&gt;Node1</title>
<path fill="none" stroke="#9a32cd" stroke-dasharray="5,2" d="M576.98,-63.77C559.94,-55.39 536.84,-44.87 515.5,-38 484,-27.85 446.99,-20.67 420.19,-16.28"/>
<polygon fill="#9a32cd" stroke="#9a32cd" points="575.74,-67.06 586.25,-68.41 578.88,-60.8 575.74,-67.06"/>
<text text-anchor="middle" x="572" y="-41" font-family="Helvetica,sans-Serif" font-size="10.00"> SRDOGuard</text>
</g>
</g>
</svg>
