<?xml version="1.0" encoding="UTF-8" standalone="no"?>
<!DOCTYPE svg PUBLIC "-//W3C//DTD SVG 1.1//EN"
 "http://www.w3.org/Graphics/SVG/1.1/DTD/svg11.dtd">
<!-- Generated by graphviz version 2.43.0 (0)
 -->
<!-- Title: CO_GFC_t Pages: 1 -->
<svg width="207pt" height="162pt"
 viewBox="0.00 0.00 206.50 162.00" xmlns="http://www.w3.org/2000/svg" xmlns:xlink="http://www.w3.org/1999/xlink">
<g id="graph0" class="graph" transform="scale(1 1) rotate(0) translate(4 158)">
<title>CO_GFC_t</title>
<polygon fill="white" stroke="transparent" points="-4,4 -4,-158 202.5,-158 202.5,4 -4,4"/>
<!-- Node1 -->
<g id="node1" class="node">
<title>Node1</title>
<g id="a_node1"><a xlink:title="GFC object.">
<polygon fill="#bfbfbf" stroke="black" points="5.5,-0.5 5.5,-19.5 70.5,-19.5 70.5,-0.5 5.5,-0.5"/>
<text text-anchor="middle" x="38" y="-7.5" font-family="Helvetica,sans-Serif" font-size="10.00">CO_GFC_t</text>
</a>
</g>
</g>
<!-- Node2 -->
<g id="node2" class="node">
<title>Node2</title>
<g id="a_node2"><a xlink:href="structCO__CANtx__t.html" target="_top" xlink:title="Configuration object for CAN transmit message for specific CANopenNode Object.">
<polygon fill="white" stroke="black" points="0,-134.5 0,-153.5 76,-153.5 76,-134.5 0,-134.5"/>
<text text-anchor="middle" x="38" y="-141.5" font-family="Helvetica,sans-Serif" font-size="10.00">CO_CANtx_t</text>
</a>
</g>
</g>
<!-- Node2&#45;&gt;Node1 -->
<g id="edge1" class="edge">
<title>Node2&#45;&gt;Node1</title>
<path fill="none" stroke="#9a32cd" stroke-dasharray="5,2" d="M35.07,-124.3C33.52,-113.44 31.78,-99.48 31,-87 29.49,-62.67 33.76,-34.05 36.29,-19.88"/>
<polygon fill="#9a32cd" stroke="#9a32cd" points="31.63,-124.93 36.57,-134.3 38.55,-123.89 31.63,-124.93"/>
<text text-anchor="middle" x="58.5" y="-74.5" font-family="Helvetica,sans-Serif" font-size="10.00"> CANtxBuff</text>
</g>
<!-- Node3 -->
<g id="node3" class="node">
<title>Node3</title>
<g id="a_node3"><a xlink:href="structCO__CANmodule__t.html" target="_top" xlink:title="Complete CAN module object.">
<polygon fill="white" stroke="black" points="95.5,-67.5 95.5,-86.5 198.5,-86.5 198.5,-67.5 95.5,-67.5"/>
<text text-anchor="middle" x="147" y="-74.5" font-family="Helvetica,sans-Serif" font-size="10.00">CO_CANmodule_t</text>
</a>
</g>
</g>
<!-- Node2&#45;&gt;Node3 -->
<g id="edge3" class="edge">
<title>Node2&#45;&gt;Node3</title>
<path fill="none" stroke="#9a32cd" stroke-dasharray="5,2" d="M61.57,-128.94C83.16,-116.07 114.42,-97.43 132.53,-86.63"/>
<polygon fill="#9a32cd" stroke="#9a32cd" points="59.5,-126.11 52.7,-134.23 63.08,-132.12 59.5,-126.11"/>
<text text-anchor="middle" x="120" y="-108" font-family="Helvetica,sans-Serif" font-size="10.00"> txArray</text>
</g>
<!-- Node3&#45;&gt;Node1 -->
<g id="edge2" class="edge">
<title>Node3&#45;&gt;Node1</title>
<path fill="none" stroke="#9a32cd" stroke-dasharray="5,2" d="M123.43,-61.94C101.84,-49.07 70.58,-30.43 52.47,-19.63"/>
<polygon fill="#9a32cd" stroke="#9a32cd" points="121.92,-65.12 132.3,-67.23 125.5,-59.11 121.92,-65.12"/>
<text text-anchor="middle" x="127.5" y="-41" font-family="Helvetica,sans-Serif" font-size="10.00"> CANdevTx</text>
</g>
<!-- Node4 -->
<g id="node4" class="node">
<title>Node4</title>
<g id="a_node4"><a xlink:href="structCO__CANrx__t.html" target="_top" xlink:title="Configuration object for CAN received message for specific CANopenNode Object.">
<polygon fill="white" stroke="black" points="109,-134.5 109,-153.5 185,-153.5 185,-134.5 109,-134.5"/>
<text text-anchor="middle" x="147" y="-141.5" font-family="Helvetica,sans-Serif" font-size="10.00">CO_CANrx_t</text>
</a>
</g>
</g>
<!-- Node4&#45;&gt;Node3 -->
<g id="edge4" class="edge">
<title>Node4&#45;&gt;Node3</title>
<path fill="none" stroke="#9a32cd" stroke-dasharray="5,2" d="M147,-124.04C147,-111.67 147,-96.12 147,-86.63"/>
<polygon fill="#9a32cd" stroke="#9a32cd" points="143.5,-124.23 147,-134.23 150.5,-124.23 143.5,-124.23"/>
<text text-anchor="middle" x="167" y="-108" font-family="Helvetica,sans-Serif" font-size="10.00"> rxArray</text>
</g>
</g>
</svg>
