<?xml version="1.0" encoding="UTF-8" standalone="no"?>
<!DOCTYPE svg PUBLIC "-//W3C//DTD SVG 1.1//EN"
 "http://www.w3.org/Graphics/SVG/1.1/DTD/svg11.dtd">
<!-- Generated by graphviz version 2.43.0 (0)
 -->
<!-- Title: CO_TIME_t Pages: 1 -->
<svg width="332pt" height="159pt"
 viewBox="0.00 0.00 332.00 159.00" xmlns="http://www.w3.org/2000/svg" xmlns:xlink="http://www.w3.org/1999/xlink">

<svg id="main" version="1.1" xmlns="http://www.w3.org/2000/svg" xmlns:xlink="http://www.w3.org/1999/xlink" xml:space="preserve" onload="init(evt)">
<style type="text/css"><![CDATA[
.node, .edge {opacity: 0.7;}
.node.selected, .edge.selected {opacity: 1;}
.edge:hover path { stroke: red; }
.edge:hover polygon { stroke: red; fill: red; }
]]></style>
<script type="application/ecmascript" xlink:href="svg.min.js"/>
<svg id="graph" class="graph">
<g id="graph0" class="graph" transform="scale(1 1) rotate(0) translate(4 155)">
<title>CO_TIME_t</title>
<!-- Node1 -->
<g id="Node000001" class="node">
<title>Node1</title>
<g id="a_Node000001"><a xlink:title="TIME producer and consumer object.">
<polygon fill="#999999" stroke="#666666" points="190.5,-19 121.5,-19 121.5,0 190.5,0 190.5,-19"/>
<text text-anchor="middle" x="156" y="-7" font-family="Helvetica,sans-Serif" font-size="10.00">CO_TIME_t</text>
</a>
</g>
</g>
<!-- Node2 -->
<g id="Node000002" class="node">
<title>Node2</title>
<g id="a_Node000002"><a xlink:href="structCO__CANmodule__t.html" target="_top" xlink:title="Complete CAN module object.">
<polygon fill="white" stroke="#666666" points="119.5,-85 16.5,-85 16.5,-66 119.5,-66 119.5,-85"/>
<text text-anchor="middle" x="68" y="-73" font-family="Helvetica,sans-Serif" font-size="10.00">CO_CANmodule_t</text>
</a>
</g>
</g>
<!-- Node2&#45;&gt;Node1 -->
<g id="edge1_Node000001_Node000002" class="edge">
<title>Node2&#45;&gt;Node1</title>
<g id="a_edge1_Node000001_Node000002"><a xlink:title=" ">
<path fill="none" stroke="#9a32cd" stroke-dasharray="5,2" d="M74.1,-56.11C77.09,-49.37 81.31,-42.13 87,-37 96.62,-28.32 109.39,-22.36 121.33,-18.33"/>
<polygon fill="#9a32cd" stroke="#9a32cd" points="70.64,-55.34 70.35,-65.94 77.18,-57.84 70.64,-55.34"/>
</a>
</g>
<text text-anchor="middle" x="114.5" y="-40" font-family="Helvetica,sans-Serif" font-size="10.00" fill="grey"> CANdevTx</text>
</g>
<!-- Node3 -->
<g id="Node000003" class="node">
<title>Node3</title>
<g id="a_Node000003"><a xlink:href="structCO__CANrx__t.html" target="_top" xlink:title="Configuration object for CAN received message for specific CANopenNode Object.">
<polygon fill="white" stroke="#666666" points="76,-151 0,-151 0,-132 76,-132 76,-151"/>
<text text-anchor="middle" x="38" y="-139" font-family="Helvetica,sans-Serif" font-size="10.00">CO_CANrx_t</text>
</a>
</g>
</g>
<!-- Node3&#45;&gt;Node2 -->
<g id="edge2_Node000002_Node000003" class="edge">
<title>Node3&#45;&gt;Node2</title>
<g id="a_edge2_Node000002_Node000003"><a xlink:title=" ">
<path fill="none" stroke="#9a32cd" stroke-dasharray="5,2" d="M35.64,-121.58C35.61,-115.42 36.4,-108.7 39,-103 42.29,-95.8 48.55,-89.69 54.42,-85.15"/>
<polygon fill="#9a32cd" stroke="#9a32cd" points="32.16,-122 36.36,-131.73 39.14,-121.5 32.16,-122"/>
</a>
</g>
<text text-anchor="middle" x="59" y="-106" font-family="Helvetica,sans-Serif" font-size="10.00" fill="grey"> rxArray</text>
</g>
<!-- Node4 -->
<g id="Node000004" class="node">
<title>Node4</title>
<g id="a_Node000004"><a xlink:href="structCO__CANtx__t.html" target="_top" xlink:title="Configuration object for CAN transmit message for specific CANopenNode Object.">
<polygon fill="white" stroke="#666666" points="182,-151 106,-151 106,-132 182,-132 182,-151"/>
<text text-anchor="middle" x="144" y="-139" font-family="Helvetica,sans-Serif" font-size="10.00">CO_CANtx_t</text>
</a>
</g>
</g>
<!-- Node4&#45;&gt;Node1 -->
<g id="edge4_Node000001_Node000004" class="edge">
<title>Node4&#45;&gt;Node1</title>
<g id="a_edge4_Node000001_Node000004"><a xlink:title=" ">
<path fill="none" stroke="#9a32cd" stroke-dasharray="5,2" d="M145.73,-121.73C148.36,-93.22 153.27,-40.09 155.19,-19.23"/>
<polygon fill="#9a32cd" stroke="#9a32cd" points="142.22,-121.69 144.79,-131.97 149.19,-122.33 142.22,-121.69"/>
</a>
</g>
<text text-anchor="middle" x="178.5" y="-73" font-family="Helvetica,sans-Serif" font-size="10.00" fill="grey"> CANtxBuff</text>
</g>
<!-- Node4&#45;&gt;Node2 -->
<g id="edge3_Node000002_Node000004" class="edge">
<title>Node4&#45;&gt;Node2</title>
<g id="a_edge3_Node000002_Node000004"><a xlink:title=" ">
<path fill="none" stroke="#9a32cd" stroke-dasharray="5,2" d="M119.24,-126.45C113.37,-122.69 107.29,-118.44 102,-114 91.5,-105.18 81.17,-93.19 74.71,-85.16"/>
<polygon fill="#9a32cd" stroke="#9a32cd" points="117.79,-129.66 128.15,-131.88 121.43,-123.68 117.79,-129.66"/>
</a>
</g>
<text text-anchor="middle" x="122" y="-106" font-family="Helvetica,sans-Serif" font-size="10.00" fill="grey"> txArray</text>
</g>
<!-- Node5 -->
<g id="Node000005" class="node">
<title>Node5</title>
<g id="a_Node000005"><a xlink:href="structOD__extension__t.html" target="_top" xlink:title="Extension of OD object, which can optionally be specified by application in initialization phase with...">
<polygon fill="white" stroke="#666666" points="323,-85 229,-85 229,-66 323,-66 323,-85"/>
<text text-anchor="middle" x="276" y="-73" font-family="Helvetica,sans-Serif" font-size="10.00">OD_extension_t</text>
</a>
</g>
</g>
<!-- Node5&#45;&gt;Node1 -->
<g id="edge5_Node000001_Node000005" class="edge">
<title>Node5&#45;&gt;Node1</title>
<g id="a_edge5_Node000001_Node000005"><a xlink:title=" ">
<path fill="none" stroke="#9a32cd" stroke-dasharray="5,2" d="M250.74,-61.03C227.1,-48.42 192.5,-29.97 172.31,-19.2"/>
<polygon fill="#9a32cd" stroke="#9a32cd" points="249.35,-64.25 259.82,-65.87 252.64,-58.07 249.35,-64.25"/>
</a>
</g>
<text text-anchor="middle" x="273.5" y="-40" font-family="Helvetica,sans-Serif" font-size="10.00" fill="grey"> OD_1012_extension</text>
</g>
</g>
</svg>
</svg>

<style type='text/css'>
<![CDATA[
[data-mouse-over-selected='false'] { opacity: 0.7; }
[data-mouse-over-selected='true']  { opacity: 1.0; }
]]>
</style>
<script type="application/ecmascript"><![CDATA[
document.addEventListener('DOMContentLoaded', (event) => {
  highlightEdges();
  highlightAdjacentNodes();
});
]]></script>
</svg>
